<svg width="395" height="236" viewBox="0 0 395 236" fill="none" xmlns="http://www.w3.org/2000/svg">
<mask id="mask0_237_4514" style="mask-type:alpha" maskUnits="userSpaceOnUse" x="0" y="0" width="395" height="236">
<rect width="395" height="236" rx="10" fill="white"/>
</mask>
<g mask="url(#mask0_237_4514)">
<path d="M392.102 98.1781C390.679 98.2572 388.86 99.326 387.595 99.8009C386.251 100.316 384.828 100.87 383.444 101.226C382.1 101.582 380.281 101.622 379.055 102.176C378.304 102.532 378.304 102.967 377.514 103.245C376.96 103.403 376.13 103.205 375.537 103.245C374.746 103.284 373.876 103.561 373.086 103.403C371.939 103.165 372.413 103.047 371.741 102.334C370.753 101.305 369.527 100.395 367.946 100.038C367.985 99.1676 369.172 98.1385 368.816 97.2677C368.579 96.5552 367.155 96.0011 366.523 95.6053C364.902 94.5366 363.439 93.2699 361.976 92.0033C360.474 90.6971 359.367 89.0743 357.943 87.7285C356.915 86.7785 356.085 86.1452 355.413 85.2348C355.374 84.9182 355.334 84.6411 355.215 84.364C354.978 83.7307 354.543 83.137 354.069 82.5828C353.555 81.3162 353.041 80.2079 352.013 79.2184C351.736 78.7434 349.443 78.5455 348.415 76.7643C347.308 74.9039 347.427 71.4999 347.19 71.1041C347.19 70.9853 347.15 70.8666 347.15 70.7478C346.794 68.8083 345.885 67.8188 344.62 66.5522C344.027 65.246 342.485 65.3647 341.813 64.0585C340.904 62.3565 340.864 60.9315 339.599 59.6649C337.187 57.29 335.843 53.886 333.945 51.1944C333.155 50.0861 330.347 44.6238 330.782 44.3467C331.217 44.0301 334.894 48.8591 335.882 49.4132C338.413 50.8382 337.859 47.3154 337.859 45.4154C337.859 43.6738 337.266 43.4363 336.317 42.0114C336.041 41.6156 335.724 40.3885 335.289 40.1115C334.696 39.7552 334.38 40.349 333.629 40.349C332.166 40.349 331.375 39.9927 330.229 39.2803C327.936 37.8157 328.371 38.4095 326.592 39.1219C325.603 39.5177 324.378 39.1615 323.35 39.3198C322.559 39.4386 321.729 39.9136 320.938 40.0323C319.277 40.2698 317.222 40.1115 315.561 40.0323C313.387 39.9531 310.777 39.5573 308.366 38.7657C308.405 38.6469 308.405 38.5282 308.445 38.4095C307.061 38.1324 306.507 37.3012 305.4 36.8262C304.926 36.5887 304.372 36.5095 303.819 36.4304C303.147 35.8366 302.831 35.2825 301.961 35.0054C301.328 34.8075 300.34 34.8867 299.668 34.7283C298.284 34.4513 296.347 34.0159 295.24 35.045C294.212 35.9554 294.686 37.1033 294.765 38.3303C294.805 38.8053 294.726 39.3594 294.726 39.8344C294.647 39.9927 294.568 40.1115 294.449 40.2698C293.816 41.0614 292.393 42.0906 291.207 42.0114C290.258 41.9322 289.507 40.8635 288.835 40.6656C286.779 40.1115 285 38.8844 282.984 38.3303C282.232 38.1324 281.205 38.0136 281.284 37.9741C281.046 37.4991 280.809 36.7866 280.414 36.1533C280.493 35.5991 278.872 34.7679 278.042 34.8867C277.963 34.8867 277.923 34.8867 277.844 34.8867C277.567 34.9262 277.33 34.8867 277.053 34.8075C275.946 34.3721 275.709 33.7784 274.404 33.8575C273.93 33.8971 273.456 34.0159 273.021 34.2138C272.704 34.095 272.349 33.9763 271.993 33.8575C270.688 33.5409 269.581 33.5013 268.514 32.6305C267.407 31.7201 266.3 31.443 266.734 29.9389C266.932 29.1869 267.209 28.7515 267.921 28.3952C268.355 28.1577 269.146 28.2369 269.542 27.9598C271.123 26.8911 268.355 26.4557 268.751 25.1891C268.909 24.635 269.225 24.3183 269.542 24.0017C270.055 23.5267 270.53 23.1308 270.214 21.9434C269.621 21.9038 269.502 22.6954 268.909 22.6559C268.514 22.6163 268.474 21.9038 268.197 21.6663C268 21.4684 266.655 21.1122 264.441 21.508C262.939 21.7851 259.776 21.1913 257.444 21.4288C255.823 21.5872 254.597 22.6954 254.32 22.3392C253.45 21.2705 253.569 20.7559 252.225 21.1122C251.236 21.3892 250.367 21.7059 249.339 21.7455C248.232 21.8246 247.283 21.9434 246.255 22.3788C245.188 22.8538 244.634 22.8142 243.487 22.9725C242.42 23.1308 241.392 23.7246 240.522 24.3579C239.376 25.1495 239.059 24.7933 237.794 25.0308C235.659 25.4266 234.315 27.1682 231.983 26.9307C231.192 26.8515 230.48 26.8911 229.848 26.8911C228.938 26.8911 228.029 26.8515 226.962 26.5349C225.736 26.1391 224.234 24.5162 223.166 25.5058C222.85 25.7828 222.652 26.0995 222.494 26.4161C221.703 27.0495 221.11 27.9994 219.924 29.0285C218.185 30.5722 216.089 31.7201 214.192 32.9867C209.922 35.797 209.289 39.6761 206.64 43.5947C205.81 44.8217 203.517 47.4737 202.173 48.107C201.421 48.4632 200.235 48.107 199.405 48.4237C198.061 48.8591 197.152 49.9674 196.282 50.9965C194.898 52.6193 192.921 53.6485 191.735 55.3109C190.233 57.4088 188.731 58.992 187.07 60.9315C185.686 62.5148 184.223 64.4939 183.037 66.2751C182.523 67.0667 181.97 68.0167 181.891 68.9667C181.693 71.3812 182.721 69.7583 183.275 71.1832C183.709 72.2915 182.919 72.8853 182.721 73.6373C182.602 74.0331 181.93 74.1915 181.891 74.8248C181.851 75.4977 182.682 75.4185 182.682 75.8539C182.761 77.9122 181.1 79.535 181.219 81.6329C181.219 81.7516 181.258 81.8704 181.298 81.9891C181.14 82.2266 180.982 82.4245 180.863 82.662C179.163 85.9473 179.519 88.0451 176 89.8263C177.384 92.0825 178.53 91.4096 177.819 94.5761C177.067 97.901 178.491 96.951 180.428 99.2072C181.1 99.9988 181.219 101.068 181.93 101.82C182.484 102.453 183.67 103.403 184.342 103.917C185.291 104.67 185.607 104.313 186.358 105.461C186.833 106.213 186.872 107.717 187.465 108.667C188.256 109.973 187.9 109.736 189.244 110.646C190.193 111.319 190.786 111.596 191.577 112.507C193.356 114.605 194.424 115.515 196.796 116.9C200.473 119.038 203.161 124.025 207.747 122.521C211.938 121.136 214.587 118.919 219.133 120.542C221.11 121.254 222.415 121.531 224.589 121.492C227.436 121.492 227.713 120.067 230.085 119.038C230.915 118.681 231.864 118.286 232.773 118.404C233.604 118.484 234.078 119.354 234.908 119.038C235.818 118.721 236.015 117.019 237.28 116.663C238.15 116.425 239.534 116.861 240.483 116.861C242.657 116.821 245.306 116.386 246.097 118.127C246.453 118.879 247.006 119.394 247.362 120.106C247.757 120.938 247.402 121.888 248.35 122.442C250.96 124.065 251.513 121.69 252.818 121.254C253.253 121.096 253.688 122.323 254.439 122.521C256.297 123.035 258.946 123.233 259.618 124.342C260.33 125.49 262.9 126.479 262.583 127.904C262.188 129.646 260.29 131.031 259.579 132.456C260.132 132.812 260.765 132.852 261.199 133.366C260.844 133.96 260.092 134 259.737 134.593C259.262 135.345 259.737 135.82 259.579 136.573C259.183 138.275 257.048 138.591 258.709 140.333C259.341 141.006 259.183 142.589 259.776 143.143C260.33 143.658 260.844 144.331 261.199 144.964C261.951 146.349 263.255 146.389 264.086 147.735C265.707 150.505 268.593 152.761 269.66 155.849C270.016 156.918 272.072 160.52 272.783 163.172C273.06 164.201 271.756 164.319 272.111 165.269C273.06 167.921 274.681 169.584 274.76 170.178C274.958 171.721 274.8 173.384 274.444 174.927C273.732 176.194 272.072 176.867 271.36 178.133C270.53 179.677 269.383 180.904 269.028 182.606C268.79 183.873 268.988 185.179 268.909 186.485C268.276 187.158 267.921 188.148 268.079 189.731C268.316 191.908 269.067 193.689 270.332 195.114C269.818 196.381 271.36 197.37 272.111 198.756C272.902 200.22 273.693 201.566 274.681 202.912C274.958 203.308 275.353 203.743 275.749 204.258C275.709 205.999 276.46 207.147 277.607 207.978C277.607 209.126 277.014 210.234 277.251 211.422C277.528 213.005 278.635 214.351 278.951 215.895C279.425 218.23 279.307 222.821 281.442 224.523C282.153 225.078 282.786 224.642 283.537 225.078C284.13 225.434 284.565 226.621 284.881 227.215C285.751 228.68 286.384 230.104 286.977 231.688C287.491 233.073 287.807 234.577 288.598 235.804C288.993 236.438 289.586 236.873 289.626 237.625C289.626 238.417 288.835 238.852 288.874 239.842C288.914 241.148 290.061 243.087 290.93 243.998C292.551 245.739 293.382 244.829 295.082 244.116C296.465 243.523 297.73 244.235 299.075 243.998C300.538 243.76 301.842 242.771 303.463 242.612C305.005 242.494 306.626 242.533 308.168 242.454C308.919 242.414 309.749 242.573 310.501 242.494C311.212 242.414 311.133 242.612 311.766 242.375C311.845 242.335 312.359 241.583 312.715 241.425C313.387 241.108 314.296 241.267 315.087 240.91C316.036 240.475 317.063 239.644 317.854 238.971C319.396 237.585 320.898 236.081 322.401 234.617C325.168 231.846 328.213 228.68 330.347 225.513C330.98 224.603 331.494 224.326 331.692 223.217C331.85 222.346 331.573 221.396 331.692 220.486C331.85 219.338 331.889 219.14 332.799 218.349C333.431 217.834 334.696 217.478 335.092 216.765C335.171 216.726 335.25 216.686 335.329 216.686C337.069 216.092 340.785 214.549 341.497 212.688C341.338 212.649 341.062 212.53 340.824 212.491C341.062 211.105 342.011 210.155 342.05 208.77C342.05 207.622 341.497 206.632 341.22 205.564C341.417 205.089 340.983 202.437 340.231 201.566C340.073 201.131 339.876 200.695 339.638 200.26C339.48 198.954 340.904 198.716 341.892 198.083C342.999 197.331 343.711 196.499 345.134 196.064C346.913 195.51 346.201 195.193 347.348 193.65C348.494 192.106 350.194 192.62 351.657 191.908C352.804 191.354 354.267 190.246 355.334 189.533C356.599 188.662 356.362 187.752 357.271 186.564C358.181 185.377 359.406 185.139 359.762 183.477C359.999 182.369 359.643 181.221 359.643 180.113C359.643 178.846 359.96 177.579 359.762 176.313C359.564 175.125 359.011 174.373 359.327 173.304C360.039 172.988 360.83 172.552 360.988 172.315C361.699 170.969 358.576 169.188 358.22 168.04C357.627 166.219 357.074 164.992 356.995 163.092C356.915 160.955 358.062 160.084 356.599 158.976C354.82 157.67 356.006 156.918 356.639 155.413C357.153 154.186 356.995 152.801 357.232 151.455C357.311 151.02 357.429 150.624 357.588 150.228C358.695 149.635 359.05 148.407 359.446 147.141C360.474 145.716 361.502 144.291 362.609 142.906C363.953 141.876 365.258 140.887 366.602 139.818C367.906 138.75 368.974 137.325 370.397 136.375C373.244 134.435 375.616 131.664 378.779 130.081C381.783 128.537 382.851 124.658 385.342 122.283C387.674 120.067 388.267 116.544 390.205 113.892C391.944 111.517 393.486 108.351 393.723 105.342C393.842 103.838 393.842 102.374 394 100.909C393.921 99.2864 394 98.0989 392.102 98.1781Z" fill="#DCE6F8"/>
<path d="M389.295 181.419C389.177 179.479 388.267 176.392 386.488 175.521L385.816 175.917C384.828 175.679 385.342 176.986 385.342 177.777C385.342 178.767 385.302 179.717 383.958 179.638C384.077 179.638 383.997 180.073 383.958 180.113C383.879 180.271 383.681 180.31 383.523 180.35C383.088 180.469 382.574 180.39 382.218 180.152C381.783 180.706 382.1 181.815 381.151 181.775C381.23 182.369 381.863 182.725 381.625 183.358C381.309 184.189 380.597 183.873 379.925 183.794C379.728 184.308 379.174 184.308 379.293 184.942C379.372 185.337 379.728 186.05 379.135 186.169C378.976 185.733 378.739 184.744 378.107 185.1C377.83 185.258 377.593 185.733 377.197 185.694C377.355 186.01 377.593 186.327 377.553 186.683C377.553 186.802 377.316 187.554 377.158 187.554C377.079 187.554 376.604 187 376.486 186.921C375.774 186.406 375.062 186.762 374.43 187.198C373.52 187.831 372.532 188.187 371.425 188.306C370.476 188.425 370.516 188.306 370.12 189.137C369.804 189.771 369.33 190.483 369.172 191.195C368.539 194.283 370.081 197.806 368.816 200.656C368.025 202.437 366.127 203.189 365.337 204.93C365.099 205.445 364.941 205.801 364.704 206.237C364.467 206.632 364.269 206.791 364.269 207.226C364.19 208.216 364.862 208.493 365.297 209.245C365.653 209.878 365.337 210.789 365.337 211.501C365.337 212.253 364.941 213.045 365.02 213.678C365.139 214.509 366.048 215.42 366.602 216.013C367.037 216.449 367.906 216.963 368.499 216.963C368.697 217.399 370.199 217.755 370.634 217.636C370.753 217.438 370.911 217.201 371.069 217.042C372.216 216.528 374.667 216.33 375.3 215.222C375.458 214.945 375.339 214.628 375.497 214.39C375.734 213.995 376.367 213.757 376.604 213.361C377.039 212.728 377.355 211.818 377.514 211.105C378.107 208.255 379.49 205.682 381.151 203.228C381.625 202.555 382.297 201.843 382.614 201.091C382.93 200.378 382.93 199.547 383.325 198.874C383.721 198.162 384.314 197.806 384.511 197.014C384.749 196.143 384.63 195.114 384.63 194.164C384.63 193.372 385.302 192.898 385.777 192.225C386.251 191.512 386.844 190.483 387.2 189.612C387.753 188.346 386.607 187.158 387.516 186.129C387.951 186.367 387.556 186.644 387.911 187C388.188 187.237 388.544 187.198 388.781 187.475C389.849 186.96 389.374 185.417 389.256 184.546C389.177 183.596 389.374 182.487 389.295 181.419Z" fill="#DCE6F8"/>
</g>
</svg>
