<svg width="395" height="236" viewBox="0 0 395 236" fill="none" xmlns="http://www.w3.org/2000/svg">
<mask id="mask0_15_526" style="mask-type:alpha" maskUnits="userSpaceOnUse" x="0" y="0" width="395" height="236">
<rect width="395" height="236" rx="10" fill="white"/>
</mask>
<g mask="url(#mask0_15_526)">
<g clip-path="url(#clip0_15_526)">
<path d="M370.873 182.75L392.224 159.535" stroke="white" stroke-width="0.3578" stroke-miterlimit="10"/>
<path d="M380.558 182.75L402.129 159.535" stroke="white" stroke-width="0.3578" stroke-miterlimit="10"/>
<path d="M390.463 182.75L412.034 159.535" stroke="white" stroke-width="0.3578" stroke-miterlimit="10"/>
<path d="M668.685 254.148H67.3386V198.081H648.654L668.685 217.354V254.148Z" fill="#DCE6F8" stroke="white" stroke-width="0.3578" stroke-miterlimit="10"/>
<path d="M105.858 254.148H274.464V198.081L190.161 158.878L105.858 198.081V254.148Z" fill="#DCE6F8" stroke="white" stroke-width="0.3578" stroke-miterlimit="10"/>
<path d="M190.161 150.336L105.858 189.54V198.081L190.161 158.878L274.464 198.081V189.54L190.161 150.336Z" fill="#DCE6F8" stroke="white" stroke-width="0.3578" stroke-miterlimit="10"/>
<path d="M375.716 172.019C375.716 172.019 409.393 163.915 425.241 182.531H434.265C434.265 182.531 449.893 161.287 476.527 166.543C476.527 166.543 450.334 142.452 429.643 134.568C429.863 134.568 400.368 145.518 375.716 172.019Z" fill="#DCE6F8" stroke="white" stroke-width="0.3578" stroke-miterlimit="10"/>
<path d="M156.044 174.647L115.103 97.9925C115.103 97.9925 163.308 80.6906 218.996 106.534L200.286 163.696L190.161 159.097L156.044 174.647Z" fill="#DCE6F8" stroke="white" stroke-width="0.3578" stroke-miterlimit="10"/>
<path d="M283.709 77.4054C264.779 69.0829 239.687 52 197.865 66.8928L266.54 194.139L274.464 197.862L297.576 115.733L283.709 77.4054Z" fill="#DCE6F8" stroke="white" stroke-width="0.3578" stroke-miterlimit="10"/>
<path d="M297.576 115.733C297.576 115.733 285.69 129.092 281.948 143.547C278.646 155.593 280.627 175.961 280.627 175.961L320.908 180.122L297.576 115.733Z" fill="#DCE6F8" stroke="white" stroke-width="0.3578" stroke-miterlimit="10"/>
<path d="M218.996 106.315C218.996 106.315 213.273 113.323 209.531 123.617C204.248 138.51 203.588 152.965 203.588 152.965L257.956 178.589L218.996 106.315Z" fill="#DCE6F8" stroke="white" stroke-width="0.3578" stroke-miterlimit="10"/>
<path d="M499.859 182.75H360.308L338.297 198.081H522.31L499.859 182.75Z" fill="#DCE6F8" stroke="white" stroke-width="0.3578" stroke-miterlimit="10"/>
<path d="M327.511 198.081H338.297L429.863 134.787C429.863 134.787 404.11 52 274.464 52L327.511 198.081Z" fill="#DCE6F8" stroke="white" stroke-width="0.3578" stroke-miterlimit="10"/>
<path d="M354.145 186.911H506.682" stroke="white" stroke-width="0.3578" stroke-miterlimit="10"/>
<path d="M75.7029 198.081V254.148" stroke="white" stroke-width="0.3516" stroke-miterlimit="10"/>
<path d="M82.9666 198.081V254.148" stroke="white" stroke-width="0.3516" stroke-miterlimit="10"/>
<path d="M90.4504 198.081V254.148" stroke="white" stroke-width="0.3516" stroke-miterlimit="10"/>
<path d="M97.9343 198.081V254.148" stroke="white" stroke-width="0.3516" stroke-miterlimit="10"/>
<path d="M112.682 195.015V254.148" stroke="white" stroke-width="0.3516" stroke-miterlimit="10"/>
<path d="M120.166 191.511V254.148" stroke="white" stroke-width="0.3516" stroke-miterlimit="10"/>
<path d="M127.429 188.007V254.148" stroke="white" stroke-width="0.3516" stroke-miterlimit="10"/>
<path d="M134.913 184.502V254.148" stroke="white" stroke-width="0.3516" stroke-miterlimit="10"/>
<path d="M142.177 181.217V254.148" stroke="white" stroke-width="0.3516" stroke-miterlimit="10"/>
<path d="M149.661 177.713V254.148" stroke="white" stroke-width="0.3516" stroke-miterlimit="10"/>
<path d="M157.144 174.647V254.148" stroke="white" stroke-width="0.3516" stroke-miterlimit="10"/>
<path d="M164.408 171.143V254.148" stroke="white" stroke-width="0.3516" stroke-miterlimit="10"/>
<path d="M171.892 167.2V254.148" stroke="white" stroke-width="0.3516" stroke-miterlimit="10"/>
<path d="M179.376 163.696V254.148" stroke="white" stroke-width="0.3516" stroke-miterlimit="10"/>
<path d="M186.639 160.192V254.148" stroke="white" stroke-width="0.3516" stroke-miterlimit="10"/>
<path d="M194.123 160.849V254.148" stroke="white" stroke-width="0.3516" stroke-miterlimit="10"/>
<path d="M201.387 164.134V254.148" stroke="white" stroke-width="0.3516" stroke-miterlimit="10"/>
<path d="M208.871 167.2V254.148" stroke="white" stroke-width="0.3516" stroke-miterlimit="10"/>
<path d="M216.354 171.143V254.148" stroke="white" stroke-width="0.3516" stroke-miterlimit="10"/>
<path d="M223.618 174.647V254.148" stroke="white" stroke-width="0.3516" stroke-miterlimit="10"/>
<path d="M231.102 177.713V254.148" stroke="white" stroke-width="0.3516" stroke-miterlimit="10"/>
<path d="M238.586 181.436V254.148" stroke="white" stroke-width="0.3516" stroke-miterlimit="10"/>
<path d="M245.849 185.159V254.148" stroke="white" stroke-width="0.3516" stroke-miterlimit="10"/>
<path d="M253.333 188.226V254.148" stroke="white" stroke-width="0.3516" stroke-miterlimit="10"/>
<path d="M260.597 191.73V254.148" stroke="white" stroke-width="0.3516" stroke-miterlimit="10"/>
<path d="M268.081 195.234V254.148" stroke="white" stroke-width="0.3516" stroke-miterlimit="10"/>
<path d="M275.564 198.081V254.148" stroke="white" stroke-width="0.3516" stroke-miterlimit="10"/>
<path d="M282.828 198.081V254.148" stroke="white" stroke-width="0.3516" stroke-miterlimit="10"/>
<path d="M290.312 198.081V254.148" stroke="white" stroke-width="0.3516" stroke-miterlimit="10"/>
<path d="M297.576 198.081V254.148" stroke="white" stroke-width="0.3516" stroke-miterlimit="10"/>
<path d="M305.06 198.081V254.148" stroke="white" stroke-width="0.3516" stroke-miterlimit="10"/>
<path d="M312.543 198.081V254.148" stroke="white" stroke-width="0.3516" stroke-miterlimit="10"/>
<path d="M319.807 198.081V254.148" stroke="white" stroke-width="0.3516" stroke-miterlimit="10"/>
<path d="M327.291 198.081V254.148" stroke="white" stroke-width="0.3516" stroke-miterlimit="10"/>
<path d="M334.775 198.081V254.148" stroke="white" stroke-width="0.3516" stroke-miterlimit="10"/>
<path d="M342.038 198.081V254.148" stroke="white" stroke-width="0.3516" stroke-miterlimit="10"/>
<path d="M349.522 198.081V254.148" stroke="white" stroke-width="0.3516" stroke-miterlimit="10"/>
<path d="M356.786 198.081V254.148" stroke="white" stroke-width="0.3516" stroke-miterlimit="10"/>
<path d="M364.27 198.081V254.148" stroke="white" stroke-width="0.3516" stroke-miterlimit="10"/>
<path d="M371.753 198.081V254.148" stroke="white" stroke-width="0.3516" stroke-miterlimit="10"/>
<path d="M379.017 198.081V254.148" stroke="white" stroke-width="0.3516" stroke-miterlimit="10"/>
<path d="M386.501 198.081V254.148" stroke="white" stroke-width="0.3516" stroke-miterlimit="10"/>
<path d="M393.985 198.081V254.148" stroke="white" stroke-width="0.3516" stroke-miterlimit="10"/>
</g>
</g>
<defs>
<clipPath id="clip0_15_526">
<rect width="904" height="235" fill="white" transform="translate(-60 52)"/>
</clipPath>
</defs>
</svg>
