<svg width="395" height="236" viewBox="0 0 395 236" fill="none" xmlns="http://www.w3.org/2000/svg">
<mask id="mask0_15_498" style="mask-type:alpha" maskUnits="userSpaceOnUse" x="0" y="0" width="395" height="236">
<rect width="395" height="236" rx="10" fill="white"/>
</mask>
<g mask="url(#mask0_15_498)">
<path d="M391.815 180.552C391.815 199.588 391.815 218.665 391.854 237.701C391.854 238.809 391.735 239.166 390.469 239.166C309.454 239.126 228.44 239.126 147.385 239.166C146.119 239.166 146 238.809 146 237.701C146.04 221.277 146.04 204.852 146.04 188.467C146.989 188.428 147.227 187.794 147.227 187.003C147.227 186.33 147.227 185.697 147.306 185.024C147.385 184.589 147.544 184.074 148.058 183.955C148.652 183.797 148.85 184.272 149.087 184.668C149.443 185.301 149.76 186.132 150.591 186.013C153.52 185.697 156.211 186.963 159.14 186.924C170.578 186.765 182.055 186.884 193.532 186.884C193.532 188.586 193.532 190.288 193.572 191.989C193.611 192.979 194.047 193.335 194.957 192.702C196.896 191.317 199.152 190.565 201.329 189.615C208.967 186.29 217.002 184.826 225.273 184.786C230.221 184.786 235.089 185.222 239.957 186.251C241.342 186.567 242.648 187.359 244.152 187.201C248.347 188.942 252.78 190.208 256.698 192.662C259.745 194.562 259.903 194.443 260.022 190.802C260.576 190.802 261.17 190.763 261.447 190.288C262.595 188.388 264.455 188.428 266.315 188.467C276.288 188.467 286.262 188.467 296.235 188.507C297.621 188.507 298.966 188.032 300.351 188.467C300.391 192.583 300.47 196.699 300.51 200.815C300.47 207.068 300.431 213.322 300.431 219.535C300.431 223.572 299.877 223.137 304.111 223.295C305.892 223.335 306.328 222.662 306.328 221C306.288 215.023 306.328 209.047 306.367 203.032C306.486 202.438 306.723 201.884 306.723 201.29C306.644 195.868 307.357 190.486 307.119 185.103C307.08 184.232 307.08 183.401 307.436 182.57C308.663 182.016 308.188 180.908 308.307 179.998C308.386 179.523 308.386 179.008 308.9 178.85C309.454 178.652 309.771 179.087 309.929 179.523C310.483 180.908 311.631 180.987 312.858 180.947C314.204 180.908 315.549 180.789 315.905 182.61C316.064 183.362 316.776 183.282 317.37 183.282C317.528 187.28 317.686 191.237 317.845 195.235C317.963 201.013 318.082 206.791 318.201 212.57C318.201 213.282 318.201 214.153 319.269 214.074C320.219 213.994 320.101 213.203 320.101 212.57C320.14 211.264 320.18 209.918 320.101 208.612C319.982 206.871 320.496 206.039 322.396 206.198C323.465 206.277 324.612 206.475 325.681 205.921C326.75 205.96 327.779 206 328.847 206.039C330.945 206.435 333.042 206.079 335.14 206.237C336.525 206.316 337.317 205.921 337.158 204.377C337.04 203.111 337.673 202.636 338.9 202.636C344.164 202.675 349.427 202.675 354.731 202.636C356.076 202.636 356.63 203.111 356.591 204.496C356.551 207.583 356.591 210.67 356.591 213.797C356.868 214.272 357.105 214.786 357.739 214.153C358.649 214.153 359.599 214.113 360.509 214.153C361.934 214.232 362.488 213.638 362.488 212.174C362.409 204.14 362.409 196.145 362.369 188.111C362.409 185.301 362.488 182.531 362.527 179.721C363.556 179.721 364.506 179.958 365.219 180.75C365.614 181.185 366.089 181.343 366.643 181.145C370.562 179.879 374.599 180.75 378.596 180.472C381.525 180.275 384.493 179.721 387.422 180.512L387.619 180.552H387.817C389.123 180.552 390.469 180.552 391.815 180.552Z" fill="#DCE6F8"/>
<path d="M183.638 169.312C183.875 169.312 184.113 169.312 184.35 169.312C184.509 169.312 184.667 169.312 184.825 169.312C186.171 169.272 187.477 169.47 188.823 169.114C189.733 169.391 189.97 170.103 189.891 170.974C189.812 172.161 190.406 172.715 191.553 172.557C193.334 172.359 193.611 173.349 193.572 174.813C193.493 178.81 193.532 182.808 193.532 186.805C182.055 186.805 170.617 186.726 159.14 186.844C156.211 186.884 153.52 185.618 150.591 185.934C149.72 186.013 149.443 185.222 149.087 184.589C148.85 184.193 148.652 183.718 148.058 183.876C147.543 184.034 147.385 184.509 147.306 184.945C147.227 185.578 147.227 186.251 147.227 186.924C147.227 187.755 146.989 188.348 146.04 188.388C146.04 187.715 146.04 187.082 146.04 186.409C146.04 186.29 146.04 186.132 146.04 186.013C146.04 175.209 146.04 164.365 146.04 153.56C148.018 153.52 149.997 153.441 151.976 153.441C156.567 153.441 156.567 153.441 156.765 148.85C160.05 148.85 163.335 148.85 166.62 148.85C169.311 148.85 169.39 148.85 169.351 151.502C169.311 153.085 169.944 153.6 171.448 153.52C173.467 153.441 175.525 153.6 177.543 153.481C179.482 153.362 180.195 153.956 180.155 156.014C179.997 160.961 180.116 165.868 180.076 170.816C180.076 172.082 180.67 172.557 181.897 172.557C183.163 172.597 183.757 172.122 183.638 170.855C183.598 170.38 183.638 169.866 183.638 169.312Z" fill="#DCE6F8"/>
<path d="M259.666 156.41C260.141 149.286 259.706 142.162 259.745 135.038C260.022 134.919 260.26 134.8 260.537 134.682C262.832 134.761 265.128 134.8 267.423 134.879C268.452 134.919 268.967 134.444 269.165 133.415C269.481 131.951 269.917 130.486 270.312 129.022C270.708 128.191 271.104 127.36 271.46 126.529C273.122 122.848 274.785 119.167 278.742 117.307C279.494 116.951 279.415 116.239 279.415 115.566C279.415 113.27 279.415 110.935 279.455 108.64C279.455 107.967 279.178 106.977 280.325 107.017C281.275 107.057 281.038 107.967 281.038 108.6C281.077 110.896 281.038 113.231 281.038 115.526C281.038 116.159 280.879 116.951 281.631 117.268C284.56 118.494 286.064 121.107 287.687 123.56C289.112 126.727 290.536 129.893 291.288 133.296C291.526 134.444 292.159 134.761 293.228 134.721C295.127 134.682 297.027 134.721 298.927 134.721C299.797 134.721 300.47 134.879 300.708 135.869C300.668 139.629 300.589 143.349 300.589 147.109C300.549 154.391 300.589 161.713 300.589 168.995C300.549 175.486 300.47 181.976 300.431 188.428C299.045 187.992 297.7 188.467 296.315 188.467C286.341 188.428 276.368 188.467 266.394 188.428C264.534 188.428 262.674 188.388 261.526 190.248C261.249 190.723 260.655 190.763 260.101 190.763C260.062 180.275 260.062 169.747 260.022 159.259C260.022 158.428 260.181 157.557 259.706 156.766C259.666 156.647 259.666 156.528 259.666 156.41Z" fill="#DCE6F8"/>
<path d="M362.527 179.721C362.488 165.512 362.488 151.304 362.448 137.096C362.448 136.225 362.369 135.394 362.369 134.523C362.409 132.505 362.488 130.447 362.448 128.428C362.409 127.004 362.725 126.133 364.388 126.331C364.981 126.41 365.971 126.489 365.971 125.618C366.01 123.402 367.554 123.837 368.86 123.758C369.493 123.758 370.126 123.758 370.799 123.758C371.353 123.758 371.868 123.758 372.422 123.758C372.54 123.679 372.659 123.6 372.818 123.521C372.818 122.333 372.857 121.146 372.857 119.959C372.857 115.21 372.857 110.46 372.936 105.751C372.936 105.038 372.659 103.89 373.847 103.97C374.876 104.049 374.519 105.117 374.519 105.751C374.559 111.133 374.559 116.555 374.519 121.938C374.519 123.165 374.717 123.917 376.221 123.877C377.686 123.877 378.002 123.244 377.963 121.977C377.923 118.771 377.923 115.526 377.963 112.281C377.963 111.45 377.804 110.46 379.11 110.421C379.862 112.874 379.308 115.368 379.427 117.822C379.467 118.653 379.427 119.523 379.427 120.355C379.427 123.442 379.427 123.442 382.435 123.758C382.949 123.798 383.701 123.719 383.662 124.431C383.464 126.806 385.087 126.449 386.511 126.489C386.828 126.489 387.145 126.647 387.422 126.727C387.422 144.655 387.422 162.584 387.422 180.512C384.493 179.721 381.525 180.275 378.596 180.473C374.599 180.75 370.562 179.879 366.643 181.145C366.089 181.304 365.614 181.185 365.219 180.75C364.506 179.958 363.556 179.721 362.527 179.721Z" fill="#DCE6F8"/>
<path d="M307.476 169.114C307.515 168.401 307.515 167.729 307.555 167.016C307.99 165.868 307.951 164.721 307.634 163.573C307.99 148.019 308.346 132.465 308.742 116.911C308.821 114.339 308.861 111.766 308.94 109.194C309.019 105.948 309.059 102.664 309.138 99.4182C309.257 95.7771 309.336 92.1755 309.494 88.574C309.573 87.1888 309.257 86.4368 307.674 86.5556C306.288 86.6347 305.378 86.0806 305.457 84.4975C305.457 84.2996 305.457 83.983 305.378 83.9435C303.201 82.6374 304.27 80.4607 303.953 78.6797C303.637 76.8195 305.655 75.7114 305.378 73.8908C305.378 73.7721 305.774 73.4555 305.972 73.4555C308.623 73.5346 308.188 71.6745 308.188 70.0518C308.188 68.7853 308.188 67.5585 308.188 66.292C308.188 65.4213 307.951 64.3923 309.296 64.1152C309.85 63.9965 309.811 63.4028 309.811 62.9675C309.811 55.527 309.811 48.0864 309.771 40.6459C309.771 39.4586 308.346 38.667 308.663 37.2422C308.861 36.4111 308.505 35.3821 309.85 35.1446C310.563 35.0259 310.563 34.3135 310.523 33.6803C310.484 31.5827 310.483 29.4455 310.483 27.3479C310.879 24.4192 310.563 21.4509 310.681 18.4826C310.721 17.7306 310.484 16.8995 311.117 16.2267C311.196 16.1475 311.315 16.0288 311.394 15.9497C311.592 13.0209 311.552 10.0922 311.315 7.16349C311.354 5.9366 311.315 4.67012 311.513 3.44322C311.71 2.21633 310.721 0 312.304 0C313.808 0.0395773 312.937 2.29548 313.016 3.52238C313.175 6.72814 313.135 9.9339 313.175 13.1397C313.096 16.2663 314.362 19.3137 313.927 22.5195C313.768 23.7068 313.966 24.9733 314.006 26.2002C313.966 28.4561 313.966 30.6724 313.927 32.9283C313.927 33.9177 314.006 34.551 315.154 35.2238C316.578 36.0153 316.064 37.8755 315.51 39.1024C315.154 39.8939 314.877 40.6063 314.877 41.477C314.877 48.3239 314.837 55.1708 314.877 62.0572C314.877 63.0071 314.639 64.0361 316.024 64.3923C316.697 64.5506 316.46 65.4213 316.499 65.9754C316.539 67.8751 316.499 69.8144 316.539 71.7141C316.539 72.2286 316.42 73.0201 317.014 73.0993C319.942 73.4555 319.27 76.5821 320.853 77.9277C320.18 80.0649 321.051 82.3999 319.468 84.5767C318.636 85.6849 318.28 86.7139 316.737 86.7139C316.064 86.7139 315.193 86.5556 315.193 87.7033C315.272 91.0674 315.352 94.3919 315.431 97.7559C315.549 105.196 315.668 112.597 316.143 120.038C316.301 129.972 316.46 139.866 316.618 149.8C316.618 150.592 316.658 151.383 316.658 152.175C316.737 155.341 316.816 158.507 316.895 161.713C316.46 163.256 316.381 164.8 316.974 166.343C317.014 167.254 317.053 168.164 317.093 169.114C317.172 173.863 317.251 178.652 317.33 183.401C316.737 183.401 316.024 183.48 315.866 182.728C315.51 180.908 314.164 181.027 312.819 181.066C311.592 181.106 310.444 181.066 309.89 179.641C309.732 179.206 309.415 178.771 308.861 178.969C308.346 179.127 308.346 179.641 308.267 180.116C308.148 181.027 308.623 182.174 307.396 182.689C307.436 178.098 307.476 173.586 307.476 169.114Z" fill="#DCE6F8"/>
<path d="M356.591 213.757C356.987 213.876 357.343 213.994 357.739 214.113C357.145 214.707 356.868 214.232 356.591 213.757Z" fill="#DCE6F8"/>
<path d="M311.393 15.9101C311.314 15.9892 311.196 16.108 311.116 16.1871C311.196 16.108 311.275 16.0288 311.393 15.9101Z" fill="#DCE6F8"/>
<path d="M309.098 99.4182C309.019 102.664 308.979 105.948 308.9 109.194C308.663 105.909 308.386 102.664 309.098 99.4182Z" fill="#DCE6F8"/>
<path d="M307.634 163.573C307.95 164.721 307.99 165.908 307.555 167.016C307.594 165.868 307.594 164.721 307.634 163.573Z" fill="#DCE6F8"/>
<path d="M259.666 156.805C259.508 156.766 259.389 156.766 259.231 156.726C259.389 156.607 259.508 156.528 259.666 156.41C259.666 156.528 259.666 156.647 259.666 156.805Z" fill="#DCE6F8"/>
<path d="M368.86 123.798C369.493 123.481 370.126 123.481 370.799 123.798C370.166 123.798 369.533 123.798 368.86 123.798Z" fill="#DCE6F8"/>
<path d="M316.895 161.594C316.934 163.138 316.934 164.681 316.974 166.225C316.42 164.681 316.499 163.138 316.895 161.594Z" fill="#DCE6F8"/>
<path d="M316.618 149.721C316.697 150.354 316.816 150.948 316.895 151.581C316.816 151.739 316.737 151.898 316.657 152.056C316.618 151.304 316.618 150.512 316.618 149.721Z" fill="#DCE6F8"/>
</g>
</svg>
