<svg width="395" height="236" viewBox="0 0 395 236" fill="none" xmlns="http://www.w3.org/2000/svg">
<mask id="mask0_15_673" style="mask-type:alpha" maskUnits="userSpaceOnUse" x="0" y="0" width="395" height="236">
<rect width="395" height="236" rx="10" fill="white"/>
</mask>
<g mask="url(#mask0_15_673)">
<path d="M340.439 318.828C344.197 318.828 347.815 318.41 351.294 317.297C351.294 321.472 351.294 325.647 351.294 329.822C345.588 329.683 339.743 329.683 334.038 329.404C329.863 329.126 329.028 331.074 329.028 334.693C329.167 346.382 329.306 358.212 329.028 369.901C328.888 374.216 330.558 375.468 334.733 375.329C340.3 375.19 345.727 375.468 351.294 375.607C351.294 382.009 353.799 390.915 350.598 394.255C347.537 397.456 338.491 395.09 332.089 395.09C308.988 395.09 285.886 394.951 262.924 395.229C258.471 395.229 257.775 393.977 258.053 390.08C258.471 385.21 258.192 380.339 258.192 375.607C263.481 375.468 268.769 375.051 274.057 375.329C278.511 375.607 280.181 374.216 280.041 369.623C279.763 361.134 279.902 352.506 279.902 343.878C279.902 290.438 279.902 236.999 279.902 183.559C279.902 180.776 280.181 177.992 280.459 175.348C296.602 175.348 312.884 175.487 329.028 175.487C329.167 215.985 329.167 256.482 329.306 297.118C329.306 303.798 329.445 310.478 329.445 317.297C331.393 322.029 335.29 322.585 340.439 318.828ZM286.582 269.007L287 269.285C287.974 269.981 288.531 269.702 288.531 268.589C288.531 257.456 288.67 246.323 288.67 235.329C288.531 234.354 287.974 233.659 287 234.076C285.608 234.494 285.886 235.607 286.026 236.72C286.026 246.879 286.026 257.178 286.026 267.337C286.165 267.754 286.443 268.45 286.582 269.007ZM287 281.671C286.582 281.671 286.443 281.81 286.304 282.227C286.165 282.784 286.026 283.341 285.886 284.036C285.886 294.195 285.886 304.494 285.886 314.653C285.886 314.931 285.608 315.07 285.747 315.349C285.886 315.766 286.165 316.184 286.304 316.462C286.304 316.879 286.582 317.019 286.861 316.879C287.974 317.436 288.391 317.158 288.391 316.044C288.391 304.911 288.391 293.778 288.391 282.645C288.67 281.253 288.113 280.975 287 281.671ZM287 221.83C287.974 222.665 288.391 222.386 288.391 221.273C288.531 212.784 288.809 204.295 288.67 195.806C288.67 192.883 290.479 189.404 287.278 186.899C285.469 186.899 285.608 188.152 285.886 189.404C285.886 199.563 285.886 209.861 285.886 220.02C285.608 220.855 285.886 221.412 286.721 221.83H287ZM286.165 363.221C286.165 364.196 286.721 364.752 287.696 364.474C288.113 364.335 288.391 363.639 288.67 363.221C288.67 352.088 288.67 340.955 288.67 329.961C288.531 328.848 287.556 328.43 286.721 328.987C286.165 329.404 286.165 330.518 286.026 331.353C286.026 341.929 286.026 352.506 286.165 363.221ZM311.493 282.645C310.797 293.639 310.797 304.772 311.493 315.766C312.189 317.714 313.024 317.714 313.998 316.044C314.833 304.772 315.25 293.5 313.998 282.227C312.884 280.696 312.049 280.696 311.493 282.645ZM314.276 363.082C314.554 351.949 315.389 340.816 313.859 329.683C312.745 328.152 311.91 328.152 311.354 329.961C310.658 340.955 310.797 352.088 311.354 363.082C312.467 365.309 313.441 365.448 314.276 363.082ZM313.998 268.728C315.668 258.291 314.276 247.714 314.694 237.138C314.694 235.746 314.694 233.937 312.884 234.076C311.214 234.215 311.214 236.024 311.214 237.416C311.354 247.714 311.493 258.152 311.632 268.45C312.049 270.259 312.884 270.259 313.998 268.728ZM322.904 268.45C323.322 256.899 323.879 245.348 321.234 233.937C319.704 245.627 319.008 257.178 320.399 268.867C321.374 270.259 322.348 270.259 322.904 268.45ZM293.958 203.321C293.958 208.609 293.958 214.036 293.958 219.325C293.958 220.716 294.097 222.386 296.045 222.247C297.298 222.108 297.855 220.855 297.855 219.603C297.855 209.444 297.994 199.285 297.855 188.987C297.855 187.595 297.437 185.925 295.628 186.064C293.819 186.203 293.958 188.012 293.958 189.265C293.958 193.996 293.958 198.728 293.958 203.321ZM306.483 347.217C306.483 342.068 306.483 337.058 306.483 331.909C306.483 330.518 306.205 328.848 304.535 328.708C302.725 328.569 302.586 330.378 302.586 331.77C302.586 341.651 302.586 351.671 302.586 361.551C302.586 362.943 302.725 364.613 304.674 364.335C306.065 364.196 306.344 362.804 306.344 361.691C306.483 356.959 306.483 352.088 306.483 347.217ZM323.183 346.8C323.183 341.79 323.183 336.641 323.183 331.631C323.183 330.378 322.765 329.126 321.513 328.987C320.121 328.848 319.704 330.1 319.704 331.353C319.704 341.512 319.704 351.671 319.704 361.83C319.704 363.082 319.982 364.474 321.374 364.474C323.183 364.474 323.322 362.804 323.322 361.412C323.322 356.402 323.183 351.532 323.183 346.8ZM302.586 251.333C302.586 256.482 302.586 261.492 302.586 266.641C302.586 268.032 302.725 269.702 304.535 269.702C306.205 269.702 306.483 268.032 306.483 266.502C306.483 256.621 306.483 246.601 306.483 236.72C306.483 235.329 306.065 233.798 304.117 234.076C302.725 234.215 302.586 235.607 302.586 236.72C302.586 241.591 302.586 246.462 302.586 251.333ZM302.586 299.205C302.586 304.076 302.586 308.947 302.586 313.818C302.586 315.209 302.586 316.879 304.395 317.019C306.205 317.158 306.483 315.488 306.483 314.096C306.483 304.215 306.483 294.195 306.483 284.315C306.483 282.923 306.205 281.253 304.256 281.531C302.447 281.671 302.586 283.48 302.586 284.732C302.586 289.603 302.586 294.335 302.586 299.205ZM306.483 204.851C306.483 199.841 306.483 194.692 306.483 189.682C306.483 188.291 306.344 186.76 304.395 186.76C303.004 186.76 302.586 188.012 302.586 189.265C302.586 199.424 302.586 209.583 302.586 219.603C302.586 220.716 302.865 222.108 304.256 222.247C306.065 222.386 306.483 220.855 306.483 219.464C306.483 214.593 306.483 209.722 306.483 204.851ZM293.958 346.243C293.958 351.392 293.958 356.402 293.958 361.551C293.958 362.943 294.097 364.613 295.906 364.613C297.159 364.613 297.715 363.221 297.715 362.108C297.715 351.949 297.715 341.79 297.715 331.492C297.715 330.378 297.159 328.987 295.906 328.848C293.958 328.569 293.819 330.378 293.819 331.631C293.958 336.502 293.958 341.373 293.958 346.243ZM297.994 251.611C297.994 246.74 298.133 241.869 297.994 236.999C297.994 235.607 297.715 233.937 296.045 233.798C294.236 233.659 294.097 235.468 294.097 236.859C294.097 246.879 294.097 256.76 294.097 266.78C294.097 267.893 294.097 269.285 295.628 269.563C297.576 269.842 297.994 268.311 297.994 266.919C297.994 261.77 297.994 256.76 297.994 251.611ZM323.183 299.762C323.183 294.752 323.183 289.603 323.183 284.593C323.183 283.201 323.183 281.531 321.374 281.531C320.121 281.531 319.704 282.923 319.704 284.176C319.704 294.335 319.704 304.494 319.704 314.514C319.704 315.766 320.26 317.019 321.513 316.879C322.904 316.879 323.183 315.488 323.183 314.235C323.183 309.365 323.183 304.633 323.183 299.762ZM323.183 203.877C323.183 199.006 323.183 194.136 323.183 189.404C323.183 188.291 323.044 186.76 321.652 186.621C319.704 186.342 319.564 188.012 319.564 189.404C319.564 199.285 319.564 209.165 319.564 219.185C319.564 220.438 319.843 221.83 321.095 221.969C323.044 222.247 323.183 220.577 323.183 219.185C323.183 214.036 323.183 209.026 323.183 203.877ZM312.884 221.83C314.694 210.14 315.25 198.311 312.606 186.482C310.797 198.311 310.658 210 312.884 221.83ZM297.576 318.689C297.576 305.885 297.576 294.752 297.576 283.619C297.576 282.923 296.741 281.671 296.045 281.671C294.515 281.392 294.236 282.784 294.236 283.897C294.236 294.613 294.375 305.19 294.515 315.905C294.515 316.184 295.35 316.601 297.576 318.689Z" fill="#E7EEF9"/>
<path d="M313.719 57.197C316.224 57.8928 316.224 60.2586 316.92 62.2069C319.008 68.0518 320.817 74.1751 323.6 79.6026C329.167 90.5966 329.723 102.287 329.028 114.116C328.888 115.507 327.358 117.873 329.863 117.873C335.986 118.012 334.594 122.187 334.594 125.666C334.594 139.304 334.455 152.943 334.733 166.581C334.733 170.895 333.62 173.261 328.888 172.843C312.745 172.147 296.602 172.147 280.459 172.843C275.727 173.539 274.057 171.869 274.197 166.859C274.475 152.525 274.336 138.052 274.197 123.718C274.197 120.935 273.779 118.012 278.093 118.012C280.598 118.012 280.041 116.621 280.181 114.533C280.459 108.131 281.016 101.452 281.433 95.3282C282.268 81.69 291.175 71.2527 292.845 58.3103C299.664 56.9186 306.9 59.0061 313.719 57.197ZM294.236 115.646C290.34 116.481 285.747 112.028 281.572 117.734C286.304 118.569 290.201 118.986 294.236 117.734C294.793 117.456 295.628 117.316 295.767 116.899C296.185 115.786 295.071 115.786 294.236 115.646ZM288.531 145.567C288.67 153.499 297.437 162.963 304.535 162.684C311.771 162.406 320.399 152.804 320.399 145.149C320.26 136.521 312.745 129.424 304.117 129.424C295.489 129.563 288.531 136.799 288.531 145.567ZM294.793 113.42C295.906 112.724 296.88 112.306 297.298 111.611C298.55 108.827 298.69 105.905 297.298 103.121C296.88 102.147 295.489 101.869 295.071 102.565C293.262 104.652 294.236 107.296 294.097 109.801C293.958 110.915 294.515 111.889 294.793 113.42ZM323.461 107.436C322.765 106.183 324.435 103.121 321.234 103.121C318.729 103.121 319.286 105.766 319.286 107.436C319.286 109.245 318.451 112.167 321.374 112.167C323.879 112.167 323.322 109.662 323.461 107.436ZM303.282 113.281C307.875 110.636 306.483 107.157 305.926 103.956C305.787 103.121 304.674 102.287 303.839 102.982C301.334 105.07 302.865 107.992 302.586 110.636C302.586 111.332 303.004 112.028 303.282 113.281Z" fill="#E7EEF9"/>
<path d="M292.845 54.4137C292.845 48.0121 292.845 41.4713 292.706 35.0697C292.566 31.5906 293.541 30.3381 297.298 30.0597C315.668 29.0856 315.668 28.9464 315.529 47.4554C315.529 50.0995 316.503 53.022 313.998 55.2487C306.9 53.5787 299.803 55.1095 292.845 54.4137Z" fill="#E7EEF9"/>
<path d="M293.262 27.1372C296.88 17.9523 301.473 9.60241 304.117 0C307.457 9.18491 311.075 17.9523 315.528 27.1372C307.735 27.1372 300.777 27.1372 293.262 27.1372Z" fill="#E7EEF9"/>
</g>
</svg>
