<svg width="395" height="236" viewBox="0 0 395 236" fill="none" xmlns="http://www.w3.org/2000/svg">
<mask id="mask0_15_867" style="mask-type:alpha" maskUnits="userSpaceOnUse" x="0" y="0" width="395" height="236">
<rect width="395" height="236" rx="10" fill="white"/>
</mask>
<g mask="url(#mask0_15_867)">
<path d="M492.296 175.685C492.296 184.911 492.296 194.136 492.296 203.362C491.122 203.865 490.2 203.278 489.193 202.691C484.664 200.175 477.116 204.452 477.032 209.652C476.949 214.684 477.032 219.632 476.949 224.664C476.949 227.012 477.871 227.935 480.136 227.851C484.161 227.683 488.187 227.683 492.212 227.599C492.212 231.793 492.212 235.986 492.212 240.179C490.367 240.179 488.606 240.263 486.761 240.263C405.494 240.263 324.31 240.263 243.043 240.263C227.695 240.263 212.348 240.179 197 240.179C197 236.237 197 232.38 197 228.438C197.335 228.186 197.671 228.018 198.006 227.767C202.116 227.767 206.309 227.683 210.419 227.683C211.257 228.102 212.096 228.102 212.935 227.683C214.948 227.767 214.696 226.257 214.612 225.083C214.612 220.051 214.528 215.019 214.444 210.071C214.444 209.903 214.528 209.819 214.528 209.652C215.619 202.942 211.928 195.562 217.547 189.523C217.799 189.188 217.715 188.433 217.631 187.93C217.547 184.575 217.464 181.304 217.464 177.95C218.051 174.595 217.128 171.66 215.535 168.724C214.277 166.376 212.18 167.299 210.335 167.047C209.077 166.879 208.741 166.125 208.741 165.034C208.658 163.692 209.245 162.938 210.67 162.938C212.18 162.854 214.193 162.602 214.361 161.009C214.78 157.989 214.78 154.886 214.361 151.867C214.025 149.519 211.593 151.028 210.167 150.441C209.916 150.357 209.664 150.19 209.496 150.022C205.89 146.332 202.955 142.055 200.606 137.442C198.845 133.92 200.355 132.074 204.296 132.074C208.658 132.074 212.935 132.074 217.296 132.074C218.638 132.074 220.315 132.326 220.315 130.229C220.399 127.126 221.238 123.604 220.063 121.172C218.302 117.565 218.051 112.03 211.928 112.03C210.67 112.03 210.251 111.359 210.167 110.185C210.083 108.759 210.838 108.172 212.18 108.172C214.864 108.088 217.464 108.005 220.147 107.921C223.25 108.088 226.437 108.34 229.54 107.753C229.792 107.837 230.044 107.921 230.379 107.921C250.675 107.921 270.887 107.921 291.183 108.088C294.957 108.088 294.202 105.824 293.95 103.643C293.867 101.379 294.873 100.457 297.221 100.624C299.737 100.792 303.008 101.463 304.518 100.205C306.195 98.7792 306.195 98.863 307.705 100.121C309.047 101.211 312.15 101.295 312.569 99.9533C313.491 97.4373 312.988 94.4181 310.64 92.3214C308.627 90.5602 307.789 92.1537 306.866 93.6633C306.531 94.2504 306.279 95.0052 305.356 94.5858C304.769 94.3342 304.518 93.7472 304.685 93.2439C305.943 89.8054 303.679 85.9475 305.776 82.5928C306.363 81.6703 305.86 80.7477 305.021 79.9929C302.421 77.8963 304.266 74.877 303.427 72.361C303.008 71.2708 304.098 70.9353 305.356 71.0191C308.963 71.3546 309.885 74.29 310.892 76.8899C312.15 80.1607 313.156 83.5992 317.685 83.767C318.607 83.767 319.194 84.7734 319.698 85.6959C321.878 89.6377 323.891 89.7215 326.743 86.1152C329.175 83.0122 332.362 81.1671 336.136 80.2445C337.561 79.9091 339.406 80.1607 339.91 78.2317C340.497 76.135 338.735 75.3802 337.477 74.3738C334.71 72.0256 334.374 68.9225 337.31 67.0774C339.993 65.3162 338.819 64.4775 337.477 62.8002C335.045 59.9487 330.936 58.2713 330.768 53.7425C330.768 53.6586 330.349 53.5748 330.097 53.5748C330.097 53.5748 330.013 53.7425 330.013 53.8264C330.013 53.9102 330.097 54.078 330.181 54.1618C330.265 54.2457 330.517 54.2457 330.6 54.2457C332.194 51.8136 333.703 51.8136 335.716 53.9102C339.91 58.2713 339.993 58.1875 344.187 54.078C345.361 52.9038 346.954 51.0588 348.296 52.5684C349.471 53.9102 349.638 56.3424 347.542 58.0197C345.613 59.6132 344.019 61.5422 342.174 63.3034C341 64.4775 340.664 65.2323 342.258 66.6581C345.78 69.845 345.78 71.6062 342.174 74.7093C340.832 75.8834 341.084 77.1415 341.084 78.4833C341.084 80.0768 342.426 80.0768 343.432 80.2445C347.793 80.9993 351.064 83.4315 353.748 86.7862C355.928 89.5538 358.36 89.3861 360.122 86.1991C360.709 85.1927 361.044 83.9347 362.218 83.8508C366.579 83.5154 367.837 80.4123 368.928 76.8899C369.515 75.1286 370.353 73.5352 371.611 72.1933C372.618 71.103 373.624 70.0127 375.134 70.9353C376.392 71.6901 376.56 72.7804 376.224 74.2061C375.302 78.9027 374.211 83.5154 374.547 88.4635C374.798 92.0698 376.811 95.76 374.463 99.4501C374.044 100.121 375.05 100.54 375.721 100.54C376.979 100.54 378.237 100.373 379.495 100.289C383.353 100.205 386.791 100.457 385.617 105.992C385.198 107.753 386.624 107.921 387.966 107.921C402.475 107.837 416.984 107.753 431.576 107.669C434.26 107.753 436.86 107.837 439.544 107.837C448.35 107.837 457.156 107.837 465.962 107.837C467.388 107.837 468.813 107.753 468.897 109.85C468.981 112.03 467.555 111.946 466.13 111.862C464.872 111.779 463.781 111.946 462.859 113.12C459.336 117.398 456.15 121.759 457.659 127.797C456.317 130.9 457.911 131.907 460.678 131.907C465.123 131.907 469.652 131.907 474.097 131.907C475.691 131.907 477.2 131.823 477.536 134.003C478.039 137.023 470.407 149.351 467.472 150.106C467.22 150.19 466.885 150.19 466.633 150.19C463.11 149.77 462.775 151.867 463.027 154.551C463.194 156.228 463.194 157.906 463.278 159.583C463.362 160.757 463.614 161.68 465.039 162.015C468.813 162.77 472.336 164.196 476.529 164.028C482.4 163.86 487.013 167.299 490.116 172.415C490.954 173.589 491.122 175.014 492.296 175.685ZM430.905 198.329C430.989 185.33 430.989 172.415 431.073 159.415C431.073 158.493 431.409 157.151 429.983 157.067C426.544 156.899 423.022 156.899 419.5 157.067C418.158 157.151 418.493 158.576 418.493 159.499C418.493 172.498 418.577 185.414 418.661 198.413C418.577 205.207 418.493 212.084 418.493 218.877C418.493 228.186 418.493 228.186 427.886 227.851C430.235 227.767 431.073 227.096 431.073 224.748C430.906 215.858 430.905 207.052 430.905 198.329ZM402.558 182.479C402.642 174.847 403.313 167.131 402.642 159.499C402.139 154.048 397.191 157.822 394.339 156.983C392.578 156.48 390.146 156.144 390.23 159.751C390.482 168.976 390.398 178.118 390.482 187.343C390.398 199.923 390.314 212.419 390.23 224.999C390.23 226.928 390.817 227.851 392.914 227.767C395.43 227.683 397.946 227.683 400.462 227.767C402.307 227.851 402.894 226.928 402.894 225.251C402.726 210.91 402.642 196.736 402.558 182.479ZM346.032 178.788C346.703 172.415 346.284 165.957 346.451 159.583C346.535 157.654 345.948 156.983 343.935 156.815C333.787 156.06 333.703 156.144 334.039 166.292C334.039 166.544 334.123 166.879 334.123 167.131C334.039 184.408 334.039 201.768 333.955 219.045C333.955 227.851 333.955 227.767 342.761 227.767C345.277 227.767 346.535 227.264 346.451 224.328C346.284 217.787 346.451 211.245 346.367 204.62C346.284 196.065 346.871 187.343 346.032 178.788ZM374.631 169.899C374.715 166.963 374.547 164.028 374.882 161.176C375.218 157.738 374.211 156.648 370.605 156.731C361.631 156.899 361.631 156.731 362.386 165.789C362.302 183.485 362.218 201.181 362.218 218.877C362.218 228.186 362.218 228.102 371.695 227.851C374.044 227.767 374.882 227.18 374.798 224.748C374.631 206.381 374.631 188.098 374.631 169.899ZM305.943 167.215C305.86 168.892 305.608 170.569 305.608 172.163C305.608 187.93 305.608 203.697 305.608 219.464C305.608 227.767 305.608 227.599 313.995 227.767C317.601 227.851 318.356 226.593 318.356 223.238C318.188 205.961 318.272 188.601 318.272 171.324C318.272 169.982 318.02 168.557 317.936 167.215C318.02 164.615 318.104 162.015 318.272 159.331C318.356 157.654 317.769 156.983 315.924 156.815C305.692 155.809 304.685 156.815 305.943 167.215ZM260.907 157.067C257.217 157.067 253.526 157.067 249.92 157.067C248.411 157.654 249.082 158.996 249.082 159.918C248.998 181.388 249.082 202.774 249.082 224.244C249.082 225.419 248.494 226.844 250.004 227.599C250.507 227.599 251.094 227.599 251.598 227.683C254.952 227.599 258.475 228.941 261.662 226.928C261.662 204.032 261.662 181.053 261.662 158.157C261.662 157.57 261.494 157.151 260.907 157.067ZM290.009 192.123C290.009 183.15 290.009 174.26 290.009 165.286C290.009 156.731 290.009 156.899 281.622 156.815C278.351 156.815 277.345 157.822 277.429 161.092C277.596 180.382 277.512 199.671 277.512 218.961C277.512 227.851 277.512 227.767 286.319 227.767C289.254 227.767 290.176 226.928 290.093 223.993C289.925 213.342 290.009 202.774 290.009 192.123ZM463.278 219.296C463.278 228.606 463.278 228.606 471.749 227.851C472.168 227.851 472.587 227.851 473.007 227.767C473.762 227.599 474.433 227.264 474.433 226.509C474.516 222.483 474.852 218.374 474.349 214.432C474.013 212 470.826 211.497 468.981 210.239C465.962 208.226 463.698 209.4 463.446 213.09C463.111 215.103 463.278 217.2 463.278 219.296ZM464.704 195.059C466.968 198.246 468.478 201.181 468.226 205.207C468.059 208.142 471.413 209.232 473.594 209.4C475.355 209.568 474.349 206.884 474.516 205.542C474.684 203.781 474.6 201.936 474.516 200.091C474.516 198.917 474.349 197.91 472.923 197.491C470.155 196.82 467.472 195.897 464.704 195.059ZM319.782 89.0506C319.362 92.4891 318.607 95.089 317.685 97.6889C317.433 98.5276 316.511 100.121 318.356 100.289C319.865 100.457 322.298 101.295 322.885 99.7017C323.723 97.3534 323.723 94.502 323.639 91.9021C323.556 90.2247 321.375 90.3925 319.782 89.0506ZM360.122 100.457C362.973 100.876 363.728 99.7017 362.554 97.1857C361.799 95.5084 361.296 93.831 361.128 91.9859C361.044 91.1473 361.38 89.2183 359.786 89.7215C358.612 90.1409 356.18 90.2247 356.683 92.7407C357.019 94.3342 357.354 96.0116 357.27 97.6889C357.186 99.9533 357.857 100.876 360.122 100.457ZM367.166 98.1921C366.663 99.7856 367.418 100.624 369.766 100.624C372.618 100.624 373.96 99.2824 373.96 96.6825C374.044 94.502 373.037 91.6505 371.108 91.7343C368.005 91.7343 367.334 94.8374 367.166 98.1921ZM476.362 200.846C476.194 202.523 476.697 203.697 479.045 202.104C480.639 201.013 482.316 200.091 483.826 198.917C484.916 198.078 484.916 196.904 483.826 196.149C482.484 195.143 476.445 198.581 476.362 200.846Z" fill="#E7EEF9"/>
<path d="M197.084 227.683C197.419 227.767 197.755 227.767 198.09 227.851C197.755 228.102 197.419 228.27 197.084 228.522C197.084 228.27 197.084 227.935 197.084 227.683Z" fill="#E7EEF9"/>
<path d="M261.662 158.073C261.41 157.738 261.158 157.402 260.907 157.067C261.494 157.151 261.662 157.57 261.662 158.073Z" fill="#E7EEF9"/>
</g>
</svg>
