<svg width="395" height="236" viewBox="0 0 395 236" fill="none" xmlns="http://www.w3.org/2000/svg">
<mask id="mask0_15_765" style="mask-type:alpha" maskUnits="userSpaceOnUse" x="0" y="0" width="395" height="236">
<rect width="395" height="236" rx="10" fill="white"/>
</mask>
<g mask="url(#mask0_15_765)">
<path d="M327.47 205.341C324.312 203.317 320.992 203.641 317.672 204.856C317.51 203.843 316.7 204.086 316.093 204.086C311.923 203.924 307.753 203.843 303.583 203.762C286.74 203.52 269.898 203.439 253.055 204.127C250.221 204.248 247.428 204.329 244.594 204.532C237.63 205.018 230.666 205.584 223.743 206.111C218.358 206.516 213.945 208.418 211.88 213.925C211.718 214.41 211.556 215.018 210.828 214.977C209.977 214.046 209.411 212.831 208.034 212.508C205.2 211.819 203.014 213.56 203.014 216.678C202.973 223.034 203.014 229.35 203.014 235.706C203.014 236.759 203.257 237.852 201.516 237.852C199.775 237.893 199.491 237.002 199.532 235.625C199.572 229.431 199.572 223.196 199.532 217.002C199.532 214.653 198.236 213.317 196.171 213.277C193.985 213.277 192.649 214.613 192.568 217.002C192.528 217.528 192.568 218.095 192.568 218.621C192.568 224.289 192.568 229.957 192.568 235.625C192.568 236.8 192.73 237.852 190.908 237.852C188.965 237.852 189.37 236.638 189.37 235.545C189.37 229.876 189.37 224.208 189.37 218.54C189.37 216.273 188.52 215.261 186.698 215.301C184.916 215.342 184.106 216.313 184.106 218.621C184.106 224.411 184.106 230.241 184.106 236.03C184.106 237.083 184.066 237.852 182.649 237.812C181.191 237.812 181.232 237.002 181.232 235.99C181.232 230.929 181.232 225.868 181.232 220.807C181.232 220.119 181.272 219.471 180.989 218.824C180.422 217.69 179.45 217.285 178.317 217.528C176.9 217.811 176.373 218.824 176.373 220.2C176.373 224.937 176.373 229.633 176.373 234.37C176.373 235.018 176.576 235.706 176.09 236.395C174.511 235.504 174.187 233.966 174.187 232.468C174.106 225.504 174.187 218.581 174.147 211.617C174.147 210.321 174.875 210.078 175.847 209.795C183.783 207.568 191.799 205.949 199.896 204.451C214.148 201.819 228.52 200.119 242.934 198.864C252.043 198.094 261.193 197.528 270.343 197.082C289.736 196.07 309.17 196.232 328.603 196.434C330.83 196.475 333.057 196.718 335.284 196.718C336.66 196.718 337.268 197.163 337.713 198.499C341.397 209.835 345.203 221.131 348.968 232.468C349.495 234.127 350.993 236.152 350.223 237.326C349.414 238.581 346.984 237.609 345.284 237.771C341.235 238.136 337.227 238.136 333.178 237.852C334.231 237.204 335.324 237.447 336.458 237.488C338.361 237.528 340.223 237.488 342.126 237.609C343.503 237.69 343.745 237.285 343.3 236.03C340.628 228.5 338.077 220.929 335.405 213.398C334.879 211.941 334.676 210.2 333.138 209.269C331.559 207.406 330.142 205.503 327.47 205.341Z" fill="#E7EEF9"/>
<path d="M365.892 155.057C365.811 154.976 365.77 154.895 365.77 154.774C365.811 154.531 365.73 154.369 365.487 154.288C365.325 154.207 365.082 154.126 365.203 153.842C365.568 153.559 365.568 153.276 365.244 152.992C365.122 150.684 363.989 149.591 361.641 149.47C359.657 149.389 357.673 148.903 355.729 148.62C356.215 145.3 356.823 144.814 360.183 144.814C365.689 144.814 371.155 145.745 376.621 145.988C382.856 146.271 389.01 147.365 395.164 148.215C400.913 149.025 406.621 150.28 412.37 151.251C414.03 151.535 415.771 152.263 417.472 151.211L417.634 151.251C417.553 151.98 417.431 152.709 417.431 153.438C417.391 157.446 417.391 161.494 417.35 165.503C414.192 165.341 414.192 165.341 414.192 168.62C414.192 168.903 414.152 169.146 414.192 169.43C414.273 170.321 413.909 171.333 415.285 171.697C416.541 172.021 417.634 172.345 418.362 170.887C418.848 169.794 418.686 168.661 418.443 167.527C418.443 167.244 418.484 166.96 418.484 166.717C418.929 166.96 419.213 167.365 419.253 167.851C419.577 171.171 417.431 173.843 416.905 176.92C416.905 177.001 416.702 177.082 416.581 177.163C416.055 177.203 415.528 177.244 415.002 177.244C414.8 177.041 414.678 177.122 414.597 177.325C412.492 178.337 411.642 180.037 411.682 182.386C411.763 187.001 411.682 191.657 411.682 196.272C411.682 201.171 411.682 201.171 416.581 201.698C417.634 202.062 417.796 202.831 417.836 203.884C417.877 207.244 417.067 210.726 419.537 213.682C420.022 214.249 419.82 215.099 419.82 215.828C419.82 223.075 419.86 230.362 419.86 237.609C418.97 238.298 418.524 238.014 418.524 236.962C418.524 235.261 418.524 233.601 418.524 231.901C418.524 226.314 418.565 220.726 418.524 215.099C418.484 212.67 417.188 210.807 415.043 210.2C413.14 209.674 411.439 210.2 410.103 211.698C409.212 212.71 408.969 213.925 408.969 215.261C409.01 222.143 409.01 229.026 408.969 235.909C408.969 236.84 409.293 238.176 407.512 237.65C407.026 237.124 406.905 236.557 406.945 235.828C407.35 228.743 407.39 221.698 406.824 214.613C406.662 212.427 405.083 210.888 403.018 210.605C402.896 210.524 402.816 210.483 402.694 210.402C402.573 210.321 402.451 210.281 402.289 210.2C400.346 209.755 398.564 210.119 396.823 211.01C396.662 210.362 396.297 209.714 396.297 209.066C396.297 204.815 394.111 202.831 389.981 202.71C389.9 202.305 389.819 201.941 389.738 201.536C390.265 201.293 390.265 200.807 390.265 200.321C390.265 193.479 390.346 186.596 390.184 179.754C390.143 177.972 389.495 176.191 387.309 175.786H387.35C387.35 175.3 387.026 175.219 386.621 175.26C386.54 174.895 386.256 174.815 385.933 174.855C384.92 174.693 383.908 174.491 382.896 174.369C380.386 174.045 378.726 175.422 377.309 177.244C376.742 176.798 376.661 176.11 376.499 175.462C375.042 169.632 373.544 163.762 372.005 157.972C371.803 157.203 371.843 156.11 370.75 155.867C369.05 155.664 367.552 154.895 365.892 155.057ZM404.597 176.313C404.556 175.624 404.071 175.746 403.625 175.746C399.293 174.531 395.852 176.555 395.771 180.564C395.649 186.556 395.771 192.548 395.73 198.54C395.73 199.633 396.135 200.119 397.269 200.119C398.726 200.119 400.224 200.281 401.682 200.362C403.099 201.171 404.678 200.605 406.176 200.766C407.471 200.928 407.957 200.24 407.917 198.945C407.876 192.71 407.917 186.434 407.876 180.199C407.836 178.458 406.297 176.717 404.597 176.313ZM392.734 168.903C393.018 170.199 394.192 169.632 394.88 169.794C397.674 170.523 398.16 169.956 397.836 167.082C397.714 166.15 397.795 165.219 397.795 164.247C397.795 163.681 397.957 162.992 397.147 162.79C396.257 160.604 394.232 161.494 392.775 161.413C391.56 161.332 392.087 162.871 392.006 163.762C391.925 164.774 391.965 165.786 392.006 166.798C392.006 167.527 391.803 168.418 392.734 168.903ZM404.88 163.6C405.69 165.057 407.148 164.814 408.322 164.612C409.455 164.409 409.091 163.195 409.091 162.385C409.131 160.766 409.131 159.146 409.091 157.567C409.091 156.96 409.415 156.15 408.362 155.948C407.633 154.328 406.054 155.057 404.84 154.733C403.787 154.45 403.423 155.057 403.423 156.069C403.463 158.053 403.463 160.077 403.423 162.061C403.463 163.073 403.949 163.478 404.88 163.6ZM379.981 162.102C379.819 162.911 380.507 162.992 380.953 163.073C382.248 163.276 383.584 163.357 384.92 163.478C386.054 163.6 386.459 163.154 386.418 162.021C386.337 158.863 386.418 155.745 386.378 152.587C386.378 152.061 386.661 151.292 385.69 151.211C385.568 150.32 384.839 150.239 384.192 150.158C382.977 149.996 381.803 149.915 380.588 149.713C379.374 149.51 378.847 149.956 378.888 151.211C378.928 154.288 378.928 157.405 378.888 160.482C378.928 161.251 379.009 161.98 379.981 162.102Z" fill="#E7EEF9"/>
<path d="M214.148 115.947C211.718 116.878 211.718 116.878 211.678 114.287C211.637 112.02 211.395 112.02 209.33 112.667C207.184 113.315 206.455 114.611 206.779 116.716C206.981 118.052 206.617 118.902 205.16 119.469C194.633 123.761 184.511 128.741 175.361 135.542C175.159 135.704 174.876 135.785 174.633 135.866C173.944 135.421 174.228 134.733 174.228 134.206C174.228 127.405 174.268 120.562 174.187 113.761C174.187 112.303 174.754 111.412 175.847 110.562C186.86 101.696 199.37 95.3391 212.245 89.752C227.022 83.3551 242.286 78.5372 258.116 75.5816C259.533 75.2982 260.14 75.6221 260.748 76.9177C264.432 84.8126 268.157 92.667 271.922 100.481C272.57 101.857 272.61 102.586 270.788 102.546C269.574 102.546 268.4 102.789 267.185 102.91C267.064 102.465 267.064 101.938 266.861 101.534C264.23 96.2298 261.638 90.9261 258.885 85.6628C257.387 82.8287 254.837 81.8976 251.517 82.7073C246.78 83.8814 242.002 85.0555 237.346 86.5535C234.229 87.5657 231.192 88.8208 227.954 89.5091C225.97 89.8734 224.148 90.5212 222.609 91.8573C222.204 91.8978 221.759 91.8168 221.395 91.9383C217.184 93.3553 213.662 98.1327 213.621 102.586C213.581 106.352 213.621 110.117 213.621 113.923C213.621 114.611 213.459 115.421 214.148 115.947ZM200.989 106.554C200.989 105.623 200.989 104.692 200.989 103.76C200.989 103.113 200.827 102.546 200.139 102.303C198.884 101.857 195.929 103.76 195.888 105.096C195.807 106.837 195.848 108.578 195.848 110.319C195.848 111.574 196.495 111.939 197.67 111.696C200.504 111.007 200.989 110.319 200.989 106.554ZM184.795 117.04C184.795 116.23 184.795 115.421 184.795 114.611C184.795 114.084 184.592 113.68 184.066 113.518C183.054 113.153 180.503 114.854 180.422 115.947C180.382 117.364 180.382 118.781 180.422 120.157C180.422 121.332 181.029 121.655 182.163 121.332C184.592 120.643 184.835 120.279 184.795 117.04Z" fill="#E7EEF9"/>
<path d="M211.759 175.786C211.111 173.802 210.059 172.183 207.751 172.142C205.605 172.102 204.026 173.843 204.026 176.313C203.986 181.292 204.026 186.313 204.026 191.293C204.026 192.791 202.488 193.884 201.07 193.479C200.099 193.195 200.463 192.386 200.463 191.819C200.423 187.568 200.463 183.317 200.423 179.066C200.382 176.758 198.884 175.3 196.779 175.341C194.633 175.381 193.176 176.839 193.054 179.066C193.014 179.47 193.054 179.875 193.054 180.28C193.054 184.531 193.054 188.782 193.054 193.034C193.054 193.519 193.054 193.965 193.054 194.451C192.973 195.625 192.001 195.544 191.273 195.625C190.22 195.746 190.584 194.815 190.584 194.329C190.544 190.361 190.584 186.353 190.544 182.386C190.544 181.049 190.341 179.794 189.046 179.066C186.9 177.811 184.673 179.349 184.633 182.143C184.592 186.475 184.633 190.766 184.633 195.098C184.633 195.625 184.673 196.191 184.592 196.718C184.349 197.73 183.378 197.77 182.649 197.811C181.88 197.811 182.123 197.001 182.123 196.556C182.082 192.507 182.123 188.459 182.123 184.41C182.123 182.709 181.475 181.535 179.613 181.373C177.912 181.211 176.859 182.305 176.859 184.329C176.819 188.863 176.859 193.357 176.819 197.892C176.819 198.58 177.062 199.43 176.131 199.795C175.604 199.997 174.957 200.402 174.471 200.24C173.904 200.078 174.187 199.309 174.187 198.783C174.187 191.819 174.228 184.896 174.147 177.932C174.147 176.434 174.633 175.827 175.969 175.3C194.147 168.296 212.852 163.316 231.921 159.592C248.116 156.434 264.473 154.166 280.91 152.749C290.829 151.899 300.789 151.292 310.789 151.008C312.247 150.968 312.895 151.332 313.259 152.83C315.567 162.264 317.956 171.657 320.425 181.049C320.79 182.507 320.506 182.952 318.968 182.952C314.393 182.912 309.818 182.993 305.243 183.033C307.389 182.224 309.615 182.75 311.802 182.628C313.016 182.547 313.583 182.345 313.138 180.968C311.113 174.612 309.21 168.256 307.186 161.899C306.214 158.903 304.312 157.81 300.992 157.932C299.979 158.053 298.927 156.879 297.915 157.932C294.392 156.15 291.072 156.474 287.874 158.741C285.161 158.255 282.449 158.579 279.777 158.863C272.772 159.592 265.768 160.118 258.764 161.049C252.367 161.899 246.011 162.83 239.654 163.802C234.553 164.571 229.492 165.584 224.391 166.434C219.047 167.324 214.634 169.47 212.69 174.976C212.447 175.341 212.245 175.705 211.759 175.786Z" fill="#E7EEF9"/>
<path d="M210.868 214.977C211.597 214.977 211.718 214.37 211.921 213.925C213.986 208.459 218.358 206.516 223.783 206.111C230.747 205.584 237.711 205.018 244.634 204.532C247.428 204.329 250.262 204.248 253.096 204.127C269.938 203.398 286.781 203.479 303.623 203.762C307.793 203.843 311.963 203.924 316.134 204.086C316.781 204.127 317.551 203.884 317.713 204.856C313.988 207.082 312.49 210.402 312.571 214.694C312.692 221.577 312.49 228.459 312.652 235.342C312.692 237.488 311.963 238.055 310.02 237.893C307.996 237.731 305.971 237.771 303.947 237.731C303.907 229.917 303.826 222.103 303.907 214.289C303.947 209.997 299.615 204.977 295.08 205.382C290.182 204.613 286.416 206.07 283.947 210.645C283.218 212.022 283.258 213.317 283.258 214.653C283.177 221.698 283.177 228.783 283.258 235.828C283.258 237.366 282.934 238.055 281.275 237.893C279.817 237.731 278.319 237.852 276.861 237.812C276.861 230.565 276.861 223.318 276.821 216.03C276.78 210.767 272.246 206.597 267.145 207.042C260.91 206.192 256.132 210.321 256.132 216.597C256.132 223.075 256.132 229.512 256.132 235.99C256.132 236.84 256.497 238.095 254.837 237.771C254.594 237.731 254.31 237.69 254.027 237.69C250.909 237.65 250.909 237.65 250.909 234.573C250.909 228.702 250.99 222.832 250.869 216.961C250.788 212.062 247.913 208.499 242.812 208.661L242.731 208.702C242.65 208.58 242.529 208.418 242.448 208.297C242.367 208.378 242.286 208.459 242.205 208.54C236.132 208.054 232.448 211.455 232.448 217.528C232.448 223.722 232.407 229.917 232.488 236.111C232.488 237.569 232.002 238.095 230.585 237.771C229.411 237.245 229.006 236.435 229.006 235.059C229.087 228.743 229.087 222.467 229.047 216.151C229.006 212.791 225.97 209.35 222.002 210.078C217.387 210.119 215.322 212.184 215.322 216.718C215.322 223.196 215.16 229.674 215.362 236.111C215.443 238.986 213.257 237.771 212.204 238.136C210.909 238.581 211.03 237.083 211.03 236.192C210.868 229.148 210.868 222.062 210.868 214.977Z" fill="#E7EEF9"/>
<path d="M224.512 131.089C221.961 130.401 219.978 131.372 218.277 133.235C217.346 133.154 216.901 133.923 216.253 134.409C214.593 135.583 214.026 137.648 212.488 138.943C211.88 137.567 211.354 136.19 209.734 135.704C207.103 134.976 204.876 136.717 204.836 139.753C204.795 144.288 204.836 148.782 204.836 153.316C204.836 155.016 203.216 156.434 201.637 156.15C200.706 155.988 201.07 155.178 201.07 154.693C201.03 150.927 201.111 147.122 201.03 143.356C200.989 141.008 199.694 139.713 197.588 139.672C195.524 139.632 194.147 140.927 193.985 143.194C193.904 144.207 194.026 145.219 194.026 146.231C194.107 149.875 194.228 153.518 193.945 157.162C193.864 158.377 192.204 159.713 191.07 159.511C190.139 159.349 190.503 158.539 190.503 158.013C190.463 154.49 190.503 151.008 190.463 147.486C190.463 146.798 190.463 146.15 190.382 145.462C190.26 144.247 189.613 143.478 188.317 143.397C186.94 143.316 186.171 144.085 185.888 145.34C185.766 145.907 185.807 146.555 185.807 147.162C185.807 151.413 185.807 155.664 185.807 159.915C185.807 161.251 184.147 162.749 182.932 162.547C182.082 162.426 182.446 161.697 182.446 161.251C182.406 158.013 182.406 154.774 182.406 151.535C182.406 151.008 182.446 150.441 182.365 149.915C182.204 148.539 181.515 147.567 180.058 147.567C178.519 147.607 177.79 148.579 177.75 150.077C177.75 152.709 177.75 155.34 177.75 157.972C177.75 159.672 177.75 161.332 177.75 163.033C177.75 164.49 176.292 165.948 174.875 165.988C174.187 166.029 174.106 165.543 174.106 165.057C174.106 159.794 174.106 154.531 174.106 149.267C174.106 148.498 174.754 148.336 175.24 148.012C187.062 138.862 200.504 132.789 214.39 127.688C233.338 120.765 252.812 116.068 272.894 113.963C276.497 113.599 280.181 113.599 283.785 113.356C284.878 113.275 285.323 113.761 285.607 114.773C287.59 122.587 289.615 130.441 291.68 138.255C291.963 139.308 291.72 139.753 290.586 139.793C288.845 139.834 287.105 140.036 285.364 140.158C284.109 133.599 282.246 127.202 280.708 120.724C280.546 120.036 280.343 119.55 279.372 119.793C277.955 120.117 276.416 119.874 275.04 120.4C274.189 120.279 273.38 120.238 272.529 119.874C271.598 119.469 270.465 118.902 269.29 119.429C265.687 118.943 262.651 119.955 260.302 122.83C259.655 122.06 258.845 122.384 258.076 122.506C254.027 123.275 249.978 124.085 245.93 124.894C245.363 124.854 244.917 125.056 244.432 125.34C241.598 124.854 239.168 125.583 237.144 127.647C236.942 127.526 236.658 127.283 236.496 127.324C232.852 128.214 229.209 129.145 225.727 130.603C225.16 130.441 224.674 130.482 224.512 131.089Z" fill="#E7EEF9"/>
<path d="M227.954 89.5495C231.193 88.9017 234.229 87.6062 237.347 86.594C242.002 85.096 246.739 83.9219 251.517 82.7478C254.837 81.938 257.428 82.8692 258.885 85.7033C261.639 90.9261 264.23 96.2703 266.861 101.574C267.064 101.979 267.064 102.465 267.185 102.951C266.821 103.032 266.456 103.072 266.052 103.113C265.687 102.87 265.363 102.87 265.08 103.234C259.898 104.044 254.675 104.773 249.573 105.987C247.873 106.392 247.387 105.825 247.59 104.246C247.671 103.639 247.59 103.032 247.59 102.424C247.59 101.817 247.306 101.372 246.699 101.25C244.877 100.805 241.436 103.477 241.598 105.339C241.8 107.283 241.071 108.052 239.209 108.416C231.435 110.036 223.945 112.789 216.334 115.016C215.605 115.218 214.957 115.866 214.148 115.906C213.459 115.34 213.621 114.57 213.621 113.842C213.621 110.076 213.621 106.311 213.621 102.505C213.662 98.0517 217.184 93.2743 221.395 91.8977C221.759 91.7763 222.204 91.8573 222.609 91.8168C222.609 94.246 222.569 96.6347 222.569 99.0639C222.569 99.8331 222.569 100.562 223.338 100.967C224.31 101.453 228.52 99.4688 228.48 98.3756C228.439 95.5011 229.168 92.4646 227.954 89.5495Z" fill="#E7EEF9"/>
<path d="M318.684 185.786C323.624 185.867 329.818 185.786 336.012 186.232C337.753 186.353 338.442 187.082 338.361 188.742C338.28 190.28 338.847 192.224 338.118 193.276C337.268 194.572 335.243 193.479 333.786 193.438C319.615 193.357 305.445 192.912 291.315 193.276C272.651 193.722 253.986 194.612 235.403 196.515C220.544 198.054 205.686 199.876 191.07 203.034C186.131 204.086 181.232 205.301 176.292 206.435C175.604 206.597 174.471 207.69 174.187 206.151C173.985 204.977 173.539 203.52 175.564 202.993C180.544 201.738 185.402 200.2 190.382 199.026C200.868 196.596 211.435 194.41 222.123 192.953C242.083 190.159 262.124 188.094 282.246 186.96C293.947 186.272 305.688 185.827 318.684 185.786Z" fill="#E7EEF9"/>
<path d="M211.759 175.786C212.245 175.746 212.447 175.381 212.569 174.976C214.512 169.47 218.925 167.324 224.269 166.434C229.371 165.584 234.431 164.612 239.533 163.802C245.889 162.83 252.246 161.899 258.643 161.049C265.647 160.118 272.651 159.592 279.655 158.863C282.327 158.579 285.04 158.255 287.752 158.741C285.364 160.928 284.514 163.681 284.554 166.879C284.635 171.94 284.554 176.96 284.594 182.021C284.594 183.357 284.311 184.045 282.813 183.924C281.679 183.843 280.546 184.005 279.412 184.045C279.088 184.005 278.764 183.924 278.44 183.884C275.89 183.843 275.89 183.843 275.89 181.171C275.89 177.649 275.89 174.167 275.89 170.644C275.849 165.381 272.125 161.818 266.861 161.98C259.412 161.332 256.294 166.555 256.618 172.142C256.861 176.151 256.618 180.24 256.699 184.248C256.699 185.301 256.456 185.867 255.282 185.908C253.663 185.989 252.084 186.191 250.464 186.353C250.424 181.697 250.464 177.082 250.383 172.426C250.343 168.62 247.671 164.369 242.853 165.057C237.266 164.247 233.905 167.163 233.905 172.831C233.905 176.96 233.905 181.049 233.905 185.179C233.905 188.459 233.905 188.459 230.504 188.62C229.654 188.175 229.411 187.527 229.371 186.556C229.249 183.6 229.978 180.685 229.735 177.73C229.573 175.746 229.897 173.64 228.925 171.859C227.63 169.47 225.484 168.377 222.69 168.822C222.204 168.822 221.719 168.782 221.233 168.782C220.909 168.741 220.545 168.701 220.261 168.984C217.427 170.037 216.293 172.102 216.334 175.098C216.455 179.187 216.374 183.317 216.374 187.406C216.374 190.766 216.374 190.766 213.054 191.252C212.812 191.09 212.609 191.171 212.447 191.374C211.597 191.414 211.718 190.766 211.718 190.24C211.678 185.462 211.718 180.604 211.759 175.786Z" fill="#E7EEF9"/>
<path d="M174.106 170.968C173.904 169.713 174.957 169.349 175.847 168.944C183.783 165.138 192.042 162.223 200.423 159.672C217.791 154.369 235.525 150.644 253.379 147.567C265.93 145.421 278.562 143.802 291.275 142.668C297.51 142.101 303.826 142.587 310.101 142.628C312.206 142.628 313.866 144.854 313.664 147C313.583 148.134 312.733 147.81 312.166 147.85C304.716 148.296 297.226 148.579 289.777 149.105C276.538 149.996 263.339 151.413 250.221 153.397C235.889 155.583 221.678 158.377 207.629 161.94C196.981 164.652 186.495 167.972 176.252 171.899C174.228 172.628 174.066 172.547 174.106 170.968Z" fill="#E7EEF9"/>
<path d="M327.834 159.146C338.766 158.984 349.657 159.308 360.467 161.09C364.191 161.697 364.151 161.697 365.001 165.462C366.661 172.669 368.28 179.916 370.021 187.122C370.345 188.539 370.224 189.147 368.604 188.944C366.256 188.661 363.908 188.499 361.56 188.297C359.049 188.094 358.726 186.556 358.847 184.369C359.009 180.928 358.928 177.487 358.888 174.086C358.847 169.916 355.001 166.596 350.79 167.082H350.709C349.98 166.11 349.13 166.474 348.24 166.798C342.976 168.296 341.276 170.523 341.235 176.029C341.235 179.187 341.235 182.305 341.073 185.665C339.292 182.831 336.498 183.195 333.867 182.952C332.247 177.203 330.506 171.495 328.968 165.745C328.442 163.559 327.186 161.535 327.834 159.146Z" fill="#E7EEF9"/>
<path d="M276.902 105.299C277.995 105.299 279.048 105.258 280.141 105.299C282.449 105.38 283.866 106.878 284.028 109.145C284.108 110.238 283.42 110.076 282.772 110.198C279.655 110.805 276.457 110.522 273.299 110.846C256.051 112.505 239.29 116.311 222.812 121.574C209.937 125.664 197.386 130.522 185.645 137.243C182.244 139.186 179.005 141.332 175.807 143.64C175.402 143.923 174.997 144.53 174.43 144.247C173.863 143.964 174.106 143.275 174.066 142.749C174.025 141.494 174.106 140.441 175.361 139.429C184.106 132.384 194.066 127.607 204.269 123.153C222.042 115.421 240.585 110.441 259.655 107.08C265.363 106.109 271.112 105.339 276.902 105.299Z" fill="#E7EEF9"/>
<path d="M174.39 107.566C174.916 104.934 176.171 103.194 178.033 101.696C192.204 90.1163 208.317 82.1405 225.646 76.5128C229.168 75.3792 232.771 74.448 236.253 73.2739C242.124 71.29 248.278 70.6422 254.229 69.1037C255.282 68.8203 256.092 69.1442 256.861 69.7515C257.549 70.3183 258.359 70.9661 258.157 71.8973C257.954 72.869 256.861 72.6666 256.132 72.8285C240.059 76.1889 224.512 81.2093 209.451 87.7276C199.289 92.0597 189.613 97.2015 180.422 103.234C178.438 104.53 176.535 105.987 174.39 107.566Z" fill="#E7EEF9"/>
<path d="M358.644 212.953C358.24 209.754 356.499 207.528 353.746 205.989C353.746 204.734 352.571 203.722 352.895 202.386C363.584 202.386 374.232 203.641 384.88 204.046C386.499 204.127 387.066 204.694 387.309 206.232C388.483 213.439 390.143 220.524 390.953 227.812C391.034 228.378 391.358 228.905 391.56 229.472C391.115 230.16 390.467 230.565 389.657 230.322C387.471 229.714 385.244 230.2 383.017 229.917C383.058 224.573 383.139 219.269 383.098 213.925C383.058 208.864 379.131 205.26 374.07 205.544C367.714 205.706 365.082 207.811 364.11 213.398C363.624 217.042 363.624 220.686 364.11 224.37C364.11 225.706 364.11 227.042 364.11 228.378C363.827 228.54 363.462 228.702 363.3 228.257C361.762 223.52 358.28 219.35 358.887 213.925C358.968 213.601 358.766 213.277 358.644 212.953Z" fill="#E7EEF9"/>
<path d="M383.099 229.917C385.285 230.2 387.552 229.714 389.738 230.322C390.548 230.524 391.155 230.119 391.641 229.471C392.046 231.658 392.37 233.844 392.896 235.99C393.261 237.528 392.694 237.812 391.317 237.812C379.414 237.771 367.471 237.771 355.568 237.812C354.475 237.812 353.786 237.528 353.503 236.395C353.219 235.302 352.896 234.168 352.45 233.115C351.843 231.739 352.45 231.455 353.665 231.536C354.272 231.577 354.879 231.577 355.487 231.536C357.713 231.455 358.645 230.524 358.685 228.297C358.726 223.196 358.726 218.054 358.726 212.953C358.847 213.277 359.049 213.56 359.009 213.884C358.402 219.309 361.924 223.439 363.422 228.216C363.584 228.702 363.908 228.5 364.232 228.338C364.394 229.998 365.042 231.536 366.904 231.536C371.236 231.536 375.568 231.901 379.86 231.212C380.912 230.767 382.005 230.322 383.099 229.917Z" fill="#E7EEF9"/>
<path d="M385.244 195.139C387.026 201.05 387.026 201.212 380.993 200.807C369.535 200.078 358.037 199.592 346.58 198.459C345.041 198.297 343.503 198.337 341.924 198.297C341.073 198.256 340.102 197.77 340.668 197.042C342.045 195.301 341.519 193.438 341.519 191.616C341.519 190.078 342.166 189.795 343.462 189.957C345.122 190.118 346.822 190.24 348.482 190.361C349.09 192.548 351.155 192.507 352.733 192.669C356.944 193.155 361.195 193.155 365.365 193.6C367.43 193.843 369.535 193.803 371.6 194.046C376.135 194.572 380.669 194.936 385.244 195.139Z" fill="#E7EEF9"/>
<path d="M339.656 147.284C339.899 148.66 339.009 150.522 341.235 151.13C341.073 152.466 342.005 152.263 342.814 152.263C346.458 152.304 350.061 152.101 353.665 152.709C356.499 153.195 359.333 153.64 362.207 153.802C362.693 155.178 363.705 156.879 362.855 157.972C362.167 158.863 360.345 157.972 359.049 157.77C351.64 156.676 344.191 156.393 336.701 156.231C330.911 156.11 325.122 156.231 319.332 156.231C318.563 156.231 317.51 156.636 317.146 155.705C316.579 154.288 315.931 152.79 316.215 151.211C316.336 150.442 317.227 150.765 317.794 150.725C321.154 150.684 324.514 150.644 327.915 150.644C331.397 150.644 331.397 150.644 331.599 147.162C334.272 147.243 336.944 147.243 339.656 147.284Z" fill="#E7EEF9"/>
<path d="M365.892 155.057C367.552 154.895 369.05 155.624 370.629 155.948C371.762 156.15 371.681 157.243 371.884 158.053C373.422 163.883 374.88 169.713 376.378 175.543C376.54 176.191 376.621 176.879 377.187 177.325C375.689 180.685 376.621 184.248 376.378 187.689C376.256 189.349 375.487 189.916 373.948 189.39C373.544 189.228 373.26 188.985 373.22 188.539C371.924 180.442 369.616 172.547 367.916 164.531C367.268 161.373 366.256 158.296 365.892 155.057Z" fill="#E7EEF9"/>
<path d="M245.849 124.773C249.897 123.963 253.946 123.153 257.995 122.384C258.764 122.222 259.574 121.939 260.221 122.708C259.047 124.53 258.642 126.514 258.683 128.66C258.764 132.911 258.602 137.162 258.764 141.372C258.804 143.154 258.238 143.964 256.497 144.045C255.687 144.085 254.877 144.207 254.108 144.328C253.096 144.247 252.772 143.68 252.812 142.709C252.893 141.251 252.853 139.753 252.853 138.255C252.853 136.514 252.853 134.773 252.853 133.032C252.853 128.295 250.181 125.866 245.849 124.773Z" fill="#E7EEF9"/>
<path d="M417.35 151.211C415.65 152.304 413.909 151.535 412.249 151.251C406.5 150.28 400.832 149.024 395.042 148.215C388.888 147.365 382.734 146.271 376.499 145.988C370.993 145.745 365.568 144.814 360.062 144.814C356.701 144.814 356.134 145.3 355.608 148.62C355.406 148.62 355.163 148.701 355.001 148.62C354.069 148.296 352.531 148.984 352.207 147.648C351.883 146.312 352.531 145.016 353.584 144.004C354.636 142.992 355.891 142.749 357.308 142.79C368.969 142.992 380.548 144.126 392.086 145.786C399.941 146.919 407.714 148.539 415.407 150.482C416.136 150.725 416.743 151.008 417.35 151.211Z" fill="#E7EEF9"/>
<path d="M300.87 157.932C304.19 157.81 306.093 158.903 307.065 161.899C309.129 168.215 311.032 174.612 313.016 180.969C313.461 182.345 312.895 182.547 311.68 182.628C309.494 182.75 307.267 182.224 305.121 183.033C304.959 183.033 304.797 183.033 304.635 183.033C304.635 177.406 304.595 171.738 304.635 166.11C304.635 165.017 304.352 164.005 304.109 162.952C303.664 160.847 301.761 159.753 300.87 157.932Z" fill="#E7EEF9"/>
<path d="M327.834 159.146C327.227 161.535 328.482 163.559 329.049 165.705C330.587 171.454 332.288 177.203 333.948 182.912C329.899 183.074 329.899 183.074 329.899 179.147C329.899 177.203 329.899 175.219 329.858 173.276C329.777 168.903 325.891 165.907 321.721 167.122C320.466 167.486 319.899 167.446 319.696 166.029C319.413 164.369 319.008 162.749 318.441 161.13C317.955 159.713 318.441 159.389 319.777 159.349C322.449 159.349 325.122 159.227 327.834 159.146Z" fill="#E7EEF9"/>
<path d="M225.686 130.482C229.168 128.984 232.812 128.093 236.456 127.202C236.618 127.162 236.901 127.405 237.104 127.526C235.808 129.186 235.282 131.048 235.363 133.154C235.444 136.919 235.403 140.684 235.403 144.449C235.403 148.053 235.403 148.053 231.84 148.579C231.597 147.729 231.395 146.919 231.395 146.028C231.435 142.992 231.395 139.955 231.395 136.919C231.395 136.109 231.314 135.34 231.031 134.571C230.14 131.939 227.873 131.251 225.686 130.482Z" fill="#E7EEF9"/>
<path d="M274.958 120.319C276.376 119.793 277.874 120.036 279.291 119.712C280.303 119.469 280.465 119.955 280.627 120.643C282.125 127.121 284.028 133.518 285.283 140.077C283.906 140.927 282.327 140.279 280.87 140.644C279.129 140.765 278.602 140.036 278.683 138.296C278.845 134.814 278.683 131.332 278.724 127.809C278.764 126.028 278.035 124.53 277.185 123.113C276.618 122.06 275.404 121.494 274.958 120.319Z" fill="#E7EEF9"/>
<path d="M212.528 138.903C214.067 137.648 214.633 135.542 216.293 134.368C216.941 133.923 217.346 133.113 218.318 133.194C217.548 134.49 217.306 135.947 217.306 137.445C217.346 141.332 217.184 145.259 217.386 149.146C217.508 151.332 216.86 152.263 214.674 152.587C212.366 152.952 212.366 153.073 212.407 150.765C212.407 146.838 212.447 142.87 212.528 138.903Z" fill="#E7EEF9"/>
<path d="M389.86 202.791C393.99 202.912 396.176 204.896 396.176 209.147C396.176 209.795 396.5 210.443 396.702 211.091C394.273 213.601 394.88 216.84 394.718 219.836C394.597 222.386 394.678 224.937 394.313 227.528C392.815 219.269 391.317 211.05 389.86 202.791Z" fill="#E7EEF9"/>
<path d="M385.244 195.139C380.669 194.977 376.135 194.572 371.6 194.086C369.536 193.843 367.471 193.884 365.365 193.641C361.155 193.195 356.904 193.155 352.734 192.71C351.155 192.548 349.09 192.588 348.482 190.402C355.932 190.969 363.382 191.536 370.791 192.102C374.961 192.426 379.09 192.831 383.26 193.074C384.759 193.114 385.366 193.722 385.244 195.139Z" fill="#E7EEF9"/>
<path d="M274.959 120.319C275.404 121.494 276.619 122.06 277.226 123.113C278.076 124.53 278.764 126.069 278.764 127.809C278.724 131.291 278.845 134.814 278.724 138.295C278.643 140.036 279.169 140.806 280.91 140.644C279.534 141.494 277.955 141.211 276.457 141.534C275.283 141.777 275.728 140.846 275.728 140.441C275.687 136.595 275.687 132.749 275.687 128.943C275.687 123.882 273.906 121.251 269.25 119.388C270.424 118.862 271.558 119.429 272.489 119.834C273.299 120.157 274.108 120.198 274.959 120.319Z" fill="#E7EEF9"/>
<path d="M221.881 210.078C225.808 209.39 228.885 212.791 228.925 216.151C228.966 222.467 229.006 228.743 228.885 235.059C228.844 236.435 229.29 237.245 230.464 237.771C225.767 238.055 226.658 238.257 226.618 234.127C226.577 228.54 226.456 222.994 226.658 217.406C226.78 213.722 225.524 211.212 221.881 210.078Z" fill="#E7EEF9"/>
<path d="M327.47 205.341C330.142 205.463 331.559 207.366 332.976 209.269C333.381 211.374 333.786 213.439 333.745 215.625C333.624 222.022 333.786 228.419 333.664 234.856C333.624 237.002 334.271 237.812 336.336 237.569C335.243 237.528 334.11 237.285 333.057 237.933C332.773 237.933 332.49 237.933 332.207 237.893L332.126 237.771L331.964 237.852C331.923 232.468 331.842 227.083 331.802 221.698C331.802 219.552 331.721 217.366 331.802 215.22C332.085 211.091 330.83 207.771 327.47 205.341Z" fill="#E7EEF9"/>
<path d="M295.04 205.382C299.575 204.977 303.907 209.997 303.866 214.289C303.785 222.103 303.907 229.917 303.907 237.731C302.328 238.176 301.801 237.609 301.842 235.909C301.923 229.067 301.882 222.184 301.882 215.342C301.882 210.2 299.777 207.163 295.04 205.382Z" fill="#E7EEF9"/>
<path d="M245.849 124.773C250.14 125.866 252.853 128.295 252.812 133.032C252.812 134.773 252.812 136.514 252.812 138.255C252.812 139.753 252.853 141.211 252.772 142.709C252.731 143.68 253.055 144.247 254.067 144.328C249.776 145.34 249.776 145.34 249.776 141.049C249.776 138.619 249.654 136.231 249.816 133.801C250.059 129.591 248.359 126.716 244.391 125.218C244.836 124.935 245.322 124.732 245.849 124.773Z" fill="#E7EEF9"/>
<path d="M267.064 207.082C272.206 206.637 276.74 210.807 276.74 216.07C276.781 223.318 276.781 230.565 276.781 237.852C275.08 238.338 274.554 237.65 274.594 235.949C274.675 229.674 274.635 223.399 274.635 217.123C274.635 211.779 272.125 208.459 267.064 207.082Z" fill="#E7EEF9"/>
<path d="M242.691 208.661C247.792 208.499 250.667 212.103 250.748 216.961C250.869 222.832 250.788 228.702 250.788 234.573C250.788 237.609 250.788 237.609 253.905 237.69C254.189 237.69 254.432 237.771 254.715 237.771C253.015 237.933 251.314 238.055 249.573 237.771C250.059 236.84 249.209 236.152 249.209 235.221C249.371 229.917 249.29 224.573 249.29 219.269C249.29 218.014 249.29 216.718 249.29 215.463C249.128 215.463 249.007 215.463 248.845 215.463C248.845 222.872 248.845 230.241 248.845 237.65C248.197 237.124 248.521 236.395 248.521 235.787C248.48 229.876 248.359 223.925 248.561 218.014C248.683 213.439 246.942 210.362 242.691 208.661Z" fill="#E7EEF9"/>
<path d="M300.87 157.932C301.72 159.753 303.623 160.847 304.149 162.911C304.392 163.964 304.676 164.976 304.676 166.069C304.635 171.697 304.676 177.365 304.676 182.993C302.813 183.479 302.085 182.952 302.125 180.847C302.287 176.11 302.085 171.333 302.206 166.555C302.287 162.79 300.91 159.956 297.793 157.891C298.846 156.879 299.858 158.053 300.87 157.932Z" fill="#E7EEF9"/>
<path d="M266.861 162.021C272.125 161.859 275.849 165.422 275.89 170.685C275.93 174.207 275.89 177.689 275.89 181.211C275.89 183.884 275.89 183.884 278.441 183.924C278.764 183.924 279.088 184.005 279.412 184.086C278.481 184.167 277.55 184.248 276.619 184.329C273.501 184.531 273.501 184.531 273.501 181.292C273.501 178.337 273.339 175.341 273.542 172.426C273.906 167.203 271.801 163.721 266.861 162.021Z" fill="#E7EEF9"/>
<path d="M350.831 167.001C355.041 166.515 358.887 169.835 358.928 174.005C358.968 177.446 359.09 180.887 358.887 184.288C358.766 186.475 359.09 188.013 361.6 188.216C356.499 188.054 356.499 188.054 356.499 183.074C356.499 180.604 356.418 178.094 356.499 175.624C356.701 171.414 354.839 168.499 350.831 167.001Z" fill="#E7EEF9"/>
<path d="M222.65 168.903C225.443 168.458 227.589 169.551 228.885 171.94C229.856 173.721 229.532 175.867 229.694 177.81C229.978 180.726 229.209 183.681 229.33 186.637C229.37 187.608 229.613 188.256 230.464 188.701C227.103 189.633 227.063 189.592 227.063 186.272C227.063 182.709 227.103 179.147 227.103 175.624C227.144 171.657 226.253 170.32 222.65 168.903Z" fill="#E7EEF9"/>
<path d="M225.686 130.482C227.873 131.291 230.14 131.939 231.071 134.53C231.354 135.34 231.435 136.109 231.435 136.878C231.435 139.915 231.476 142.951 231.435 145.988C231.435 146.879 231.638 147.729 231.881 148.539C228.601 149.591 228.601 149.591 228.601 146.15C228.601 143.478 228.48 140.765 228.642 138.093C228.804 134.814 227.792 132.303 224.553 131.048C224.674 130.482 225.16 130.441 225.686 130.482Z" fill="#E7EEF9"/>
<path d="M242.853 165.098C247.711 164.409 250.343 168.661 250.383 172.466C250.464 177.122 250.424 181.738 250.464 186.394C247.913 186.88 247.913 186.88 247.913 184.491C247.913 180.726 247.832 176.92 247.954 173.155C248.035 169.268 246.537 166.515 242.853 165.098Z" fill="#E7EEF9"/>
<path d="M352.936 202.386C352.612 203.722 353.746 204.734 353.786 205.989C349.252 205.099 347.794 205.463 344.11 208.337C343.422 206.313 342.733 204.41 342.126 202.467C341.681 201.05 342.814 201.293 343.543 201.374C346.539 201.576 349.535 201.86 352.531 202.102C352.653 202.224 352.815 202.345 352.936 202.467V202.386Z" fill="#E7EEF9"/>
<path d="M362.167 153.842C359.292 153.68 356.458 153.235 353.624 152.749C350.021 152.142 346.377 152.304 342.774 152.304C341.964 152.304 341.033 152.466 341.195 151.17C347.794 150.684 354.312 151.494 360.831 152.547C361.641 152.628 362.329 152.83 362.167 153.842Z" fill="#E7EEF9"/>
<path d="M387.188 175.867C389.374 176.312 390.062 178.053 390.062 179.835C390.184 186.677 390.103 193.56 390.143 200.402C390.143 200.888 390.103 201.333 389.617 201.617C389.293 201.374 389.293 201.05 389.293 200.726C389.334 200.645 389.334 200.524 389.253 200.443C389.253 194.451 389.172 188.418 389.253 182.426C389.253 179.997 388.807 177.77 387.188 175.867Z" fill="#E7EEF9"/>
<path d="M248.845 237.65C248.845 230.241 248.845 222.872 248.845 215.463C249.007 215.463 249.128 215.463 249.29 215.463C249.29 216.718 249.29 218.014 249.29 219.269C249.29 224.573 249.371 229.917 249.209 235.221C249.169 236.152 250.059 236.84 249.573 237.771C249.331 237.731 249.088 237.69 248.845 237.65Z" fill="#E7EEF9"/>
<path d="M339.656 147.284C336.944 147.243 334.272 147.243 331.559 147.203C331.519 146.636 331.761 146.231 332.328 146.231C334.555 146.19 336.741 146.19 338.968 146.231C339.535 146.271 339.697 146.757 339.656 147.284Z" fill="#E7EEF9"/>
<path d="M348.24 166.758C349.09 166.434 349.98 166.069 350.709 167.041C349.899 166.92 349.09 166.839 348.24 166.758Z" fill="#E7EEF9"/>
<path d="M220.22 169.065C220.504 168.782 220.868 168.863 221.192 168.863C220.868 168.944 220.544 168.984 220.22 169.065Z" fill="#E7EEF9"/>
<path d="M365.203 153.033C365.527 153.316 365.568 153.599 365.163 153.883C365.203 153.599 365.203 153.316 365.203 153.033Z" fill="#E7EEF9"/>
<path d="M265.08 103.234C265.363 102.87 265.687 102.87 266.052 103.113C265.728 103.315 265.404 103.355 265.08 103.234Z" fill="#E7EEF9"/>
<path d="M242.124 208.54C242.205 208.459 242.286 208.378 242.367 208.297C242.448 208.418 242.569 208.58 242.65 208.702C242.448 208.661 242.286 208.621 242.124 208.54Z" fill="#E7EEF9"/>
<path d="M385.811 174.936C386.135 174.896 386.418 174.976 386.499 175.341C386.256 175.219 386.054 175.098 385.811 174.936Z" fill="#E7EEF9"/>
<path d="M386.499 175.341C386.904 175.3 387.188 175.381 387.228 175.867C386.985 175.705 386.742 175.543 386.499 175.341Z" fill="#E7EEF9"/>
<path d="M352.936 202.426C352.814 202.305 352.652 202.184 352.531 202.062C352.693 202.224 352.814 202.305 352.936 202.426Z" fill="#E7EEF9"/>
<path d="M389.212 200.443C389.293 200.524 389.293 200.645 389.252 200.726C389.131 200.645 389.131 200.564 389.212 200.443Z" fill="#E7EEF9"/>
<path d="M212.406 191.455C212.568 191.252 212.771 191.212 213.014 191.333C212.811 191.374 212.609 191.414 212.406 191.455Z" fill="#E7EEF9"/>
<path d="M365.487 154.288C365.73 154.369 365.811 154.531 365.77 154.774C365.649 154.612 365.568 154.45 365.487 154.288Z" fill="#E7EEF9"/>
<path d="M336.377 237.528C334.312 237.812 333.624 236.962 333.705 234.816C333.867 228.419 333.705 222.022 333.786 215.585C333.826 213.398 333.421 211.333 333.017 209.228C334.555 210.159 334.758 211.9 335.284 213.358C337.996 220.888 340.547 228.459 343.179 235.99C343.624 237.245 343.381 237.69 342.005 237.569C340.142 237.528 338.239 237.569 336.377 237.528Z" fill="#E7EEF9"/>
<path d="M379.981 162.102C381.236 162.223 382.532 162.223 383.787 162.507C385.406 162.83 385.73 162.142 385.69 160.685C385.609 157.527 385.69 154.369 385.73 151.211C386.702 151.292 386.418 152.061 386.418 152.587C386.459 155.745 386.378 158.863 386.459 162.021C386.499 163.154 386.054 163.6 384.961 163.478C383.625 163.316 382.289 163.235 380.993 163.073C380.507 162.992 379.859 162.871 379.981 162.102Z" fill="#E7EEF9"/>
<path d="M392.734 168.903C393.342 168.903 393.949 168.903 394.516 168.944C397.026 169.227 397.026 169.227 397.066 166.758C397.066 165.422 397.107 164.086 397.147 162.79C397.998 162.992 397.795 163.681 397.795 164.247C397.836 165.179 397.755 166.15 397.836 167.082C398.16 169.956 397.674 170.523 394.88 169.794C394.192 169.632 393.018 170.159 392.734 168.903Z" fill="#E7EEF9"/>
<path d="M379.819 231.172C380.75 230.16 380.831 228.905 380.831 227.65C380.872 223.439 380.872 219.188 380.831 214.977C380.831 209.876 378.928 207.204 374.11 205.503C379.212 205.26 383.139 208.864 383.139 213.884C383.179 219.228 383.098 224.532 383.058 229.876C382.005 230.322 380.912 230.767 379.819 231.172Z" fill="#E7EEF9"/>
<path d="M364.191 213.358C364.353 217.002 364.353 220.645 364.191 224.33C363.705 220.645 363.665 217.002 364.191 213.358Z" fill="#E7EEF9"/>
</g>
</svg>
