<svg width="395" height="236" viewBox="0 0 395 236" fill="none" xmlns="http://www.w3.org/2000/svg">
<mask id="mask0_237_4477" style="mask-type:alpha" maskUnits="userSpaceOnUse" x="0" y="0" width="395" height="236">
<rect width="395" height="236" rx="10" fill="white"/>
</mask>
<g mask="url(#mask0_237_4477)">
<path d="M270.251 96.6349C270.251 96.6768 270.251 96.6768 270.251 96.7187L269.29 111.497C269.29 111.622 269.248 111.79 269.164 111.873C269.206 111.999 269.248 112.125 269.206 112.292L268.245 127.07C268.245 127.196 268.203 127.363 268.12 127.447C268.162 127.572 268.203 127.698 268.162 127.865L267.201 142.643C267.201 142.769 267.159 142.936 267.075 143.02C267.117 143.146 267.159 143.271 267.117 143.439L266.156 158.217C266.156 158.342 266.114 158.51 266.031 158.594C266.073 158.719 266.114 158.845 266.073 159.012L265.112 173.79C265.112 173.916 265.07 174.083 264.986 174.167C265.028 174.293 265.07 174.418 265.028 174.586L264.067 189.364C264.067 189.489 264.025 189.657 263.942 189.74C263.984 189.866 264.025 189.992 263.984 190.159L263.023 204.937C263.023 205.063 262.981 205.23 262.897 205.314C262.939 205.439 262.981 205.565 262.939 205.732L261.978 220.51C261.978 220.636 261.936 220.803 261.853 220.887C261.895 221.013 261.936 221.138 261.895 221.306L260.934 236H268.496L276.1 96.6768H270.251V96.6349Z" fill="#DCE6F8"/>
<path d="M270.167 227.753L269.958 231.269H316L315.791 227.753H270.167Z" fill="#DCE6F8"/>
<path d="M276.392 113.422H309.566L309.357 109.906H276.601L276.392 113.422Z" fill="#DCE6F8"/>
<path d="M276.643 109.236H309.357L309.148 105.678H276.81L276.643 109.236Z" fill="#DCE6F8"/>
<path d="M276.852 105.008H309.106L308.897 101.491H277.061L276.852 105.008Z" fill="#DCE6F8"/>
<path d="M268.287 111.413L269.248 96.6349H249.026L243.094 111.413H268.287Z" fill="#DCE6F8"/>
<path d="M268.245 112.208H234.32L228.387 126.986H267.284L268.245 112.208Z" fill="#DCE6F8"/>
<path d="M265.195 158.928H183.766L177.916 173.581V173.706H264.234L265.195 158.928Z" fill="#DCE6F8"/>
<path d="M266.198 143.355H202.065L196.133 158.133H265.237L266.198 143.355Z" fill="#DCE6F8"/>
<path d="M264.151 174.502H165.382L159.617 188.861V189.238H263.19L264.151 174.502Z" fill="#DCE6F8"/>
<path d="M263.148 190.033H148.169L142.236 204.811H262.187L263.148 190.033Z" fill="#DCE6F8"/>
<path d="M124.02 220.385H261.184L262.145 205.607H129.911L124.02 220.385Z" fill="#DCE6F8"/>
<path d="M106.807 235.958H260.14L261.101 221.18H112.739L106.807 235.958Z" fill="#DCE6F8"/>
<path d="M218.61 127.656L212.719 142.35H266.073L267.034 127.656H218.61Z" fill="#DCE6F8"/>
<path d="M256.171 73.861V78.9684H329.787V73.861H256.171Z" fill="#DCE6F8"/>
<path d="M112.739 220.175H123.059C123.059 220.134 123.101 220.05 123.101 220.008L129.034 205.23C129.201 204.853 129.535 204.602 129.953 204.602H141.275C141.275 204.56 141.317 204.476 141.317 204.435L147.25 189.657C147.417 189.28 147.751 189.029 148.169 189.029H158.614V188.819C158.614 188.694 158.656 188.568 158.698 188.443L164.463 174.083C164.63 173.706 164.965 173.455 165.382 173.455H176.914C176.914 173.372 176.955 173.288 176.997 173.162L182.888 158.51C183.055 158.133 183.39 157.882 183.807 157.882H195.213C195.213 157.84 195.255 157.756 195.255 157.714L201.188 142.936C201.355 142.56 201.689 142.308 202.107 142.308H211.758C211.758 142.183 211.758 142.057 211.842 141.932L217.733 127.279C217.9 126.903 218.234 126.651 218.652 126.651H227.51V126.61L233.442 111.832C233.609 111.455 233.944 111.204 234.361 111.204H242.174C242.174 111.162 242.216 111.078 242.216 111.036L246.018 101.491H234.027L86 235.958H105.804C105.804 235.833 105.804 235.707 105.887 235.581L111.778 220.803C111.946 220.427 112.322 220.175 112.739 220.175Z" fill="#DCE6F8"/>
<path d="M323.896 220.845C323.855 220.72 323.813 220.594 323.771 220.468L322.81 205.69C322.81 205.565 322.81 205.397 322.852 205.272C322.81 205.146 322.768 205.021 322.727 204.895L321.766 190.117C321.766 189.992 321.766 189.824 321.807 189.698C321.766 189.573 321.724 189.447 321.682 189.322L320.721 174.544C320.721 174.418 320.721 174.251 320.763 174.125C320.721 174 320.679 173.874 320.638 173.748L319.677 158.97C319.677 158.845 319.677 158.677 319.718 158.552C319.677 158.426 319.635 158.301 319.593 158.175L318.632 143.397C318.632 143.271 318.632 143.104 318.674 142.978C318.632 142.853 318.59 142.727 318.549 142.602L317.588 127.824C317.588 127.698 317.588 127.531 317.629 127.405C317.588 127.279 317.546 127.154 317.504 127.028L316.543 112.25C316.543 112.125 316.543 111.957 316.585 111.832C316.543 111.706 316.501 111.58 316.46 111.455L315.499 96.6768C315.499 96.6349 315.499 96.6349 315.499 96.5931H309.44L317.044 235.916H324.607L323.646 221.222C323.855 221.096 323.855 220.971 323.896 220.845Z" fill="#DCE6F8"/>
<path d="M271.755 198.281L271.588 201.839H314.371L314.203 198.281H271.755Z" fill="#DCE6F8"/>
<path d="M272.465 185.68L272.256 189.196H313.702L313.493 185.68H272.465Z" fill="#DCE6F8"/>
<path d="M272.214 189.866L272.047 193.424H313.911L313.744 189.866H272.214Z" fill="#DCE6F8"/>
<path d="M272.005 194.094L271.797 197.611H314.162L313.953 194.094H272.005Z" fill="#DCE6F8"/>
<path d="M273.133 173.037L272.966 176.553H312.992L312.825 173.037H273.133Z" fill="#DCE6F8"/>
<path d="M272.925 177.265L272.716 180.781H313.243L313.034 177.265H272.925Z" fill="#DCE6F8"/>
<path d="M272.674 181.451L272.507 184.968H313.451L313.284 181.451H272.674Z" fill="#DCE6F8"/>
<path d="M271.086 210.923L270.877 214.44H315.081L314.872 210.923H271.086Z" fill="#DCE6F8"/>
<path d="M270.376 223.525L270.209 227.083H315.749L315.582 223.525H270.376Z" fill="#DCE6F8"/>
<path d="M308.897 100.821L308.647 96.6349H277.312L277.103 100.821H308.897Z" fill="#DCE6F8"/>
<path d="M270.627 219.338L270.418 222.855H315.54L315.332 219.338H270.627Z" fill="#DCE6F8"/>
<path d="M271.295 206.695L271.128 210.254H314.83L314.663 206.695H271.295Z" fill="#DCE6F8"/>
<path d="M271.546 202.509L271.337 206.025H314.621L314.412 202.509H271.546Z" fill="#DCE6F8"/>
<path d="M273.384 168.808L273.175 172.367H312.783L312.574 168.808H273.384Z" fill="#DCE6F8"/>
<path d="M270.836 215.11L270.668 218.668H315.29L315.123 215.11H270.836Z" fill="#DCE6F8"/>
<path d="M274.303 151.979L274.094 155.538H311.864L311.655 151.979H274.303Z" fill="#DCE6F8"/>
<path d="M276.142 118.32L275.933 121.837H310.025L309.817 118.32H276.142Z" fill="#DCE6F8"/>
<path d="M276.351 114.134L276.183 117.651H309.775L309.608 114.134H276.351Z" fill="#DCE6F8"/>
<path d="M275.891 122.549L275.724 126.065H310.234L310.067 122.549H275.891Z" fill="#DCE6F8"/>
<path d="M269.916 231.939L269.708 235.958H316.251L316.042 231.939H269.916Z" fill="#DCE6F8"/>
<path d="M275.682 126.735L275.473 130.294H310.485L310.276 126.735H275.682Z" fill="#DCE6F8"/>
<path d="M275.431 130.963L275.264 134.48H310.694L310.527 130.963H275.431Z" fill="#DCE6F8"/>
<path d="M274.053 156.207L273.886 159.724H312.073L311.906 156.207H274.053Z" fill="#DCE6F8"/>
<path d="M273.844 160.394L273.635 163.952H312.323L312.114 160.394H273.844Z" fill="#DCE6F8"/>
<path d="M274.512 147.793L274.345 151.309H311.613L311.446 147.793H274.512Z" fill="#DCE6F8"/>
<path d="M274.763 143.564L274.554 147.123H311.404L311.195 143.564H274.763Z" fill="#DCE6F8"/>
<path d="M275.223 135.15L275.014 138.708H310.945L310.736 135.15H275.223Z" fill="#DCE6F8"/>
<path d="M273.593 164.622L273.426 168.139H312.532L312.365 164.622H273.593Z" fill="#DCE6F8"/>
<path d="M274.972 139.378L274.805 142.895H311.153L310.986 139.378H274.972Z" fill="#DCE6F8"/>
<path d="M316.71 96.6349L317.671 111.413H342.865L336.932 96.6349H316.71Z" fill="#DCE6F8"/>
<path d="M317.713 112.208L318.674 126.986H357.571L351.638 112.208H317.713Z" fill="#DCE6F8"/>
<path d="M320.763 158.928L321.724 173.706H408.042V173.581L402.193 158.928H320.763Z" fill="#DCE6F8"/>
<path d="M319.76 143.355L320.721 158.133H389.826L383.893 143.355H319.76Z" fill="#DCE6F8"/>
<path d="M321.807 174.502L322.768 189.238H426.341V188.861L420.576 174.502H321.807Z" fill="#DCE6F8"/>
<path d="M322.81 190.033L323.771 204.811H443.722L437.789 190.033H322.81Z" fill="#DCE6F8"/>
<path d="M461.938 220.385L456.047 205.607H323.813L324.774 220.385H461.938Z" fill="#DCE6F8"/>
<path d="M324.857 221.18L325.818 235.958H479.152L473.261 221.18H324.857Z" fill="#DCE6F8"/>
<path d="M318.925 127.656L319.886 142.35H373.239L367.348 127.656H318.925Z" fill="#DCE6F8"/>
<path d="M331.5 84.8293V79.7219H254.5V84.8293H331.5Z" fill="#DCE6F8"/>
<path d="M331.5 73.0655V68H254.5V73.0655H331.5Z" fill="#DCE6F8"/>
<path d="M329.787 85.6666H256.171V95.7977H277.437V87.7179H283.411V95.7977H286.587V87.7179H299.371V95.7977H302.547V87.7179H308.521V95.7977H329.787V85.6666Z" fill="#DCE6F8"/>
<path d="M351.973 101.491H339.982L343.826 111.036C343.867 111.078 343.867 111.162 343.867 111.204H351.68C352.098 111.204 352.474 111.455 352.599 111.832L358.532 126.61V126.651H367.39C367.807 126.651 368.183 126.903 368.309 127.279L374.2 141.932C374.242 142.057 374.283 142.183 374.283 142.308H383.893C384.311 142.308 384.687 142.56 384.812 142.936L390.745 157.714C390.787 157.756 390.787 157.84 390.787 157.882H402.193C402.61 157.882 402.986 158.133 403.112 158.51L409.003 173.162C409.044 173.246 409.044 173.33 409.086 173.455H420.618C421.035 173.455 421.411 173.706 421.537 174.083L427.302 188.443C427.344 188.568 427.386 188.694 427.386 188.819V189.029H437.831C438.249 189.029 438.625 189.28 438.75 189.657L444.683 204.435C444.725 204.476 444.725 204.56 444.725 204.602H456.047C456.465 204.602 456.841 204.853 456.966 205.23L462.899 220.008C462.941 220.05 462.941 220.134 462.941 220.175H473.261C473.678 220.175 474.054 220.427 474.18 220.803L480.113 235.581C480.154 235.707 480.196 235.833 480.196 235.958H500L351.973 101.491Z" fill="#DCE6F8"/>
</g>
</svg>
