<svg width="395" height="236" viewBox="0 0 395 236" fill="none" xmlns="http://www.w3.org/2000/svg">
<mask id="mask0_15_689" style="mask-type:alpha" maskUnits="userSpaceOnUse" x="0" y="0" width="395" height="236">
<rect width="395" height="236" rx="10" fill="white"/>
</mask>
<g mask="url(#mask0_15_689)">
<path d="M269.353 55.7505C269.267 56.0957 269.439 56.1819 269.698 56.2682C269.784 58.5977 267.716 60.7546 269.353 63.1704C270.043 64.2057 270.387 65.241 271.852 65.7587C274.179 66.6214 274.696 68.4333 272.283 69.9C270.387 71.0216 270.56 72.6608 270.043 74.3864C268.147 80.512 268.922 86.724 268.75 92.9359C267.975 97.2498 271.421 98.7165 274.179 100.873C270.56 100.011 269.439 102.858 267.63 104.67C264.097 104.67 260.65 104.67 257.117 104.67C255.221 104.67 253.325 104.67 251.429 104.67C246.431 104.67 241.433 104.67 236.435 104.67C231.954 104.411 227.387 105.101 222.992 103.634C222.13 102.685 221.613 101.391 222.561 100.528C225.922 97.5086 225.922 94.3163 224.199 90.2613C223.595 88.7946 227.99 88.0181 226.439 84.8259C229.455 88.1044 227.559 92.332 229.8 95.5242C230.662 89.4848 232.644 83.4454 229.714 77.4923C229.024 76.1119 229.455 74.6452 229.455 73.2648C229.455 71.7981 229.8 70.5039 227.904 69.8137C224.716 68.6058 226.094 66.7077 227.99 65.6724C230.317 64.4645 231.265 62.8253 230.92 60.3232C229.628 57.2173 231.696 54.6289 232.04 51.6955C233.678 52.3857 232.902 53.7662 233.505 54.4564C234.367 55.4917 234.453 57.5624 236.263 57.2173C238.159 56.7859 239.107 55.4054 238.762 53.3348C238.59 52.0406 239.193 50.919 239.365 49.7974C240.141 44.9659 241.433 40.0481 238.762 35.3029C237.986 33.2323 239.107 32.1969 240.658 31.2479C241.692 30.644 243.674 30.5577 242.295 28.487C241.433 27.1929 241.692 26.0713 242.898 25.2085C244.449 24.0869 245.052 22.3614 245.742 20.7221C245.828 20.6358 245.914 20.4633 246 20.2907C249.447 18.3926 249.964 15.4592 248.586 12.1807C247.724 10.2826 248.672 9.59237 249.792 8.7296L250.051 8.81588L250.223 8.90216C251.343 9.8512 251.515 10.8865 251.171 12.3532C250.309 16.0631 250.395 19.5142 253.928 22.0163C257.978 24.8634 255.307 31.3342 260.133 33.8362C260.305 34.4401 260.391 35.0441 260.564 35.648C258.237 41.1697 258.409 46.6052 260.65 52.2132C261.512 54.4564 261.253 57.7349 264.269 57.3898C266.682 57.0447 266.337 53.7662 266.682 51.523C266.682 51.3504 266.768 51.2641 266.768 51.0916C268.492 51.1779 268.233 52.6446 268.578 53.6799C268.319 54.6289 268.492 55.3192 269.353 55.7505ZM257.203 45.0522C256.6 43.5855 257.548 40.6521 255.049 40.8246C252.98 40.9972 253.497 43.8443 253.411 45.5699C253.325 46.9503 252.98 49.2798 255.221 49.1072C257.72 49.1072 256.772 46.6915 257.203 45.0522ZM245.225 46.4326C245.052 44.8796 245.57 42.1188 243.846 42.1188C241.606 42.1188 242.295 44.9659 242.036 46.6915C241.864 47.8993 241.519 49.4523 243.674 49.3661C245.57 49.2798 245.139 47.7268 245.225 46.4326Z" fill="#E7EEF9"/>
<path d="M365.781 114.16C363.196 112.693 360.524 111.399 360.697 107.517C360.955 102.254 360.783 96.9047 359.921 91.6418C359.663 91.3829 359.318 91.0378 359.059 90.779C357.422 90.8653 356.216 91.728 355.871 93.1948C354.406 98.5439 351.218 103.289 350.356 108.811C353.2 109.156 354.234 110.364 351.649 112.348C350.184 113.47 350.528 114.85 350.442 116.144C350.356 117.697 350.442 119.337 348.633 120.113C347.598 123.996 346.564 127.878 345.272 132.537C345.099 132.192 345.013 131.933 344.841 131.588C344.496 134.176 344.41 136.765 344.238 139.353C353.372 139.008 350.959 137.714 356.216 147.722C358.629 147.549 360.611 148.93 362.506 149.965C365.522 151.604 366.987 151.259 366.729 147.463C366.298 141.078 367.504 134.694 365.953 128.396C365.781 127.533 365.953 126.67 366.729 126.153C366.557 124.945 366.384 123.737 366.298 122.529C366.126 121.062 365.092 119.423 366.557 118.129C368.711 116.231 367.763 115.282 365.781 114.16Z" fill="#E7EEF9"/>
<path d="M293.568 117.007C295.464 117.352 296.067 113.211 298.824 115.627C299.341 116.144 301.41 108.121 299.945 106.913C298.307 105.619 299.169 105.446 300.031 104.238C301.582 101.995 305.029 100.528 303.822 96.8184C303.909 96.7321 303.995 96.6458 304.081 96.5595C303.909 96.4733 303.736 96.3007 303.65 96.2144V96.1282C303.909 93.7987 303.219 90.9515 306.752 90.4339L306.839 90.5202C306.666 92.332 306.063 94.2301 307.356 95.8693C307.356 96.4733 307.356 97.0772 307.356 97.6812C307.269 97.7674 307.183 97.8537 307.097 97.94C307.269 98.0263 307.442 98.1988 307.614 98.2851C307.873 98.5439 308.131 98.889 308.39 99.1479C308.303 99.9243 308.476 100.615 309.165 101.046C312.009 105.619 311.664 110.709 311.923 115.713C312.009 117.18 311.837 118.733 313.215 119.509C314.853 120.458 315.37 118.129 316.921 117.87C317.524 121.321 318.3 124.686 322.867 124.427C323.47 125.117 324.159 125.117 324.935 124.6C326.055 128.482 325.107 132.537 325.624 136.506C325.538 137.369 325.452 138.231 325.366 139.008C323.384 139.439 321.057 138.059 319.42 140.129C312.009 135.557 304.426 135.125 296.842 139.698C291.155 138.231 291.327 139.698 292.62 132.192C293.051 129.69 293.826 127.188 294.257 124.686C294.43 122.184 295.119 119.509 293.568 117.007Z" fill="#E7EEF9"/>
<path d="M359.06 90.779C357.422 90.8653 356.216 91.728 355.871 93.1947C354.406 98.5439 351.218 103.289 350.356 108.811C341.997 109.587 333.725 112.003 325.193 111.313C327.693 103.807 328.813 96.1282 327.003 88.277C327.692 88.1907 328.468 88.1044 329.157 88.0181C337.947 86.2063 346.737 86.12 355.44 88.3632C356.819 88.7083 358.715 88.6221 359.06 90.779ZM345.961 99.3204C346.737 100.701 344.755 104.066 347.943 104.238C350.787 104.411 350.184 100.96 350.27 99.1479C350.442 96.7321 352.166 92.5045 348.719 92.2457C345.53 92.0731 346.306 96.387 345.961 99.3204ZM339.24 99.2341C339.24 98.6302 339.24 98.1125 339.24 97.5086C339.154 95.8693 339.412 93.281 337.602 93.1947C335.62 93.1085 335.793 95.6105 335.707 97.336C335.62 98.8027 335.62 100.183 335.707 101.65C335.707 102.944 335.448 104.411 337.344 104.583C339.24 104.67 339.154 103.203 339.24 101.909C339.24 100.96 339.24 100.097 339.24 99.2341Z" fill="#E7EEF9"/>
<path d="M359.059 90.779C358.801 88.6221 356.819 88.7083 355.44 88.3632C346.737 86.0338 337.947 86.2063 329.157 88.0181C328.468 88.1907 327.779 88.1907 327.003 88.277C328.296 86.12 329.244 83.7906 330.881 81.9787C336.396 75.9394 338.55 68.0019 342.256 61.0134C342.687 60.3232 343.29 59.633 343.807 59.0291C344.927 63.0841 344.669 67.3117 343.979 71.3667C343.462 74.3864 343.634 77.3198 343.462 80.3395C343.462 81.4611 343.376 82.8415 344.927 83.0141C346.823 83.2729 348.977 83.7906 350.701 83.1866C351.907 82.7552 350.528 80.8571 350.184 79.7355C348.46 73.6962 346.047 67.8293 346.047 61.4448C347.857 62.135 347.771 63.9469 348.288 65.3273C350.959 73.5236 354.837 81.116 360.266 87.673C361.817 89.5711 360.869 90.5202 359.749 91.728C359.576 91.3829 359.318 91.1241 359.059 90.779Z" fill="#E7EEF9"/>
<path d="M325.193 111.313C333.725 112.003 341.911 109.501 350.356 108.811C353.2 109.156 354.234 110.364 351.649 112.348C350.184 113.47 350.528 114.85 350.442 116.144C350.356 117.697 350.442 119.337 348.633 120.113C348.633 119.25 348.633 118.388 348.633 117.525C348.46 113.642 347.598 113.211 344.324 115.282C343.204 115.972 342.256 116.835 341.308 117.611C334.673 122.788 328.813 128.568 325.624 136.506C325.107 132.537 326.055 128.482 324.935 124.6C324.849 123.651 324.676 122.701 324.59 121.839C324.159 119.25 326.141 115.972 322.608 114.16C322.694 113.556 322.694 112.866 322.781 112.262C323.556 112.003 324.332 111.658 325.193 111.313Z" fill="#E7EEF9"/>
<path d="M346.133 61.3586C346.133 67.7431 348.546 73.6099 350.27 79.6493C350.614 80.7709 351.907 82.669 350.787 83.1003C349.063 83.7043 346.909 83.1866 345.013 82.9278C343.462 82.7552 343.462 81.3748 343.548 80.2532C343.634 77.2335 343.548 74.3001 344.065 71.2804C344.755 67.2254 345.013 63.0841 343.893 58.9428C343.893 58.5114 343.979 58.08 343.807 57.7349C343.29 56.527 343.634 55.578 344.669 54.8015C345.099 54.4564 345.703 54.4564 346.133 54.9741C346.995 55.9231 347.081 56.9584 346.133 57.9075C346.047 57.9938 345.875 58.08 345.875 58.1663C345.961 58.3389 346.047 58.5977 346.133 58.7702C346.047 59.7193 346.133 60.4958 346.133 61.3586Z" fill="#E7EEF9"/>
<path d="M267.716 104.756C269.526 103.03 270.646 100.097 274.265 100.96C271.508 98.7165 268.061 97.2498 268.836 93.0222C272.628 93.1085 270.991 90.2613 271.163 88.5358C271.335 87.3279 270.473 85.5161 271.766 85.0847C273.748 84.4808 272.886 86.8965 273.576 87.5867C275.385 89.226 274.954 90.6927 274.696 92.8496C274.437 95.0928 273.403 98.3714 277.023 100.183C279.177 101.305 276.419 103.548 277.195 105.274C274.007 105.36 270.818 105.446 267.716 105.532C267.716 105.274 267.716 105.015 267.716 104.756Z" fill="#E7EEF9"/>
<path d="M267.716 105.532C270.904 105.446 274.093 105.36 277.195 105.274C280.9 106.999 281.331 110.364 281.504 113.901C278.66 113.211 275.73 113.038 272.8 113.384C271.508 110.882 269.353 110.364 266.854 110.795L266.768 110.709C267.027 108.897 267.371 107.172 267.716 105.532Z" fill="#E7EEF9"/>
<path d="M306.752 90.4339C303.219 90.9516 303.909 93.7987 303.65 96.1282C303.478 95.9556 303.047 95.6968 303.047 95.5242C303.306 89.6574 303.65 83.7043 303.995 76.9747C307.442 81.8062 306.408 86.2063 306.752 90.4339Z" fill="#E7EEF9"/>
<path d="M307.356 95.9556C306.063 94.3164 306.58 92.4183 306.839 90.6064C308.131 92.2457 307.959 94.1438 307.356 95.9556Z" fill="#E7EEF9"/>
<path d="M324.504 121.925C324.59 122.874 324.763 123.823 324.849 124.686C324.073 125.204 323.384 125.204 322.781 124.513C323.384 123.651 323.987 122.788 324.504 121.925Z" fill="#E7EEF9"/>
<path d="M322.694 112.348C322.608 112.952 322.608 113.642 322.522 114.246C322.177 113.988 321.488 113.729 321.488 113.384C321.316 112.521 322.005 112.348 322.694 112.348Z" fill="#E7EEF9"/>
<path d="M309.079 101.132C308.39 100.701 308.217 100.011 308.304 99.2341C309.251 99.5792 309.338 100.269 309.079 101.132Z" fill="#E7EEF9"/>
<path d="M307.614 98.3714C307.442 98.2851 307.269 98.1125 307.097 98.0263C307.183 97.94 307.269 97.8537 307.356 97.7674C307.614 97.94 307.7 98.1125 307.614 98.3714Z" fill="#E7EEF9"/>
<path d="M303.65 96.2144C303.822 96.3007 303.995 96.4733 304.081 96.5595C303.995 96.6458 303.909 96.7321 303.822 96.8184C303.65 96.7321 303.564 96.4733 303.65 96.2144Z" fill="#E7EEF9"/>
<path d="M346.047 58.8565C345.961 58.684 345.789 58.4251 345.789 58.2526C345.789 58.1663 345.961 58.08 346.047 57.9938C346.047 58.3389 346.047 58.5977 346.047 58.8565Z" fill="#E7EEF9"/>
<path d="M267.716 105.532C267.371 107.258 267.113 108.897 266.768 110.623C253.411 110.623 240.141 110.709 226.784 110.709C224.629 110.709 222.734 110.709 222.044 113.297V113.211C220.665 112.348 217.391 114.419 217.736 111.572C218.08 109.07 218.08 105.101 222.561 105.187C227.215 105.36 231.868 106.136 236.435 104.756C241.433 104.756 246.431 104.756 251.429 104.756C253.325 105.791 255.221 105.791 257.117 104.756C260.65 104.756 264.097 104.756 267.63 104.756C267.716 105.015 267.716 105.274 267.716 105.532Z" fill="#E7EEF9"/>
<path d="M222.217 141.51C222.217 135.902 222.217 130.208 222.13 124.6C222.217 124.513 222.389 124.427 222.389 124.341C222.389 124.082 222.303 123.823 222.217 123.564L222.044 123.478L221.872 123.651C221.958 120.199 221.958 116.662 222.044 113.211V113.297C224.285 113.815 223.681 115.627 223.681 117.093C223.768 124.772 223.681 132.451 223.768 140.129C223.768 140.647 223.768 141.251 223.768 141.769C223.251 141.596 222.734 141.596 222.217 141.51Z" fill="#E7EEF9"/>
<path d="M236.435 104.756C231.868 106.05 227.215 105.274 222.561 105.187C222.734 104.67 222.906 104.238 222.992 103.807C227.473 105.187 232.04 104.497 236.435 104.756Z" fill="#E7EEF9"/>
<path d="M269.353 55.7505C268.492 55.2329 268.319 54.5427 268.578 53.6799C269.267 54.1976 269.353 54.9741 269.353 55.7505Z" fill="#E7EEF9"/>
<path d="M251.602 4.93342C249.964 5.88246 250.567 7.52172 250.223 8.90216L249.964 8.98843L249.706 8.90216C249.706 7.608 249.361 6.4864 247.896 6.05502C248.068 4.50203 248.327 2.60394 249.878 2.08628C251.257 1.65489 251.86 3.20788 252.119 4.50203C251.86 4.58831 251.688 4.76086 251.602 4.93342Z" fill="#E7EEF9"/>
<path d="M257.203 104.756C255.307 105.791 253.411 105.791 251.515 104.756C253.325 104.756 255.221 104.756 257.203 104.756Z" fill="#E7EEF9"/>
<path d="M419.553 185.425C416.709 185.339 415.761 186.719 415.761 189.652C415.848 194.743 416.278 199.919 415.503 205.01C411.625 208.202 413.349 212.171 414.21 215.967C414.297 217.865 416.451 219.159 415.848 221.316C402.577 221.316 389.306 221.23 376.036 221.23C376.036 211.739 376.122 202.249 376.122 192.845C376.122 185.77 376.122 178.782 376.122 171.707C376.122 170.585 375.777 169.032 377.242 168.773C378.879 168.515 378.879 170.24 379.569 171.275C381.723 174.64 381.12 178.436 381.637 182.146C382.154 186.374 381.551 191.809 388.014 192.758C389.134 192.931 388.875 193.966 388.617 194.829C386.893 200.437 388.617 206.131 388.358 211.826C388.272 214.155 389.048 215.19 391.547 215.104C393.96 215.018 394.391 213.81 394.304 211.826C394.218 209.237 394.218 206.649 394.304 204.061C394.304 200.696 393.184 196.986 397.579 195.002C395.425 193.966 392.926 194.915 392.064 192.327C394.304 191.205 396.803 190.17 395.597 186.978C394.735 184.735 392.839 184.044 390.771 184.648C387.238 185.77 388.445 188.617 388.875 191.119C387.152 191.033 385.17 189.911 386.118 188.79C388.962 185.252 381.465 181.197 386.98 178.178C387.066 178.178 386.635 177.401 386.635 176.97C386.549 175.676 386.29 174.295 386.635 173.087C387.324 170.413 388.272 167.911 384.136 167.307C383.102 167.134 383.016 166.099 383.102 165.236C383.188 161.095 382.585 156.867 383.877 152.812C386.463 152.553 386.463 150.655 386.463 148.671C386.635 144.788 386.032 140.82 387.066 135.816C388.875 139.784 388.272 142.89 388.186 145.824C388.014 149.706 389.565 152.036 392.926 153.589C395.597 154.797 397.665 156.004 395.511 159.628C394.649 161.181 395.252 163.51 395.166 165.495C395.08 167.307 396.545 168.169 397.493 169.377C399.475 171.621 401.715 173.864 401.974 176.97C402.146 179.644 403.525 180.421 405.679 180.593C405.335 181.284 404.99 182.06 404.731 182.75C402.318 188.531 403.956 195.519 408.609 198.798C409.471 199.402 410.763 200.178 411.711 199.661C412.745 199.057 411.625 197.849 411.797 196.986C412.142 193.449 409.902 190.515 410.074 187.064C411.797 186.805 411.97 189.394 413.952 189.307C413.952 188.445 414.21 187.495 413.866 187.15C410.591 183.958 413.435 182.233 415.503 180.421C416.365 179.644 417.313 179.127 418.26 178.436C418.691 180.852 419.122 183.182 419.553 185.425Z" fill="#E7EEF9"/>
<path d="M383.964 152.898C378.621 146.945 372.502 141.596 370.865 133.055C370.434 130.553 368.28 128.396 366.901 126.153C366.126 126.67 365.867 127.533 366.126 128.396C367.677 134.694 366.47 141.165 366.901 147.463C367.16 151.259 365.695 151.604 362.679 149.965C360.697 148.93 358.801 147.549 356.388 147.722C357.853 153.33 360.438 158.42 362.679 163.597C364.316 167.393 366.557 170.93 367.591 175.072C367.677 177.487 369.228 180.421 364.833 180.766C362.765 180.938 363.454 183.009 363.454 184.303C363.368 191.896 363.282 199.574 363.454 207.167C363.54 210.445 362.679 211.653 359.146 211.653C342.773 211.48 326.4 211.567 310.027 211.567C310.027 212.171 310.027 212.861 309.941 213.465C325.71 213.465 341.566 213.465 357.336 213.465C364.316 213.465 363.282 213.206 363.368 219.504C363.368 220.108 363.454 220.626 363.54 221.23C367.763 221.23 371.899 221.23 376.122 221.23C376.122 211.739 376.208 202.249 376.208 192.845C376.208 185.77 376.208 178.781 376.208 171.707C376.208 170.585 375.863 169.032 377.328 168.773C378.793 168.515 378.965 169.895 379.483 170.93C380.517 168.601 381.809 166.358 383.188 164.201C383.102 160.405 382.757 156.608 383.964 152.898Z" fill="#E7EEF9"/>
<path d="M356.302 147.808C357.767 153.416 360.352 158.506 362.593 163.683C364.23 167.479 366.47 171.017 367.504 175.158C352.855 175.244 338.292 175.33 323.642 175.33C323.729 173.95 323.815 172.483 323.987 171.103C325.883 171.275 326.658 169.981 327.52 168.601C330.105 164.546 333.208 160.836 335.448 156.608C338.378 151.173 341.653 145.737 342.6 139.439C353.631 139.18 350.701 137.196 356.302 147.808Z" fill="#E7EEF9"/>
<path d="M342.687 139.439C341.739 145.737 338.464 151.087 335.534 156.608C333.294 160.836 330.192 164.546 327.606 168.601C326.745 169.981 325.969 171.275 324.073 171.103C323.212 164.805 323.642 158.593 323.729 152.294C323.815 147.549 322.608 143.667 319.334 140.302C320.971 138.318 323.298 139.612 325.28 139.18C328.21 139.18 331.053 139.18 333.983 139.18C336.913 139.267 339.757 139.353 342.687 139.439Z" fill="#E7EEF9"/>
<path d="M333.983 139.18C331.053 139.18 328.21 139.18 325.28 139.18C325.366 138.318 325.452 137.455 325.538 136.678C328.813 128.741 334.673 122.874 341.308 117.784C342.342 117.007 343.29 116.144 344.324 115.454C347.599 113.297 348.46 113.815 348.633 117.697C348.633 118.56 348.633 119.423 348.633 120.286C347.599 124.168 346.564 128.051 345.272 132.71C343.893 130.121 344.582 127.188 340.877 127.102C334.328 126.929 333.811 127.102 333.897 133.745C333.983 135.384 333.983 137.282 333.983 139.18Z" fill="#E7EEF9"/>
<path d="M319.334 140.216C322.522 143.581 323.815 147.549 323.729 152.208C323.556 158.506 323.125 164.805 324.073 171.017C323.987 172.397 323.901 173.864 323.729 175.244C319.592 178.523 315.456 181.629 309.768 180.938C300.376 180.248 290.983 180.766 281.59 180.593C279.005 180.593 277.884 181.715 277.884 184.562C277.884 193.362 278.401 202.249 276.937 210.963L277.023 211.222C270.732 210.531 264.528 211.308 258.237 211.394C241.347 211.308 224.371 211.308 207.481 211.222C208.946 208.72 208.17 205.872 208.257 203.198C208.343 196.727 208.343 190.343 208.257 183.872C208.257 182.319 208.601 180.593 206.188 180.334C202.483 180.076 202.655 177.832 203.689 175.158C216.184 175.158 228.593 175.158 241.088 175.158C256.858 175.158 272.628 175.072 288.311 175.244C291.069 175.244 292.103 174.468 291.931 171.621C291.672 167.307 291.844 162.993 291.758 158.765C292.275 153.244 290.897 147.377 293.913 142.114C295.033 141.424 296.153 140.82 296.756 139.612C304.34 135.298 311.923 135.643 319.334 140.216ZM231.609 205.614C232.557 201.041 231.868 196.468 231.954 191.896C232.04 188.186 229.283 189.048 227.128 188.876C224.802 188.703 223.768 189.48 223.854 191.982C224.026 195.864 223.854 199.747 223.94 203.629C223.94 204.665 223.595 206.045 225.405 206.131C226.611 206.131 227.818 206.131 229.024 206.131C229.541 206.131 230.058 206.131 230.662 206.131C231.092 206.39 231.437 206.131 231.609 205.614ZM248.672 197.849C248.672 195.692 248.672 193.535 248.672 191.378C248.672 190.343 248.499 189.48 247.293 189.048C242.898 187.495 240.227 189.307 240.227 193.88C240.227 196.9 240.313 199.919 240.141 202.939C239.968 205.7 241.002 206.563 243.76 206.735C247.81 206.994 249.275 205.614 248.672 201.731C248.586 200.437 248.672 199.143 248.672 197.849ZM263.58 198.194C263.58 196.209 263.407 194.139 263.58 192.154C263.838 188.962 261.942 188.79 259.616 188.79C257.461 188.876 255.221 188.531 255.393 191.896C255.566 195.778 255.479 199.574 255.393 203.457C255.307 205.614 256.083 206.476 258.323 206.563C263.321 206.735 263.58 206.649 263.58 201.559C263.58 200.523 263.58 199.402 263.58 198.194Z" fill="#E7EEF9"/>
<path d="M293.913 142.373C290.897 147.636 292.362 153.416 291.758 159.024C276.333 162.216 260.908 165.495 245.139 167.22C232.73 168.601 220.407 168.946 207.998 168.083C210.411 161.354 214.978 155.832 218.253 149.534C219.631 146.859 221.269 144.357 222.217 141.51C222.734 141.596 223.251 141.596 223.768 141.682C233.678 141.682 243.588 142.373 253.411 141.51C264.183 140.561 274.868 141.165 285.554 140.82C288.484 140.733 291.241 141.078 293.913 142.373Z" fill="#E7EEF9"/>
<path d="M223.768 140.043C223.768 132.364 223.768 124.686 223.681 117.007C223.681 115.54 224.285 113.729 222.044 113.211C222.734 110.623 224.629 110.623 226.784 110.623C240.141 110.623 253.411 110.623 266.768 110.536L266.854 110.623C264.355 117.611 261.942 124.686 259.357 131.588C258.409 134.09 259.099 134.78 261.684 134.694C265.648 134.608 270.043 133.486 272.714 137.973C272.714 139.267 272.025 139.784 270.818 139.784C262.373 139.784 253.928 139.698 245.483 139.612C245.139 139.612 244.794 139.18 244.449 138.922C244.449 136.247 244.535 133.486 244.449 130.812C244.277 121.321 246.173 122.701 236.09 122.529C233.333 122.443 232.213 123.305 232.385 126.153C232.557 130.38 232.385 134.694 232.385 139.008C229.541 140.647 226.611 139.612 223.768 140.043Z" fill="#E7EEF9"/>
<path d="M272.714 138.145C270.043 133.572 265.734 134.694 261.684 134.867C259.012 134.953 258.409 134.176 259.357 131.761C261.942 124.772 264.355 117.784 266.854 110.795C269.353 110.45 271.508 110.968 272.8 113.384C272.714 121.58 272.714 129.862 272.714 138.145Z" fill="#E7EEF9"/>
<path d="M277.109 253.929C275.385 252.98 273.49 252.548 272.111 254.188C270.301 256.344 268.491 255.223 267.63 253.756C265.217 249.787 264.097 251.168 262.976 254.533C262.804 254.964 262.115 255.223 261.684 255.654C252.205 255.654 242.64 255.741 233.16 255.741C232.988 252.98 230.231 251.254 230.317 248.321C230.317 247.372 229.455 246.854 228.507 246.854C227.559 246.854 226.956 247.544 226.698 248.407C225.75 252.117 223.854 252.721 221.01 250.046C220.062 249.097 218.77 249.097 217.822 249.442C215.84 250.133 214.375 250.995 212.996 248.321C212.22 246.854 210.583 247.889 210.325 249.442C210.066 250.823 209.894 252.031 208.256 252.203C208.256 241.505 208.256 230.806 208.17 220.022C220.493 221.057 232.557 219.245 244.449 216.398C247.81 215.622 251.688 216.139 254.531 213.379C255.738 213.292 256.944 213.206 258.151 213.206C264.441 213.206 270.818 213.206 277.109 213.12C277.367 213.206 277.626 213.379 277.798 213.465C277.798 225.889 277.884 238.226 277.884 250.65C277.971 251.944 278.057 253.066 277.109 253.929ZM232.213 235.207C232.213 233.654 232.04 232.014 232.213 230.461C232.557 227.442 231.609 226.148 228.249 226.234C225.06 226.32 223.423 226.838 223.768 230.461C224.112 233.395 224.026 236.501 223.768 239.434C223.509 242.885 224.629 244.093 228.335 244.266C232.385 244.352 232.385 242.281 232.213 239.52C232.126 238.054 232.213 236.673 232.213 235.207ZM246.862 234.689C246.862 232.791 246.776 230.979 246.862 229.081C247.034 226.234 245.225 226.234 243.243 226.32C241.347 226.406 239.02 225.716 239.106 228.995C239.193 232.963 239.193 237.018 239.106 240.987C239.106 242.799 239.882 243.403 241.692 243.575C245.225 243.834 247.638 243.403 246.862 238.917C246.69 237.622 246.862 236.156 246.862 234.689Z" fill="#E7EEF9"/>
<path d="M207.998 168.083C220.407 168.86 232.816 168.515 245.139 167.22C260.908 165.495 276.333 162.216 291.758 159.024C291.758 163.338 291.672 167.652 291.931 171.879C292.103 174.726 291.069 175.503 288.311 175.503C272.542 175.417 256.858 175.417 241.088 175.417C228.593 175.417 216.184 175.417 203.689 175.417C204.551 172.57 205.844 170.068 207.998 168.083Z" fill="#E7EEF9"/>
<path d="M254.531 213.551C251.774 216.398 247.81 215.794 244.449 216.571C232.557 219.418 220.493 221.23 208.17 220.194C208.17 218.038 208.17 215.967 208.17 213.81C223.681 213.12 239.106 213.465 254.531 213.551Z" fill="#E7EEF9"/>
<path d="M254.532 213.551C239.107 213.551 223.595 213.12 208.17 213.81C207.395 213.206 207.309 212.343 207.395 211.394C224.285 211.48 241.261 211.48 258.151 211.567C258.151 212.171 258.151 212.775 258.237 213.379C256.944 213.379 255.738 213.465 254.532 213.551Z" fill="#E7EEF9"/>
<path d="M222.303 123.564C222.389 123.823 222.475 124.082 222.475 124.341C222.475 124.427 222.303 124.513 222.217 124.6C222.217 124.254 222.217 123.909 222.303 123.564Z" fill="#E7EEF9"/>
<path d="M420.07 248.58C415.158 248.493 410.16 248.407 405.248 248.321C404.128 246.595 404.817 243.317 402.577 243.058C400.164 242.799 401.974 246.595 399.906 247.544C399.647 247.631 399.647 248.321 399.475 248.666C388.875 248.666 378.19 248.58 367.591 248.58C367.763 245.646 365.695 245.387 363.541 245.215C363.024 237.191 363.11 229.081 363.454 221.057C367.677 221.057 371.813 221.057 376.036 221.057C389.306 221.057 402.577 221.143 415.848 221.143C419.898 221.489 420.76 223.991 420.242 227.528C420.07 228.563 420.587 229.771 420.76 230.807C420.76 232.877 420.846 234.948 420.846 237.018C419.467 240.901 420.846 244.783 420.07 248.58Z" fill="#E7EEF9"/>
<path d="M363.54 221.143C363.196 229.167 363.11 237.277 363.627 245.301C363.54 246.25 363.54 247.285 363.282 248.234C362.593 250.65 359.921 251.513 358.456 249.529C357.078 247.803 355.526 247.544 354.061 248.493C352.338 249.701 351.476 249.27 350.184 247.889C348.805 246.336 347.771 246.595 347.081 249.011C346.134 252.635 344.496 252.893 342.342 249.874C340.705 247.544 339.929 245.905 336.568 248.148C334.414 249.615 330.536 250.305 328.64 246.25C327.951 244.783 326.486 244.352 325.797 246.078C324.676 249.097 321.833 251.858 323.901 255.482C321.229 255.482 318.644 255.568 315.973 255.568C314.767 253.756 314.594 251.686 314.249 249.615C313.905 247.458 313.819 244.438 310.027 245.301C310.027 234.689 310.113 224.077 310.113 213.379V213.206C325.883 213.206 341.739 213.206 357.508 213.206C364.488 213.206 363.454 212.947 363.54 219.245C363.368 220.022 363.454 220.54 363.54 221.143Z" fill="#E7EEF9"/>
<path d="M309.768 181.025C315.456 181.715 319.592 178.523 323.728 175.33C338.378 175.244 352.941 175.158 367.591 175.158C367.677 177.574 369.228 180.507 364.833 180.852C362.765 181.025 363.454 183.095 363.454 184.389C363.368 191.982 363.282 199.661 363.454 207.253C363.54 210.531 362.679 211.739 359.146 211.739C342.773 211.567 326.4 211.653 310.027 211.653V211.48C309.941 201.214 309.855 191.119 309.768 181.025ZM335.707 194.829C335.707 192.672 335.62 190.515 335.707 188.358C335.879 185.425 333.811 185.597 331.915 185.77C330.105 185.942 327.175 184.562 327.175 188.272C327.089 192.586 327.175 196.9 327.175 201.127C327.175 202.335 327.262 203.284 328.813 203.716C333.466 205.096 335.707 203.457 335.707 198.625C335.707 197.417 335.707 196.123 335.707 194.829Z" fill="#E7EEF9"/>
<path d="M277.884 213.637C277.626 213.551 277.367 213.379 277.195 213.292C277.109 212.688 277.023 211.998 276.937 211.394L276.85 211.135C287.967 211.912 298.997 211.567 310.113 211.308V211.48C310.113 212.084 310.113 212.775 310.027 213.379V213.551C299.255 213.551 288.57 213.637 277.884 213.637Z" fill="#E7EEF9"/>
<path d="M310.027 211.308C298.911 211.48 287.88 211.912 276.764 211.135C278.315 202.335 277.798 193.535 277.712 184.735C277.712 181.974 278.832 180.766 281.418 180.766C290.81 180.852 300.203 180.334 309.596 181.111C309.855 191.119 309.941 201.214 310.027 211.308Z" fill="#E7EEF9"/>
<path d="M276.85 211.308C276.936 211.912 277.023 212.602 277.109 213.206C270.818 213.206 264.441 213.206 258.151 213.292C258.151 212.688 258.151 212.084 258.065 211.48C264.355 211.394 270.646 210.618 276.85 211.308Z" fill="#E7EEF9"/>
<path d="M230.575 206.218C230.92 206.045 231.265 205.786 231.609 205.614C231.437 206.131 231.092 206.39 230.575 206.218Z" fill="#E7EEF9"/>
<path d="M277.884 213.637C288.57 213.637 299.342 213.637 310.027 213.551C310.027 224.163 309.941 234.775 309.941 245.474C310.63 249.27 308.045 252.117 306.925 255.482C299.342 255.568 291.672 255.568 284.089 255.654C281.676 252.893 281.676 252.893 277.109 254.015C278.143 253.152 277.971 251.944 277.971 250.823C277.884 238.399 277.884 225.975 277.884 213.637ZM303.047 236.069C303.047 234.258 302.875 232.359 303.047 230.548C303.392 227.442 301.582 227.097 299.083 227.097C296.756 227.097 294.861 227.097 295.033 230.375C295.205 234.344 295.119 238.399 295.033 242.368C294.947 244.611 295.981 245.215 298.135 245.387C301.668 245.646 303.65 244.87 303.047 240.815C302.875 239.262 303.133 237.622 303.047 236.069ZM288.398 236.587C288.398 234.43 288.311 232.273 288.398 230.116C288.57 227.01 286.588 227.097 284.434 227.097C282.365 227.097 280.297 226.752 280.383 229.944C280.47 234.085 280.47 238.313 280.383 242.454C280.383 244.525 281.245 245.128 283.227 245.301C286.933 245.646 289.087 244.697 288.398 240.47C288.225 239.262 288.398 237.881 288.398 236.587Z" fill="#E7EEF9"/>
</g>
</svg>
