<svg width="395" height="236" viewBox="0 0 395 236" fill="none" xmlns="http://www.w3.org/2000/svg">
<mask id="mask0_15_882" style="mask-type:alpha" maskUnits="userSpaceOnUse" x="0" y="0" width="395" height="236">
<rect width="395" height="236" rx="10" fill="white"/>
</mask>
<g mask="url(#mask0_15_882)">
<path d="M208.961 236.612C208.961 229.322 208.914 222.031 208.914 214.694C209.385 204.299 208.914 193.857 209.479 183.462C210.137 171.091 210.702 158.627 212.818 146.35C213.759 141.035 214.935 135.814 216.017 130.546C216.158 130.405 216.299 130.217 216.393 130.076C217.146 131.487 218.133 131.393 219.262 130.546C221.285 138.918 222.837 147.338 224.389 155.851C225.471 151.148 226.412 146.538 227.117 141.882C227.729 138.119 228.999 134.45 229.14 130.593C229.328 130.029 229.704 129.793 230.034 130.405C230.645 131.534 231.586 131.346 232.573 131.158C234.549 137.272 234.878 143.81 237.089 149.831C237.418 149.549 237.559 149.36 237.559 149.125C238.03 141.082 238.547 133.039 238.876 124.996C238.97 122.362 239.817 119.728 239.3 117.047C239.347 115.965 239.394 114.836 239.441 113.754C240.052 111.12 240.523 108.486 240.193 105.758C240.24 104.488 240.287 103.265 240.381 101.995C241.181 100.02 241.557 97.9971 241.134 95.8805C241.416 94.9868 241.463 94.0461 241.275 93.1053C242.686 89.9539 242.263 86.5203 242.686 83.2278C244.38 70.8102 245.838 58.3927 247.343 45.9282C247.39 45.6459 247.202 45.3637 247.108 45.0345C247.296 44.7052 247.672 44.6112 247.86 44.8463C248.989 46.3985 249.789 46.4456 250.588 44.5171C250.776 44.0467 251.2 44.5171 251.294 44.9404C251.482 48.7033 251.858 52.4662 252.376 56.2291C253.175 62.2497 253.834 68.3173 254.68 74.3379C255.48 79.9823 256.186 85.6266 256.656 91.318C257.173 97.5267 257.832 103.735 258.443 109.944C258.49 110.462 258.584 110.932 258.773 112.061C260.278 107.922 259.901 104.206 259.995 100.631C260.09 96.7271 260.701 92.9172 260.889 89.0602C261.312 81.7226 262.206 74.432 263.006 67.1414C263.899 59.2864 264.934 51.4784 265.875 43.6704C267.004 34.5454 268.462 25.4204 269.073 16.2484C269.12 15.4958 269.685 14.7903 269.215 13.9907C269.45 13.144 269.732 12.1092 270.485 13.6144C271.143 14.8373 272.131 14.8373 272.554 13.9436C273.354 12.2503 274.059 13.6144 274.812 13.7085C273.777 14.1788 273.965 14.9784 274.059 15.8721C275.282 26.0319 276.27 36.1917 277.728 46.3045C279.374 57.7342 280.597 69.258 281.773 80.7348C282.479 87.5551 282.808 94.4223 283.278 101.29C283.325 102.136 283.231 103.03 283.608 103.83C283.702 107.028 283.749 110.226 283.89 113.378C283.937 114.13 284.078 115.259 284.972 115.212C286.759 115.071 288.593 114.883 290.193 114.177C291.227 113.754 289.957 112.531 290.146 111.638C290.24 111.026 290.569 110.368 290.569 109.85C290.522 108.11 292.403 106.464 290.71 104.723C290.945 103.924 290.898 103.171 290.334 102.513C289.957 102.089 289.769 101.572 289.91 101.007C290.757 97.7619 291.18 94.4694 290.851 91.1298C290.804 90.6124 290.992 90.001 291.463 89.9539C293.72 89.7658 294.003 87.9784 294.52 86.3321C294.661 85.8147 294.802 85.1562 295.461 85.1562C296.166 85.1562 296.119 85.8618 296.354 86.3321C297.013 87.8843 296.919 90.0009 299.365 90.2361C299.835 90.2832 300.164 90.8946 299.835 91.365C299.224 92.2116 299.929 93.0113 299.882 93.6227C299.647 95.4571 300.023 97.2915 300.399 98.7967C301.105 101.337 299.459 103.218 299.506 105.429C299.553 106.652 299.741 108.016 300.023 109.004C300.494 110.462 300.211 111.92 300.541 113.143C301.105 115.212 303.692 114.036 305.338 114.695C306.561 115.212 306.749 114.177 306.796 113.237C306.937 110.415 306.984 107.639 307.22 104.817C307.925 95.269 308.631 85.6736 309.619 76.1253C309.666 75.6079 309.571 75.0435 309.571 74.479C309.619 74.0087 309.666 73.5854 309.713 73.115C310.136 72.6917 310.136 72.1743 309.995 71.6569C310.23 69.3051 310.465 67.0003 310.653 64.6485C310.983 64.3663 311.03 64.037 310.888 63.6608C311.077 61.6382 311.312 59.6157 311.5 57.5461C312.582 53.1717 312.723 48.6563 313.334 44.1878C314.416 36.3328 315.31 28.4307 316.392 20.5757C316.721 18.2239 316.533 15.9192 316.721 13.5674C317.144 13.3322 317.427 12.1092 318.085 13.3792C318.744 14.6492 319.543 14.6492 320.343 13.5203C320.672 13.05 320.954 12.8618 321.33 13.4733C322.083 22.0809 323.212 30.6414 324.435 39.202C324.905 42.5886 325.234 46.0222 325.611 49.4088C325.705 50.0673 325.47 50.867 326.175 51.3373C326.269 52.1369 326.363 52.9365 326.457 53.7832C326.034 54.2535 326.081 54.7239 326.552 55.1472C326.599 55.4765 326.599 55.7587 326.646 56.088C326.504 56.9346 326.269 57.7812 327.069 58.3927C326.975 59.3334 326.928 60.3212 327.304 61.2619C326.928 63.1904 327.257 65.0718 328.01 66.8592C328.104 67.7999 328.198 68.7877 328.292 69.7284C327.727 70.6221 328.01 71.5628 328.198 72.4565C329.138 77.6775 329.28 82.9926 329.797 88.2606C330.597 96.0686 330.644 103.971 331.82 111.92C332.384 110.415 332.384 109.051 332.478 107.639C332.995 102.136 333.701 96.633 334.124 91.1298C334.548 85.3914 335.771 79.7471 335.865 73.9617C336.288 73.068 336.241 72.0802 336.147 71.1395C336.711 70.7632 336.711 70.2928 336.429 69.7284C336.523 69.2581 336.57 68.7877 336.664 68.3173C337.088 68.0351 337.135 67.7529 336.758 67.4236C336.899 66.2948 337.041 65.213 337.182 64.0841C337.746 63.7078 337.699 63.1904 337.417 62.673C337.84 61.0738 337.793 59.3805 337.84 57.7342C337.934 57.499 338.028 57.3109 338.122 57.0757C338.405 54.3947 338.734 51.7606 339.016 49.0796C338.875 47.6685 340.051 46.2104 338.64 44.8934C339.298 44.7523 339.957 43.153 340.662 45.0345C341.039 46.0693 341.932 46.0693 342.591 45.0815C342.92 44.6582 343.202 44.0467 343.814 44.7993C343.908 46.8689 343.532 48.9385 344.237 50.961C344.284 51.2903 344.284 51.5725 344.331 51.9017C344.284 52.8895 344.049 53.8773 344.754 54.7239C344.849 55.8057 344.943 56.8876 345.037 57.9694C344.707 59.7568 345.131 61.4971 345.789 63.1434C345.836 63.7548 345.883 64.4133 345.93 65.0248C345.601 66.6711 345.883 68.2703 346.683 69.7284C346.73 70.1988 346.777 70.6691 346.824 71.1395C346.542 74.2909 347.436 77.3482 347.765 80.4526C348.611 88.0725 349.364 95.6453 350.117 103.265C351.104 113.378 351.716 123.491 352.327 133.65C352.609 138.824 352.751 143.951 352.892 149.125C352.939 150.207 352.892 151.336 353.55 152.512C355.055 144.986 356.513 137.648 357.925 130.311C358.019 129.888 358.489 129.511 358.63 129.935C359.147 131.299 360.135 130.922 361.123 130.875C362.722 135.861 363.569 141.035 364.557 146.115C365.121 148.937 365.262 151.806 366.25 155.005C367.097 153.406 367.003 151.994 367.285 150.724C368.696 144.092 369.542 137.366 371.518 130.828C372.882 131.722 373.729 130.123 374.905 130.123C375.422 135.391 377.115 140.424 377.915 145.645C379.185 153.829 380.173 162.013 380.549 170.292C380.737 174.713 381.49 179.181 381.301 183.603C381.066 188.306 381.819 192.963 381.678 197.619C381.678 198.278 381.678 198.936 381.725 199.642C381.725 200.724 381.725 201.853 381.725 202.935C382.007 214.035 381.772 225.183 381.584 236.283C378.903 236.283 376.175 236.283 373.493 236.236C373.07 233.602 372.035 231.156 371.001 228.71C368.555 222.925 364.839 218.08 359.759 214.364C359.383 214.082 359.053 213.706 358.536 213.894C358.207 214.035 358.113 214.364 358.301 214.647C359.336 216.246 359.524 218.315 360.747 219.82C360.888 220.573 360.982 221.279 361.358 222.031C363.616 226.641 365.686 231.344 367.473 236.189C366.062 236.471 364.604 236.424 363.146 236.283C363.099 235.107 363.099 233.978 362.581 232.849C357.925 222.737 351.998 213.329 345.93 204.063C345.225 203.029 344.754 201.665 343.484 201.053C339.533 199.125 335.347 198.984 331.114 199.36C329.844 199.454 328.997 200.065 330.032 201.476C330.361 201.994 330.55 202.652 331.161 202.935C331.02 203.687 331.396 204.299 331.678 204.957C333.842 210.084 336.1 215.164 338.263 220.244C340.521 225.559 343.155 230.733 344.99 236.189C336.946 237.13 328.95 236.848 320.907 236.471C321.189 236.377 321.519 236.33 321.801 236.236C326.834 236.236 331.82 236.236 336.852 236.236C339.298 236.236 339.628 235.813 338.922 233.461C337.464 228.475 335.253 223.819 332.807 219.303C327.963 210.272 322.412 201.665 316.157 193.574C310.606 186.425 305.197 179.134 297.624 173.819C294.473 171.609 293.532 171.467 290.522 173.866C285.019 178.194 279.468 182.521 274.906 187.977C271.943 191.505 269.026 195.032 266.486 198.889C262.347 205.098 258.678 211.542 255.668 218.315C253.081 224.148 250.306 229.98 248.942 236.283C246.731 236.283 244.521 236.236 242.357 236.236C245.555 228.757 248.801 221.279 251.952 213.753C253.457 210.131 255.48 206.744 256.374 202.935C257.361 202.135 257.973 200.865 257.597 199.877C257.173 198.654 255.668 199.266 254.633 199.219C251.952 199.031 249.365 199.595 246.778 200.112C244.568 200.583 243.062 201.759 241.84 203.64C237.794 209.661 234.032 215.822 230.41 222.078C227.729 226.876 225.236 231.485 223.966 236.612C222.649 236.706 221.332 236.848 220.015 236.377C221.802 230.827 224.624 225.7 226.694 220.244C227.305 218.268 228.716 216.481 228.952 213.8C225.941 215.822 223.637 217.892 221.708 220.338C217.945 225.183 214.982 230.404 214.088 236.659C212.395 236.659 210.655 236.612 208.961 236.612ZM321.33 156.98C321.33 152.653 321.283 148.373 321.33 144.045C321.33 142.634 320.672 142.023 319.449 141.835C318.085 141.6 317.238 142.352 316.768 143.528C316.627 143.951 316.674 144.469 316.674 144.939C316.674 153.076 316.674 161.214 316.674 169.351C316.674 170.997 317.097 172.126 318.979 172.126C320.86 172.126 321.378 171.044 321.378 169.398C321.331 165.306 321.33 161.167 321.33 156.98ZM269.591 156.651C269.591 160.79 269.591 164.929 269.591 169.069C269.591 170.715 269.732 172.173 271.849 172.126C273.918 172.079 274.341 170.809 274.294 168.974C274.247 161.402 274.294 153.829 274.247 146.209C274.247 145.504 274.153 144.798 274.106 144.092C273.918 142.446 272.977 141.882 271.331 142.023C269.638 142.117 269.544 143.199 269.544 144.469C269.591 148.561 269.591 152.606 269.591 156.651ZM247.014 176.265C247.014 173.349 247.014 170.48 247.014 167.563C247.014 166.199 246.684 164.882 245.085 164.882C243.486 164.882 242.827 166.011 242.874 167.563C242.921 173.302 242.874 178.993 242.874 184.732C242.874 186.19 243.392 187.224 244.991 187.224C246.637 187.224 247.061 186.143 247.061 184.685C247.014 181.862 247.014 179.04 247.014 176.265ZM338.781 166.576C338.781 163.518 338.781 160.461 338.781 157.451C338.781 156.369 338.687 155.334 337.229 155.334C335.771 155.287 335.065 156.04 335.018 157.498C335.018 159.144 335.018 160.79 335.018 162.436C335.018 166.717 335.018 171.044 335.018 175.324C335.018 176.735 335.676 177.817 337.229 177.77C338.687 177.676 338.734 176.5 338.734 175.324C338.734 172.361 338.781 169.445 338.781 166.576ZM255.527 166.435C255.527 163.565 255.527 160.649 255.527 157.78C255.527 156.557 255.621 155.334 253.881 155.287C252.282 155.287 251.858 156.416 251.858 157.639C251.811 163.565 251.811 169.492 251.858 175.465C251.858 176.641 252.423 177.723 253.787 177.629C255.057 177.535 255.621 176.688 255.574 175.371C255.48 172.361 255.527 169.398 255.527 166.435ZM347.718 176.265C347.718 173.161 347.718 170.009 347.718 166.905C347.718 165.635 347.059 165.07 345.836 165.118C344.754 165.118 344.002 165.494 344.002 166.717C344.002 172.878 343.955 179.087 344.002 185.249C344.002 186.519 344.754 187.224 346.119 187.272C347.483 187.272 347.765 186.378 347.765 185.249C347.718 182.239 347.718 179.275 347.718 176.265ZM306.232 125.842C306.279 121.75 305.009 120.339 301.481 120.104C300.729 120.057 300.164 120.198 300.211 121.045C300.635 125.842 300.211 130.828 304.021 134.685C304.398 135.062 304.727 135.626 305.338 135.344C305.95 135.061 305.809 134.403 305.809 133.886C305.856 130.969 305.997 128.053 306.232 125.842ZM290.663 121.844C290.569 121.374 290.992 120.527 290.146 120.151C288.735 119.493 284.642 121.985 284.689 123.538C284.783 126.877 284.407 130.264 285.066 133.603C285.16 134.168 284.783 135.014 285.536 135.25C286.336 135.485 286.665 134.591 287.135 134.121C290.381 130.687 290.052 126.219 290.663 121.844ZM290.804 153.123C290.804 150.301 290.757 147.479 290.851 144.657C290.898 143.011 290.569 142.023 288.546 142.023C286.477 141.976 286.383 143.152 286.571 144.563C287.37 150.677 288.17 156.745 288.97 162.86C289.064 163.424 289.252 164.036 289.957 163.942C290.757 163.848 290.804 163.142 290.804 162.484C290.804 159.379 290.804 156.228 290.804 153.123ZM304.398 144.422C304.68 142.775 304.162 141.976 302.328 141.976C300.494 141.976 300.117 142.728 300.117 144.375C300.211 148.843 300.117 153.264 300.164 157.733C300.164 159.426 299.459 161.119 300.117 162.813C300.258 163.236 300.117 163.848 300.729 163.895C301.34 163.942 301.763 163.424 301.858 162.907C302.093 161.778 302.14 160.602 302.281 159.426C302.986 154.44 303.692 149.455 304.398 144.422ZM372.129 206.509C372.129 210.743 372.129 214.976 372.129 219.209C372.129 220.009 372.176 220.902 373.211 220.949C374.246 220.996 374.434 220.15 374.434 219.35C374.434 210.978 374.434 202.605 374.434 194.186C374.434 193.245 374.199 192.398 373.023 192.493C371.847 192.587 372.082 193.574 372.082 194.28C372.129 198.372 372.129 202.464 372.129 206.509ZM216.487 206.791C216.487 210.837 216.487 214.929 216.487 218.974C216.487 219.82 216.393 220.902 217.569 220.949C218.933 220.996 218.839 219.82 218.839 218.88C218.839 210.743 218.839 202.605 218.839 194.515C218.839 193.668 218.933 192.587 217.757 192.54C216.393 192.493 216.487 193.668 216.487 194.609C216.44 198.654 216.487 202.699 216.487 206.791ZM229.657 188.636C229.657 191.599 229.657 194.562 229.657 197.572C229.657 198.56 229.469 199.83 230.974 199.83C232.385 199.83 232.385 198.56 232.385 197.572C232.432 191.458 232.385 185.39 232.385 179.275C232.385 178.147 232.103 177.065 230.833 177.065C229.61 177.112 229.657 178.335 229.657 179.275C229.657 182.38 229.657 185.531 229.657 188.636ZM360.888 188.4C360.888 185.202 360.888 181.956 360.888 178.758C360.888 178.052 360.935 177.159 359.994 177.112C359.053 177.065 358.63 177.864 358.583 178.664C358.536 180.169 358.536 181.627 358.536 183.132C358.536 187.977 358.536 192.822 358.536 197.714C358.536 198.654 358.63 199.783 359.9 199.783C361.217 199.783 360.841 198.56 360.841 197.808C360.935 194.703 360.888 191.552 360.888 188.4ZM319.12 55.5235C321.33 55.5235 321.801 55.4765 322.271 54.818C322.977 53.7832 322.977 52.7484 322.036 51.8547C321.283 51.1021 317.238 51.1021 316.439 51.8547C315.498 52.7484 315.451 53.7832 316.157 54.7709C316.956 55.8057 318.179 55.4294 319.12 55.5235ZM271.425 55.1002C271.99 55.1002 272.366 55.1002 272.789 55.1002C274.012 55.1943 274.906 54.9591 274.906 53.4069C274.859 51.9017 274.247 51.2432 272.789 51.3373C271.849 51.3843 270.908 51.3843 269.967 51.3373C268.885 51.3373 268.415 51.9958 268.321 52.9365C267.945 55.7587 270.108 54.9121 271.425 55.1002ZM311.5 135.061C313.005 135.203 313.805 134.732 313.852 133.039C313.899 131.252 313.052 130.781 311.453 130.781C309.76 130.781 309.101 131.393 309.101 133.086C309.148 134.826 310.042 135.203 311.5 135.061ZM326.41 123.726C327.821 123.82 328.856 123.632 328.903 121.797C328.95 120.104 328.339 119.351 326.599 119.446C325.187 119.493 324.106 119.681 324.2 121.468C324.294 122.926 324.717 123.914 326.41 123.726ZM311.97 119.493C310.512 119.351 309.524 119.728 309.619 121.468C309.666 122.879 310.136 123.773 311.782 123.773C313.428 123.773 314.228 123.208 314.275 121.515C314.322 119.869 313.475 119.351 311.97 119.493ZM321.33 121.515C321.566 119.869 320.578 119.493 319.073 119.446C317.474 119.398 316.721 120.057 316.721 121.609C316.721 123.161 317.521 123.773 319.12 123.773C320.625 123.726 321.519 123.302 321.33 121.515ZM318.979 135.061C320.249 135.203 321.331 135.014 321.378 133.18C321.425 131.581 320.954 130.734 319.167 130.734C317.662 130.734 316.768 131.158 316.721 132.757C316.674 134.215 317.191 135.203 318.979 135.061ZM279.374 130.828C277.963 130.593 277.117 131.11 277.07 132.804C277.023 134.544 277.775 135.109 279.421 135.109C280.974 135.109 281.773 134.497 281.773 132.945C281.82 131.393 281.115 130.593 279.374 130.828ZM312.206 112.437C313.805 112.437 314.698 111.873 314.745 110.273C314.792 108.815 314.228 107.875 312.629 107.781C310.936 107.687 310.183 108.768 310.183 110.226C310.183 111.543 310.841 112.484 312.206 112.437ZM321.33 110.321C321.283 108.674 320.672 107.828 319.214 107.828C317.662 107.828 316.627 108.627 316.674 110.226C316.721 111.59 317.615 112.437 318.932 112.39C320.39 112.343 321.425 111.732 321.33 110.321ZM278.622 112.437C279.515 112.39 280.409 111.826 280.456 110.368C280.503 108.956 280.08 107.875 278.481 107.828C277.023 107.781 276.176 108.345 276.176 109.991C276.129 111.449 276.599 112.343 278.622 112.437ZM266.816 110.179C266.957 108.768 266.628 107.734 264.887 107.781C263.241 107.828 262.724 108.815 262.629 110.132C262.535 111.496 263.194 112.39 264.652 112.39C266.063 112.437 267.004 111.826 266.816 110.179ZM276.834 85.2033C275.282 85.2033 274.436 85.8147 274.389 87.2258C274.341 88.731 275.047 89.4836 276.646 89.4365C278.057 89.4365 278.998 88.9662 278.951 87.508C278.904 86.144 278.292 85.1092 276.834 85.2033ZM341.509 81.8637C342.826 81.7696 344.425 82.24 344.378 80.1234C344.331 78.336 342.92 78.5712 341.791 78.6182C340.521 78.6182 338.875 78.336 338.828 80.3115C338.781 82.24 340.38 81.7696 341.509 81.8637ZM327.963 110.038C328.151 108.533 327.445 107.734 325.987 107.828C324.764 107.875 323.635 108.392 323.729 109.897C323.823 111.214 324.2 112.39 325.846 112.39C327.445 112.39 328.151 111.638 327.963 110.038ZM263.711 135.061C265.169 135.203 265.875 134.638 265.875 133.086C265.875 131.534 265.452 130.781 263.758 130.781C262.112 130.781 261.548 131.487 261.595 133.039C261.595 134.544 262.206 135.203 263.711 135.061ZM273.871 133.133C274.012 131.675 273.589 130.734 271.849 130.781C270.485 130.781 269.591 131.11 269.591 132.71C269.591 133.98 269.685 135.061 271.378 135.061C272.742 135.061 273.965 135.014 273.871 133.133ZM329.327 132.804C329.562 131.158 328.574 130.781 327.069 130.781C325.517 130.781 325.046 131.534 325.046 132.945C325.046 134.403 325.611 135.061 327.116 135.109C328.668 135.109 329.515 134.544 329.327 132.804ZM271.802 123.726C273.542 123.914 273.871 122.926 273.871 121.421C273.871 119.822 273.024 119.493 271.66 119.446C269.967 119.398 269.544 120.292 269.591 121.797C269.591 123.35 270.39 123.867 271.802 123.726ZM266.345 121.609C266.533 119.963 265.687 119.446 264.135 119.446C262.629 119.446 262.018 120.057 262.065 121.562C262.112 123.02 262.724 123.82 264.323 123.773C265.875 123.726 266.486 123.067 266.345 121.609ZM273.871 110.321C273.871 108.768 273.307 107.781 271.849 107.828C270.485 107.875 269.544 108.58 269.591 110.179C269.638 111.732 270.579 112.296 271.849 112.296C273.119 112.296 274.153 111.779 273.871 110.321ZM323.729 85.1562C323.024 85.1092 322.318 85.5796 322.271 87.0377C322.224 88.4488 322.459 89.4836 324.247 89.4365C325.564 89.4365 326.551 89.2013 326.504 87.6021C326.504 86.097 325.893 85.2503 323.729 85.1562ZM278.904 119.493C277.493 119.351 276.599 119.822 276.646 121.421C276.693 122.926 277.352 123.726 278.904 123.773C280.456 123.82 280.927 123.067 280.927 121.609C280.974 120.151 280.456 119.351 278.904 119.493ZM327.445 98.8437C327.586 97.2915 326.599 96.586 325.329 96.633C324.2 96.633 322.883 96.9623 322.977 98.5615C323.071 99.8785 323.447 100.913 325.234 100.772C326.552 100.631 327.539 100.443 327.445 98.8437ZM318.649 100.725C320.39 100.678 321.33 100.067 321.283 98.4674C321.236 97.0564 320.249 96.539 319.073 96.586C317.897 96.633 316.627 97.1034 316.721 98.6086C316.862 99.8785 317.285 101.007 318.649 100.725ZM266.628 89.3895C268.18 89.5776 268.603 88.5428 268.603 87.2258C268.603 85.7677 267.756 85.1092 266.392 85.2033C264.981 85.2503 264.37 86.0029 264.417 87.461C264.417 89.0132 265.169 89.5306 266.628 89.3895ZM249.271 81.8637C250.024 81.5345 251.764 82.5693 251.764 80.4056C251.764 78.5712 250.353 78.6653 249.083 78.6182C247.907 78.5712 246.59 78.383 246.59 80.2174C246.543 81.9107 247.813 81.9107 249.271 81.8637ZM315.169 78.1008C316.815 78.1479 317.474 77.1601 317.427 75.8901C317.379 74.5731 316.533 73.8205 315.075 73.9146C313.711 74.0087 313.005 74.7613 313.099 75.9842C313.24 77.2071 313.664 78.336 315.169 78.1008ZM316.204 87.3669C316.392 85.8618 315.545 85.2503 314.181 85.2033C312.77 85.1562 311.97 85.8618 312.017 87.3199C312.017 88.6839 312.629 89.4365 314.134 89.4365C315.545 89.4365 316.345 88.9191 316.204 87.3669ZM277.681 100.678C279.092 100.913 279.845 100.208 279.845 98.7497C279.845 97.2445 278.904 96.8212 277.493 96.8682C276.317 96.9153 275.235 96.9623 275.235 98.5615C275.282 100.067 275.988 100.913 277.681 100.678ZM277.587 75.9842C277.728 74.385 276.74 73.9146 275.423 73.9617C274.106 73.9617 273.401 74.7142 273.401 76.0312C273.401 77.5834 274.389 78.1949 275.847 78.1479C277.352 78.1008 277.681 77.2071 277.587 75.9842ZM269.638 75.5609C269.779 74.479 268.885 73.9617 267.662 73.9146C266.251 73.8676 265.452 74.6202 265.452 76.0312C265.452 77.3483 266.204 78.0068 267.521 78.1008C269.073 78.2419 269.544 77.3012 269.638 75.5609ZM321.895 66.8122C323.259 66.8122 324.059 66.2007 324.153 64.8837C324.247 63.4256 323.494 62.673 322.083 62.673C320.766 62.673 320.013 63.3785 320.013 64.6955C319.966 65.9655 320.672 66.6711 321.895 66.8122ZM316.439 66.8122C317.615 66.7181 318.461 66.2007 318.508 64.8367C318.555 63.4256 317.85 62.626 316.392 62.626C315.075 62.626 314.369 63.3785 314.369 64.6955C314.322 66.0126 315.028 66.6711 316.439 66.8122ZM315.263 98.8908C315.451 97.5267 314.981 96.8682 313.523 96.8682C312.017 96.8682 311.124 97.2915 311.077 98.8908C311.03 100.349 311.876 100.725 313.146 100.725C314.416 100.772 315.498 100.631 315.263 98.8908ZM273.871 98.6556C274.059 97.1975 273.213 96.8682 271.896 96.9152C270.579 96.9152 269.591 97.1504 269.591 98.7967C269.591 100.349 270.343 100.819 271.754 100.819C273.213 100.725 273.965 100.208 273.871 98.6556ZM323.165 73.9146C321.472 73.8676 321.33 74.9494 321.33 76.2194C321.33 77.5834 321.989 78.1479 323.353 78.1008C324.999 78.1008 325.187 77.066 325.14 75.7961C325.14 74.432 324.482 73.8205 323.165 73.9146ZM266.769 64.6485C266.628 65.9655 267.286 66.7181 268.603 66.7651C269.967 66.8122 270.908 66.0596 270.861 64.6485C270.814 63.4726 270.202 62.5319 268.791 62.626C267.568 62.72 266.675 63.1434 266.769 64.6485ZM267.709 98.7967C267.85 97.4326 267.098 96.9152 265.734 96.9152C264.417 96.9152 263.429 97.1504 263.429 98.7967C263.429 100.208 264.041 100.772 265.405 100.772C266.816 100.725 267.85 100.49 267.709 98.7967ZM276.223 64.6485C276.317 63.3315 275.847 62.5319 274.389 62.626C273.119 62.72 272.366 63.2845 272.46 64.6955C272.554 65.9655 273.166 66.7181 274.483 66.7651C275.988 66.8592 276.27 65.9185 276.223 64.6485ZM317.568 42.2123C317.474 43.4353 318.085 44.1878 319.261 44.0938C320.39 43.9997 321.378 43.4823 321.283 42.0712C321.236 40.8012 320.531 40.0957 319.261 40.0487C317.803 40.0016 317.474 40.9423 317.568 42.2123ZM350.493 155.334C350.399 154.064 349.787 153.123 348.517 153.076C347.247 152.982 346.448 153.829 346.401 155.052C346.354 156.275 347.247 156.839 348.376 156.933C349.505 157.027 350.305 156.51 350.493 155.334ZM241.887 126.971C241.793 128.147 242.263 128.9 243.58 128.853C244.756 128.806 245.461 128.194 245.602 127.018C245.697 125.748 245.085 125.184 243.815 125.137C242.545 125.137 241.84 125.607 241.887 126.971ZM346.26 145.645C346.213 146.773 346.448 147.667 347.812 147.667C349.082 147.667 349.881 147.103 349.975 145.786C350.07 144.516 349.458 143.951 348.188 143.951C347.059 143.951 346.26 144.328 346.26 145.645ZM273.354 41.8831C273.401 40.6601 272.883 40.0016 271.566 40.0487C270.249 40.0957 269.591 40.8483 269.591 42.1653C269.591 43.5293 270.437 43.8115 271.566 43.8115C272.93 43.8115 273.448 43.153 273.354 41.8831ZM343.39 146.256C343.437 144.281 342.591 143.951 341.462 143.951C340.145 143.951 339.675 144.61 339.675 145.833C339.675 147.15 340.474 147.62 341.603 147.62C342.826 147.62 343.39 146.82 343.39 146.256ZM242.78 143.998C241.557 143.951 240.852 144.469 240.899 145.739C240.946 146.915 241.604 147.62 242.78 147.667C243.956 147.667 244.568 146.915 244.662 145.739C244.709 144.422 244.003 143.904 242.78 143.998ZM249.412 143.951C248.189 143.904 247.484 144.375 247.531 145.692C247.578 146.868 248.142 147.62 249.365 147.62C250.541 147.62 251.2 146.915 251.247 145.739C251.341 144.469 250.635 143.904 249.412 143.951ZM349.552 136.284C349.505 134.967 348.8 134.591 347.718 134.591C346.495 134.591 345.742 135.061 345.836 136.378C345.93 137.554 346.589 138.307 347.765 138.26C349.035 138.166 349.505 137.319 349.552 136.284ZM341.697 134.591C340.615 134.544 339.816 134.779 339.769 136.049C339.722 137.366 340.286 138.213 341.65 138.26C342.873 138.26 343.437 137.46 343.484 136.284C343.437 135.061 342.826 134.544 341.697 134.591ZM249.412 134.544C248.331 134.497 247.531 134.826 247.531 136.096C247.531 137.413 248.095 138.26 249.459 138.213C250.682 138.166 251.2 137.319 251.247 136.143C251.247 134.967 250.541 134.544 249.412 134.544ZM347.153 125.184C346.118 125.137 345.413 125.56 345.366 126.783C345.366 127.959 345.93 128.806 347.106 128.853C348.47 128.9 349.035 128.053 349.035 126.736C349.082 125.466 348.282 125.137 347.153 125.184ZM339.722 127.018C339.675 128.1 340.051 128.853 341.274 128.853C342.45 128.853 343.296 128.335 343.343 127.112C343.39 125.795 342.544 125.137 341.274 125.137C340.051 125.184 339.675 125.936 339.722 127.018ZM251.247 126.642C251.153 125.466 250.212 125.184 249.13 125.184C247.954 125.137 247.437 125.842 247.531 126.971C247.625 128.147 248.236 128.9 249.459 128.853C250.682 128.806 251.2 127.959 251.247 126.642ZM343.437 117.752C343.343 116.529 342.732 115.871 341.556 115.777C340.474 115.683 339.816 116.153 339.722 117.329C339.628 118.552 340.145 119.304 341.321 119.398C342.497 119.54 343.202 118.881 343.437 117.752ZM255.95 117.658C256.091 116.435 255.339 115.918 254.304 115.824C253.128 115.73 252.423 116.388 252.282 117.564C252.14 118.599 252.47 119.398 253.74 119.446C255.01 119.493 255.762 118.928 255.95 117.658ZM337.323 136.331C337.37 135.203 336.852 134.544 335.676 134.544C334.501 134.544 333.654 135.062 333.701 136.331C333.748 137.366 334.312 138.26 335.582 138.26C336.993 138.307 337.417 137.554 337.323 136.331ZM242.404 153.359C241.181 153.311 240.428 153.735 240.476 155.052C240.523 156.087 240.946 156.98 242.075 156.886C243.157 156.792 244.285 156.51 244.191 154.958C244.144 153.829 243.533 153.311 242.404 153.359ZM249.506 115.777C248.095 115.73 247.531 116.294 247.531 117.47C247.578 118.646 248.189 119.398 249.412 119.398C250.494 119.398 251.2 118.74 251.2 117.658C251.2 116.435 250.4 115.871 249.506 115.777ZM256.938 136.331C256.985 135.297 256.562 134.591 255.386 134.544C254.116 134.497 253.457 135.25 253.41 136.331C253.363 137.413 253.975 138.213 255.245 138.26C256.515 138.307 256.985 137.601 256.938 136.331ZM337.793 127.065C337.84 125.842 337.37 125.137 336.053 125.184C334.877 125.231 334.501 125.889 334.454 126.971C334.454 128.194 334.877 128.9 336.194 128.853C337.417 128.853 337.84 128.147 337.793 127.065ZM348.141 117.799C348.188 116.67 347.906 115.777 346.542 115.777C345.366 115.777 344.896 116.341 344.849 117.517C344.801 118.787 345.46 119.398 346.636 119.446C347.765 119.493 348.141 118.787 348.141 117.799ZM338.311 117.564C338.311 116.435 337.84 115.777 336.664 115.777C335.3 115.777 334.971 116.576 335.018 117.752C335.018 118.975 335.818 119.351 336.852 119.398C338.075 119.446 338.358 118.599 338.311 117.564ZM244.709 136.473C244.756 135.391 244.427 134.638 243.204 134.591C241.887 134.544 241.416 135.203 241.416 136.473C241.416 137.696 242.075 138.166 243.11 138.26C244.332 138.354 244.756 137.554 244.709 136.473ZM254.68 125.184C253.269 125.231 253.081 126.172 253.128 127.301C253.175 128.335 253.646 128.947 254.727 128.853C255.903 128.759 256.562 128.147 256.468 126.877C256.374 125.701 255.856 125.137 254.68 125.184ZM346.024 110.038C347.106 109.803 347.718 109.145 347.624 108.11C347.53 107.028 346.871 106.417 345.742 106.464C344.66 106.511 344.002 107.169 344.002 108.251C344.002 109.521 345.037 109.756 346.024 110.038ZM255.01 108.204C255.01 107.122 254.68 106.322 253.457 106.417C252.423 106.511 251.717 106.981 251.717 108.157C251.717 109.38 252.14 110.085 253.457 110.038C254.727 110.038 255.057 109.286 255.01 108.204ZM244.709 106.369C243.533 106.558 243.298 107.451 243.298 108.439C243.251 109.662 243.956 110.085 245.085 110.038C246.355 109.944 246.59 109.145 246.543 108.063C246.59 106.887 245.744 106.558 244.709 106.369ZM335.959 108.204C335.912 109.286 336.288 109.991 337.511 110.038C338.734 110.085 339.157 109.286 339.204 108.251C339.251 107.169 338.593 106.464 337.558 106.369C336.241 106.322 335.912 107.169 335.959 108.204ZM340.098 98.9378C340.098 97.7619 339.439 97.4326 338.452 97.3856C337.323 97.3386 336.617 97.8089 336.523 98.8908C336.476 100.02 337.229 100.584 338.311 100.584C339.392 100.631 339.957 99.9256 340.098 98.9378ZM244.474 119.398C245.508 119.21 246.073 118.552 246.026 117.517C245.979 116.576 245.414 115.871 244.427 115.871C243.392 115.871 242.78 116.435 242.78 117.611C242.78 118.787 243.392 119.257 244.474 119.398ZM252.564 100.678C253.74 100.631 254.163 99.9256 254.069 98.8437C254.022 97.7619 253.316 97.4326 252.329 97.4326C251.294 97.4326 250.823 97.9971 250.823 99.0319C250.823 100.208 251.435 100.678 252.564 100.678ZM246.872 88.0254C245.744 87.9784 245.179 88.5899 245.179 89.7187C245.179 90.7535 245.697 91.2709 246.731 91.2709C247.86 91.2709 248.425 90.7535 248.425 89.5776C248.425 88.5428 247.907 88.0254 246.872 88.0254ZM245.838 97.4326C244.662 97.4326 244.191 98.0911 244.238 99.173C244.285 100.255 244.85 100.678 245.885 100.678C247.061 100.678 247.531 100.02 247.484 98.9378C247.437 97.856 246.872 97.4326 245.838 97.4326ZM253.128 89.5776C252.893 88.6839 252.564 87.8843 251.341 87.9784C250.259 88.0725 249.883 88.731 249.93 89.7187C249.977 90.8006 250.588 91.2239 251.576 91.2239C252.564 91.2239 253.128 90.7535 253.128 89.5776ZM341.039 89.5776C341.039 88.4488 340.427 87.9784 339.439 87.9784C338.405 87.9784 337.84 88.4017 337.84 89.4836C337.793 90.4713 338.122 91.1768 339.204 91.1768C340.286 91.2239 340.85 90.5654 341.039 89.5776ZM344.99 100.631C345.93 100.537 346.636 100.02 346.636 99.0319C346.636 98.0911 346.213 97.3856 345.084 97.3856C344.049 97.3856 343.484 97.856 343.484 98.9378C343.437 99.9726 343.861 100.584 344.99 100.631ZM344.143 91.2239C344.943 91.0357 345.695 90.6124 345.554 89.5306C345.413 88.6839 345.178 87.8843 343.955 87.9784C342.873 88.0725 342.45 88.6369 342.497 89.6717C342.544 90.7065 343.014 91.2709 344.143 91.2239Z" fill="#DCE6F8"/>
<path d="M321.378 13.8025C321.001 13.1911 320.719 13.3792 320.39 13.8496C319.59 14.9314 318.791 14.9784 318.132 13.7085C317.474 12.4385 317.191 13.7085 316.768 13.8966C315.78 14.1318 315.216 13.7085 315.122 12.7677C315.028 11.9681 314.698 11.6859 313.946 11.6389C313.005 11.5918 312.77 10.8863 313.005 10.1337C313.24 9.38114 313.287 8.81671 312.535 8.34635C312.112 8.06413 311.97 7.17045 312.112 7.17045C315.075 7.07638 311.171 3.17238 314.322 3.31349C314.416 3.31349 314.463 3.31349 314.557 3.31349C315.921 3.12535 314.416 1.14983 316.063 0.96169C316.862 0.867618 318.038 2.74906 318.508 0.585401C318.555 0.444293 318.697 0.350221 318.838 0.256149C320.39 -0.872717 320.108 2.13759 321.378 1.43205C322.836 0.632437 323.588 0.773545 323.494 2.60795C323.494 2.9372 323.447 3.31349 323.823 3.31349C326.034 3.21942 326.458 3.92496 325.093 5.71233C324.811 6.08862 325.376 6.13566 325.611 6.22973C325.893 6.37084 326.269 6.46491 326.41 6.70009C326.599 7.02934 326.552 7.40563 326.599 7.78192C324.106 7.97006 327.492 12.2503 323.871 11.6859C323.776 11.6389 323.682 11.5918 323.541 11.4978C323.588 11.5918 323.635 11.7329 323.682 11.827C323.682 13.5203 322.93 14.1318 321.378 13.8025ZM316.11 6.93527C315.968 8.91078 317.285 10.6511 319.026 10.7922C320.578 10.9333 322.224 9.52225 322.365 7.87599C322.554 5.90048 321.378 4.44236 319.59 4.20718C317.803 4.06607 316.251 5.28901 316.11 6.93527Z" fill="#DCE6F8"/>
<path d="M274.812 13.8966C274.059 13.7555 273.354 12.4385 272.554 14.1318C272.131 15.0255 271.143 15.0255 270.485 13.8025C269.732 12.2974 269.403 13.3322 269.215 14.1788C268.697 14.1788 267.945 14.414 267.756 13.8025C267.333 12.6737 267.098 11.5448 265.546 11.4507C265.122 11.4037 264.934 10.6511 265.216 10.2748C265.828 9.42818 266.063 8.76968 264.793 8.44042C264.746 8.44042 264.652 8.34635 264.605 8.29932C264.323 7.97006 264.182 7.31156 264.37 7.26452C266.863 6.88823 263.664 3.31349 266.439 3.4546C268.603 3.59571 267.004 1.85538 267.803 1.19687C268.885 0.350222 269.732 2.98424 270.485 1.1028C270.767 0.444294 271.472 -0.0731028 271.943 0.397258C272.836 1.29094 273.542 1.90241 274.812 1.19687C275.188 1.00873 275.753 1.52612 275.706 2.04352C275.611 3.21942 276.129 3.54867 277.211 3.4546C277.258 3.4546 277.399 3.50164 277.446 3.54867C277.634 3.78385 277.822 4.01903 278.01 4.25421C275.894 5.8064 280.315 7.07638 278.198 8.62857C277.822 8.91078 277.305 9.14596 277.634 9.7104C278.387 11.0744 278.01 11.7329 276.458 11.8741C275.188 11.827 276.223 13.8025 274.812 13.8966ZM274.812 7.64081C274.859 5.85344 273.542 4.34829 271.707 4.25421C270.061 4.16014 268.321 5.71233 268.227 7.40563C268.133 9.00486 269.779 10.7922 271.425 10.8863C273.024 10.9333 274.765 9.28707 274.812 7.64081Z" fill="#DCE6F8"/>
<path d="M251.294 45.0815C251.2 44.6582 250.776 44.1878 250.588 44.6582C249.789 46.5866 248.989 46.5396 247.86 44.9874C247.672 44.7052 247.296 44.7993 247.108 45.1756C245.32 46.0222 244.944 45.0344 244.944 43.5293C244.991 43.3882 245.179 43.2 245.132 43.153C244.944 42.8708 244.756 43.0119 244.568 43.2C243.11 43.106 242.169 42.7297 243.251 41.0834C243.298 41.0364 243.345 40.9893 243.392 40.8953C241.557 39.6253 242.545 38.1672 243.11 36.7091C243.157 36.615 242.921 36.4739 242.874 36.3328C242.733 35.8624 242.921 35.0158 243.157 35.1098C245.602 36.2387 244.38 31.1588 246.872 32.8521C248.66 34.075 247.907 31.4881 249.177 31.5821C250.353 31.6292 249.836 34.1691 251.435 32.8521C251.999 32.4288 252.799 32.2877 253.034 32.9462C253.457 34.075 253.74 35.0628 255.198 35.0628C255.48 35.0628 255.762 35.6743 255.574 36.0506C255.151 36.9442 254.822 37.7439 256.091 38.2142C256.139 38.2142 256.233 38.3083 256.233 38.4024C256.28 38.6846 256.327 39.0138 256.374 39.296C253.787 39.6253 257.079 43.0119 254.351 43.2C253.41 43.2471 253.552 43.9056 253.316 44.423C252.987 45.4107 252.329 45.9752 251.294 45.0815ZM249.553 35.7213C247.578 35.5802 246.214 36.8031 246.026 38.6846C245.885 40.566 246.967 41.883 248.848 41.9771C250.635 42.0712 252.235 41.6008 252.517 39.5312C252.799 37.6027 251.341 35.8624 249.553 35.7213Z" fill="#DCE6F8"/>
<path d="M343.908 45.1756C343.296 44.47 343.014 45.0345 342.685 45.4578C341.979 46.4456 341.086 46.3985 340.756 45.4108C340.098 43.5293 339.439 45.1285 338.734 45.2697C337.323 45.3637 337.464 44.423 337.464 43.4823C337.652 43.3412 337.746 43.153 337.464 43.0119C337.417 42.9649 337.229 43.106 337.135 43.2001C335.629 43.2001 334.454 42.9649 335.629 41.0834C335.865 40.7072 336.006 40.3779 335.535 40.1427C333.748 39.3431 334.124 38.5435 335.488 37.6968C335.629 37.6028 335.865 37.2735 335.818 37.1794C334.548 35.2039 335.535 34.7336 337.37 34.7806C337.417 34.7806 337.558 34.4043 337.558 34.2162C337.558 33.981 337.464 33.7458 337.511 33.5106C337.605 32.9932 338.264 32.4288 338.358 32.5699C339.957 34.9217 341.274 29.8889 342.826 32.4288C342.92 32.5699 342.92 32.711 343.014 32.8521C345.084 31.9584 345.742 33.8399 346.918 34.7336C347.294 35.0158 348.235 35.4391 348.094 35.4862C345.507 36.9443 351.292 38.7316 347.906 40.0486C347.247 40.2838 347.294 40.519 347.671 41.0364C348.847 42.6356 347.906 43.059 346.401 43.153C346.213 42.9649 346.024 42.8708 345.883 43.106C345.836 43.153 345.977 43.3412 346.024 43.4823C346.024 44.9404 345.507 45.74 343.908 45.1756ZM341.509 41.9771C343.673 42.0242 344.896 40.9423 344.943 39.0609C344.943 37.0854 343.767 35.7684 341.885 35.7213C340.051 35.6743 338.311 37.3206 338.311 39.0139C338.311 40.6131 339.769 41.9301 341.509 41.9771Z" fill="#DCE6F8"/>
<path d="M374.952 130.452C373.776 130.452 372.929 132.051 371.565 131.158C370.86 130.64 369.354 130.969 369.637 129.37C369.778 128.571 369.119 128.9 368.696 128.853C367.802 128.759 367.285 128.241 367.802 127.442C368.367 126.595 368.084 126.313 367.332 125.937C366.861 125.701 366.767 124.996 367.191 124.714C368.461 123.914 367.238 121.28 369.637 121.327C369.637 120.151 370.86 120.433 371.142 120.151C372.694 118.552 374.152 120.151 375.61 119.869C377.304 119.54 376.551 122.456 378.385 121.938C377.162 123.397 380.69 124.761 378.479 126.172C378.009 126.501 378.103 126.689 378.338 127.065C379.42 128.9 377.962 128.712 376.927 128.9L376.786 128.759L376.927 128.853C376.739 130.029 376.739 131.346 374.952 130.452ZM373.211 122.832C371.894 123.255 370.624 123.773 370.813 125.325C370.954 126.689 371.894 127.583 373.352 127.536C374.717 127.536 375.516 126.689 375.469 125.325C375.375 123.867 374.481 123.114 373.211 122.832Z" fill="#DCE6F8"/>
<path d="M361.217 131.205C360.276 131.252 359.242 131.628 358.724 130.264C358.583 129.841 358.113 130.217 358.019 130.64C356.043 130.499 354.632 128.806 354.914 126.83C355.008 126.219 354.632 126.266 354.303 126.078C353.362 125.513 353.362 124.761 354.256 124.337C355.055 123.914 354.82 123.632 354.491 123.161C354.35 122.973 354.35 122.738 354.303 122.503C355.996 122.409 355.902 119.493 357.972 120.104C358.677 120.339 358.771 120.01 358.959 119.587C359.148 119.21 359.806 118.928 359.853 119.069C360.323 120.904 363.24 119.163 363.334 121.468C365.968 121.28 364.322 124.29 365.874 124.996C366.203 125.137 365.921 125.937 365.403 126.078C364.416 126.36 364.604 126.783 365.121 127.395C365.215 127.489 365.262 127.677 365.309 127.818C365.356 128.241 365.027 128.853 364.839 128.759C362.957 127.818 363.616 132.333 361.311 130.405C361.217 130.358 361.17 130.264 361.076 130.217C361.123 130.311 361.217 130.358 361.264 130.452C361.264 130.64 361.264 130.922 361.217 131.205ZM359.994 127.536C361.217 127.206 362.299 126.501 362.205 125.09C362.158 123.726 361.17 122.738 359.759 122.832C358.489 122.926 357.595 123.82 357.548 125.137C357.548 126.595 358.489 127.348 359.994 127.536Z" fill="#DCE6F8"/>
<path d="M223.166 121.844C223.401 122.879 222.225 124.243 223.966 124.949C224.248 125.043 224.013 125.748 223.637 125.889C222.79 126.219 222.602 126.595 223.213 127.395C223.637 127.912 223.307 128.712 222.743 128.665C221.52 128.618 221.379 129.182 221.144 130.217C220.955 131.063 219.968 130.687 219.309 130.546C218.18 131.346 217.193 131.44 216.44 130.029C216.299 130.17 216.158 130.358 216.064 130.499C215.64 130.687 215.123 130.875 214.747 130.452C213.336 128.947 212.489 127.159 211.689 125.325C211.595 125.09 211.783 124.572 211.925 124.525C213.759 123.961 212.16 123.02 212.207 122.268C212.724 121.609 213.43 121.656 214.135 121.609C214.653 121.609 214.465 121.421 214.229 121.186C214.7 120.48 214.606 119.116 216.158 120.151C216.957 120.668 217.051 118.364 218.416 118.975C218.557 119.116 218.698 119.257 218.839 119.351L218.886 119.398C219.168 121.092 220.438 119.822 221.191 120.151C221.238 120.527 221.332 120.904 221.379 121.28C221.285 121.562 221.332 121.656 221.661 121.515C222.131 121.703 222.649 121.797 223.166 121.844ZM220.25 125.325C219.827 124.055 219.356 122.785 217.851 122.879C216.487 122.973 215.546 123.914 215.593 125.325C215.64 126.548 216.252 127.583 217.757 127.536C219.168 127.489 219.874 126.595 220.25 125.325Z" fill="#DCE6F8"/>
<path d="M236.76 122.315C236.619 123.114 235.443 123.961 237.042 124.619C237.512 124.855 237.418 125.701 236.854 125.936C235.866 126.313 235.913 126.689 236.478 127.395C236.619 127.583 236.525 128.241 236.525 128.241C234.596 128.382 234.596 131.157 232.621 131.157C231.633 131.346 230.692 131.534 230.081 130.405C229.751 129.793 229.375 130.029 229.187 130.593C228.529 130.828 227.823 130.828 227.682 130.029C227.541 129.229 227.447 128.665 226.459 128.759C226.318 128.759 226.177 128.665 226.036 128.618C225.706 128.382 225.283 124.478 225.612 124.243C226.835 123.444 225.095 122.55 225.753 121.797C226.224 121.75 226.741 121.656 227.211 121.609C228.011 121.374 227.494 120.857 227.4 120.48C227.494 120.386 227.588 120.292 227.682 120.198C228.387 119.728 229.798 121.562 230.081 119.493C230.222 119.351 230.363 119.163 230.504 119.022C231.774 118.411 231.868 120.292 232.856 120.198C234.22 119.728 234.173 121.562 235.255 121.562C235.631 121.656 236.054 121.703 236.431 121.797C236.384 121.985 236.478 122.08 236.666 122.08L236.76 122.315ZM233.467 125.231C233.326 124.102 232.668 122.973 231.257 122.926C229.987 122.879 228.764 123.632 228.717 125.137C228.717 126.548 229.61 127.489 231.021 127.489C232.291 127.489 233.326 126.924 233.467 125.231Z" fill="#DCE6F8"/>
<path d="M240.193 105.852C240.57 108.58 240.099 111.214 239.441 113.848C238.641 111.073 239.064 108.439 240.193 105.852Z" fill="#DCE6F8"/>
<path d="M241.087 95.9745C241.51 98.0911 241.181 100.114 240.335 102.089C239.629 99.9255 240.005 97.903 241.087 95.9745Z" fill="#DCE6F8"/>
<path d="M235.302 121.656C234.22 121.656 234.267 119.775 232.903 120.292C234.502 119.069 234.972 119.304 235.302 121.656Z" fill="#DCE6F8"/>
<path d="M230.128 119.54C229.845 121.562 228.434 119.775 227.729 120.245C228.199 118.928 229.328 119.681 230.128 119.54Z" fill="#DCE6F8"/>
<path d="M221.191 120.292C220.438 119.963 219.168 121.233 218.886 119.54C219.639 119.681 220.767 118.975 221.191 120.292Z" fill="#DCE6F8"/>
<path d="M227.447 120.527C227.541 120.951 228.058 121.421 227.259 121.656C227.306 121.28 227.4 120.904 227.447 120.527Z" fill="#DCE6F8"/>
<path d="M214.182 121.28C214.418 121.468 214.606 121.656 214.088 121.703C214.088 121.515 214.135 121.374 214.182 121.28Z" fill="#DCE6F8"/>
<path d="M221.614 121.656C221.332 121.797 221.238 121.703 221.332 121.421C221.473 121.468 221.567 121.515 221.614 121.656Z" fill="#DCE6F8"/>
<path d="M236.713 122.174C236.525 122.174 236.478 122.08 236.478 121.891C236.572 121.938 236.666 122.032 236.713 122.174Z" fill="#DCE6F8"/>
<path d="M218.792 119.446C218.651 119.304 218.51 119.163 218.369 119.069C218.51 119.21 218.651 119.304 218.792 119.446Z" fill="#DCE6F8"/>
<path d="M230.551 119.069C230.41 119.21 230.269 119.398 230.128 119.54C230.269 119.351 230.41 119.21 230.551 119.069Z" fill="#DCE6F8"/>
<path d="M321.801 236.565C321.519 236.659 321.189 236.706 320.907 236.801C303.645 236.801 286.336 236.801 269.074 236.801C268.932 236.706 268.838 236.706 268.697 236.801C268.509 236.754 268.321 236.754 268.133 236.706C268.556 235.295 268.885 233.837 269.403 232.426C273.636 220.667 278.199 209.002 283.514 197.667C286.477 191.364 289.628 185.155 293.485 179.322C294.473 177.817 295.179 177.629 296.496 178.993C298.424 180.969 300.023 183.179 301.434 185.531C306.279 193.527 309.901 202.041 313.24 210.743C316.486 219.256 319.496 227.77 321.801 236.565Z" fill="#DCE6F8"/>
<path d="M256.327 203.264C255.433 207.121 253.41 210.507 251.905 214.082C248.801 221.608 245.508 229.087 242.31 236.565C239.629 236.612 236.948 236.706 234.267 236.753C234.126 236.659 234.031 236.659 233.89 236.753C233.232 236.753 232.573 236.753 231.868 236.753C230.974 236.565 230.033 236.565 229.14 236.753C228.952 236.706 228.81 236.659 228.622 236.565C233.138 226.217 239.252 216.763 245.367 207.309C246.684 205.286 248.424 204.252 250.635 203.828C252.564 203.593 254.398 203.123 256.327 203.264Z" fill="#DCE6F8"/>
<path d="M344.99 236.518C343.155 231.015 340.474 225.888 338.264 220.573C336.1 215.446 333.889 210.366 331.679 205.286C331.396 204.628 331.02 204.016 331.161 203.264C331.726 203.311 332.243 203.311 332.808 203.358C337.041 203.781 340.757 204.722 343.061 209.002C345.601 213.753 348.941 218.08 351.575 222.784C354.115 227.252 356.89 231.627 358.489 236.612C354.256 236.659 350.023 236.753 345.837 236.8C345.601 236.659 345.272 236.612 344.99 236.518Z" fill="#DCE6F8"/>
<path d="M217.428 236.565C219.121 230.921 221.567 225.653 225.471 221.137C225.847 220.714 226.13 220.244 226.741 220.244C224.672 225.7 221.849 230.827 220.062 236.377C219.168 236.847 218.322 236.847 217.428 236.565Z" fill="#DCE6F8"/>
<path d="M360.794 220.15C365.45 224.665 368.225 230.263 369.778 236.518C369.307 236.612 368.884 236.706 368.414 236.753C368.084 236.659 367.802 236.565 367.473 236.518C365.685 231.674 363.616 226.97 361.358 222.36C361.029 221.608 360.935 220.902 360.794 220.15Z" fill="#DCE6F8"/>
<path d="M345.883 63.5196C345.225 61.8733 344.802 60.133 345.131 58.3456C346.542 59.8978 346.589 61.6382 345.883 63.5196Z" fill="#DCE6F8"/>
<path d="M346.777 70.1047C346.025 68.5995 345.695 67.0473 346.025 65.4011C347.059 66.8592 347.342 68.4114 346.777 70.1047Z" fill="#DCE6F8"/>
<path d="M344.896 55.0531C344.19 54.2065 344.425 53.2187 344.472 52.231C345.93 52.9835 345.413 54.0183 344.896 55.0531Z" fill="#DCE6F8"/>
<path d="M381.819 203.264C381.819 202.135 381.819 201.053 381.819 199.971C382.101 201.053 382.054 202.135 381.819 203.264Z" fill="#DCE6F8"/>
<path d="M327.351 61.6382C328.198 63.4256 328.809 65.26 328.057 67.2355C327.351 65.4481 327.022 63.5667 327.351 61.6382Z" fill="#DCE6F8"/>
<path d="M326.693 56.4642C327.869 57.0286 327.492 57.9223 327.116 58.769C326.363 58.1105 326.599 57.2638 326.693 56.4642Z" fill="#DCE6F8"/>
<path d="M326.505 54.1124C327.069 54.5358 327.116 55.0061 326.599 55.4765C326.128 55.1002 326.128 54.6298 326.505 54.1124Z" fill="#DCE6F8"/>
<path d="M337.276 64.4603C336.711 63.8959 336.805 63.4255 337.511 63.0493C337.793 63.5667 337.793 64.037 337.276 64.4603Z" fill="#DCE6F8"/>
<path d="M336.288 71.4688C335.817 70.9043 335.864 70.434 336.57 70.0577C336.805 70.6221 336.805 71.0925 336.288 71.4688Z" fill="#DCE6F8"/>
<path d="M309.666 73.4443C308.866 72.7858 309.007 72.3154 309.948 71.9861C310.089 72.5035 310.136 73.0209 309.666 73.4443Z" fill="#DCE6F8"/>
<path d="M336.758 68.6936C336.382 68.3644 336.429 68.0821 336.852 67.7999C337.229 68.1292 337.182 68.4114 336.758 68.6936Z" fill="#DCE6F8"/>
<path d="M310.606 64.9778C309.901 64.4604 310.183 64.1781 310.842 63.99C311.03 64.3663 310.936 64.6955 310.606 64.9778Z" fill="#DCE6F8"/>
<path d="M337.934 58.1105C338.028 57.8753 338.122 57.6872 338.217 57.452C338.122 57.6401 338.028 57.8753 337.934 58.1105Z" fill="#DCE6F8"/>
<path d="M323.588 11.9211C323.541 11.827 323.494 11.6859 323.447 11.5919C323.541 11.6389 323.635 11.6859 323.777 11.78C323.682 11.78 323.635 11.8741 323.588 11.9211Z" fill="#DCE6F8"/>
<path d="M244.568 43.2001C244.756 43.0119 244.944 42.8708 245.132 43.153C245.179 43.2001 244.991 43.3882 244.944 43.5293C244.803 43.3882 244.662 43.2941 244.568 43.2001Z" fill="#DCE6F8"/>
<path d="M346.071 43.5293C346.024 43.3882 345.883 43.2001 345.93 43.153C346.071 42.8708 346.307 43.0119 346.448 43.2001C346.307 43.2941 346.166 43.3882 346.071 43.5293Z" fill="#DCE6F8"/>
<path d="M337.182 43.153C337.276 43.106 337.464 42.9649 337.511 42.9649C337.793 43.106 337.652 43.2941 337.511 43.4352C337.417 43.3882 337.323 43.2471 337.182 43.153Z" fill="#DCE6F8"/>
<path d="M376.88 128.9L376.739 128.806L376.833 128.947L376.88 128.9Z" fill="#DCE6F8"/>
<path d="M361.311 130.358C361.264 130.264 361.17 130.217 361.123 130.123C361.217 130.17 361.264 130.264 361.311 130.358Z" fill="#DCE6F8"/>
</g>
</svg>
