<svg width="395" height="236" viewBox="0 0 395 236" fill="none" xmlns="http://www.w3.org/2000/svg">
<mask id="mask0_15_484" style="mask-type:alpha" maskUnits="userSpaceOnUse" x="0" y="0" width="395" height="236">
<path d="M0 10C0 4.47715 4.47715 0 10 0H385C390.523 0 395 4.47715 395 10V226C395 231.523 390.523 236 385 236H10C4.47716 236 0 231.523 0 226V10Z" fill="white"/>
</mask>
<g mask="url(#mask0_15_484)">
<path d="M267.458 24.143C264.954 26.2442 265.651 28.057 266.883 30.0758C268.237 32.3006 267.663 33.9073 265.323 35.1021C263.435 36.0497 261.465 36.7913 260.151 37.3269C259.371 38.9749 258.961 40.2521 258.263 41.3645C257.155 43.0949 257.606 45.5257 259.371 46.5556C261.095 47.5856 262.491 49.0276 262.573 51.0876C262.778 55.3724 263.106 59.6983 262.778 63.9831C262.203 71.6463 263.106 79.1034 265.446 86.3133C267.745 93.4409 270.454 100.404 271.644 107.82C271.727 108.314 272.547 109.056 273.122 109.097C277.555 109.632 281.947 110.127 286.381 110.333C287.366 110.374 288.556 109.179 289.295 108.273C289.623 107.902 289.254 106.625 288.843 106.007C286.093 101.598 283.261 97.2313 280.47 92.8229C280.223 92.4521 280.059 92.0401 280.059 91.4633C282.933 93.8941 285.847 96.3661 288.72 98.838C290.608 100.445 292.497 102.01 294.262 103.741C295.781 105.224 297.094 103.782 298.408 103.576C298.9 103.494 299.434 102.258 299.516 101.475C300.132 95.3361 300.624 89.1973 301.486 82.9762C302.02 85.2421 302.553 87.4669 303.046 89.7329C303.826 93.3585 304.483 96.9841 305.345 100.61C305.55 101.557 306.289 102.876 306.987 103.04C308.711 103.494 310.517 104.441 312.323 102.711C316.263 98.8381 320.409 95.1301 324.432 91.3397C324.76 91.0513 325.13 90.7629 325.704 90.5981C325.253 91.4221 324.842 92.2461 324.391 93.0701C322.092 96.9841 319.835 100.898 317.495 104.73C316.715 106.007 316.92 106.666 317.823 108.026C319.793 111.033 322.174 110.539 324.883 109.921C328.988 109.014 333.134 108.19 337.444 107.778C334.078 109.303 330.712 110.868 327.346 112.393C326.115 112.97 324.801 113.382 323.611 114.123C322.995 114.494 322.297 115.318 322.215 115.977C322.092 117.09 322.626 118.037 323.98 118.326C328.208 119.191 332.395 120.138 336.623 121.045C336.993 121.127 337.321 121.251 337.608 121.704C333.914 121.704 330.179 121.663 326.484 121.704C325.212 121.704 323.2 121.539 322.831 122.157C322.051 123.558 322.01 125.412 321.846 127.101C321.764 127.801 322.338 128.543 322.421 129.285C322.462 129.903 322.421 130.891 322.051 131.097C320.573 131.921 320.82 133.157 321.189 134.311C321.969 136.948 322.831 139.543 323.734 142.139C324.432 144.158 324.924 146.094 323.406 147.989C323.242 148.195 323.077 148.484 323.118 148.731C323.898 152.768 324.104 156.971 326.813 160.349C327.593 161.338 328.906 162.203 330.138 162.492C334.365 163.522 337.075 166.158 338.881 169.908C342.082 176.664 345.038 183.545 345.448 191.208C345.489 191.702 345.9 192.32 346.351 192.65C349.102 194.71 351.934 196.728 354.971 198.912C357.968 193.927 361.17 188.612 364.453 183.133C372.704 188.077 380.832 192.938 389.123 197.882C386.866 201.755 384.731 205.504 382.515 209.171C381.858 210.283 381.57 211.025 382.679 212.137C384.239 213.703 384.485 215.598 383.171 217.576C380.38 221.778 377.753 226.104 374.798 230.224C372.95 232.819 370.282 234.426 367.04 234.715C365.931 234.838 365.521 235.374 365.48 236.404C365.233 239.7 364.987 242.955 364.659 246.251C364.536 247.445 364.248 248.64 364.002 250C344.833 249.835 325.951 251.854 306.822 254.614C308.095 249.794 309.244 245.344 310.435 240.895C310.27 240.812 310.065 240.73 309.901 240.606C307.52 245.179 305.139 249.711 302.471 254.82C303.415 249.052 304.154 243.861 305.139 238.711C306.125 233.396 307.233 228.081 308.505 222.808C309.737 217.617 311.297 212.508 312.487 207.193C312.076 207.729 311.625 208.223 311.297 208.8C303.58 220.872 298.408 233.891 297.053 248.269C296.848 250.453 296.519 252.636 296.355 254.82C296.273 255.891 295.986 256.427 294.836 256.55C293.564 256.674 292.25 256.88 290.978 257.168C289.5 257.498 287.571 257.004 287.366 258.816C286.298 258.569 285.436 258.116 284.657 258.24C279.197 259.105 273.738 260.052 267.909 261.041C273.697 243.49 281.824 227.422 291.635 212.055C288.105 215.104 285.19 218.688 282.399 222.396C279.567 226.186 276.857 230.059 274.271 234.014C271.727 237.969 269.387 242.048 266.76 246.457C266.596 244.973 266.472 243.861 266.349 242.584C265.487 242.707 264.789 242.831 264.051 242.955C259.987 243.573 257.934 241.842 258.263 237.763C258.468 235.497 259.166 233.19 259.987 231.048C263.312 222.561 269.058 215.845 275.79 209.336C274.025 215.021 272.383 220.254 270.741 225.486C270.988 225.651 271.275 225.774 271.521 225.939C281.085 210.242 294.631 198.212 307.479 185.44C302.02 187.623 297.587 191.29 293.359 195.163C289.09 199.077 285.067 203.238 280.757 207.482C286.257 196.152 293.236 185.975 301.281 176.17C296.068 177.117 282.276 189.519 274.887 199.53C267.827 209.088 262.203 219.43 257.647 230.389C257.483 230.347 257.319 230.306 257.155 230.265C257.606 227.34 257.811 224.332 258.632 221.49C260.069 216.504 261.875 211.602 263.435 206.658C263.64 205.998 263.435 205.174 263.353 204.433C263.148 202.867 262.532 201.219 262.778 199.736C263.312 196.646 263.312 194.009 260.849 191.62C258.509 189.354 258.961 186.552 260.192 183.792C260.479 183.174 260.808 182.597 261.136 182.02C258.673 179.589 259.617 176.87 260.603 174.357C261.177 172.874 261.013 172.132 259.617 171.391C258.673 170.896 257.77 170.155 256.99 169.413C254.199 166.735 253.912 164.552 255.8 161.132C256.046 160.679 256.334 160.226 256.621 159.731C255.02 159.319 253.337 159.154 251.983 158.454C250.71 157.795 249.725 156.518 248.781 155.364C261.916 157.094 272.26 144.817 274.107 133.199C272.712 134.805 271.316 136.412 269.961 137.978C269.14 138.925 268.196 139.008 267.293 138.184C264.215 135.423 261.177 132.663 258.263 130.026C258.591 131.221 259.002 132.91 259.576 134.476C260.438 136.865 261.382 139.214 262.409 141.521C262.901 142.592 262.942 143.334 261.834 143.911C259.412 145.229 256.949 146.588 254.527 147.907C254.158 148.113 253.748 148.319 252.927 148.69C254.24 149.019 255.143 149.225 256.046 149.431C254.979 151.491 252.803 152.562 250.669 152.192C248.863 151.862 247.467 150.296 247.385 147.989C247.221 143.045 248.165 138.266 250.176 133.775C251.572 130.603 253.419 127.595 254.979 124.464C255.307 123.805 255.554 122.857 255.348 122.239C252.229 112.97 251.777 103.411 251.654 93.7705C251.572 88.4145 251.203 83.0998 250.956 77.7438C250.874 76.343 250.259 75.3542 249.191 74.283C248.124 73.2118 247.344 71.2755 247.385 69.7511C247.467 66.0431 247.016 62.6235 245.004 59.3688C244.019 57.762 243.28 55.7432 244.471 53.7244C244.594 53.4772 244.307 53.024 244.266 52.6532C244.183 51.9528 243.896 51.1288 244.183 50.552C244.717 49.4396 244.635 48.6156 244.142 47.5032C243.814 46.7616 244.101 45.4845 244.553 44.7017C245.045 43.8365 245.169 43.3421 244.635 42.3533C244.019 41.2409 243.937 39.7989 243.527 38.5629C243.28 37.9037 242.911 37.2445 242.377 36.8325C241.556 36.2145 240.571 35.8849 239.709 35.3493C237 33.5777 236.507 31.559 238.232 28.7162C238.888 27.6038 239.176 26.6562 238.314 25.5026C237.328 24.2254 238.026 23.3602 239.217 22.9894C241.433 22.3302 243.691 21.9182 245.948 21.3414C246.605 21.1766 247.796 20.8058 247.796 20.4762C247.837 19.4051 247.878 17.7983 247.221 17.2627C244.06 14.6671 244.389 11.4535 245.169 8.03394C245.62 6.05635 246.113 4.07877 246.605 1.97759C248.206 2.67798 249.15 3.70797 248.904 5.72676C248.658 7.86914 248.986 9.92912 250.792 11.4947C249.643 7.33354 249.807 3.50197 253.009 0.0411997C253.912 1.68919 254.733 3.17238 255.677 4.86156C256.293 3.21358 256.826 1.77159 257.442 0C259.823 2.22478 260.767 4.90276 261.3 7.70434C261.998 11.4123 261.259 14.7495 258.304 17.4275C257.688 17.9631 257.483 19.2403 257.565 20.1466C257.606 20.641 258.632 21.1766 259.33 21.3826C260.849 21.7946 262.45 21.9182 263.927 22.3714C264.872 22.7422 265.98 23.4426 267.458 24.143ZM293.687 126.813C294.426 126.442 294.877 126.153 295.329 125.989C296.971 125.288 298.325 123.929 300.378 124.299C301.609 124.547 302.636 124.794 302.266 126.277C301.938 127.513 301.527 128.708 299.762 128.667C298.12 128.625 296.355 128.708 294.877 129.326C294.015 129.697 293.071 131.221 293.153 132.169C293.359 134.476 293.851 136.824 294.713 138.925C296.15 142.551 301.65 144.652 305.18 143.169C305.673 142.963 306.453 142.345 306.412 142.015C306.33 141.48 305.755 140.903 305.222 140.615C304.401 140.12 303.456 139.832 302.02 139.255C303.662 138.884 304.647 138.637 305.673 138.39C305.632 138.184 305.632 137.937 305.591 137.731C303.99 137.731 302.43 137.731 300.255 137.731C301.527 137.03 302.348 136.618 303.169 136.165C302.594 135.506 302.061 134.847 301.322 133.94C303.621 133.94 305.427 133.94 307.561 133.94C306.904 134.888 306.535 135.382 306.084 136C308.054 136.495 309.203 137.36 308.546 139.461C308.423 139.832 308.875 140.615 309.244 140.779C309.573 140.903 310.352 140.615 310.599 140.244C311.132 139.461 311.502 138.555 311.83 137.689C312.405 136.165 312.897 134.599 313.472 133.075C314.334 130.891 313.759 129.861 311.461 129.491C310.065 129.243 308.505 129.202 307.356 128.461C306.535 127.925 305.919 126.483 305.919 125.412C305.919 124.011 307.274 123.97 308.423 124.011C309.942 124.011 311.461 124.011 313.226 124.011C312.939 123.475 312.897 123.105 312.692 123.022C309.942 121.539 307.192 120.056 304.401 118.655C304.154 118.531 303.621 118.738 303.292 118.944C301.281 120.097 299.311 121.251 297.258 122.404C295.657 123.311 294.221 124.423 293.687 126.813ZM285.765 140.779C285.601 140.862 285.436 140.944 285.272 141.027C288.064 153.057 286.996 165.046 284.41 176.994C288.967 170.361 291.512 162.986 292.661 154.746C295.986 157.877 299.393 160.226 303.785 160.473C299.68 158.413 296.56 155.323 293.974 151.656C292.045 148.937 290.116 146.176 288.105 143.499C287.448 142.51 286.545 141.686 285.765 140.779ZM316.756 117.543C311.707 112.434 305.878 111.898 299.762 112.722C299.187 110.786 299.967 108.561 297.176 107.572C297.34 108.973 297.381 110.044 297.587 111.074C297.997 113.093 298.038 113.093 296.889 113.299C296.15 111.775 295.411 110.292 294.672 108.808C294.344 108.932 293.974 109.097 293.646 109.22C293.974 110.292 294.18 111.445 294.631 112.475C295.124 113.588 294.877 114.247 293.974 115.071C292.579 116.348 291.388 117.831 290.239 119.355C289.829 119.891 289.87 120.756 289.705 121.457C290.444 121.621 291.224 121.992 291.963 121.91C296.643 121.251 300.624 119.232 303.785 115.606C307.561 118.902 311.707 119.355 316.756 117.543ZM277.884 123.599C280.511 125.906 280.593 128.337 280.305 130.974C280.018 133.858 282.235 135.382 283.795 137.277C286.422 134.847 286.668 133.817 286.011 130.727C285.847 130.026 286.093 129.243 286.257 128.543C286.463 127.595 286.832 126.73 286.996 125.783C287.243 124.299 286.052 122.61 284.862 122.734C282.768 122.899 280.675 123.228 277.884 123.599ZM272.178 111.074C271.85 113.382 272.383 114.988 273.943 116.348C275.051 117.337 275.954 118.573 277.022 119.603C277.391 119.973 278.089 120.385 278.499 120.262C280.47 119.767 282.44 119.191 284.328 118.408C284.821 118.202 285.149 117.254 285.231 116.595C285.272 116.183 284.821 115.4 284.451 115.236C280.429 113.835 276.447 112.516 272.178 111.074ZM371.062 213.167C370.611 213.579 369.913 214.403 369.051 214.939C367.573 215.845 367.45 216.504 368.722 217.658C370.036 218.894 371.308 220.254 372.704 221.366C373.361 221.902 374.592 222.437 375.208 222.149C376.604 221.49 377.753 220.336 378.943 219.347C379.067 219.224 378.902 218.688 378.82 218.4C377.999 216.134 373.977 213.25 371.062 213.167ZM240.735 27.7274C240.735 27.8922 240.776 28.057 240.776 28.263C248.124 28.263 255.513 28.263 263.394 28.263C255.554 25.379 248.165 24.8022 240.735 27.7274ZM376.686 192.403C377.753 194.792 378.82 196.646 379.395 198.665C379.97 200.601 380.011 202.702 380.298 204.721C380.996 202.991 383.5 201.92 382.104 199.489C383.13 198.994 384.115 198.5 385.429 197.841C382.432 196.028 379.764 194.339 376.686 192.403ZM370.816 226.186C371.062 225.815 371.883 225.033 371.719 224.785C370.693 222.89 369.543 221.119 368.312 219.388C368.189 219.224 367.286 219.677 366.711 219.883C367.737 221.943 368.722 224.003 369.79 226.063C369.831 226.104 370.159 226.063 370.816 226.186ZM381.119 211.231C379.477 210.036 378.287 209.088 376.973 208.306C376.85 208.223 375.701 209.253 375.701 209.789C375.618 211.354 377.63 213.538 378.779 213.208C379.436 213.002 379.97 212.22 381.119 211.231ZM301.404 106.666C301.609 108.602 301.773 110.127 302.02 112.187C303.58 109.385 303.456 107.984 301.404 106.666ZM306.576 106.954C304.606 108.726 304.524 109.921 306.084 112.022C306.248 110.127 306.371 108.808 306.576 106.954ZM292.086 111.486C291.799 111.651 291.471 111.816 291.183 111.981C291.717 113.011 292.25 114 292.825 115.03C293.153 114.865 293.441 114.659 293.769 114.494C293.195 113.464 292.62 112.475 292.086 111.486Z" fill="#E7EEF9"/>
</g>
</svg>
