<svg xmlns="http://www.w3.org/2000/svg" viewBox="0 0 16 10.02">
  <defs>
    <style>
      .a {
        fill: #f0f0f0;
      }

      .b {
        fill: #d80027;
      }

      .c {
        fill: #2e52b2;
      }
    </style>
  </defs>
  <title>flag-american</title>
  <rect class="a" y="1.37" width="16" height="8.65"/>
  <g>
    <g>
      <rect class="b" y="0.02" width="16" height="1.42"/>
      <rect class="b" y="2.89" width="16" height="1.42"/>
      <rect class="b" y="5.73" width="16" height="1.42"/>
      <rect class="b" y="8.58" width="16" height="1.44"/>
    </g>
    <g>
      <rect class="b" y="0.02" width="16" height="1.42"/>
      <rect class="b" y="2.89" width="16" height="1.42"/>
      <rect class="b" y="5.73" width="16" height="1.42"/>
      <rect class="b" y="8.58" width="16" height="1.44"/>
    </g>
  </g>
  <rect class="c" width="7.89" height="5.73"/>
  <g>
    <polygon class="a" points="3.07 2.34 2.94 2.74 2.54 2.74 2.87 2.98 2.74 3.38 3.07 3.13 3.41 3.38 3.28 2.98 3.62 2.74 3.2 2.74 3.07 2.34"/>
    <polygon class="a" points="3.2 4.17 3.07 3.78 2.94 4.17 2.54 4.17 2.87 4.42 2.74 4.83 3.07 4.58 3.41 4.83 3.28 4.42 3.62 4.17 3.2 4.17"/>
    <polygon class="a" points="1.46 4.17 1.33 3.78 1.2 4.17 0.78 4.17 1.12 4.42 0.99 4.83 1.33 4.58 1.66 4.83 1.53 4.42 1.86 4.17 1.46 4.17"/>
    <polygon class="a" points="1.33 2.34 1.2 2.74 0.78 2.74 1.12 2.98 0.99 3.38 1.33 3.13 1.66 3.38 1.53 2.98 1.86 2.74 1.46 2.74 1.33 2.34"/>
    <polygon class="a" points="3.07 0.9 2.94 1.3 2.54 1.3 2.87 1.55 2.74 1.94 3.07 1.7 3.41 1.94 3.28 1.55 3.62 1.3 3.2 1.3 3.07 0.9"/>
    <polygon class="a" points="1.33 0.9 1.2 1.3 0.78 1.3 1.12 1.55 0.99 1.94 1.33 1.7 1.66 1.94 1.53 1.55 1.86 1.3 1.46 1.3 1.33 0.9"/>
    <polygon class="a" points="4.82 2.34 4.7 2.74 4.29 2.74 4.62 2.98 4.49 3.38 4.82 3.13 5.16 3.38 5.04 2.98 5.37 2.74 4.95 2.74 4.82 2.34"/>
    <polygon class="a" points="4.95 4.17 4.82 3.78 4.7 4.17 4.29 4.17 4.62 4.42 4.49 4.83 4.82 4.58 5.16 4.83 5.04 4.42 5.37 4.17 4.95 4.17"/>
    <polygon class="a" points="6.71 4.17 6.58 3.78 6.45 4.17 6.03 4.17 6.36 4.42 6.24 4.83 6.58 4.58 6.91 4.83 6.78 4.42 7.12 4.17 6.71 4.17"/>
    <polygon class="a" points="6.58 2.34 6.45 2.74 6.03 2.74 6.36 2.98 6.24 3.38 6.58 3.13 6.91 3.38 6.78 2.98 7.12 2.74 6.71 2.74 6.58 2.34"/>
    <polygon class="a" points="4.82 0.9 4.7 1.3 4.29 1.3 4.62 1.55 4.49 1.94 4.82 1.7 5.16 1.94 5.04 1.55 5.37 1.3 4.95 1.3 4.82 0.9"/>
    <polygon class="a" points="6.58 0.9 6.45 1.3 6.03 1.3 6.36 1.55 6.24 1.94 6.58 1.7 6.91 1.94 6.78 1.55 7.12 1.3 6.71 1.3 6.58 0.9"/>
  </g>
</svg>
