<svg width="46" height="46" viewBox="0 0 46 46" fill="none" xmlns="http://www.w3.org/2000/svg">
<g id="warranty 1" clip-path="url(#clip0_464_15788)">
<g id="warranty">
<path id="Vector" d="M22.9987 5.75C20.3451 5.75 17.7512 6.53687 15.5448 8.01112C13.3384 9.48536 11.6188 11.5808 10.6033 14.0323C9.58784 16.4839 9.32215 19.1815 9.83983 21.7841C10.3575 24.3867 11.6353 26.7773 13.5117 28.6537C15.388 30.53 17.7787 31.8079 20.3812 32.3255C22.9838 32.8432 25.6815 32.5775 28.133 31.5621C30.5846 30.5466 32.68 28.8269 34.1543 26.6206C35.6285 24.4142 36.4154 21.8202 36.4154 19.1667C36.4154 15.6083 35.0018 12.1958 32.4857 9.67965C29.9696 7.16354 26.557 5.75 22.9987 5.75ZM22.9987 30.6667C20.7242 30.6667 18.5008 29.9922 16.6096 28.7286C14.7185 27.4649 13.2445 25.6689 12.3741 23.5675C11.5037 21.4662 11.2759 19.1539 11.7197 16.9231C12.1634 14.6923 13.2587 12.6432 14.867 11.0349C16.4753 9.42664 18.5244 8.33137 20.7552 7.88764C22.9859 7.44391 25.2982 7.67164 27.3996 8.54205C29.5009 9.41246 31.297 10.8864 32.5606 12.7776C33.8242 14.6688 34.4987 16.8922 34.4987 19.1667C34.4987 22.2167 33.2871 25.1417 31.1304 27.2984C28.9738 29.4551 26.0487 30.6667 22.9987 30.6667Z" fill="#0014B8"/>
<path id="Vector_2" d="M40.9868 16.5504C40.7335 16.3214 40.5611 16.0165 40.4955 15.6814C40.4298 15.3463 40.4744 14.9989 40.6226 14.6913C40.8332 14.2494 40.9483 13.7681 40.9607 13.2788C40.973 12.7894 40.8822 12.303 40.6942 11.851C40.5062 11.3991 40.2252 10.9918 39.8694 10.6556C39.5137 10.3193 39.0911 10.0618 38.6293 9.89958C38.3049 9.79044 38.0257 9.57717 37.8351 9.29294C37.6444 9.00871 37.553 8.66945 37.5751 8.32792C37.6034 7.82312 37.5226 7.31815 37.338 6.84743C37.1535 6.37672 36.8696 5.95132 36.5058 5.60024C36.142 5.24915 35.7068 4.98063 35.2298 4.81298C34.7528 4.64533 34.2453 4.5825 33.7418 4.62875C33.4163 4.6299 33.0988 4.52874 32.8339 4.33958C32.5691 4.15042 32.3704 3.88281 32.266 3.57458C32.1038 3.11274 31.8462 2.69021 31.51 2.33445C31.1738 1.97869 30.7665 1.69767 30.3145 1.50966C29.8626 1.32165 29.3761 1.23086 28.8868 1.2432C28.3975 1.25553 27.9162 1.37071 27.4743 1.58125C25.6726 2.40542 25.6055 0 22.9989 0C22.5046 0.00273436 22.0164 0.109046 21.5658 0.312077C21.1152 0.515107 20.7121 0.810347 20.3826 1.17875C20.1502 1.42693 19.8455 1.59566 19.5118 1.66103C19.1782 1.72639 18.8324 1.68507 18.5235 1.54292C18.0818 1.33083 17.6003 1.21442 17.1105 1.20132C16.6208 1.18822 16.1338 1.27873 15.6814 1.46692C15.229 1.6551 14.8215 1.93672 14.4855 2.29332C14.1496 2.64993 13.8927 3.07348 13.7318 3.53625C13.6194 3.86049 13.4041 4.13906 13.1185 4.3294C12.833 4.51975 12.4931 4.61142 12.1505 4.59042C11.6457 4.56212 11.1408 4.64299 10.6701 4.82752C10.1993 5.01205 9.77395 5.2959 9.42286 5.65972C9.07178 6.02354 8.80326 6.45877 8.63561 6.93576C8.46796 7.41275 8.40512 7.92028 8.45138 8.42375C8.45252 8.7492 8.35137 9.06678 8.16221 9.33161C7.97304 9.59643 7.70544 9.79512 7.39721 9.89958C6.93629 10.063 6.51476 10.3213 6.15984 10.6577C5.80492 10.9942 5.52449 11.4013 5.33666 11.8528C5.14882 12.3044 5.05775 12.7903 5.06933 13.2792C5.08091 13.7681 5.19488 14.2491 5.40387 14.6913C5.56515 15.0064 5.61598 15.3667 5.54822 15.7142C5.48045 16.0617 5.29801 16.3764 5.03012 16.6079C4.6619 16.9361 4.36722 17.3384 4.16545 17.7884C3.96368 18.2385 3.85938 18.7262 3.85938 19.2194C3.85938 19.7126 3.96368 20.2003 4.16545 20.6503C4.36722 21.1004 4.6619 21.5027 5.03012 21.8308C5.28344 22.0598 5.45581 22.3647 5.52146 22.6998C5.5871 23.035 5.54249 23.3823 5.39429 23.69C5.1822 24.1317 5.06579 24.6131 5.0527 25.1029C5.0396 25.5927 5.13011 26.0797 5.31829 26.5321C5.50647 26.9844 5.78809 27.3919 6.1447 27.7279C6.50131 28.0639 6.92486 28.3207 7.38763 28.4817C7.71187 28.594 7.99043 28.8094 8.18078 29.0949C8.37113 29.3804 8.4628 29.7204 8.44179 30.0629C8.39507 30.854 8.62062 31.6373 9.08092 32.2824C9.54121 32.9275 10.2085 33.3956 10.9718 33.6088C6.45804 41.4383 6.44846 41.0933 6.88929 41.7546C7.33013 42.4158 7.62721 42.1954 11.8439 41.6875C13.4922 45.5783 13.4635 46 14.2493 46C15.0351 46 14.8722 46 20.0951 36.9246C20.2023 36.9938 20.3019 37.0741 20.3922 37.1642C20.7204 37.5324 21.1227 37.8271 21.5727 38.0288C22.0228 38.2306 22.5104 38.3349 23.0037 38.3349C23.4969 38.3349 23.9845 38.2306 24.4346 38.0288C24.8847 37.8271 25.287 37.5324 25.6151 37.1642C25.7028 37.0778 25.7991 37.0007 25.9026 36.9342C31.2597 46.2204 30.9435 46.0671 31.7485 46.0096C32.5535 45.9521 32.5055 45.5975 34.173 41.6779C38.361 42.1858 38.6964 42.4063 39.1276 41.745C39.5589 41.0838 39.3385 41.0454 35.0451 33.6088C35.8235 33.3857 36.5007 32.9002 36.9618 32.2347C37.4229 31.5692 37.6396 30.7646 37.5751 29.9575C37.574 29.6321 37.6751 29.3145 37.8643 29.0496C38.0535 28.7848 38.3211 28.5861 38.6293 28.4817C39.0902 28.3182 39.5117 28.0599 39.8667 27.7235C40.2216 27.3871 40.502 26.9799 40.6898 26.5284C40.8777 26.0769 40.9688 25.591 40.9572 25.1021C40.9456 24.6132 40.8316 24.1321 40.6226 23.69C40.4775 23.3817 40.4346 23.0351 40.5001 22.7007C40.5656 22.3664 40.7361 22.0616 40.9868 21.8308C41.366 21.5034 41.6703 21.098 41.8788 20.6424C42.0873 20.1868 42.1953 19.6917 42.1953 19.1906C42.1953 18.6896 42.0873 18.1944 41.8788 17.7388C41.6703 17.2832 41.366 16.8779 40.9868 16.5504ZM14.4314 42.9046C12.7447 38.9658 13.6455 39.5217 9.45763 40.0296C13.3485 33.3213 12.9268 33.925 13.0418 33.9921C13.3453 34.1773 13.5755 34.4617 13.6935 34.7971C13.9786 35.6168 14.5582 36.3012 15.3198 36.7175C16.0813 37.1337 16.9704 37.2519 17.8143 37.0492L14.4314 42.9046ZM31.5664 42.9046L28.1835 37.0492C29.026 37.2515 29.9138 37.1329 30.6738 36.7166C31.4337 36.3003 32.0116 35.6161 32.2947 34.7971C32.4362 34.4369 32.6966 34.136 33.0326 33.9442L36.5401 40.0296C32.3139 39.5121 33.2243 39.0138 31.5664 42.9046ZM39.7218 20.3454C39.1536 20.8525 38.7659 21.5307 38.6172 22.2776C38.4685 23.0244 38.567 23.7994 38.8976 24.4854C38.9952 24.6848 39.0492 24.9026 39.0559 25.1245C39.0627 25.3463 39.0221 25.5671 38.9369 25.772C38.8516 25.9769 38.7237 26.1613 38.5616 26.313C38.3995 26.4646 38.207 26.5799 37.9968 26.6513C37.2663 26.9101 36.6415 27.4024 36.2188 28.052C35.7961 28.7016 35.5992 29.4723 35.6585 30.245C35.6579 30.4649 35.6118 30.6823 35.523 30.8834C35.4342 31.0846 35.3047 31.2652 35.1426 31.4138C34.9805 31.5624 34.7894 31.6757 34.5813 31.7467C34.3731 31.8177 34.1526 31.8448 33.9335 31.8263C33.1839 31.7959 32.4444 32.0066 31.8235 32.4274C31.2026 32.8483 30.7329 33.4571 30.4835 34.1646C30.4095 34.3729 30.2928 34.5634 30.1407 34.7238C29.9886 34.8842 29.8046 35.0109 29.6005 35.0958C29.3964 35.1807 29.1768 35.2218 28.9559 35.2166C28.7349 35.2114 28.5175 35.1599 28.3176 35.0654C27.6328 34.7406 26.8617 34.6444 26.118 34.7911C25.3743 34.9377 24.6975 35.3195 24.1872 35.88C24.0342 36.0397 23.8505 36.1668 23.6471 36.2537C23.4437 36.3405 23.2248 36.3853 23.0037 36.3853C22.7825 36.3853 22.5636 36.3405 22.3602 36.2537C22.1568 36.1668 21.9731 36.0397 21.8201 35.88C21.3131 35.3118 20.6349 34.9241 19.888 34.7754C19.1411 34.6267 18.3661 34.7252 17.6801 35.0558C17.4798 35.1519 17.2615 35.2047 17.0395 35.2108C16.8174 35.2168 16.5966 35.176 16.3913 35.091C16.1861 35.0061 16.001 34.8788 15.8483 34.7175C15.6955 34.5562 15.5785 34.3645 15.5047 34.155C15.2504 33.4234 14.7606 32.797 14.1119 32.3738C13.4633 31.9506 12.6925 31.7546 11.9205 31.8167C11.7007 31.8161 11.4833 31.77 11.2821 31.6812C11.0809 31.5924 10.9004 31.4629 10.7518 31.3008C10.6032 31.1387 10.4898 30.9476 10.4188 30.7395C10.3478 30.5313 10.3207 30.3108 10.3393 30.0917C10.3712 29.3418 10.1611 28.6016 9.74005 27.9804C9.31898 27.3591 8.70926 26.8898 8.00096 26.6417C7.78984 26.5716 7.59623 26.4571 7.43324 26.3057C7.27026 26.1543 7.1417 25.9697 7.05628 25.7643C6.97086 25.559 6.93056 25.3376 6.93813 25.1153C6.94569 24.893 7.00094 24.6749 7.10013 24.4758C7.42804 23.7916 7.5259 23.0197 7.37909 22.2753C7.23228 21.5309 6.84868 20.8539 6.28554 20.3454C6.11808 20.197 5.98401 20.0148 5.8922 19.8108C5.80038 19.6068 5.7529 19.3856 5.7529 19.1619C5.7529 18.9381 5.80038 18.717 5.8922 18.5129C5.98401 18.3089 6.11808 18.1267 6.28554 17.9783C6.85108 17.4695 7.2369 16.7914 7.38543 16.0453C7.53397 15.2991 7.43725 14.525 7.10971 13.8383C7.01052 13.6392 6.95528 13.4212 6.94771 13.1989C6.94015 12.9765 6.98044 12.7552 7.06586 12.5498C7.15128 12.3445 7.27984 12.1598 7.44283 12.0085C7.60581 11.8571 7.79942 11.7425 8.01054 11.6725C8.74101 11.4136 9.36588 10.9214 9.78854 10.2718C10.2112 9.62219 10.4081 8.85147 10.3489 8.07875C10.348 7.85843 10.3931 7.64035 10.4814 7.43849C10.5697 7.23663 10.6992 7.05546 10.8616 6.90658C11.024 6.7577 11.2158 6.6444 11.4245 6.57396C11.6333 6.50351 11.8545 6.47747 12.0739 6.4975C12.8237 6.52942 13.5639 6.31933 14.1852 5.89826C14.8064 5.47719 15.2758 4.86747 15.5239 4.15917C15.5978 3.95086 15.7146 3.76037 15.8666 3.59998C16.0187 3.43959 16.2027 3.31286 16.4068 3.22798C16.6109 3.1431 16.8305 3.10194 17.0515 3.10717C17.2725 3.1124 17.4899 3.16389 17.6897 3.25833C18.3739 3.58625 19.1459 3.68411 19.8903 3.5373C20.6347 3.39049 21.3116 3.00689 21.8201 2.44375C21.9731 2.28402 22.1568 2.15691 22.3602 2.07007C22.5636 1.98323 22.7825 1.93846 23.0037 1.93846C23.2248 1.93846 23.4437 1.98323 23.6471 2.07007C23.8505 2.15691 24.0342 2.28402 24.1872 2.44375C24.6961 3.00928 25.3742 3.39511 26.1203 3.54364C26.8664 3.69218 27.6406 3.59546 28.3272 3.26792C28.5268 3.17193 28.7444 3.11921 28.9659 3.11323C29.1873 3.10724 29.4074 3.14811 29.6119 3.23317C29.8164 3.31823 30.0006 3.44555 30.1525 3.60678C30.3043 3.76801 30.4204 3.95952 30.493 4.16875C30.7519 4.89922 31.2442 5.52409 31.8938 5.94675C32.5434 6.36941 33.3141 6.56634 34.0868 6.50708C34.3067 6.50762 34.5241 6.55375 34.7252 6.64254C34.9264 6.73132 35.107 6.86085 35.2556 7.02295C35.4042 7.18504 35.5175 7.37618 35.5885 7.58429C35.6595 7.7924 35.6866 8.01298 35.668 8.23208C35.6361 8.98191 35.8462 9.72211 36.2673 10.3434C36.6884 10.9646 37.2981 11.434 38.0064 11.6821C38.2175 11.7521 38.4111 11.8667 38.5741 12.0181C38.7371 12.1694 38.8656 12.354 38.9511 12.5594C39.0365 12.7648 39.0768 12.9861 39.0692 13.2084C39.0616 13.4307 39.0064 13.6488 38.9072 13.8479C38.5793 14.5321 38.4814 15.3041 38.6282 16.0485C38.7751 16.7929 39.1587 17.4698 39.7218 17.9783C39.8893 18.1267 40.0233 18.3089 40.1151 18.5129C40.207 18.717 40.2544 18.9381 40.2544 19.1619C40.2544 19.3856 40.207 19.6068 40.1151 19.8108C40.0233 20.0148 39.8893 20.197 39.7218 20.3454Z" fill="#0014B8"/>
<path id="Vector_3" d="M26.0071 15.4266C23.7263 10.817 23.7934 10.5391 22.9979 10.5391C22.2025 10.5391 22.2696 10.8074 19.9888 15.4266C14.9096 16.1645 14.67 16.0111 14.4209 16.7682C14.1717 17.5253 14.4209 17.5541 18.1392 21.1382C17.2671 26.1982 17.0563 26.3899 17.6984 26.8882C18.3404 27.3866 18.4459 27.0991 22.9979 24.7032C27.6267 27.1374 27.4063 27.0703 27.7321 27.0703C27.8729 27.0724 28.0125 27.0434 28.1408 26.9854C28.2691 26.9274 28.3831 26.8418 28.4746 26.7347C28.5661 26.6277 28.6329 26.5018 28.6702 26.366C28.7075 26.2302 28.7144 26.0878 28.6904 25.9491L27.8663 21.1574L31.345 17.7745C31.4744 17.6495 31.566 17.4906 31.6093 17.3159C31.6526 17.1413 31.6458 16.958 31.5899 16.7871C31.5339 16.6161 31.4309 16.4643 31.2927 16.3491C31.1545 16.2339 30.9866 16.16 30.8084 16.1357L26.0071 15.4266ZM26.1604 20.1224C25.6813 20.592 25.8634 20.8028 26.4671 24.3295C23.1225 22.5757 23.3142 22.6332 22.9979 22.6332C22.6817 22.6332 22.8734 22.5757 19.5288 24.3295C20.1421 20.7836 20.3146 20.5824 19.8354 20.1224L17.3917 17.7361L20.765 17.2474C21.4359 17.1516 21.4167 16.8736 22.9979 13.6632C24.5984 16.9024 24.5696 17.1516 25.2309 17.2474L28.6042 17.7361L26.1604 20.1224Z" fill="#0014B8"/>
</g>
</g>
<defs>
<clipPath id="clip0_464_15788">
<rect width="46" height="46" fill="white"/>
</clipPath>
</defs>
</svg>
