<svg width="41" height="41" viewBox="0 0 41 41" fill="none" xmlns="http://www.w3.org/2000/svg">
<g id="easy-installation 1" clip-path="url(#clip0_464_15794)">
<g id="g1866">
<g id="g1868">
<g id="Clip path group">
<mask id="mask0_464_15794" style="mask-type:luminance" maskUnits="userSpaceOnUse" x="0" y="0" width="41" height="41">
<g id="clipPath1874">
<path id="path1872" d="M0 3.8147e-06H41V41H0V3.8147e-06Z" fill="white"/>
</g>
</mask>
<g mask="url(#mask0_464_15794)">
<g id="g1870">
<g id="g1876">
<path id="path1878" d="M30.1914 20.498C30.1914 15.1467 25.8533 10.8086 20.502 10.8086C15.1506 10.8086 10.8125 15.1467 10.8125 20.498C10.8125 25.8494 15.1506 30.1875 20.502 30.1875C25.8533 30.1875 30.1914 25.8494 30.1914 20.498Z" stroke="#0014B8" stroke-width="2" stroke-miterlimit="10"/>
</g>
<g id="g1880">
<path id="path1882" d="M39.8008 23.501V17.4951L36.8998 16.4117C36.4903 14.7635 35.8395 13.2107 34.9859 11.7936L36.2717 8.97513L32.0249 4.72834L29.2064 6.01408C27.7893 5.16053 26.2365 4.50965 24.5883 4.10021L23.5049 1.19922H17.499L16.4156 4.10021C14.7674 4.50965 13.2146 5.16053 11.7975 6.01408L8.97903 4.72834L4.73225 8.97513L6.01798 11.7936C5.16443 13.2107 4.51355 14.7635 4.10411 16.4117L1.20312 17.4951V23.501L4.10411 24.5844C4.51355 26.2326 5.16443 27.7853 6.01798 29.2025L4.73225 32.021L8.97903 36.2678L11.7975 34.982C13.2146 35.8356 14.7674 36.4864 16.4156 36.8959L17.499 39.7969H23.5049L24.5883 36.8959C26.2365 36.4864 27.7893 35.8356 29.2064 34.982L32.0249 36.2678L36.2717 32.021L34.9859 29.2025C35.8395 27.7853 36.4903 26.2326 36.8998 24.5844L39.8008 23.501Z" stroke="#0014B8" stroke-width="2" stroke-miterlimit="10"/>
</g>
<g id="g1884">
<path id="path1886" d="M24.7475 17.9507L19.6513 23.0469L16.2539 19.6494" stroke="#0014B8" stroke-width="2" stroke-miterlimit="10"/>
</g>
</g>
</g>
</g>
</g>
</g>
</g>
<defs>
<clipPath id="clip0_464_15794">
<rect width="41" height="41" fill="white"/>
</clipPath>
</defs>
</svg>
