<svg width="39" height="39" viewBox="0 0 39 39" fill="none" xmlns="http://www.w3.org/2000/svg">
<g id="price-tag 1" clip-path="url(#clip0_464_15782)">
<path id="Vector" d="M13 35.75C12.1453 35.75 11.3084 35.4023 10.7023 34.7978L0.95225 25.0478C0.34775 24.4416 0 23.6048 0 22.75C0 21.8953 0.34775 21.0584 0.95225 20.4523L15.5773 5.82725C16.1834 5.22275 17.0203 4.875 17.875 4.875H27.625C27.8346 4.875 28.0329 4.89938 28.2279 4.94813C29.7066 5.174 30.875 6.5455 30.875 8.125V17.875C30.875 18.7298 30.5273 19.5666 29.9228 20.1728L15.2978 34.7978C14.6916 35.4023 13.8548 35.75 13 35.75ZM17.875 6.5C17.4476 6.5 17.03 6.67388 16.7261 6.97613L2.10113 21.6011C1.79888 21.905 1.625 22.3226 1.625 22.75C1.625 23.1774 1.79888 23.595 2.10113 23.8989L11.8511 33.6489C12.4573 34.255 13.5411 34.255 14.1473 33.6489L28.7723 19.0239C29.0761 18.72 29.25 18.3024 29.25 17.875V8.125C29.25 7.34013 28.6731 6.65763 27.9061 6.539C27.7664 6.5065 27.703 6.5 27.625 6.5H17.875Z" fill="#0014B8"/>
<path id="Vector_2" d="M35.6363 39.0012H21.2387C20.3531 39.0012 19.4903 38.6584 18.8695 38.0571C18.2374 37.4461 17.875 36.6044 17.875 35.7512V30.2587C17.875 30.0426 17.9611 29.8362 18.1122 29.6835L28.7722 19.0235C29.0761 18.7212 29.25 18.3036 29.25 17.8762V8.12625C29.25 7.34137 28.6731 6.65887 27.9061 6.54025C27.5145 6.4785 27.2253 6.14537 27.2188 5.7505C27.2123 5.35562 27.4918 5.01112 27.8818 4.938C28.938 4.743 30.0365 5.07125 30.8068 5.82037L38.0023 12.7234C38.6376 13.3376 39 14.1794 39 15.0325V35.7512C39 36.6044 38.6376 37.4461 38.0055 38.0571C37.3848 38.6584 36.5219 39.0012 35.6363 39.0012ZM19.5 30.5951V35.7512C19.5 36.1672 19.682 36.5832 20.0005 36.8904C20.319 37.1991 20.7707 37.3762 21.2387 37.3762H35.6363C36.1043 37.3762 36.5544 37.1991 36.8745 36.8904C37.193 36.5832 37.375 36.1672 37.375 35.7512V15.0325C37.375 14.6165 37.193 14.2005 36.8745 13.8934L30.875 8.13762V17.8762C30.875 18.731 30.5273 19.5679 29.9228 20.174L19.5 30.5951Z" fill="#0014B8"/>
<path id="Vector_3" d="M25.1875 13C23.8436 13 22.75 11.9064 22.75 10.5625C22.75 9.21862 23.8436 8.125 25.1875 8.125C26.5314 8.125 27.625 9.21862 27.625 10.5625C27.625 11.9064 26.5314 13 25.1875 13ZM25.1875 9.75C24.739 9.75 24.375 10.114 24.375 10.5625C24.375 11.011 24.739 11.375 25.1875 11.375C25.636 11.375 26 11.011 26 10.5625C26 10.114 25.636 9.75 25.1875 9.75Z" fill="#0014B8"/>
<path id="Vector_4" d="M34.9375 11.375C34.489 11.375 34.125 11.011 34.125 10.5625V5.6875C34.125 3.44825 32.3018 1.625 30.0625 1.625C27.8232 1.625 26 3.44825 26 5.6875V8.9375C26 9.386 25.636 9.75 25.1875 9.75C24.739 9.75 24.375 9.386 24.375 8.9375V5.6875C24.375 2.55125 26.9263 0 30.0625 0C33.1987 0 35.75 2.55125 35.75 5.6875V10.5625C35.75 11.011 35.386 11.375 34.9375 11.375Z" fill="#0014B8"/>
</g>
<defs>
<clipPath id="clip0_464_15782">
<rect width="39" height="39" fill="white"/>
</clipPath>
</defs>
</svg>
