<svg width="46" height="46" viewBox="0 0 46 46" fill="none" xmlns="http://www.w3.org/2000/svg">
<g id="shield (10) 1" clip-path="url(#clip0_464_15808)">
<g id="Group">
<g id="Group_2">
<g id="Group_3">
<g id="Group_4">
<g id="Group_5">
<g id="Group_6">
<g id="Group_7">
<g id="Group_8">
<g id="Group_9">
<path id="Vector" d="M5.64453 4.64171V20.1244C5.64453 31.2364 12.5713 41.1703 22.9981 45.0117C33.4249 41.1703 40.3517 31.2364 40.3517 20.1244V4.64171C28.7827 -0.229528 17.2135 -0.229528 5.64453 4.64171Z" stroke="#0014B8" stroke-width="2" stroke-miterlimit="10" stroke-linecap="round" stroke-linejoin="round"/>
<path id="Vector_2" d="M22.9986 39.0637C15.8211 35.5806 11.125 28.2097 11.125 20.1251V8.43552C15.0986 7.12964 19.0794 6.46875 22.9986 6.46875C26.9177 6.46875 30.8985 7.12964 34.8721 8.43552V20.1252C34.8721 28.2097 30.176 35.5806 22.9986 39.0637Z" stroke="#0014B8" stroke-width="2" stroke-miterlimit="22.9256" stroke-linecap="round" stroke-linejoin="round"/>
</g>
</g>
</g>
</g>
</g>
</g>
</g>
</g>
<g id="Group_10">
<path id="Vector_3" d="M17.5078 23.3646L20.737 26.5938L28.4871 18.8438" stroke="#0014B8" stroke-width="2" stroke-miterlimit="22.9256" stroke-linecap="round" stroke-linejoin="round"/>
</g>
</g>
</g>
<defs>
<clipPath id="clip0_464_15808">
<rect width="46" height="46" fill="white"/>
</clipPath>
</defs>
</svg>
