<svg width="55" height="55" viewBox="0 0 55 55" fill="none" xmlns="http://www.w3.org/2000/svg">
<rect x="0.5" y="0.5" width="54" height="54" fill="white" stroke="#0014B8" stroke-dasharray="2 2"/>
<g clip-path="url(#clip0_602_10)">
<path d="M35.9062 16.7387H33.75V15.6018C33.75 15.1831 33.4142 14.8438 33 14.8438C32.5858 14.8438 32.25 15.1831 32.25 15.6018V16.7387H21.75V15.6018C21.75 15.1831 21.4142 14.8438 21 14.8438C20.5858 14.8438 20.25 15.1831 20.25 15.6018V16.7387H18.0938C16.3878 16.7387 15 18.1414 15 19.8655V35.973C15 37.6971 16.3878 39.0998 18.0938 39.0998H35.9062C37.6122 39.0998 39 37.6971 39 35.973V19.8655C39 18.1414 37.6122 16.7387 35.9062 16.7387ZM18.0938 18.2548H20.25V19.0128C20.25 19.4314 20.5858 19.7708 21 19.7708C21.4142 19.7708 21.75 19.4314 21.75 19.0128V18.2548H32.25V19.0128C32.25 19.4314 32.5858 19.7708 33 19.7708C33.4142 19.7708 33.75 19.4314 33.75 19.0128V18.2548H35.9062C36.7851 18.2548 37.5 18.9773 37.5 19.8655V21.6658H16.5V19.8655C16.5 18.9773 17.2149 18.2548 18.0938 18.2548ZM35.9062 37.5837H18.0938C17.2149 37.5837 16.5 36.8612 16.5 35.973V23.1818H37.5V35.973C37.5 36.8612 36.7851 37.5837 35.9062 37.5837Z" fill="#0014B8"/>
</g>
<defs>
<clipPath id="clip0_602_10">
<rect width="24" height="24" fill="white" transform="translate(15 15)"/>
</clipPath>
</defs>
</svg>
