<svg width="28" height="31" viewBox="0 0 28 31" fill="none" xmlns="http://www.w3.org/2000/svg">
<path d="M13.9816 31C11.2953 31 8.60231 30.2521 6.26554 28.7353C1.14339 25.4119 -1.18912 19.0596 0.593243 13.2872C0.787771 12.6567 1.46679 12.3001 2.10934 12.4915C2.75189 12.6824 3.11481 13.3486 2.92028 13.9791C1.44734 18.7495 3.37499 23.9989 7.60657 26.7449C11.8819 29.519 17.5968 29.1796 21.5062 25.92C25.3657 22.7016 26.6374 17.0812 24.5299 12.5565C22.3043 7.77777 16.8855 5.08419 11.6467 6.15184C9.44182 6.60097 7.35551 7.71216 5.77254 9.28202C5.3002 9.75023 4.5306 9.75441 4.0534 9.29097C3.5762 8.82752 3.57195 8.07242 4.04428 7.6042C5.96038 5.7045 8.48498 4.35951 11.1524 3.81614C17.494 2.52721 24.049 5.78324 26.742 11.5652C29.3335 17.1289 27.8283 23.78 23.0818 27.7386C20.4886 29.8995 17.2393 31 13.9816 31Z" fill="#0F80CC"/>
<path d="M4.90872 9.63631C4.80476 9.63631 4.69838 9.62319 4.59322 9.59515C3.94459 9.42457 3.55979 8.77086 3.73365 8.13445L5.71297 0.885178C5.88682 0.248765 6.55308 -0.131175 7.20171 0.0417962C7.85034 0.212381 8.23514 0.866092 8.06128 1.50251L6.08196 8.75177C5.93667 9.2844 5.44549 9.63631 4.90872 9.63631Z" fill="#0F80CC"/>
<path d="M12.2971 11.5795C12.1926 11.5795 12.0868 11.5664 11.9816 11.5384L4.59322 9.59515C3.94459 9.42457 3.55979 8.77086 3.73365 8.13445C3.90751 7.49803 4.57741 7.11988 5.22239 7.29107L12.6108 9.2343C13.2594 9.40489 13.6442 10.0586 13.4704 10.695C13.3251 11.2276 12.8339 11.5795 12.2971 11.5795Z" fill="#0F80CC"/>
</svg>
