<svg width="28" height="35" viewBox="0 0 28 35" fill="none" xmlns="http://www.w3.org/2000/svg">
<path d="M23.9167 35H4.08333C3.00074 34.9988 1.96285 34.5682 1.19734 33.8027C0.431839 33.0371 0.00123513 31.9993 0 30.9167V4.08333C0.00123513 3.00074 0.431839 1.96285 1.19734 1.19734C1.96285 0.431839 3.00074 0.00123513 4.08333 0H23.9167C24.9993 0.00123513 26.0372 0.431839 26.8027 1.19734C27.5682 1.96285 27.9988 3.00074 28 4.08333V30.9167C27.9988 31.9993 27.5682 33.0371 26.8027 33.8027C26.0372 34.5682 24.9993 34.9988 23.9167 35ZM4.08333 1.16667C3.31007 1.16759 2.56874 1.47518 2.02196 2.02196C1.47518 2.56874 1.16759 3.31007 1.16667 4.08333V30.9167C1.16759 31.6899 1.47518 32.4313 2.02196 32.978C2.56874 33.5248 3.31007 33.8324 4.08333 33.8333H23.9167C24.6899 33.8324 25.4313 33.5248 25.978 32.978C26.5248 32.4313 26.8324 31.6899 26.8333 30.9167V4.08333C26.8324 3.31007 26.5248 2.56874 25.978 2.02196C25.4313 1.47518 24.6899 1.16759 23.9167 1.16667H4.08333Z" fill="#1E90FF"/>
<path d="M15.75 32.6667H12.25C11.7859 32.6667 11.3408 32.4823 11.0126 32.1541C10.6844 31.8259 10.5 31.3808 10.5 30.9167V28.5833C10.5 28.1192 10.6844 27.6741 11.0126 27.3459C11.3408 27.0177 11.7859 26.8333 12.25 26.8333H15.75C16.2141 26.8333 16.6592 27.0177 16.9874 27.3459C17.3156 27.6741 17.5 28.1192 17.5 28.5833V30.9167C17.5 31.3808 17.3156 31.8259 16.9874 32.1541C16.6592 32.4823 16.2141 32.6667 15.75 32.6667ZM12.25 28C12.0953 28 11.9469 28.0615 11.8375 28.1709C11.7281 28.2802 11.6667 28.4286 11.6667 28.5833V30.9167C11.6667 31.0714 11.7281 31.2197 11.8375 31.3291C11.9469 31.4385 12.0953 31.5 12.25 31.5H15.75C15.9047 31.5 16.0531 31.4385 16.1625 31.3291C16.2719 31.2197 16.3333 31.0714 16.3333 30.9167V28.5833C16.3333 28.4286 16.2719 28.2802 16.1625 28.1709C16.0531 28.0615 15.9047 28 15.75 28H12.25Z" fill="#1E90FF"/>
<path d="M7.58333 32.6667H4.08333C3.6192 32.6667 3.17408 32.4823 2.8459 32.1541C2.51771 31.8259 2.33333 31.3808 2.33333 30.9167V28.5833C2.33333 28.1192 2.51771 27.6741 2.8459 27.3459C3.17408 27.0177 3.6192 26.8333 4.08333 26.8333H7.58333C8.04746 26.8333 8.49258 27.0177 8.82077 27.3459C9.14896 27.6741 9.33333 28.1192 9.33333 28.5833V30.9167C9.33333 31.3808 9.14896 31.8259 8.82077 32.1541C8.49258 32.4823 8.04746 32.6667 7.58333 32.6667ZM4.08333 28C3.92862 28 3.78025 28.0615 3.67085 28.1709C3.56146 28.2802 3.5 28.4286 3.5 28.5833V30.9167C3.5 31.0714 3.56146 31.2197 3.67085 31.3291C3.78025 31.4385 3.92862 31.5 4.08333 31.5H7.58333C7.73804 31.5 7.88642 31.4385 7.99581 31.3291C8.10521 31.2197 8.16667 31.0714 8.16667 30.9167V28.5833C8.16667 28.4286 8.10521 28.2802 7.99581 28.1709C7.88642 28.0615 7.73804 28 7.58333 28H4.08333Z" fill="#1E90FF"/>
<path d="M23.9167 32.6667H20.4167C19.9525 32.6667 19.5074 32.4823 19.1792 32.1541C18.851 31.8259 18.6667 31.3808 18.6667 30.9167V21.5833C18.6667 21.1192 18.851 20.6741 19.1792 20.3459C19.5074 20.0177 19.9525 19.8333 20.4167 19.8333H23.9167C24.3808 19.8333 24.8259 20.0177 25.1541 20.3459C25.4823 20.6741 25.6667 21.1192 25.6667 21.5833V30.9167C25.6667 31.3808 25.4823 31.8259 25.1541 32.1541C24.8259 32.4823 24.3808 32.6667 23.9167 32.6667ZM20.4167 21C20.262 21 20.1136 21.0615 20.0042 21.1709C19.8948 21.2802 19.8333 21.4286 19.8333 21.5833V30.9167C19.8333 31.0714 19.8948 31.2197 20.0042 31.3291C20.1136 31.4385 20.262 31.5 20.4167 31.5H23.9167C24.0714 31.5 24.2197 31.4385 24.3291 31.3291C24.4385 31.2197 24.5 31.0714 24.5 30.9167V21.5833C24.5 21.4286 24.4385 21.2802 24.3291 21.1709C24.2197 21.0615 24.0714 21 23.9167 21H20.4167Z" fill="#1E90FF"/>
<path d="M15.75 25.6667H12.25C11.7859 25.6667 11.3408 25.4823 11.0126 25.1541C10.6844 24.8259 10.5 24.3808 10.5 23.9167V21.5833C10.5 21.1192 10.6844 20.6741 11.0126 20.3459C11.3408 20.0177 11.7859 19.8333 12.25 19.8333H15.75C16.2141 19.8333 16.6592 20.0177 16.9874 20.3459C17.3156 20.6741 17.5 21.1192 17.5 21.5833V23.9167C17.5 24.3808 17.3156 24.8259 16.9874 25.1541C16.6592 25.4823 16.2141 25.6667 15.75 25.6667ZM12.25 21C12.0953 21 11.9469 21.0615 11.8375 21.1709C11.7281 21.2802 11.6667 21.4286 11.6667 21.5833V23.9167C11.6667 24.0714 11.7281 24.2197 11.8375 24.3291C11.9469 24.4385 12.0953 24.5 12.25 24.5H15.75C15.9047 24.5 16.0531 24.4385 16.1625 24.3291C16.2719 24.2197 16.3333 24.0714 16.3333 23.9167V21.5833C16.3333 21.4286 16.2719 21.2802 16.1625 21.1709C16.0531 21.0615 15.9047 21 15.75 21H12.25Z" fill="#1E90FF"/>
<path d="M7.58333 25.6667H4.08333C3.6192 25.6667 3.17408 25.4823 2.8459 25.1541C2.51771 24.8259 2.33333 24.3808 2.33333 23.9167V21.5833C2.33333 21.1192 2.51771 20.6741 2.8459 20.3459C3.17408 20.0177 3.6192 19.8333 4.08333 19.8333H7.58333C8.04746 19.8333 8.49258 20.0177 8.82077 20.3459C9.14896 20.6741 9.33333 21.1192 9.33333 21.5833V23.9167C9.33333 24.3808 9.14896 24.8259 8.82077 25.1541C8.49258 25.4823 8.04746 25.6667 7.58333 25.6667ZM4.08333 21C3.92862 21 3.78025 21.0615 3.67085 21.1709C3.56146 21.2802 3.5 21.4286 3.5 21.5833V23.9167C3.5 24.0714 3.56146 24.2197 3.67085 24.3291C3.78025 24.4385 3.92862 24.5 4.08333 24.5H7.58333C7.73804 24.5 7.88642 24.4385 7.99581 24.3291C8.10521 24.2197 8.16667 24.0714 8.16667 23.9167V21.5833C8.16667 21.4286 8.10521 21.2802 7.99581 21.1709C7.88642 21.0615 7.73804 21 7.58333 21H4.08333Z" fill="#1E90FF"/>
<path d="M15.75 18.6667H12.25C11.7859 18.6667 11.3408 18.4823 11.0126 18.1541C10.6844 17.8259 10.5 17.3808 10.5 16.9167V14.5833C10.5 14.1192 10.6844 13.6741 11.0126 13.3459C11.3408 13.0177 11.7859 12.8333 12.25 12.8333H15.75C16.2141 12.8333 16.6592 13.0177 16.9874 13.3459C17.3156 13.6741 17.5 14.1192 17.5 14.5833V16.9167C17.5 17.3808 17.3156 17.8259 16.9874 18.1541C16.6592 18.4823 16.2141 18.6667 15.75 18.6667ZM12.25 14C12.0953 14 11.9469 14.0615 11.8375 14.1709C11.7281 14.2802 11.6667 14.4286 11.6667 14.5833V16.9167C11.6667 17.0714 11.7281 17.2197 11.8375 17.3291C11.9469 17.4385 12.0953 17.5 12.25 17.5H15.75C15.9047 17.5 16.0531 17.4385 16.1625 17.3291C16.2719 17.2197 16.3333 17.0714 16.3333 16.9167V14.5833C16.3333 14.4286 16.2719 14.2802 16.1625 14.1709C16.0531 14.0615 15.9047 14 15.75 14H12.25Z" fill="#1E90FF"/>
<path d="M7.58333 18.6667H4.08333C3.6192 18.6667 3.17408 18.4823 2.8459 18.1541C2.51771 17.8259 2.33333 17.3808 2.33333 16.9167V14.5833C2.33333 14.1192 2.51771 13.6741 2.8459 13.3459C3.17408 13.0177 3.6192 12.8333 4.08333 12.8333H7.58333C8.04746 12.8333 8.49258 13.0177 8.82077 13.3459C9.14896 13.6741 9.33333 14.1192 9.33333 14.5833V16.9167C9.33333 17.3808 9.14896 17.8259 8.82077 18.1541C8.49258 18.4823 8.04746 18.6667 7.58333 18.6667ZM4.08333 14C3.92862 14 3.78025 14.0615 3.67085 14.1709C3.56146 14.2802 3.5 14.4286 3.5 14.5833V16.9167C3.5 17.0714 3.56146 17.2197 3.67085 17.3291C3.78025 17.4385 3.92862 17.5 4.08333 17.5H7.58333C7.73804 17.5 7.88642 17.4385 7.99581 17.3291C8.10521 17.2197 8.16667 17.0714 8.16667 16.9167V14.5833C8.16667 14.4286 8.10521 14.2802 7.99581 14.1709C7.88642 14.0615 7.73804 14 7.58333 14H4.08333Z" fill="#1E90FF"/>
<path d="M23.9167 18.6667H20.4167C19.9525 18.6667 19.5074 18.4823 19.1792 18.1541C18.851 17.8259 18.6667 17.3808 18.6667 16.9167V14.5833C18.6667 14.1192 18.851 13.6741 19.1792 13.3459C19.5074 13.0177 19.9525 12.8333 20.4167 12.8333H23.9167C24.3808 12.8333 24.8259 13.0177 25.1541 13.3459C25.4823 13.6741 25.6667 14.1192 25.6667 14.5833V16.9167C25.6667 17.3808 25.4823 17.8259 25.1541 18.1541C24.8259 18.4823 24.3808 18.6667 23.9167 18.6667ZM20.4167 14C20.262 14 20.1136 14.0615 20.0042 14.1709C19.8948 14.2802 19.8333 14.4286 19.8333 14.5833V16.9167C19.8333 17.0714 19.8948 17.2197 20.0042 17.3291C20.1136 17.4385 20.262 17.5 20.4167 17.5H23.9167C24.0714 17.5 24.2197 17.4385 24.3291 17.3291C24.4385 17.2197 24.5 17.0714 24.5 16.9167V14.5833C24.5 14.4286 24.4385 14.2802 24.3291 14.1709C24.2197 14.0615 24.0714 14 23.9167 14H20.4167Z" fill="#1E90FF"/>
<path d="M23.9167 10.5H4.08333C3.6192 10.5 3.17408 10.3156 2.8459 9.98744C2.51771 9.65925 2.33333 9.21413 2.33333 8.75V4.08333C2.33333 3.6192 2.51771 3.17409 2.8459 2.8459C3.17408 2.51771 3.6192 2.33333 4.08333 2.33333H23.9167C24.3808 2.33333 24.8259 2.51771 25.1541 2.8459C25.4823 3.17409 25.6667 3.6192 25.6667 4.08333V8.75C25.6667 9.21413 25.4823 9.65925 25.1541 9.98744C24.8259 10.3156 24.3808 10.5 23.9167 10.5ZM4.08333 3.5C3.92862 3.5 3.78025 3.56146 3.67085 3.67085C3.56146 3.78025 3.5 3.92862 3.5 4.08333V8.75C3.5 8.90471 3.56146 9.05308 3.67085 9.16248C3.78025 9.27188 3.92862 9.33333 4.08333 9.33333H23.9167C24.0714 9.33333 24.2197 9.27188 24.3291 9.16248C24.4385 9.05308 24.5 8.90471 24.5 8.75V4.08333C24.5 3.92862 24.4385 3.78025 24.3291 3.67085C24.2197 3.56146 24.0714 3.5 23.9167 3.5H4.08333Z" fill="#1E90FF"/>
<path d="M22.1667 8.75C21.7025 8.75 21.2574 8.56563 20.9292 8.23744C20.601 7.90925 20.4167 7.46413 20.4167 7V5.83333C20.4167 5.3692 20.601 4.92408 20.9292 4.5959C21.2574 4.26771 21.7025 4.08333 22.1667 4.08333C22.6308 4.08333 23.0759 4.26771 23.4041 4.5959C23.7323 4.92408 23.9167 5.3692 23.9167 5.83333V7C23.9167 7.46413 23.7323 7.90925 23.4041 8.23744C23.0759 8.56563 22.6308 8.75 22.1667 8.75ZM22.1667 5.25C22.012 5.25 21.8636 5.31146 21.7542 5.42085C21.6448 5.53025 21.5833 5.67862 21.5833 5.83333V7C21.5833 7.15471 21.6448 7.30308 21.7542 7.41248C21.8636 7.52187 22.012 7.58333 22.1667 7.58333C22.3214 7.58333 22.4697 7.52187 22.5791 7.41248C22.6885 7.30308 22.75 7.15471 22.75 7V5.83333C22.75 5.67862 22.6885 5.53025 22.5791 5.42085C22.4697 5.31146 22.3214 5.25 22.1667 5.25Z" fill="#1E90FF"/>
</svg>
