<svg width="37" height="37" viewBox="0 0 37 37" fill="none" xmlns="http://www.w3.org/2000/svg">
<path d="M24.5426 32.8034C24.7969 32.6958 24.9159 32.4024 24.8083 32.1481C24.7008 31.8938 24.4074 31.7748 24.1531 31.8824L24.5426 32.8034ZM10.5011 6.37572C10.7315 6.22343 10.7947 5.91323 10.6424 5.68288C10.4902 5.45253 10.18 5.38925 9.94961 5.54155L10.5011 6.37572ZM11.8758 4.45693C11.6261 4.57491 11.5194 4.87294 11.6373 5.12262C11.7553 5.37229 12.0534 5.47905 12.303 5.36107L11.8758 4.45693ZM26.0306 30.9211C25.7946 31.0645 25.7195 31.3721 25.8629 31.6081C26.0063 31.8441 26.3138 31.9191 26.5498 31.7757L26.0306 30.9211ZM19 3.54695C19 3.2708 18.7761 3.04695 18.5 3.04695C18.2239 3.04695 18 3.2708 18 3.54695H19ZM18 5.86652C18 6.14267 18.2239 6.36652 18.5 6.36652C18.7761 6.36652 19 6.14267 19 5.86652H18ZM29.4269 8.28014C29.6222 8.08488 29.6222 7.76829 29.4269 7.57303C29.2317 7.37778 28.9151 7.37778 28.7198 7.57305L29.4269 8.28014ZM27.0797 9.21326C26.8844 9.40853 26.8844 9.72511 27.0797 9.92037C27.275 10.1156 27.5915 10.1156 27.7868 9.92035L27.0797 9.21326ZM33.4531 19C33.7292 19 33.9531 18.7761 33.9531 18.5C33.9531 18.2239 33.7292 18 33.4531 18V19ZM31.1335 18C30.8573 18 30.6335 18.2239 30.6335 18.5C30.6335 18.7761 30.8573 19 31.1335 19V18ZM28.7198 29.4269C28.9151 29.6222 29.2317 29.6222 29.4269 29.427C29.6222 29.2317 29.6222 28.9151 29.4269 28.7199L28.7198 29.4269ZM27.7868 27.0796C27.5915 26.8844 27.275 26.8844 27.0797 27.0796C26.8844 27.2749 26.8844 27.5915 27.0797 27.7867L27.7868 27.0796ZM18 33.453C18 33.7292 18.2239 33.953 18.5 33.953C18.7761 33.953 19 33.7292 19 33.453H18ZM19 31.1335C19 30.8573 18.7761 30.6335 18.5 30.6335C18.2239 30.6335 18 30.8573 18 31.1335H19ZM7.57305 28.7199C7.37779 28.9151 7.3778 29.2317 7.57307 29.427C7.76833 29.6222 8.08492 29.6222 8.28017 29.4269L7.57305 28.7199ZM9.92031 27.7867C10.1156 27.5915 10.1156 27.2749 9.9203 27.0796C9.72503 26.8844 9.40845 26.8844 9.21319 27.0796L9.92031 27.7867ZM3.54694 18C3.27079 18 3.04694 18.2239 3.04694 18.5C3.04694 18.7761 3.27079 19 3.54694 19V18ZM5.86651 19C6.14266 19 6.36651 18.7761 6.36651 18.5C6.36651 18.2239 6.14266 18 5.86651 18V19ZM8.28017 7.57305C8.08492 7.37778 7.76833 7.37778 7.57307 7.57303C7.3778 7.76829 7.37779 8.08487 7.57305 8.28014L8.28017 7.57305ZM9.21319 9.92035C9.40845 10.1156 9.72503 10.1156 9.9203 9.92037C10.1156 9.72511 10.1156 9.40853 9.92031 9.21326L9.21319 9.92035ZM25.252 12.2513C25.4473 12.0561 25.4473 11.7395 25.252 11.5442C25.0568 11.349 24.7402 11.349 24.5449 11.5442L25.252 12.2513ZM18.8934 17.1958C18.6981 17.391 18.6981 17.7076 18.8934 17.9029C19.0886 18.0981 19.4052 18.0981 19.6005 17.9029L18.8934 17.1958ZM14.9061 13.9953C14.7108 13.8 14.3943 13.8 14.199 13.9953C14.0037 14.1906 14.0037 14.5071 14.199 14.7024L14.9061 13.9953ZM17.3995 17.9029C17.5948 18.0982 17.9113 18.0982 18.1066 17.9029C18.3019 17.7076 18.3019 17.3911 18.1066 17.1958L17.3995 17.9029ZM16.6338 23.5634C16.3577 23.5634 16.1338 23.7872 16.1338 24.0634C16.1338 24.3395 16.3577 24.5634 16.6338 24.5634V23.5634ZM20.3662 24.5634C20.6423 24.5634 20.8662 24.3395 20.8662 24.0634C20.8662 23.7872 20.6423 23.5634 20.3662 23.5634V24.5634ZM35.5 18.5C35.5 27.8889 27.8889 35.5 18.5 35.5V36.5C28.4411 36.5 36.5 28.4411 36.5 18.5H35.5ZM18.5 35.5C9.11114 35.5 1.5 27.8889 1.5 18.5H0.5C0.5 28.4411 8.55886 36.5 18.5 36.5V35.5ZM1.5 18.5C1.5 9.11114 9.11114 1.5 18.5 1.5V0.5C8.55886 0.5 0.5 8.55886 0.5 18.5H1.5ZM18.5 1.5C27.8889 1.5 35.5 9.11114 35.5 18.5H36.5C36.5 8.55886 28.4411 0.5 18.5 0.5V1.5ZM24.1531 31.8824C22.4162 32.617 20.5062 33.0235 18.5 33.0235V34.0235C20.6424 34.0235 22.6847 33.5892 24.5426 32.8034L24.1531 31.8824ZM18.5 33.0235C10.4789 33.0235 3.97649 26.5211 3.97649 18.5H2.97649C2.97649 27.0734 9.92661 34.0235 18.5 34.0235V33.0235ZM3.97649 18.5C3.97649 13.4352 6.56876 8.97554 10.5011 6.37572L9.94961 5.54155C5.74914 8.31863 2.97649 13.0854 2.97649 18.5H3.97649ZM12.303 5.36107C14.1819 4.47324 16.2823 3.97653 18.5 3.97653V2.97653C16.1315 2.97653 13.8855 3.50729 11.8758 4.45693L12.303 5.36107ZM18.5 3.97653C26.5211 3.97653 33.0235 10.4789 33.0235 18.5H34.0235C34.0235 9.92659 27.0734 2.97653 18.5 2.97653V3.97653ZM33.0235 18.5C33.0235 23.7633 30.224 28.3732 26.0306 30.9211L26.5498 31.7757C31.0293 29.054 34.0235 24.1269 34.0235 18.5H33.0235ZM18 3.54695V5.86652H19V3.54695H18ZM28.7198 7.57305L27.0797 9.21326L27.7868 9.92035L29.4269 8.28014L28.7198 7.57305ZM33.4531 18H31.1335V19H33.4531V18ZM29.4269 28.7199L27.7868 27.0796L27.0797 27.7867L28.7198 29.4269L29.4269 28.7199ZM19 33.453V31.1335H18V33.453H19ZM8.28017 29.4269L9.92031 27.7867L9.21319 27.0796L7.57305 28.7199L8.28017 29.4269ZM3.54694 19H5.86651V18H3.54694V19ZM7.57305 8.28014L9.21319 9.92035L9.92031 9.21326L8.28017 7.57305L7.57305 8.28014ZM19.0563 18.2963C19.0563 18.6035 18.8072 18.8526 18.5 18.8526V19.8526C19.3595 19.8526 20.0563 19.1558 20.0563 18.2963H19.0563ZM18.5 18.8526C18.1928 18.8526 17.9437 18.6035 17.9437 18.2963H16.9437C16.9437 19.1558 17.6405 19.8526 18.5 19.8526V18.8526ZM17.9437 18.2963C17.9437 17.989 18.1928 17.7399 18.5 17.7399V16.7399C17.6405 16.7399 16.9437 17.4368 16.9437 18.2963H17.9437ZM18.5 17.7399C18.8072 17.7399 19.0563 17.989 19.0563 18.2963H20.0563C20.0563 17.4368 19.3595 16.7399 18.5 16.7399V17.7399ZM24.5449 11.5442L18.8934 17.1958L19.6005 17.9029L25.252 12.2513L24.5449 11.5442ZM14.199 14.7024L17.3995 17.9029L18.1066 17.1958L14.9061 13.9953L14.199 14.7024ZM16.6338 24.5634H20.3662V23.5634H16.6338V24.5634Z" fill="#1E90FF"/>
</svg>
