<svg width="38" height="26" viewBox="0 0 38 26" fill="none" xmlns="http://www.w3.org/2000/svg">
<path d="M37.9999 3.27799H0V6.05561H37.9999V3.27799Z" fill="#F5F5F5"/>
<path d="M37.9999 8.83323H0V11.6109H37.9999V8.83323Z" fill="#F5F5F5"/>
<path d="M37.9999 14.3892H0V17.1668H37.9999V14.3892Z" fill="#F5F5F5"/>
<path d="M37.9999 17.1668H0V19.9445H37.9999V17.1668Z" fill="#41479B"/>
<path d="M37.9999 19.9445H0V22.7221H37.9999V19.9445Z" fill="#F5F5F5"/>
<path d="M0.655202 25.5H37.3448C37.7066 25.5 38 25.2054 38 24.8421V22.7222H0V24.8421C0 25.2055 0.293386 25.5 0.655202 25.5Z" fill="#41479B"/>
<path d="M37.9999 3.27784V1.15792C37.9999 0.794605 37.7065 0.5 37.3447 0.5H0.655202C0.293386 0.500075 0 0.794605 0 1.15792V6.05561V8.83323V14.3889H37.9999V11.6112H13.1034V8.83338H37.9999V6.05561H13.1034V3.27784H37.9999Z" fill="#41479B"/>
<path d="M13.1034 6.05561H7.93486V0.500074H5.16858V6.05561H0V8.83338H5.16858V14.3889H7.93486V8.83338H13.1034V6.05561Z" fill="#F5F5F5"/>
</svg>
