<svg width="38" height="26" viewBox="0 0 38 26" fill="none" xmlns="http://www.w3.org/2000/svg">
<path d="M0.655202 25.5H37.3448C37.7066 25.5 38 25.2054 38 24.8421V1.15792C38 0.794605 37.7066 0.5 37.3448 0.5H0.655202C0.293386 0.500075 0 0.794605 0 1.15792V24.8421C0 25.2055 0.293386 25.5 0.655202 25.5Z" fill="#C8414B"/>
<path d="M37.9999 5.76347H0V20.2374H37.9999V5.76347Z" fill="#FFD250"/>
<path d="M16.0517 13L16.6072 10.4899C16.6584 10.2587 16.4832 10.0395 16.2473 10.0395H15.8561C15.6203 10.0395 15.4451 10.2587 15.4962 10.4899L16.0517 13Z" fill="#C8414B"/>
<path d="M16.707 11.6839H15.3967V17.2757H16.707V11.6839Z" fill="#F5F5F5"/>
<path d="M17.0341 11.0266H15.0686V11.6845H17.0341V11.0266Z" fill="#FAB446"/>
<path d="M17.0347 13H13.7586V13.658H17.0347V13Z" fill="#C8414B"/>
<path d="M17.0344 15.6316L15.0689 14.9737V14.3158L17.0344 14.9737V15.6316Z" fill="#C8414B"/>
<path d="M6.22412 13L6.77965 10.4899C6.83086 10.2587 6.65563 10.0395 6.41976 10.0395H6.02848C5.79269 10.0395 5.61753 10.2587 5.66859 10.4899L6.22412 13Z" fill="#C8414B"/>
<path d="M8.51725 11.0263C8.15544 11.0263 7.86205 11.3209 7.86205 11.6843V15.9605C7.86205 16.7598 8.60498 18.2632 11.1379 18.2632C13.6708 18.2632 14.4138 16.7599 14.4138 15.9605V11.6843C14.4138 11.3209 14.1204 11.0263 13.7586 11.0263H8.51725Z" fill="#F5F5F5"/>
<path d="M11.1379 14.3158H7.86205V11.6843C7.86205 11.3209 8.15544 11.0263 8.51725 11.0263H11.1379V14.3158Z" fill="#C8414B"/>
<path d="M11.1379 14.3158H14.4138V15.9605C14.4138 16.869 13.6805 17.6053 12.7758 17.6053C11.8712 17.6053 11.1379 16.869 11.1379 15.9605V14.3158Z" fill="#C8414B"/>
<path d="M7.86205 14.3158H11.1379V15.9605C11.1379 16.869 10.4046 17.6053 9.49998 17.6053C8.59533 17.6053 7.86205 16.869 7.86205 15.9605V14.3158Z" fill="#FAB446"/>
<path d="M10.4827 17.2689V14.3158H9.82751V17.5721C10.0712 17.5225 10.2914 17.4141 10.4827 17.2689Z" fill="#C8414B"/>
<path d="M9.17238 17.5721V14.3158H8.51718V17.2689C8.70852 17.4141 8.92872 17.5225 9.17238 17.5721Z" fill="#C8414B"/>
<path d="M10.4829 13H8.51733V13.658H10.4829V13Z" fill="#FFB441"/>
<path d="M10.4829 11.6839H8.51733V12.3418H10.4829V11.6839Z" fill="#FAB446"/>
<path d="M10.155 12.0752H8.84463V13.267H10.155V12.0752Z" fill="#FAB446"/>
<path d="M6.87895 11.6839H5.56862V17.2757H6.87895V11.6839Z" fill="#F5F5F5"/>
<path d="M7.20685 16.9477H5.24132V17.6057H7.20685V16.9477Z" fill="#FAB446"/>
<path d="M7.20685 11.0266H5.24132V11.6845H7.20685V11.0266Z" fill="#FAB446"/>
<path d="M7.53467 17.6051H4.91401V18.263H7.53467V17.6051Z" fill="#5064AA"/>
<path d="M17.3622 16.9477H15.3967V17.6057H17.3622V16.9477Z" fill="#FAB446"/>
<path d="M17.362 17.6051H14.7413V18.263H17.362V17.6051Z" fill="#5064AA"/>
<path d="M13.1037 10.3685H9.17268V11.0264H13.1037V10.3685Z" fill="#FAB446"/>
<path d="M11.4659 8.39501H10.8107V10.3687H11.4659V8.39501Z" fill="#FFB441"/>
<path d="M10.4827 9.3816C9.94077 9.3816 9.49998 8.93891 9.49998 8.39479C9.49998 7.85059 9.94084 7.40798 10.4827 7.40798C11.0247 7.40798 11.4654 7.85067 11.4654 8.39479C11.4655 8.93891 11.0247 9.3816 10.4827 9.3816ZM10.4827 8.06583C10.302 8.06583 10.1551 8.21324 10.1551 8.39479C10.1551 8.57626 10.3019 8.72375 10.4827 8.72375C10.6635 8.72375 10.8103 8.57634 10.8103 8.39479C10.8103 8.21332 10.6635 8.06583 10.4827 8.06583Z" fill="#F5F5F5"/>
<path d="M11.7931 9.3816C11.2512 9.3816 10.8104 8.93891 10.8104 8.39479C10.8104 7.85059 11.2512 7.40798 11.7931 7.40798C12.3351 7.40798 12.7758 7.85067 12.7758 8.39479C12.7758 8.93891 12.335 9.3816 11.7931 9.3816ZM11.7931 8.06583C11.6124 8.06583 11.4655 8.21324 11.4655 8.39479C11.4655 8.57626 11.6123 8.72375 11.7931 8.72375C11.9738 8.72375 12.1207 8.57634 12.1207 8.39479C12.1206 8.21332 11.9738 8.06583 11.7931 8.06583Z" fill="#F5F5F5"/>
<path d="M13.1034 10.0395C12.5615 10.0395 12.1207 9.59684 12.1207 9.05272C12.1207 8.50852 12.5616 8.0659 13.1034 8.0659C13.6454 8.0659 14.0862 8.50859 14.0862 9.05272C14.0862 9.59684 13.6453 10.0395 13.1034 10.0395ZM13.1034 8.72375C12.9227 8.72375 12.7758 8.87117 12.7758 9.05272C12.7758 9.23419 12.9226 9.38168 13.1034 9.38168C13.2842 9.38168 13.431 9.23426 13.431 9.05272C13.431 8.87117 13.2842 8.72375 13.1034 8.72375Z" fill="#F5F5F5"/>
<path d="M9.17238 10.0395C8.63044 10.0395 8.18965 9.59684 8.18965 9.05272C8.18965 8.50852 8.63051 8.0659 9.17238 8.0659C9.71432 8.0659 10.1551 8.50859 10.1551 9.05272C10.1552 9.59684 9.71432 10.0395 9.17238 10.0395ZM9.17238 8.72375C8.99166 8.72375 8.84478 8.87117 8.84478 9.05272C8.84478 9.23419 8.99158 9.38168 9.17238 9.38168C9.35318 9.38168 9.49998 9.23419 9.49998 9.05264C9.49998 8.87117 9.35318 8.72375 9.17238 8.72375Z" fill="#F5F5F5"/>
<path d="M13.1034 15.6316V15.9605C13.1034 16.1419 12.9565 16.2895 12.7758 16.2895C12.5952 16.2895 12.4482 16.1419 12.4482 15.9605V15.6316H13.1034ZM13.7586 14.9737H11.793V15.9605C11.793 16.5047 12.2339 16.9474 12.7758 16.9474C13.3177 16.9474 13.7585 16.5047 13.7585 15.9605L13.7586 14.9737Z" fill="#FAB446"/>
<path d="M12.7758 13.658C12.414 13.658 12.1206 13.3634 12.1206 13V12.3421C12.1206 11.9788 12.414 11.6842 12.7758 11.6842C13.1377 11.6842 13.431 11.9788 13.431 12.3421V13C13.431 13.3634 13.1377 13.658 12.7758 13.658Z" fill="#FFA0D2"/>
<path d="M11.138 15.3022C11.6807 15.3022 12.1207 14.8604 12.1207 14.3154C12.1207 13.7704 11.6807 13.3286 11.138 13.3286C10.5952 13.3286 10.1553 13.7704 10.1553 14.3154C10.1553 14.8604 10.5952 15.3022 11.138 15.3022Z" fill="#5064AA"/>
<path d="M11.4659 7.07887H10.8107V9.05257H11.4659V7.07887Z" fill="#FAB446"/>
<path d="M9.17238 10.3685L8.51718 9.71057L8.90096 9.32519C9.49419 8.72949 10.2989 8.39479 11.1379 8.39479C11.977 8.39479 12.7816 8.72949 13.3749 9.32519L13.7586 9.71057L13.1034 10.3685H9.17238Z" fill="#C8414B"/>
<path d="M11.138 10.0394C11.3189 10.0394 11.4656 9.8921 11.4656 9.71041C11.4656 9.52873 11.3189 9.38145 11.138 9.38145C10.9571 9.38145 10.8104 9.52873 10.8104 9.71041C10.8104 9.8921 10.9571 10.0394 11.138 10.0394Z" fill="#FFD250"/>
<path d="M9.82729 10.0394C10.0082 10.0394 10.1549 9.8921 10.1549 9.71041C10.1549 9.52873 10.0082 9.38145 9.82729 9.38145C9.64636 9.38145 9.49969 9.52873 9.49969 9.71041C9.49969 9.8921 9.64636 10.0394 9.82729 10.0394Z" fill="#FFD250"/>
<path d="M12.4479 10.0394C12.6289 10.0394 12.7755 9.8921 12.7755 9.71041C12.7755 9.52873 12.6289 9.38145 12.4479 9.38145C12.267 9.38145 12.1203 9.52873 12.1203 9.71041C12.1203 9.8921 12.267 10.0394 12.4479 10.0394Z" fill="#FFD250"/>
<path d="M8.51733 13H5.24132V13.658H8.51733V13Z" fill="#C8414B"/>
<path d="M5.24139 15.6316L7.20685 14.9737V14.3158L5.24139 14.9737V15.6316Z" fill="#C8414B"/>
</svg>
