<svg width="38" height="28" viewBox="0 0 38 28" fill="none" xmlns="http://www.w3.org/2000/svg">
<rect y="0.5" width="38" height="27" rx="2" fill="white"/>
<mask id="mask0_237_4498" style="mask-type:luminance" maskUnits="userSpaceOnUse" x="0" y="0" width="38" height="28">
<rect y="0.5" width="38" height="27" rx="2" fill="white"/>
</mask>
<g mask="url(#mask0_237_4498)">
<rect y="0.5" width="38" height="27" fill="#043CAE"/>
<path fill-rule="evenodd" clip-rule="evenodd" d="M17.7214 6.27282L19.001 5.90003L20.2805 6.27282L19.9057 5.00003L20.2805 3.72723L19.001 4.10003L17.7214 3.72723L18.0962 5.00003L17.7214 6.27282ZM17.7214 24.2728L19.001 23.9L20.2805 24.2728L19.9057 23L20.2805 21.7272L19.001 22.1L17.7214 21.7272L18.0962 23L17.7214 24.2728ZM28.0486 14.9L26.7691 15.2728L27.1438 14L26.7691 12.7272L28.0486 13.1L29.3281 12.7272L28.9534 14L29.3281 15.2728L28.0486 14.9ZM8.67383 15.2728L9.95335 14.9L11.2329 15.2728L10.8581 14L11.2329 12.7272L9.95335 13.1L8.67383 12.7272L9.04859 14L8.67383 15.2728ZM26.8364 10.4L25.5569 10.7728L25.9317 9.50003L25.5569 8.22723L26.8364 8.60003L28.116 8.22723L27.7412 9.50003L28.116 10.7728L26.8364 10.4ZM9.88598 19.7728L11.1655 19.4L12.445 19.7728L12.0703 18.5L12.445 17.2272L11.1655 17.6L9.88598 17.2272L10.2607 18.5L9.88598 19.7728ZM23.5248 7.1058L22.2453 7.47859L22.62 6.2058L22.2453 4.93301L23.5248 5.3058L24.8043 4.93301L24.4295 6.2058L24.8043 7.47859L23.5248 7.1058ZM13.1976 23.067L14.4772 22.6943L15.7567 23.067L15.3819 21.7943L15.7567 20.5215L14.4772 20.8943L13.1976 20.5215L13.5724 21.7943L13.1976 23.067ZM26.8364 19.4L25.5569 19.7728L25.9317 18.5L25.5569 17.2272L26.8364 17.6L28.116 17.2272L27.7412 18.5L28.116 19.7728L26.8364 19.4ZM9.88598 10.7728L11.1655 10.4L12.445 10.7728L12.0703 9.50003L12.445 8.22723L11.1655 8.60003L9.88598 8.22723L10.2607 9.50003L9.88598 10.7728ZM23.5248 22.6943L22.2453 23.067L22.62 21.7943L22.2453 20.5215L23.5248 20.8943L24.8043 20.5215L24.4295 21.7943L24.8043 23.067L23.5248 22.6943ZM13.1976 7.47859L14.4772 7.1058L15.7567 7.47859L15.3819 6.2058L15.7567 4.93301L14.4772 5.3058L13.1976 4.93301L13.5724 6.2058L13.1976 7.47859Z" fill="#FFD429"/>
</g>
</svg>
