<svg width="39" height="26" viewBox="0 0 39 26" fill="none" xmlns="http://www.w3.org/2000/svg">
<path d="M37.4999 25.5H0.657924C0.294605 25.5 0 25.2054 0 24.8421V1.15792C0 0.794605 0.294605 0.5 0.657924 0.5H37.5C37.8633 0.5 38.1579 0.794605 38.1579 1.15792V24.8421C38.1578 25.2055 37.8632 25.5 37.4999 25.5Z" fill="#41479B"/>
<path d="M18.421 0.500074H17.2782L11.1841 4.49278V0.500074H7.89464V4.49278L1.80057 0.500074L0.657924 0.5C0.294605 0.5 0 0.794605 0 1.15792V1.67976L5.22844 5.10525H0V8.39472H5.22844L0 11.8203V12.3421C0 12.7054 0.294605 13 0.657924 13H1.80072L7.89479 9.00733V13H11.1843V9.00733L17.2783 13H18.4211C18.7844 13 19.079 12.7054 19.079 12.3421V11.8203L13.8505 8.39479H19.0789V5.10532H13.8505L19.0789 1.67984V1.158C19.0789 0.794605 18.7843 0.500074 18.421 0.500074Z" fill="#F5F5F5"/>
<path d="M19.0789 5.76324H10.5263V0.500074H8.55264V5.76324H0V7.73687H8.55264V13H10.5263V7.73687H19.0789V5.76324Z" fill="#FF4B55"/>
<path d="M7.23679 5.10532L0.313535 0.611269C0.129304 0.727829 0 0.92376 0 1.15792V1.19206L6.02841 5.10532H7.23679Z" fill="#FF4B55"/>
<path d="M12.3926 5.10532L18.9788 0.830006C18.8643 0.63631 18.6624 0.500074 18.421 0.500074H18.2787L11.1842 5.10532H12.3926Z" fill="#FF4B55"/>
<path d="M6.66823 8.39479L0.0945747 12.6619C0.20793 12.8603 0.413028 13 0.657924 13H0.782012L7.87668 8.39479H6.66823Z" fill="#FF4B55"/>
<path d="M19.0685 12.3938L12.9076 8.39479H11.6992L18.6954 12.9361C18.905 12.8388 19.0487 12.635 19.0685 12.3938Z" fill="#FF4B55"/>
<path d="M9.73851 16.587L10.2351 18.2264L11.8265 17.5925C11.9622 17.5384 12.0857 17.6933 12.0028 17.8136L11.0307 19.2239L12.5184 20.0729C12.6453 20.1453 12.6012 20.3383 12.4555 20.3485L10.7466 20.4679L11.0105 22.1604C11.033 22.3048 10.8546 22.3907 10.7558 22.283L9.59706 21.0215L8.43832 22.283C8.33949 22.3907 8.16108 22.3047 8.18358 22.1604L8.44748 20.4679L6.73865 20.3485C6.59288 20.3383 6.54883 20.1453 6.67575 20.0729L8.16346 19.2239L7.19133 17.8136C7.10846 17.6933 7.23187 17.5384 7.36766 17.5925L8.95904 18.2264L9.45561 16.587C9.49816 16.4471 9.69618 16.4471 9.73851 16.587Z" fill="#F5F5F5"/>
<path d="M29.3099 4.93093L29.5525 5.73172L30.3298 5.42213C30.396 5.39575 30.4564 5.47132 30.4159 5.53012L29.9411 6.21913L30.6678 6.63387C30.7298 6.6692 30.7082 6.76355 30.637 6.76846L29.8023 6.82674L29.9312 7.65347C29.9422 7.72405 29.855 7.76601 29.8067 7.71339L29.2407 7.09713L28.6746 7.71339C28.6263 7.76593 28.5392 7.72398 28.5502 7.65347L28.679 6.82674L27.8443 6.76846C27.7731 6.76355 27.7515 6.6692 27.8135 6.63387L28.5403 6.21913L28.0654 5.53012C28.0249 5.47132 28.0853 5.39575 28.1515 5.42213L28.9288 5.73172L29.1714 4.93093C29.1924 4.86259 29.2892 4.86259 29.3099 4.93093Z" fill="#F5F5F5"/>
<path d="M23.9009 11.0776L24.1435 11.8784L24.9208 11.5688C24.9871 11.5424 25.0475 11.618 25.0069 11.6768L24.5321 12.3658L25.2588 12.7806C25.3208 12.8159 25.2993 12.9102 25.228 12.9152L24.3933 12.9734L24.5222 13.8002C24.5332 13.8707 24.446 13.9127 24.3977 13.8601L23.8317 13.2438L23.2657 13.8601C23.2174 13.9126 23.1303 13.8707 23.1412 13.8002L23.2701 12.9734L22.4354 12.9152C22.3641 12.9102 22.3426 12.8159 22.4046 12.7806L23.1313 12.3658L22.6565 11.6768C22.616 11.618 22.6763 11.5424 22.7426 11.5688L23.5199 11.8784L23.7625 11.0776C23.7835 11.0093 23.8802 11.0093 23.9009 11.0776Z" fill="#F5F5F5"/>
<path d="M34.4272 8.44599L34.6698 9.24679L35.4471 8.9372C35.5134 8.91082 35.5737 8.98639 35.5332 9.04519L35.0584 9.73419L35.7851 10.1489C35.8471 10.1843 35.8256 10.2786 35.7543 10.2835L34.9196 10.3418L35.0485 11.1685C35.0595 11.2391 34.9723 11.2811 34.9241 11.2285L34.3581 10.6122L33.792 11.2285C33.7437 11.281 33.6566 11.239 33.6676 11.1685L33.7964 10.3418L32.9617 10.2835C32.8905 10.2786 32.8689 10.1843 32.9309 10.1489L33.6576 9.73419L33.1828 9.04519C33.1423 8.98639 33.2027 8.91082 33.2689 8.9372L34.0462 9.24679L34.2888 8.44599C34.3098 8.37765 34.4065 8.37765 34.4272 8.44599Z" fill="#F5F5F5"/>
<path d="M29.3099 18.9723L29.5525 19.7731L30.3298 19.4635C30.396 19.4371 30.4564 19.5127 30.4159 19.5715L29.9411 20.2605L30.6678 20.6752C30.7298 20.7105 30.7082 20.8049 30.637 20.8098L29.8023 20.8681L29.9312 21.6948C29.9422 21.7654 29.855 21.8073 29.8067 21.7547L29.2407 21.1385L28.6746 21.7547C28.6263 21.8073 28.5392 21.7653 28.5502 21.6948L28.679 20.8681L27.8443 20.8098C27.7731 20.8049 27.7515 20.7105 27.8135 20.6752L28.5403 20.2605L28.0654 19.5715C28.0249 19.5127 28.0853 19.4371 28.1515 19.4635L28.9288 19.7731L29.1714 18.9723C29.1924 18.904 29.2892 18.904 29.3099 18.9723Z" fill="#F5F5F5"/>
<path d="M31.1866 12.5166L30.9919 13.1006L30.3764 13.1053C30.2967 13.106 30.2636 13.2077 30.3278 13.255L30.8229 13.6207L30.6372 14.2076C30.6132 14.2836 30.6997 14.3464 30.7645 14.3001L31.2653 13.9421L31.7662 14.3001C31.831 14.3464 31.9174 14.2835 31.8934 14.2076L31.7077 13.6207L32.2029 13.255C32.267 13.2076 32.234 13.106 32.1543 13.1053L31.5388 13.1006L31.344 12.5166C31.3188 12.4409 31.2118 12.4409 31.1866 12.5166Z" fill="#F5F5F5"/>
</svg>
