<svg width="22" height="22" viewBox="0 0 22 22" fill="none" xmlns="http://www.w3.org/2000/svg">
<rect x="0.5" y="0.5" width="21" height="21" rx="10.5" stroke="#1E90FF"/>
<path d="M9.61719 13.1582V12.7246C9.61719 12.459 9.6543 12.2246 9.72852 12.0215C9.80273 11.8145 9.92188 11.6191 10.0859 11.4355C10.25 11.248 10.4668 11.0566 10.7363 10.8613C10.9785 10.6895 11.1719 10.5352 11.3164 10.3984C11.4648 10.2617 11.5723 10.127 11.6387 9.99414C11.709 9.85742 11.7441 9.70312 11.7441 9.53125C11.7441 9.27734 11.6504 9.08398 11.4629 8.95117C11.2754 8.81836 11.0137 8.75195 10.6777 8.75195C10.3418 8.75195 10.0078 8.80469 9.67578 8.91016C9.34766 9.01562 9.01367 9.1543 8.67383 9.32617L8.03516 8.04297C8.42578 7.82422 8.84961 7.64844 9.30664 7.51562C9.76367 7.37891 10.2637 7.31055 10.8066 7.31055C11.6426 7.31055 12.2891 7.51172 12.7461 7.91406C13.207 8.3125 13.4375 8.82031 13.4375 9.4375C13.4375 9.76562 13.3848 10.0508 13.2793 10.293C13.1777 10.5312 13.0215 10.7539 12.8105 10.9609C12.6035 11.1641 12.3438 11.3789 12.0312 11.6055C11.7969 11.7773 11.6172 11.9219 11.4922 12.0391C11.3672 12.1562 11.2812 12.2734 11.2344 12.3906C11.1914 12.5039 11.1699 12.6426 11.1699 12.8066V13.1582H9.61719ZM9.42969 15.1621C9.42969 14.7949 9.5293 14.5371 9.72852 14.3887C9.93164 14.2402 10.1758 14.166 10.4609 14.166C10.7383 14.166 10.9766 14.2402 11.1758 14.3887C11.3789 14.5371 11.4805 14.7949 11.4805 15.1621C11.4805 15.5137 11.3789 15.7676 11.1758 15.9238C10.9766 16.0801 10.7383 16.1582 10.4609 16.1582C10.1758 16.1582 9.93164 16.0801 9.72852 15.9238C9.5293 15.7676 9.42969 15.5137 9.42969 15.1621Z" fill="#1E90FF"/>
</svg>
