<svg width="30" height="40" viewBox="0 0 30 40" fill="none" xmlns="http://www.w3.org/2000/svg">
<path d="M7.86482 2.9397C9.9544 1.70802 12.3937 1 15 1C22.732 1 29 7.22434 29 14.9024C29 19.5246 26.728 23.6194 23.2329 26.1469C21.7842 27.1945 21.2364 28.2379 21.2225 29.6755M8.77755 29.6755C8.7637 28.2379 8.21583 27.1945 6.76722 26.1469C3.27197 23.6194 1 19.5246 1 14.9024C1 12.3142 1.71299 9.89144 2.95354 7.81658M11.4997 32.8212H8.77781M8.77781 32.8212C7.92217 32.8212 7.22217 32.1261 7.22217 31.2765C7.22217 30.4269 7.92217 29.7318 8.77781 29.7318H21.2223C22.0778 29.7318 22.7778 30.4269 22.7778 31.2765C22.7778 32.1261 22.0778 32.8212 21.2223 32.8212M8.77781 32.8212C7.92225 32.8212 7.22225 33.5163 7.22225 34.3659C7.22225 35.2155 7.92217 35.9106 8.7778 35.9106H21.2222C22.0778 35.9106 22.7778 35.2155 22.7778 34.3659C22.7778 33.5163 22.0778 32.8212 21.2223 32.8212M21.2223 32.8212H18.4997M21.2222 36.1037V37.4553C21.2222 38.3047 20.5221 39 19.6667 39H10.3334C9.47796 39 8.7778 38.3049 8.7778 37.4553V36.1037M5.10052 5.07189H5.10107M14.9995 32.8212H15M16.6293 18.664C16.6293 19.5575 15.8998 20.2819 15 20.2819C14.1001 20.2819 13.3707 19.5575 13.3707 18.664C13.3707 16.4093 13.5187 16.2656 15.6507 14.1937C15.7986 14.0499 15.9587 13.8944 16.1319 13.725C16.2811 13.579 16.4019 13.403 16.4848 13.2062C16.5638 13.0191 16.6074 12.8095 16.6074 12.5852C16.6074 12.1443 16.4275 11.7452 16.1368 11.4565C15.8459 11.1677 15.4441 10.9891 15 10.9891C14.6963 10.9891 14.4148 11.0699 14.1765 11.2106C13.9255 11.3587 13.7194 11.5696 13.5818 11.8202C13.1531 12.602 12.1671 12.8906 11.3798 12.4648C10.5924 12.039 10.3018 11.0599 10.7307 10.2781C11.1513 9.51174 11.7719 8.87215 12.5216 8.42974C13.25 8.00008 14.0977 7.75324 15 7.75324C16.3435 7.75324 17.5599 8.29412 18.4406 9.16866C19.3212 10.043 19.866 11.2511 19.866 12.5852C19.866 13.2403 19.7317 13.8689 19.4888 14.445C19.2374 15.0411 18.8685 15.5774 18.4104 16.0255C18.2371 16.1949 18.0771 16.3505 17.9291 16.4941C16.7136 17.6754 16.6293 17.7573 16.6293 18.664ZM15.0001 25.8349C15.8975 25.8349 16.6293 25.1081 16.6293 24.217C16.6293 23.3259 15.8975 22.5991 15.0001 22.5991C14.1027 22.5991 13.3708 23.3259 13.3708 24.217C13.3708 25.1081 14.1027 25.8349 15.0001 25.8349Z" stroke="#1E90FF" stroke-miterlimit="2.613" stroke-linecap="round" stroke-linejoin="round"/>
</svg>
