<svg width="28" height="20" viewBox="0 0 28 20" fill="none" xmlns="http://www.w3.org/2000/svg">
<path d="M27.5172 19.5H0.48278C0.216179 19.5 0 19.2761 0 19V1.00002C0 0.7239 0.216179 0.5 0.48278 0.5H27.5172C27.7838 0.5 28 0.7239 28 1.00002V19C27.9999 19.2762 27.7838 19.5 27.5172 19.5Z" fill="#F5F5F5"/>
<path d="M27.9999 1.96161H0V1.00002C0 0.7239 0.216179 0.5 0.48278 0.5H27.5172C27.7838 0.5 28 0.7239 28 1.00002L27.9999 1.96161Z" fill="#FF4B55"/>
<path d="M27.9999 6.34615H0V7.8077H27.9999V6.34615Z" fill="#FF4B55"/>
<path d="M27.9999 3.42293H0V4.88448H27.9999V3.42293Z" fill="#FF4B55"/>
<path d="M27.9999 10.7308H0.48278C0.216179 10.7308 0 10.5069 0 10.2308V9.2692H27.9999V10.7308Z" fill="#FF4B55"/>
<path d="M27.9999 15.1158H0V16.5773H27.9999V15.1158Z" fill="#FF4B55"/>
<path d="M27.5172 19.5H0.48278C0.216179 19.5 0 19.2761 0 19V18.0384H27.9999V19C27.9999 19.2762 27.7838 19.5 27.5172 19.5Z" fill="#FF4B55"/>
<path d="M27.9999 12.1926H0V13.6541H27.9999V12.1926Z" fill="#FF4B55"/>
<path d="M12.5517 0.500057L0.48278 0.5C0.216179 0.5 0 0.7239 0 1.00002V10.2307C0 10.5068 0.216179 10.7307 0.48278 10.7307H12.5517C12.8183 10.7307 13.0345 10.5068 13.0345 10.2307V1.00002C13.0345 0.7239 12.8183 0.500057 12.5517 0.500057Z" fill="#41479B"/>
<path d="M1.35565 1.64765L1.46251 1.97956L1.80031 1.98223C1.84406 1.98262 1.86216 2.0404 1.827 2.0673L1.55525 2.27517L1.65719 2.60873C1.67043 2.65189 1.6229 2.68768 1.5873 2.66129L1.3125 2.45789L1.03769 2.66134C1.00209 2.68768 0.954678 2.65194 0.967803 2.60878L1.06974 2.27523L0.797999 2.06736C0.762835 2.0404 0.780936 1.98268 0.824686 1.98228L1.16249 1.97962L1.26935 1.64771C1.28313 1.60466 1.34176 1.60466 1.35565 1.64765Z" fill="#F5F5F5"/>
<path d="M1.35565 3.38391L1.46251 3.71582L1.80031 3.71848C1.84406 3.71888 1.86216 3.77665 1.827 3.80356L1.55525 4.01143L1.65719 4.34498C1.67043 4.38814 1.6229 4.42394 1.5873 4.39755L1.3125 4.19415L1.03769 4.3976C1.00209 4.42394 0.954678 4.3882 0.967803 4.34504L1.06974 4.01148L0.797999 3.80361C0.762835 3.77665 0.780936 3.71894 0.824686 3.71854L1.16249 3.71588L1.26935 3.38396C1.28313 3.34097 1.34176 3.34097 1.35565 3.38391Z" fill="#F5F5F5"/>
<path d="M1.35565 5.12017L1.46251 5.45208L1.80031 5.45474C1.84406 5.45514 1.86216 5.51291 1.827 5.53982L1.55525 5.74769L1.65719 6.08124C1.67043 6.1244 1.6229 6.1602 1.5873 6.1338L1.3125 5.93041L1.03769 6.13386C1.00209 6.1602 0.954678 6.12446 0.967803 6.0813L1.06974 5.74774L0.797999 5.53987C0.762835 5.51291 0.780936 5.45519 0.824686 5.4548L1.16249 5.45214L1.26935 5.12022C1.28313 5.07723 1.34176 5.07723 1.35565 5.12017Z" fill="#F5F5F5"/>
<path d="M1.35565 6.85648L1.46251 7.18839L1.80031 7.19106C1.84406 7.19145 1.86216 7.24923 1.827 7.27613L1.55525 7.484L1.65719 7.81756C1.67043 7.86072 1.6229 7.89651 1.5873 7.87012L1.3125 7.66672L1.03769 7.87018C1.00209 7.89651 0.954678 7.86077 0.967803 7.81761L1.06974 7.48406L0.797999 7.27619C0.762835 7.24923 0.780936 7.19151 0.824686 7.19111L1.16249 7.18845L1.26935 6.85654C1.28313 6.81349 1.34176 6.81349 1.35565 6.85648Z" fill="#F5F5F5"/>
<path d="M1.35565 8.59274L1.46251 8.92465L1.80031 8.92731C1.84406 8.92771 1.86216 8.98548 1.827 9.01239L1.55525 9.22026L1.65719 9.55381C1.67043 9.59697 1.6229 9.63277 1.5873 9.60638L1.3125 9.40298L1.03769 9.60643C1.00209 9.63277 0.954678 9.59703 0.967803 9.55387L1.06974 9.22032L0.797999 9.01244C0.762835 8.98548 0.780936 8.92777 0.824686 8.92737L1.16249 8.92471L1.26935 8.5928C1.28313 8.54969 1.34176 8.54969 1.35565 8.59274Z" fill="#F5F5F5"/>
<path d="M2.65682 2.4989L2.76368 2.83081L3.10149 2.83348C3.14524 2.83387 3.16334 2.89165 3.12817 2.91855L2.85643 3.12642L2.95837 3.45998C2.9716 3.50314 2.92408 3.53893 2.88848 3.51254L2.61367 3.30909L2.33887 3.51254C2.30327 3.53888 2.25586 3.50314 2.26898 3.45998L2.37092 3.12642L2.09918 2.91855C2.06401 2.89159 2.08211 2.83387 2.12586 2.83348L2.46367 2.83081L2.57053 2.4989C2.58425 2.45597 2.64299 2.45597 2.65682 2.4989Z" fill="#F5F5F5"/>
<path d="M2.65682 4.23521L2.76368 4.56713L3.10149 4.56979C3.14524 4.57019 3.16334 4.62796 3.12817 4.65486L2.85643 4.86273L2.95837 5.19629C2.9716 5.23945 2.92408 5.27525 2.88848 5.24885L2.61367 5.0454L2.33887 5.24885C2.30327 5.27519 2.25586 5.23951 2.26898 5.19629L2.37092 4.86273L2.09918 4.65486C2.06401 4.6279 2.08211 4.57019 2.12586 4.56979L2.46367 4.56713L2.57053 4.23521C2.58425 4.19222 2.64299 4.19222 2.65682 4.23521Z" fill="#F5F5F5"/>
<path d="M2.65682 5.97147L2.76368 6.30339L3.10149 6.30605C3.14524 6.30645 3.16334 6.36422 3.12817 6.39112L2.85643 6.59899L2.95837 6.93255C2.9716 6.97571 2.92408 7.01151 2.88848 6.98511L2.61367 6.78166L2.33887 6.98511C2.30327 7.01145 2.25586 6.97571 2.26898 6.93255L2.37092 6.59899L2.09918 6.39112C2.06401 6.36416 2.08211 6.30645 2.12586 6.30605L2.46367 6.30339L2.57053 5.97147C2.58425 5.92848 2.64299 5.92848 2.65682 5.97147Z" fill="#F5F5F5"/>
<path d="M2.65682 7.70773L2.76368 8.03964L3.10149 8.04231C3.14524 8.0427 3.16334 8.10048 3.12817 8.12738L2.85643 8.33525L2.95837 8.66881C2.9716 8.71197 2.92408 8.74776 2.88848 8.72137L2.61367 8.51792L2.33887 8.72137C2.30327 8.74771 2.25586 8.71197 2.26898 8.66881L2.37092 8.33525L2.09918 8.12738C2.06401 8.10042 2.08211 8.0427 2.12586 8.04231L2.46367 8.03964L2.57053 7.70773C2.58425 7.6648 2.64299 7.6648 2.65682 7.70773Z" fill="#F5F5F5"/>
<path d="M3.958 1.64765L4.06486 1.97956L4.40266 1.98223C4.44641 1.98262 4.46452 2.04039 4.42935 2.0673L4.15761 2.27517L4.25955 2.60873C4.27278 2.65189 4.22526 2.68768 4.18966 2.66129L3.91485 2.45784L3.64005 2.66129C3.60445 2.68763 3.55703 2.65189 3.57016 2.60873L3.67209 2.27517L3.40035 2.0673C3.36519 2.04034 3.38329 1.98262 3.42704 1.98223L3.76484 1.97956L3.8717 1.64765C3.88548 1.60466 3.94416 1.60466 3.958 1.64765Z" fill="#F5F5F5"/>
<path d="M3.958 3.38391L4.06486 3.71582L4.40266 3.71848C4.44641 3.71888 4.46452 3.77665 4.42935 3.80356L4.15761 4.01143L4.25955 4.34498C4.27278 4.38814 4.22526 4.42394 4.18966 4.39755L3.91485 4.19409L3.64005 4.39755C3.60445 4.42388 3.55703 4.38814 3.57016 4.34498L3.67209 4.01143L3.40035 3.80356C3.36519 3.7766 3.38329 3.71888 3.42704 3.71848L3.76484 3.71582L3.8717 3.38391C3.88548 3.34097 3.94416 3.34097 3.958 3.38391Z" fill="#F5F5F5"/>
<path d="M3.958 5.12017L4.06486 5.45208L4.40266 5.45474C4.44641 5.45514 4.46452 5.51291 4.42935 5.53982L4.15761 5.74769L4.25955 6.08124C4.27278 6.1244 4.22526 6.1602 4.18966 6.1338L3.91485 5.93035L3.64005 6.1338C3.60445 6.16014 3.55703 6.1244 3.57016 6.08124L3.67209 5.74769L3.40035 5.53982C3.36519 5.51285 3.38329 5.45514 3.42704 5.45474L3.76484 5.45208L3.8717 5.12017C3.88548 5.07723 3.94416 5.07723 3.958 5.12017Z" fill="#F5F5F5"/>
<path d="M3.958 6.85648L4.06486 7.18839L4.40266 7.19106C4.44641 7.19145 4.46452 7.24923 4.42935 7.27613L4.15761 7.484L4.25955 7.81756C4.27278 7.86072 4.22526 7.89651 4.18966 7.87012L3.91485 7.66667L3.64005 7.87012C3.60445 7.89646 3.55703 7.86072 3.57016 7.81756L3.67209 7.484L3.40035 7.27613C3.36519 7.24917 3.38329 7.19145 3.42704 7.19106L3.76484 7.18839L3.8717 6.85648C3.88548 6.81349 3.94416 6.81349 3.958 6.85648Z" fill="#F5F5F5"/>
<path d="M3.958 8.59274L4.06486 8.92465L4.40266 8.92731C4.44641 8.92771 4.46452 8.98548 4.42935 9.01239L4.15761 9.22026L4.25955 9.55381C4.27278 9.59697 4.22526 9.63277 4.18966 9.60638L3.91485 9.40292L3.64005 9.60638C3.60445 9.63271 3.55703 9.59697 3.57016 9.55381L3.67209 9.22026L3.40035 9.01239C3.36519 8.98543 3.38329 8.92771 3.42704 8.92731L3.76484 8.92465L3.8717 8.59274C3.88548 8.54969 3.94416 8.54969 3.958 8.59274Z" fill="#F5F5F5"/>
<path d="M5.25923 2.4989L5.36609 2.83081L5.7039 2.83348C5.74765 2.83387 5.76575 2.89165 5.73058 2.91855L5.45884 3.12642L5.56078 3.45998C5.57401 3.50314 5.52649 3.53893 5.49089 3.51254L5.21608 3.30909L4.94128 3.51254C4.90568 3.53888 4.85826 3.50314 4.87139 3.45998L4.97333 3.12642L4.70159 2.91855C4.66642 2.89159 4.68452 2.83387 4.72827 2.83348L5.06608 2.83081L5.17294 2.4989C5.18666 2.45597 5.2454 2.45597 5.25923 2.4989Z" fill="#F5F5F5"/>
<path d="M5.25923 4.23521L5.36609 4.56713L5.7039 4.56979C5.74765 4.57019 5.76575 4.62796 5.73058 4.65486L5.45884 4.86273L5.56078 5.19629C5.57401 5.23945 5.52649 5.27525 5.49089 5.24885L5.21608 5.0454L4.94128 5.24885C4.90568 5.27519 4.85826 5.23951 4.87139 5.19629L4.97333 4.86273L4.70159 4.65486C4.66642 4.6279 4.68452 4.57019 4.72827 4.56979L5.06608 4.56713L5.17294 4.23521C5.18666 4.19222 5.2454 4.19222 5.25923 4.23521Z" fill="#F5F5F5"/>
<path d="M5.25923 5.97147L5.36609 6.30339L5.7039 6.30605C5.74765 6.30645 5.76575 6.36422 5.73058 6.39112L5.45884 6.59899L5.56078 6.93255C5.57401 6.97571 5.52649 7.01151 5.49089 6.98511L5.21608 6.78166L4.94128 6.98511C4.90568 7.01145 4.85826 6.97571 4.87139 6.93255L4.97333 6.59899L4.70159 6.39112C4.66642 6.36416 4.68452 6.30645 4.72827 6.30605L5.06608 6.30339L5.17294 5.97147C5.18666 5.92848 5.2454 5.92848 5.25923 5.97147Z" fill="#F5F5F5"/>
<path d="M5.25923 7.70773L5.36609 8.03964L5.7039 8.04231C5.74765 8.0427 5.76575 8.10048 5.73058 8.12738L5.45884 8.33525L5.56078 8.66881C5.57401 8.71197 5.52649 8.74776 5.49089 8.72137L5.21608 8.51792L4.94128 8.72137C4.90568 8.74771 4.85826 8.71197 4.87139 8.66881L4.97333 8.33525L4.70159 8.12738C4.66642 8.10042 4.68452 8.0427 4.72827 8.04231L5.06608 8.03964L5.17294 7.70773C5.18666 7.6648 5.2454 7.6648 5.25923 7.70773Z" fill="#F5F5F5"/>
<path d="M6.56041 1.64765L6.66727 1.97956L7.00507 1.98223C7.04882 1.98262 7.06692 2.04039 7.03176 2.0673L6.76002 2.27517L6.86196 2.60873C6.87519 2.65189 6.82767 2.68768 6.79207 2.66129L6.51721 2.45784L6.2424 2.66129C6.2068 2.68763 6.15939 2.65189 6.17251 2.60873L6.27445 2.27517L6.00271 2.0673C5.96754 2.04034 5.98565 1.98262 6.0294 1.98223L6.3672 1.97956L6.47406 1.64765C6.48789 1.60466 6.54657 1.60466 6.56041 1.64765Z" fill="#F5F5F5"/>
<path d="M6.56041 3.38391L6.66727 3.71582L7.00507 3.71848C7.04882 3.71888 7.06692 3.77665 7.03176 3.80356L6.76002 4.01143L6.86196 4.34498C6.87519 4.38814 6.82767 4.42394 6.79207 4.39755L6.51721 4.19409L6.2424 4.39755C6.2068 4.42388 6.15939 4.38814 6.17251 4.34498L6.27445 4.01143L6.00271 3.80356C5.96754 3.7766 5.98565 3.71888 6.0294 3.71848L6.3672 3.71582L6.47406 3.38391C6.48789 3.34097 6.54657 3.34097 6.56041 3.38391Z" fill="#F5F5F5"/>
<path d="M6.56041 5.12017L6.66727 5.45208L7.00507 5.45474C7.04882 5.45514 7.06692 5.51291 7.03176 5.53982L6.76002 5.74769L6.86196 6.08124C6.87519 6.1244 6.82767 6.1602 6.79207 6.1338L6.51721 5.93035L6.2424 6.1338C6.2068 6.16014 6.15939 6.1244 6.17251 6.08124L6.27445 5.74769L6.00271 5.53982C5.96754 5.51285 5.98565 5.45514 6.0294 5.45474L6.3672 5.45208L6.47406 5.12017C6.48789 5.07723 6.54657 5.07723 6.56041 5.12017Z" fill="#F5F5F5"/>
<path d="M6.56041 6.85648L6.66727 7.18839L7.00507 7.19106C7.04882 7.19145 7.06692 7.24923 7.03176 7.27613L6.76002 7.484L6.86196 7.81756C6.87519 7.86072 6.82767 7.89651 6.79207 7.87012L6.51721 7.66667L6.2424 7.87012C6.2068 7.89646 6.15939 7.86072 6.17251 7.81756L6.27445 7.484L6.00271 7.27613C5.96754 7.24917 5.98565 7.19145 6.0294 7.19106L6.3672 7.18839L6.47406 6.85648C6.48789 6.81349 6.54657 6.81349 6.56041 6.85648Z" fill="#F5F5F5"/>
<path d="M6.56041 8.59274L6.66727 8.92465L7.00507 8.92731C7.04882 8.92771 7.06692 8.98548 7.03176 9.01239L6.76002 9.22026L6.86196 9.55381C6.87519 9.59697 6.82767 9.63277 6.79207 9.60638L6.51721 9.40292L6.2424 9.60638C6.2068 9.63271 6.15939 9.59697 6.17251 9.55381L6.27445 9.22026L6.00271 9.01239C5.96754 8.98543 5.98565 8.92771 6.0294 8.92731L6.3672 8.92465L6.47406 8.59274C6.48789 8.54969 6.54657 8.54969 6.56041 8.59274Z" fill="#F5F5F5"/>
<path d="M7.86159 2.4989L7.96845 2.83081L8.30625 2.83348C8.35 2.83387 8.3681 2.89165 8.33294 2.91855L8.0612 3.12642L8.16313 3.45998C8.17637 3.50314 8.12884 3.53893 8.09324 3.51254L7.81844 3.30909L7.54363 3.51254C7.50803 3.53888 7.46062 3.50314 7.47374 3.45998L7.57568 3.12642L7.30394 2.91855C7.26878 2.89159 7.28688 2.83387 7.33063 2.83348L7.66843 2.83081L7.77529 2.4989C7.78913 2.45597 7.84775 2.45597 7.86159 2.4989Z" fill="#F5F5F5"/>
<path d="M7.86159 4.23521L7.96845 4.56713L8.30625 4.56979C8.35 4.57019 8.3681 4.62796 8.33294 4.65486L8.0612 4.86273L8.16313 5.19629C8.17637 5.23945 8.12884 5.27525 8.09324 5.24885L7.81844 5.0454L7.54363 5.24885C7.50803 5.27519 7.46062 5.23951 7.47374 5.19629L7.57568 4.86273L7.30394 4.65486C7.26878 4.6279 7.28688 4.57019 7.33063 4.56979L7.66843 4.56713L7.77529 4.23521C7.78913 4.19222 7.84775 4.19222 7.86159 4.23521Z" fill="#F5F5F5"/>
<path d="M7.86159 5.97147L7.96845 6.30339L8.30625 6.30605C8.35 6.30645 8.3681 6.36422 8.33294 6.39112L8.0612 6.59899L8.16313 6.93255C8.17637 6.97571 8.12884 7.01151 8.09324 6.98511L7.81844 6.78166L7.54363 6.98511C7.50803 7.01145 7.46062 6.97571 7.47374 6.93255L7.57568 6.59899L7.30394 6.39112C7.26878 6.36416 7.28688 6.30645 7.33063 6.30605L7.66843 6.30339L7.77529 5.97147C7.78913 5.92848 7.84775 5.92848 7.86159 5.97147Z" fill="#F5F5F5"/>
<path d="M7.86159 7.70773L7.96845 8.03964L8.30625 8.04231C8.35 8.0427 8.3681 8.10048 8.33294 8.12738L8.0612 8.33525L8.16313 8.66881C8.17637 8.71197 8.12884 8.74776 8.09324 8.72137L7.81844 8.51792L7.54363 8.72137C7.50803 8.74771 7.46062 8.71197 7.47374 8.66881L7.57568 8.33525L7.30394 8.12738C7.26878 8.10042 7.28688 8.0427 7.33063 8.04231L7.66843 8.03964L7.77529 7.70773C7.78913 7.6648 7.84775 7.6648 7.86159 7.70773Z" fill="#F5F5F5"/>
<path d="M9.16282 1.64765L9.26968 1.97956L9.60748 1.98223C9.65123 1.98262 9.66933 2.04039 9.63417 2.0673L9.36243 2.27517L9.46437 2.60873C9.4776 2.65189 9.43008 2.68768 9.39447 2.66129L9.11967 2.45784L8.84487 2.66129C8.80927 2.68763 8.76185 2.65189 8.77498 2.60873L8.87691 2.27517L8.60517 2.0673C8.57001 2.04034 8.58811 1.98262 8.63186 1.98223L8.96966 1.97956L9.07652 1.64765C9.09025 1.60466 9.14898 1.60466 9.16282 1.64765Z" fill="#F5F5F5"/>
<path d="M9.16282 3.38391L9.26968 3.71582L9.60748 3.71848C9.65123 3.71888 9.66933 3.77665 9.63417 3.80356L9.36243 4.01143L9.46437 4.34498C9.4776 4.38814 9.43008 4.42394 9.39447 4.39755L9.11967 4.19409L8.84487 4.39755C8.80927 4.42388 8.76185 4.38814 8.77498 4.34498L8.87691 4.01143L8.60517 3.80356C8.57001 3.7766 8.58811 3.71888 8.63186 3.71848L8.96966 3.71582L9.07652 3.38391C9.09025 3.34097 9.14898 3.34097 9.16282 3.38391Z" fill="#F5F5F5"/>
<path d="M9.16282 5.12017L9.26968 5.45208L9.60748 5.45474C9.65123 5.45514 9.66933 5.51291 9.63417 5.53982L9.36243 5.74769L9.46437 6.08124C9.4776 6.1244 9.43008 6.1602 9.39447 6.1338L9.11967 5.93035L8.84487 6.1338C8.80927 6.16014 8.76185 6.1244 8.77498 6.08124L8.87691 5.74769L8.60517 5.53982C8.57001 5.51285 8.58811 5.45514 8.63186 5.45474L8.96966 5.45208L9.07652 5.12017C9.09025 5.07723 9.14898 5.07723 9.16282 5.12017Z" fill="#F5F5F5"/>
<path d="M9.16282 6.85648L9.26968 7.18839L9.60748 7.19106C9.65123 7.19145 9.66933 7.24923 9.63417 7.27613L9.36243 7.484L9.46437 7.81756C9.4776 7.86072 9.43008 7.89651 9.39447 7.87012L9.11967 7.66667L8.84487 7.87012C8.80927 7.89646 8.76185 7.86072 8.77498 7.81756L8.87691 7.484L8.60517 7.27613C8.57001 7.24917 8.58811 7.19145 8.63186 7.19106L8.96966 7.18839L9.07652 6.85648C9.09025 6.81349 9.14898 6.81349 9.16282 6.85648Z" fill="#F5F5F5"/>
<path d="M9.16282 8.59274L9.26968 8.92465L9.60748 8.92731C9.65123 8.92771 9.66933 8.98548 9.63417 9.01239L9.36243 9.22026L9.46437 9.55381C9.4776 9.59697 9.43008 9.63277 9.39447 9.60638L9.11967 9.40292L8.84487 9.60638C8.80927 9.63271 8.76185 9.59697 8.77498 9.55381L8.87691 9.22026L8.60517 9.01239C8.57001 8.98543 8.58811 8.92771 8.63186 8.92731L8.96966 8.92465L9.07652 8.59274C9.09025 8.54969 9.14898 8.54969 9.16282 8.59274Z" fill="#F5F5F5"/>
<path d="M10.464 2.4989L10.5709 2.83081L10.9087 2.83348C10.9524 2.83387 10.9705 2.89165 10.9353 2.91855L10.6636 3.12642L10.7655 3.45998C10.7788 3.50314 10.7313 3.53893 10.6957 3.51254L10.4208 3.30909L10.146 3.51254C10.1104 3.53888 10.063 3.50314 10.0762 3.45998L10.1781 3.12642L9.90635 2.91855C9.87119 2.89159 9.88929 2.83387 9.93304 2.83348L10.2708 2.83081L10.3777 2.4989C10.3915 2.45597 10.4502 2.45597 10.464 2.4989Z" fill="#F5F5F5"/>
<path d="M10.464 4.23521L10.5709 4.56713L10.9087 4.56979C10.9524 4.57019 10.9705 4.62796 10.9353 4.65486L10.6636 4.86273L10.7655 5.19629C10.7788 5.23945 10.7313 5.27525 10.6957 5.24885L10.4208 5.0454L10.146 5.24885C10.1104 5.27519 10.063 5.23951 10.0762 5.19629L10.1781 4.86273L9.90635 4.65486C9.87119 4.6279 9.88929 4.57019 9.93304 4.56979L10.2708 4.56713L10.3777 4.23521C10.3915 4.19222 10.4502 4.19222 10.464 4.23521Z" fill="#F5F5F5"/>
<path d="M10.464 5.97147L10.5709 6.30339L10.9087 6.30605C10.9524 6.30645 10.9705 6.36422 10.9353 6.39112L10.6636 6.59899L10.7655 6.93255C10.7788 6.97571 10.7313 7.01151 10.6957 6.98511L10.4208 6.78166L10.146 6.98511C10.1104 7.01145 10.063 6.97571 10.0762 6.93255L10.1781 6.59899L9.90635 6.39112C9.87119 6.36416 9.88929 6.30645 9.93304 6.30605L10.2708 6.30339L10.3777 5.97147C10.3915 5.92848 10.4502 5.92848 10.464 5.97147Z" fill="#F5F5F5"/>
<path d="M10.464 7.70773L10.5709 8.03964L10.9087 8.04231C10.9524 8.0427 10.9705 8.10048 10.9353 8.12738L10.6636 8.33525L10.7655 8.66881C10.7788 8.71197 10.7313 8.74776 10.6957 8.72137L10.4208 8.51792L10.146 8.72137C10.1104 8.74771 10.063 8.71197 10.0762 8.66881L10.1781 8.33525L9.90635 8.12738C9.87119 8.10042 9.88929 8.0427 9.93304 8.04231L10.2708 8.03964L10.3777 7.70773C10.3915 7.6648 10.4502 7.6648 10.464 7.70773Z" fill="#F5F5F5"/>
<path d="M11.7652 1.64765L11.8721 1.97956L12.2099 1.98223C12.2536 1.98262 12.2717 2.04039 12.2366 2.0673L11.9648 2.27517L12.0668 2.60873C12.08 2.65189 12.0325 2.68768 11.9969 2.66129L11.7221 2.45784L11.4473 2.66129C11.4117 2.68763 11.3643 2.65189 11.3774 2.60873L11.4793 2.27517L11.2076 2.0673C11.1724 2.04034 11.1905 1.98262 11.2343 1.98223L11.5721 1.97956L11.6789 1.64765C11.6927 1.60466 11.7513 1.60466 11.7652 1.64765Z" fill="#F5F5F5"/>
<path d="M11.7652 3.38391L11.8721 3.71582L12.2099 3.71848C12.2536 3.71888 12.2717 3.77665 12.2366 3.80356L11.9648 4.01143L12.0668 4.34498C12.08 4.38814 12.0325 4.42394 11.9969 4.39755L11.7221 4.19409L11.4473 4.39755C11.4117 4.42388 11.3643 4.38814 11.3774 4.34498L11.4793 4.01143L11.2076 3.80356C11.1724 3.7766 11.1905 3.71888 11.2343 3.71848L11.5721 3.71582L11.6789 3.38391C11.6927 3.34097 11.7513 3.34097 11.7652 3.38391Z" fill="#F5F5F5"/>
<path d="M11.7652 5.12017L11.8721 5.45208L12.2099 5.45474C12.2536 5.45514 12.2717 5.51291 12.2366 5.53982L11.9648 5.74769L12.0668 6.08124C12.08 6.1244 12.0325 6.1602 11.9969 6.1338L11.7221 5.93035L11.4473 6.1338C11.4117 6.16014 11.3643 6.1244 11.3774 6.08124L11.4793 5.74769L11.2076 5.53982C11.1724 5.51285 11.1905 5.45514 11.2343 5.45474L11.5721 5.45208L11.6789 5.12017C11.6927 5.07723 11.7513 5.07723 11.7652 5.12017Z" fill="#F5F5F5"/>
<path d="M11.7652 6.85648L11.8721 7.18839L12.2099 7.19106C12.2536 7.19145 12.2717 7.24923 12.2366 7.27613L11.9648 7.484L12.0668 7.81756C12.08 7.86072 12.0325 7.89651 11.9969 7.87012L11.7221 7.66667L11.4473 7.87012C11.4117 7.89646 11.3643 7.86072 11.3774 7.81756L11.4793 7.484L11.2076 7.27613C11.1724 7.24917 11.1905 7.19145 11.2343 7.19106L11.5721 7.18839L11.6789 6.85648C11.6927 6.81349 11.7513 6.81349 11.7652 6.85648Z" fill="#F5F5F5"/>
<path d="M11.7652 8.59274L11.8721 8.92465L12.2099 8.92731C12.2536 8.92771 12.2717 8.98548 12.2366 9.01239L11.9648 9.22026L12.0668 9.55381C12.08 9.59697 12.0325 9.63277 11.9969 9.60638L11.7221 9.40292L11.4473 9.60638C11.4117 9.63271 11.3643 9.59697 11.3774 9.55381L11.4793 9.22026L11.2076 9.01239C11.1724 8.98543 11.1905 8.92771 11.2343 8.92731L11.5721 8.92465L11.6789 8.59274C11.6927 8.54969 11.7513 8.54969 11.7652 8.59274Z" fill="#F5F5F5"/>
</svg>
