<svg width="8" height="6" viewBox="0 0 8 6" fill="none" xmlns="http://www.w3.org/2000/svg">
<path d="M3.68784 5.22271L0.127804 1.66261C0.045398 1.58027 -3.58416e-08 1.47035 -3.07185e-08 1.35315C-2.55955e-08 1.23595 0.045398 1.12603 0.127804 1.04369L0.389915 0.781512C0.560711 0.610911 0.838302 0.610911 1.00884 0.781512L3.99834 3.77102L6.99116 0.778195C7.07357 0.695854 7.18342 0.650391 7.30056 0.650391C7.41783 0.650391 7.52768 0.695854 7.61015 0.778195L7.8722 1.04037C7.9546 1.12278 8 1.23263 8 1.34983C8 1.46703 7.9546 1.57695 7.8722 1.65929L4.30891 5.22271C4.22624 5.30525 4.11587 5.35058 3.99854 5.35032C3.88075 5.35058 3.77044 5.30525 3.68784 5.22271Z" fill="#0014b8"/>
</svg>
