<svg width="16" height="16" viewBox="0 0 23 23" fill="none" xmlns="http://www.w3.org/2000/svg">
<path d="M3.47542 23H19.5243C21.2067 23 22.5739 21.6328 22.5739 19.9504V4.75331C22.5739 3.07091 21.2067 1.70367 19.5243 1.70367H18.3147V0.851836C18.3147 0.383312 17.9313 0 17.4628 0C16.9943 0 16.6109 0.383312 16.6109 0.851836V1.70367H6.38878V0.851836C6.38878 0.383312 6.00539 0 5.53687 0C5.06834 0 4.68503 0.383312 4.68503 0.851836V1.70367H3.47542C1.79302 1.70367 0.425781 3.07091 0.425781 4.75331V19.9504C0.425781 21.6328 1.79302 23 3.47542 23ZM2.12952 4.75331C2.12952 4.01222 2.73433 3.40742 3.47542 3.40742H4.68503V4.25925C4.68503 4.72778 5.06834 5.11109 5.53687 5.11109C6.00539 5.11109 6.3887 4.72778 6.3887 4.25925V3.40742H16.6109V4.25925C16.6109 4.72778 16.9943 5.11109 17.4628 5.11109C17.9313 5.11109 18.3146 4.72778 18.3146 4.25925V3.40742H19.5242C20.2653 3.40742 20.8701 4.01222 20.8701 4.75331V7.24075H2.12952V4.75331ZM2.12952 8.94442H20.8703V19.9504C20.8703 20.6915 20.2655 21.2963 19.5244 21.2963H3.47542C2.73433 21.2963 2.12952 20.6915 2.12952 19.9504V8.94442Z" fill="white"/>
</svg>
