<svg width="46" height="30" viewBox="0 0 46 30" fill="none" xmlns="http://www.w3.org/2000/svg">
<path d="M39.668 0.292969H6.33463C3.34714 0.292969 0.917969 2.72422 0.917969 5.70964V24.4596C0.917969 27.4471 3.34922 29.8763 6.33463 29.8763H39.668C42.6555 29.8763 45.0846 27.4451 45.0846 24.4596V5.70964C45.0846 2.72214 42.6555 0.292969 39.668 0.292969ZM42.5846 24.4596C42.5846 26.068 41.2742 27.3763 39.668 27.3763H6.33463C4.7263 27.3763 3.41797 26.068 3.41797 24.4596V10.7805H42.5846V24.4596ZM42.5846 8.27839H3.41797V5.70964C3.41797 4.1013 4.7263 2.79297 6.33463 2.79297H39.668C41.2742 2.79297 42.5846 4.1013 42.5846 5.70964V8.27839ZM30.0846 22.2471C30.0846 21.5555 30.6451 20.9971 31.3346 20.9971H35.5013C36.1909 20.9971 36.7513 21.5576 36.7513 22.2471C36.7513 22.9367 36.1909 23.4971 35.5013 23.4971H31.3346C30.6451 23.4971 30.0846 22.9367 30.0846 22.2471Z" fill="black"/>
</svg>
