<svg width="12" height="12" viewBox="0 0 12 12" fill="none" xmlns="http://www.w3.org/2000/svg">
<path d="M7.77414 6.49805L6.76912 7.50647C6.36156 7.91545 5.64447 7.92427 5.2281 7.50647L4.22303 6.49805L0.613281 10.1195C0.747648 10.1816 0.895797 10.2187 1.0533 10.2187H10.9439C11.1014 10.2187 11.2495 10.1817 11.3838 10.1195L7.77414 6.49805Z" fill="#0014B8"/>
<path d="M10.9439 1.78125H1.05325C0.89575 1.78125 0.747602 1.81833 0.613281 1.88046L4.47055 5.75053C4.47081 5.75079 4.47112 5.75084 4.47137 5.75109C4.47163 5.75135 4.47168 5.7517 4.47168 5.7517L5.72589 7.01006C5.85911 7.14328 6.13806 7.14328 6.27128 7.01006L7.52523 5.75191C7.52523 5.75191 7.52554 5.75135 7.5258 5.75109C7.5258 5.75109 7.52636 5.75079 7.52662 5.75053L11.3838 1.88044C11.2495 1.81828 11.1014 1.78125 10.9439 1.78125Z" fill="#0014B8"/>
<path d="M0.112172 2.37305C0.0426562 2.51363 0 2.66967 0 2.83683V9.16495C0 9.33211 0.0426094 9.48816 0.112148 9.62873L3.72816 6.00101L0.112172 2.37305Z" fill="#0014B8"/>
<path d="M11.8874 2.37109L8.27148 5.9991L11.8874 9.62687C11.957 9.4863 11.9996 9.33025 11.9996 9.16305V2.83492C11.9996 2.66772 11.957 2.51167 11.8874 2.37109Z" fill="#0014B8"/>
</svg>
