<svg width="181" height="90" viewBox="0 0 181 90" fill="none" xmlns="http://www.w3.org/2000/svg">
<path d="M20.0391 43H3.59375V14.4453H20.0391V19.4062H9.64844V25.6758H19.3164V30.6367H9.64844V38H20.0391V43ZM34.0195 31.8477L26.9883 21.1641H33.7461L37.9844 28.1172L42.2617 21.1641H49.0195L41.9102 31.8477L49.3516 43H42.5742L37.9844 35.5195L33.375 43H26.6172L34.0195 31.8477ZM66.2617 14.4453C69.9466 14.4453 72.6354 15.2396 74.3281 16.8281C76.0208 18.4036 76.8672 20.5781 76.8672 23.3516C76.8672 24.6016 76.6784 25.7995 76.3008 26.9453C75.9232 28.0781 75.3047 29.0872 74.4453 29.9727C73.599 30.8581 72.4661 31.5612 71.0469 32.082C69.6276 32.5898 67.8763 32.8438 65.793 32.8438H63.1953V43H57.1406V14.4453H66.2617ZM65.9492 19.4062H63.1953V27.8828H65.1875C66.3203 27.8828 67.3034 27.7331 68.1367 27.4336C68.9701 27.1341 69.6146 26.6654 70.0703 26.0273C70.526 25.3893 70.7539 24.569 70.7539 23.5664C70.7539 22.1602 70.3633 21.1185 69.582 20.4414C68.8008 19.7513 67.5898 19.4062 65.9492 19.4062ZM97.9766 20.7539C98.276 20.7539 98.6211 20.7734 99.0117 20.8125C99.4154 20.8385 99.7409 20.8776 99.9883 20.9297L99.5391 26.5156C99.3438 26.4505 99.0638 26.4049 98.6992 26.3789C98.3477 26.3398 98.0417 26.3203 97.7812 26.3203C97.013 26.3203 96.2643 26.418 95.5352 26.6133C94.819 26.8086 94.1745 27.1276 93.6016 27.5703C93.0286 28 92.5729 28.5729 92.2344 29.2891C91.9089 29.9922 91.7461 30.8581 91.7461 31.8867V43H85.7891V21.1641H90.3008L91.1797 24.8359H91.4727C91.9023 24.0938 92.4362 23.4167 93.0742 22.8047C93.7253 22.1797 94.4609 21.6849 95.2812 21.3203C96.1146 20.9427 97.013 20.7539 97.9766 20.7539ZM116.957 20.7539C118.975 20.7539 120.714 21.1445 122.172 21.9258C123.63 22.694 124.757 23.8138 125.551 25.2852C126.345 26.7565 126.742 28.5534 126.742 30.6758V33.5664H112.66C112.725 35.2461 113.227 36.5677 114.164 37.5312C115.115 38.4818 116.43 38.957 118.109 38.957C119.503 38.957 120.779 38.8138 121.938 38.5273C123.096 38.2409 124.288 37.8112 125.512 37.2383V41.8477C124.431 42.3815 123.298 42.7721 122.113 43.0195C120.941 43.2669 119.516 43.3906 117.836 43.3906C115.648 43.3906 113.708 42.987 112.016 42.1797C110.336 41.3724 109.014 40.1419 108.051 38.4883C107.1 36.8346 106.625 34.7513 106.625 32.2383C106.625 29.6862 107.055 27.5638 107.914 25.8711C108.786 24.1654 109.997 22.8893 111.547 22.043C113.096 21.1836 114.9 20.7539 116.957 20.7539ZM116.996 24.9922C115.837 24.9922 114.874 25.3633 114.105 26.1055C113.35 26.8477 112.914 28.013 112.797 29.6016H121.156C121.143 28.7161 120.98 27.9284 120.668 27.2383C120.368 26.5482 119.913 26.0013 119.301 25.5977C118.702 25.194 117.934 24.9922 116.996 24.9922ZM150.82 36.5156C150.82 38 150.469 39.2565 149.766 40.2852C149.076 41.3008 148.04 42.0755 146.66 42.6094C145.28 43.1302 143.561 43.3906 141.504 43.3906C139.98 43.3906 138.672 43.293 137.578 43.0977C136.497 42.9023 135.404 42.5768 134.297 42.1211V37.1992C135.482 37.7331 136.751 38.1758 138.105 38.5273C139.473 38.8659 140.671 39.0352 141.699 39.0352C142.858 39.0352 143.685 38.8659 144.18 38.5273C144.688 38.1758 144.941 37.7201 144.941 37.1602C144.941 36.7956 144.837 36.4701 144.629 36.1836C144.434 35.8841 144.004 35.5521 143.34 35.1875C142.676 34.8099 141.634 34.3216 140.215 33.7227C138.848 33.1497 137.721 32.5703 136.836 31.9844C135.964 31.3984 135.312 30.7083 134.883 29.9141C134.466 29.1068 134.258 28.0846 134.258 26.8477C134.258 24.8294 135.039 23.3125 136.602 22.2969C138.177 21.2682 140.28 20.7539 142.91 20.7539C144.264 20.7539 145.553 20.8906 146.777 21.1641C148.014 21.4375 149.284 21.8737 150.586 22.4727L148.789 26.7695C147.708 26.3008 146.686 25.9167 145.723 25.6172C144.772 25.3177 143.802 25.168 142.812 25.168C141.94 25.168 141.283 25.2852 140.84 25.5195C140.397 25.7539 140.176 26.112 140.176 26.5938C140.176 26.9453 140.286 27.2578 140.508 27.5312C140.742 27.8047 141.185 28.1107 141.836 28.4492C142.5 28.7747 143.47 29.1979 144.746 29.7188C145.983 30.2266 147.057 30.7604 147.969 31.3203C148.88 31.8672 149.583 32.5508 150.078 33.3711C150.573 34.1784 150.82 35.2266 150.82 36.5156ZM174.703 36.5156C174.703 38 174.352 39.2565 173.648 40.2852C172.958 41.3008 171.923 42.0755 170.543 42.6094C169.163 43.1302 167.444 43.3906 165.387 43.3906C163.863 43.3906 162.555 43.293 161.461 43.0977C160.38 42.9023 159.286 42.5768 158.18 42.1211V37.1992C159.365 37.7331 160.634 38.1758 161.988 38.5273C163.355 38.8659 164.553 39.0352 165.582 39.0352C166.741 39.0352 167.568 38.8659 168.062 38.5273C168.57 38.1758 168.824 37.7201 168.824 37.1602C168.824 36.7956 168.72 36.4701 168.512 36.1836C168.316 35.8841 167.887 35.5521 167.223 35.1875C166.559 34.8099 165.517 34.3216 164.098 33.7227C162.73 33.1497 161.604 32.5703 160.719 31.9844C159.846 31.3984 159.195 30.7083 158.766 29.9141C158.349 29.1068 158.141 28.0846 158.141 26.8477C158.141 24.8294 158.922 23.3125 160.484 22.2969C162.06 21.2682 164.163 20.7539 166.793 20.7539C168.147 20.7539 169.436 20.8906 170.66 21.1641C171.897 21.4375 173.167 21.8737 174.469 22.4727L172.672 26.7695C171.591 26.3008 170.569 25.9167 169.605 25.6172C168.655 25.3177 167.685 25.168 166.695 25.168C165.823 25.168 165.165 25.2852 164.723 25.5195C164.28 25.7539 164.059 26.112 164.059 26.5938C164.059 26.9453 164.169 27.2578 164.391 27.5312C164.625 27.8047 165.068 28.1107 165.719 28.4492C166.383 28.7747 167.353 29.1979 168.629 29.7188C169.866 30.2266 170.94 30.7604 171.852 31.3203C172.763 31.8672 173.466 32.5508 173.961 33.3711C174.456 34.1784 174.703 35.2266 174.703 36.5156Z" fill="white"/>
<path d="M74.6328 65.6523C76.6348 65.6523 78.2314 66.3408 79.4229 67.7178C80.6143 69.0947 81.21 71.165 81.21 73.9287C81.21 75.7549 80.9365 77.2881 80.3896 78.5283C79.8428 79.7686 79.0713 80.7061 78.0752 81.3408C77.0889 81.9756 75.9219 82.293 74.5742 82.293C73.7246 82.293 72.9775 82.1807 72.333 81.9561C71.6885 81.7314 71.1367 81.4287 70.6777 81.0479C70.2188 80.667 69.8379 80.252 69.5352 79.8027H69.3594C69.3887 80.1836 69.4229 80.6426 69.4619 81.1797C69.5107 81.7168 69.5352 82.1855 69.5352 82.5859V89.1777H67.0889V65.9453H69.0957L69.418 68.3184H69.5352C69.8477 67.8301 70.2285 67.3857 70.6777 66.9854C71.127 66.5752 71.6738 66.2529 72.3184 66.0186C72.9727 65.7744 73.7441 65.6523 74.6328 65.6523ZM74.208 67.7031C73.0947 67.7031 72.1963 67.918 71.5127 68.3477C70.8389 68.7773 70.3457 69.4219 70.0332 70.2812C69.7207 71.1309 69.5547 72.2002 69.5352 73.4893V73.958C69.5352 75.3154 69.6816 76.4629 69.9746 77.4004C70.2773 78.3379 70.7705 79.0508 71.4541 79.5391C72.1475 80.0273 73.0752 80.2715 74.2373 80.2715C75.2334 80.2715 76.0635 80.0029 76.7275 79.4658C77.3916 78.9287 77.8848 78.1816 78.207 77.2246C78.5391 76.2578 78.7051 75.1494 78.7051 73.8994C78.7051 72.0049 78.334 70.501 77.5918 69.3877C76.8594 68.2646 75.7314 67.7031 74.208 67.7031ZM102.301 73.9434C102.301 75.2617 102.13 76.4385 101.788 77.4736C101.446 78.5088 100.953 79.3828 100.309 80.0957C99.6641 80.8086 98.8828 81.3555 97.9648 81.7363C97.0566 82.1074 96.0264 82.293 94.874 82.293C93.7998 82.293 92.8135 82.1074 91.915 81.7363C91.0264 81.3555 90.2549 80.8086 89.6006 80.0957C88.9561 79.3828 88.4531 78.5088 88.0918 77.4736C87.7402 76.4385 87.5645 75.2617 87.5645 73.9434C87.5645 72.1855 87.8623 70.6914 88.458 69.4609C89.0537 68.2207 89.9033 67.2783 91.0068 66.6338C92.1201 65.9795 93.4434 65.6523 94.9766 65.6523C96.4414 65.6523 97.7207 65.9795 98.8145 66.6338C99.918 67.2881 100.772 68.2354 101.378 69.4756C101.993 70.7061 102.301 72.1953 102.301 73.9434ZM90.084 73.9434C90.084 75.2324 90.2549 76.3506 90.5967 77.2979C90.9385 78.2451 91.4658 78.9775 92.1787 79.4951C92.8916 80.0127 93.8096 80.2715 94.9326 80.2715C96.0459 80.2715 96.959 80.0127 97.6719 79.4951C98.3945 78.9775 98.9268 78.2451 99.2686 77.2979C99.6104 76.3506 99.7812 75.2324 99.7812 73.9434C99.7812 72.6641 99.6104 71.5605 99.2686 70.6328C98.9268 69.6953 98.3994 68.9727 97.6865 68.4648C96.9736 67.957 96.0508 67.7031 94.918 67.7031C93.248 67.7031 92.0225 68.2549 91.2412 69.3584C90.4697 70.4619 90.084 71.9902 90.084 73.9434ZM119.891 77.6055C119.891 78.6309 119.632 79.4951 119.114 80.1982C118.606 80.8916 117.874 81.4141 116.917 81.7656C115.97 82.1172 114.837 82.293 113.519 82.293C112.396 82.293 111.424 82.2051 110.604 82.0293C109.783 81.8535 109.065 81.6045 108.45 81.2822V79.041C109.104 79.3633 109.886 79.6562 110.794 79.9199C111.702 80.1836 112.63 80.3154 113.577 80.3154C114.964 80.3154 115.97 80.0908 116.595 79.6416C117.22 79.1924 117.532 78.582 117.532 77.8105C117.532 77.3711 117.405 76.9854 117.151 76.6533C116.907 76.3115 116.492 75.9844 115.906 75.6719C115.32 75.3496 114.51 74.998 113.475 74.6172C112.449 74.2266 111.561 73.8408 110.809 73.46C110.066 73.0693 109.49 72.5957 109.08 72.0391C108.68 71.4824 108.479 70.7598 108.479 69.8711C108.479 68.5137 109.026 67.4736 110.12 66.751C111.224 66.0186 112.669 65.6523 114.456 65.6523C115.423 65.6523 116.326 65.75 117.166 65.9453C118.016 66.1309 118.807 66.3848 119.539 66.707L118.719 68.6553C118.055 68.3721 117.347 68.1328 116.595 67.9375C115.843 67.7422 115.076 67.6445 114.295 67.6445C113.172 67.6445 112.308 67.8301 111.702 68.2012C111.106 68.5723 110.809 69.0801 110.809 69.7246C110.809 70.2227 110.945 70.6328 111.219 70.9551C111.502 71.2773 111.951 71.5801 112.566 71.8633C113.182 72.1465 113.992 72.4785 114.998 72.8594C116.004 73.2305 116.873 73.6162 117.605 74.0166C118.338 74.4072 118.899 74.8857 119.29 75.4521C119.69 76.0088 119.891 76.7266 119.891 77.6055ZM129.233 59.207V66.0186C129.233 66.4092 129.224 66.8047 129.204 67.2051C129.185 67.5957 129.15 67.957 129.102 68.2891H129.263C129.595 67.7227 130.015 67.249 130.522 66.8682C131.04 66.4775 131.626 66.1846 132.28 65.9893C132.935 65.7842 133.628 65.6816 134.36 65.6816C135.649 65.6816 136.724 65.8867 137.583 66.2969C138.452 66.707 139.102 67.3418 139.531 68.2012C139.971 69.0605 140.19 70.1738 140.19 71.541V82H137.788V71.7021C137.788 70.3643 137.48 69.3633 136.865 68.6992C136.26 68.0352 135.327 67.7031 134.067 67.7031C132.876 67.7031 131.924 67.9326 131.211 68.3916C130.508 68.8408 130 69.5049 129.688 70.3838C129.385 71.2627 129.233 72.3369 129.233 73.6064V82H126.802V59.207H129.233ZM153.386 80.3008C153.786 80.3008 154.196 80.2666 154.616 80.1982C155.036 80.1299 155.378 80.0469 155.642 79.9492V81.8389C155.358 81.9658 154.963 82.0732 154.455 82.1611C153.957 82.249 153.469 82.293 152.99 82.293C152.141 82.293 151.369 82.1465 150.676 81.8535C149.982 81.5508 149.426 81.043 149.006 80.3301C148.596 79.6172 148.391 78.6309 148.391 77.3711V67.8496H146.105V66.6631L148.405 65.7109L149.372 62.2246H150.837V65.9453H155.539V67.8496H150.837V77.2979C150.837 78.3037 151.066 79.0557 151.525 79.5537C151.994 80.0518 152.614 80.3008 153.386 80.3008ZM167.899 65.6816C169.813 65.6816 171.234 66.1113 172.162 66.9707C173.09 67.8301 173.554 69.2021 173.554 71.0869V82H171.781L171.312 79.627H171.195C170.746 80.2129 170.277 80.7061 169.789 81.1064C169.301 81.4971 168.734 81.7949 168.09 82C167.455 82.1953 166.674 82.293 165.746 82.293C164.77 82.293 163.9 82.1221 163.139 81.7803C162.387 81.4385 161.791 80.9209 161.352 80.2275C160.922 79.5342 160.707 78.6553 160.707 77.5908C160.707 75.9893 161.342 74.7588 162.611 73.8994C163.881 73.04 165.814 72.5713 168.412 72.4932L171.181 72.376V71.3945C171.181 70.0078 170.883 69.0361 170.287 68.4795C169.691 67.9229 168.852 67.6445 167.768 67.6445C166.928 67.6445 166.127 67.7666 165.365 68.0107C164.604 68.2549 163.881 68.543 163.197 68.875L162.45 67.0293C163.173 66.6582 164.003 66.3408 164.94 66.0771C165.878 65.8135 166.864 65.6816 167.899 65.6816ZM171.151 74.0898L168.705 74.1924C166.703 74.2705 165.292 74.5977 164.472 75.1738C163.651 75.75 163.241 76.5654 163.241 77.6201C163.241 78.5381 163.52 79.2168 164.076 79.6562C164.633 80.0957 165.37 80.3154 166.288 80.3154C167.714 80.3154 168.881 79.9199 169.789 79.1289C170.697 78.3379 171.151 77.1514 171.151 75.5693V74.0898Z" fill="white"/>
</svg>
