<svg width="198" height="87" viewBox="0 0 198 87" fill="none" xmlns="http://www.w3.org/2000/svg">
<path d="M20.0391 43H3.59375V14.4453H20.0391V19.4062H9.64844V25.6758H19.3164V30.6367H9.64844V38H20.0391V43ZM34.0195 31.8477L26.9883 21.1641H33.7461L37.9844 28.1172L42.2617 21.1641H49.0195L41.9102 31.8477L49.3516 43H42.5742L37.9844 35.5195L33.375 43H26.6172L34.0195 31.8477ZM66.2617 14.4453C69.9466 14.4453 72.6354 15.2396 74.3281 16.8281C76.0208 18.4036 76.8672 20.5781 76.8672 23.3516C76.8672 24.6016 76.6784 25.7995 76.3008 26.9453C75.9232 28.0781 75.3047 29.0872 74.4453 29.9727C73.599 30.8581 72.4661 31.5612 71.0469 32.082C69.6276 32.5898 67.8763 32.8438 65.793 32.8438H63.1953V43H57.1406V14.4453H66.2617ZM65.9492 19.4062H63.1953V27.8828H65.1875C66.3203 27.8828 67.3034 27.7331 68.1367 27.4336C68.9701 27.1341 69.6146 26.6654 70.0703 26.0273C70.526 25.3893 70.7539 24.569 70.7539 23.5664C70.7539 22.1602 70.3633 21.1185 69.582 20.4414C68.8008 19.7513 67.5898 19.4062 65.9492 19.4062ZM97.9766 20.7539C98.276 20.7539 98.6211 20.7734 99.0117 20.8125C99.4154 20.8385 99.7409 20.8776 99.9883 20.9297L99.5391 26.5156C99.3438 26.4505 99.0638 26.4049 98.6992 26.3789C98.3477 26.3398 98.0417 26.3203 97.7812 26.3203C97.013 26.3203 96.2643 26.418 95.5352 26.6133C94.819 26.8086 94.1745 27.1276 93.6016 27.5703C93.0286 28 92.5729 28.5729 92.2344 29.2891C91.9089 29.9922 91.7461 30.8581 91.7461 31.8867V43H85.7891V21.1641H90.3008L91.1797 24.8359H91.4727C91.9023 24.0938 92.4362 23.4167 93.0742 22.8047C93.7253 22.1797 94.4609 21.6849 95.2812 21.3203C96.1146 20.9427 97.013 20.7539 97.9766 20.7539ZM116.957 20.7539C118.975 20.7539 120.714 21.1445 122.172 21.9258C123.63 22.694 124.757 23.8138 125.551 25.2852C126.345 26.7565 126.742 28.5534 126.742 30.6758V33.5664H112.66C112.725 35.2461 113.227 36.5677 114.164 37.5312C115.115 38.4818 116.43 38.957 118.109 38.957C119.503 38.957 120.779 38.8138 121.938 38.5273C123.096 38.2409 124.288 37.8112 125.512 37.2383V41.8477C124.431 42.3815 123.298 42.7721 122.113 43.0195C120.941 43.2669 119.516 43.3906 117.836 43.3906C115.648 43.3906 113.708 42.987 112.016 42.1797C110.336 41.3724 109.014 40.1419 108.051 38.4883C107.1 36.8346 106.625 34.7513 106.625 32.2383C106.625 29.6862 107.055 27.5638 107.914 25.8711C108.786 24.1654 109.997 22.8893 111.547 22.043C113.096 21.1836 114.9 20.7539 116.957 20.7539ZM116.996 24.9922C115.837 24.9922 114.874 25.3633 114.105 26.1055C113.35 26.8477 112.914 28.013 112.797 29.6016H121.156C121.143 28.7161 120.98 27.9284 120.668 27.2383C120.368 26.5482 119.913 26.0013 119.301 25.5977C118.702 25.194 117.934 24.9922 116.996 24.9922ZM150.82 36.5156C150.82 38 150.469 39.2565 149.766 40.2852C149.076 41.3008 148.04 42.0755 146.66 42.6094C145.28 43.1302 143.561 43.3906 141.504 43.3906C139.98 43.3906 138.672 43.293 137.578 43.0977C136.497 42.9023 135.404 42.5768 134.297 42.1211V37.1992C135.482 37.7331 136.751 38.1758 138.105 38.5273C139.473 38.8659 140.671 39.0352 141.699 39.0352C142.858 39.0352 143.685 38.8659 144.18 38.5273C144.688 38.1758 144.941 37.7201 144.941 37.1602C144.941 36.7956 144.837 36.4701 144.629 36.1836C144.434 35.8841 144.004 35.5521 143.34 35.1875C142.676 34.8099 141.634 34.3216 140.215 33.7227C138.848 33.1497 137.721 32.5703 136.836 31.9844C135.964 31.3984 135.312 30.7083 134.883 29.9141C134.466 29.1068 134.258 28.0846 134.258 26.8477C134.258 24.8294 135.039 23.3125 136.602 22.2969C138.177 21.2682 140.28 20.7539 142.91 20.7539C144.264 20.7539 145.553 20.8906 146.777 21.1641C148.014 21.4375 149.284 21.8737 150.586 22.4727L148.789 26.7695C147.708 26.3008 146.686 25.9167 145.723 25.6172C144.772 25.3177 143.802 25.168 142.812 25.168C141.94 25.168 141.283 25.2852 140.84 25.5195C140.397 25.7539 140.176 26.112 140.176 26.5938C140.176 26.9453 140.286 27.2578 140.508 27.5312C140.742 27.8047 141.185 28.1107 141.836 28.4492C142.5 28.7747 143.47 29.1979 144.746 29.7188C145.983 30.2266 147.057 30.7604 147.969 31.3203C148.88 31.8672 149.583 32.5508 150.078 33.3711C150.573 34.1784 150.82 35.2266 150.82 36.5156ZM174.703 36.5156C174.703 38 174.352 39.2565 173.648 40.2852C172.958 41.3008 171.923 42.0755 170.543 42.6094C169.163 43.1302 167.444 43.3906 165.387 43.3906C163.863 43.3906 162.555 43.293 161.461 43.0977C160.38 42.9023 159.286 42.5768 158.18 42.1211V37.1992C159.365 37.7331 160.634 38.1758 161.988 38.5273C163.355 38.8659 164.553 39.0352 165.582 39.0352C166.741 39.0352 167.568 38.8659 168.062 38.5273C168.57 38.1758 168.824 37.7201 168.824 37.1602C168.824 36.7956 168.72 36.4701 168.512 36.1836C168.316 35.8841 167.887 35.5521 167.223 35.1875C166.559 34.8099 165.517 34.3216 164.098 33.7227C162.73 33.1497 161.604 32.5703 160.719 31.9844C159.846 31.3984 159.195 30.7083 158.766 29.9141C158.349 29.1068 158.141 28.0846 158.141 26.8477C158.141 24.8294 158.922 23.3125 160.484 22.2969C162.06 21.2682 164.163 20.7539 166.793 20.7539C168.147 20.7539 169.436 20.8906 170.66 21.1641C171.897 21.4375 173.167 21.8737 174.469 22.4727L172.672 26.7695C171.591 26.3008 170.569 25.9167 169.605 25.6172C168.655 25.3177 167.685 25.168 166.695 25.168C165.823 25.168 165.165 25.2852 164.723 25.5195C164.28 25.7539 164.059 26.112 164.059 26.5938C164.059 26.9453 164.169 27.2578 164.391 27.5312C164.625 27.8047 165.068 28.1107 165.719 28.4492C166.383 28.7747 167.353 29.1979 168.629 29.7188C169.866 30.2266 170.94 30.7604 171.852 31.3203C172.763 31.8672 173.466 32.5508 173.961 33.3711C174.456 34.1784 174.703 35.2266 174.703 36.5156Z" fill="#1E90FF"/>
<path d="M78.5625 62.7695C80.6133 62.7695 82.2002 63.458 83.3232 64.835C84.4561 66.2119 85.0225 68.2432 85.0225 70.9287C85.0225 72.7256 84.7539 74.249 84.2168 75.499C83.6797 76.7393 82.9131 77.6816 81.917 78.3262C80.9307 78.9707 79.7441 79.293 78.3574 79.293C77.4004 79.293 76.5654 79.1514 75.8525 78.8682C75.1494 78.5752 74.5635 78.1846 74.0947 77.6963C73.626 77.1982 73.2646 76.6514 73.0107 76.0557H72.9082C72.9375 76.6123 72.9619 77.1934 72.9814 77.7988C73.001 78.4043 73.0107 78.9756 73.0107 79.5127V86.0459H71.5166V63.0771H72.7471L72.9229 66.2559H73.0107C73.2744 65.6504 73.6455 65.0791 74.124 64.542C74.6025 64.0049 75.208 63.5752 75.9404 63.2529C76.6729 62.9307 77.5469 62.7695 78.5625 62.7695ZM78.3721 64.0732C77.1709 64.0732 76.1699 64.3369 75.3691 64.8643C74.5781 65.3818 73.9873 66.1436 73.5967 67.1494C73.2158 68.1455 73.0205 69.3662 73.0107 70.8115V71.0605C73.0107 72.6133 73.2012 73.9072 73.582 74.9424C73.9727 75.9678 74.5537 76.7344 75.3252 77.2422C76.1064 77.75 77.0732 78.0039 78.2256 78.0039C79.3584 78.0039 80.3154 77.7256 81.0967 77.1689C81.8779 76.6123 82.4736 75.8066 82.8838 74.752C83.2939 73.6973 83.499 72.418 83.499 70.9141C83.499 68.6777 83.0693 66.9785 82.21 65.8164C81.3604 64.6543 80.0811 64.0732 78.3721 64.0732ZM105.586 71.0166C105.586 72.2471 105.435 73.3701 105.132 74.3857C104.829 75.3916 104.38 76.2607 103.784 76.9932C103.188 77.7256 102.446 78.292 101.558 78.6924C100.679 79.0928 99.6533 79.293 98.4814 79.293C97.3682 79.293 96.377 79.0977 95.5078 78.707C94.6387 78.3066 93.9014 77.7402 93.2959 77.0078C92.7002 76.2754 92.2461 75.4062 91.9336 74.4004C91.6211 73.3848 91.4648 72.2568 91.4648 71.0166C91.4648 69.3076 91.748 67.8379 92.3145 66.6074C92.8906 65.3672 93.7109 64.4199 94.7754 63.7656C95.8496 63.1016 97.1338 62.7695 98.6279 62.7695C100.171 62.7695 101.455 63.1211 102.48 63.8242C103.516 64.5176 104.292 65.4844 104.81 66.7246C105.327 67.9648 105.586 69.3955 105.586 71.0166ZM92.9883 71.0166C92.9883 72.4131 93.1885 73.6338 93.5889 74.6787C93.9893 75.7236 94.5947 76.5391 95.4053 77.125C96.2256 77.7109 97.2607 78.0039 98.5107 78.0039C99.79 78.0039 100.84 77.7109 101.66 77.125C102.48 76.5391 103.086 75.7188 103.477 74.6641C103.867 73.6094 104.062 72.3936 104.062 71.0166C104.062 69.6787 103.877 68.4873 103.506 67.4424C103.135 66.3975 102.549 65.5771 101.748 64.9814C100.947 64.376 99.9023 64.0732 98.6133 64.0732C96.7676 64.0732 95.3662 64.6885 94.4092 65.9189C93.4619 67.1494 92.9883 68.8486 92.9883 71.0166ZM122.941 74.8252C122.941 75.7725 122.702 76.583 122.224 77.2568C121.755 77.9209 121.066 78.4287 120.158 78.7803C119.25 79.1221 118.132 79.293 116.804 79.293C115.7 79.293 114.714 79.1953 113.845 79C112.976 78.8047 112.248 78.5654 111.662 78.2822V76.8174C112.395 77.1787 113.205 77.4717 114.094 77.6963C114.982 77.9209 115.896 78.0332 116.833 78.0332C118.474 78.0332 119.655 77.7549 120.378 77.1982C121.101 76.6416 121.462 75.8799 121.462 74.9131C121.462 74.2783 121.281 73.7559 120.92 73.3457C120.568 72.9258 120.061 72.5645 119.396 72.2617C118.732 71.959 117.932 71.6514 116.994 71.3389C116.018 71.0068 115.148 70.6797 114.387 70.3574C113.635 70.0254 113.044 69.5908 112.614 69.0537C112.185 68.5068 111.97 67.7646 111.97 66.8271C111.97 65.5479 112.482 64.5518 113.508 63.8389C114.533 63.126 115.91 62.7695 117.639 62.7695C118.596 62.7695 119.484 62.8623 120.305 63.0479C121.135 63.2236 121.887 63.4531 122.561 63.7363L122.033 64.9961C121.428 64.7129 120.729 64.4834 119.938 64.3076C119.147 64.1318 118.356 64.0439 117.565 64.0439C116.267 64.0439 115.251 64.2734 114.519 64.7324C113.786 65.1914 113.42 65.8652 113.42 66.7539C113.42 67.4375 113.596 67.9746 113.947 68.3652C114.299 68.7461 114.802 69.0684 115.456 69.332C116.11 69.5859 116.887 69.8691 117.785 70.1816C118.713 70.5039 119.567 70.8408 120.349 71.1924C121.14 71.5439 121.77 71.998 122.238 72.5547C122.707 73.1113 122.941 73.8682 122.941 74.8252ZM131.435 56.207V63.6484C131.435 64.0781 131.425 64.4785 131.405 64.8496C131.396 65.2207 131.376 65.5967 131.347 65.9775H131.449C131.713 65.3721 132.089 64.8301 132.577 64.3516C133.075 63.873 133.686 63.4922 134.408 63.209C135.141 62.9258 135.985 62.7842 136.942 62.7842C138.153 62.7842 139.169 62.9941 139.989 63.4141C140.819 63.8242 141.449 64.4541 141.879 65.3037C142.309 66.1533 142.523 67.2471 142.523 68.585V79H141.059V68.6729C141.059 67.0908 140.697 65.9287 139.975 65.1865C139.252 64.4443 138.202 64.0732 136.825 64.0732C135.653 64.0732 134.667 64.3027 133.866 64.7617C133.065 65.2109 132.46 65.8945 132.05 66.8125C131.64 67.7207 131.435 68.8584 131.435 70.2256V79H129.955V56.207H131.435ZM154.986 78.0186C155.445 78.0186 155.87 77.9844 156.261 77.916C156.661 77.8477 157.013 77.7598 157.315 77.6523V78.8828C157.003 78.9902 156.637 79.083 156.217 79.1611C155.797 79.249 155.333 79.293 154.825 79.293C153.927 79.293 153.18 79.127 152.584 78.7949C151.988 78.4531 151.539 77.9404 151.236 77.2568C150.934 76.5635 150.782 75.6846 150.782 74.6201V64.3076H148.409V63.4287L150.768 62.9746L151.28 59.2246H152.262V63.0771H157.228V64.3076H152.262V74.5322C152.262 75.6748 152.472 76.5439 152.892 77.1396C153.321 77.7256 154.02 78.0186 154.986 78.0186ZM169.295 62.7988C171.043 62.7988 172.352 63.2383 173.221 64.1172C174.09 64.9961 174.524 66.3975 174.524 68.3213V79H173.382L173.118 76.2168H173.03C172.688 76.8125 172.273 77.3447 171.785 77.8135C171.297 78.2725 170.696 78.6338 169.983 78.8975C169.28 79.1611 168.421 79.293 167.405 79.293C166.38 79.293 165.501 79.1221 164.769 78.7803C164.046 78.4385 163.484 77.9404 163.084 77.2861C162.693 76.6318 162.498 75.8359 162.498 74.8984C162.498 73.3164 163.152 72.1152 164.461 71.2949C165.77 70.4648 167.649 69.9961 170.101 69.8887L173.06 69.7422V68.585C173.06 66.9541 172.737 65.792 172.093 65.0986C171.448 64.4053 170.496 64.0586 169.236 64.0586C168.416 64.0586 167.625 64.166 166.863 64.3809C166.111 64.5859 165.345 64.8838 164.563 65.2744L164.095 64.0439C164.856 63.6826 165.672 63.3848 166.541 63.1504C167.42 62.916 168.338 62.7988 169.295 62.7988ZM173.045 70.8994L170.262 71.0166C168.24 71.1143 166.702 71.4756 165.647 72.1006C164.593 72.7256 164.065 73.6631 164.065 74.9131C164.065 75.9189 164.378 76.6904 165.003 77.2275C165.638 77.7646 166.517 78.0332 167.64 78.0332C169.388 78.0332 170.721 77.5352 171.639 76.5391C172.566 75.543 173.035 74.1855 173.045 72.4668V70.8994Z" fill="#1E90FF"/>
</svg>
