<?xml version="1.0" encoding="utf-8"?>
<!-- Generator: Adobe Illustrator 24.1.2, SVG Export Plug-In . SVG Version: 6.00 Build 0)  -->
<svg version="1.1" xmlns="http://www.w3.org/2000/svg" xmlns:xlink="http://www.w3.org/1999/xlink" x="0px" y="0px" width="93px" height="67px"
	 viewBox="0 0 665.3 477.7" enable-background="new 0 0 665.3 477.7" xml:space="preserve">
<g id="Layer_2">
	<rect x="-179" y="-147.5" fill="#FFFFFF" width="1024" height="768"/>
</g>
<g id="Layer_1">
	<g>
		<g>
			<g>
				<g>
					<path fill="#808080" d="M50.7,375.3h-2.2c0.3-2.9,0.5-5.2,0.5-6.7c0-2.2-0.6-3.9-1.7-5.1c-1.2-1.2-2.7-1.9-4.7-1.9
						c-3.1,0-5.8,1.1-8.1,3.3c-2.3,2.2-3.4,4.7-3.4,7.5c0,1.5,0.3,2.8,0.9,4c0.6,1.2,2,2.9,4.2,5.1c3.9,3.9,6.5,6.9,7.8,9.1
						c1.2,2.2,1.8,4.3,1.8,6.4c0,3.1-0.9,6-2.8,8.8c-1.9,2.8-4.6,5.2-8.2,7c-3.6,1.8-7.5,2.8-11.5,2.8c-4,0-7.3-1-10.1-3.1
						c-2.7-2.1-4.1-4.3-4.1-6.6c0-1.2,0.4-2.3,1.1-3.1c0.7-0.8,1.5-1.2,2.5-1.2c1,0,1.7,0.4,2.4,1.1c0.4,0.4,0.8,1.5,1.2,3
						c0.4,1.9,1,3.3,1.6,4.1c0.6,0.9,1.5,1.6,2.7,2.1c1.1,0.5,2.4,0.8,3.7,0.8c4,0,7.5-1.4,10.5-4.1c3-2.7,4.5-5.7,4.5-9
						c0-1.1-0.2-2.2-0.6-3.3c-0.4-1.1-1.1-2.4-2.1-3.8c-0.7-1-2.3-2.6-4.7-5.1c-2.4-2.4-3.9-4-4.5-4.8c-0.9-1.3-1.5-2.5-1.9-3.8
						c-0.4-1.3-0.6-2.5-0.6-3.8c0-2.6,0.9-5.1,2.6-7.7c1.7-2.6,3.9-4.6,6.7-6.2c2.7-1.5,5.8-2.3,9.3-2.3c1.7,0,3.9,0.3,6.4,0.8
						c1.5,0.3,2.7,0.5,3.8,0.6c-0.6,1.8-1.1,3.5-1.4,5.2C51.7,367.3,51.2,370.5,50.7,375.3z"/>
					<path fill="#808080" d="M82.8,375.1h6l-4,14.7c-2.3,8.5-3.5,13.4-3.5,14.6c0,0.5,0.1,0.9,0.4,1.2c0.3,0.3,0.5,0.4,0.8,0.4
						c0.5,0,1-0.2,1.7-0.6c0.9-0.6,2.7-2.3,5.3-4.9l1.4,1.6c-5.6,5.9-9.8,8.8-12.5,8.8c-0.9,0-1.7-0.3-2.3-1
						c-0.6-0.7-0.9-1.7-0.9-2.9c0-1.5,0.3-3.4,0.9-5.9c-2.5,2.9-5.6,5.4-9.3,7.5c-2.4,1.4-4.6,2.1-6.4,2.1c-1,0-1.8-0.3-2.3-1
						c-0.6-0.6-0.8-1.7-0.8-3.1c0-1.1,0.1-2.3,0.4-3.5c0.4-1.8,1.3-5.3,2.8-10.7c1.9-6.8,2.8-10.8,2.8-12.2c0-0.8-0.3-1.2-0.8-1.2
						c-0.5,0-1.2,0.3-2.1,0.8c-0.9,0.5-2.4,1.8-4.5,3.8l-1.9-1.5c3.8-3.4,6.6-5.6,8.6-6.6c2-1.1,3.6-1.6,4.8-1.6
						c0.7,0,1.2,0.2,1.6,0.7c0.4,0.5,0.6,1.3,0.6,2.3c0,1.9-1,6.7-3,14.3c-1.8,6.8-2.7,10.7-2.7,11.7c0,0.6,0.2,1.1,0.6,1.5
						c0.4,0.4,0.8,0.6,1.2,0.6c1.6,0,3.8-1.3,6.7-3.9c2.9-2.6,4.8-5.5,5.7-8.9L82.8,375.1z"/>
					<path fill="#808080" d="M94.6,384.5l-1.6-1.7c2.6-3.1,5.1-5.3,7.6-6.8c2.5-1.5,4.7-2.2,6.6-2.2c0.7,0,1.3,0.2,1.7,0.5
						c0.4,0.4,0.6,0.9,0.6,1.5c0,0.8-0.1,1.6-0.3,2.5c-0.2,0.9-0.8,2.9-1.7,6.1c4.3-4.3,7.2-6.9,8.8-8c2.6-1.7,5.1-2.6,7.2-2.6
						c1.4,0,2.6,0.7,3.6,2c1,1.3,1.5,3.4,1.5,6.1c0,6.8-2.1,13.2-6.4,19.4c-4.2,6.1-8.9,9.2-14,9.2c-2,0-4-0.5-6.1-1.6l-3.6,13.9
						c-0.2,0.8-0.3,1.5-0.3,2.1c0,1,0.4,1.8,1.2,2.2c1.2,0.7,3.7,1.3,7.6,1.7l-0.5,2.1c-4.5-0.4-8.1-0.5-10.6-0.5
						c-2.7,0-6.1,0.2-10.4,0.5l0.5-2.1c2.1-0.2,3.7-0.8,4.7-1.8c1-1,1.7-2.7,2.3-5.1l7.6-31.9c1.4-5.9,2.1-9.3,2.1-9.9
						c0-0.7-0.4-1.1-1.1-1.1C100.4,379.1,98.1,380.9,94.6,384.5z M103.1,404.4c2.2,2.2,4.5,3.3,6.8,3.3c3.4,0,6.3-2.6,8.8-7.9
						c2.5-5.2,3.8-10.4,3.8-15.4c0-1.6-0.4-2.8-1.1-3.6c-0.7-0.8-1.7-1.2-2.9-1.2c-1.3,0-2.9,0.7-4.5,2c-2.6,2-4.6,4.1-6,6.1
						c-1,1.5-1.9,4-2.8,7.6L103.1,404.4z"/>
					<path fill="#808080" d="M153.9,398.9l1.4,1.9c-6.9,6.5-12.8,9.8-17.7,9.8c-2,0-3.5-0.7-4.6-2c-1.1-1.3-1.6-3.5-1.6-6.5
						c0-6,1.8-12,5.5-17.9c4.1-6.8,9-10.1,14.7-10.1c2,0,3.5,0.5,4.6,1.5c1.1,1,1.6,2.4,1.6,4.1c0,1.8-0.6,3.6-1.9,5.4
						c-1.3,1.8-3.5,3.6-6.8,5.5c-1.6,0.9-5.1,2.6-10.4,5c-0.3,1.5-0.4,3-0.4,4.3c0,2,0.3,3.4,0.9,4.2c0.6,0.8,1.5,1.2,2.8,1.2
						c1.2,0,2.4-0.3,3.8-1C147.7,403.3,150.4,401.6,153.9,398.9z M139.2,392.8c4.5-2,7.9-4.2,10.2-6.5c1.5-1.6,2.3-3.2,2.3-4.8
						c0-1.2-0.3-2.2-0.9-2.9c-0.6-0.7-1.5-1.1-2.5-1.1c-1,0-2,0.4-3,1.2c-1.3,1-2.4,2.6-3.3,4.7
						C140.7,386.4,139.7,389.6,139.2,392.8z"/>
					<path fill="#808080" d="M169,409.5h-6.3l2.9-11.3c1.4-5.6,2.7-10.8,3.7-15.8c0.3-1.2,0.4-2,0.4-2.3c0-0.7-0.3-1-0.9-1
						c-0.4,0-1.1,0.3-1.9,0.9c-0.9,0.6-2.4,2-4.7,4.3l-1.3-1.5c2.7-2.9,5.4-5.1,8.1-6.5c2.7-1.4,4.7-2.2,6.2-2.2
						c0.5,0,0.9,0.1,1.2,0.4c0.3,0.2,0.4,0.5,0.4,0.9c0,0.4-0.2,1.3-0.6,2.9l-1.8,7.6c2.8-4.5,6-8.3,9.6-11.5
						c1.7-1.5,3.1-2.3,4.3-2.3c0.8,0,1.5,0.3,2.1,0.8c0.6,0.5,0.8,1.2,0.8,1.9c0,0.8-0.3,1.4-0.8,1.9c-0.5,0.5-1.9,1.2-4.1,1.9
						c-2.1,0.7-3.8,1.5-5.1,2.5c-1.3,1-2.7,2.5-4.3,4.5c-1.6,2-2.6,3.8-3.3,5.3c-0.6,1.5-1.6,5-2.8,10.5L169,409.5z"/>
					<path fill="#808080" d="M188.4,383.8l-1.9-1.4c2.8-3.1,5.4-5.3,7.7-6.6c2.3-1.3,4.3-2,5.9-2c0.9,0,1.6,0.2,2.1,0.6
						c0.5,0.4,0.7,0.9,0.7,1.6c0,0.8-0.9,4.3-2.7,10.4c-3,10-4.4,16-4.4,18c0,0.4,0.1,0.7,0.3,1c0.2,0.3,0.4,0.4,0.6,0.4
						c0.9,0,3.2-1.7,6.9-5.2l1.6,1.6c-3.8,3.6-6.7,5.9-8.4,6.9c-1.8,1-3.2,1.5-4.3,1.5c-1,0-1.8-0.3-2.3-0.9
						c-0.6-0.6-0.9-1.5-0.9-2.6c0-3.5,2.1-12.1,6.3-25.7c0.2-0.6,0.3-1.2,0.3-1.7c0-0.6-0.3-0.8-0.8-0.8c-0.6,0-1.2,0.2-1.9,0.7
						C192.4,380,190.8,381.4,188.4,383.8z M204.9,356c0.9,0,1.6,0.3,2.1,0.9c0.6,0.6,0.8,1.3,0.8,2.2c0,1.2-0.4,2.3-1.3,3.3
						c-0.9,0.9-1.8,1.4-2.9,1.4c-0.8,0-1.5-0.3-2.1-0.9c-0.6-0.6-0.8-1.4-0.8-2.3c0-1.3,0.4-2.3,1.2-3.2
						C202.8,356.4,203.8,356,204.9,356z"/>
					<path fill="#808080" d="M228.6,374.1c2.7,0,5,1.1,6.9,3.3c1.8,2.2,2.7,5.2,2.7,9.1c0,6.2-2.2,11.8-6.6,16.8
						c-4.4,5-9,7.4-13.9,7.4c-3,0-5.4-1-7.3-2.9c-1.8-2-2.8-4.6-2.8-8c0-5.9,1.7-11.3,5.1-16.3C217,377.2,222.3,374.1,228.6,374.1z
						 M225,377.2c-2.4,0-4.7,1.7-6.9,5.1c-2.2,3.4-3.3,8.1-3.3,14.1c0,3.6,0.7,6.5,2.1,8.6c1,1.5,2.4,2.3,4,2.3
						c2.4,0,4.5-1.5,6.4-4.4c2.5-3.8,3.7-8.5,3.7-14.1c0-4.2-0.6-7.2-1.7-9C228.1,378.1,226.7,377.2,225,377.2z"/>
					<path fill="#808080" d="M249.9,409.5h-6.3l2.9-11.3c1.4-5.6,2.7-10.8,3.7-15.8c0.3-1.2,0.4-2,0.4-2.3c0-0.7-0.3-1-0.9-1
						c-0.4,0-1.1,0.3-1.9,0.9c-0.9,0.6-2.4,2-4.7,4.3l-1.3-1.5c2.7-2.9,5.4-5.1,8.1-6.5c2.7-1.4,4.7-2.2,6.2-2.2
						c0.5,0,0.9,0.1,1.2,0.4c0.3,0.2,0.4,0.5,0.4,0.9c0,0.4-0.2,1.3-0.6,2.9l-1.8,7.6c2.8-4.5,6-8.3,9.6-11.5
						c1.7-1.5,3.1-2.3,4.3-2.3c0.8,0,1.5,0.3,2.1,0.8c0.6,0.5,0.8,1.2,0.8,1.9c0,0.8-0.3,1.4-0.8,1.9c-0.5,0.5-1.9,1.2-4.1,1.9
						c-2.1,0.7-3.8,1.5-5.1,2.5c-1.3,1-2.7,2.5-4.3,4.5c-1.6,2-2.6,3.8-3.3,5.3c-0.6,1.5-1.6,5-2.8,10.5L249.9,409.5z"/>
					<path fill="#808080" d="M306.7,411.2l-1.5-20.4c-0.3-4.1-0.5-6.9-0.5-8.2c0-3.8,0.5-7.3,1.6-10.5c1.1-3.2,3-6.6,5.8-10.3
						c-3.3,0-6.6,0.8-10,2.4c-3.4,1.6-5.9,3.4-7.5,5.4c-1.6,2.1-2.4,4.1-2.4,6.2c0,1,0.3,2,0.9,3c0.7,1.3,1.1,2.4,1.1,3.1
						c0,0.6-0.2,1.2-0.6,1.6c-0.4,0.4-0.9,0.6-1.5,0.6c-0.9,0-1.7-0.5-2.3-1.4c-0.8-1.2-1.3-2.8-1.3-4.6c0-3.4,1.3-6.7,3.9-9.9
						c2.6-3.2,6.1-5.5,10.6-7c2.9-1,7.1-1.7,12.6-2c1.5-0.1,3-0.3,4.5-0.4c-3.8,5.6-6.3,10.2-7.4,13.9c-1.2,3.7-1.7,8.8-1.7,15.1
						c0,4.9,0.3,9.3,0.8,13.4l8.1-8.6l6.9-7.1c7-7.2,11.7-12.8,14.1-16.9c1.8-3.1,2.7-5.9,2.7-8.5c0-1.4-0.3-2.9-1-4.6
						c-0.4-1.1-0.6-1.9-0.6-2.4c0-0.8,0.3-1.4,0.9-2c0.6-0.6,1.3-0.8,2-0.8c1.1,0,2,0.5,2.7,1.6c0.7,1.1,1.1,2.8,1.1,5.1
						c0,2.3-0.5,4.7-1.4,7.2c-1,2.5-3,5.8-6,9.7c-3.1,3.9-7.8,9.1-14.2,15.6C320.2,396.3,313.5,403.5,306.7,411.2z"/>
					<path fill="#808080" d="M364.2,398.9l1.4,1.9c-6.9,6.5-12.8,9.8-17.7,9.8c-2,0-3.5-0.7-4.6-2c-1.1-1.3-1.6-3.5-1.6-6.5
						c0-6,1.8-12,5.5-17.9c4.1-6.8,9-10.1,14.7-10.1c2,0,3.5,0.5,4.6,1.5c1.1,1,1.6,2.4,1.6,4.1c0,1.8-0.6,3.6-1.9,5.4
						c-1.3,1.8-3.5,3.6-6.8,5.5c-1.6,0.9-5.1,2.6-10.4,5c-0.3,1.5-0.4,3-0.4,4.3c0,2,0.3,3.4,0.9,4.2c0.6,0.8,1.5,1.2,2.8,1.2
						c1.2,0,2.4-0.3,3.8-1C357.9,403.3,360.6,401.6,364.2,398.9z M349.4,392.8c4.5-2,7.9-4.2,10.2-6.5c1.5-1.6,2.3-3.2,2.3-4.8
						c0-1.2-0.3-2.2-0.9-2.9c-0.6-0.7-1.5-1.1-2.5-1.1c-1,0-2,0.4-3,1.2c-1.3,1-2.4,2.6-3.3,4.7C350.9,386.4,350,389.6,349.4,392.8z
						"/>
					<path fill="#808080" d="M372.7,383.9l-1.4-1.5c3.6-3.4,6.5-5.7,8.6-6.9c2.1-1.1,4-1.7,5.5-1.7c0.6,0,1.1,0.1,1.4,0.4
						c0.3,0.3,0.5,0.5,0.5,0.9c0,0.3-0.1,0.7-0.2,1.3l-1.9,8.5c2.9-3.2,6.4-6.1,10.8-8.9c2.3-1.4,4.2-2.1,5.7-2.1
						c1.1,0,1.9,0.4,2.6,1.1c0.6,0.7,0.9,1.7,0.9,3c0,0.9-0.1,1.9-0.4,2.9c-0.4,1.8-1.6,5.8-3.5,11.9c-1.8,5.7-2.7,9.5-2.7,11.4
						c0,0.6,0.1,1,0.3,1.3c0.2,0.3,0.4,0.4,0.7,0.4c0.8,0,2.1-0.8,3.8-2.4c1.2-1.1,2.5-2.2,3.7-3.1l1.1,1.5c-2.6,2.8-5.3,5.1-8,6.9
						c-1.8,1.1-3.2,1.7-4.4,1.7c-1.1,0-1.9-0.4-2.5-1.2c-0.6-0.8-0.9-2-0.9-3.8c0-2.5,1.6-8.7,4.7-18.6c1-3.5,1.4-5.6,1.4-6.2
						c0-0.9-0.5-1.3-1.6-1.3c-1.1,0-2.6,0.6-4.3,1.8c-2.6,1.7-4.8,3.8-6.6,6.2c-1.1,1.5-2.1,3.9-2.8,7.2l-3.4,14.7h-6.3
						c1.2-4.2,2.2-8.2,3.1-12.1l3.7-16c0.1-0.6,0.2-1.1,0.2-1.4c0-0.8-0.3-1.1-0.8-1.1c-0.4,0-1.1,0.3-1.9,0.9
						C375.8,380.9,374.2,382.3,372.7,383.9z"/>
					<path fill="#808080" d="M443.5,400.7l1.2,1.6c-3.8,3.2-6.6,5.3-8.4,6.3c-2.5,1.4-4.5,2.1-6,2.1c-0.7,0-1.2-0.2-1.6-0.6
						c-0.4-0.4-0.6-0.8-0.6-1.3c0-0.5,0.2-1.3,0.5-2.4l1.5-5.1c-3.4,3.6-6.2,6.1-8.4,7.4c-2.2,1.3-4.3,1.9-6.1,1.9
						c-1.5,0-2.7-0.7-3.7-2c-1-1.3-1.5-3.2-1.5-5.8c0-4,1.4-8.6,4.1-13.8c2.7-5.2,5.8-9,9.1-11.5c3.4-2.5,6.4-3.7,9.2-3.7
						c0.6,0,1.5,0.1,2.8,0.3c1.3-5.5,2.6-9.4,3.8-12c1.2-2.5,2.8-4.7,4.7-6.5c1.9-1.8,4.1-3.2,6.5-4.2c2.5-1,4.7-1.5,6.9-1.5
						c1.1,0,2,0.3,2.7,0.9c0.7,0.6,1,1.3,1,2.2c0,0.9-0.3,1.6-0.9,2.1c-0.6,0.5-1.5,0.8-2.5,0.8c-0.7,0-2-0.1-3.9-0.4
						c-1.9-0.3-3.2-0.4-3.9-0.4c-1,0-1.8,0.3-2.6,0.9c-0.7,0.6-1.5,1.9-2.1,3.9c-0.4,1.3-1.5,5.3-3.1,12.1l-6,25.4c-0.7,3-1,5-1,6
						c0,1.1,0.4,1.6,1.2,1.6c0.5,0,1.1-0.2,1.8-0.5C438.9,404.2,440.7,402.9,443.5,400.7z M434.6,379c-2.2-0.5-3.8-0.8-4.8-0.8
						c-1.9,0-3.7,0.7-5.5,2.2c-1.8,1.5-3.5,4.3-5.2,8.6c-1.7,4.2-2.5,7.9-2.5,11.1c0,1.4,0.4,2.6,1.2,3.5c0.8,0.9,1.6,1.4,2.6,1.4
						c1.2,0,2.5-0.5,4-1.6c2.2-1.5,3.9-3.4,5.1-5.6c0.8-1.4,1.8-4.8,3.1-10.3L434.6,379z"/>
					<path fill="#808080" d="M450.3,383.8l-1.9-1.4c2.8-3.1,5.4-5.3,7.7-6.6c2.3-1.3,4.3-2,5.9-2c0.9,0,1.6,0.2,2.1,0.6
						c0.5,0.4,0.7,0.9,0.7,1.6c0,0.8-0.9,4.3-2.7,10.4c-3,10-4.4,16-4.4,18c0,0.4,0.1,0.7,0.3,1c0.2,0.3,0.4,0.4,0.6,0.4
						c0.9,0,3.2-1.7,6.9-5.2l1.6,1.6c-3.8,3.6-6.7,5.9-8.4,6.9c-1.8,1-3.2,1.5-4.3,1.5c-1,0-1.8-0.3-2.3-0.9
						c-0.6-0.6-0.9-1.5-0.9-2.6c0-3.5,2.1-12.1,6.3-25.7c0.2-0.6,0.3-1.2,0.3-1.7c0-0.6-0.3-0.8-0.8-0.8c-0.6,0-1.2,0.2-1.9,0.7
						C454.4,380,452.8,381.4,450.3,383.8z M466.9,356c0.9,0,1.6,0.3,2.1,0.9c0.6,0.6,0.8,1.3,0.8,2.2c0,1.2-0.4,2.3-1.3,3.3
						c-0.9,0.9-1.8,1.4-2.9,1.4c-0.8,0-1.5-0.3-2.1-0.9c-0.6-0.6-0.8-1.4-0.8-2.3c0-1.3,0.4-2.3,1.2-3.2
						C464.8,356.4,465.8,356,466.9,356z"/>
					<path fill="#808080" d="M470.9,383.9l-1.4-1.5c3.6-3.4,6.5-5.7,8.6-6.9c2.1-1.1,4-1.7,5.5-1.7c0.6,0,1.1,0.1,1.4,0.4
						c0.3,0.3,0.5,0.5,0.5,0.9c0,0.3-0.1,0.7-0.2,1.3l-1.9,8.5c2.9-3.2,6.4-6.1,10.8-8.9c2.3-1.4,4.2-2.1,5.7-2.1
						c1.1,0,1.9,0.4,2.6,1.1c0.6,0.7,0.9,1.7,0.9,3c0,0.9-0.1,1.9-0.4,2.9c-0.4,1.8-1.6,5.8-3.5,11.9c-1.8,5.7-2.7,9.5-2.7,11.4
						c0,0.6,0.1,1,0.3,1.3c0.2,0.3,0.4,0.4,0.7,0.4c0.8,0,2.1-0.8,3.8-2.4c1.2-1.1,2.5-2.2,3.7-3.1l1.1,1.5c-2.6,2.8-5.3,5.1-8,6.9
						c-1.8,1.1-3.2,1.7-4.4,1.7c-1.1,0-1.9-0.4-2.5-1.2c-0.6-0.8-0.9-2-0.9-3.8c0-2.5,1.6-8.7,4.7-18.6c1-3.5,1.4-5.6,1.4-6.2
						c0-0.9-0.5-1.3-1.6-1.3c-1.1,0-2.6,0.6-4.3,1.8c-2.6,1.7-4.8,3.8-6.6,6.2c-1.1,1.5-2.1,3.9-2.8,7.2l-3.4,14.7h-6.3
						c1.2-4.2,2.2-8.2,3.1-12.1l3.7-16c0.1-0.6,0.2-1.1,0.2-1.4c0-0.8-0.3-1.1-0.8-1.1c-0.4,0-1.1,0.3-1.9,0.9
						C474.1,380.9,472.4,382.3,470.9,383.9z"/>
					<path fill="#808080" d="M537.6,373.8l3.4-0.8c-2,6.6-3.9,13.1-5.6,19.7c-1.2,4.7-2.1,8.6-2.6,11.8c-0.3,1.6-0.4,3.6-0.4,6
						c-0.1,4-0.5,7.3-1.3,9.8c-1.2,3.5-3.4,6.2-6.6,8.3c-3.2,2.1-7,3.2-11.4,3.2c-3.8,0-6.8-0.9-8.9-2.7c-2.2-1.8-3.3-3.8-3.3-6.1
						c0-2.3,0.9-4.4,2.6-6.4c1.3-1.5,4-3.3,8.1-5.4c2.1-1.1,4-2.2,5.9-3.4c-2.1,1.1-3.7,1.6-4.9,1.6c-1,0-2-0.5-2.8-1.5
						c-0.8-1-1.2-2.3-1.2-3.9c0-5.2,1.5-10.3,4.6-15.4c3.1-5.1,6.8-8.9,11.1-11.5c2.7-1.6,6-2.4,10-2.4c0.8,0,1.8,0,2.9,0.1
						L537.6,373.8z M527.2,402.9c-1.9,1.7-5.6,4.4-11,8.2c-4.8,3.3-7.8,5.6-8.9,7c-1.1,1.5-1.6,3-1.6,4.6c0,1.6,0.7,3,2.1,4.3
						c1.4,1.3,3.1,1.9,5.2,1.9c1.9,0,3.8-0.5,5.6-1.4c1.8-0.9,3.4-2.3,4.7-4.1c1.3-1.8,2.3-3.8,2.8-6c0.5-2.2,0.8-5.2,0.8-8.9
						C526.8,407.8,527,405.9,527.2,402.9z M532.9,380c-1.3-0.3-2.5-0.4-3.6-0.4c-2.7,0-4.9,0.7-6.9,2.1c-1.9,1.4-3.5,3.8-4.9,7.1
						c-1.9,4.7-2.8,8.6-2.8,11.8c0,1.3,0.4,2.4,1.1,3.3c0.7,0.9,1.6,1.3,2.5,1.3c1.1,0,2.5-0.5,4.2-1.6c1.7-1.1,3-2.4,4.1-4.1
						c1.1-1.6,2.1-4.4,3.2-8.4L532.9,380z"/>
					<path fill="#808080" d="M596.2,359.7l-0.7,2.3c-3.2,0.2-5.3,0.6-6.3,1.2c-0.7,0.4-1.2,1-1.7,1.8c-0.5,1-2.1,6.4-4.7,16.1
						c-0.8,3.2-3,11.9-6.4,26.2c2,0.6,4.4,0.9,7.5,0.8l-0.7,2c-0.9,0-2.7-0.1-5.4-0.3c-1.9-0.2-4.2-0.3-6.8-0.3
						c-3.6,0-6.8,0.3-9.8,0.8l0.5-2.2c3.1-0.5,5.4-1.1,7-1.9c0.4-0.2,0.7-0.4,0.9-0.7c0.4-0.5,0.9-1.5,1.4-3.1
						c0.5-1.5,2.2-7.8,5-18.8c0.8-3.2,2.6-10.1,5.1-20.8c-1.9-0.1-4.3,0.2-7.1,0.8l0.8-2.3c1.2-0.3,2.4-0.5,3.6-0.7
						c1.2-0.1,4-0.2,8.4-0.4C590.9,360.2,594.1,360,596.2,359.7z"/>
					<path fill="#808080" d="M596.7,383.9l-1.4-1.5c3.6-3.4,6.5-5.7,8.6-6.9c2.1-1.1,4-1.7,5.5-1.7c0.6,0,1.1,0.1,1.4,0.4
						c0.3,0.3,0.5,0.5,0.5,0.9c0,0.3-0.1,0.7-0.2,1.3l-1.9,8.5c2.9-3.2,6.4-6.1,10.8-8.9c2.3-1.4,4.2-2.1,5.7-2.1
						c1.1,0,1.9,0.4,2.6,1.1c0.6,0.7,0.9,1.7,0.9,3c0,0.9-0.1,1.9-0.4,2.9c-0.4,1.8-1.6,5.8-3.5,11.9c-1.8,5.7-2.7,9.5-2.7,11.4
						c0,0.6,0.1,1,0.3,1.3c0.2,0.3,0.4,0.4,0.7,0.4c0.8,0,2.1-0.8,3.8-2.4c1.2-1.1,2.5-2.2,3.7-3.1l1.1,1.5c-2.6,2.8-5.3,5.1-8,6.9
						c-1.8,1.1-3.2,1.7-4.4,1.7c-1.1,0-1.9-0.4-2.5-1.2c-0.6-0.8-0.9-2-0.9-3.8c0-2.5,1.6-8.7,4.7-18.6c1-3.5,1.4-5.6,1.4-6.2
						c0-0.9-0.5-1.3-1.6-1.3c-1.1,0-2.6,0.6-4.3,1.8c-2.6,1.7-4.8,3.8-6.6,6.2c-1.1,1.5-2.1,3.9-2.8,7.2l-3.4,14.7h-6.3
						c1.2-4.2,2.2-8.2,3.1-12.1l3.7-16c0.1-0.6,0.2-1.1,0.2-1.4c0-0.8-0.3-1.1-0.8-1.1c-0.4,0-1.1,0.3-1.9,0.9
						C599.9,380.9,598.2,382.3,596.7,383.9z"/>
					<path fill="#808080" d="M658.2,400.3l0.9,2.4c-6.7,5.2-12.3,7.9-16.9,7.9c-2.4,0-4.2-0.9-5.3-2.6c-1.1-1.7-1.7-3.9-1.7-6.6
						c0-4.4,1.2-9,3.5-13.7c2.4-4.7,5.2-8.3,8.6-10.8c2.6-1.9,5.6-2.9,8.9-2.9c2.1,0,3.6,0.4,4.7,1.2c1.1,0.8,1.6,1.7,1.6,2.9
						c0,0.9-0.3,1.6-0.8,2.1c-0.6,0.5-1.3,0.8-2.4,0.8c-1,0-2.2-0.4-3.8-1.3c-1.6-1-2.9-1.4-4-1.4c-1.4,0-2.7,0.6-4.1,1.9
						c-1.4,1.2-2.7,3.7-3.9,7.2c-1.2,3.6-1.9,7.2-1.9,10.8c0,2.7,0.5,4.7,1.6,6.2c0.8,1.1,1.8,1.7,3.2,1.7
						C649.8,406,653.7,404.1,658.2,400.3z"/>
				</g>
			</g>
			<g>
				<path d="M45.2,373.2h-2.2c0.3-2.9,0.5-5.2,0.5-6.7c0-2.2-0.6-3.9-1.7-5.1c-1.2-1.2-2.7-1.9-4.7-1.9c-3.1,0-5.8,1.1-8.1,3.3
					c-2.3,2.2-3.4,4.7-3.4,7.5c0,1.5,0.3,2.8,0.9,4c0.6,1.2,2,2.9,4.2,5.1c3.9,3.9,6.5,6.9,7.8,9.1c1.2,2.2,1.8,4.3,1.8,6.4
					c0,3.1-0.9,6-2.8,8.8c-1.9,2.8-4.6,5.2-8.2,7c-3.6,1.8-7.5,2.8-11.5,2.8c-4,0-7.3-1-10.1-3.1c-2.7-2.1-4.1-4.3-4.1-6.6
					c0-1.2,0.4-2.3,1.1-3.1c0.7-0.8,1.5-1.2,2.5-1.2c1,0,1.7,0.4,2.4,1.1c0.4,0.4,0.8,1.5,1.2,3c0.4,1.9,1,3.3,1.6,4.1
					c0.6,0.9,1.5,1.6,2.7,2.1c1.1,0.5,2.4,0.8,3.7,0.8c4,0,7.5-1.4,10.5-4.1c3-2.7,4.5-5.7,4.5-9c0-1.1-0.2-2.2-0.6-3.3
					c-0.4-1.1-1.1-2.4-2.1-3.8c-0.7-1-2.3-2.6-4.7-5.1c-2.4-2.4-3.9-4-4.5-4.8c-0.9-1.3-1.5-2.5-1.9-3.8c-0.4-1.3-0.6-2.5-0.6-3.8
					c0-2.6,0.9-5.1,2.6-7.7c1.7-2.6,3.9-4.6,6.7-6.2c2.7-1.5,5.8-2.3,9.3-2.3c1.7,0,3.9,0.3,6.4,0.8c1.5,0.3,2.7,0.5,3.8,0.6
					c-0.6,1.8-1.1,3.5-1.4,5.2C46.3,365.2,45.8,368.4,45.2,373.2z"/>
				<path d="M77.3,373.1h6l-4,14.7c-2.3,8.5-3.5,13.4-3.5,14.6c0,0.5,0.1,0.9,0.4,1.2c0.3,0.3,0.5,0.4,0.8,0.4c0.5,0,1-0.2,1.7-0.6
					c0.9-0.6,2.7-2.3,5.3-4.9l1.4,1.6c-5.6,5.9-9.8,8.8-12.5,8.8c-0.9,0-1.7-0.3-2.3-1c-0.6-0.7-0.9-1.7-0.9-2.9
					c0-1.5,0.3-3.4,0.9-5.9c-2.5,2.9-5.6,5.4-9.3,7.5c-2.4,1.4-4.6,2.1-6.4,2.1c-1,0-1.8-0.3-2.3-1c-0.6-0.6-0.8-1.7-0.8-3.1
					c0-1.1,0.1-2.3,0.4-3.5c0.4-1.8,1.3-5.3,2.8-10.7c1.9-6.8,2.8-10.8,2.8-12.2c0-0.8-0.3-1.2-0.8-1.2c-0.5,0-1.2,0.3-2.1,0.8
					c-0.9,0.5-2.4,1.8-4.5,3.8l-1.9-1.5c3.8-3.4,6.6-5.6,8.6-6.6c2-1.1,3.6-1.6,4.8-1.6c0.7,0,1.2,0.2,1.6,0.7
					c0.4,0.5,0.6,1.3,0.6,2.3c0,1.9-1,6.7-3,14.3c-1.8,6.8-2.7,10.7-2.7,11.7c0,0.6,0.2,1.1,0.6,1.5c0.4,0.4,0.8,0.6,1.2,0.6
					c1.6,0,3.8-1.3,6.7-3.9c2.9-2.6,4.8-5.5,5.7-8.9L77.3,373.1z"/>
				<path d="M89.2,382.5l-1.6-1.7c2.6-3.1,5.1-5.3,7.6-6.8c2.5-1.5,4.7-2.2,6.6-2.2c0.7,0,1.3,0.2,1.7,0.5c0.4,0.4,0.6,0.9,0.6,1.5
					c0,0.8-0.1,1.6-0.3,2.5c-0.2,0.9-0.8,2.9-1.7,6.1c4.3-4.3,7.2-6.9,8.8-8c2.6-1.7,5.1-2.6,7.2-2.6c1.4,0,2.6,0.7,3.6,2
					c1,1.3,1.5,3.4,1.5,6.1c0,6.8-2.1,13.2-6.4,19.4c-4.2,6.1-8.9,9.2-14,9.2c-2,0-4-0.5-6.1-1.6l-3.6,13.9
					c-0.2,0.8-0.3,1.5-0.3,2.1c0,1,0.4,1.8,1.2,2.2c1.2,0.7,3.7,1.3,7.6,1.7L101,429c-4.5-0.4-8.1-0.5-10.6-0.5
					c-2.7,0-6.1,0.2-10.4,0.5l0.5-2.1c2.1-0.2,3.7-0.8,4.7-1.8c1-1,1.7-2.7,2.3-5.1l7.6-31.9c1.4-5.9,2.1-9.3,2.1-9.9
					c0-0.7-0.4-1.1-1.1-1.1C95,377,92.7,378.8,89.2,382.5z M97.7,402.3c2.2,2.2,4.5,3.3,6.8,3.3c3.4,0,6.3-2.6,8.8-7.9
					c2.5-5.2,3.8-10.4,3.8-15.4c0-1.6-0.4-2.8-1.1-3.6c-0.7-0.8-1.7-1.2-2.9-1.2c-1.3,0-2.9,0.7-4.5,2c-2.6,2-4.6,4.1-6,6.1
					c-1,1.5-1.9,4-2.8,7.6L97.7,402.3z"/>
				<path d="M148.5,396.8l1.4,1.9c-6.9,6.5-12.8,9.8-17.7,9.8c-2,0-3.5-0.7-4.6-2c-1.1-1.3-1.6-3.5-1.6-6.5c0-6,1.8-12,5.5-17.9
					c4.1-6.8,9-10.1,14.7-10.1c2,0,3.5,0.5,4.6,1.5c1.1,1,1.6,2.4,1.6,4.1c0,1.8-0.6,3.6-1.9,5.4c-1.3,1.8-3.5,3.6-6.8,5.5
					c-1.6,0.9-5.1,2.6-10.4,5c-0.3,1.5-0.4,3-0.4,4.3c0,2,0.3,3.4,0.9,4.2c0.6,0.8,1.5,1.2,2.8,1.2c1.2,0,2.4-0.3,3.8-1
					C142.3,401.3,145,399.5,148.5,396.8z M133.8,390.7c4.5-2,7.9-4.2,10.2-6.5c1.5-1.6,2.3-3.2,2.3-4.8c0-1.2-0.3-2.2-0.9-2.9
					c-0.6-0.7-1.5-1.1-2.5-1.1c-1,0-2,0.4-3,1.2c-1.3,1-2.4,2.6-3.3,4.7C135.2,384.4,134.3,387.5,133.8,390.7z"/>
				<path d="M163.6,407.4h-6.3l2.9-11.3c1.4-5.6,2.7-10.8,3.7-15.8c0.3-1.2,0.4-2,0.4-2.3c0-0.7-0.3-1-0.9-1c-0.4,0-1.1,0.3-1.9,0.9
					c-0.9,0.6-2.4,2-4.7,4.3l-1.3-1.5c2.7-2.9,5.4-5.1,8.1-6.5c2.7-1.4,4.7-2.2,6.2-2.2c0.5,0,0.9,0.1,1.2,0.4
					c0.3,0.2,0.4,0.5,0.4,0.9c0,0.4-0.2,1.3-0.6,2.9l-1.8,7.6c2.8-4.5,6-8.3,9.6-11.5c1.7-1.5,3.1-2.3,4.3-2.3
					c0.8,0,1.5,0.3,2.1,0.8c0.6,0.5,0.8,1.2,0.8,1.9c0,0.8-0.3,1.4-0.8,1.9c-0.5,0.5-1.9,1.2-4.1,1.9c-2.1,0.7-3.8,1.5-5.1,2.5
					c-1.3,1-2.7,2.5-4.3,4.5c-1.6,2-2.6,3.8-3.3,5.3c-0.6,1.5-1.6,5-2.8,10.5L163.6,407.4z"/>
				<path d="M183,381.8l-1.9-1.4c2.8-3.1,5.4-5.3,7.7-6.6c2.3-1.3,4.3-2,5.9-2c0.9,0,1.6,0.2,2.1,0.6c0.5,0.4,0.7,0.9,0.7,1.6
					c0,0.8-0.9,4.3-2.7,10.4c-3,10-4.4,16-4.4,18c0,0.4,0.1,0.7,0.3,1c0.2,0.3,0.4,0.4,0.6,0.4c0.9,0,3.2-1.7,6.9-5.2l1.6,1.6
					c-3.8,3.6-6.7,5.9-8.4,6.9c-1.8,1-3.2,1.5-4.3,1.5c-1,0-1.8-0.3-2.3-0.9c-0.6-0.6-0.9-1.5-0.9-2.6c0-3.5,2.1-12.1,6.3-25.7
					c0.2-0.6,0.3-1.2,0.3-1.7c0-0.6-0.3-0.8-0.8-0.8c-0.6,0-1.2,0.2-1.9,0.7C187,377.9,185.4,379.4,183,381.8z M199.5,353.9
					c0.9,0,1.6,0.3,2.1,0.9c0.6,0.6,0.8,1.3,0.8,2.2c0,1.2-0.4,2.3-1.3,3.3c-0.9,0.9-1.8,1.4-2.9,1.4c-0.8,0-1.5-0.3-2.1-0.9
					c-0.6-0.6-0.8-1.4-0.8-2.3c0-1.3,0.4-2.3,1.2-3.2C197.4,354.4,198.4,353.9,199.5,353.9z"/>
				<path d="M223.2,372c2.7,0,5,1.1,6.9,3.3c1.8,2.2,2.7,5.2,2.7,9.1c0,6.2-2.2,11.8-6.6,16.8c-4.4,5-9,7.4-13.9,7.4
					c-3,0-5.4-1-7.3-2.9c-1.8-2-2.8-4.6-2.8-8c0-5.9,1.7-11.3,5.1-16.3C211.6,375.1,216.8,372,223.2,372z M219.6,375.2
					c-2.4,0-4.7,1.7-6.9,5.1c-2.2,3.4-3.3,8.1-3.3,14.1c0,3.6,0.7,6.5,2.1,8.6c1,1.5,2.4,2.3,4,2.3c2.4,0,4.5-1.5,6.4-4.4
					c2.5-3.8,3.7-8.5,3.7-14.1c0-4.2-0.6-7.2-1.7-9C222.7,376.1,221.3,375.2,219.6,375.2z"/>
				<path d="M244.5,407.4h-6.3l2.9-11.3c1.4-5.6,2.7-10.8,3.7-15.8c0.3-1.2,0.4-2,0.4-2.3c0-0.7-0.3-1-0.9-1c-0.4,0-1.1,0.3-1.9,0.9
					c-0.9,0.6-2.4,2-4.7,4.3l-1.3-1.5c2.7-2.9,5.4-5.1,8.1-6.5c2.7-1.4,4.7-2.2,6.2-2.2c0.5,0,0.9,0.1,1.2,0.4
					c0.3,0.2,0.4,0.5,0.4,0.9c0,0.4-0.2,1.3-0.6,2.9l-1.8,7.6c2.8-4.5,6-8.3,9.6-11.5c1.7-1.5,3.1-2.3,4.3-2.3
					c0.8,0,1.5,0.3,2.1,0.8c0.6,0.5,0.8,1.2,0.8,1.9c0,0.8-0.3,1.4-0.8,1.9c-0.5,0.5-1.9,1.2-4.1,1.9c-2.1,0.7-3.8,1.5-5.1,2.5
					c-1.3,1-2.7,2.5-4.3,4.5c-1.6,2-2.6,3.8-3.3,5.3c-0.6,1.5-1.6,5-2.8,10.5L244.5,407.4z"/>
				<path d="M301.3,409.1l-1.5-20.4c-0.3-4.1-0.5-6.9-0.5-8.2c0-3.8,0.5-7.3,1.6-10.5c1.1-3.2,3-6.6,5.8-10.3c-3.3,0-6.6,0.8-10,2.4
					c-3.4,1.6-5.9,3.4-7.5,5.4c-1.6,2.1-2.4,4.1-2.4,6.2c0,1,0.3,2,0.9,3c0.7,1.3,1.1,2.4,1.1,3.1c0,0.6-0.2,1.2-0.6,1.6
					c-0.4,0.4-0.9,0.6-1.5,0.6c-0.9,0-1.7-0.5-2.3-1.4c-0.8-1.2-1.3-2.8-1.3-4.6c0-3.4,1.3-6.7,3.9-9.9c2.6-3.2,6.1-5.5,10.6-7
					c2.9-1,7.1-1.7,12.6-2c1.5-0.1,3-0.3,4.5-0.4c-3.8,5.6-6.3,10.2-7.4,13.9c-1.2,3.7-1.7,8.8-1.7,15.1c0,4.9,0.3,9.3,0.8,13.4
					l8.1-8.6l6.9-7.1c7-7.2,11.7-12.8,14.1-16.9c1.8-3.1,2.7-5.9,2.7-8.5c0-1.4-0.3-2.9-1-4.6c-0.4-1.1-0.6-1.9-0.6-2.4
					c0-0.8,0.3-1.4,0.9-2c0.6-0.6,1.3-0.8,2-0.8c1.1,0,2,0.5,2.7,1.6c0.7,1.1,1.1,2.8,1.1,5.1c0,2.3-0.5,4.7-1.4,7.2
					c-1,2.5-3,5.8-6,9.7c-3.1,3.9-7.8,9.1-14.2,15.6C314.8,394.2,308.1,401.5,301.3,409.1z"/>
				<path d="M358.8,396.8l1.4,1.9c-6.9,6.5-12.8,9.8-17.7,9.8c-2,0-3.5-0.7-4.6-2c-1.1-1.3-1.6-3.5-1.6-6.5c0-6,1.8-12,5.5-17.9
					c4.1-6.8,9-10.1,14.7-10.1c2,0,3.5,0.5,4.6,1.5c1.1,1,1.6,2.4,1.6,4.1c0,1.8-0.6,3.6-1.9,5.4c-1.3,1.8-3.5,3.6-6.8,5.5
					c-1.6,0.9-5.1,2.6-10.4,5c-0.3,1.5-0.4,3-0.4,4.3c0,2,0.3,3.4,0.9,4.2c0.6,0.8,1.5,1.2,2.8,1.2c1.2,0,2.4-0.3,3.8-1
					C352.5,401.3,355.2,399.5,358.8,396.8z M344,390.7c4.5-2,7.9-4.2,10.2-6.5c1.5-1.6,2.3-3.2,2.3-4.8c0-1.2-0.3-2.2-0.9-2.9
					c-0.6-0.7-1.5-1.1-2.5-1.1c-1,0-2,0.4-3,1.2c-1.3,1-2.4,2.6-3.3,4.7C345.5,384.4,344.6,387.5,344,390.7z"/>
				<path d="M367.3,381.9l-1.4-1.5c3.6-3.4,6.5-5.7,8.6-6.9c2.1-1.1,4-1.7,5.5-1.7c0.6,0,1.1,0.1,1.4,0.4c0.3,0.3,0.5,0.5,0.5,0.9
					c0,0.3-0.1,0.7-0.2,1.3l-1.9,8.5c2.9-3.2,6.4-6.1,10.8-8.9c2.3-1.4,4.2-2.1,5.7-2.1c1.1,0,1.9,0.4,2.6,1.1
					c0.6,0.7,0.9,1.7,0.9,3c0,0.9-0.1,1.9-0.4,2.9c-0.4,1.8-1.6,5.8-3.5,11.9c-1.8,5.7-2.7,9.5-2.7,11.4c0,0.6,0.1,1,0.3,1.3
					c0.2,0.3,0.4,0.4,0.7,0.4c0.8,0,2.1-0.8,3.8-2.4c1.2-1.1,2.5-2.2,3.7-3.1l1.1,1.5c-2.6,2.8-5.3,5.1-8,6.9
					c-1.8,1.1-3.2,1.7-4.4,1.7c-1.1,0-1.9-0.4-2.5-1.2c-0.6-0.8-0.9-2-0.9-3.8c0-2.5,1.6-8.7,4.7-18.6c1-3.5,1.4-5.6,1.4-6.2
					c0-0.9-0.5-1.3-1.6-1.3c-1.1,0-2.6,0.6-4.3,1.8c-2.6,1.7-4.8,3.8-6.6,6.2c-1.1,1.5-2.1,3.9-2.8,7.2l-3.4,14.7h-6.3
					c1.2-4.2,2.2-8.2,3.1-12.1l3.7-16c0.1-0.6,0.2-1.1,0.2-1.4c0-0.8-0.3-1.1-0.8-1.1c-0.4,0-1.1,0.3-1.9,0.9
					C370.4,378.8,368.8,380.2,367.3,381.9z"/>
				<path d="M438.1,398.7l1.2,1.6c-3.8,3.2-6.6,5.3-8.4,6.3c-2.5,1.4-4.5,2.1-6,2.1c-0.7,0-1.2-0.2-1.6-0.6
					c-0.4-0.4-0.6-0.8-0.6-1.3c0-0.5,0.2-1.3,0.5-2.4l1.5-5.1c-3.4,3.6-6.2,6.1-8.4,7.4c-2.2,1.3-4.3,1.9-6.1,1.9
					c-1.5,0-2.7-0.7-3.7-2c-1-1.3-1.5-3.2-1.5-5.8c0-4,1.4-8.6,4.1-13.8c2.7-5.2,5.8-9,9.1-11.5c3.4-2.5,6.4-3.7,9.2-3.7
					c0.6,0,1.5,0.1,2.8,0.3c1.3-5.5,2.6-9.4,3.8-12c1.2-2.5,2.8-4.7,4.7-6.5c1.9-1.8,4.1-3.2,6.5-4.2c2.5-1,4.7-1.5,6.9-1.5
					c1.1,0,2,0.3,2.7,0.9c0.7,0.6,1,1.3,1,2.2c0,0.9-0.3,1.6-0.9,2.1c-0.6,0.5-1.5,0.8-2.5,0.8c-0.7,0-2-0.1-3.9-0.4
					c-1.9-0.3-3.2-0.4-3.9-0.4c-1,0-1.8,0.3-2.6,0.9c-0.7,0.6-1.5,1.9-2.1,3.9c-0.4,1.3-1.5,5.3-3.1,12.1l-6,25.4c-0.7,3-1,5-1,6
					c0,1.1,0.4,1.6,1.2,1.6c0.5,0,1.1-0.2,1.8-0.5C433.5,402.2,435.3,400.8,438.1,398.7z M429.1,376.9c-2.2-0.5-3.8-0.8-4.8-0.8
					c-1.9,0-3.7,0.7-5.5,2.2c-1.8,1.5-3.5,4.3-5.2,8.6c-1.7,4.2-2.5,7.9-2.5,11.1c0,1.4,0.4,2.6,1.2,3.5c0.8,0.9,1.6,1.4,2.6,1.4
					c1.2,0,2.5-0.5,4-1.6c2.2-1.5,3.9-3.4,5.1-5.6c0.8-1.4,1.8-4.8,3.1-10.3L429.1,376.9z"/>
				<path d="M444.9,381.8l-1.9-1.4c2.8-3.1,5.4-5.3,7.7-6.6c2.3-1.3,4.3-2,5.9-2c0.9,0,1.6,0.2,2.1,0.6c0.5,0.4,0.7,0.9,0.7,1.6
					c0,0.8-0.9,4.3-2.7,10.4c-3,10-4.4,16-4.4,18c0,0.4,0.1,0.7,0.3,1c0.2,0.3,0.4,0.4,0.6,0.4c0.9,0,3.2-1.7,6.9-5.2l1.6,1.6
					c-3.8,3.6-6.7,5.9-8.4,6.9c-1.8,1-3.2,1.5-4.3,1.5c-1,0-1.8-0.3-2.3-0.9c-0.6-0.6-0.9-1.5-0.9-2.6c0-3.5,2.1-12.1,6.3-25.7
					c0.2-0.6,0.3-1.2,0.3-1.7c0-0.6-0.3-0.8-0.8-0.8c-0.6,0-1.2,0.2-1.9,0.7C449,377.9,447.4,379.4,444.9,381.8z M461.5,353.9
					c0.9,0,1.6,0.3,2.1,0.9c0.6,0.6,0.8,1.3,0.8,2.2c0,1.2-0.4,2.3-1.3,3.3c-0.9,0.9-1.8,1.4-2.9,1.4c-0.8,0-1.5-0.3-2.1-0.9
					c-0.6-0.6-0.8-1.4-0.8-2.3c0-1.3,0.4-2.3,1.2-3.2C459.4,354.4,460.3,353.9,461.5,353.9z"/>
				<path d="M465.5,381.9l-1.4-1.5c3.6-3.4,6.5-5.7,8.6-6.9c2.1-1.1,4-1.7,5.5-1.7c0.6,0,1.1,0.1,1.4,0.4c0.3,0.3,0.5,0.5,0.5,0.9
					c0,0.3-0.1,0.7-0.2,1.3l-1.9,8.5c2.9-3.2,6.4-6.1,10.8-8.9c2.3-1.4,4.2-2.1,5.7-2.1c1.1,0,1.9,0.4,2.6,1.1
					c0.6,0.7,0.9,1.7,0.9,3c0,0.9-0.1,1.9-0.4,2.9c-0.4,1.8-1.6,5.8-3.5,11.9c-1.8,5.7-2.7,9.5-2.7,11.4c0,0.6,0.1,1,0.3,1.3
					c0.2,0.3,0.4,0.4,0.7,0.4c0.8,0,2.1-0.8,3.8-2.4c1.2-1.1,2.5-2.2,3.7-3.1l1.1,1.5c-2.6,2.8-5.3,5.1-8,6.9
					c-1.8,1.1-3.2,1.7-4.4,1.7c-1.1,0-1.9-0.4-2.5-1.2c-0.6-0.8-0.9-2-0.9-3.8c0-2.5,1.6-8.7,4.7-18.6c1-3.5,1.4-5.6,1.4-6.2
					c0-0.9-0.5-1.3-1.6-1.3c-1.1,0-2.6,0.6-4.3,1.8c-2.6,1.7-4.8,3.8-6.6,6.2c-1.1,1.5-2.1,3.9-2.8,7.2l-3.4,14.7h-6.3
					c1.2-4.2,2.2-8.2,3.1-12.1l3.7-16c0.1-0.6,0.2-1.1,0.2-1.4c0-0.8-0.3-1.1-0.8-1.1c-0.4,0-1.1,0.3-1.9,0.9
					C468.7,378.8,467,380.2,465.5,381.9z"/>
				<path d="M532.2,371.7l3.4-0.8c-2,6.6-3.9,13.1-5.6,19.7c-1.2,4.7-2.1,8.6-2.6,11.8c-0.3,1.6-0.4,3.6-0.4,6
					c-0.1,4-0.5,7.3-1.3,9.8c-1.2,3.5-3.4,6.2-6.6,8.3c-3.2,2.1-7,3.2-11.4,3.2c-3.8,0-6.8-0.9-8.9-2.7c-2.2-1.8-3.3-3.8-3.3-6.1
					c0-2.3,0.9-4.4,2.6-6.4c1.3-1.5,4-3.3,8.1-5.4c2.1-1.1,4-2.2,5.9-3.4c-2.1,1.1-3.7,1.6-4.9,1.6c-1,0-2-0.5-2.8-1.5
					c-0.8-1-1.2-2.3-1.2-3.9c0-5.2,1.5-10.3,4.6-15.4c3.1-5.1,6.8-8.9,11.1-11.5c2.7-1.6,6-2.4,10-2.4c0.8,0,1.8,0,2.9,0.1
					L532.2,371.7z M521.8,400.9c-1.9,1.7-5.6,4.4-11,8.2c-4.8,3.3-7.8,5.6-8.9,7c-1.1,1.5-1.6,3-1.6,4.6c0,1.6,0.7,3,2.1,4.3
					c1.4,1.3,3.1,1.9,5.2,1.9c1.9,0,3.8-0.5,5.6-1.4c1.8-0.9,3.4-2.3,4.7-4.1c1.3-1.8,2.3-3.8,2.8-6c0.5-2.2,0.8-5.2,0.8-8.9
					C521.4,405.7,521.6,403.8,521.8,400.9z M527.5,378c-1.3-0.3-2.5-0.4-3.6-0.4c-2.7,0-4.9,0.7-6.9,2.1c-1.9,1.4-3.5,3.8-4.9,7.1
					c-1.9,4.7-2.8,8.6-2.8,11.8c0,1.3,0.4,2.4,1.1,3.3c0.7,0.9,1.6,1.3,2.5,1.3c1.1,0,2.5-0.5,4.2-1.6c1.7-1.1,3-2.4,4.1-4.1
					c1.1-1.6,2.1-4.4,3.2-8.4L527.5,378z"/>
				<path d="M590.8,357.6l-0.7,2.3c-3.2,0.2-5.3,0.6-6.3,1.2c-0.7,0.4-1.2,1-1.7,1.8c-0.5,1-2.1,6.4-4.7,16.1
					c-0.8,3.2-3,11.9-6.4,26.2c2,0.6,4.4,0.9,7.4,0.8l-0.7,2c-0.9,0-2.7-0.1-5.4-0.3c-1.9-0.2-4.2-0.3-6.8-0.3
					c-3.6,0-6.8,0.3-9.8,0.8l0.5-2.2c3.1-0.5,5.4-1.1,7-1.9c0.4-0.2,0.7-0.4,0.9-0.7c0.4-0.5,0.9-1.5,1.4-3.1
					c0.5-1.5,2.2-7.8,5-18.8c0.8-3.2,2.6-10.1,5.1-20.8c-1.9-0.1-4.3,0.2-7.1,0.8l0.8-2.3c1.2-0.3,2.4-0.5,3.6-0.7
					c1.2-0.1,4-0.2,8.4-0.4C585.5,358.2,588.6,358,590.8,357.6z"/>
				<path d="M591.3,381.9l-1.4-1.5c3.6-3.4,6.5-5.7,8.6-6.9c2.1-1.1,4-1.7,5.5-1.7c0.6,0,1.1,0.1,1.4,0.4c0.3,0.3,0.5,0.5,0.5,0.9
					c0,0.3-0.1,0.7-0.2,1.3l-1.9,8.5c2.9-3.2,6.4-6.1,10.8-8.9c2.3-1.4,4.2-2.1,5.7-2.1c1.1,0,1.9,0.4,2.6,1.1
					c0.6,0.7,0.9,1.7,0.9,3c0,0.9-0.1,1.9-0.4,2.9c-0.4,1.8-1.6,5.8-3.5,11.9c-1.8,5.7-2.7,9.5-2.7,11.4c0,0.6,0.1,1,0.3,1.3
					c0.2,0.3,0.4,0.4,0.7,0.4c0.8,0,2.1-0.8,3.8-2.4c1.2-1.1,2.5-2.2,3.7-3.1l1.1,1.5c-2.6,2.8-5.3,5.1-8,6.9
					c-1.8,1.1-3.2,1.7-4.4,1.7c-1.1,0-1.9-0.4-2.5-1.2c-0.6-0.8-0.9-2-0.9-3.8c0-2.5,1.6-8.7,4.7-18.6c1-3.5,1.4-5.6,1.4-6.2
					c0-0.9-0.5-1.3-1.6-1.3c-1.1,0-2.6,0.6-4.3,1.8c-2.6,1.7-4.8,3.8-6.6,6.2c-1.1,1.5-2.1,3.9-2.8,7.2l-3.4,14.7h-6.3
					c1.2-4.2,2.2-8.2,3.1-12.1l3.7-16c0.1-0.6,0.2-1.1,0.2-1.4c0-0.8-0.3-1.1-0.8-1.1c-0.4,0-1.1,0.3-1.9,0.9
					C594.5,378.8,592.8,380.2,591.3,381.9z"/>
				<path d="M652.8,398.3l0.9,2.4c-6.7,5.2-12.3,7.9-16.9,7.9c-2.4,0-4.2-0.9-5.3-2.6c-1.1-1.7-1.7-3.9-1.7-6.6
					c0-4.4,1.2-9,3.5-13.7c2.4-4.7,5.2-8.3,8.6-10.8c2.6-1.9,5.6-2.9,8.9-2.9c2.1,0,3.6,0.4,4.7,1.2c1.1,0.8,1.6,1.7,1.6,2.9
					c0,0.9-0.3,1.6-0.8,2.1c-0.6,0.5-1.3,0.8-2.4,0.8c-1,0-2.2-0.4-3.8-1.3c-1.6-1-2.9-1.4-4-1.4c-1.4,0-2.7,0.6-4.1,1.9
					c-1.4,1.2-2.7,3.7-3.9,7.2c-1.2,3.6-1.9,7.2-1.9,10.8c0,2.7,0.5,4.7,1.6,6.2c0.8,1.1,1.8,1.7,3.2,1.7
					C644.3,404,648.3,402.1,652.8,398.3z"/>
			</g>
		</g>
		<g>
			<g>
				<path fill="#808080" d="M249,457.5h-11.9v9.8h13l-0.3,1.7h-14.6v-23.4h14.3v1.7h-12.5v8.5H249V457.5z"/>
				<path fill="#808080" d="M263.8,462.8c0.7,3.1,2.8,4.9,6.6,4.9c4.3,0,5.9-2.1,5.9-4.7c0-2.6-1.2-4.3-6.3-5.5
					c-4.9-1.2-7.1-2.8-7.1-6.2c0-3.1,2.2-5.9,7.2-5.9c5.1,0,7.3,3.1,7.6,6h-1.9c-0.5-2.5-2.2-4.3-5.8-4.3c-3.4,0-5.2,1.6-5.2,4.2
					c0,2.6,1.5,3.6,5.8,4.6c6.6,1.6,7.5,4.3,7.5,7.1c0,3.4-2.5,6.4-7.9,6.4c-5.8,0-8-3.4-8.4-6.5H263.8z"/>
				<path fill="#808080" d="M296.6,447.3h-7.8v-1.7h17.6v1.7h-7.9V469h-1.8V447.3z"/>
				<path fill="#808080" d="M314.9,469v-4.3h1.7v4.3H314.9z"/>
				<path fill="#808080" d="M350.8,469v-19.9c-1.1,1-3.6,2.3-4.9,2.6v-1.6c1.4-0.5,3.6-1.8,5.2-3.3h1.4V469H350.8z"/>
				<path fill="#808080" d="M368.6,464.6c0.8,2.1,2.1,3.2,4.5,3.2c5,0,5.4-7.1,5.5-10.1c-1.1,2.2-3.1,3.1-5.7,3.1
					c-3.8,0-6.4-2.9-6.4-6.9c0-3.8,2.5-7.2,6.9-7.2c5,0,7,4,7,10c0,5.5-1,12.7-7.3,12.7c-3.9,0-5.6-2.2-6.3-4.7H368.6z M368.3,453.8
					c0,3.2,1.8,5.3,4.8,5.3c3.7,0,5.2-1.9,5.2-5.2c0-1.3-0.4-5.7-5-5.7C369.8,448.3,368.3,450.7,368.3,453.8z"/>
				<path fill="#808080" d="M394.7,464.6c0.8,2.1,2.1,3.2,4.5,3.2c5,0,5.4-7.1,5.5-10.1c-1.1,2.2-3.1,3.1-5.7,3.1
					c-3.8,0-6.4-2.9-6.4-6.9c0-3.8,2.5-7.2,6.9-7.2c5,0,7,4,7,10c0,5.5-1,12.7-7.3,12.7c-3.9,0-5.6-2.2-6.3-4.7H394.7z M394.3,453.8
					c0,3.2,1.8,5.3,4.8,5.3c3.7,0,5.2-1.9,5.2-5.2c0-1.3-0.4-5.7-5-5.7C395.8,448.3,394.3,450.7,394.3,453.8z"/>
				<path fill="#808080" d="M433.1,457.9c0,5-1.3,11.5-7.2,11.5c-5.7,0-7.1-6-7.1-11.4c0-5.4,1.5-11.4,7.2-11.4
					C431.7,446.7,433.1,452.7,433.1,457.9z M420.6,458.1c0,4.3,0.9,9.7,5.3,9.7c4.5,0,5.3-5.2,5.3-9.9c0-4.2-0.9-9.6-5.2-9.6
					C421.5,448.3,420.6,453.2,420.6,458.1z"/>
			</g>
			<g>
				<path d="M246.7,456.3h-11.9v9.8h13l-0.3,1.7H233v-23.4h14.3v1.7h-12.5v8.5h11.9V456.3z"/>
				<path d="M261.5,461.5c0.7,3.1,2.8,4.9,6.6,4.9c4.3,0,5.9-2.1,5.9-4.7c0-2.6-1.2-4.3-6.3-5.5c-4.9-1.2-7.1-2.8-7.1-6.2
					c0-3.1,2.2-5.9,7.2-5.9c5.1,0,7.3,3.1,7.6,6h-1.9c-0.5-2.5-2.2-4.3-5.8-4.3c-3.4,0-5.2,1.6-5.2,4.2c0,2.6,1.5,3.6,5.8,4.6
					c6.6,1.6,7.5,4.3,7.5,7.1c0,3.4-2.5,6.4-7.9,6.4c-5.8,0-8-3.4-8.4-6.5H261.5z"/>
				<path d="M294.4,446.1h-7.8v-1.7h17.6v1.7h-7.9v21.7h-1.8V446.1z"/>
				<path d="M312.6,467.8v-4.3h1.7v4.3H312.6z"/>
				<path d="M348.5,467.8v-19.9c-1.1,1-3.6,2.3-4.9,2.6v-1.6c1.4-0.5,3.6-1.8,5.2-3.3h1.4v22.1H348.5z"/>
				<path d="M366.4,463.4c0.8,2.1,2.1,3.2,4.5,3.2c5,0,5.4-7.1,5.5-10.1c-1.1,2.2-3.1,3.1-5.7,3.1c-3.8,0-6.4-2.9-6.4-6.9
					c0-3.8,2.5-7.2,6.9-7.2c5,0,7,4,7,10c0,5.5-1,12.7-7.3,12.7c-3.9,0-5.6-2.2-6.3-4.7H366.4z M366.1,452.6c0,3.2,1.8,5.3,4.8,5.3
					c3.7,0,5.2-1.9,5.2-5.2c0-1.3-0.4-5.7-5-5.7C367.5,447,366.1,449.5,366.1,452.6z"/>
				<path d="M392.4,463.4c0.8,2.1,2.1,3.2,4.5,3.2c5,0,5.4-7.1,5.5-10.1c-1.1,2.2-3.1,3.1-5.7,3.1c-3.8,0-6.4-2.9-6.4-6.9
					c0-3.8,2.5-7.2,6.9-7.2c5,0,7,4,7,10c0,5.5-1,12.7-7.3,12.7c-3.9,0-5.6-2.2-6.3-4.7H392.4z M392.1,452.6c0,3.2,1.8,5.3,4.8,5.3
					c3.7,0,5.2-1.9,5.2-5.2c0-1.3-0.4-5.7-5-5.7C393.6,447,392.1,449.5,392.1,452.6z"/>
				<path d="M430.8,456.6c0,5-1.3,11.5-7.2,11.5c-5.7,0-7.1-6-7.1-11.4c0-5.4,1.5-11.4,7.2-11.4
					C429.5,445.4,430.8,451.4,430.8,456.6z M418.4,456.8c0,4.3,0.9,9.7,5.3,9.7c4.5,0,5.3-5.2,5.3-9.9c0-4.2-0.9-9.6-5.2-9.6
					C419.3,447,418.4,452,418.4,456.8z"/>
			</g>
		</g>
		<g>
			<g>
				<rect x="459.6" y="457.1" width="200.3" height="4.2"/>
			</g>
			<g>
				<rect x="6.2" y="457.1" width="205.7" height="4.2"/>
			</g>
		</g>
		<g>
			<path fill="#AAAAAA" d="M492.9,98.5c-3-4.6-6.8-6.9-11.2-6.9c-3.3,0-6.2,1.2-8.6,3.6c-2.4,2.4-3.6,5.3-3.6,8.6
				c0,2.4,0.8,5.6,2.4,9.9c2.3,6.3,3.5,12.1,3.5,17.2c0,9.5-3.4,20.2-10,31.9c-8.9,15.6-26.5,37.4-52.2,64.6l-25.7,27.1l-28.1,30.8
				c-1.6-14.6-2.5-30.7-2.5-48c0-24.2,2.1-43.5,6.4-57.6c4.2-14,13.5-31.9,27.4-52.9l1.7-2.6l-3.1,0.3c-5.7,0.6-11.4,1.2-16.9,1.6
				c-20.6,1.4-36.5,4-47.3,7.8c-5.4,1.9-10.4,4.1-15.1,6.7c-0.7-1.5-1.4-2.9-2.2-4.4c-4.6-8.5-14.4-20.3-29.1-35.2
				c-7.9-8.1-13-14.5-15.3-19c-2.2-4.4-3.4-9.4-3.4-14.8c0-10.2,4.2-19.5,12.4-27.8c8.2-8.2,18-12.4,29-12.4c7,0,12.5,2.3,16.5,6.7
				c4.1,4.5,6.1,10.7,6.1,18.6c0,5.7-0.6,14.3-1.7,25.5l-0.2,1.6h11l0.2-1.3c2.2-18.3,3.9-30.6,5.2-36.7c1.2-6.1,3-12.7,5.3-19.6
				l0.6-1.7l-1.7-0.2c-3.9-0.5-8.6-1.3-14-2.4c-9.6-2.1-17.7-3.1-24.3-3.1c-13.1,0-25,3-35.4,9c-10.3,6-18.9,14.1-25.3,24.1
				c-6.5,10.1-9.8,20.3-9.8,30.4c0,5,0.8,10,2.4,15.1c1.6,5,10.2,0.7,13.5,5.6l6.1,6.2c2.4,3.4,1.8,3.4,10.8,12.6
				c8.9,9.2,14.7,15.6,17.2,19.2c3.7,5.2,0.1,19.3,1.5,23.4c0.1,0.2,0.1,0.5,0.2,0.7c-0.2,0.2-0.4,0.5-0.6,0.7
				c-4.9,6.2-8.6,12.6-11,19c-2.5,6.5-3.7,13.1-3.7,19.9c0,2,0.2,4,0.4,5.8c-10.8,9.8-23.5,14.8-37.8,14.8c-4.8,0-9.2-1-13.3-3
				c-4-2-7.2-4.6-9.4-7.6c-2.3-3.1-17.2-4.8-18.8-11.9l-3.2-2.9c-1.5-6.3,0.2-7.4-1.5-9.3c-2.6-3.2-5.9-4.9-9.9-4.9
				c-3.9,0,5.7-1.7,2.7,1.7c-2.9,3.4-4.3,7.7-4.3,12.7c0,4.7,1.4,9.3,4,13.7c2.6,4.3,6.6,8.6,11.8,12.7c5.2,4.1,11.1,7.2,17.5,9.2
				c6.4,2,13.4,3.1,20.9,3.1c7.6,0,15.1-0.9,22.3-2.7c7.2-1.8,14.3-4.5,21.2-8c1.5-0.8,2.9-1.6,4.3-2.4c2.3,2.3,4.9,3.4,7.8,3.4
				c2.7,0,4.9-0.9,6.6-2.7c1.7-1.8,2.6-4.1,2.6-7c0-1.5-0.4-3.3-1.1-5.5c4.3-4.1,8-8.5,11.1-13.2c7.1-11.1,10.7-22.7,10.7-34.7
				c0-2.9-0.3-5.7-0.9-8.7c2.7-1.6,5.6-3.2,8.8-4.7c11.4-5.4,22.8-8.4,33.9-8.9c-9.4,13.2-16.1,25.8-19.9,37.4
				c-4.1,12.3-6.1,26-6.1,40.6c0,5.1,0.6,15.7,1.7,31.5l6,81.5l2.2-2.6c25.2-29.2,50.6-57.1,75.5-82.9c23.8-24.8,41.6-45,53-60
				c11.4-15.1,19-27.7,22.6-37.6c3.6-9.9,5.4-19.3,5.4-28.2C497.2,109.8,495.8,102.9,492.9,98.5z"/>
			<g>
				<g>
					<path fill="#0014B8" d="M325.9,67.4h-8.1c1.1-11.3,1.7-19.8,1.7-25.7c0-8.3-2.2-14.8-6.5-19.6c-4.3-4.8-10.2-7.2-17.6-7.2
						c-11.5,0-21.5,4.3-30,12.8c-8.5,8.6-12.8,18.2-12.8,28.8c0,5.7,1.2,10.9,3.5,15.5c2.3,4.6,7.5,11.1,15.5,19.4
						c14.7,14.9,24.3,26.5,28.9,34.9c4.6,8.4,6.9,16.6,6.9,24.5c0,11.7-3.5,23-10.4,33.9c-6.9,10.9-17.2,19.8-30.7,26.9
						c-13.5,7-27.8,10.6-42.9,10.6c-14.8,0-27.3-4-37.5-11.9c-10.2-8-15.3-16.3-15.3-25.2c0-4.7,1.3-8.7,4-11.8
						c2.7-3.1,5.7-4.7,9.2-4.7c3.5,0,6.5,1.5,8.8,4.4c1.5,1.7,2.9,5.6,4.4,11.6c1.7,7.3,3.7,12.6,6.1,15.9c2.4,3.3,5.7,6,9.9,8.1
						c4.2,2.1,8.9,3.1,13.9,3.1c14.9,0,28-5.2,39.2-15.6c11.2-10.4,16.8-21.9,16.8-34.5c0-4.3-0.7-8.6-2.1-12.8
						c-1.4-4.3-4-9.1-7.8-14.5c-2.6-3.7-8.4-10.1-17.4-19.4c-8.9-9-14.5-15.2-16.8-18.6c-3.2-4.8-5.6-9.7-7.2-14.6
						c-1.6-4.9-2.3-9.8-2.3-14.6c0-9.8,3.2-19.6,9.6-29.5c6.4-9.9,14.7-17.8,24.8-23.7c10.2-5.9,21.8-8.8,34.7-8.8
						c6.5,0,14.5,1,24,3.1c5.4,1.1,10.1,1.9,14.1,2.4c-2.3,7-4.1,13.6-5.3,19.8C329.8,36.7,328.1,49,325.9,67.4z"/>
					<path fill="#231F20" d="M223.1,223.6c-7.5,0-14.6-1-20.9-3.1c-6.4-2-12.3-5.1-17.5-9.2c-5.2-4.1-9.2-8.3-11.8-12.7
						c-2.7-4.4-4-9-4-13.7c0-5.1,1.5-9.4,4.3-12.7c2.9-3.4,6.4-5.2,10.2-5.2c4,0,7.3,1.6,9.9,4.9c1.6,1.9,3.2,5.9,4.7,12.2l0,0
						c1.6,7.1,3.6,12.2,5.9,15.3c2.3,3.1,5.4,5.6,9.4,7.6c4,2,8.5,3,13.3,3c14.5,0,27.4-5.1,38.2-15.2c10.8-10,16.3-21.3,16.3-33.4
						c0-4.1-0.7-8.3-2-12.4c-1.4-4.1-3.9-8.8-7.6-14.1c-2.6-3.6-8.4-10-17.2-19.2c-9-9.2-14.6-15.3-16.9-18.8l0,0
						c-3.3-4.9-5.8-10-7.4-15c-1.6-5-2.4-10.1-2.4-15.1c0-10,3.3-20.3,9.8-30.4c6.5-10.1,15-18.2,25.3-24.1c10.4-6,22.3-9,35.4-9
						c6.5,0,14.7,1,24.3,3.1c5.4,1.1,10.1,1.9,14,2.4l1.7,0.2l-0.6,1.7c-2.3,6.9-4,13.5-5.3,19.6c-1.2,6.1-3,18.5-5.2,36.7l-0.2,1.3
						h-11l0.2-1.6c1.1-11.2,1.7-19.8,1.7-25.5c0-7.9-2.1-14.1-6.1-18.6c-4-4.5-9.6-6.7-16.5-6.7c-11,0-20.8,4.2-29,12.4
						c-8.2,8.2-12.4,17.6-12.4,27.8c0,5.4,1.1,10.4,3.4,14.8c2.3,4.5,7.4,10.9,15.3,19c14.7,14.9,24.5,26.7,29.1,35.2
						c4.7,8.6,7.1,17.1,7.1,25.3c0,12-3.6,23.6-10.7,34.7c-3.5,5.5-8,10.6-13.2,15.2c-5.2,4.5-11.3,8.6-18.1,12.2
						c-6.8,3.6-14,6.3-21.2,8C238.2,222.7,230.7,223.6,223.1,223.6z M183.4,170c-3,0-5.7,1.4-8.1,4.2c-2.4,2.9-3.6,6.4-3.6,10.8
						c0,8.3,5,16.4,14.7,24c9.9,7.7,22.2,11.6,36.7,11.6c14.7,0,28.9-3.5,42.2-10.4c13.2-6.9,23.4-15.8,30.2-26.4
						c6.8-10.6,10.2-21.7,10.2-33.1c0-7.7-2.3-15.7-6.7-23.8c-4.5-8.2-14.1-19.9-28.7-34.5l0,0c-8.2-8.5-13.4-14.9-15.8-19.7
						c-2.4-4.8-3.7-10.3-3.7-16.2c0-5.5,1.1-10.8,3.3-15.8c2.2-4.9,5.5-9.7,9.9-14.1c4.4-4.4,9.2-7.7,14.4-9.9
						c5.2-2.2,10.8-3.3,16.6-3.3c7.8,0,14,2.6,18.6,7.6c4.6,5,6.9,12,6.9,20.6c0,5.5-0.5,13.7-1.6,24.2h5.3
						c2.1-17.6,3.8-29.7,5-35.7c1.2-5.7,2.8-11.9,4.8-18.3c-3.6-0.5-7.8-1.3-12.5-2.2l0,0c-9.4-2-17.3-3-23.7-3
						c-12.6,0-24.1,2.9-34,8.6c-9.9,5.7-18.1,13.5-24.3,23.2c-6.2,9.6-9.3,19.3-9.3,28.7c0,4.7,0.8,9.4,2.3,14.2
						c1.5,4.7,3.9,9.5,7,14.2c2.2,3.3,7.8,9.4,16.6,18.4c9,9.3,14.9,15.8,17.5,19.5l0,0c3.8,5.5,6.5,10.5,7.9,14.8
						c1.5,4.4,2.2,8.9,2.2,13.3c0,6.5-1.5,12.8-4.3,18.7c-2.9,5.9-7.2,11.5-12.9,16.8c-5.7,5.3-12,9.3-18.6,12
						c-6.7,2.7-13.9,4-21.5,4c-5.2,0-10.1-1.1-14.5-3.3c-4.4-2.2-7.9-5.1-10.5-8.5c-2.5-3.5-4.6-8.8-6.4-16.4
						c-1.7-7.2-3.2-9.9-4.1-11l0,0C189.1,171.2,186.6,170,183.4,170z"/>
				</g>
				<g>
					<path fill="#0014B8" d="M333.4,316.2l-5.7-78c-1.2-15.9-1.7-26.4-1.7-31.4c0-14.6,2-27.9,6-40.2c4-12.2,11.2-25.4,21.4-39.4
						c-12.2,0-24.6,3-37.3,9.1c-12.7,6-22,13-27.8,20.9c-5.9,7.9-8.8,15.8-8.8,23.8c0,3.7,1.1,7.5,3.2,11.6
						c2.8,5.2,4.1,9.1,4.1,11.8c0,2.5-0.7,4.5-2.2,6c-1.5,1.5-3.3,2.3-5.6,2.3c-3.3,0-6.2-1.8-8.7-5.3c-3.1-4.7-4.7-10.6-4.7-17.6
						c0-13.1,4.8-25.8,14.4-37.9c9.6-12.2,22.8-21.1,39.4-26.9c10.7-3.8,26.4-6.3,47-7.7c5.5-0.4,11.2-1,16.9-1.6
						c-14.1,21.3-23.3,39.1-27.6,53.3c-4.3,14.3-6.4,33.6-6.4,58c0,18.7,0.9,35.8,2.8,51.3l30.1-33.1l25.7-27.1
						c25.9-27.4,43.4-49,52.4-64.9c6.8-11.9,10.2-22.8,10.2-32.6c0-5.4-1.2-11.3-3.6-17.7c-1.6-4.1-2.4-7.2-2.4-9.4
						c0-2.9,1.1-5.4,3.2-7.6c2.1-2.2,4.7-3.2,7.6-3.2c4,0,7.3,2.1,10,6.3c2.7,4.2,4.1,10.8,4.1,19.7c0,8.7-1.8,17.9-5.3,27.7
						c-3.6,9.7-11,22.1-22.4,37.2c-11.4,15.1-29,35-52.9,59.9C383.9,259.2,358.8,286.8,333.4,316.2z"/>
					<path fill="#231F20" d="M332.2,319.7l-6-81.5c-1.2-15.9-1.7-26.5-1.7-31.5c0-14.6,2.1-28.3,6.1-40.6
						c3.8-11.6,10.5-24.2,19.9-37.4c-11,0.4-22.4,3.4-33.9,8.9c-12.4,5.9-21.6,12.8-27.3,20.4c-5.7,7.6-8.5,15.3-8.5,22.9
						c0,3.4,1,7.1,3.1,10.9c2.9,5.4,4.3,9.5,4.3,12.5c0,2.9-0.9,5.2-2.6,7c-1.7,1.8-3.9,2.7-6.6,2.7c-3.8,0-7.1-2-9.9-5.9l0,0
						c-3.3-5-4.9-11.1-4.9-18.4c0-6.7,1.2-13.4,3.7-19.9c2.4-6.4,6.2-12.8,11-19c4.9-6.2,10.7-11.6,17.4-16.1
						c6.6-4.5,14.3-8.3,22.7-11.3c10.8-3.8,26.7-6.4,47.3-7.8c5.4-0.4,11.1-1,16.9-1.6l3.1-0.3l-1.7,2.6
						c-14,21.1-23.2,38.9-27.4,52.9c-4.2,14-6.4,33.4-6.4,57.6c0,17.3,0.8,33.5,2.5,48l28.1-30.8l25.7-27.1
						c25.7-27.2,43.3-48.9,52.2-64.6c6.6-11.7,10-22.4,10-31.9c0-5.2-1.2-11-3.5-17.2c-1.6-4.3-2.4-7.5-2.4-9.9
						c0-3.3,1.2-6.2,3.6-8.6c2.4-2.4,5.3-3.6,8.6-3.6c4.5,0,8.2,2.3,11.2,6.9c2.9,4.4,4.3,11.3,4.3,20.5c0,8.8-1.8,18.3-5.4,28.2
						c-3.6,9.8-11.2,22.5-22.6,37.6c-11.4,15-29.2,35.2-53,60c-24.8,25.9-50.2,53.8-75.5,82.9L332.2,319.7z M353.4,125.7h2.9
						l-1.7,2.3c-10.1,13.8-17.3,26.9-21.2,39c-4,12-6,25.4-6,39.7c0,5,0.6,15.5,1.7,31.3l5.5,74.6c24.5-28.3,49.2-55.3,73.3-80.5
						c23.7-24.7,41.4-44.8,52.7-59.7c11.3-14.9,18.7-27.3,22.2-36.8c3.5-9.5,5.2-18.7,5.2-27.2c0-8.6-1.3-14.9-3.8-18.9
						c-2.5-3.8-5.4-5.6-8.8-5.6c-2.6,0-4.7,0.9-6.6,2.8c-1.9,1.9-2.8,4-2.8,6.5c0,2,0.8,4.9,2.3,8.8l0,0c2.5,6.6,3.7,12.7,3.7,18.3
						c0,10-3.5,21.2-10.4,33.3c-4.5,7.9-11.2,17.4-20,28.3c-8.7,10.8-19.7,23.2-32.6,36.9L383.3,246l-32.2,35.4l-0.4-3.1
						c-1.9-15.5-2.8-32.8-2.8-51.5c0-24.5,2.2-44.1,6.5-58.4c4.1-13.7,12.9-30.9,26.1-51.1c-4.7,0.5-9.4,0.9-13.9,1.3l0,0
						c-20.3,1.4-36,4-46.6,7.7c-16.4,5.7-29.4,14.6-38.8,26.5c-9.3,11.8-14.1,24.3-14.1,37c0,6.7,1.5,12.3,4.4,16.7
						c2.2,3.2,4.7,4.7,7.5,4.7c1.9,0,3.4-0.6,4.6-1.8c1.2-1.2,1.8-2.9,1.8-5c0-2.4-1.3-6.2-4-11.1c-2.3-4.3-3.4-8.4-3.4-12.3
						c0-8.3,3.1-16.6,9.1-24.7c6-8,15.6-15.2,28.4-21.3C328.3,128.8,341,125.7,353.4,125.7z"/>
				</g>
			</g>
		</g>
	</g>
</g>
</svg>
