<svg width="93" height="66" viewBox="0 0 93 66" fill="none" xmlns="http://www.w3.org/2000/svg">
<path d="M42.3369 5.97481C42.2356 6.16813 41.9982 6.24424 41.8015 6.14984C40.7278 5.63474 39.5791 5.19137 38.3552 4.81972C36.9961 4.40702 35.6834 4.20067 34.417 4.20067C32.6872 4.20067 31.3127 4.58389 30.2934 5.35033C29.2741 6.08729 28.7645 7.10429 28.7645 8.40134C28.7645 9.31518 29.1042 10.1111 29.7838 10.7891C30.4633 11.4671 31.3436 12.0567 32.4247 12.5578C33.5058 13.0589 34.6486 13.5306 35.8533 13.9728C36.8726 14.3265 37.8764 14.7539 38.8648 15.2551C39.8841 15.7267 40.7953 16.3163 41.5984 17.0238C42.4324 17.7313 43.081 18.6156 43.5444 19.6768C44.0386 20.7086 44.2857 21.9761 44.2857 23.4795C44.2857 25.1893 43.8378 26.7369 42.942 28.1224C42.0772 29.5079 40.8108 30.6133 39.1428 31.4387C37.5058 32.2346 35.5135 32.6326 33.166 32.6326C31.7452 32.6326 30.3552 32.4852 28.9961 32.1904C27.6679 31.8662 26.4015 31.4535 25.1969 30.9523C24.1556 30.4816 23.1993 29.976 22.3282 29.4357C22.1443 29.3216 22.0892 29.0806 22.2013 28.8956L24.0061 25.9173C24.1246 25.7217 24.3825 25.6654 24.5751 25.7889C25.2301 26.2088 25.9625 26.6181 26.7722 27.017C27.7297 27.4591 28.7181 27.8129 29.7374 28.0782C30.7876 28.3435 31.776 28.4761 32.7027 28.4761C33.722 28.4761 34.7258 28.314 35.7143 27.9897C36.7027 27.636 37.5212 27.1054 38.1699 26.3979C38.8185 25.6609 39.1428 24.7029 39.1428 23.5238C39.1428 22.5215 38.8494 21.6814 38.2625 21.0034C37.7065 20.2959 36.9498 19.6916 35.9923 19.1904C35.0656 18.6893 34.0618 18.2471 32.9807 17.8639C31.9305 17.4807 30.8648 17.0533 29.7838 16.5816C28.7027 16.1099 27.6988 15.5499 26.7722 14.9013C25.8456 14.2233 25.0888 13.3979 24.5019 12.4251C23.9459 11.4229 23.668 10.1995 23.668 8.75508C23.668 7.04534 24.0849 5.55668 24.9189 4.28911C25.7838 2.99206 26.973 1.97505 28.4865 1.23809C30 0.501132 31.7452 0.0884341 33.722 0C35.9768 0 37.9382 0.265306 39.6061 0.795917C41.131 1.281 42.5009 1.8523 43.716 2.50983C43.9056 2.61245 43.9747 2.84874 43.8746 3.03974L42.3369 5.97481Z" fill="#0014B8"/>
<path fill-rule="evenodd" clip-rule="evenodd" d="M36.534 6.36719C36.6964 6.36719 36.8427 6.46539 36.9042 6.61571L45.3256 27.1972C45.4624 27.5314 45.9371 27.5276 46.0684 27.1911L54.0966 6.62175C54.1565 6.46824 54.3044 6.36719 54.4692 6.36719H60.3901C60.678 6.36719 60.8717 6.66229 60.757 6.92644L45.8228 41.3367C45.6834 41.6579 45.2278 41.6576 45.0888 41.3363L30.2008 6.92602C30.0865 6.66192 30.2801 6.36719 30.5679 6.36719H36.534ZM46.0785 28.4262C45.9472 28.7626 45.4725 28.7665 45.3357 28.4322L36.5931 7.06589C36.5316 6.91557 36.3853 6.81737 36.2229 6.81737H31.2619C30.9742 6.81737 30.7806 7.1121 30.8948 7.3762L45.0894 40.1838C45.2285 40.5052 45.6841 40.5054 45.8235 40.1842L60.0621 7.37662C60.1768 7.11247 59.9832 6.81737 59.6952 6.81737H54.7857C54.6209 6.81737 54.473 6.91842 54.413 7.07193L46.0785 28.4262Z" fill="#0014B8"/>
<path d="M4.70747 47.7727C4.46454 47.648 4.19863 47.5397 3.90974 47.4477C3.62084 47.3558 3.33852 47.3099 3.06276 47.3099C2.68194 47.3099 2.37664 47.3985 2.14684 47.5758C1.9236 47.7531 1.81198 47.9894 1.81198 48.2849C1.81198 48.5081 1.88421 48.6985 2.02865 48.8561C2.1731 49.0071 2.3635 49.1384 2.59987 49.25C2.83624 49.3617 3.08245 49.4667 3.33852 49.5652C3.56175 49.6505 3.7817 49.7458 3.99837 49.8508C4.21504 49.9559 4.40873 50.0872 4.57944 50.2447C4.75672 50.4023 4.8946 50.596 4.99308 50.8258C5.09813 51.0556 5.15066 51.3412 5.15066 51.6826C5.15066 52.0569 5.05546 52.3983 4.86505 52.7069C4.68121 53.0155 4.4153 53.2584 4.06731 53.4357C3.71933 53.613 3.30569 53.7016 2.82639 53.7016C2.51123 53.7016 2.20921 53.6655 1.92032 53.5933C1.63799 53.521 1.37536 53.4291 1.13243 53.3175C0.889497 53.1993 0.672828 53.0779 0.482422 52.9531L0.905912 52.2046C1.06349 52.3162 1.24405 52.4246 1.44758 52.5296C1.65112 52.6281 1.86451 52.7102 2.08774 52.7758C2.31098 52.8349 2.52765 52.8645 2.73775 52.8645C2.96099 52.8645 3.18094 52.8251 3.39761 52.7463C3.62084 52.6609 3.80468 52.5329 3.94913 52.3622C4.09358 52.1915 4.1658 51.965 4.1658 51.6826C4.1658 51.4397 4.10014 51.2395 3.96883 51.0819C3.84408 50.9177 3.67665 50.7799 3.46655 50.6682C3.25644 50.5501 3.03321 50.445 2.79684 50.3531C2.57361 50.2677 2.34709 50.1758 2.11729 50.0773C1.88749 49.9723 1.6741 49.8475 1.47713 49.7031C1.28016 49.5521 1.12258 49.3682 1.0044 49.1516C0.886215 48.9349 0.827123 48.6723 0.827123 48.3637C0.827123 47.9894 0.91576 47.6644 1.09304 47.3887C1.27688 47.1063 1.52637 46.8864 1.84153 46.7288C2.15668 46.5647 2.5178 46.476 2.92488 46.4629C3.38448 46.4629 3.78827 46.5187 4.13625 46.6303C4.4908 46.7419 4.80268 46.8798 5.07187 47.044L4.70747 47.7727Z" fill="#222222"/>
<path d="M7.81994 53.7804C7.45226 53.7804 7.14695 53.6688 6.90402 53.4455C6.66765 53.2157 6.5429 52.9203 6.52977 52.5592V49.5455H7.44569V52.2342C7.45882 52.4574 7.5212 52.638 7.63281 52.7758C7.751 52.9137 7.93484 52.9859 8.18434 52.9925C8.41414 52.9925 8.61767 52.9269 8.79495 52.7955C8.97879 52.6577 9.12652 52.4738 9.23814 52.244C9.34975 52.0076 9.40556 51.7417 9.40556 51.4463V49.5455H10.3215V53.6228H9.48435L9.40556 52.6183L9.45481 52.7955C9.37602 52.9859 9.25455 53.1567 9.09041 53.3077C8.93283 53.4521 8.74571 53.567 8.52904 53.6524C8.31237 53.7377 8.076 53.7804 7.81994 53.7804Z" fill="#222222"/>
<path d="M14.3092 53.7213C14.0006 53.7213 13.7018 53.6491 13.4129 53.5046C13.1306 53.3602 12.9107 53.1665 12.7531 52.9236L12.8122 52.638V55.5827H11.9061V49.4864H12.694L12.822 50.5304L12.7235 50.2447C12.9205 49.9952 13.17 49.7884 13.472 49.6243C13.7741 49.4601 14.1122 49.3781 14.4864 49.3781C14.8673 49.3781 15.2087 49.47 15.5107 49.6538C15.8193 49.8377 16.0622 50.0937 16.2395 50.422C16.4168 50.7503 16.5054 51.1344 16.5054 51.5743C16.5054 52.0142 16.4102 52.395 16.2198 52.7167C16.0294 53.0385 15.7668 53.288 15.4319 53.4652C15.1036 53.636 14.7294 53.7213 14.3092 53.7213ZM14.1319 52.9925C14.3945 52.9925 14.6342 52.9334 14.8508 52.8152C15.0741 52.6905 15.2513 52.5231 15.3827 52.313C15.514 52.0963 15.5796 51.8534 15.5796 51.5842C15.5796 51.3084 15.5173 51.0655 15.3925 50.8554C15.2678 50.6387 15.1003 50.468 14.8902 50.3432C14.6867 50.2185 14.4569 50.1561 14.2008 50.1561C13.9645 50.1561 13.7511 50.2021 13.5607 50.294C13.3703 50.3859 13.2127 50.5139 13.0879 50.6781C12.9632 50.8357 12.8746 51.0195 12.822 51.2296V51.9092C12.8549 52.1193 12.9336 52.3064 13.0584 52.4705C13.1831 52.6347 13.3374 52.7627 13.5213 52.8546C13.7117 52.9465 13.9152 52.9925 14.1319 52.9925Z" fill="#222222"/>
<path d="M19.635 53.7213C19.1689 53.7213 18.7684 53.6294 18.4335 53.4455C18.0986 53.2551 17.8393 52.9991 17.6555 52.6774C17.4782 52.3491 17.3895 51.9748 17.3895 51.5546C17.3895 51.1541 17.4913 50.7897 17.6949 50.4614C17.8984 50.1331 18.1709 49.8705 18.5123 49.6735C18.8537 49.4766 19.2345 49.3781 19.6547 49.3781C20.1931 49.3781 20.6396 49.5356 20.9941 49.8508C21.3487 50.166 21.5883 50.5993 21.7131 51.1508L18.3547 52.3327L18.138 51.791L20.8956 50.7864L20.6987 50.9145C20.6199 50.6978 20.4886 50.5107 20.3047 50.3531C20.1209 50.1889 19.8812 50.1069 19.5858 50.1069C19.3363 50.1069 19.1131 50.1692 18.9161 50.294C18.7191 50.4122 18.5648 50.5763 18.4532 50.7864C18.3416 50.9965 18.2858 51.2362 18.2858 51.5054C18.2858 51.7877 18.3449 52.0372 18.463 52.2539C18.5812 52.464 18.7421 52.6314 18.9456 52.7561C19.1557 52.8743 19.3921 52.9334 19.6547 52.9334C19.832 52.9334 20.0027 52.9006 20.1669 52.8349C20.3376 52.7693 20.4951 52.6839 20.6396 52.5789L21.0631 53.2584C20.8595 53.3963 20.6297 53.5079 20.3737 53.5933C20.1242 53.6786 19.878 53.7213 19.635 53.7213Z" fill="#222222"/>
<path d="M23.6782 49.5455L23.7668 50.7273L23.7176 50.5698C23.8226 50.3203 23.9736 50.1102 24.1706 49.9394C24.3742 49.7622 24.5843 49.6276 24.8009 49.5356C25.0242 49.4372 25.2178 49.3879 25.382 49.3879L25.3328 50.294C25.0242 50.2743 24.7517 50.3334 24.5153 50.4713C24.2855 50.6091 24.1017 50.793 23.9638 51.0228C23.8325 51.2526 23.7668 51.4988 23.7668 51.7614V53.6228H22.8608V49.5455H23.6782Z" fill="#222222"/>
<path d="M26.5636 49.5455H27.4795V53.6228H26.5636V49.5455ZM26.4947 48.0682C26.4947 47.9238 26.5505 47.8023 26.6621 47.7038C26.7803 47.6053 26.9083 47.5561 27.0462 47.5561C27.1841 47.5561 27.3055 47.6053 27.4106 47.7038C27.5222 47.8023 27.578 47.9238 27.578 48.0682C27.578 48.2192 27.5222 48.344 27.4106 48.4425C27.3055 48.5344 27.1841 48.5803 27.0462 48.5803C26.9083 48.5803 26.7803 48.5311 26.6621 48.4326C26.5505 48.3341 26.4947 48.2127 26.4947 48.0682Z" fill="#222222"/>
<path d="M28.7097 51.5448C28.7097 51.1377 28.8049 50.77 28.9953 50.4417C29.1922 50.1134 29.4614 49.8541 29.8029 49.6637C30.1443 49.4733 30.5317 49.3781 30.965 49.3781C31.4115 49.3781 31.8021 49.4733 32.137 49.6637C32.4718 49.8541 32.7312 50.1134 32.915 50.4417C33.0989 50.77 33.1908 51.1377 33.1908 51.5448C33.1908 51.9518 33.0989 52.3228 32.915 52.6577C32.7312 52.9859 32.4685 53.2453 32.1271 53.4357C31.7923 53.6261 31.4016 53.7213 30.9551 53.7213C30.5218 53.7213 30.1344 53.6327 29.793 53.4554C29.4582 53.2716 29.1922 53.0188 28.9953 52.6971C28.8049 52.3688 28.7097 51.9847 28.7097 51.5448ZM29.6256 51.5546C29.6256 51.8172 29.6847 52.0569 29.8029 52.2736C29.921 52.4837 30.0786 52.6511 30.2756 52.7758C30.4791 52.9006 30.7024 52.963 30.9453 52.963C31.2014 52.963 31.4279 52.9006 31.6249 52.7758C31.8284 52.6511 31.986 52.4837 32.0976 52.2736C32.2092 52.0569 32.265 51.8172 32.265 51.5546C32.265 51.292 32.2092 51.0556 32.0976 50.8455C31.986 50.6288 31.8284 50.4581 31.6249 50.3334C31.4279 50.2021 31.2014 50.1364 30.9453 50.1364C30.6958 50.1364 30.4693 50.2021 30.2657 50.3334C30.0688 50.4647 29.9112 50.6387 29.793 50.8554C29.6814 51.0655 29.6256 51.2985 29.6256 51.5546Z" fill="#222222"/>
<path d="M35.2484 49.5455L35.337 50.7273L35.2878 50.5698C35.3928 50.3203 35.5438 50.1102 35.7408 49.9394C35.9443 49.7622 36.1544 49.6276 36.3711 49.5356C36.5943 49.4372 36.788 49.3879 36.9522 49.3879L36.9029 50.294C36.5943 50.2743 36.3219 50.3334 36.0855 50.4713C35.8557 50.6091 35.6719 50.793 35.534 51.0228C35.4027 51.2526 35.337 51.4988 35.337 51.7614V53.6228H34.4309V49.5455H35.2484Z" fill="#222222"/>
<path d="M41.9886 46.5023L44.3326 52.3917L43.7909 52.2834L46.0167 46.5023H47.1296L43.9879 53.9478L40.856 46.5023H41.9886Z" fill="#222222"/>
<path d="M49.1135 53.7213C48.6473 53.7213 48.2468 53.6294 47.912 53.4455C47.5771 53.2551 47.3178 52.9991 47.1339 52.6774C46.9567 52.3491 46.868 51.9748 46.868 51.5546C46.868 51.1541 46.9698 50.7897 47.1733 50.4614C47.3769 50.1331 47.6493 49.8705 47.9908 49.6735C48.3322 49.4766 48.713 49.3781 49.1332 49.3781C49.6716 49.3781 50.1181 49.5356 50.4726 49.8508C50.8272 50.166 51.0668 50.5993 51.1916 51.1508L47.8332 52.3327L47.6165 51.791L50.3741 50.7864L50.1772 50.9145C50.0984 50.6978 49.9671 50.5107 49.7832 50.3531C49.5994 50.1889 49.3597 50.1069 49.0643 50.1069C48.8148 50.1069 48.5915 50.1692 48.3946 50.294C48.1976 50.4122 48.0433 50.5763 47.9317 50.7864C47.8201 50.9965 47.7643 51.2362 47.7643 51.5054C47.7643 51.7877 47.8233 52.0372 47.9415 52.2539C48.0597 52.464 48.2206 52.6314 48.4241 52.7561C48.6342 52.8743 48.8706 52.9334 49.1332 52.9334C49.3105 52.9334 49.4812 52.9006 49.6453 52.8349C49.816 52.7693 49.9736 52.6839 50.1181 52.5789L50.5416 53.2584C50.338 53.3963 50.1082 53.5079 49.8522 53.5933C49.6027 53.6786 49.3564 53.7213 49.1135 53.7213Z" fill="#222222"/>
<path d="M53.1567 49.5455L53.2355 50.5402L53.1961 50.3826C53.3274 50.0806 53.5408 49.841 53.8362 49.6637C54.1317 49.4798 54.4731 49.3879 54.8605 49.3879C55.2479 49.3879 55.563 49.5028 55.8059 49.7326C56.0554 49.9559 56.1835 50.248 56.19 50.6091V53.6228H55.2643V50.9342C55.2577 50.7109 55.192 50.5304 55.0673 50.3925C54.9491 50.248 54.762 50.1758 54.5059 50.1758C54.2696 50.1758 54.0562 50.2415 53.8658 50.3728C53.6754 50.5041 53.5243 50.6847 53.4127 50.9145C53.3077 51.1443 53.2552 51.4102 53.2552 51.7122V53.6228H52.3392V49.5455H53.1567Z" fill="#222222"/>
<path d="M59.4375 53.7213C59.0632 53.7213 58.7218 53.6327 58.4132 53.4554C58.1112 53.2716 57.8715 53.0155 57.6943 52.6872C57.517 52.3523 57.4283 51.9683 57.4283 51.5349C57.4283 51.0819 57.5203 50.6945 57.7041 50.3728C57.8945 50.0511 58.1506 49.8048 58.4723 49.6341C58.794 49.4634 59.1551 49.3781 59.5556 49.3781C59.8774 49.3781 60.1827 49.447 60.4716 49.5849C60.767 49.7228 60.9968 49.9132 61.161 50.1561L61.1216 50.4811V46H62.0276V53.6228H61.1117V52.6084L61.2102 52.8645C61.0198 53.114 60.7736 53.3208 60.4716 53.4849C60.1695 53.6425 59.8248 53.7213 59.4375 53.7213ZM59.7231 52.9433C59.966 52.9433 60.1827 52.9006 60.3731 52.8152C60.5635 52.7233 60.7211 52.5986 60.8458 52.441C60.9706 52.2834 61.0592 52.0963 61.1117 51.8796V51.1114C61.0592 50.9145 60.964 50.7437 60.8261 50.5993C60.6948 50.4483 60.5339 50.3301 60.3435 50.2447C60.1597 50.1528 59.9529 50.1069 59.7231 50.1069C59.4736 50.1069 59.2438 50.1692 59.0337 50.294C58.8301 50.4122 58.666 50.5763 58.5412 50.7864C58.4165 50.9965 58.3541 51.2395 58.3541 51.5152C58.3541 51.7844 58.4165 52.0273 58.5412 52.244C58.666 52.4541 58.8334 52.6248 59.0435 52.7561C59.2536 52.8809 59.4801 52.9433 59.7231 52.9433Z" fill="#222222"/>
<path d="M63.6209 49.5455H64.5368V53.6228H63.6209V49.5455ZM63.5519 48.0682C63.5519 47.9238 63.6078 47.8023 63.7194 47.7038C63.8376 47.6053 63.9656 47.5561 64.1035 47.5561C64.2413 47.5561 64.3628 47.6053 64.4679 47.7038C64.5795 47.8023 64.6353 47.9238 64.6353 48.0682C64.6353 48.2192 64.5795 48.344 64.4679 48.4425C64.3628 48.5344 64.2413 48.5803 64.1035 48.5803C63.9656 48.5803 63.8376 48.5311 63.7194 48.4326C63.6078 48.3341 63.5519 48.2127 63.5519 48.0682Z" fill="#222222"/>
<path d="M66.9389 49.5455L67.0177 50.5402L66.9783 50.3826C67.1096 50.0806 67.323 49.841 67.6185 49.6637C67.9139 49.4798 68.2554 49.3879 68.6427 49.3879C69.0301 49.3879 69.3453 49.5028 69.5882 49.7326C69.8377 49.9559 69.9657 50.248 69.9723 50.6091V53.6228H69.0465V50.9342C69.04 50.7109 68.9743 50.5304 68.8496 50.3925C68.7314 50.248 68.5443 50.1758 68.2882 50.1758C68.0518 50.1758 67.8384 50.2415 67.648 50.3728C67.4576 50.5041 67.3066 50.6847 67.195 50.9145C67.09 51.1443 67.0374 51.4102 67.0374 51.7122V53.6228H66.1215V49.5455H66.9389Z" fill="#222222"/>
<path d="M73.525 55.6418C73.223 55.6418 72.9571 55.6057 72.7273 55.5334C72.4975 55.4678 72.2874 55.3726 72.097 55.2478C71.9132 55.1231 71.7359 54.9819 71.5652 54.8243L72.097 54.2039C72.3137 54.4074 72.5336 54.565 72.7569 54.6766C72.9801 54.7882 73.2296 54.844 73.5053 54.844C73.8139 54.844 74.0733 54.7915 74.2834 54.6865C74.5 54.588 74.6642 54.4468 74.7758 54.263C74.8874 54.0857 74.9432 53.8789 74.9432 53.6425L74.9531 52.5395L75.0319 52.7167C74.9137 52.9991 74.7003 53.2387 74.3917 53.4357C74.0831 53.6261 73.7089 53.7213 73.269 53.7213C72.8947 53.7213 72.55 53.6261 72.2349 53.4357C71.9263 53.2453 71.6768 52.9892 71.4864 52.6675C71.3025 52.3392 71.2106 51.9715 71.2106 51.5645C71.2106 51.1377 71.3091 50.7634 71.5061 50.4417C71.703 50.1134 71.9624 49.8541 72.2841 49.6637C72.6058 49.4733 72.9571 49.3781 73.3379 49.3781C73.699 49.3781 74.0273 49.4536 74.3228 49.6046C74.6248 49.749 74.8447 49.9362 74.9826 50.166L74.9334 50.3334L75.0319 49.5455H75.869V53.6524C75.869 54.02 75.7738 54.3549 75.5834 54.6569C75.393 54.9589 75.1238 55.1986 74.7758 55.3759C74.4278 55.5531 74.0109 55.6418 73.525 55.6418ZM72.1265 51.5448C72.1265 51.8074 72.1889 52.047 72.3137 52.2637C72.4384 52.4804 72.6058 52.6511 72.8159 52.7758C73.0326 52.9006 73.2723 52.963 73.5349 52.963C73.7778 52.963 73.9945 52.9203 74.1849 52.8349C74.3819 52.743 74.546 52.6215 74.6773 52.4705C74.8086 52.313 74.9006 52.1324 74.9531 51.9289V51.1213C74.894 50.9243 74.7955 50.7536 74.6576 50.6091C74.5197 50.4581 74.3556 50.3432 74.1652 50.2644C73.9748 50.1791 73.7647 50.1364 73.5349 50.1364C73.2723 50.1364 73.0326 50.1955 72.8159 50.3137C72.6058 50.4319 72.4384 50.5993 72.3137 50.816C72.1889 51.0261 72.1265 51.269 72.1265 51.5448Z" fill="#222222"/>
<path d="M80.7939 46.5023H81.7492V53.6228H80.7939V46.5023Z" fill="#222222"/>
<path d="M84.3856 49.5455L84.4644 50.5402L84.425 50.3826C84.5563 50.0806 84.7697 49.841 85.0651 49.6637C85.3606 49.4798 85.702 49.3879 86.0894 49.3879C86.4768 49.3879 86.7919 49.5028 87.0349 49.7326C87.2843 49.9559 87.4124 50.248 87.419 50.6091V53.6228H86.4932V50.9342C86.4866 50.7109 86.421 50.5304 86.2962 50.3925C86.178 50.248 85.9909 50.1758 85.7348 50.1758C85.4985 50.1758 85.2851 50.2415 85.0947 50.3728C84.9043 50.5041 84.7533 50.6847 84.6416 50.9145C84.5366 51.1443 84.4841 51.4102 84.4841 51.7122V53.6228H83.5682V49.5455H84.3856Z" fill="#222222"/>
<path d="M92.3209 53.2486C92.1371 53.393 91.9172 53.5079 91.6611 53.5933C91.405 53.6786 91.149 53.7213 90.8929 53.7213C90.4464 53.7213 90.0558 53.6327 89.7209 53.4554C89.3861 53.2781 89.1234 53.0319 88.933 52.7167C88.7492 52.395 88.6573 52.0175 88.6573 51.5842C88.6573 51.1508 88.7557 50.7733 88.9527 50.4516C89.1562 50.1298 89.4189 49.8836 89.7406 49.7129C90.0689 49.5356 90.4202 49.447 90.7944 49.447C91.1227 49.447 91.4149 49.493 91.6709 49.5849C91.9336 49.6768 92.1568 49.8016 92.3406 49.9591L91.8876 50.5501C91.7694 50.4581 91.625 50.3761 91.4543 50.3038C91.2836 50.2316 91.0899 50.1955 90.8732 50.1955C90.6368 50.1955 90.4169 50.2579 90.2133 50.3826C90.0164 50.5008 89.8588 50.665 89.7406 50.8751C89.629 51.0852 89.5732 51.3215 89.5732 51.5842C89.5732 51.8337 89.6323 52.0667 89.7505 52.2834C89.8686 52.4935 90.0328 52.6609 90.2429 52.7857C90.453 52.9039 90.6926 52.963 90.9618 52.963C91.1391 52.963 91.3 52.9367 91.4444 52.8842C91.5954 52.8316 91.73 52.7594 91.8482 52.6675L92.3209 53.2486Z" fill="#222222"/>
<path d="M31.7148 60.9897C31.7148 60.824 31.8492 60.6897 32.0148 60.6897H34.7765C34.8724 60.6897 34.9501 60.7674 34.9501 60.8633C34.9501 60.9592 34.8724 61.0369 34.7765 61.0369H32.3768C32.2111 61.0369 32.0768 61.1712 32.0768 61.3369V62.8198C32.0768 62.9855 32.2111 63.1198 32.3768 63.1198H34.4885C34.5843 63.1198 34.662 63.1976 34.662 63.2934C34.662 63.3893 34.5843 63.467 34.4885 63.467H32.3768C32.2111 63.467 32.0768 63.6013 32.0768 63.767V65.2869C32.0768 65.4526 32.2111 65.5869 32.3768 65.5869H34.8799C34.9758 65.5869 35.0535 65.6646 35.0535 65.7605C35.0535 65.8564 34.9758 65.9341 34.8799 65.9341H32.0148C31.8492 65.9341 31.7148 65.7998 31.7148 65.6341V60.9897Z" fill="#7C7C7C"/>
<path d="M39.125 61.1397C39.0859 61.2178 38.9915 61.2498 38.9107 61.2166C38.7887 61.1666 38.6495 61.119 38.4932 61.0738C38.2716 61.0098 38.05 60.9778 37.8284 60.9778C37.4837 60.9778 37.2079 61.0639 37.0011 61.2363C36.7943 61.4087 36.6909 61.6253 36.6909 61.8863C36.6909 62.0833 36.75 62.2482 36.8682 62.3812C36.9863 62.5092 37.1415 62.62 37.3335 62.7136C37.5256 62.8022 37.7299 62.8884 37.9466 62.9721C38.1189 63.0361 38.2888 63.1075 38.4563 63.1863C38.6286 63.2651 38.7837 63.3611 38.9216 63.4744C39.0595 63.5877 39.1678 63.728 39.2466 63.8954C39.3303 64.0628 39.3722 64.2697 39.3722 64.5159C39.3722 64.8064 39.3032 65.0649 39.1653 65.2915C39.0275 65.5131 38.8354 65.6854 38.5892 65.8085C38.343 65.9316 38.0574 65.9932 37.7324 65.9932C37.4714 65.9932 37.2326 65.9612 37.0159 65.8972C36.8041 65.8331 36.617 65.7593 36.4545 65.6756C36.363 65.6241 36.2824 65.5776 36.2125 65.5361C36.1366 65.4911 36.1125 65.3936 36.1565 65.3172C36.2052 65.2324 36.3167 65.2088 36.3998 65.2602C36.4724 65.3051 36.5522 65.35 36.6392 65.3949C36.7968 65.4737 36.9666 65.5401 37.1488 65.5943C37.331 65.6485 37.5132 65.6756 37.6954 65.6756C37.9072 65.6756 38.1115 65.6337 38.3085 65.55C38.5104 65.4663 38.6754 65.3407 38.8034 65.1733C38.9364 65.0009 39.0028 64.7843 39.0028 64.5233C39.0028 64.2721 38.9413 64.0702 38.8182 63.9176C38.6951 63.76 38.5375 63.632 38.3455 63.5335C38.1534 63.435 37.949 63.3464 37.7324 63.2676C37.565 63.2036 37.3975 63.1371 37.2301 63.0681C37.0627 62.9943 36.91 62.9081 36.7721 62.8096C36.6343 62.7062 36.5235 62.5831 36.4397 62.4403C36.361 62.2975 36.3216 62.1251 36.3216 61.9232C36.3216 61.6721 36.3856 61.453 36.5136 61.2658C36.6416 61.0787 36.814 60.9335 37.0307 60.83C37.2523 60.7217 37.5034 60.6651 37.7841 60.6602C38.0303 60.6602 38.279 60.6922 38.5301 60.7562C38.7247 60.8048 38.8994 60.8634 39.0542 60.932C39.1336 60.9672 39.1638 61.0621 39.125 61.1397Z" fill="#7C7C7C"/>
<path d="M40.2311 60.8633C40.2311 60.7674 40.3088 60.6897 40.4047 60.6897H43.4923C43.5881 60.6897 43.6658 60.7674 43.6658 60.8633C43.6658 60.9592 43.5881 61.0369 43.4923 61.0369H42.4221C42.2564 61.0369 42.1221 61.1712 42.1221 61.3369V65.7531C42.1221 65.8531 42.041 65.9341 41.9411 65.9341C41.8412 65.9341 41.7601 65.8531 41.7601 65.7531V61.3369C41.7601 61.1712 41.6258 61.0369 41.4601 61.0369H40.4047C40.3088 61.0369 40.2311 60.9592 40.2311 60.8633Z" fill="#7C7C7C"/>
<path d="M44.4721 65.6829C44.4721 65.614 44.4967 65.5549 44.5459 65.5057C44.5952 65.4564 44.6518 65.4318 44.7158 65.4318C44.7798 65.4318 44.8365 65.4564 44.8857 65.5057C44.9399 65.5549 44.9669 65.614 44.9669 65.6829C44.9669 65.7568 44.9399 65.8184 44.8857 65.8676C44.8365 65.9119 44.7798 65.9341 44.7158 65.9341C44.6518 65.9341 44.5952 65.9119 44.5459 65.8676C44.4967 65.8184 44.4721 65.7568 44.4721 65.6829Z" fill="#7C7C7C"/>
<path d="M47.9783 61.2843C47.9783 61.1884 48.056 61.1107 48.1518 61.1107H48.7567C48.9224 61.1107 49.0567 61.245 49.0567 61.4107V65.7531C49.0567 65.8531 48.9757 65.9341 48.8757 65.9341C48.7758 65.9341 48.6947 65.8531 48.6947 65.7531V61.7579C48.6947 61.5922 48.5604 61.4579 48.3947 61.4579H48.1518C48.056 61.4579 47.9783 61.3802 47.9783 61.2843Z" fill="#7C7C7C"/>
<path d="M51.6377 64.2795C51.3718 64.2795 51.1256 64.213 50.8991 64.0801C50.6775 63.9422 50.4977 63.76 50.3599 63.5335C50.222 63.302 50.153 63.046 50.153 62.7653C50.153 62.4649 50.2244 62.199 50.3672 61.9676C50.515 61.7361 50.7095 61.5539 50.9508 61.421C51.1921 61.288 51.4555 61.2215 51.7411 61.2215C52.0415 61.2215 52.3123 61.2855 52.5536 61.4136C52.7949 61.5416 52.987 61.7238 53.1298 61.9602C53.2726 62.1916 53.344 62.4674 53.344 62.7875C53.344 63.1519 53.2701 63.4892 53.1224 63.7994C52.9747 64.1047 52.7802 64.3879 52.5389 64.6488C52.3025 64.9098 52.0415 65.1511 51.7559 65.3727C51.5145 65.56 51.2749 65.7385 51.037 65.9082C50.963 65.961 50.8612 65.9484 50.8016 65.8798C50.7292 65.7964 50.7498 65.6679 50.8435 65.6095C51.1946 65.3902 51.4987 65.1709 51.7559 64.9517C52.0563 64.6956 52.2951 64.4494 52.4724 64.213C52.64 63.9896 52.7526 63.7859 52.8101 63.6021C52.8161 63.5829 52.8323 63.5685 52.8523 63.5655C52.8963 63.5589 52.9267 63.6075 52.9001 63.6432C52.755 63.8379 52.5952 63.9885 52.4207 64.0949C52.2188 64.218 51.9578 64.2795 51.6377 64.2795ZM51.7559 63.9619C52.1203 63.9619 52.4158 63.861 52.6423 63.6591C52.8688 63.4572 52.9821 63.1765 52.9821 62.817V62.7062C52.9722 62.4797 52.9107 62.2803 52.7974 62.1079C52.6841 61.9356 52.5364 61.8001 52.3542 61.7016C52.1769 61.6032 51.9775 61.5539 51.7559 61.5539C51.5294 61.5539 51.3226 61.6081 51.1354 61.7164C50.9483 61.8198 50.7981 61.9626 50.6849 62.1448C50.5765 62.327 50.5224 62.5339 50.5224 62.7653C50.5224 62.9918 50.5765 63.1962 50.6849 63.3784C50.7981 63.5606 50.9483 63.7034 51.1354 63.8068C51.3226 63.9102 51.5294 63.9619 51.7559 63.9619Z" fill="#7C7C7C"/>
<path d="M55.4735 64.2795C55.2076 64.2795 54.9614 64.213 54.7348 64.0801C54.5132 63.9422 54.3335 63.76 54.1956 63.5335C54.0577 63.302 53.9888 63.046 53.9888 62.7653C53.9888 62.4649 54.0602 62.199 54.203 61.9676C54.3507 61.7361 54.5452 61.5539 54.7865 61.421C55.0278 61.288 55.2913 61.2215 55.5769 61.2215C55.8773 61.2215 56.1481 61.2855 56.3894 61.4136C56.6307 61.5416 56.8227 61.7238 56.9655 61.9602C57.1083 62.1916 57.1798 62.4674 57.1798 62.7875C57.1798 63.1519 57.1059 63.4892 56.9582 63.7994C56.8104 64.1047 56.6159 64.3879 56.3746 64.6488C56.1383 64.9098 55.8773 65.1511 55.5917 65.3727C55.3503 65.56 55.1107 65.7385 54.8728 65.9082C54.7988 65.961 54.6969 65.9484 54.6373 65.8798C54.5649 65.7964 54.5856 65.6679 54.6792 65.6095C55.0303 65.3902 55.3345 65.1709 55.5917 64.9517C55.892 64.6956 56.1309 64.4494 56.3081 64.213C56.4757 63.9896 56.5883 63.7859 56.6459 63.6021C56.6519 63.5829 56.6681 63.5685 56.688 63.5655C56.7321 63.5589 56.7624 63.6075 56.7358 63.6432C56.5907 63.8379 56.431 63.9885 56.2564 64.0949C56.0545 64.218 55.7936 64.2795 55.4735 64.2795ZM55.5917 63.9619C55.9561 63.9619 56.2515 63.861 56.478 63.6591C56.7046 63.4572 56.8178 63.1765 56.8178 62.817V62.7062C56.808 62.4797 56.7464 62.2803 56.6332 62.1079C56.5199 61.9356 56.3722 61.8001 56.19 61.7016C56.0127 61.6032 55.8133 61.5539 55.5917 61.5539C55.3651 61.5539 55.1583 61.6081 54.9712 61.7164C54.7841 61.8198 54.6339 61.9626 54.5206 62.1448C54.4123 62.327 54.3581 62.5339 54.3581 62.7653C54.3581 62.9918 54.4123 63.1962 54.5206 63.3784C54.6339 63.5606 54.7841 63.7034 54.9712 63.8068C55.1583 63.9102 55.3651 63.9619 55.5917 63.9619Z" fill="#7C7C7C"/>
<path d="M59.782 65.971C59.4619 65.971 59.1763 65.9095 58.9251 65.7864C58.674 65.6583 58.4623 65.481 58.2899 65.2545C58.1176 65.028 57.9846 64.767 57.891 64.4716C57.8024 64.1712 57.7581 63.8511 57.7581 63.5113C57.7581 63.1617 57.8024 62.8392 57.891 62.5437C57.9797 62.2433 58.1102 61.9823 58.2825 61.7607C58.4549 61.5391 58.6666 61.3693 58.9178 61.2511C59.1689 61.128 59.457 61.0664 59.782 61.0664C60.1021 61.0664 60.3852 61.1304 60.6314 61.2585C60.8826 61.3816 61.0943 61.5564 61.2667 61.7829C61.439 62.0045 61.5695 62.263 61.6581 62.5585C61.7517 62.8539 61.7985 63.1716 61.7985 63.5113C61.7985 63.856 61.7517 64.1786 61.6581 64.479C61.5695 64.7744 61.439 65.0354 61.2667 65.2619C61.0943 65.4835 60.8826 65.6583 60.6314 65.7864C60.3852 65.9095 60.1021 65.971 59.782 65.971ZM59.7746 65.6239C60.0996 65.6239 60.3852 65.5401 60.6314 65.3727C60.8826 65.2004 61.0771 64.9566 61.2149 64.6415C61.3578 64.3214 61.4292 63.9447 61.4292 63.5113C61.4292 63.0829 61.3578 62.7111 61.2149 62.396C61.0771 62.0808 60.8826 61.8371 60.6314 61.6647C60.3852 61.4924 60.0996 61.4087 59.7746 61.4136C59.4496 61.4087 59.164 61.4924 58.9178 61.6647C58.6715 61.8371 58.4795 62.0808 58.3416 62.396C58.2037 62.7111 58.1323 63.0854 58.1274 63.5187C58.1323 63.9471 58.2037 64.3214 58.3416 64.6415C58.4795 64.9566 58.6715 65.2004 58.9178 65.3727C59.164 65.5401 59.4496 65.6239 59.7746 65.6239Z" fill="#7C7C7C"/>
<path fill-rule="evenodd" clip-rule="evenodd" d="M91.099 63.471L64.6309 63.471L64.6309 62.8555L91.099 62.8555L91.099 63.471Z" fill="#DFDFDF"/>
<path fill-rule="evenodd" clip-rule="evenodd" d="M28.9303 63.471H0V62.8555H28.9303V63.471Z" fill="#DFDFDF"/>
</svg>
