<svg width="21" height="21" viewBox="0 0 21 21" fill="none" xmlns="http://www.w3.org/2000/svg">
<g clip-path="url(#clip0_464_6429)">
<path d="M11.3701 10.4998L20.8193 1.05061C20.8765 0.993459 20.9218 0.925615 20.9527 0.850947C20.9837 0.776279 20.9996 0.696251 20.9996 0.615432C20.9996 0.534612 20.9837 0.454584 20.9527 0.379916C20.9218 0.305248 20.8765 0.237404 20.8193 0.180256C20.7622 0.123108 20.6943 0.0777753 20.6197 0.0468469C20.545 0.0159186 20.465 0 20.3841 0C20.3033 0 20.2233 0.0159186 20.1486 0.0468469C20.074 0.0777753 20.0061 0.123108 19.949 0.180256L10.4998 9.62944L1.05061 0.180256C0.993459 0.123108 0.925615 0.0777753 0.850947 0.0468469C0.776279 0.0159186 0.696251 0 0.615432 0C0.452209 0 0.295671 0.0648399 0.180256 0.180256C0.0648399 0.295671 0 0.452209 0 0.615432C0 0.778654 0.0648399 0.935192 0.180256 1.05061L9.62944 10.4998L0.180256 19.949C0.123108 20.0061 0.0777753 20.074 0.0468469 20.1486C0.0159186 20.2233 0 20.3033 0 20.3841C0 20.465 0.0159186 20.545 0.0468469 20.6197C0.0777753 20.6943 0.123108 20.7622 0.180256 20.8193C0.237404 20.8765 0.305248 20.9218 0.379916 20.9527C0.454584 20.9837 0.534612 20.9996 0.615432 20.9996C0.696251 20.9996 0.776279 20.9837 0.850947 20.9527C0.925615 20.9218 0.993459 20.8765 1.05061 20.8193L10.4998 11.3701L19.949 20.8193C20.0061 20.8765 20.074 20.9218 20.1486 20.9527C20.2233 20.9837 20.3033 20.9996 20.3841 20.9996C20.465 20.9996 20.545 20.9837 20.6197 20.9527C20.6943 20.9218 20.7622 20.8765 20.8193 20.8193C20.8765 20.7622 20.9218 20.6943 20.9527 20.6197C20.9837 20.545 20.9996 20.465 20.9996 20.3841C20.9996 20.3033 20.9837 20.2233 20.9527 20.1486C20.9218 20.074 20.8765 20.0061 20.8193 19.949L11.3701 10.4998Z" fill="#0014B8"/>
</g>
<defs>
<clipPath id="clip0_464_6429">
<rect width="21" height="21" fill="white"/>
</clipPath>
</defs>
</svg>
