<svg width="36" height="22" viewBox="0 0 36 22" fill="none" xmlns="http://www.w3.org/2000/svg">
<path d="M0 2C0 0.895431 0.895431 0 2 0H34C35.1046 0 36 0.895431 36 2C36 3.10457 35.1046 4 34 4H2C0.895432 4 0 3.10457 0 2Z" fill="#0F80CC"/>
<path d="M10 11C10 9.89543 10.8954 9 12 9H34C35.1046 9 36 9.89543 36 11C36 12.1046 35.1046 13 34 13H12C10.8954 13 10 12.1046 10 11Z" fill="#0F80CC"/>
<path d="M20 20C20 18.8954 20.8954 18 22 18H34C35.1046 18 36 18.8954 36 20C36 21.1046 35.1046 22 34 22H22C20.8954 22 20 21.1046 20 20Z" fill="#0F80CC"/>
</svg>
