<svg width="25" height="25" viewBox="0 0 25 25" fill="none" xmlns="http://www.w3.org/2000/svg">
<path fill-rule="evenodd" clip-rule="evenodd" d="M24.75 12.375C24.75 19.2095 19.2095 24.75 12.375 24.75C5.54048 24.75 0 19.2095 0 12.375C0 5.54048 5.54048 0 12.375 0C19.2095 0 24.75 5.54048 24.75 12.375ZM5.46079 17.875L6.16789 17.1679L10.9608 12.375L6.16789 7.58211L5.46079 6.875L6.875 5.46079L7.58211 6.16789L12.375 10.9608L17.1679 6.16789L17.875 5.46079L19.2892 6.875L18.5821 7.58211L13.7892 12.375L18.5821 17.1679L19.2892 17.875L17.875 19.2892L17.1679 18.5821L12.375 13.7892L7.58211 18.5821L6.875 19.2892L5.46079 17.875Z" fill="#0F80CC"/>
</svg>
