<svg width="69" height="69" viewBox="0 0 69 69" fill="none" xmlns="http://www.w3.org/2000/svg"><g clip-path="url(#a)"><path d="M52.426 12.509a5.57 5.57 0 0 0-5.698-1.217c-.56.187-.966.671-1.054 1.254l-.439 3.017a9.305 9.305 0 0 1-9.17 7.96h-6.273c-.72 0-1.347.49-1.521 1.189l-4.704 18.817a1.568 1.568 0 0 0 1.52 1.948h7.841c.72 0 1.347-.49 1.521-1.189l2.839-11.356h6.115a10.17 10.17 0 0 0 9.91-7.744l1.158-4.638a8.247 8.247 0 0 0-2.044-8.041Z" fill="#03A9F4"/><path d="M1.568 64.294a1.568 1.568 0 0 1-1.521-1.947l1.568-6.241v-.066l1.568-6.238a1.568 1.568 0 0 1 1.521-1.189h3.99a3.92 3.92 0 0 1 3.804 4.87l-.392 1.57a3.92 3.92 0 0 1-3.805 2.97H4.362l-1.27 5.083c-.175.7-.803 1.19-1.524 1.188Zm3.578-9.408h3.155a.784.784 0 0 0 .76-.596l.391-1.569a.78.78 0 0 0-.759-.975H5.93l-.784 3.14ZM18.339 64.295h-2.233a4.347 4.347 0 0 1-4.219-5.4l.207-.835a4.184 4.184 0 0 1 4.078-3.177h2.232a4.347 4.347 0 0 1 4.21 5.403l-.208.835a4.184 4.184 0 0 1-4.067 3.174Zm-3.406-4.639a1.21 1.21 0 0 0 1.173 1.503h2.233a1.05 1.05 0 0 0 1.022-.797l.207-.834a1.21 1.21 0 0 0-1.173-1.503h-2.233a1.05 1.05 0 0 0-1.022.797l-.207.834Z" fill="#283593"/><path d="M20.384 64.293a1.568 1.568 0 0 1-1.521-1.948l1.568-6.272a1.57 1.57 0 1 1 3.046.759l-1.569 6.273c-.174.699-.803 1.19-1.524 1.188Z" fill="#283593"/><path d="M39.204 64.294a1.568 1.568 0 0 1-1.52-1.947l1.568-6.241v-.066l1.568-6.238a1.568 1.568 0 0 1 1.52-1.189h3.99a3.92 3.92 0 0 1 3.805 4.87l-.393 1.57a3.92 3.92 0 0 1-3.804 2.97H42l-1.27 5.083c-.175.7-.804 1.19-1.525 1.188Zm3.579-9.408h3.158a.784.784 0 0 0 .76-.596l.391-1.568a.781.781 0 0 0-.759-.976h-2.766l-.784 3.14ZM55.975 64.295h-2.233a4.347 4.347 0 0 1-4.218-5.4l.207-.835a4.184 4.184 0 0 1 4.077-3.177h2.233a4.347 4.347 0 0 1 4.218 5.4l-.207.835a4.184 4.184 0 0 1-4.077 3.177Zm-3.406-4.639a1.21 1.21 0 0 0 1.173 1.503h2.233a1.05 1.05 0 0 0 1.023-.797l.207-.834a1.21 1.21 0 0 0-1.173-1.503h-2.233a1.05 1.05 0 0 0-1.023.797l-.207.834Z" fill="#03A9F4"/><path d="M58.02 64.293a1.568 1.568 0 0 1-1.52-1.948l1.568-6.272a1.57 1.57 0 1 1 3.045.759l-1.568 6.273c-.174.699-.803 1.19-1.524 1.188Z" fill="#03A9F4"/><path d="M29.795 62.725a1.568 1.568 0 0 1-1.305-.699l-3.136-4.704a1.568 1.568 0 1 1 2.61-1.74l3.135 4.703a1.568 1.568 0 0 1-1.304 2.44Z" fill="#283593"/><path d="M26.657 67.43a1.568 1.568 0 0 1-1.204-2.571l7.84-9.409a1.569 1.569 0 0 1 2.41 2.01l-7.841 9.41c-.298.356-.74.561-1.205.56Z" fill="#283593"/><path d="M64.294 64.296a1.568 1.568 0 0 1-1.52-1.948l3.135-12.545a1.57 1.57 0 1 1 3.046.76l-3.136 12.544c-.175.7-.804 1.19-1.525 1.189Z" fill="#03A9F4"/><path d="M47.25 4.283a7.925 7.925 0 0 0-5.978-2.713H23.52c-.759 0-1.409.543-1.543 1.29l-6.273 34.498a1.568 1.568 0 0 0 1.543 1.847h9.409c.72 0 1.347-.49 1.52-1.188L31.02 26.66h5.047a12.457 12.457 0 0 0 12.278-10.663l.784-5.36a7.987 7.987 0 0 0-1.879-6.354Z" fill="#283593"/></g><defs><clipPath id="a"><path fill="#fff" d="M0 0h69v69H0z"/></clipPath></defs></svg>