<svg width="34" height="34" viewBox="0 0 34 34" fill="none" xmlns="http://www.w3.org/2000/svg">
<g clip-path="url(#clip0_893_3965)">
<path d="M22.4541 0H4.83356C4.34299 0 3.94531 0.397679 3.94531 1.16936V33.3929C3.94531 33.6023 4.34299 34 4.83356 34H29.1642C29.6548 34 30.0525 33.6023 30.0525 33.3929V7.8795C30.0525 7.45693 29.996 7.32093 29.8964 7.22075L22.8317 0.156036C22.7315 0.0564643 22.5955 0 22.4541 0Z" fill="#E9E9E0"/>
<path d="M22.7656 0.0898438V7.28388H29.9597L22.7656 0.0898438Z" fill="#D9D7CA"/>
<path d="M11.8506 20.2336C11.6393 20.2336 11.4365 20.165 11.2635 20.0357C10.6314 19.5615 10.5464 19.0339 10.5865 18.6745C10.697 17.686 11.9192 16.6515 14.2202 15.5975C15.1334 13.5963 16.0022 11.1307 16.5201 9.07067C15.9142 7.75196 15.3252 6.04103 15.7545 5.03742C15.9051 4.68588 16.0927 4.41631 16.443 4.29974C16.5814 4.2536 16.9311 4.19531 17.0598 4.19531C17.3658 4.19531 17.6348 4.58935 17.8254 4.83221C18.0046 5.06049 18.4107 5.54438 17.599 8.96199C18.4174 10.6523 19.5771 12.3741 20.6881 13.5532C21.4841 13.4093 22.1689 13.3358 22.7269 13.3358C23.6777 13.3358 24.2539 13.5575 24.4888 14.014C24.6831 14.3917 24.6036 14.8331 24.2521 15.3255C23.9139 15.7984 23.4476 16.0486 22.9042 16.0486C22.1659 16.0486 21.3062 15.5823 20.3475 14.6612C18.6251 15.0213 16.6136 15.6636 14.9877 16.3746C14.4801 17.4517 13.9938 18.3193 13.5408 18.9556C12.9185 19.8268 12.3818 20.2336 11.8506 20.2336ZM13.4668 17.1214C12.1693 17.8506 11.6405 18.4498 11.6022 18.7874C11.5962 18.8432 11.5798 18.9902 11.8639 19.2075C11.9544 19.179 12.4826 18.938 13.4668 17.1214ZM21.7464 14.4245C22.2412 14.8051 22.362 14.9976 22.6856 14.9976C22.8277 14.9976 23.2327 14.9915 23.4203 14.7298C23.5107 14.603 23.5459 14.5216 23.5599 14.4779C23.4852 14.4384 23.3863 14.3583 22.8465 14.3583C22.5399 14.3589 22.1544 14.3722 21.7464 14.4245ZM17.211 10.4282C16.7769 11.9303 16.2038 13.552 15.5875 15.0207C16.8565 14.5283 18.2359 14.0984 19.5315 13.7942C18.7119 12.8422 17.8928 11.6535 17.211 10.4282ZM16.8425 5.2906C16.783 5.31063 16.035 6.35735 16.9008 7.24317C17.477 5.95906 16.8686 5.2821 16.8425 5.2906Z" fill="#CC4B4C"/>
<path d="M29.1642 34.0011H4.83356C4.34299 34.0011 3.94531 33.6034 3.94531 33.1129V23.6797H30.0525V33.1129C30.0525 33.6034 29.6548 34.0011 29.1642 34.0011Z" fill="#CC4B4C"/>
<path d="M10.551 32.1801H9.55469V26.0625H11.3142C11.574 26.0625 11.8315 26.1038 12.0859 26.187C12.3403 26.2701 12.5685 26.3946 12.7707 26.5604C12.9729 26.7261 13.1362 26.9271 13.2607 27.162C13.3852 27.397 13.4477 27.6611 13.4477 27.955C13.4477 28.2652 13.3949 28.5457 13.2898 28.7977C13.1848 29.0496 13.0379 29.2615 12.8497 29.4327C12.6614 29.604 12.4344 29.7369 12.169 29.831C11.9037 29.9251 11.6099 29.9719 11.2893 29.9719H10.5504L10.551 32.1801ZM10.551 26.8178V29.2415H11.4642C11.5856 29.2415 11.7058 29.2209 11.8254 29.179C11.9444 29.1377 12.0537 29.0697 12.1533 28.9756C12.2528 28.8815 12.333 28.7503 12.3937 28.5815C12.4544 28.4128 12.4848 28.2039 12.4848 27.955C12.4848 27.8554 12.4708 27.74 12.4435 27.6107C12.4155 27.4808 12.3591 27.3563 12.2735 27.2373C12.1873 27.1183 12.067 27.0188 11.9122 26.9386C11.7574 26.8585 11.5522 26.8184 11.2978 26.8184L10.551 26.8178Z" fill="white"/>
<path d="M19.5563 28.9513C19.5563 29.4546 19.5023 29.8851 19.3942 30.2421C19.2861 30.5991 19.1495 30.8978 18.9832 31.1388C18.8168 31.3799 18.6304 31.5693 18.4228 31.7077C18.2151 31.8461 18.0148 31.9494 17.8211 32.0192C17.6274 32.0884 17.4501 32.1327 17.2898 32.1521C17.1295 32.1704 17.0105 32.1801 16.9328 32.1801H14.6172V26.0625H16.4599C16.9747 26.0625 17.427 26.1445 17.8168 26.3072C18.2066 26.4699 18.5308 26.6879 18.7883 26.9586C19.0457 27.2294 19.2375 27.5385 19.365 27.8839C19.4925 28.23 19.5563 28.5858 19.5563 28.9513ZM16.6013 31.4497C17.2765 31.4497 17.7634 31.2341 18.0621 30.8025C18.3608 30.3708 18.5102 29.7454 18.5102 28.9264C18.5102 28.672 18.4798 28.42 18.4191 28.1711C18.3578 27.9222 18.2406 27.6969 18.0664 27.4948C17.8921 27.2926 17.6553 27.1293 17.3566 27.0048C17.0579 26.8803 16.6705 26.8178 16.1945 26.8178H15.6135V31.4497H16.6013Z" fill="white"/>
<path d="M22.0127 26.8178V28.7436H24.5694V29.4242H22.0127V32.1801H21V26.0625H24.8262V26.8178H22.0127Z" fill="white"/>
</g>
<defs>
<clipPath id="clip0_893_3965">
<rect width="34" height="34" fill="white"/>
</clipPath>
</defs>
</svg>
