<svg width="12" height="12" viewBox="0 0 12 12" fill="none" xmlns="http://www.w3.org/2000/svg">
<path d="M9.33504 5.53176L3.99489 0.191706C3.87138 0.068097 3.7065 0 3.5307 0C3.3549 0 3.19002 0.068097 3.06651 0.191706L2.67324 0.584873C2.41734 0.841066 2.41734 1.25745 2.67324 1.51326L7.1575 5.99751L2.66827 10.4867C2.54476 10.6104 2.47656 10.7751 2.47656 10.9508C2.47656 11.1267 2.54476 11.2915 2.66827 11.4152L3.06153 11.8083C3.18514 11.9319 3.34992 12 3.52572 12C3.70153 12 3.86641 11.9319 3.98992 11.8083L9.33504 6.46336C9.45885 6.33936 9.52685 6.1738 9.52646 5.9978C9.52685 5.82112 9.45885 5.65566 9.33504 5.53176Z" fill="#0014B8"/>
</svg>
