<svg width="18" height="18" viewBox="0 0 18 18" fill="none" xmlns="http://www.w3.org/2000/svg"><path d="M.668 9.882c.358.846.87 1.605 1.521 2.257a7.075 7.075 0 0 0 5.022 2.08 7.058 7.058 0 0 0 3.197-.76l3.979 3.98c.352.352.821.546 1.32.546.498 0 .967-.194 1.32-.546l.32-.321a1.868 1.868 0 0 0 0-2.64l-3.922-3.921a7.06 7.06 0 0 0 .887-3.44 7.075 7.075 0 0 0-2.08-5.022A7.076 7.076 0 0 0 7.212.016c-.958 0-1.888.189-2.765.56a7.076 7.076 0 0 0-2.257 1.52A7.077 7.077 0 0 0 .11 7.118c0 .958.188 1.888.559 2.765Zm11.085.843a5.835 5.835 0 0 1-2.326 1.754 5.8 5.8 0 1 1 2.326-1.754Zm4.674 4.674c.22.22.22.578 0 .799l-.32.32a.564.564 0 0 1-.8 0l-3.77-3.769a7.142 7.142 0 0 0 1.141-1.1l3.749 3.75Z" fill="#fff"/><path d="M15.706 18a1.87 1.87 0 0 1-1.33-.551l-3.971-3.971a7.074 7.074 0 0 1-3.194.756 7.092 7.092 0 0 1-5.032-2.085A7.09 7.09 0 0 1 .093 7.117a7.091 7.091 0 0 1 2.084-5.032A7.091 7.091 0 0 1 7.211 0a7.09 7.09 0 0 1 5.032 2.084 7.092 7.092 0 0 1 2.084 5.033 7.075 7.075 0 0 1-.884 3.437l3.914 3.914a1.884 1.884 0 0 1 0 2.66l-.32.321a1.87 1.87 0 0 1-1.33.551Zm-5.295-4.56 3.986 3.987c.35.35.815.543 1.31.543.494 0 .958-.193 1.308-.543l.32-.32a1.853 1.853 0 0 0 0-2.618l-3.93-3.93.006-.01a7.043 7.043 0 0 0 .886-3.432 7.062 7.062 0 0 0-2.076-5.01A7.063 7.063 0 0 0 7.211.029 7.06 7.06 0 0 0 2.2 2.106a7.061 7.061 0 0 0-2.077 5.01 7.06 7.06 0 0 0 2.076 5.01 7.059 7.059 0 0 0 5.01 2.077 7.042 7.042 0 0 0 3.19-.757l.01-.005Zm5.295 3.259c-.155 0-.3-.06-.41-.17l-3.782-3.782.014-.01a7.161 7.161 0 0 0 1.138-1.097l.01-.013 3.761 3.76a.581.581 0 0 1 0 .821l-.32.321a.577.577 0 0 1-.41.17ZM11.56 12.75l3.757 3.758a.546.546 0 0 0 .778 0l.32-.321a.55.55 0 0 0 0-.778l-3.736-3.737a7.195 7.195 0 0 1-1.12 1.078Zm-4.35.182a5.822 5.822 0 0 1-5.815-5.815A5.822 5.822 0 0 1 7.21 1.3a5.822 5.822 0 0 1 5.262 8.296 5.826 5.826 0 0 1-5.262 3.335Zm0-11.6a5.792 5.792 0 0 0-5.785 5.785 5.792 5.792 0 0 0 7.996 5.347 5.782 5.782 0 0 0 2.32-1.75 5.734 5.734 0 0 0 1.255-3.598A5.792 5.792 0 0 0 7.21 1.332Z" fill="#fff"/><path d="M9.645 4.694a.65.65 0 0 0-.92 0L7.222 6.197 5.72 4.694a.65.65 0 1 0-.92.92l1.502 1.503L4.8 8.619a.65.65 0 0 0 .92.92l1.502-1.502.268.267.92.92.315.315a.649.649 0 0 0 .92 0 .65.65 0 0 0 0-.92l-.315-.314-.92-.92-.268-.268 1.503-1.503a.65.65 0 0 0 0-.92Z" fill="#fff"/><path d="M9.185 9.745a.661.661 0 0 1-.471-.195L7.222 8.058 5.73 9.55a.661.661 0 0 1-.47.195.661.661 0 0 1-.471-.195.661.661 0 0 1-.195-.471c0-.178.069-.345.195-.47L6.28 7.115 4.789 5.625a.666.666 0 0 1 .941-.942l1.492 1.492 1.492-1.492a.661.661 0 0 1 .47-.195.666.666 0 0 1 .47 1.136l-1.49 1.492 1.491 1.492a.661.661 0 0 1 .195.471c0 .178-.069.345-.195.47a.661.661 0 0 1-.47.196Zm-1.963-1.73 1.513 1.513a.631.631 0 0 0 .899 0 .631.631 0 0 0 0-.898L8.12 7.117l1.513-1.514a.636.636 0 0 0-.899-.898L7.222 6.218 5.709 4.705a.631.631 0 0 0-.899 0 .636.636 0 0 0 0 .898l1.514 1.514L4.81 8.63a.631.631 0 0 0 0 .898.631.631 0 0 0 .899 0l1.513-1.513Z" fill="#fff"/></svg>