<svg width="14" height="14" viewBox="0 0 14 14" fill="none" xmlns="http://www.w3.org/2000/svg">
<g id="right-arrow (66) 2" clip-path="url(#clip0_464_12747)">
<g id="Group">
<g id="Group_2">
<path id="Vector" d="M7.54628 10.8883L13.7763 4.6581C13.9206 4.51401 14 4.32165 14 4.11655C14 3.91144 13.9206 3.71909 13.7763 3.57499L13.3176 3.11618C13.0188 2.81763 12.533 2.81763 12.2345 3.11618L7.0029 8.34781L1.76547 3.11037C1.62126 2.96628 1.42901 2.88672 1.22402 2.88672C1.01881 2.88672 0.826563 2.96628 0.68224 3.11037L0.223658 3.56918C0.0794477 3.71339 9.09136e-07 3.90564 9.00171e-07 4.11074C8.91205e-07 4.31585 0.0794477 4.5082 0.223658 4.6523L6.45941 10.8883C6.60408 11.0327 6.79723 11.1121 7.00256 11.1116C7.20869 11.1121 7.40173 11.0327 7.54628 10.8883Z" fill="#1E1E1E"/>
</g>
</g>
</g>
<defs>
<clipPath id="clip0_464_12747">
<rect width="14" height="14" fill="white" transform="translate(14) rotate(90)"/>
</clipPath>
</defs>
</svg>
