<svg width="37" height="37" viewBox="0 0 37 37" fill="none" xmlns="http://www.w3.org/2000/svg">
<g id="competition (1) 1">
<g id="layer1">
<path id="path2989" d="M1.71395 1.15651C1.31718 1.17103 1.05278 1.57197 1.19568 1.9424L2.39931 5.09159L1.57507 8.10413C1.49672 8.3905 1.64801 8.68967 1.92509 8.7963L9.04403 11.5266C9.59217 11.7404 10.0721 11.0942 9.70907 10.6311L7.0128 7.13985L8.04479 4.763C8.16866 4.47902 8.04666 4.14786 7.76817 4.01212L1.98944 1.21636C1.90463 1.17434 1.8108 1.15378 1.7162 1.15649C1.71693 1.15649 1.71547 1.15649 1.7162 1.15649L1.71395 1.15651ZM18.5002 1.15651C18.1634 1.16306 17.9221 1.41203 17.9221 1.73238V2.88863C17.9221 3.27392 18.2113 3.46739 18.5002 3.46787C18.7892 3.46739 19.0783 3.27383 19.0783 2.88863V1.73238C19.0783 1.41203 18.8371 1.16278 18.5002 1.15651ZM35.011 1.21638L29.2323 4.01214C28.9538 4.14788 28.8318 4.47903 28.9556 4.76303L29.9876 7.13987L27.2914 10.6312C26.9283 11.0942 27.4083 11.7404 27.9564 11.5266L35.0753 8.79633C35.3524 8.6897 35.5037 8.39052 35.4254 8.10415L34.6011 5.09161L35.8048 1.94242C35.9479 1.57113 35.682 1.16955 35.2842 1.15652C35.1896 1.1538 35.0958 1.17436 35.011 1.21638ZM14.9594 3.06025L15.7791 3.87548C16.3495 4.40595 17.1262 3.6067 16.5988 3.06025L15.7791 2.24049C15.6703 2.12861 15.5298 2.07224 15.3737 2.07225C14.8511 2.06789 14.5986 2.70238 14.9594 3.06025ZM21.2213 2.24051L20.4016 3.06027C19.8742 3.60672 20.6509 4.40597 21.2213 3.87551L22.0411 3.06027C22.4018 2.7024 22.1492 2.06824 21.6267 2.07227C21.4707 2.07226 21.3302 2.12863 21.2213 2.24051ZM2.79561 2.89313L6.76438 4.81381L5.81708 6.9908C5.73287 7.18454 5.76102 7.40878 5.8905 7.5757L7.53671 9.70864L2.83063 7.90428L3.56454 5.21579C3.59702 5.09728 3.5909 4.97151 3.54706 4.85672L2.79561 2.89313ZM34.2048 2.89313L33.4528 4.85672C33.409 4.97151 33.4029 5.09728 33.4354 5.21579L34.1693 7.90428L29.4632 9.70864L31.1094 7.5757C31.2389 7.40879 31.267 7.18454 31.1828 6.9908L30.2356 4.81381L34.2048 2.89313ZM10.5762 5.60761L10.7467 5.77914L10.5762 5.94957C9.98513 6.49491 10.852 7.35818 11.3948 6.76481L11.5641 6.59547L11.7324 6.76481C12.2757 7.33362 13.1179 6.49602 12.5521 5.94957L12.3806 5.77914L12.5521 5.60761C12.9275 5.23867 12.6548 4.60083 12.1287 4.61737C11.979 4.62174 11.8368 4.68489 11.7324 4.79239L11.5641 4.96173L11.3948 4.79239C11.2866 4.67986 11.1382 4.61606 10.9522 4.61625C10.4327 4.66603 10.2232 5.26495 10.5762 5.60761ZM25.6022 4.79233L25.4329 4.96167L25.2647 4.79233C25.1602 4.68482 25.0181 4.62211 24.8683 4.61731C24.3423 4.59983 24.0695 5.23862 24.4449 5.60757L24.6167 5.77909L24.4449 5.94952C23.8785 6.49598 24.7214 7.33425 25.2647 6.76478L25.4329 6.59544L25.6022 6.76478C26.1451 7.35813 27.0119 6.49487 26.4208 5.94952L26.2504 5.77909L26.4208 5.60757C26.7739 5.26491 26.5644 4.66592 26.0448 4.61619C25.8589 4.61599 25.7104 4.68002 25.6022 4.79233ZM17.4784 7.05515L16.6609 7.87378C16.3058 8.22889 16.0873 8.66913 16.0128 9.13278C15.5736 9.18369 15.156 9.37873 14.8216 9.71317C14.422 10.1128 14.2219 10.6378 14.2288 11.1652C13.7007 11.1587 13.1768 11.3569 12.7768 11.7569C12.3775 12.1563 12.1774 12.6793 12.184 13.2067C11.6566 13.2002 11.1337 13.4001 10.7343 13.7995C10.3341 14.1998 10.1362 14.7061 10.1381 15.2494C9.60447 15.2482 9.08227 15.4528 8.68951 15.8455C8.08937 16.4457 7.94247 17.3381 8.25932 18.0767C7.98726 18.6741 7.90065 19.3183 7.75121 19.9296C7.62732 20.4366 7.47286 20.9111 7.21039 21.323C7.10638 21.2404 6.97502 21.1917 6.8423 21.1932C6.68651 21.1976 6.53639 21.2631 6.43018 21.3772L1.31537 26.7711C0.808794 27.35 1.62737 28.0963 2.15655 27.5649L6.86262 22.6012L14.6342 30.3776L10.5548 34.8749C10.0675 35.4446 10.8805 36.2051 11.4117 35.6518L15.8638 30.7445C16.0622 30.5245 16.0685 30.1952 15.8594 29.9632C16.5529 29.357 17.5672 28.6056 18.7273 27.741C19.3091 27.9936 19.9483 28.0863 20.5406 28.2311C21.047 28.3547 21.5212 28.5088 21.9328 28.7708C21.7495 28.9908 21.7654 29.3237 21.9656 29.5319L27.3344 35.0838C27.8677 35.6813 28.7437 34.8373 28.1666 34.2821L23.1952 29.14L30.5693 21.7611L34.8666 25.8531C35.4338 26.3742 36.1948 25.5421 35.6649 25.0175L30.9577 20.536C30.8441 20.4283 30.6917 20.3712 30.5354 20.3778C30.4004 20.3822 30.269 20.4398 30.1684 20.5303C29.7191 20.0097 29.2365 19.3414 28.6961 18.5791C29.0746 17.7949 28.9334 16.8777 28.3111 16.2554C28.0008 15.945 27.6212 15.7536 27.2158 15.6874C27.3695 15.0279 27.1881 14.3125 26.6773 13.8017C26.3678 13.4922 25.9862 13.3005 25.5809 13.2349C25.7347 12.5739 25.5534 11.8592 25.0423 11.3481C24.6496 10.9553 24.1228 10.7519 23.5926 10.753C23.5882 10.226 23.3981 9.70257 22.9987 9.30321C22.6059 8.91043 22.095 8.71041 21.576 8.71041C21.5275 8.71041 21.4731 8.70925 21.4248 8.71262C21.4336 8.10714 21.2085 7.5139 20.7496 7.05505C20.3003 6.60563 19.7078 6.37642 19.1146 6.37648C18.5214 6.37655 17.9278 6.60576 17.4784 7.05515ZM19.9322 7.87378C20.3737 8.31531 20.3914 9.04061 19.9387 9.50089C19.6637 9.77568 19.3891 10.051 19.1145 10.3263C18.6545 10.7863 17.9241 10.7719 17.4785 10.3263C17.028 9.87584 17.0185 9.15131 17.4785 8.69129L18.2971 7.87378C18.5271 7.64378 18.8252 7.53167 19.1056 7.53167C19.3996 7.53167 19.7022 7.64376 19.9322 7.87378ZM22.1791 10.123C22.5163 10.4602 22.5259 11.0014 22.1791 11.3482L20.3398 13.1875C19.7701 13.7339 20.614 14.5767 21.1596 14.0062L22.9988 12.1668C23.3456 11.82 23.8907 11.8336 24.2239 12.1668C24.5571 12.5 24.5707 13.0451 24.2239 13.3919C23.5356 14.0769 23.037 14.5809 22.3846 15.2313C21.8158 15.7746 22.6534 16.6168 23.1998 16.051L24.6541 14.6001C24.9928 14.2806 25.5222 14.2815 25.8577 14.6176C26.1932 14.9531 26.2045 15.4993 25.8577 15.8461C25.179 16.5247 24.6612 17.0444 24.0184 17.6855C23.4526 18.2319 24.2948 19.0695 24.8381 18.5007C25.3146 18.0242 25.7911 17.5477 26.2676 17.0712C26.6144 16.7244 27.1594 16.738 27.4926 17.0712C27.8326 17.4112 27.8394 17.9495 27.4926 18.2963L23.6085 22.1794C20.4804 25.3077 16.9664 27.4156 15.0398 29.144L8.04396 22.1478C8.40012 21.7183 8.73457 20.8543 8.87384 20.2034C8.96845 19.8165 9.04012 19.4492 9.11998 19.1364L9.50953 19.5248C10.2962 20.3093 11.5829 20.3104 12.3684 19.5248C12.6792 19.214 12.8681 18.8375 12.9329 18.4307C13.5942 18.5858 14.3118 18.4012 14.823 17.8898C15.2224 17.4905 15.421 16.9671 15.4136 16.4389C15.9417 16.4454 16.4674 16.2455 16.8667 15.8461C17.2658 15.447 17.4678 14.9207 17.4606 14.3929C17.9891 14.3994 18.5108 14.2019 18.9104 13.8023C19.5112 13.2015 19.6576 12.3148 19.3394 11.5745C19.5003 11.4943 19.6312 11.4065 19.773 11.2866C19.9052 11.1913 20.5581 10.5199 20.9541 10.1236C21.1275 9.95031 21.3476 9.86389 21.5671 9.86362C21.7866 9.86335 22.0057 9.94965 22.1791 10.123ZM16.6612 11.1449C17.0676 11.5513 17.5927 11.7778 18.1437 11.8179C18.4226 12.1338 18.4234 12.6492 18.0906 12.982C17.7598 13.3128 17.2134 13.3288 16.8667 12.982C16.4604 12.5784 16.0086 12.127 15.6326 11.7524C15.291 11.4055 15.3101 10.8554 15.637 10.5284C15.7606 10.4047 15.9391 10.3106 16.1169 10.2856C16.228 10.5983 16.4123 10.896 16.6612 11.1449ZM14.8208 12.5744C15.2298 12.9832 15.6388 13.3921 16.0481 13.8029C16.392 14.1509 16.3771 14.7002 16.0493 15.028C15.7137 15.3637 15.1676 15.3726 14.8208 15.0258L13.5958 13.7996C13.249 13.4528 13.2603 12.9099 13.5958 12.5745C13.7693 12.401 13.9904 12.3193 14.21 12.3192C14.4295 12.3192 14.6474 12.4009 14.8208 12.5744ZM12.7771 14.6182L14.0033 15.8433C14.3501 16.1901 14.3389 16.7385 14.0055 17.0718C13.6723 17.4051 13.1216 17.4186 12.7748 17.0718C12.3672 16.6609 11.9606 16.2547 11.5497 15.8455C11.203 15.4988 11.2177 14.9525 11.552 14.6182C11.7252 14.4447 11.9432 14.3641 12.1628 14.3641C12.3825 14.3641 12.6037 14.4447 12.7771 14.6182ZM10.1192 16.4078C10.3387 16.4078 10.5612 16.4874 10.7346 16.6608L11.5487 17.4805C11.8954 17.8273 11.8921 18.3623 11.5487 18.7057C11.2132 19.0411 10.6715 19.0524 10.3247 18.7057L9.50953 17.8904C9.16277 17.5436 9.16277 17.0076 9.50953 16.6608C9.68281 16.4873 9.89974 16.4078 10.1192 16.4078ZM27.9307 19.496C28.4188 20.1832 28.8438 20.7787 29.3511 21.3445L22.7595 27.9364C22.1335 27.4793 21.4369 27.261 20.814 27.1087C20.4707 27.0248 20.1453 26.9601 19.8588 26.8897C21.3427 25.7589 22.9668 24.4602 24.4283 22.9986L27.9307 19.496Z" fill="#0014B8"/>
</g>
</g>
</svg>
