<svg width="32" height="32" viewBox="0 0 32 32" fill="none" xmlns="http://www.w3.org/2000/svg">
<g id="competition (2) 1" clip-path="url(#clip0_816_2143)">
<g id="Group">
<path id="Vector" d="M23.7011 19.5165L23.3721 21.4345C23.3419 21.61 23.4141 21.7874 23.5582 21.8921C23.7022 21.9967 23.8931 22.0106 24.0508 21.9277L25.7734 21.0221L27.4959 21.9277C27.5644 21.9637 27.6392 21.9814 27.7136 21.9814C27.8106 21.9814 27.9071 21.9513 27.9886 21.892C28.1327 21.7873 28.2049 21.61 28.1747 21.4345L27.8458 19.5164L29.2393 18.158C29.3668 18.0337 29.4127 17.8477 29.3577 17.6784C29.3026 17.509 29.1562 17.3856 28.98 17.36L27.0542 17.0801L26.1929 15.335C26.114 15.1753 25.9514 15.0742 25.7733 15.0742C25.5952 15.0742 25.4326 15.1753 25.3538 15.335L24.4924 17.0801L22.5666 17.36C22.3904 17.3856 22.2439 17.5091 22.1889 17.6784C22.1339 17.8477 22.1798 18.0336 22.3073 18.158L23.7011 19.5165ZM24.8706 17.9707C25.0229 17.9486 25.1546 17.8529 25.2228 17.7148L25.7734 16.5991L26.324 17.7148C26.3922 17.8529 26.5239 17.9486 26.6762 17.9707L27.9074 18.1496L27.0165 19.0181C26.9062 19.1256 26.8559 19.2804 26.882 19.4322L27.0923 20.6583L25.9912 20.0794C25.923 20.0436 25.8482 20.0257 25.7734 20.0257C25.6987 20.0257 25.6239 20.0436 25.5557 20.0794L24.4545 20.6583L24.6649 19.4323C24.691 19.2804 24.6406 19.1256 24.5304 19.0181L23.6395 18.1496L24.8706 17.9707Z" fill="#0014B8"/>
<path id="Vector_2" d="M3.99019 14.829L3.66114 16.747C3.63101 16.9225 3.70318 17.0999 3.84722 17.2046C3.99125 17.3092 4.1822 17.3232 4.33989 17.2402L6.06251 16.3346L7.785 17.2402C7.85349 17.2762 7.92822 17.2939 8.00264 17.2939C8.09971 17.2939 8.19621 17.2638 8.27768 17.2045C8.42177 17.0998 8.49395 16.9225 8.46375 16.747L8.13483 14.8289L9.52839 13.4705C9.65589 13.3462 9.70174 13.1602 9.64672 12.9909C9.59171 12.8215 9.4453 12.6981 9.26908 12.6725L7.34323 12.3927L6.48195 10.6475C6.4031 10.4878 6.24048 10.3867 6.06238 10.3867C5.88429 10.3867 5.72167 10.4878 5.64282 10.6475L4.78142 12.3926L2.85563 12.6725C2.67947 12.6981 2.533 12.8216 2.47798 12.9909C2.42296 13.1602 2.46887 13.3461 2.59632 13.4705L3.99019 14.829ZM5.15962 13.2833C5.31196 13.2612 5.4437 13.1654 5.51182 13.0273L6.06251 11.9117L6.61307 13.0273C6.68125 13.1654 6.81294 13.2611 6.96527 13.2833L8.19646 13.4622L7.30555 14.3307C7.19526 14.4382 7.14498 14.593 7.17106 14.7448L7.38134 15.9709L6.28021 15.392C6.21203 15.3562 6.1373 15.3383 6.06251 15.3383C5.98778 15.3383 5.91298 15.3562 5.8448 15.392L4.74361 15.9709L4.95396 14.7448C4.98003 14.593 4.92969 14.4382 4.81947 14.3307L3.92856 13.4622L5.15962 13.2833Z" fill="#0014B8"/>
<path id="Vector_3" d="M13.3075 3.10364V3.67236C13.3075 5.00772 14.2782 6.11989 15.5509 6.34234V7.65462C14.4044 7.84126 13.4955 8.7429 13.2977 9.88557H12.6429C12.0395 9.88557 12.0395 10.8213 12.6429 10.8213H19.3597C19.9631 10.8213 19.9631 9.88557 19.3597 9.88557H18.6857C18.491 8.76099 17.6075 7.87008 16.4866 7.66429V6.34227C17.7593 6.11989 18.7301 5.00766 18.7301 3.6723V3.09871C19.3274 3.01837 19.8021 2.77846 20.1444 2.38172C20.8371 1.57883 20.6787 0.447013 20.6716 0.399293C20.6376 0.169922 20.4407 0 20.2088 0H18.2622H18.2397H13.7754C13.7733 0 13.7713 0.000311899 13.7691 0.000311899C13.767 0.000311899 13.765 0 13.7629 0H11.7938C11.5618 0 11.365 0.169922 11.331 0.399293C11.3239 0.447076 11.1655 1.57883 11.8582 2.38172C12.2072 2.78632 12.6935 3.02816 13.3075 3.10364ZM17.7291 9.88563H14.2542C14.4607 9.11973 15.1614 8.55432 15.9917 8.55432C16.8219 8.55432 17.5227 9.11967 17.7291 9.88563ZM19.4358 1.77052C19.2708 1.96184 19.0342 2.08872 18.73 2.15035V0.935696H19.7489C19.7269 1.19077 19.6524 1.51951 19.4358 1.77052ZM14.2432 0.935696H17.7943V2.60722C17.7923 2.62506 17.7909 2.64315 17.7909 2.66162C17.7909 2.68008 17.7922 2.69811 17.7943 2.71601V3.67236C17.7943 4.65135 16.9978 5.44787 16.0187 5.44787C15.0397 5.44787 14.2432 4.65135 14.2432 3.67236V0.935696ZM13.3075 0.935696V2.15684C12.9884 2.09845 12.7411 1.97076 12.57 1.77433C12.3509 1.52306 12.2758 1.19214 12.2537 0.935696H13.3075Z" fill="#0014B8"/>
<path id="Vector_4" d="M31.5018 31.0651H30.7793V24.9349C30.7793 24.2716 30.2398 23.732 29.5767 23.732H21.5267C21.4117 23.732 21.3007 23.7492 21.1953 23.7795V13.9021C21.1953 13.2388 20.656 12.6992 19.993 12.6992H11.9431C11.2802 12.6992 10.7409 13.2388 10.7409 13.9021V18.8751C10.6549 18.8555 10.5659 18.8442 10.4741 18.8442H2.4242C1.7611 18.8442 1.22164 19.3836 1.22164 20.0468V23.7043C1.22164 24.3077 2.15734 24.3077 2.15734 23.7043V20.0468C2.15734 19.8997 2.27705 19.7799 2.4242 19.7799H10.4741C10.6211 19.7799 10.7408 19.8997 10.7408 20.0468V31.0651H2.15734V26.0123C2.15734 25.4089 1.22164 25.4089 1.22164 26.0123V31.0651H0.499098C0.240659 31.0651 0.03125 31.2745 0.03125 31.5329C0.03125 31.7914 0.240659 32.0008 0.499098 32.0008H31.5018C31.7603 32.0008 31.9697 31.7914 31.9697 31.5329C31.9697 31.2745 31.7602 31.0651 31.5018 31.0651ZM11.6765 31.0651V20.0468V13.9021C11.6765 13.7548 11.7961 13.6349 11.943 13.6349H19.993C20.14 13.6349 20.2596 13.7548 20.2596 13.9021V31.0651H11.6765V31.0651ZM21.2601 31.0651V24.9349C21.2601 24.7876 21.3797 24.6677 21.5267 24.6677H29.5767C29.7238 24.6677 29.8435 24.7876 29.8435 24.9349V31.0651H21.2601Z" fill="#0014B8"/>
</g>
</g>
<defs>
<clipPath id="clip0_816_2143">
<rect width="32" height="32" fill="white"/>
</clipPath>
</defs>
</svg>
