<svg width="34" height="34" viewBox="0 0 34 34" fill="none" xmlns="http://www.w3.org/2000/svg">
<g id="controller 1" clip-path="url(#clip0_816_2105)">
<g id="Page-1">
<g id="018---Group-Gaming-Connection">
<path id="Shape" d="M13.6 18.1315H2.83333V5.66484C2.83333 5.35188 3.08704 5.09818 3.4 5.09818H3.96667C4.27963 5.09818 4.53333 4.84447 4.53333 4.53151C4.53333 4.21855 4.27963 3.96484 3.96667 3.96484H3.4C2.46112 3.96484 1.7 4.72596 1.7 5.66484V18.212C0.702279 18.4696 0.00386173 19.3677 0 20.3982V27.1982C0 28.45 1.01482 29.4648 2.26667 29.4648H5.66667V30.5982C4.72778 30.5982 3.96667 31.3593 3.96667 32.2982V32.8648C3.96667 33.4908 4.47408 33.9982 5.1 33.9982H10.7667C11.3926 33.9982 11.9 33.4908 11.9 32.8648V32.2982C11.9 31.3593 11.1389 30.5982 10.2 30.5982V29.4648H13.6C14.8518 29.4648 15.8667 28.45 15.8667 27.1982V20.3982C15.8667 19.1463 14.8518 18.1315 13.6 18.1315ZM10.2 31.7315C10.513 31.7315 10.7667 31.9852 10.7667 32.2982V32.8648H5.1V32.2982C5.1 31.9852 5.35371 31.7315 5.66667 31.7315C6.29259 31.7315 6.8 31.2241 6.8 30.5982V29.4648H9.06667V30.5982C9.06667 31.2241 9.57408 31.7315 10.2 31.7315ZM9.63333 28.3315H5.1V27.7648C5.10044 26.869 5.52448 26.0262 6.24353 25.4919C7.24036 26.2565 8.62631 26.2565 9.62313 25.4919C10.3422 26.0262 10.7662 26.869 10.7667 27.7648V28.3315H9.63333ZM7.93333 24.9315C6.99445 24.9315 6.23333 24.1704 6.23333 23.2315C6.23333 22.2926 6.99445 21.5315 7.93333 21.5315C8.87222 21.5315 9.63333 22.2926 9.63333 23.2315C9.63333 24.1704 8.87222 24.9315 7.93333 24.9315ZM14.7333 27.1982C14.7333 27.8241 14.2259 28.3315 13.6 28.3315H11.9V27.7648C11.8974 26.5466 11.3347 25.3973 10.374 24.6482C10.6288 24.2194 10.7643 23.7303 10.7667 23.2315C10.7667 21.6667 9.49814 20.3982 7.93333 20.3982C6.36853 20.3982 5.1 21.6667 5.1 23.2315C5.10233 23.7303 5.2379 24.2194 5.4927 24.6482C4.53199 25.3973 3.96923 26.5466 3.96667 27.7648V28.3315H2.26667C1.64074 28.3315 1.13333 27.8241 1.13333 27.1982V20.3982C1.13333 19.7723 1.64074 19.2648 2.26667 19.2648H13.6C14.2259 19.2648 14.7333 19.7723 14.7333 20.3982V27.1982Z" fill="#0014B8"/>
<path id="Shape_2" d="M32.2995 18.212V5.66484C32.2995 4.72596 31.5384 3.96484 30.5995 3.96484H30.0328C29.7199 3.96484 29.4661 4.21855 29.4661 4.53151C29.4661 4.84447 29.7199 5.09818 30.0328 5.09818H30.5995C30.9124 5.09818 31.1661 5.35188 31.1661 5.66484V18.1315H20.3995C19.1476 18.1315 18.1328 19.1463 18.1328 20.3982V27.1982C18.1328 28.45 19.1476 29.4648 20.3995 29.4648H23.7995V30.5982C22.8606 30.5982 22.0995 31.3593 22.0995 32.2982V32.8648C22.0995 33.4908 22.6069 33.9982 23.2328 33.9982H28.8995C29.5254 33.9982 30.0328 33.4908 30.0328 32.8648V32.2982C30.0328 31.3593 29.2717 30.5982 28.3328 30.5982V29.4648H31.7328C32.9847 29.4648 33.9995 28.45 33.9995 27.1982V20.3982C33.9956 19.3677 33.2972 18.4696 32.2995 18.212ZM28.3328 31.7315C28.6458 31.7315 28.8995 31.9852 28.8995 32.2982V32.8648H23.2328V32.2982C23.2328 31.9852 23.4865 31.7315 23.7995 31.7315C24.4254 31.7315 24.9328 31.2241 24.9328 30.5982V29.4648H27.1995V30.5982C27.1995 31.2241 27.7069 31.7315 28.3328 31.7315ZM27.7661 28.3315H23.2328V27.7648C23.2332 26.869 23.6573 26.0262 24.3763 25.4919C25.3732 26.2565 26.7591 26.2565 27.7559 25.4919C28.475 26.0262 28.899 26.869 28.8995 27.7648V28.3315H27.7661ZM26.0661 24.9315C25.1273 24.9315 24.3661 24.1704 24.3661 23.2315C24.3661 22.2926 25.1273 21.5315 26.0661 21.5315C27.005 21.5315 27.7661 22.2926 27.7661 23.2315C27.7661 24.1704 27.005 24.9315 26.0661 24.9315ZM32.8661 27.1982C32.8661 27.8241 32.3587 28.3315 31.7328 28.3315H30.0328V27.7648C30.0302 26.5466 29.4675 25.3973 28.5068 24.6482C28.7616 24.2194 28.8972 23.7303 28.8995 23.2315C28.8995 21.6667 27.631 20.3982 26.0661 20.3982C24.5013 20.3982 23.2328 21.6667 23.2328 23.2315C23.2356 23.7293 23.3712 24.2174 23.6255 24.6453C22.664 25.395 22.1012 26.5456 22.0995 27.7648V28.3315H20.3995C19.7736 28.3315 19.2661 27.8241 19.2661 27.1982V20.3982C19.2661 19.7723 19.7736 19.2648 20.3995 19.2648H31.7328C32.3587 19.2648 32.8661 19.7723 32.8661 20.3982V27.1982Z" fill="#0014B8"/>
<path id="Shape_3" d="M9.63307 3.96563C9.94603 3.96563 10.1997 3.71192 10.1997 3.39896V2.83229C10.1997 2.51933 9.94603 2.26562 9.63307 2.26562C9.32011 2.26562 9.06641 2.51933 9.06641 2.83229V3.39896C9.06641 3.71192 9.32011 3.96563 9.63307 3.96563Z" fill="#0014B8"/>
<path id="Shape_4" d="M9.63307 5.10156C9.32011 5.10156 9.06641 5.35527 9.06641 5.66823V6.2349C9.06641 6.54786 9.32011 6.80156 9.63307 6.80156C9.94603 6.80156 10.1997 6.54786 10.1997 6.2349V5.66823C10.1997 5.35527 9.94603 5.10156 9.63307 5.10156Z" fill="#0014B8"/>
<path id="Shape_5" d="M10.7659 5.09818H11.3326C11.6455 5.09818 11.8992 4.84447 11.8992 4.53151C11.8992 4.21855 11.6455 3.96484 11.3326 3.96484H10.7659C10.4529 3.96484 10.1992 4.21855 10.1992 4.53151C10.1992 4.84447 10.4529 5.09818 10.7659 5.09818Z" fill="#0014B8"/>
<path id="Shape_6" d="M7.93385 5.09818H8.50052C8.81348 5.09818 9.06719 4.84447 9.06719 4.53151C9.06719 4.21855 8.81348 3.96484 8.50052 3.96484H7.93385C7.62089 3.96484 7.36719 4.21855 7.36719 4.53151C7.36719 4.84447 7.62089 5.09818 7.93385 5.09818Z" fill="#0014B8"/>
<path id="Shape_7" d="M7.63819 16.9604C8.95634 16.9565 10.1286 16.1213 10.5628 14.8767L11.8791 10.888C12.8005 11.5241 14.0315 11.4747 14.8989 10.7667H19.0996C19.967 11.4749 21.1982 11.5241 22.1194 10.8874L23.4403 14.8875C23.8831 16.1272 25.0563 16.9557 26.3728 16.9581C26.5754 16.9582 26.7776 16.9381 26.9763 16.898C28.4224 16.6056 29.4631 15.3361 29.4662 13.8607C29.4662 13.7683 29.46 13.6765 29.4526 13.566L28.3017 2.09046C28.1838 0.901397 27.1818 -0.00347465 25.9869 2.43563e-05H23.4709C22.806 -0.00246355 22.1678 0.261414 21.6989 0.732724C21.4424 0.988025 21.0957 1.13197 20.7339 1.13336H13.2652C12.9039 1.13152 12.5579 0.987613 12.3019 0.732724C11.8325 0.260994 11.1936 -0.00291888 10.5282 2.43563e-05H8.01219C6.81711 -0.00344631 5.81502 0.901739 5.69736 2.09102L4.54589 13.5706C4.46717 14.4397 4.75729 15.3018 5.34542 15.9466C5.93355 16.5913 6.76553 16.9591 7.63819 16.9604ZM12.1398 9.57273V9.56933C11.7227 8.94699 11.8622 8.10747 12.4583 7.65355C13.0543 7.19963 13.9007 7.28826 14.3898 7.8558C14.8788 8.42334 14.8415 9.27356 14.3045 9.79599L14.2988 9.80053C13.9984 10.0927 13.5838 10.2363 13.167 10.1925C12.7503 10.1488 12.3746 9.92209 12.1415 9.57386L12.1398 9.57273ZM20.6829 10.2C20.317 10.2 19.9655 10.0578 19.7025 9.80336L19.6935 9.79599C19.2092 9.32224 19.1282 8.57197 19.5 8.00572C19.8719 7.43947 20.5926 7.21572 21.2198 7.47183C21.8469 7.72794 22.205 8.39222 22.0742 9.0569C21.9434 9.72159 21.3603 10.2007 20.6829 10.2ZM26.7536 15.7868C25.7972 15.9753 24.8462 15.4383 24.5135 14.522L24.3594 14.0551C25.7121 14.5317 27.2171 14.2325 28.2847 13.2748L28.3232 13.6629C28.3278 13.7292 28.3329 13.7944 28.3329 13.8607C28.3309 14.7964 27.6708 15.6015 26.7536 15.7868ZM19.8329 2.26669V4.21602C19.8341 4.38959 19.6948 4.53149 19.5212 4.53336H14.4779C14.3043 4.53149 14.1649 4.38959 14.1662 4.21602V2.26669H19.8329ZM6.82503 2.20492C6.88599 1.59543 7.39966 1.13178 8.01219 1.13336H10.5282C10.8923 1.13156 11.242 1.27587 11.4989 1.53399C11.9128 1.94079 12.4549 2.19151 13.0329 2.24346V4.21602C13.0322 5.01526 13.6786 5.66419 14.4779 5.66669H19.5212C20.3204 5.66419 20.9668 5.01526 20.9662 4.21602V2.24346C21.5442 2.19151 22.0863 1.94079 22.5002 1.53399C22.757 1.27587 23.1067 1.13156 23.4709 1.13336H25.9869C26.5992 1.13175 27.1128 1.59509 27.174 2.20436L28.126 11.6949C27.7205 12.415 27.0226 12.924 26.213 13.09C25.366 13.2591 24.4883 13.0292 23.833 12.4667L22.9773 9.87589C23.4851 8.83325 23.2254 7.57923 22.3453 6.82402C21.4651 6.06881 20.1862 6.00265 19.2328 6.663C18.2794 7.32335 17.8917 8.54387 18.2893 9.63336H15.7092C15.8101 9.36119 15.8632 9.07362 15.8662 8.78336C15.8662 7.87233 15.3802 7.03051 14.5912 6.57499C13.8022 6.11948 12.8302 6.11948 12.0412 6.57499C11.2522 7.03051 10.7662 7.87233 10.7662 8.78336C10.7682 9.16168 10.8554 9.5347 11.0212 9.87476L10.1655 12.4667C9.51091 13.0307 8.63295 13.2617 7.78553 13.0929C6.9767 12.927 6.27959 12.4184 5.87473 11.6989L6.82503 2.20492ZM5.67469 13.6794L5.71493 13.2759C6.2368 13.7414 6.8726 14.0605 7.55773 14.2007C8.25216 14.3433 8.9724 14.2929 9.64023 14.0551L9.48949 14.5084C9.15934 15.4439 8.1843 15.9873 7.21499 15.7759C6.24568 15.5646 5.58539 14.6646 5.67469 13.6765V13.6794Z" fill="#0014B8"/>
<path id="Oval" d="M22.6663 5.09818C22.9792 5.09818 23.2329 4.84447 23.2329 4.53151C23.2329 4.21855 22.9792 3.96484 22.6663 3.96484C22.3533 3.96484 22.0996 4.21855 22.0996 4.53151C22.0996 4.84447 22.3533 5.09818 22.6663 5.09818Z" fill="#0014B8"/>
<path id="Oval_2" d="M26.0667 5.09818C26.3796 5.09818 26.6333 4.84447 26.6333 4.53151C26.6333 4.21855 26.3796 3.96484 26.0667 3.96484C25.7537 3.96484 25.5 4.21855 25.5 4.53151C25.5 4.84447 25.7537 5.09818 26.0667 5.09818Z" fill="#0014B8"/>
<path id="Oval_3" d="M24.3674 6.8013C24.6804 6.8013 24.9341 6.5476 24.9341 6.23464C24.9341 5.92167 24.6804 5.66797 24.3674 5.66797C24.0545 5.66797 23.8008 5.92167 23.8008 6.23464C23.8008 6.5476 24.0545 6.8013 24.3674 6.8013Z" fill="#0014B8"/>
<path id="Oval_4" d="M24.3674 3.39896C24.6804 3.39896 24.9341 3.14525 24.9341 2.83229C24.9341 2.51933 24.6804 2.26562 24.3674 2.26562C24.0545 2.26562 23.8008 2.51933 23.8008 2.83229C23.8008 3.14525 24.0545 3.39896 24.3674 3.39896Z" fill="#0014B8"/>
</g>
</g>
</g>
<defs>
<clipPath id="clip0_816_2105">
<rect width="34" height="34" fill="white"/>
</clipPath>
</defs>
</svg>
