<svg width="37" height="37" viewBox="0 0 37 37" fill="none" xmlns="http://www.w3.org/2000/svg">
<g id="competition 1" clip-path="url(#clip0_816_2124)">
<path id="Vector" d="M2.3125 36.4219H12.7188C13.0367 36.4219 13.2969 36.1617 13.2969 35.8438V27.8078C13.823 27.3858 14.1641 26.7441 14.1641 26.0156C14.1641 25.0559 13.5802 24.2234 12.7188 23.8766V22.5469C12.7188 22.2289 12.4586 21.9688 12.1406 21.9688H2.89062C2.57266 21.9688 2.3125 22.2289 2.3125 22.5469V23.8766C1.45109 24.2234 0.867188 25.0559 0.867188 26.0156C0.867188 26.7441 1.20828 27.38 1.73438 27.8078V35.8438C1.73438 36.1617 1.99453 36.4219 2.3125 36.4219ZM12.1406 35.2656H2.89062V28.2992C2.98891 28.3108 3.08141 28.3281 3.17969 28.3281C3.71156 28.3281 4.22031 28.1431 4.625 27.8194C5.43437 28.4669 6.70625 28.4669 7.51562 27.8194C8.325 28.4669 9.59688 28.4669 10.4062 27.8194C10.8109 28.1431 11.3197 28.3281 11.8516 28.3281C11.9498 28.3281 12.0423 28.3108 12.1406 28.2992V35.2656ZM2.98891 24.8825C3.26641 24.8363 3.46875 24.5934 3.46875 24.3102V23.125H11.5625V24.3102C11.5625 24.5934 11.7648 24.8305 12.0423 24.8825C12.5973 24.975 13.0078 25.4548 13.0078 26.0156C13.0078 26.6516 12.4875 27.1719 11.8516 27.1719C11.4642 27.1719 11.1058 26.9753 10.8861 26.6516C10.782 26.4897 10.597 26.3914 10.4062 26.3914C10.2155 26.3914 10.0305 26.4897 9.92641 26.6516C9.7125 26.9753 9.34828 27.1719 8.96094 27.1719C8.57359 27.1719 8.21516 26.9753 7.99547 26.6516C7.78156 26.3278 7.24391 26.3278 7.03 26.6516C6.81609 26.9753 6.45187 27.1719 6.06453 27.1719C5.67719 27.1719 5.31875 26.9753 5.09906 26.6516C4.88516 26.3278 4.3475 26.3278 4.13359 26.6516C3.91969 26.9753 3.55547 27.1719 3.16813 27.1719C2.53219 27.1719 2.01188 26.6516 2.01188 26.0156C2.01188 25.4491 2.41656 24.975 2.97734 24.8825H2.98891Z" fill="#0014B8"/>
<path id="Vector_2" d="M9.82812 29.7734H5.20312C4.88516 29.7734 4.625 30.0336 4.625 30.3516V33.2422C4.625 33.5602 4.88516 33.8203 5.20312 33.8203H9.82812C10.1461 33.8203 10.4062 33.5602 10.4062 33.2422V30.3516C10.4062 30.0336 10.1461 29.7734 9.82812 29.7734ZM9.25 32.6641H5.78125V30.9297H9.25V32.6641Z" fill="#0014B8"/>
<path id="Vector_3" d="M31.7969 29.7734H27.1719C26.8539 29.7734 26.5938 30.0336 26.5938 30.3516V33.2422C26.5938 33.5602 26.8539 33.8203 27.1719 33.8203H31.7969C32.1148 33.8203 32.375 33.5602 32.375 33.2422V30.3516C32.375 30.0336 32.1148 29.7734 31.7969 29.7734ZM31.2188 32.6641H27.75V30.9297H31.2188V32.6641Z" fill="#0014B8"/>
<path id="Vector_4" d="M34.1094 21.9688H24.8594C24.5414 21.9688 24.2812 22.2289 24.2812 22.5469V23.8766C23.4198 24.2234 22.8359 25.0559 22.8359 26.0156C22.8359 26.7441 23.177 27.38 23.7031 27.8078V35.8438C23.7031 36.1617 23.9633 36.4219 24.2812 36.4219H34.6875C35.0055 36.4219 35.2656 36.1617 35.2656 35.8438V27.8078C35.7917 27.3858 36.1328 26.7441 36.1328 26.0156C36.1328 25.0559 35.5489 24.2234 34.6875 23.8766V22.5469C34.6875 22.2289 34.4273 21.9688 34.1094 21.9688ZM34.1094 35.2656H24.8594V28.2992C24.9577 28.3108 25.0502 28.3281 25.1484 28.3281C25.6803 28.3281 26.1891 28.1431 26.5938 27.8194C27.4031 28.4669 28.675 28.4669 29.4844 27.8194C30.2937 28.4669 31.5656 28.4669 32.375 27.8194C32.7797 28.1431 33.2884 28.3281 33.8203 28.3281C33.9186 28.3281 34.0111 28.3108 34.1094 28.2992V35.2656ZM34.9766 26.0156C34.9766 26.6516 34.4563 27.1719 33.8203 27.1719C33.433 27.1719 33.0745 26.9753 32.8548 26.6516C32.7508 26.4897 32.5658 26.3914 32.375 26.3914C32.1842 26.3914 31.9992 26.4897 31.8952 26.6516C31.6812 26.9753 31.317 27.1719 30.9297 27.1719C30.5423 27.1719 30.1839 26.9753 29.9642 26.6516C29.7503 26.3278 29.2127 26.3278 28.9987 26.6516C28.7848 26.9753 28.4206 27.1719 28.0333 27.1719C27.6459 27.1719 27.2875 26.9753 27.0678 26.6516C26.8539 26.3278 26.3163 26.3278 26.1023 26.6516C25.8884 26.9753 25.5242 27.1719 25.1369 27.1719C24.5009 27.1719 23.9806 26.6516 23.9806 26.0156C23.9806 25.4491 24.3853 24.975 24.9461 24.8825C25.2236 24.8363 25.4259 24.5934 25.4259 24.3102V23.125H33.5197V24.3102C33.5197 24.5934 33.722 24.8305 33.9995 24.8825C34.5545 24.975 34.965 25.4548 34.965 26.0156H34.9766Z" fill="#0014B8"/>
<path id="Vector_5" d="M29.4835 10.9844H21.3898C21.1585 10.9844 20.9446 11.1231 20.8579 11.3428C20.7654 11.5567 20.8174 11.8053 20.9851 11.973L26.7085 17.6964C26.8184 17.8063 26.9629 17.8641 27.119 17.8641C27.2751 17.8641 27.4196 17.8005 27.5295 17.6964C29.1656 16.0545 30.0674 13.875 30.0674 11.5625C30.0674 11.2445 29.8073 10.9844 29.4893 10.9844H29.4835ZM27.0959 16.4534L22.7831 12.1406H28.8823C28.7609 13.7362 28.1423 15.2336 27.0959 16.4534Z" fill="#0014B8"/>
<path id="Vector_6" d="M17.9219 29.4844H19.0781V30.6406H17.9219V29.4844Z" fill="#0014B8"/>
<path id="Vector_7" d="M17.9219 27.1719H19.0781V28.3281H17.9219V27.1719Z" fill="#0014B8"/>
<path id="Vector_8" d="M17.9219 24.8594H19.0781V26.0156H17.9219V24.8594Z" fill="#0014B8"/>
<path id="Vector_9" d="M17.9219 22.5469H19.0781V23.7031H17.9219V22.5469Z" fill="#0014B8"/>
<path id="Vector_10" d="M17.9219 20.2344H19.0781V21.3906H17.9219V20.2344Z" fill="#0014B8"/>
<path id="Vector_11" d="M15.6094 29.4844H16.7656V30.6406H15.6094V29.4844Z" fill="#0014B8"/>
<path id="Vector_12" d="M20.2344 29.4844H21.3906V30.6406H20.2344V29.4844Z" fill="#0014B8"/>
<path id="Vector_13" d="M21.911 14.9734C21.911 14.8173 21.8474 14.6728 21.7434 14.563L17.0085 9.82812H23.709C24.027 9.82812 24.2871 9.56797 24.2871 9.25C24.2871 4.46891 20.3963 0.578125 15.6152 0.578125C10.8341 0.578125 6.94336 4.46891 6.94336 9.25C6.94336 14.0311 10.8341 17.9219 15.6152 17.9219C17.9277 17.9219 20.1015 17.02 21.7491 15.3839C21.859 15.2741 21.9168 15.1295 21.9168 14.9734H21.911ZM15.6095 16.7656C11.4643 16.7656 8.09383 13.3952 8.09383 9.25C8.09383 5.10484 11.4643 1.73438 15.6095 1.73438C19.7546 1.73438 22.8071 4.79844 23.102 8.67188H15.6095C15.3782 8.67188 15.1643 8.81062 15.0776 9.03031C14.9851 9.24422 15.0371 9.49281 15.2048 9.66047L20.5062 14.9619C19.1418 16.1297 17.4248 16.7714 15.6152 16.7714L15.6095 16.7656Z" fill="#0014B8"/>
</g>
<defs>
<clipPath id="clip0_816_2124">
<rect width="37" height="37" fill="white"/>
</clipPath>
</defs>
</svg>
