<svg width="30" height="30" viewBox="0 0 30 30" fill="none" xmlns="http://www.w3.org/2000/svg">
<g id="history 1" clip-path="url(#clip0_816_2081)">
<path id="Vector" d="M14.8641 16.2234L20.4891 20.4422C20.9034 20.753 21.4908 20.6691 21.8016 20.2547C22.1123 19.8403 22.0284 19.253 21.6141 18.9422L16.4062 15V7.03125C16.4062 6.51328 15.9867 6.09375 15.4687 6.09375C14.9508 6.09375 14.5312 6.51328 14.5312 7.03125V15.4688C14.5312 15.78 14.6616 16.0603 14.8641 16.2234Z" fill="#0014B8"/>
<path id="Vector_2" d="M15.9369 0.9375C9.0749 0.9375 3.21505 5.89031 2.0713 12.6562L1.71505 12.1266C1.4249 11.6967 0.841773 11.5833 0.411929 11.8734C-0.0179143 12.1636 -0.131352 12.7467 0.158804 13.1766L2.0338 15.9891C2.18802 16.2234 2.43927 16.3767 2.71818 16.4062H2.81193C3.06037 16.4053 3.29802 16.3059 3.47287 16.1297L5.81662 13.7859C6.18271 13.4198 6.18271 12.8255 5.81662 12.4594C5.45052 12.0933 4.85615 12.0933 4.49005 12.4594L3.9088 13.0453C4.98834 6.40125 11.2494 1.89094 17.893 2.97047C24.5366 4.05 29.0479 10.3106 27.9683 16.9547C27.0097 22.8544 21.914 27.1884 15.9369 27.1875C12.1672 27.2559 8.60193 25.4775 6.38849 22.425C6.08802 22.0031 5.50255 21.9042 5.08068 22.2047C4.6588 22.5052 4.5599 23.0906 4.86037 23.5125C7.42349 27.0619 11.5597 29.1342 15.9369 29.0625C23.7036 29.0625 29.9994 22.7667 29.9994 15C29.9994 7.23328 23.7036 0.9375 15.9369 0.9375Z" fill="#0014B8"/>
</g>
<defs>
<clipPath id="clip0_816_2081">
<rect width="30" height="30" fill="white"/>
</clipPath>
</defs>
</svg>
