<svg width="32" height="32" viewBox="0 0 32 32" fill="none" xmlns="http://www.w3.org/2000/svg">
<g id="popular 1" clip-path="url(#clip0_816_2154)">
<path id="Vector" d="M16 0C7.16333 0 0 7.16333 0 16C0 24.8367 7.16333 32 16 32C24.8367 32 32 24.8367 32 16C31.99 7.16748 24.8325 0.0100097 16 0ZM16 30C8.26807 30 2 23.7319 2 16C2 8.26807 8.26807 2 16 2C23.7319 2 30 8.26807 30 16C29.9915 23.7285 23.7285 29.9915 16 30Z" fill="#0014B8"/>
<path id="Vector_2" d="M23.196 12.02L18.676 11.1155L16.8945 7.55298C16.7251 7.21411 16.3789 7 16 7C15.6211 7 15.2749 7.21411 15.1054 7.55298L13.3239 11.1155L8.80392 12.02C8.46725 12.0874 8.18844 12.3228 8.06588 12.6436C7.94333 12.9644 7.99386 13.3257 8.19992 13.6006L10.9314 17.2429L10.0195 21.8044C9.94796 22.1638 10.0786 22.5334 10.3603 22.7681C10.6418 23.0024 11.029 23.0642 11.3694 22.929L16 21.0774L20.6284 22.9275C20.969 23.0627 21.3562 23.001 21.6377 22.7666C21.9192 22.532 22.05 22.1624 21.9785 21.803L21.0664 17.2415L23.8 13.6006C24.0061 13.3257 24.0566 12.9644 23.934 12.6436C23.8115 12.3228 23.5327 12.0874 23.196 12.02ZM19.1999 16.4004C19.0293 16.6282 18.9636 16.9175 19.0195 17.1965L19.6574 20.3865L16.3715 19.072C16.133 18.9766 15.8669 18.9766 15.6284 19.072L12.3425 20.3865L12.9804 17.1965C13.0363 16.9175 12.9707 16.6282 12.8 16.4004L10.75 13.6699L14.1941 12.981C14.497 12.9211 14.7556 12.7244 14.894 12.448L16 10.2366L17.1054 12.4504C17.2439 12.7268 17.5024 12.9236 17.8054 12.9834L21.25 13.6699L19.1999 16.4004Z" fill="#0014B8"/>
</g>
<defs>
<clipPath id="clip0_816_2154">
<rect width="32" height="32" fill="white"/>
</clipPath>
</defs>
</svg>
