<svg width="33" height="33" viewBox="0 0 33 33" fill="none" xmlns="http://www.w3.org/2000/svg">
<g id="profit 2" clip-path="url(#clip0_816_2097)">
<path id="Vector" d="M13.9863 23.5273C14.3421 23.5273 14.6309 23.2386 14.6309 22.8828C14.6309 22.5271 14.3421 22.2383 13.9863 22.2383C13.6306 22.2383 13.3418 22.5271 13.3418 22.8828C13.3418 23.2386 13.6306 23.5273 13.9863 23.5273Z" fill="#0014B8"/>
<path id="Vector_2" d="M0.253281 25.0104L7.98767 32.7448C8.23944 32.9966 8.6473 32.9966 8.89907 32.7448L13.153 28.4909C13.4048 28.2391 13.4048 27.8313 13.153 27.5795L12.9642 27.3907H22.255C23.071 27.3907 23.8497 27.0848 24.4502 26.5273L32.2694 19.1991C33.0179 18.5039 33.2659 17.3997 32.8862 16.4515C32.6118 15.7652 32.0514 15.24 31.3489 15.0106C30.6462 14.7807 29.8841 14.8739 29.2572 15.2657C29.2532 15.2682 27.5213 16.4047 27.5213 16.4047C27.5094 12.9108 25.3978 9.18515 22.4911 7.50785C22.6571 7.31726 22.7875 7.09168 22.8706 6.83915C23.2032 5.82729 22.6503 4.73208 21.6369 4.39748C21.6052 4.38691 21.5734 4.37759 21.5417 4.36777L23.2009 1.38732C23.2963 1.21586 23.3086 1.01016 23.2339 0.828889C23.1593 0.647363 23.0063 0.509644 22.8177 0.45501C21.6281 0.109078 20.3916 -0.0664062 19.1426 -0.0664062C17.8938 -0.0664062 16.6571 0.109078 15.4675 0.454758C15.2789 0.509644 15.1259 0.647111 15.0511 0.828637C14.9766 1.01016 14.9886 1.21586 15.0843 1.38732L16.7435 4.36777C16.7113 4.37784 16.679 4.38741 16.6468 4.39799C15.6349 4.73208 15.0823 5.82703 15.4149 6.83965C15.498 7.09168 15.6294 7.31651 15.7958 7.50735C12.8458 9.20957 10.7637 12.9735 10.7637 16.4336C10.7637 16.528 10.766 16.6212 10.769 16.7136C9.61461 17.0285 8.54131 17.6023 7.63871 18.3926L5.67994 20.1064L5.4186 19.8451C5.16683 19.5933 4.75896 19.5933 4.50719 19.8451L0.253281 24.099C0.00151054 24.3508 0.00151054 24.7587 0.253281 25.0104ZM16.6181 1.4923C17.4439 1.31304 18.2899 1.22266 19.1426 1.22266C19.9953 1.22266 20.8413 1.31304 21.6674 1.4923L20.231 4.07219C19.5069 3.97123 18.7778 3.97123 18.0545 4.07219L16.6181 1.4923ZM17.0491 5.6226C18.3717 5.1898 19.8136 5.15707 21.2343 5.62209C21.5724 5.73363 21.757 6.0992 21.646 6.43657C21.5624 6.69061 21.3358 6.86307 21.0732 6.87843C19.8022 6.47434 18.4822 6.47358 17.2118 6.87717C17.2118 6.87717 17.2118 6.87717 17.2115 6.87717C16.9467 6.86055 16.7218 6.68733 16.6392 6.43682C16.5282 6.09895 16.7128 5.73338 17.0491 5.6226ZM17.4056 8.17177C18.5232 7.76919 19.6811 7.75962 20.8015 8.14458C23.7961 9.17432 26.2325 12.8927 26.2325 16.4336C26.2325 16.7337 26.2136 17.0197 26.1763 17.2871L23.0783 19.3197C22.5987 18.7255 21.8718 18.3672 21.0762 18.3672H19.7871V17.6119C20.5374 17.3458 21.0762 16.6292 21.0762 15.7891C21.0762 14.7228 20.2088 13.8555 19.1426 13.8555C18.7874 13.8555 18.4981 13.5665 18.4981 13.211C18.4981 12.8555 18.7874 12.5664 19.1426 12.5664C19.371 12.5664 19.6119 12.683 19.8398 12.9033C20.0956 13.1508 20.5037 13.144 20.7512 12.8884C20.9987 12.6326 20.9919 12.2245 20.7361 11.977C20.409 11.6603 20.0817 11.4813 19.7871 11.3836V10.6328C19.7871 10.2768 19.4986 9.98829 19.1426 9.98829C18.7866 9.98829 18.4981 10.2768 18.4981 10.6328V11.3881C17.748 11.6543 17.209 12.3708 17.209 13.211C17.209 14.2772 18.0764 15.1446 19.1426 15.1446C19.4981 15.1446 19.7871 15.4336 19.7871 15.7891C19.7871 16.1446 19.4981 16.4336 19.1426 16.4336C18.8672 16.4336 18.5701 16.2604 18.3057 15.9459C18.0766 15.6735 17.67 15.6383 17.3976 15.8674C17.1252 16.0965 17.0899 16.5031 17.319 16.7755C17.6635 17.1854 18.0688 17.4709 18.4981 17.6149V18.3672H18.2836C17.9668 18.3672 17.8246 18.1608 17.6015 18.0165C16.2397 16.9958 14.5528 16.4336 12.8514 16.4336C12.5852 16.4336 12.3186 16.4475 12.0533 16.4744C12.0533 16.4608 12.0527 16.4475 12.0527 16.4336C12.0527 12.9423 14.4541 9.23626 17.4056 8.17177ZM8.48768 19.3625C9.6987 18.302 11.2549 17.7227 12.8514 17.7227C14.2759 17.7227 15.6881 18.1932 16.8276 19.0475C16.992 19.1437 17.4497 19.6563 18.2833 19.6563H21.0762C21.8099 19.6563 22.3653 20.2527 22.3653 20.9453C22.3653 21.6561 21.7869 22.2344 21.0762 22.2344H16.5645C16.2085 22.2344 15.9199 22.5229 15.9199 22.8789C15.9199 23.2349 16.2085 23.5235 16.5645 23.5235H21.0762C22.4977 23.5235 23.6543 22.3668 23.6543 20.9453C23.6543 20.7976 23.6412 20.6518 23.6166 20.5083L29.9458 16.3556C30.2469 16.1695 30.6123 16.126 30.9486 16.2357C31.287 16.3465 31.5571 16.5995 31.6893 16.9304C31.8754 17.3946 31.7586 17.9145 31.39 18.2567L23.571 25.5847C23.212 25.9181 22.7447 26.1016 22.255 26.1016H11.6751L6.59361 21.0199L8.48768 19.3625ZM4.9629 21.2122L11.7859 28.0352L8.44337 31.3777L1.62039 24.5547L4.9629 21.2122Z" fill="#0014B8"/>
</g>
<defs>
<clipPath id="clip0_816_2097">
<rect width="33" height="33" fill="white"/>
</clipPath>
</defs>
</svg>
