<svg width="34" height="34" viewBox="0 0 34 34" fill="none" xmlns="http://www.w3.org/2000/svg">
<g id="user (16) 1">
<path id="Vector" d="M16.3011 29.2191H8.07924C7.5048 29.2191 7.0372 28.7515 7.0372 28.1771V22.3629C7.0372 20.8508 7.79787 19.4561 9.05921 18.6405L9.29027 18.4961L9.30903 18.4843C9.79698 18.179 9.94504 17.5359 9.64026 17.0479C9.33549 16.5605 8.69337 16.4124 8.2039 16.7167L7.94085 16.8815C6.06996 18.0915 4.95312 20.141 4.95312 22.3629V28.1771C4.95312 29.9009 6.3554 31.3032 8.07924 31.3032H16.3011C16.8765 31.3032 17.3431 30.8366 17.3431 30.2612C17.3431 29.6857 16.8765 29.2191 16.3011 29.2191Z" fill="#0014B8"/>
<path id="Vector_2" d="M22.276 17.0485C21.9707 17.5364 22.1188 18.1796 22.6067 18.4849L22.8443 18.6329C24.0059 19.3824 24.7595 20.6417 24.8607 22.0023C24.9009 22.5502 25.3584 22.9675 25.8987 22.9675C25.9247 22.9675 25.9506 22.9664 25.9766 22.9644C26.5505 22.9222 26.9815 22.4225 26.9387 21.8486C26.7901 19.8398 25.6815 17.9832 23.9617 16.874L23.7119 16.7173C23.2229 16.412 22.5808 16.5606 22.276 17.0485Z" fill="#0014B8"/>
<path id="Vector_3" d="M15.9573 17.2666C20.1315 17.2666 23.5278 13.8703 23.5278 9.69606C23.5278 5.52129 20.1315 2.125 15.9573 2.125C11.783 2.125 8.38672 5.52129 8.38672 9.69606C8.38672 13.8703 11.783 17.2666 15.9573 17.2666ZM15.9573 4.20908C18.9826 4.20908 21.4437 6.67069 21.4437 9.69606C21.4437 12.7214 18.9826 15.1825 15.9573 15.1825C12.9319 15.1825 10.4708 12.7214 10.4708 9.69606C10.4708 6.67069 12.9319 4.20908 15.9573 4.20908Z" fill="#0014B8"/>
<path id="Vector_4" d="M28.7401 24.7818C28.3331 24.3748 27.6736 24.3748 27.2666 24.7818L22.6899 29.3586L20.4038 27.072C19.9967 26.6649 19.3373 26.6649 18.9303 27.072C18.5232 27.4785 18.5232 28.1385 18.9303 28.5455L21.9531 31.5688C22.1485 31.7642 22.4136 31.8741 22.6899 31.8741C22.9661 31.8741 23.2312 31.7642 23.4266 31.5688L28.7401 26.2554C29.1471 25.8483 29.1471 25.1889 28.7401 24.7818Z" fill="#0014B8"/>
</g>
</svg>
