<svg width="44" height="44" viewBox="0 0 44 44" fill="none" xmlns="http://www.w3.org/2000/svg">
<g id="slot-machine (1) 1" clip-path="url(#clip0_816_1604)">
<g id="Group">
<g id="Group_2">
<path id="Vector" d="M7.90625 39.5742H30.9375V36.1367H7.90625V39.5742Z" stroke="#0014B8" stroke-width="1.5" stroke-miterlimit="10" stroke-linecap="round" stroke-linejoin="round"/>
</g>
<path id="Vector_2" d="M15.5547 11.4297H0.859375V32.5703H37.9844V11.4297H23.2891" stroke="#0014B8" stroke-width="1.5" stroke-miterlimit="10" stroke-linecap="round" stroke-linejoin="round"/>
<g id="Group_3">
<path id="Vector_3" d="M34.5462 11.315C34.4847 5.52999 29.7761 0.859375 23.9765 0.859375H14.8671C9.04501 0.859375 4.32223 5.56643 4.29688 11.3826" stroke="#0014B8" stroke-width="1.5" stroke-miterlimit="10" stroke-linecap="round" stroke-linejoin="round"/>
</g>
<g id="Group_4">
<path id="Vector_4" d="M4.29688 43.1406H34.5469V32.5703H4.29688V43.1406Z" stroke="#0014B8" stroke-width="1.5" stroke-miterlimit="10" stroke-linecap="round" stroke-linejoin="round"/>
</g>
<path id="Vector_5" d="M39.7031 20.2812H37.9844V23.7188H39.7031C40.6524 23.7188 41.4219 22.9493 41.4219 22C41.4219 21.0507 40.6524 20.2812 39.7031 20.2812Z" stroke="#0014B8" stroke-width="1.5" stroke-miterlimit="10" stroke-linecap="round" stroke-linejoin="round"/>
<path id="Vector_6" d="M41.4219 5.5C40.4726 5.5 39.7031 6.26948 39.7031 7.21875C39.7031 8.16802 40.4726 8.9375 41.4219 8.9375C42.3711 8.9375 43.1406 8.16802 43.1406 7.21875C43.1406 6.26948 42.3711 5.5 41.4219 5.5Z" stroke="#0014B8" stroke-width="1.5" stroke-miterlimit="10" stroke-linecap="round" stroke-linejoin="round"/>
<path id="Vector_7" d="M41.4219 22V8.9375" stroke="#0014B8" stroke-width="1.5" stroke-miterlimit="10" stroke-linecap="round" stroke-linejoin="round"/>
<path id="Vector_8" d="M14.3809 29.0547V15.1328" stroke="#0014B8" stroke-width="1.5" stroke-miterlimit="10" stroke-linecap="round" stroke-linejoin="round"/>
<path id="Vector_9" d="M24.4629 29.0547V15.1328" stroke="#0014B8" stroke-width="1.5" stroke-miterlimit="10" stroke-linecap="round" stroke-linejoin="round"/>
<g id="Group_5">
<path id="Vector_10" d="M4.29688 29.1328H34.5469V14.8672H4.29688V29.1328Z" stroke="#0014B8" stroke-width="1.5" stroke-miterlimit="10" stroke-linecap="round" stroke-linejoin="round"/>
</g>
<path id="Vector_11" d="M11.8633 6.14453H26.9807" stroke="#0014B8" stroke-width="1.5" stroke-miterlimit="10" stroke-linecap="round" stroke-linejoin="round"/>
</g>
</g>
<defs>
<clipPath id="clip0_816_1604">
<rect width="44" height="44" fill="white"/>
</clipPath>
</defs>
</svg>
