<svg width="50" height="50" viewBox="0 0 50 50" fill="none" xmlns="http://www.w3.org/2000/svg">
<g id="technical-support 1" clip-path="url(#clip0_816_1623)">
<g id="g993">
<g id="g995">
<path id="path997" d="M39.5977 4.37109H45.9884" stroke="#0014B8" stroke-width="1.2" stroke-miterlimit="10" stroke-linecap="round" stroke-linejoin="round"/>
</g>
<g id="g999">
<path id="path1001" d="M35.9688 4.37109H36.7478" stroke="#0014B8" stroke-width="1.2" stroke-miterlimit="10" stroke-linecap="round" stroke-linejoin="round"/>
</g>
<g id="g1003">
<path id="path1005" d="M35.9688 7.81055H45.9887" stroke="#0014B8" stroke-width="1.2" stroke-miterlimit="10" stroke-linecap="round" stroke-linejoin="round"/>
</g>
<g id="g1007">
<g id="Clip path group">
<mask id="mask0_816_1623" style="mask-type:luminance" maskUnits="userSpaceOnUse" x="0" y="0" width="50" height="50">
<g id="clipPath1013">
<path id="path1011" d="M0 3.8147e-06H50V50H0V3.8147e-06Z" fill="white"/>
</g>
</mask>
<g mask="url(#mask0_816_1623)">
<g id="g1009">
<g id="g1015">
<path id="path1017" d="M30.8271 17.6429V20.6396C30.8271 21.8774 29.8236 22.8809 28.5857 22.8809H26.7383" stroke="#0014B8" stroke-width="1.2" stroke-miterlimit="10" stroke-linecap="round" stroke-linejoin="round"/>
</g>
<g id="g1019">
<path id="path1021" d="M36.8962 46.0866H2.30732C1.4375 46.0866 0.732422 46.7917 0.732422 47.6615C0.732422 48.5313 1.4375 49.2363 2.30732 49.2363H36.8962C37.766 49.2363 38.4711 48.5313 38.4711 47.6615C38.4711 46.7917 37.766 46.0866 36.8962 46.0866Z" stroke="#0014B8" stroke-width="1.2" stroke-miterlimit="10" stroke-linecap="round" stroke-linejoin="round"/>
</g>
<g id="g1023">
<path id="path1025" d="M21.567 46.0859C21.567 44.7953 22.0506 43.5545 22.9141 42.5953C22.9205 42.5882 22.927 42.581 22.9334 42.5737C23.6395 41.7837 24.0689 40.7411 24.0689 39.598C24.0689 37.9323 23.1571 36.4796 21.8054 35.7116C21.5489 35.5658 21.2305 35.7491 21.2305 36.044V39.3674C21.2305 39.9244 20.7789 40.376 20.2218 40.376H18.9819C18.4249 40.376 17.9732 39.9244 17.9732 39.3674V36.044C17.9732 35.7491 17.6547 35.5658 17.3982 35.7116C16.0466 36.4796 15.1348 37.9323 15.1348 39.598C15.1348 40.7411 15.5642 41.7837 16.2703 42.5737C16.2768 42.581 16.2832 42.5882 16.2896 42.5953C17.1531 43.5545 17.6367 44.7953 17.6367 46.0859" stroke="#0014B8" stroke-width="1.2" stroke-miterlimit="10" stroke-linecap="round" stroke-linejoin="round"/>
</g>
<g id="g1027">
<path id="path1029" d="M4.50781 43.2278L4.66289 46.0859" stroke="#0014B8" stroke-width="1.2" stroke-miterlimit="10" stroke-linecap="round" stroke-linejoin="round"/>
</g>
<g id="g1031">
<path id="path1033" d="M34.5396 46.0859L35.2655 32.7127C35.3353 31.425 34.3101 30.3426 33.0205 30.3426H6.18189C4.89234 30.3426 3.86705 31.425 3.93697 32.7127L4.3231 39.8285" stroke="#0014B8" stroke-width="1.2" stroke-miterlimit="10" stroke-linecap="round" stroke-linejoin="round"/>
</g>
<g id="g1035">
<path id="path1037" d="M37.885 46.4375V43.3694C37.885 40.4144 36.8582 37.6631 35.1152 35.4897" stroke="#0014B8" stroke-width="1.2" stroke-miterlimit="10" stroke-linecap="round" stroke-linejoin="round"/>
</g>
<g id="g1039">
<path id="path1041" d="M4.08809 35.4897C2.34512 37.6631 1.31836 40.4144 1.31836 43.3694V46.4375" stroke="#0014B8" stroke-width="1.2" stroke-miterlimit="10" stroke-linecap="round" stroke-linejoin="round"/>
</g>
<g id="g1043">
<path id="path1045" d="M27.0584 6.77019H26.9763C26.5217 6.77019 26.1531 6.40173 26.1531 5.94714C26.1531 4.60115 25.0621 3.51003 23.7161 3.51003H15.9594C12.5073 3.51003 9.70898 6.30837 9.70898 9.76042V13.891C9.70898 14.4977 10.0929 15.0381 10.6659 15.2376L12.2055 15.7736C12.7437 15.961 13.3057 15.5609 13.3048 14.9911L13.3014 12.0784C13.2955 10.6619 14.4251 9.50866 15.8245 9.50261L15.855 9.50251C16.2834 9.50066 16.707 9.56716 17.1117 9.69724C17.8287 9.92761 18.5717 10.0673 19.3248 10.064H19.8796C20.6327 10.0673 21.3757 9.92761 22.0927 9.69724C22.4974 9.56716 22.921 9.50066 23.3494 9.50251L23.3799 9.50261C24.7793 9.50866 25.9089 10.6619 25.903 12.0784L25.9002 14.9913C25.8994 15.5611 26.4614 15.961 26.9994 15.7736L28.5386 15.2376C29.1115 15.0381 29.4954 14.4978 29.4954 13.8911V9.2073C29.4954 7.8613 28.4043 6.77019 27.0584 6.77019Z" stroke="#0014B8" stroke-width="1.2" stroke-miterlimit="10" stroke-linecap="round" stroke-linejoin="round"/>
</g>
<g id="g1047">
<path id="path1049" d="M11.6074 19.4834H11.6211C11.675 21.6078 12.5656 23.6491 14.1649 25.0312C15.4526 26.1438 17.2601 27.1121 19.6424 27.1289C22.0244 27.0918 23.8238 26.1081 25.1021 24.9845C26.6584 23.6165 27.5264 21.6209 27.5944 19.5413" stroke="#0014B8" stroke-width="1.2" stroke-miterlimit="10" stroke-linecap="round" stroke-linejoin="round"/>
</g>
<g id="g1051">
<path id="path1053" d="M9.70879 13.5703C8.95127 13.7098 8.37695 14.3723 8.37695 15.1701V17.952C8.37695 18.8512 9.10586 19.5801 10.0051 19.5801H11.6086V15.566" stroke="#0014B8" stroke-width="1.2" stroke-miterlimit="10" stroke-linecap="round" stroke-linejoin="round"/>
</g>
<g id="g1055">
<path id="path1057" d="M27.5957 15.5662V19.5801H29.1991C30.0983 19.5801 30.8272 18.8512 30.8272 17.9521V15.1702C30.8272 14.3724 30.2529 13.7098 29.4954 13.5704" stroke="#0014B8" stroke-width="1.2" stroke-miterlimit="10" stroke-linecap="round" stroke-linejoin="round"/>
</g>
<g id="g1059">
<path id="path1061" d="M25.1294 24.0293H23.2913C22.59 24.0293 22.0215 23.4608 22.0215 22.7596C22.0215 22.0582 22.59 21.4897 23.2913 21.4897H25.1294C25.8307 21.4897 26.3991 22.0582 26.3991 22.7596C26.3991 23.4608 25.8307 24.0293 25.1294 24.0293Z" stroke="#0014B8" stroke-width="1.2" stroke-miterlimit="10" stroke-linecap="round" stroke-linejoin="round"/>
</g>
<g id="g1063">
<path id="path1065" d="M24.795 30.3438C24.1221 29.9789 23.6777 29.2693 23.6777 28.4702V26.015" stroke="#0014B8" stroke-width="1.2" stroke-miterlimit="10" stroke-linecap="round" stroke-linejoin="round"/>
</g>
<g id="g1067">
<path id="path1069" d="M15.5258 26.0074V28.4702C15.5258 29.283 15.0685 29.9837 14.4062 30.3438" stroke="#0014B8" stroke-width="1.2" stroke-miterlimit="10" stroke-linecap="round" stroke-linejoin="round"/>
</g>
<g id="g1071">
<path id="path1073" d="M49.2681 4.30983V2.89225C49.2681 1.71589 48.3145 0.762274 47.138 0.762274H34.8195C33.6431 0.762274 32.6895 1.71589 32.6895 2.89225V9.05319C32.6895 10.2296 33.6431 11.1832 34.8195 11.1832C35.5065 11.1832 36.0635 11.7401 36.0635 12.4271V16.2372C36.0635 16.7209 36.7005 16.8972 36.9492 16.4824L39.7647 11.7874C39.9895 11.4126 40.3945 11.1832 40.8315 11.1832H47.138C48.3145 11.1832 49.2681 10.2296 49.2681 9.05319V7.73405" stroke="#0014B8" stroke-width="1.2" stroke-miterlimit="10" stroke-linecap="round" stroke-linejoin="round"/>
</g>
</g>
</g>
</g>
</g>
</g>
</g>
<defs>
<clipPath id="clip0_816_1623">
<rect width="50" height="50" fill="white"/>
</clipPath>
</defs>
</svg>
