<svg width="42" height="42" viewBox="0 0 42 42" fill="none" xmlns="http://www.w3.org/2000/svg">
<g id="tools 1" clip-path="url(#clip0_816_1667)">
<g id="Group">
<path id="Vector" d="M40.2313 31.5385L30.9221 22.2154C30.7677 22.0687 30.5628 21.9869 30.3498 21.9869C30.1368 21.9869 29.9319 22.0687 29.7775 22.2154L27.9313 24.0616L25.7575 21.8924L31.0052 16.617C33.1975 16.5016 36.119 16.5108 36.2483 16.4924C36.7929 16.4093 37.836 15.5693 41.3667 10.8201C41.4648 10.6858 41.5195 10.5247 41.5236 10.3585V8.22159C41.5233 8.07933 41.4856 7.93966 41.4143 7.81654C41.3431 7.69342 41.2407 7.59118 41.1175 7.52005C40.9945 7.44738 40.8542 7.40904 40.7113 7.40904C40.5685 7.40904 40.4282 7.44738 40.3052 7.52005L36.5713 9.73544C36.2529 9.83698 34.8544 10.1647 33.659 8.46159C32.3667 6.61544 32.9436 5.72928 33.7606 5.03236C34.9804 4.16088 36.2469 3.3566 37.5544 2.62313C37.6725 2.55418 37.7714 2.45686 37.8423 2.34C37.9133 2.22314 37.9539 2.09043 37.9606 1.9539C37.9657 1.81756 37.9363 1.68214 37.8749 1.56028C37.8136 1.43841 37.7224 1.33406 37.6098 1.25698C37.4944 1.17852 34.6836 -0.699946 29.856 1.16928C26.1267 2.60928 25.6052 4.50621 25.559 4.71852L24.7652 10.3262L19.4852 15.6108L14.7683 10.8801C14.9727 10.3659 15.0792 9.81799 15.0821 9.26467C15.0832 8.69001 14.9704 8.12084 14.7502 7.59006C14.5299 7.05928 14.2066 6.57743 13.799 6.17236C13.7604 6.13185 13.717 6.0962 13.6698 6.06621L5.68057 0.869285C5.5262 0.767123 5.34128 0.721427 5.15709 0.73993C4.9729 0.758433 4.80076 0.839998 4.6698 0.970823L1.35134 4.28928C1.22051 4.42025 1.13895 4.59239 1.12044 4.77657C1.10194 4.96076 1.14764 5.14568 1.2498 5.30005L6.46057 13.2754C6.49197 13.3216 6.5275 13.3649 6.56672 13.4047C6.97085 13.8119 7.45198 14.1347 7.98209 14.3542C8.51219 14.5737 9.08067 14.6855 9.65441 14.6831C10.2092 14.684 10.759 14.5791 11.2744 14.3739L15.9913 19.1047L10.2129 24.8831L4.67441 25.6677H4.61441C4.40211 25.7185 2.5098 26.2354 1.06518 29.9693C-0.780971 34.797 1.06518 37.6031 1.15749 37.7231C1.2338 37.8346 1.33656 37.9254 1.45657 37.9875C1.57659 38.0495 1.71011 38.0808 1.84518 38.0785C1.98098 38.0737 2.11329 38.0342 2.22959 37.964C2.34589 37.8937 2.44234 37.7949 2.5098 37.677C3.24387 36.3698 4.04812 35.1034 4.91903 33.8831C5.61595 33.0662 6.51595 32.4985 8.35288 33.777C10.0606 34.9816 9.73749 36.3893 9.62672 36.6893L7.41134 40.4231C7.33749 40.5453 7.29755 40.685 7.29563 40.8277C7.29371 40.9705 7.32987 41.1111 7.40039 41.2353C7.47092 41.3594 7.57325 41.4625 7.69686 41.5339C7.82047 41.6053 7.96089 41.6425 8.10364 41.6416H10.2406C10.4078 41.6386 10.5696 41.582 10.7021 41.4801C15.5483 37.8985 16.319 36.8647 16.3836 36.3431C16.3836 36.2324 16.3836 33.3108 16.499 31.1231L22.2636 25.3862L24.4606 27.5508L22.6144 29.397C22.4633 29.5491 22.3786 29.7549 22.3786 29.9693C22.3786 30.1837 22.4633 30.3894 22.6144 30.5416L31.9375 39.8601C32.9846 40.9057 34.4039 41.493 35.8836 41.493C37.3634 41.493 38.7827 40.9057 39.8298 39.8601L40.2498 39.4401C40.7692 38.9225 41.1813 38.3075 41.4625 37.6303C41.7437 36.9532 41.8885 36.2271 41.8885 35.4939C41.8885 34.7607 41.7437 34.0346 41.4625 33.3575C41.1813 32.6803 40.7692 32.0653 40.2498 31.5477L40.2313 31.5385ZM26.099 11.2816C26.2216 11.1557 26.3008 10.994 26.3252 10.8201L27.1421 5.07852C27.1929 4.94928 27.7329 3.74467 30.4375 2.69698C31.9656 2.03215 33.6526 1.82067 35.2975 2.08775C34.3995 2.60732 33.5348 3.18227 32.7083 3.80929C30.4883 5.71082 31.2821 7.8939 32.3344 9.3939C33.9821 11.7339 36.2529 11.6185 37.2175 11.2401C37.2544 11.2401 39.9083 9.65698 39.9083 9.65698V10.1185C38.3944 12.1493 36.5713 14.4062 35.9529 14.9047C34.8913 14.8493 31.9375 14.9924 30.6129 15.0662C30.4128 15.0757 30.2235 15.1597 30.0821 15.3016L24.6175 20.7385L23.2329 19.3539L28.5036 14.0601C28.5896 13.988 28.6595 13.8988 28.7091 13.7982C28.7586 13.6976 28.7867 13.5878 28.7915 13.4757C28.7962 13.3637 28.7776 13.2519 28.7368 13.1474C28.696 13.043 28.6339 12.9482 28.5545 12.869C28.475 12.7899 28.3799 12.7282 28.2753 12.6878C28.1707 12.6474 28.0588 12.6293 27.9468 12.6345C27.8348 12.6397 27.7251 12.6682 27.6247 12.7182C27.5243 12.7682 27.4354 12.8385 27.3636 12.9247L22.079 18.2047L20.6298 16.7508L26.099 11.2816ZM9.64057 13.0677C8.93848 13.0712 8.26219 12.8033 7.75288 12.3201L2.95749 4.96775L5.34826 2.57698L12.7006 7.38621C13.1896 7.90926 13.457 8.6014 13.4467 9.31737C13.4363 10.0333 13.1491 10.7175 12.6452 11.2262L11.5883 12.2831C11.3328 12.539 11.0291 12.7417 10.6948 12.8796C10.3605 13.0174 10.0022 13.0877 9.64057 13.0862V13.0677ZM15.1513 30.2047C15.009 30.3438 14.9248 30.5319 14.916 30.7308C14.8421 32.0601 14.699 35.0093 14.759 36.0708C14.2606 36.6893 11.9898 38.517 9.96826 40.0308H9.50672C9.50672 40.0308 11.076 37.3862 11.1036 37.3401C11.496 36.3708 11.616 34.1093 9.25749 32.457C7.75749 31.4047 5.56518 30.6108 3.66826 32.8308C3.04176 33.6577 2.46682 34.5224 1.94672 35.4201C1.67925 33.7747 1.8924 32.0872 2.56057 30.5601C3.61288 27.8324 4.82211 27.3293 4.94211 27.2601L10.7067 26.4431C10.8813 26.4207 11.0435 26.3412 11.1683 26.217L17.1313 20.2447L18.5852 21.6939L12.756 27.5277C12.6802 27.6021 12.62 27.6908 12.5789 27.7886C12.5378 27.8865 12.5166 27.9916 12.5166 28.0977C12.5166 28.2039 12.5378 28.309 12.5789 28.4068C12.62 28.5047 12.6802 28.5934 12.756 28.6677C12.8303 28.7435 12.919 28.8037 13.0169 28.8448C13.1147 28.8859 13.2198 28.9071 13.326 28.9071C13.4321 28.9071 13.5372 28.8859 13.6351 28.8448C13.7329 28.8037 13.8216 28.7435 13.896 28.6677L19.7252 22.8385L21.1098 24.2231L15.1513 30.2047ZM12.6498 13.4785L12.7329 13.4047L13.7852 12.3524L13.859 12.2693L26.7821 25.1924L25.5729 26.4016L12.6498 13.4785ZM39.0913 38.3093L38.6713 38.7339C37.9258 39.4757 36.9169 39.8921 35.8652 39.8921C34.8135 39.8921 33.8046 39.4757 33.059 38.7339L24.3129 29.9647L26.159 28.1185L28.5129 25.7693L30.359 23.9231L39.1283 32.6924C39.4961 33.0628 39.787 33.5023 39.9843 33.9856C40.1817 34.4689 40.2815 34.9865 40.278 35.5085C40.2746 36.0305 40.168 36.5467 39.9643 37.0274C39.7607 37.5081 39.464 37.9437 39.0913 38.3093Z" fill="#0014B8"/>
<path id="Vector_2" d="M29.852 28.3292C29.7777 28.2534 29.689 28.1932 29.5911 28.1521C29.4932 28.111 29.3882 28.0898 29.282 28.0898C29.1759 28.0898 29.0708 28.111 28.9729 28.1521C28.875 28.1932 28.7863 28.2534 28.712 28.3292C28.5612 28.4805 28.4766 28.6855 28.4766 28.8992C28.4766 29.1128 28.5612 29.3178 28.712 29.4692L35.6351 36.3922C35.7102 36.4674 35.7995 36.527 35.8977 36.5677C35.9959 36.6084 36.1011 36.6293 36.2074 36.6293C36.3137 36.6293 36.4189 36.6084 36.5171 36.5677C36.6153 36.527 36.7045 36.4674 36.7797 36.3922C36.8549 36.3171 36.9145 36.2279 36.9551 36.1297C36.9958 36.0315 37.0168 35.9262 37.0168 35.8199C37.0168 35.7136 36.9958 35.6084 36.9551 35.5102C36.9145 35.412 36.8549 35.3228 36.7797 35.2476L29.852 28.3292Z" fill="#0014B8"/>
</g>
</g>
<defs>
<clipPath id="clip0_816_1667">
<rect width="42" height="42" fill="white"/>
</clipPath>
</defs>
</svg>
