<svg width="26" height="26" viewBox="0 0 26 26" fill="none" xmlns="http://www.w3.org/2000/svg">
<g id="air-hockey 1" clip-path="url(#clip0_816_1711)">
<g id="Group">
<path id="Vector" d="M15.7492 2.15625V4.38585C15.7492 4.66632 15.5218 4.89366 15.2414 4.89366H10.7598C10.4793 4.89366 10.252 4.66632 10.252 4.38585V2.15625" stroke="#0014B8" stroke-miterlimit="10" stroke-linecap="round" stroke-linejoin="round"/>
<path id="Vector_2" d="M21.6586 24.8594C21.6586 25.28 21.3175 25.6211 20.8969 25.6211H5.10156C4.68089 25.6211 4.33984 25.28 4.33984 24.8594V1.14453C4.33984 0.723859 4.68089 0.382812 5.10156 0.382812H20.8969C21.3176 0.382812 21.6586 0.723859 21.6586 1.14453L21.6586 24.8594Z" stroke="#0014B8" stroke-miterlimit="10" stroke-linecap="round" stroke-linejoin="round"/>
<path id="Vector_3" d="M14.3809 21.1055H15.2409C15.5214 21.1055 15.7487 21.3328 15.7487 21.6133V23.8429" stroke="#0014B8" stroke-miterlimit="10" stroke-linecap="round" stroke-linejoin="round"/>
<path id="Vector_4" d="M10.252 23.8429V21.6133C10.252 21.3328 10.4793 21.1055 10.7598 21.1055H12.7215" stroke="#0014B8" stroke-miterlimit="10" stroke-linecap="round" stroke-linejoin="round"/>
<path id="Vector_5" d="M6.11719 5.41123V23.332C6.11719 23.6125 6.34454 23.8398 6.625 23.8398H19.3735C19.6539 23.8398 19.8813 23.6125 19.8813 23.332V2.66406C19.8813 2.3836 19.6539 2.15625 19.3735 2.15625H6.625C6.34454 2.15625 6.11719 2.3836 6.11719 2.66406V3.75134" stroke="#0014B8" stroke-miterlimit="10" stroke-linecap="round" stroke-linejoin="round"/>
<path id="Vector_6" d="M13.3451 13.8325C13.8051 13.6419 14.0235 13.1146 13.833 12.6546C13.6425 12.1946 13.1151 11.9762 12.6551 12.1667C12.1952 12.3573 11.9767 12.8846 12.1673 13.3446C12.3578 13.8046 12.8851 14.023 13.3451 13.8325Z" stroke="#0014B8" stroke-miterlimit="10" stroke-linecap="round" stroke-linejoin="round"/>
<path id="Vector_7" d="M6.11719 13H11.9962" stroke="#0014B8" stroke-miterlimit="10" stroke-linecap="round" stroke-linejoin="round"/>
<path id="Vector_8" d="M14.8178 17.7877C14.9808 16.7836 14.2989 15.8375 13.2949 15.6745C12.2908 15.5116 11.3447 16.1935 11.1818 17.1975C11.0188 18.2016 11.7007 19.1477 12.7047 19.3107C13.7088 19.4736 14.6549 18.7918 14.8178 17.7877Z" stroke="#0014B8" stroke-miterlimit="10" stroke-linecap="round" stroke-linejoin="round"/>
<path id="Vector_9" d="M13.7051 10.2063C14.6449 9.81703 15.0912 8.73959 14.7019 7.79978C14.3126 6.85997 13.2352 6.41368 12.2954 6.80296C11.3556 7.19224 10.9093 8.26968 11.2986 9.20948C11.6879 10.1493 12.7653 10.5956 13.7051 10.2063Z" stroke="#0014B8" stroke-miterlimit="10" stroke-linecap="round" stroke-linejoin="round"/>
<path id="Vector_10" d="M17.5098 13H19.8815" stroke="#0014B8" stroke-miterlimit="10" stroke-linecap="round" stroke-linejoin="round"/>
<path id="Vector_11" d="M14.1074 13H15.8508" stroke="#0014B8" stroke-miterlimit="10" stroke-linecap="round" stroke-linejoin="round"/>
</g>
</g>
<defs>
<clipPath id="clip0_816_1711">
<rect width="26" height="26" fill="white"/>
</clipPath>
</defs>
</svg>
