<svg width="24" height="24" viewBox="0 0 24 24" fill="none" xmlns="http://www.w3.org/2000/svg">
<g id="arcade-machine 2" clip-path="url(#clip0_816_1864)">
<g id="Group">
<path id="Vector" d="M19.532 14.2578H4.4695L1.45703 20.2828H22.5445L19.532 14.2578Z" stroke="#0014B8" stroke-width="1.2" stroke-miterlimit="10" stroke-linecap="round" stroke-linejoin="round"/>
<path id="Vector_2" d="M19.5312 4.46875H4.46875V14.2594H19.5312V4.46875Z" stroke="#0014B8" stroke-width="1.2" stroke-miterlimit="10" stroke-linecap="round" stroke-linejoin="round"/>
<path id="Vector_3" d="M21.0379 0.703125H2.96289V4.46873H21.0379V0.703125Z" stroke="#0014B8" stroke-width="1.2" stroke-miterlimit="10" stroke-linecap="round" stroke-linejoin="round"/>
<path id="Vector_4" d="M22.5445 20.2852H1.45703V23.2977H22.5445V20.2852Z" stroke="#0014B8" stroke-width="1.2" stroke-miterlimit="10" stroke-linecap="round" stroke-linejoin="round"/>
<path id="Vector_5" d="M15.766 14.2586C16.5979 14.2586 17.2722 13.5842 17.2722 12.7523C17.2722 11.9205 16.5979 11.2461 15.766 11.2461C14.9341 11.2461 14.2598 11.9205 14.2598 12.7523C14.2598 13.5842 14.9341 14.2586 15.766 14.2586Z" stroke="#0014B8" stroke-width="1.2" stroke-miterlimit="10" stroke-linecap="round" stroke-linejoin="round"/>
<path id="Vector_6" d="M5.97656 17.2734H6.72966" stroke="#0014B8" stroke-width="1.2" stroke-miterlimit="10" stroke-linecap="round" stroke-linejoin="round"/>
<path id="Vector_7" d="M9.74219 17.2734H10.4953" stroke="#0014B8" stroke-width="1.2" stroke-miterlimit="10" stroke-linecap="round" stroke-linejoin="round"/>
<path id="Vector_8" d="M14.2598 17.2734H17.2723" stroke="#0014B8" stroke-width="1.2" stroke-miterlimit="10" stroke-linecap="round" stroke-linejoin="round"/>
<path id="Vector_9" d="M15.7656 14.2578V17.2703" stroke="#0014B8" stroke-width="1.2" stroke-miterlimit="10" stroke-linecap="round" stroke-linejoin="round"/>
</g>
</g>
<defs>
<clipPath id="clip0_816_1864">
<rect width="24" height="24" fill="white"/>
</clipPath>
</defs>
</svg>
