<svg width="26" height="25" viewBox="0 0 26 25" fill="none" xmlns="http://www.w3.org/2000/svg">
<g id="backgammon 1" clip-path="url(#clip0_816_1769)">
<path id="Vector" d="M25.1875 0.390625H0.8125C0.704756 0.390625 0.601425 0.43178 0.525238 0.505036C0.449051 0.578293 0.40625 0.67765 0.40625 0.78125V24.2188C0.40625 24.3224 0.449051 24.4217 0.525238 24.495C0.601425 24.5682 0.704756 24.6094 0.8125 24.6094H25.1875C25.2952 24.6094 25.3986 24.5682 25.4748 24.495C25.5509 24.4217 25.5938 24.3224 25.5938 24.2188V0.78125C25.5938 0.67765 25.5509 0.578293 25.4748 0.505036C25.3986 0.43178 25.2952 0.390625 25.1875 0.390625ZM24.7812 8.59375H22.3438V1.17188H24.7812V8.59375ZM19.5 16.4062C19.6607 16.4062 19.8178 16.4521 19.9514 16.5379C20.085 16.6238 20.1892 16.7458 20.2507 16.8885C20.3121 17.0313 20.3282 17.1884 20.2969 17.3399C20.2655 17.4915 20.1882 17.6307 20.0745 17.7399C19.9609 17.8492 19.8161 17.9236 19.6585 17.9537C19.5009 17.9839 19.3375 17.9684 19.1891 17.9093C19.0406 17.8501 18.9137 17.75 18.8244 17.6215C18.7352 17.4931 18.6875 17.342 18.6875 17.1875C18.6875 16.9803 18.7731 16.7816 18.9255 16.6351C19.0778 16.4886 19.2845 16.4062 19.5 16.4062ZM18.6875 14.8438C18.6875 14.6892 18.7352 14.5382 18.8244 14.4097C18.9137 14.2812 19.0406 14.1811 19.1891 14.122C19.3375 14.0628 19.5009 14.0474 19.6585 14.0775C19.8161 14.1077 19.9609 14.1821 20.0745 14.2913C20.1882 14.4006 20.2655 14.5398 20.2969 14.6913C20.3282 14.8429 20.3121 15 20.2507 15.1427C20.1892 15.2855 20.085 15.4075 19.9514 15.4933C19.8178 15.5792 19.6607 15.625 19.5 15.625C19.2845 15.625 19.0778 15.5427 18.9255 15.3962C18.7731 15.2497 18.6875 15.051 18.6875 14.8438ZM20.2109 18.5859C20.4524 18.4747 20.6611 18.3073 20.8183 18.099C20.9755 17.8906 21.0762 17.6478 21.1112 17.3926C21.1462 17.1374 21.1145 16.8778 21.0189 16.6374C20.9232 16.397 20.7667 16.1832 20.5636 16.0156C20.8141 15.8071 20.9923 15.5299 21.0744 15.2212C21.1564 14.9126 21.1384 14.5871 21.0227 14.2886C20.907 13.99 20.6991 13.7327 20.4269 13.5509C20.1548 13.3692 19.8313 13.2718 19.5 13.2718C19.1687 13.2718 18.8452 13.3692 18.5731 13.5509C18.3009 13.7327 18.093 13.99 17.9773 14.2886C17.8616 14.5871 17.8436 14.9126 17.9256 15.2212C18.0077 15.5299 18.1859 15.8071 18.4364 16.0156C18.2333 16.1832 18.0768 16.397 17.9811 16.6374C17.8855 16.8778 17.8538 17.1374 17.8888 17.3926C17.9238 17.6478 18.0245 17.8906 18.1817 18.099C18.3389 18.3073 18.5476 18.4747 18.7891 18.5859L18.315 23.8281H17.435L16.9609 18.5859C17.2024 18.4747 17.4111 18.3073 17.5683 18.099C17.7255 17.8906 17.8262 17.6478 17.8612 17.3926C17.8962 17.1374 17.8645 16.8778 17.7689 16.6374C17.6732 16.397 17.5167 16.1832 17.3136 16.0156C17.5641 15.8071 17.7423 15.5299 17.8244 15.2212C17.9064 14.9126 17.8884 14.5871 17.7727 14.2886C17.657 13.99 17.4491 13.7327 17.1769 13.5509C16.9048 13.3692 16.5813 13.2718 16.25 13.2718C15.9187 13.2718 15.5952 13.3692 15.3231 13.5509C15.0509 13.7327 14.843 13.99 14.7273 14.2886C14.6116 14.5871 14.5936 14.9126 14.6756 15.2212C14.7577 15.5299 14.9359 15.8071 15.1864 16.0156C14.9833 16.1832 14.8268 16.397 14.7311 16.6374C14.6355 16.8778 14.6038 17.1374 14.6388 17.3926C14.6738 17.6478 14.7745 17.8906 14.9317 18.099C15.0889 18.3073 15.2976 18.4747 15.5391 18.5859L15.065 23.8281H14.2188V1.17188H15.065L15.5391 6.41406C15.2976 6.52529 15.0889 6.69266 14.9317 6.90103C14.7745 7.1094 14.6738 7.35218 14.6388 7.60739C14.6038 7.8626 14.6355 8.12217 14.7311 8.36261C14.8268 8.60305 14.9833 8.81675 15.1864 8.98438C14.9359 9.1929 14.7577 9.47008 14.6756 9.77876C14.5936 10.0874 14.6116 10.4129 14.7273 10.7114C14.843 11.01 15.0509 11.2673 15.3231 11.4491C15.5952 11.6308 15.9187 11.7282 16.25 11.7282C16.5813 11.7282 16.9048 11.6308 17.1769 11.4491C17.4491 11.2673 17.657 11.01 17.7727 10.7114C17.8884 10.4129 17.9064 10.0874 17.8244 9.77876C17.7423 9.47008 17.5641 9.1929 17.3136 8.98438C17.5167 8.81675 17.6732 8.60305 17.7689 8.36261C17.8645 8.12217 17.8962 7.8626 17.8612 7.60739C17.8262 7.35218 17.7255 7.1094 17.5683 6.90103C17.4111 6.69266 17.2024 6.52529 16.9609 6.41406L17.435 1.17188H18.315L18.7891 6.41406C18.5476 6.52529 18.3389 6.69266 18.1817 6.90103C18.0245 7.1094 17.9238 7.35218 17.8888 7.60739C17.8538 7.8626 17.8855 8.12217 17.9811 8.36261C18.0768 8.60305 18.2333 8.81675 18.4364 8.98438C18.1859 9.1929 18.0077 9.47008 17.9256 9.77876C17.8436 10.0874 17.8616 10.4129 17.9773 10.7114C18.093 11.01 18.3009 11.2673 18.5731 11.4491C18.8452 11.6308 19.1687 11.7282 19.5 11.7282C19.8313 11.7282 20.1548 11.6308 20.4269 11.4491C20.6991 11.2673 20.907 11.01 21.0227 10.7114C21.1384 10.4129 21.1564 10.0874 21.0744 9.77876C20.9923 9.47008 20.8141 9.1929 20.5636 8.98438C20.7667 8.81675 20.9232 8.60305 21.0189 8.36261C21.1145 8.12217 21.1462 7.8626 21.1112 7.60739C21.0762 7.35218 20.9755 7.1094 20.8183 6.90103C20.6611 6.69266 20.4524 6.52529 20.2109 6.41406L20.685 1.17188H21.5312V23.8281H20.685L20.2109 18.5859ZM19.8693 23.8281H19.1307L19.5 19.7422L19.8693 23.8281ZM16.25 16.4062C16.4107 16.4062 16.5678 16.4521 16.7014 16.5379C16.835 16.6238 16.9392 16.7458 17.0007 16.8885C17.0621 17.0313 17.0782 17.1884 17.0469 17.3399C17.0155 17.4915 16.9382 17.6307 16.8245 17.7399C16.7109 17.8492 16.5661 17.9236 16.4085 17.9537C16.2509 17.9839 16.0875 17.9684 15.9391 17.9093C15.7906 17.8501 15.6637 17.75 15.5744 17.6215C15.4852 17.4931 15.4375 17.342 15.4375 17.1875C15.4375 16.9803 15.5231 16.7816 15.6755 16.6351C15.8278 16.4886 16.0345 16.4062 16.25 16.4062ZM15.4375 14.8438C15.4375 14.6892 15.4852 14.5382 15.5744 14.4097C15.6637 14.2812 15.7906 14.1811 15.9391 14.122C16.0875 14.0628 16.2509 14.0474 16.4085 14.0775C16.5661 14.1077 16.7109 14.1821 16.8245 14.2913C16.9382 14.4006 17.0155 14.5398 17.0469 14.6913C17.0782 14.8429 17.0621 15 17.0007 15.1427C16.9392 15.2855 16.835 15.4075 16.7014 15.4933C16.5678 15.5792 16.4107 15.625 16.25 15.625C16.0345 15.625 15.8278 15.5427 15.6755 15.3962C15.5231 15.2497 15.4375 15.051 15.4375 14.8438ZM16.6193 23.8281H15.8807L16.25 19.7422L16.6193 23.8281ZM9.75 16.4062C9.9107 16.4062 10.0678 16.4521 10.2014 16.5379C10.335 16.6238 10.4392 16.7458 10.5007 16.8885C10.5621 17.0313 10.5782 17.1884 10.5469 17.3399C10.5155 17.4915 10.4382 17.6307 10.3245 17.7399C10.2109 17.8492 10.0661 17.9236 9.90851 17.9537C9.7509 17.9839 9.58753 17.9684 9.43907 17.9093C9.2906 17.8501 9.16371 17.75 9.07443 17.6215C8.98515 17.4931 8.9375 17.342 8.9375 17.1875C8.9375 16.9803 9.0231 16.7816 9.17548 16.6351C9.32785 16.4886 9.53451 16.4062 9.75 16.4062ZM8.9375 14.8438C8.9375 14.6892 8.98515 14.5382 9.07443 14.4097C9.16371 14.2812 9.2906 14.1811 9.43907 14.122C9.58753 14.0628 9.7509 14.0474 9.90851 14.0775C10.0661 14.1077 10.2109 14.1821 10.3245 14.2913C10.4382 14.4006 10.5155 14.5398 10.5469 14.6913C10.5782 14.8429 10.5621 15 10.5007 15.1427C10.4392 15.2855 10.335 15.4075 10.2014 15.4933C10.0678 15.5792 9.9107 15.625 9.75 15.625C9.53451 15.625 9.32785 15.5427 9.17548 15.3962C9.0231 15.2497 8.9375 15.051 8.9375 14.8438ZM10.4609 18.5859C10.7024 18.4747 10.9111 18.3073 11.0683 18.099C11.2255 17.8906 11.3262 17.6478 11.3612 17.3926C11.3962 17.1374 11.3645 16.8778 11.2689 16.6374C11.1732 16.397 11.0167 16.1832 10.8136 16.0156C11.0641 15.8071 11.2423 15.5299 11.3244 15.2212C11.4064 14.9126 11.3884 14.5871 11.2727 14.2886C11.157 13.99 10.9491 13.7327 10.6769 13.5509C10.4048 13.3692 10.0813 13.2718 9.75 13.2718C9.41865 13.2718 9.09522 13.3692 8.82307 13.5509C8.55091 13.7327 8.34304 13.99 8.22732 14.2886C8.1116 14.5871 8.09356 14.9126 8.17562 15.2212C8.25768 15.5299 8.43592 15.8071 8.68644 16.0156C8.48326 16.1832 8.32677 16.397 8.23114 16.6374C8.13551 16.8778 8.10377 17.1374 8.13878 17.3926C8.17379 17.6478 8.27446 17.8906 8.43166 18.099C8.58886 18.3073 8.79763 18.4747 9.03906 18.5859L8.56497 23.8281H7.68503L7.21094 18.5859C7.45237 18.4747 7.66114 18.3073 7.81834 18.099C7.97554 17.8906 8.07621 17.6478 8.11122 17.3926C8.14623 17.1374 8.11449 16.8778 8.01886 16.6374C7.92323 16.397 7.76674 16.1832 7.56356 16.0156C7.81408 15.8071 7.99232 15.5299 8.07438 15.2212C8.15644 14.9126 8.1384 14.5871 8.02268 14.2886C7.90696 13.99 7.69909 13.7327 7.42693 13.5509C7.15478 13.3692 6.83135 13.2718 6.5 13.2718C6.16865 13.2718 5.84522 13.3692 5.57307 13.5509C5.30091 13.7327 5.09304 13.99 4.97732 14.2886C4.8616 14.5871 4.84356 14.9126 4.92562 15.2212C5.00768 15.5299 5.18592 15.8071 5.43644 16.0156C5.23326 16.1832 5.07677 16.397 4.98114 16.6374C4.88551 16.8778 4.85377 17.1374 4.88878 17.3926C4.92379 17.6478 5.02446 17.8906 5.18166 18.099C5.33886 18.3073 5.54763 18.4747 5.78906 18.5859L5.31497 23.8281H4.46875V1.17188H5.31497L5.78906 6.41406C5.54763 6.52529 5.33886 6.69266 5.18166 6.90103C5.02446 7.1094 4.92379 7.35218 4.88878 7.60739C4.85377 7.8626 4.88551 8.12217 4.98114 8.36261C5.07677 8.60305 5.23326 8.81675 5.43644 8.98438C5.18592 9.1929 5.00768 9.47008 4.92562 9.77876C4.84356 10.0874 4.8616 10.4129 4.97732 10.7114C5.09304 11.01 5.30091 11.2673 5.57307 11.4491C5.84522 11.6308 6.16865 11.7282 6.5 11.7282C6.83135 11.7282 7.15478 11.6308 7.42693 11.4491C7.69909 11.2673 7.90696 11.01 8.02268 10.7114C8.1384 10.4129 8.15644 10.0874 8.07438 9.77876C7.99232 9.47008 7.81408 9.1929 7.56356 8.98438C7.76674 8.81675 7.92323 8.60305 8.01886 8.36261C8.11449 8.12217 8.14623 7.8626 8.11122 7.60739C8.07621 7.35218 7.97554 7.1094 7.81834 6.90103C7.66114 6.69266 7.45237 6.52529 7.21094 6.41406L7.68503 1.17188H8.56497L9.03906 6.41406C8.79763 6.52529 8.58886 6.69266 8.43166 6.90103C8.27446 7.1094 8.17379 7.35218 8.13878 7.60739C8.10377 7.8626 8.13551 8.12217 8.23114 8.36261C8.32677 8.60305 8.48326 8.81675 8.68644 8.98438C8.43592 9.1929 8.25768 9.47008 8.17562 9.77876C8.09356 10.0874 8.1116 10.4129 8.22732 10.7114C8.34304 11.01 8.55091 11.2673 8.82307 11.4491C9.09522 11.6308 9.41865 11.7282 9.75 11.7282C10.0813 11.7282 10.4048 11.6308 10.6769 11.4491C10.9491 11.2673 11.157 11.01 11.2727 10.7114C11.3884 10.4129 11.4064 10.0874 11.3244 9.77876C11.2423 9.47008 11.0641 9.1929 10.8136 8.98438C11.0167 8.81675 11.1732 8.60305 11.2689 8.36261C11.3645 8.12217 11.3962 7.8626 11.3612 7.60739C11.3262 7.35218 11.2255 7.1094 11.0683 6.90103C10.9111 6.69266 10.7024 6.52529 10.4609 6.41406L10.935 1.17188H11.7812V23.8281H10.935L10.4609 18.5859ZM10.1193 23.8281H9.38072L9.75 19.7422L10.1193 23.8281ZM6.5 16.4062C6.6607 16.4062 6.81779 16.4521 6.9514 16.5379C7.08502 16.6238 7.18916 16.7458 7.25065 16.8885C7.31215 17.0313 7.32824 17.1884 7.29689 17.3399C7.26554 17.4915 7.18815 17.6307 7.07452 17.7399C6.96089 17.8492 6.81612 17.9236 6.65851 17.9537C6.5009 17.9839 6.33753 17.9684 6.18907 17.9093C6.0406 17.8501 5.91371 17.75 5.82443 17.6215C5.73515 17.4931 5.6875 17.342 5.6875 17.1875C5.6875 16.9803 5.7731 16.7816 5.92548 16.6351C6.07785 16.4886 6.28451 16.4062 6.5 16.4062ZM5.6875 14.8438C5.6875 14.6892 5.73515 14.5382 5.82443 14.4097C5.91371 14.2812 6.0406 14.1811 6.18907 14.122C6.33753 14.0628 6.5009 14.0474 6.65851 14.0775C6.81612 14.1077 6.96089 14.1821 7.07452 14.2913C7.18815 14.4006 7.26554 14.5398 7.29689 14.6913C7.32824 14.8429 7.31215 15 7.25065 15.1427C7.18916 15.2855 7.08502 15.4075 6.9514 15.4933C6.81779 15.5792 6.6607 15.625 6.5 15.625C6.28451 15.625 6.07785 15.5427 5.92548 15.3962C5.7731 15.2497 5.6875 15.051 5.6875 14.8438ZM6.86928 23.8281H6.13072L6.5 19.7422L6.86928 23.8281ZM3.65625 15.625H1.21875V9.375H3.65625V15.625ZM6.5 8.59375C6.3393 8.59375 6.18221 8.54793 6.0486 8.46209C5.91498 8.37624 5.81084 8.25423 5.74935 8.11147C5.68785 7.96872 5.67176 7.81163 5.70311 7.66009C5.73446 7.50854 5.81185 7.36933 5.92548 7.26007C6.03911 7.15081 6.18388 7.07641 6.34149 7.04626C6.4991 7.01612 6.66247 7.03159 6.81093 7.09072C6.9594 7.14985 7.08629 7.24998 7.17557 7.37846C7.26485 7.50694 7.3125 7.65798 7.3125 7.8125C7.3125 8.0197 7.2269 8.21841 7.07452 8.36493C6.92215 8.51144 6.71549 8.59375 6.5 8.59375ZM7.3125 10.1562C7.3125 10.3108 7.26485 10.4618 7.17557 10.5903C7.08629 10.7188 6.9594 10.8189 6.81093 10.878C6.66247 10.9372 6.4991 10.9526 6.34149 10.9225C6.18388 10.8923 6.03911 10.8179 5.92548 10.7087C5.81185 10.5994 5.73446 10.4602 5.70311 10.3087C5.67176 10.1571 5.68785 10 5.74935 9.85728C5.81084 9.71452 5.91498 9.59251 6.0486 9.50666C6.18221 9.42082 6.3393 9.375 6.5 9.375C6.71549 9.375 6.92215 9.45731 7.07452 9.60382C7.2269 9.75034 7.3125 9.94905 7.3125 10.1562ZM6.13072 1.17188H6.86928L6.5 5.25781L6.13072 1.17188ZM9.75 8.59375C9.5893 8.59375 9.43221 8.54793 9.2986 8.46209C9.16498 8.37624 9.06084 8.25423 8.99935 8.11147C8.93785 7.96872 8.92176 7.81163 8.95311 7.66009C8.98446 7.50854 9.06185 7.36933 9.17548 7.26007C9.28911 7.15081 9.43388 7.07641 9.59149 7.04626C9.7491 7.01612 9.91247 7.03159 10.0609 7.09072C10.2094 7.14985 10.3363 7.24998 10.4256 7.37846C10.5148 7.50694 10.5625 7.65798 10.5625 7.8125C10.5625 8.0197 10.4769 8.21841 10.3245 8.36493C10.1722 8.51144 9.96549 8.59375 9.75 8.59375ZM10.5625 10.1562C10.5625 10.3108 10.5148 10.4618 10.4256 10.5903C10.3363 10.7188 10.2094 10.8189 10.0609 10.878C9.91247 10.9372 9.7491 10.9526 9.59149 10.9225C9.43388 10.8923 9.28911 10.8179 9.17548 10.7087C9.06185 10.5994 8.98446 10.4602 8.95311 10.3087C8.92176 10.1571 8.93785 10 8.99935 9.85728C9.06084 9.71452 9.16498 9.59251 9.2986 9.50666C9.43221 9.42082 9.5893 9.375 9.75 9.375C9.96549 9.375 10.1722 9.45731 10.3245 9.60382C10.4769 9.75034 10.5625 9.94905 10.5625 10.1562ZM9.38072 1.17188H10.1193L9.75 5.25781L9.38072 1.17188ZM12.5938 1.17188H13.4062V23.8281H12.5938V1.17188ZM16.25 8.59375C16.0893 8.59375 15.9322 8.54793 15.7986 8.46209C15.665 8.37624 15.5608 8.25423 15.4993 8.11147C15.4379 7.96872 15.4218 7.81163 15.4531 7.66009C15.4845 7.50854 15.5618 7.36933 15.6755 7.26007C15.7891 7.15081 15.9339 7.07641 16.0915 7.04626C16.2491 7.01612 16.4125 7.03159 16.5609 7.09072C16.7094 7.14985 16.8363 7.24998 16.9256 7.37846C17.0148 7.50694 17.0625 7.65798 17.0625 7.8125C17.0625 8.0197 16.9769 8.21841 16.8245 8.36493C16.6722 8.51144 16.4655 8.59375 16.25 8.59375ZM17.0625 10.1562C17.0625 10.3108 17.0148 10.4618 16.9256 10.5903C16.8363 10.7188 16.7094 10.8189 16.5609 10.878C16.4125 10.9372 16.2491 10.9526 16.0915 10.9225C15.9339 10.8923 15.7891 10.8179 15.6755 10.7087C15.5618 10.5994 15.4845 10.4602 15.4531 10.3087C15.4218 10.1571 15.4379 10 15.4993 9.85728C15.5608 9.71452 15.665 9.59251 15.7986 9.50666C15.9322 9.42082 16.0893 9.375 16.25 9.375C16.4655 9.375 16.6722 9.45731 16.8245 9.60382C16.9769 9.75034 17.0625 9.94905 17.0625 10.1562ZM15.8807 1.17188H16.6193L16.25 5.25781L15.8807 1.17188ZM19.5 8.59375C19.3393 8.59375 19.1822 8.54793 19.0486 8.46209C18.915 8.37624 18.8108 8.25423 18.7493 8.11147C18.6879 7.96872 18.6718 7.81163 18.7031 7.66009C18.7345 7.50854 18.8118 7.36933 18.9255 7.26007C19.0391 7.15081 19.1839 7.07641 19.3415 7.04626C19.4991 7.01612 19.6625 7.03159 19.8109 7.09072C19.9594 7.14985 20.0863 7.24998 20.1756 7.37846C20.2648 7.50694 20.3125 7.65798 20.3125 7.8125C20.3125 8.0197 20.2269 8.21841 20.0745 8.36493C19.9222 8.51144 19.7155 8.59375 19.5 8.59375ZM20.3125 10.1562C20.3125 10.3108 20.2648 10.4618 20.1756 10.5903C20.0863 10.7188 19.9594 10.8189 19.8109 10.878C19.6625 10.9372 19.4991 10.9526 19.3415 10.9225C19.1839 10.8923 19.0391 10.8179 18.9255 10.7087C18.8118 10.5994 18.7345 10.4602 18.7031 10.3087C18.6718 10.1571 18.6879 10 18.7493 9.85728C18.8108 9.71452 18.915 9.59251 19.0486 9.50666C19.1822 9.42082 19.3393 9.375 19.5 9.375C19.7155 9.375 19.9222 9.45731 20.0745 9.60382C20.2269 9.75034 20.3125 9.94905 20.3125 10.1562ZM19.1307 1.17188H19.8693L19.5 5.25781L19.1307 1.17188ZM22.3438 9.375H24.7812V15.625H22.3438V9.375ZM3.65625 1.17188V8.59375H1.21875V1.17188H3.65625ZM1.21875 16.4062H3.65625V23.8281H1.21875V16.4062ZM22.3438 23.8281V16.4062H24.7812V23.8281H22.3438Z" fill="#0014B8"/>
</g>
<defs>
<clipPath id="clip0_816_1769">
<rect width="26" height="25" fill="white"/>
</clipPath>
</defs>
</svg>
