<svg width="26" height="26" viewBox="0 0 26 26" fill="none" xmlns="http://www.w3.org/2000/svg">
<g id="bowling 1" clip-path="url(#clip0_816_1815)">
<g id="Group">
<g id="Group_2">
<path id="Vector" d="M23.4609 17.7227C23.1806 17.7227 22.9531 17.9502 22.9531 18.2305C22.9531 18.5108 23.1806 18.7383 23.4609 18.7383C23.7413 18.7383 23.9688 18.5108 23.9688 18.2305C23.9688 17.9502 23.7413 17.7227 23.4609 17.7227Z" fill="#0014B8"/>
</g>
</g>
<g id="Group_3">
<g id="Group_4">
<path id="Vector_2" d="M18.2305 13.6602C17.9502 13.6602 17.7227 13.8877 17.7227 14.168C17.7227 14.4483 17.9502 14.6758 18.2305 14.6758C18.5108 14.6758 18.7383 14.4483 18.7383 14.168C18.7383 13.8877 18.5108 13.6602 18.2305 13.6602Z" fill="#0014B8"/>
</g>
</g>
<g id="Group_5">
<g id="Group_6">
<path id="Vector_3" d="M18.2305 15.6914C17.9502 15.6914 17.7227 15.9189 17.7227 16.1992C17.7227 16.4795 17.9502 16.707 18.2305 16.707C18.5108 16.707 18.7383 16.4795 18.7383 16.1992C18.7383 15.9189 18.5108 15.6914 18.2305 15.6914Z" fill="#0014B8"/>
</g>
</g>
<g id="Group_7">
<g id="Group_8">
<path id="Vector_4" d="M16.1992 14.6758C15.9189 14.6758 15.6914 14.9033 15.6914 15.1836C15.6914 15.4639 15.9189 15.6914 16.1992 15.6914C16.4795 15.6914 16.707 15.4639 16.707 15.1836C16.707 14.9032 16.4795 14.6758 16.1992 14.6758Z" fill="#0014B8"/>
</g>
</g>
<g id="Group_9">
<g id="Group_10">
<path id="Vector_5" d="M22.6207 12.6445C22.3841 11.9063 22.0416 11.1613 21.5992 10.4278L20.4452 8.14101C20.3586 7.94632 20.2969 7.74167 20.262 7.53306C20.2006 7.16347 20.2236 6.78068 20.3287 6.42602C20.3307 6.41927 20.3326 6.41246 20.3343 6.40566C20.3396 6.38631 20.3687 6.28186 20.5278 5.72397C20.7568 4.91873 21.1035 3.70282 21.1035 3.70277C21.107 3.69074 21.11 3.67855 21.1125 3.66631C21.2067 3.2105 21.1961 2.7424 21.0806 2.27424C20.8205 1.22596 19.9784 0.373902 18.9354 0.103339C17.9915 -0.141071 17.0186 0.0527103 16.2657 0.635376C15.5136 1.21743 15.0822 2.0961 15.0822 3.04612C15.0822 3.25432 15.1035 3.46298 15.1455 3.66636C15.1481 3.67855 15.151 3.69069 15.1544 3.70262L15.7323 5.73255C15.7328 5.73413 15.7332 5.73575 15.7337 5.73738L15.9217 6.39789L16.0075 6.81267C16.0394 7.05155 16.0354 7.29388 15.9955 7.53351C15.9611 7.74172 15.8997 7.94601 15.8129 8.14101L14.659 10.4278C14.4267 10.8128 14.2227 11.201 14.0463 11.5892L13.8438 11.1879C13.7572 10.9932 13.6955 10.7885 13.6606 10.5799C13.5992 10.2104 13.6223 9.82756 13.7273 9.4729C13.7294 9.46615 13.7312 9.4593 13.7329 9.45244C13.7382 9.43289 13.7675 9.32797 13.9264 8.77085C14.1554 7.96561 14.5021 6.7497 14.5021 6.74965C14.5056 6.73762 14.5086 6.72543 14.5111 6.71319C14.6053 6.25738 14.5947 5.78928 14.4792 5.32112C14.2191 4.27284 13.377 3.42078 12.334 3.15022C11.3902 2.90576 10.4172 3.09959 9.66431 3.68226C8.91219 4.26431 8.48085 5.14298 8.48085 6.093C8.48085 6.3012 8.50218 6.50986 8.54417 6.71324C8.54671 6.72543 8.54961 6.73757 8.55306 6.7495L9.13095 8.77944C9.13146 8.78101 9.13181 8.78263 9.13232 8.78426L9.32031 9.44472L9.40603 9.8595C9.43798 10.0984 9.43396 10.3407 9.3941 10.5803C9.35967 10.7886 9.29822 10.9929 9.21149 11.1879L9.00913 11.589C8.83266 11.2006 8.62832 10.8126 8.39645 10.4279L7.24244 8.14111C7.15581 7.94642 7.09416 7.74177 7.05922 7.53316C6.99783 7.16357 7.02088 6.78078 7.12595 6.42618C7.12793 6.41947 7.12976 6.41267 7.13149 6.40591C7.13667 6.38687 7.16561 6.28307 7.32506 5.72412C7.55404 4.91888 7.90077 3.70298 7.90077 3.70292C7.90423 3.69089 7.90722 3.6787 7.90976 3.66646C8.00396 3.21065 7.99335 2.74255 7.87787 2.27439C7.61772 1.22611 6.77566 0.374055 5.73261 0.103492C4.78879 -0.141071 3.81572 0.0527611 3.06283 0.635376C2.31076 1.21738 1.87937 2.0961 1.87937 3.04612C1.87937 3.25432 1.9007 3.46298 1.9427 3.66636C1.94524 3.67855 1.94813 3.69069 1.95159 3.70262L2.52948 5.73255C2.52999 5.73413 2.53034 5.73575 2.53085 5.73738L2.71889 6.39784L2.80461 6.81262C2.83655 7.0515 2.83254 7.29383 2.79268 7.53346C2.7584 7.74086 2.69731 7.94444 2.61108 8.13873L1.42762 10.4255C0.155348 12.5329 -0.269489 14.6571 0.164895 16.7391C0.449219 18.102 1.10252 19.4294 2.10642 20.6839L2.16294 20.7546C2.4532 21.1184 2.88698 21.327 3.353 21.327H6.4694C6.7133 21.327 6.9701 21.2443 7.19821 21.1228C7.55033 22.0171 8.06662 22.8921 8.73917 23.7325L8.79483 23.8014C9.0851 24.1652 9.51872 24.3738 9.98448 24.3738H13.0709C13.3803 24.3738 13.6752 24.2813 13.9236 24.1129C15.2619 25.3164 16.991 25.9988 18.7385 25.9988C20.6374 25.9988 22.4498 25.2322 23.8417 23.8404C25.2335 22.4486 26.0001 20.6362 26.0001 18.7372C26 16.3139 24.7113 14.0024 22.6207 12.6445ZM16.8873 1.43853C17.3899 1.0497 18.0436 0.921427 18.6805 1.08647C19.3575 1.26207 19.9259 1.83773 20.0948 2.51809C20.172 2.83126 20.181 3.14245 20.1215 3.44338C20.0836 3.57648 19.8541 4.38101 19.6559 5.07727H16.6017L16.1366 3.44353C16.1108 3.31308 16.0978 3.17947 16.0978 3.04607C16.0978 2.41272 16.3856 1.82681 16.8873 1.43853ZM19.3672 6.0929C19.3617 6.1126 19.3576 6.12768 19.3544 6.13946C19.262 6.45207 19.2146 6.77977 19.213 7.10853H17.0436C17.0425 6.95735 17.0321 6.80628 17.011 6.65617C17.0095 6.64535 17.0077 6.63463 17.0055 6.62392L16.9125 6.17405C16.91 6.16181 16.907 6.14967 16.9036 6.13764L16.8908 6.0929H19.3672ZM15.5379 10.9368C15.5447 10.9256 15.5511 10.9142 15.5569 10.9026L16.7249 8.58799C16.7282 8.58129 16.7315 8.57448 16.7346 8.56763C16.7996 8.42325 16.8544 8.27497 16.8993 8.12415H19.3588C19.4038 8.27523 19.4587 8.42346 19.5236 8.56763C19.5267 8.57453 19.5299 8.58134 19.5333 8.58799L20.7012 10.9026C20.7071 10.9142 20.7134 10.9256 20.7202 10.9368C20.9238 11.2732 21.1036 11.6114 21.26 11.9492C20.4515 11.6379 19.5973 11.4757 18.7384 11.4757C17.2996 11.4757 15.8755 11.9327 14.6653 12.7729C14.8754 12.165 15.1679 11.5481 15.5379 10.9368ZM10.2859 4.48541C10.7884 4.09653 11.4421 3.96826 12.0791 4.1333C12.7561 4.3089 13.3245 4.88456 13.4934 5.56492C13.5706 5.87809 13.5796 6.18928 13.5201 6.49021C13.4821 6.62331 13.2527 7.42784 13.0545 8.1241H10.0003L9.53522 6.49031C9.50942 6.35991 9.49637 6.2263 9.49637 6.0929C9.49642 5.45955 9.78415 4.87364 10.2859 4.48541ZM12.7658 9.13973C12.7603 9.15943 12.7561 9.17456 12.753 9.18629C12.6606 9.49896 12.6131 9.8266 12.6116 10.1554H10.4422C10.4411 10.0042 10.4306 9.8531 10.4096 9.703C10.4081 9.69218 10.4063 9.68146 10.404 9.67075L10.3111 9.22088C10.3086 9.20864 10.3056 9.1965 10.3022 9.18447L10.2894 9.13973H12.7658ZM3.6845 1.43858C4.18703 1.0497 4.84069 0.921427 5.47769 1.08647C6.15466 1.26207 6.72305 1.83773 6.892 2.51814C6.96919 2.83131 6.97813 3.1425 6.91866 3.44343C6.88068 3.57653 6.6513 4.38106 6.4531 5.07732H3.3989L2.9338 3.44353C2.908 3.31313 2.89495 3.17952 2.89495 3.04612C2.895 2.41272 3.18273 1.82681 3.6845 1.43858ZM6.16441 6.0929C6.15892 6.11265 6.15476 6.12778 6.15161 6.13957C6.05919 6.45218 6.01176 6.77982 6.01023 7.10853H3.8407C3.83964 6.95735 3.82917 6.80628 3.80815 6.65617C3.80663 6.64535 3.8048 6.63463 3.80257 6.62392L3.70964 6.17405C3.7071 6.16181 3.70415 6.14967 3.7007 6.13764L3.68795 6.0929H6.16441ZM6.87662 20.1277C6.74458 20.2304 6.56268 20.3113 6.46935 20.3113H3.353V20.3114C3.19766 20.3114 3.05329 20.2421 2.9564 20.1206L2.89942 20.0494C1.31215 18.0659 -0.0795159 14.8748 2.30507 10.9368C2.31097 10.9272 2.3165 10.9172 2.32168 10.9072L3.51956 8.59266C3.52383 8.58443 3.52784 8.57611 3.53165 8.56763C3.59665 8.42325 3.65149 8.27497 3.69633 8.12415H6.15588C6.20087 8.27523 6.25571 8.42346 6.32061 8.56763C6.32371 8.57453 6.32696 8.58134 6.33031 8.58799L7.49828 10.9026C7.50412 10.9142 7.51042 10.9255 7.51717 10.9367C7.89168 11.5558 8.18718 12.1808 8.39889 12.798L8.05748 13.4745C6.7131 15.7029 6.31711 17.9391 6.87662 20.1277ZM13.0709 23.3582H9.98443C9.8294 23.3582 9.68513 23.2889 9.58692 23.1658L9.53085 23.0963C8.7833 22.1622 8.25152 21.1869 7.94993 20.1972C7.33283 18.1747 7.66479 16.0842 8.93661 13.9836C8.94337 13.9724 8.94966 13.9611 8.95555 13.9494L10.1235 11.6348C10.1269 11.6281 10.1302 11.6213 10.1332 11.6145C10.1982 11.4701 10.2531 11.3218 10.2979 11.171H12.7575C12.8024 11.3221 12.8573 11.4703 12.9222 11.6145C12.9253 11.6213 12.9285 11.6281 12.9318 11.6348L13.8406 13.436C12.3336 14.8305 11.4769 16.7409 11.4769 18.7372C11.4769 20.4151 12.079 22.0312 13.1826 23.3458C13.1463 23.3539 13.1089 23.3582 13.0709 23.3582ZM18.7384 24.9832C17.1066 24.9832 15.489 24.2852 14.3004 23.0684C14.2991 23.067 14.2976 23.0655 14.2963 23.0641L14.2939 23.0617C13.1321 21.8699 12.4925 20.3342 12.4925 18.7372C12.4925 16.9123 13.332 15.1668 14.7957 13.9484C15.9248 13.0087 17.325 12.4912 18.7384 12.4912C19.8306 12.4912 20.9166 12.7979 21.8791 13.3781C21.8792 13.3782 21.8793 13.3782 21.8793 13.3783C23.7946 14.5314 24.9844 16.5849 24.9844 18.7373C24.9844 22.1228 22.1241 24.9832 18.7384 24.9832Z" fill="#0014B8"/>
</g>
</g>
<g id="Group_11">
<g id="Group_12">
<path id="Vector_6" d="M23.4194 19.5403C23.1503 19.4612 22.8681 19.6151 22.7889 19.8841C22.2739 21.6339 20.5325 22.9534 18.7383 22.9534C18.4579 22.9534 18.2305 23.1808 18.2305 23.4612C18.2305 23.7416 18.4579 23.969 18.7383 23.969C20.9657 23.969 23.1259 22.3362 23.7631 20.1708C23.8424 19.9017 23.6884 19.6194 23.4194 19.5403Z" fill="#0014B8"/>
</g>
</g>
</g>
<defs>
<clipPath id="clip0_816_1815">
<rect width="26" height="26" fill="white"/>
</clipPath>
</defs>
</svg>
