<svg width="26" height="26" viewBox="0 0 26 26" fill="none" xmlns="http://www.w3.org/2000/svg">
<g id="golf-ball 1">
<g id="Icon">
<path id="Vector" fill-rule="evenodd" clip-rule="evenodd" d="M6.67978 3.97091C10.1681 0.483656 15.8318 0.483656 19.3201 3.97091C22.8074 7.45924 22.8074 13.1229 19.3201 16.6112C15.8318 20.0985 10.1681 20.0985 6.67978 16.6112C3.19253 13.1229 3.19253 7.45924 6.67978 3.97091ZM7.82919 5.12032C4.97569 7.97382 4.97569 12.6083 7.82919 15.4618C10.6827 18.3153 15.3172 18.3153 18.1707 15.4618C21.0242 12.6083 21.0242 7.97382 18.1707 5.12032C15.3172 2.26682 10.6827 2.26682 7.82919 5.12032Z" fill="#0014B8"/>
<path id="Vector_2" fill-rule="evenodd" clip-rule="evenodd" d="M6.99128 18.3067C8.66503 19.5655 10.7461 20.3109 13.0005 20.3109C15.2549 20.3109 17.336 19.5655 19.0098 18.3067C19.3684 18.038 19.8786 18.1106 20.1484 18.4692C20.417 18.8267 20.3444 19.337 19.9859 19.6067C18.0391 21.0692 15.62 21.9359 13.0005 21.9359C10.381 21.9359 7.96194 21.0692 6.01519 19.6067C5.65661 19.337 5.58403 18.8267 5.85269 18.4692C6.12244 18.1106 6.63269 18.038 6.99128 18.3067Z" fill="#0014B8"/>
<path id="Vector_3" fill-rule="evenodd" clip-rule="evenodd" d="M13.8125 21.125V23.8333C13.8125 24.2818 13.4485 24.6458 13 24.6458C12.5515 24.6458 12.1875 24.2818 12.1875 23.8333V21.125C12.1875 20.6765 12.5515 20.3125 13 20.3125C13.4485 20.3125 13.8125 20.6765 13.8125 21.125Z" fill="#0014B8"/>
<path id="Vector_4" fill-rule="evenodd" clip-rule="evenodd" d="M10.3184 5.31228C10.001 5.6297 10.001 6.14428 10.3184 6.46062C10.6358 6.77803 11.1504 6.77803 11.4678 6.46062C11.7842 6.14428 11.7842 5.6297 11.4678 5.31228C11.1504 4.99486 10.6358 4.99486 10.3184 5.31228Z" fill="#0014B8"/>
<path id="Vector_5" fill-rule="evenodd" clip-rule="evenodd" d="M13.0001 5.69428C12.6826 6.0117 12.6826 6.52628 13.0001 6.8437C13.3175 7.16111 13.8321 7.16111 14.1495 6.8437C14.4658 6.52628 14.4658 6.0117 14.1495 5.69428C13.8321 5.37795 13.3175 5.37795 13.0001 5.69428Z" fill="#0014B8"/>
<path id="Vector_6" fill-rule="evenodd" clip-rule="evenodd" d="M8.02181 7.60916C7.70439 7.92657 7.70439 8.44116 8.02181 8.75857C8.33922 9.07491 8.85381 9.07491 9.17014 8.75857C9.48756 8.44116 9.48756 7.92657 9.17014 7.60916C8.85381 7.29174 8.33922 7.29174 8.02181 7.60916Z" fill="#0014B8"/>
<path id="Vector_7" fill-rule="evenodd" clip-rule="evenodd" d="M10.7015 7.99197C10.3841 8.3083 10.3841 8.82397 10.7015 9.1403C11.0178 9.45772 11.5335 9.45772 11.8498 9.1403C12.1672 8.82397 12.1672 8.3083 11.8498 7.99197C11.5335 7.67455 11.0178 7.67455 10.7015 7.99197Z" fill="#0014B8"/>
<path id="Vector_8" fill-rule="evenodd" clip-rule="evenodd" d="M8.40354 10.2928C8.0872 10.6102 8.0872 11.1247 8.40354 11.4422C8.72095 11.7585 9.23554 11.7585 9.55295 11.4422C9.87037 11.1247 9.87037 10.6102 9.55295 10.2928C9.23554 9.97533 8.72095 9.97533 8.40354 10.2928Z" fill="#0014B8"/>
</g>
</g>
</svg>
