<svg width="26" height="26" viewBox="0 0 26 26" fill="none" xmlns="http://www.w3.org/2000/svg">
<g id="joystick 2">
<path id="Vector" fill-rule="evenodd" clip-rule="evenodd" d="M5.95768 8.7737V10.2904H4.33268C3.75852 10.2904 3.20602 10.5179 2.79977 10.9241C2.39352 11.3304 2.16602 11.8829 2.16602 12.457V21.1237C2.16602 22.3208 3.1356 23.2904 4.33268 23.2904H21.666C22.8631 23.2904 23.8327 22.3208 23.8327 21.1237V12.457C23.8327 11.8829 23.6052 11.3304 23.1989 10.9241C22.7927 10.5179 22.2402 10.2904 21.666 10.2904H9.20768V8.7737C10.1773 8.21037 10.8327 7.15953 10.8327 5.95703C10.8327 4.16411 9.3756 2.70703 7.58268 2.70703C5.78977 2.70703 4.33268 4.16411 4.33268 5.95703C4.33268 7.15953 4.9881 8.21037 5.95768 8.7737ZM22.7493 20.2949C22.4298 20.4791 22.0614 20.5874 21.666 20.5874H4.33268C3.93727 20.5874 3.56893 20.4845 3.24935 20.2949V21.1291C3.24935 21.7249 3.73685 22.2124 4.33268 22.2124H21.666C22.2618 22.2124 22.7493 21.7249 22.7493 21.1291V20.2949ZM5.95768 11.3737H4.33268C4.0456 11.3737 3.76935 11.4874 3.56893 11.6933C3.3631 11.8937 3.24935 12.1699 3.24935 12.457V18.4154C3.24935 19.0112 3.73685 19.4987 4.33268 19.4987H21.666C22.2618 19.4987 22.7493 19.0112 22.7493 18.4154V12.457C22.7493 12.1699 22.6356 11.8937 22.4298 11.6933C22.2293 11.4874 21.9531 11.3737 21.666 11.3737H15.7077V11.8937C15.7077 12.3324 15.5343 12.7495 15.2256 13.0583C14.9168 13.367 14.4943 13.5404 14.061 13.5404H11.9431C11.5043 13.5404 11.0873 13.367 10.7785 13.0583C10.4698 12.7495 10.2964 12.327 10.2964 11.8937V11.3737H9.2131V13.822C10.226 14.2012 10.8381 14.9379 10.8381 15.707C10.8381 16.2162 10.5835 16.7037 10.1177 17.0883C9.54352 17.5541 8.6281 17.8737 7.5881 17.8737C6.5481 17.8737 5.63268 17.5541 5.05852 17.0883C4.59268 16.7037 4.3381 16.2216 4.3381 15.707C4.3381 14.9379 4.95018 14.2012 5.9631 13.822V11.3737H5.95768ZM19.4993 15.707C18.5677 15.707 17.8743 16.3624 17.8743 17.0612C17.8743 17.7599 18.5677 18.4154 19.4993 18.4154C20.431 18.4154 21.1243 17.7599 21.1243 17.0612C21.1243 16.3624 20.431 15.707 19.4993 15.707ZM19.4993 16.7904C19.6727 16.7904 19.8298 16.8337 19.9381 16.9204C19.9923 16.9583 20.041 17.0016 20.041 17.0612C20.041 17.1208 19.9923 17.1641 19.9381 17.202C19.8244 17.2887 19.6673 17.332 19.4993 17.332C19.3314 17.332 19.1689 17.2887 19.0606 17.202C19.0064 17.1641 18.9577 17.1208 18.9577 17.0612C18.9577 17.0016 19.0064 16.9583 19.0606 16.9204C19.1743 16.8337 19.3314 16.7904 19.4993 16.7904ZM15.7077 14.082C14.776 14.082 14.0827 14.7374 14.0827 15.4362C14.0827 16.1349 14.776 16.7904 15.7077 16.7904C16.6393 16.7904 17.3327 16.1349 17.3327 15.4362C17.3327 14.7374 16.6393 14.082 15.7077 14.082ZM6.00102 14.992C5.86018 15.0733 5.7356 15.1654 5.63268 15.2629C5.50268 15.3929 5.41602 15.5391 5.41602 15.707C5.41602 15.9129 5.55143 16.0916 5.74102 16.2487C6.1581 16.5899 6.82977 16.7904 7.58268 16.7904C8.3356 16.7904 9.01268 16.5845 9.42435 16.2487C9.61393 16.0916 9.74935 15.9129 9.74935 15.707C9.74935 15.5445 9.66268 15.3983 9.53268 15.2629C9.43518 15.1599 9.3106 15.0679 9.16435 14.992C8.99643 15.7124 8.35185 16.2487 7.58268 16.2487C7.14935 16.2487 6.73768 16.0754 6.43435 15.772C6.21768 15.5554 6.07143 15.2845 6.00102 14.992ZM15.7077 15.1654C15.881 15.1654 16.0381 15.2087 16.1464 15.2954C16.2006 15.3333 16.2493 15.3766 16.2493 15.4362C16.2493 15.4958 16.2006 15.5391 16.1464 15.577C16.0327 15.6637 15.8756 15.707 15.7077 15.707C15.5398 15.707 15.3773 15.6637 15.2689 15.577C15.2148 15.5391 15.166 15.4958 15.166 15.4362C15.166 15.3766 15.2148 15.3333 15.2689 15.2954C15.3827 15.2087 15.5398 15.1654 15.7077 15.1654ZM8.12435 9.1637C7.9456 9.1962 7.76685 9.20703 7.58268 9.20703C7.39852 9.20703 7.21977 9.19078 7.04102 9.1637V14.6237C7.04102 14.7699 7.1006 14.9054 7.1981 15.0083C7.30102 15.1112 7.43643 15.1654 7.58268 15.1654C7.8806 15.1654 8.12435 14.9216 8.12435 14.6237V9.1637ZM19.4993 12.457C18.5677 12.457 17.8743 13.1124 17.8743 13.8112C17.8743 14.5099 18.5677 15.1654 19.4993 15.1654C20.431 15.1654 21.1243 14.5099 21.1243 13.8112C21.1243 13.1124 20.431 12.457 19.4993 12.457ZM19.4993 13.5404C19.6727 13.5404 19.8298 13.5837 19.9381 13.6704C19.9923 13.7083 20.041 13.7516 20.041 13.8112C20.041 13.8708 19.9923 13.9141 19.9381 13.952C19.8244 14.0387 19.6673 14.082 19.4993 14.082C19.3314 14.082 19.1689 14.0387 19.0606 13.952C19.0064 13.9141 18.9577 13.8708 18.9577 13.8112C18.9577 13.7516 19.0064 13.7083 19.0606 13.6704C19.1743 13.5837 19.3314 13.5404 19.4993 13.5404ZM11.3743 11.3737V11.8937C11.3743 12.0454 11.4339 12.1862 11.5423 12.2945C11.6506 12.4029 11.7914 12.4624 11.9431 12.4624H14.061C14.2127 12.4624 14.3535 12.4029 14.4618 12.2945C14.5702 12.1862 14.6298 12.0454 14.6298 11.8937V11.3737H11.3798H11.3743ZM7.58268 3.79036C8.77977 3.79036 9.74935 4.75995 9.74935 5.95703C9.74935 7.15411 8.77977 8.1237 7.58268 8.1237C6.3856 8.1237 5.41602 7.15411 5.41602 5.95703C5.41602 4.75995 6.3856 3.79036 7.58268 3.79036ZM7.04102 5.98411V5.92995C7.05727 5.6537 7.27935 5.43161 7.5556 5.41536H7.60977C7.89685 5.39911 8.12435 5.16078 8.12435 4.8737C8.12435 4.58661 7.8806 4.33203 7.58268 4.33203C6.68352 4.33203 5.95768 5.05786 5.95768 5.95703C5.95768 6.25495 6.20143 6.4987 6.49935 6.4987C6.79727 6.4987 7.02477 6.2712 7.04102 5.98411Z" fill="#0014B8"/>
</g>
</svg>
