<svg width="27" height="27" viewBox="0 0 27 27" fill="none" xmlns="http://www.w3.org/2000/svg">
<g id="racing-car 1" clip-path="url(#clip0_816_1839)">
<path id="Vector" d="M0.900045 19.8079H1.80009V20.7079C1.80009 21.4537 2.40451 22.0581 3.15026 22.0581H6.75044C7.49598 22.0581 8.10061 21.4537 8.10061 20.7079V19.358H12.6954C13.627 19.3627 14.4071 18.6534 14.4909 17.7258C14.5144 17.3467 14.5902 16.9728 14.7159 16.6146L18.9011 15.9603V17.5579H18.4512C17.7055 17.5579 17.1011 18.1623 17.1011 18.9078V20.258C17.1011 21.0035 17.7055 21.608 18.4512 21.608H22.0514C22.7972 21.608 23.4016 21.0035 23.4016 20.258V18.9078C23.4016 18.1623 22.7972 17.5579 22.0514 17.5579H21.6015V15.5386L23.8515 15.1871V19.358C23.8515 19.855 24.2544 20.258 24.7515 20.258H25.6516C26.1487 20.258 26.5516 19.855 26.5516 19.358V14.6078C27.1495 13.9958 27.1495 13.0187 26.5516 12.4069V7.65717C26.5516 7.16007 26.1487 6.75712 25.6516 6.75712H24.7515C24.2544 6.75712 23.8515 7.16007 23.8515 7.65717V11.828L21.6015 11.4765V9.45726H22.0514C22.7972 9.45726 23.4016 8.85283 23.4016 8.10709V6.75712C23.4016 6.01138 22.7972 5.40695 22.0514 5.40695H18.4512C17.7055 5.40695 17.1011 6.01138 17.1011 6.75712V8.10709C17.1011 8.85283 17.7055 9.45726 18.4512 9.45726H18.9011V11.0548L14.7124 10.4024C14.5865 10.044 14.5109 9.66985 14.4872 9.2908C14.4042 8.36377 13.6259 7.65428 12.6954 7.65717H8.10061V6.307C8.10061 5.56146 7.49598 4.95703 6.75044 4.95703H3.15026C2.40451 4.95703 1.80009 5.56146 1.80009 6.307V7.20704H0.900045C0.40295 7.20704 0 7.6102 0 8.10709V18.9078C0 19.4049 0.40295 19.8079 0.900045 19.8079ZM7.20056 20.7079C7.20056 20.9566 6.99888 21.158 6.75044 21.158H3.15026C2.90161 21.158 2.70013 20.9566 2.70013 20.7079V19.8079H3.60018C4.09727 19.8079 4.50022 19.4049 4.50022 18.9078H6.75044C6.91195 18.9082 7.06089 18.9952 7.14062 19.1357C7.17976 19.203 7.20056 19.2799 7.20056 19.358V20.7079ZM4.50022 10.7038V9.00734H5.40027V10.3573L4.50022 10.7038ZM4.50022 18.0078V16.3113L5.40027 16.6601V18.0078H4.50022ZM7.74587 18.4579C7.49392 18.1722 7.13135 18.0084 6.75044 18.0078H6.30031V17.0089L10.0393 18.4579H7.74587ZM22.5015 18.9078V20.258C22.5015 20.5064 22.3001 20.7079 22.0514 20.7079H18.4512C18.2026 20.7079 18.0011 20.5064 18.0011 20.258V18.9078C18.0011 18.6594 18.2026 18.4579 18.4512 18.4579H22.0514C22.3001 18.4579 22.5015 18.6594 22.5015 18.9078ZM20.7014 17.5579H19.8012V15.8198L20.7014 15.6789V17.5579ZM24.7515 19.358V15.0462L25.6516 14.9057V19.358H24.7515ZM24.7515 7.65717H25.6516V12.1094L24.7515 11.9689V7.65717ZM18.0011 8.10709V6.75712C18.0011 6.50847 18.2026 6.307 18.4512 6.307H22.0514C22.3001 6.307 22.5015 6.50847 22.5015 6.75712V8.10709C22.5015 8.35574 22.3001 8.55721 22.0514 8.55721H18.4512C18.2026 8.55721 18.0011 8.35574 18.0011 8.10709ZM19.8012 9.45726H20.7014V11.336L19.8012 11.1953V9.45726ZM13.5909 9.37259C13.6187 9.93911 13.7563 10.4945 13.9959 11.0085C14.061 11.1389 14.1854 11.2295 14.3294 11.252L25.9095 13.0611C26.0121 13.0768 26.0986 13.2812 26.0986 13.5076C26.0986 13.734 26.0121 13.9381 25.9087 13.954L14.3294 15.7631C14.1854 15.7854 14.061 15.8762 13.9959 16.0066C13.7563 16.5204 13.6187 17.0758 13.5909 17.6419C13.5435 18.1021 13.1579 18.4534 12.6954 18.4579C12.5732 18.4577 12.4525 18.4328 12.3402 18.3846L4.50022 15.3456V11.6696L12.352 8.6256C12.4607 8.58008 12.5773 8.5568 12.6954 8.55721C13.1579 8.56154 13.5433 8.91257 13.5909 9.37259ZM10.0387 8.55721L6.30031 10.0063V9.00734H6.75044C7.13135 9.00672 7.49392 8.84294 7.74587 8.55721H10.0387ZM2.70013 6.307C2.70013 6.05855 2.90161 5.85708 3.15026 5.85708H6.75044C6.99888 5.85708 7.20056 6.05855 7.20056 6.307V7.65717C7.20056 7.90561 6.99888 8.10709 6.75044 8.10709H4.50022C4.50022 7.6102 4.09727 7.20704 3.60018 7.20704H2.70013V6.307ZM0.900045 8.10709H3.60018V18.9078H0.900045V8.10709Z" fill="#0014B8"/>
<path id="Vector_2" d="M9.9002 11.707C9.87919 11.7095 9.85839 11.7138 9.83799 11.7196C9.81657 11.7198 9.79535 11.7217 9.77413 11.725L5.88101 12.8605C5.59507 12.9464 5.39957 13.2099 5.40039 13.5086C5.40101 13.8071 5.59775 14.0697 5.8841 14.1542L9.77413 15.2893C9.81512 15.3012 9.85756 15.3072 9.9002 15.3072H12.1502C13.1444 15.3072 13.9505 14.5013 13.9505 13.5071C13.9505 12.5129 13.1444 11.707 12.1502 11.707H9.9002ZM9.45008 12.7568V14.2572L6.87911 13.5071L9.45008 12.7568ZM13.0503 13.5071C13.0503 14.0042 12.6473 14.4072 12.1502 14.4072H10.3501V12.6071H12.1502C12.6473 12.6071 13.0503 13.01 13.0503 13.5071Z" fill="#0014B8"/>
<path id="Vector_3" d="M2.25091 10.3578C2.49935 10.3578 2.70083 10.1563 2.70083 9.90786V9.45773C2.70083 9.20929 2.49935 9.00781 2.25091 9.00781C2.00226 9.00781 1.80078 9.20929 1.80078 9.45773V9.90786C1.80078 10.1563 2.00226 10.3578 2.25091 10.3578Z" fill="#0014B8"/>
<path id="Vector_4" d="M2.70083 13.9579V11.7079C2.70083 11.4593 2.49935 11.2578 2.25091 11.2578C2.00226 11.2578 1.80078 11.4593 1.80078 11.7079V13.9579C1.80078 14.2066 2.00226 14.4081 2.25091 14.4081C2.49935 14.4081 2.70083 14.2066 2.70083 13.9579Z" fill="#0014B8"/>
</g>
<defs>
<clipPath id="clip0_816_1839">
<rect width="27" height="27" fill="white"/>
</clipPath>
</defs>
</svg>
