<svg width="25" height="25" viewBox="0 0 25 25" fill="none" xmlns="http://www.w3.org/2000/svg">
<g id="skull 1" clip-path="url(#clip0_816_1794)">
<g id="Group">
<path id="Vector" d="M23.6055 15.4883V17.3679" stroke="#0014B8" stroke-width="1.5" stroke-miterlimit="10"/>
<g id="Group_2">
<path id="Vector_2" d="M6.81274 20.5375V18.513C6.81274 16.8425 5.45161 15.4883 3.77261 15.4883C2.09355 15.4883 0.732422 16.8426 0.732422 18.5131V20.4979C0.732422 22.5805 2.42935 24.2688 4.52266 24.2688H4.64541H6.81279H19.356C21.4228 24.2688 21.8482 22.6018 21.8482 20.5455V20.5375H6.81274Z" stroke="#0014B8" stroke-width="1.5" stroke-miterlimit="10"/>
<path id="Vector_3" d="M9.54492 15.4883V17.3679" stroke="#0014B8" stroke-width="1.5" stroke-miterlimit="10"/>
<path id="Vector_4" d="M11.3027 18.6914V20.571" stroke="#0014B8" stroke-width="1.5" stroke-miterlimit="10"/>
<path id="Vector_5" d="M14.8145 18.6914V20.571" stroke="#0014B8" stroke-width="1.5" stroke-miterlimit="10"/>
<path id="Vector_6" d="M18.332 18.6914V20.571" stroke="#0014B8" stroke-width="1.5" stroke-miterlimit="10"/>
<path id="Vector_7" d="M21.8477 18.6914V20.571" stroke="#0014B8" stroke-width="1.5" stroke-miterlimit="10"/>
<path id="Vector_8" d="M13.0605 15.4883V17.3679" stroke="#0014B8" stroke-width="1.5" stroke-miterlimit="10"/>
<path id="Vector_9" d="M16.5742 15.4883V17.3679" stroke="#0014B8" stroke-width="1.5" stroke-miterlimit="10"/>
<path id="Vector_10" d="M20.0898 15.4883V17.3679" stroke="#0014B8" stroke-width="1.5" stroke-miterlimit="10"/>
<path id="Vector_11" d="M7.51245 10.9116C9.32288 10.9116 10.7905 9.44398 10.7905 7.63354C10.7905 5.82311 9.32288 4.35547 7.51245 4.35547C5.70202 4.35547 4.23438 5.82311 4.23438 7.63354C4.23438 9.44398 5.70202 10.9116 7.51245 10.9116Z" stroke="#0014B8" stroke-width="1.5" stroke-miterlimit="10"/>
<path id="Vector_12" d="M5.74683 16.2137L7.3502 15.5108H15.0248H24.2676V13.1912C24.2676 7.31953 20.0224 3.93306 15.1612 1.52676H9.90581C9.01333 1.02251 7.98247 0.734375 6.88423 0.734375C3.48667 0.734375 0.732422 3.48862 0.732422 6.88613C0.732422 6.91997 0.733154 6.95356 0.733691 6.98726C0.733008 7.023 0.732422 7.05874 0.732422 7.09463V8.93882V18.5138" stroke="#0014B8" stroke-width="1.5" stroke-miterlimit="10"/>
<path id="Vector_13" d="M16.752 10.0781H19.9127" stroke="#0014B8" stroke-width="1.5" stroke-miterlimit="10"/>
</g>
</g>
</g>
<defs>
<clipPath id="clip0_816_1794">
<rect width="25" height="25" fill="white"/>
</clipPath>
</defs>
</svg>
