<svg width="28" height="28" viewBox="0 0 28 28" fill="none" xmlns="http://www.w3.org/2000/svg">
<g id="slot-machine (3) 1" clip-path="url(#clip0_816_1777)">
<g id="Group">
<path id="Vector" d="M24.1263 14.9216L23.2063 14.4674L22.2863 14.9216C22.2006 14.9639 22.1084 14.9848 22.0165 14.9847C21.8904 14.9847 21.765 14.9454 21.6588 14.8682C21.4752 14.7348 21.3815 14.5125 21.4141 14.2879L21.5618 13.2726L20.8455 12.538C20.6871 12.3755 20.6322 12.1405 20.7023 11.9247C20.7725 11.7089 20.9549 11.551 21.1787 11.5126L22.1899 11.3393L22.6673 10.4311C22.7729 10.2303 22.9794 10.1055 23.2063 10.1055C23.4332 10.1055 23.6398 10.2303 23.7453 10.4311L24.2227 11.3393L25.234 11.5126C25.4576 11.551 25.6401 11.7089 25.7102 11.9247C25.7804 12.1405 25.7255 12.3755 25.5671 12.538L24.8508 13.2726L24.9985 14.2879C25.0311 14.5125 24.9374 14.7348 24.7538 14.8682C24.5702 15.0016 24.3299 15.022 24.1263 14.9216ZM23.3934 10.8127L23.3932 10.8132C23.3932 10.8131 23.3933 10.8129 23.3934 10.8127ZM23.9813 12.1302C23.7957 12.0984 23.6327 11.9799 23.5451 11.8133L23.2063 11.1687L22.8676 11.8131C22.7801 11.9798 22.617 12.0983 22.4313 12.1302L21.7136 12.2532L22.2219 12.7745C22.3534 12.9094 22.4156 13.1011 22.3885 13.2874L22.2837 14.008L22.9368 13.6856C23.0211 13.6439 23.1137 13.6231 23.2063 13.6231C23.2989 13.6231 23.3914 13.644 23.4759 13.6856L24.1288 14.008L24.0241 13.2875C23.9969 13.1011 24.0592 12.9094 24.1906 12.7746L24.699 12.2532L23.9813 12.1302Z" fill="#0014B8"/>
<path id="Vector_2" d="M11.4955 11.9246C11.5656 11.7089 11.7481 11.551 11.9718 11.5126L12.983 11.3393L13.4603 10.4311H13.4603C13.5659 10.2303 13.7724 10.1055 13.9993 10.1055C14.2263 10.1055 14.4329 10.2303 14.5384 10.4311L15.0157 11.3393L16.0269 11.5126C16.2506 11.551 16.4331 11.7089 16.5032 11.9246C16.5733 12.1404 16.5185 12.3754 16.3601 12.538L15.6438 13.2726L15.7915 14.2879C15.8242 14.5124 15.7304 14.7348 15.5468 14.8682C15.4405 14.9454 15.3152 14.9848 15.1891 14.9848C15.0972 14.9848 15.0049 14.9639 14.9192 14.9216L13.9994 14.4674L13.0794 14.9216C12.876 15.0221 12.6354 15.0016 12.4519 14.8682C12.2683 14.7348 12.1746 14.5124 12.2072 14.2879L12.3549 13.2726L11.6386 12.538C11.4802 12.3754 11.4254 12.1404 11.4955 11.9246ZM13.0151 12.7747C13.1464 12.9094 13.2087 13.1011 13.1817 13.2874L13.0769 14.008L13.7298 13.6857C13.8987 13.6024 14.1002 13.6023 14.269 13.6857L14.9219 14.0081L14.8171 13.2874C14.7901 13.1011 14.8524 12.9095 14.9837 12.7747L15.4921 12.2533L14.7744 12.1303C14.5888 12.0985 14.4258 11.98 14.3382 11.8134L13.9994 11.1687L13.6606 11.8133C13.573 11.9799 13.41 12.0984 13.2244 12.1302L12.5066 12.2532L13.0151 12.7747Z" fill="#0014B8"/>
<path id="Vector_3" d="M2.94039 11.7509L3.95162 11.5776L4.42899 10.6694C4.53459 10.4685 4.74109 10.3438 4.96804 10.3438C5.19499 10.3438 5.40155 10.4685 5.50709 10.6694L5.98441 11.5776L6.99569 11.7509C7.21936 11.7893 7.40185 11.9471 7.47196 12.163C7.54207 12.3788 7.48722 12.6138 7.32879 12.7763L6.61255 13.5109L6.7602 14.5262C6.79285 14.7508 6.69906 14.9732 6.51548 15.1065C6.40922 15.1837 6.28393 15.2231 6.15782 15.2231C6.066 15.2231 5.97369 15.2022 5.88799 15.1599L4.96798 14.7057L4.04798 15.1599C3.84459 15.2603 3.60408 15.2399 3.42044 15.1065C3.23685 14.9732 3.14312 14.7508 3.17577 14.5262L3.32342 13.5109L2.60718 12.7763C2.44875 12.6138 2.39395 12.3788 2.46401 12.163C2.53423 11.9472 2.71672 11.7893 2.94039 11.7509ZM3.98366 13.0129C4.11502 13.1477 4.17731 13.3394 4.15024 13.5257L4.04541 14.2463L4.69832 13.924C4.78276 13.8823 4.87534 13.8614 4.96798 13.8614C5.06057 13.8614 5.15316 13.8823 5.23754 13.9239L5.89051 14.2463L5.78567 13.5255C5.7586 13.3393 5.82089 13.1476 5.95231 13.0128L6.46068 12.4914L5.74291 12.3684C5.55735 12.3366 5.39433 12.2182 5.30677 12.0515L4.96798 11.4069L4.6292 12.0515C4.54159 12.2182 4.37856 12.3366 4.19301 12.3684L3.47523 12.4914L3.98366 13.0129Z" fill="#0014B8"/>
<path id="Vector_4" d="M2.0688 7.3237H4.37656C4.85578 5.58562 5.7986 4.00876 7.11235 2.75625C7.27625 2.60001 7.53591 2.60613 7.69226 2.77009C7.84855 2.93404 7.84238 3.19364 7.67842 3.34999C6.52747 4.44724 5.68627 5.81503 5.22963 7.3237H6.40885C6.93396 5.8287 7.91254 4.49263 9.18791 3.53883C10.5856 2.49359 12.2495 1.94108 13.9996 1.94108C15.7537 1.94108 17.4206 2.49588 18.8201 3.5455C20.0915 4.49903 21.0667 5.83204 21.5908 7.32375H22.7697C22.2342 5.56084 21.1614 3.97523 19.7099 2.81695C18.073 1.51074 16.0984 0.820312 13.9996 0.820312C12.1418 0.820312 10.3531 1.37315 8.82686 2.41905C8.63999 2.54707 8.38471 2.49938 8.25669 2.31257C8.12861 2.1257 8.1763 1.87042 8.36316 1.7424C10.0265 0.602492 11.9755 0 13.9996 0C16.2863 0 18.4379 0.752391 20.2215 2.17574C21.8675 3.48917 23.0664 5.30764 23.6235 7.3237H25.9304C27.0511 7.3237 27.9629 8.23545 27.9629 9.35616V16.1561C27.9629 17.2768 27.0511 18.1886 25.9304 18.1886H24.4442V26.4236C24.4442 27.2928 23.737 27.9999 22.8678 27.9999H5.13141C4.2622 27.9999 3.55504 27.2928 3.55504 26.4236V18.1886H2.06885C0.948143 18.1886 0.0363922 17.2769 0.0363922 16.1562V9.35621C0.0363375 8.2355 0.948088 7.3237 2.0688 7.3237ZM18.3279 4.2017C17.0715 3.25943 15.5748 2.76134 13.9996 2.76134C12.4279 2.76134 10.934 3.25735 9.67916 4.19573C8.61112 4.99445 7.77484 6.09126 7.28434 7.32364H20.7152C20.2258 6.09427 19.3924 5.00008 18.3279 4.2017ZM18.3533 17.3573V8.14406H9.64586V17.3573H18.3533ZM27.1425 16.1562V9.35621C27.1425 8.68782 26.5988 8.14406 25.9303 8.14406H19.1736V17.3573L25.9303 17.3683C26.5988 17.3683 27.1425 16.8245 27.1425 16.1562ZM4.3753 26.4236C4.3753 26.8405 4.71447 27.1797 5.13135 27.1797H22.8678C23.2847 27.1797 23.6239 26.8405 23.6239 26.4236V18.1886H20.7989V21.1037C20.7989 21.731 20.2886 22.2414 19.6613 22.2414H17.7141C17.4876 22.2414 17.304 22.0577 17.304 21.8312C17.304 21.6047 17.4876 21.421 17.7141 21.421H19.6613C19.8363 21.421 19.9786 21.2787 19.9786 21.1037V18.1997H8.0206V21.1037C8.0206 21.2787 8.16301 21.421 8.33795 21.421H16.0734C16.3 21.421 16.4836 21.6047 16.4836 21.8312C16.4836 22.0577 16.3 22.2414 16.0734 22.2414H8.33795C7.71063 22.2414 7.20029 21.731 7.20029 21.1037V18.1886H4.37535V26.4236H4.3753ZM0.85665 16.1562C0.85665 16.8246 1.40041 17.3683 2.0688 17.3683L8.82555 17.3573V8.14406H2.0688C1.40041 8.14406 0.85665 8.68782 0.85665 9.35621V16.1562Z" fill="#0014B8"/>
<path id="Vector_5" d="M19.0187 22.9414C19.9648 22.9414 20.7344 23.711 20.7344 24.6571C20.7344 25.603 19.9648 26.3727 19.0187 26.3727C18.0727 26.3727 17.3031 25.6031 17.3031 24.6571C17.3031 23.711 18.0727 22.9414 19.0187 22.9414ZM19.0187 25.5524C19.5124 25.5524 19.9141 25.1507 19.9141 24.657C19.9141 24.1633 19.5124 23.7617 19.0187 23.7617C18.525 23.7617 18.1234 24.1633 18.1234 24.657C18.1234 25.1507 18.525 25.5524 19.0187 25.5524Z" fill="#0014B8"/>
<path id="Vector_6" d="M13.9992 22.9414C14.9452 22.9414 15.7148 23.711 15.7148 24.6571C15.7148 25.603 14.9452 26.3727 13.9992 26.3727C13.0532 26.3727 12.2835 25.6031 12.2835 24.6571C12.2835 23.711 13.0531 22.9414 13.9992 22.9414ZM13.9992 25.5524C14.4929 25.5524 14.8945 25.1507 14.8945 24.657C14.8945 24.1633 14.4929 23.7617 13.9992 23.7617C13.5055 23.7617 13.1038 24.1633 13.1038 24.657C13.1038 25.1507 13.5055 25.5524 13.9992 25.5524Z" fill="#0014B8"/>
<path id="Vector_7" d="M8.97966 22.9414C9.92569 22.9414 10.6953 23.711 10.6953 24.6571C10.6953 25.603 9.92569 26.3727 8.97966 26.3727C8.03362 26.3727 7.264 25.6031 7.264 24.6571C7.264 23.711 8.03362 22.9414 8.97966 22.9414ZM8.97966 25.5524C9.47337 25.5524 9.875 25.1507 9.875 24.657C9.875 24.1633 9.47337 23.7617 8.97966 23.7617C8.48594 23.7617 8.08431 24.1633 8.08431 24.657C8.08431 25.1507 8.48594 25.5524 8.97966 25.5524Z" fill="#0014B8"/>
<path id="Vector_8" d="M15.3047 4.67578H12.6937C12.4672 4.67578 12.2835 4.49214 12.2835 4.26562C12.2835 4.03911 12.4672 3.85547 12.6937 3.85547H15.3047C15.5312 3.85547 15.7148 4.03911 15.7148 4.26562C15.7148 4.49214 15.5312 4.67578 15.3047 4.67578Z" fill="#0014B8"/>
<path id="Vector_9" d="M11.0982 5.51562H16.9023C17.1289 5.51562 17.3125 5.69927 17.3125 5.92578C17.3125 6.1523 17.1289 6.33594 16.9023 6.33594H11.0983C10.8718 6.33594 10.6881 6.1523 10.6881 5.92578C10.6881 5.69927 10.8717 5.51562 11.0982 5.51562Z" fill="#0014B8"/>
</g>
</g>
<defs>
<clipPath id="clip0_816_1777">
<rect width="28" height="28" fill="white" transform="matrix(-1 0 0 1 28 0)"/>
</clipPath>
</defs>
</svg>
