<svg width="28" height="28" viewBox="0 0 28 28" fill="none" xmlns="http://www.w3.org/2000/svg">
<g id="slot-machine (2) 1">
<g id="Group">
<path id="Vector" d="M21.4351 26.7421H3.85143C3.24921 26.7421 2.75977 26.2526 2.75977 25.6504V18.3905C2.75977 18.149 2.95569 17.9531 3.19715 17.9531H22.0887C22.3301 17.9531 22.526 18.149 22.526 18.3905V25.6504C22.5268 26.2526 22.0373 26.7421 21.4351 26.7421ZM3.63526 18.8279V25.6504C3.63526 25.7697 3.73214 25.8673 3.85215 25.8673H21.4358C21.5551 25.8673 21.6527 25.7704 21.6527 25.6504V18.8279H3.63526Z" fill="#0014B8"/>
</g>
<g id="Group_2">
<path id="Vector_2" d="M22.0887 18.829H3.19715C2.95569 18.829 2.75977 18.633 2.75977 18.3916V16.0116C2.75977 15.7701 2.95569 15.5742 3.19715 15.5742H22.0887C22.3301 15.5742 22.526 15.7701 22.526 16.0116V18.3916C22.526 18.633 22.3301 18.829 22.0887 18.829ZM21.6513 17.9535V16.449H3.63454V17.9535H21.6513Z" fill="#0014B8"/>
</g>
<g id="Group_3">
<path id="Vector_3" d="M21.0259 16.4463C20.7844 16.4463 20.5885 16.2504 20.5885 16.0089V2.51931H4.69509V16.0089C4.69509 16.2504 4.49917 16.4463 4.2577 16.4463C4.01623 16.4463 3.82031 16.2504 3.82031 16.0089V2.08192C3.82031 1.84045 4.01623 1.64453 4.2577 1.64453H21.0259C21.2674 1.64453 21.4633 1.84045 21.4633 2.08192V16.0089C21.4633 16.2504 21.2674 16.4463 21.0259 16.4463Z" fill="#0014B8"/>
</g>
<g id="Group_4">
<path id="Vector_4" d="M18.7841 12.5332H6.50184C6.26037 12.5332 6.06445 12.3373 6.06445 12.0958V5.99989C6.06445 5.75842 6.26037 5.5625 6.50184 5.5625H18.7841C19.0256 5.5625 19.2215 5.75842 19.2215 5.99989V12.0958C19.2215 12.3373 19.0256 12.5332 18.7841 12.5332ZM6.93923 11.6584H18.3467V6.43727H6.93923V11.6584Z" fill="#0014B8"/>
</g>
<g id="Group_5">
<path id="Vector_5" d="M20.2532 23.3098H14.6503C14.4088 23.3098 14.2129 23.1139 14.2129 22.8724V20.1679C14.2129 19.9264 14.4088 19.7305 14.6503 19.7305H20.2532C20.4946 19.7305 20.6906 19.9264 20.6906 20.1679V22.8724C20.6906 23.1139 20.4946 23.3098 20.2532 23.3098ZM19.8151 22.435V20.6052H15.0869V22.435H19.8151Z" fill="#0014B8"/>
</g>
<g id="Group_6">
<path id="Vector_6" d="M9.84579 23.3124H5.03309C4.79162 23.3124 4.5957 23.1165 4.5957 22.875V18.3905C4.5957 18.149 4.79162 17.9531 5.03309 17.9531C5.27456 17.9531 5.47048 18.149 5.47048 18.3905V22.4376H9.40841V18.3905C9.40841 18.149 9.60433 17.9531 9.84579 17.9531C10.0873 17.9531 10.2832 18.149 10.2832 18.3905V22.875C10.2832 23.1165 10.0873 23.3124 9.84579 23.3124Z" fill="#0014B8"/>
</g>
<g id="Group_7">
<path id="Vector_7" d="M6.49012 21.8302C6.24865 21.8302 6.05273 21.6343 6.05273 21.3928V19.871C6.05273 19.6295 6.24865 19.4336 6.49012 19.4336C6.73159 19.4336 6.92751 19.6295 6.92751 19.871V21.3928C6.92751 21.6343 6.73159 21.8302 6.49012 21.8302Z" fill="#0014B8"/>
</g>
<g id="Group_8">
<path id="Vector_8" d="M8.38856 21.8302C8.14709 21.8302 7.95117 21.6343 7.95117 21.3928V19.871C7.95117 19.6295 8.14709 19.4336 8.38856 19.4336C8.63003 19.4336 8.82595 19.6295 8.82595 19.871V21.3928C8.82595 21.6343 8.63075 21.8302 8.38856 21.8302Z" fill="#0014B8"/>
</g>
<g id="Group_9">
<path id="Vector_9" d="M10.5702 12.5332C10.3287 12.5332 10.1328 12.3373 10.1328 12.0958V5.99989C10.1328 5.75842 10.3287 5.5625 10.5702 5.5625C10.8117 5.5625 11.0076 5.75842 11.0076 5.99989V12.0958C11.0076 12.3373 10.8117 12.5332 10.5702 12.5332Z" fill="#0014B8"/>
</g>
<g id="Group_10">
<path id="Vector_10" d="M14.7147 12.5332C14.4733 12.5332 14.2773 12.3373 14.2773 12.0958V5.99989C14.2773 5.75842 14.4733 5.5625 14.7147 5.5625C14.9562 5.5625 15.1521 5.75842 15.1521 5.99989V12.0958C15.1521 12.3373 14.9562 12.5332 14.7147 12.5332Z" fill="#0014B8"/>
</g>
<g id="Group_11">
<path id="Vector_11" d="M23.58 11.3496H21.0272C20.7858 11.3496 20.5898 11.1537 20.5898 10.9122C20.5898 10.6707 20.7858 10.4748 21.0272 10.4748H23.1426V7.61696H21.0272C20.7858 7.61696 20.5898 7.42104 20.5898 7.17957C20.5898 6.93811 20.7858 6.74219 21.0272 6.74219H23.58C23.8214 6.74219 24.0174 6.93811 24.0174 7.17957V10.9122C24.0181 11.1537 23.8222 11.3496 23.58 11.3496Z" fill="#0014B8"/>
</g>
<g id="Group_12">
<path id="Vector_12" d="M23.58 7.62038C23.3385 7.62038 23.1426 7.42446 23.1426 7.18299V4.14442C23.1426 3.90295 23.3385 3.70703 23.58 3.70703C23.8214 3.70703 24.0174 3.90295 24.0174 4.14442V7.18227C24.0181 7.42446 23.8222 7.62038 23.58 7.62038Z" fill="#0014B8"/>
</g>
<g id="Group_13">
<path id="Vector_13" d="M23.5793 4.58051C22.6633 4.58051 21.918 3.83514 21.918 2.91916C21.918 2.00318 22.6633 1.25781 23.5793 1.25781C24.4953 1.25781 25.2407 2.00318 25.2407 2.91916C25.2407 3.83514 24.496 4.58051 23.5793 4.58051ZM23.5793 2.13259C23.1455 2.13259 22.7927 2.48539 22.7927 2.91916C22.7927 3.35293 23.1455 3.70573 23.5793 3.70573C24.0131 3.70573 24.3659 3.35293 24.3659 2.91916C24.3659 2.48539 24.0131 2.13259 23.5793 2.13259Z" fill="#0014B8"/>
</g>
<g id="Group_14">
<path id="Vector_14" d="M21.0259 14.6677H4.2577C4.01623 14.6677 3.82031 14.4718 3.82031 14.2304C3.82031 13.9889 4.01623 13.793 4.2577 13.793H21.0259C21.2674 13.793 21.4633 13.9889 21.4633 14.2304C21.4633 14.4718 21.2674 14.6677 21.0259 14.6677Z" fill="#0014B8"/>
</g>
<g id="Group_15">
<path id="Vector_15" d="M21.0259 4.30056H4.2577C4.01623 4.30056 3.82031 4.10463 3.82031 3.86317C3.82031 3.6217 4.01623 3.42578 4.2577 3.42578H21.0259C21.2674 3.42578 21.4633 3.6217 21.4633 3.86317C21.4633 4.10463 21.2674 4.30056 21.0259 4.30056Z" fill="#0014B8"/>
</g>
</g>
</svg>
