<svg width="120" height="120" viewBox="0 0 120 120" fill="none" xmlns="http://www.w3.org/2000/svg">
<g filter="url(#filter0_d_128_16)">
<circle cx="60" cy="60.0002" r="40" fill="white"/>
</g>
<path d="M79.8096 57.5716L75.6851 53.4143L79.1933 49.2889C79.2576 49.2134 79.304 49.124 79.3289 49.0277C79.3538 48.9313 79.3566 48.8305 79.3371 48.7329C79.3176 48.6353 79.2762 48.5435 79.2162 48.4644C79.1562 48.3853 79.0791 48.321 78.9908 48.2765L64.6907 41.0696C64.5611 41.0041 64.4135 40.9843 64.2714 41.0132C64.1293 41.0421 64.001 41.1182 63.9068 41.2292L60.5 45.2354L57.0932 41.2292C56.9989 41.1183 56.8705 41.0423 56.7285 41.0134C56.5864 40.9845 56.4388 41.0043 56.3092 41.0696L42.0092 48.2765C41.9208 48.321 41.8437 48.3853 41.7837 48.4644C41.7237 48.5435 41.6823 48.6353 41.6628 48.7329C41.6433 48.8305 41.6461 48.9313 41.671 49.0277C41.696 49.124 41.7424 49.2134 41.8067 49.2889L45.3149 53.4143L41.1903 57.5716C41.1175 57.645 41.0631 57.7348 41.0314 57.8336C40.9998 57.9324 40.9919 58.0374 41.0084 58.1398C41.0249 58.2423 41.0653 58.3394 41.1263 58.423C41.1874 58.5066 41.2672 58.5744 41.3593 58.6209L45.5499 60.7329V71.1381C45.5499 71.2598 45.5835 71.3791 45.647 71.4826C45.7104 71.5861 45.8012 71.6697 45.9092 71.7242L60.2092 78.931C60.2995 78.9765 60.399 79.0002 60.5 79.0002C60.6009 79.0002 60.7005 78.9765 60.7907 78.931L75.0908 71.7242C75.1987 71.6697 75.2895 71.5861 75.353 71.4826C75.4164 71.3791 75.45 71.2598 75.45 71.1381V60.7329L79.6408 58.6209C79.7329 58.5744 79.8127 58.5066 79.8737 58.4229C79.9347 58.3393 79.9751 58.2423 79.9916 58.1398C80.0081 58.0373 80.0002 57.9324 79.9685 57.8336C79.9369 57.7348 79.8824 57.645 79.8096 57.5716ZM60.5 59.9229L47.6535 53.4487L60.5 46.9744L73.3464 53.4487L60.5 59.9229ZM64.5631 42.4705L77.6647 49.0733L74.6369 52.6338L61.5353 46.031L64.5631 42.4705ZM56.4368 42.4705L59.4646 46.031L46.3631 52.6338L43.3352 49.0733L56.4368 42.4705ZM46.3282 54.2459L59.4024 60.8349L55.8217 64.4444L42.7474 57.8554L46.3282 54.2459ZM46.8499 61.3881L55.6592 65.8277C55.7816 65.8875 55.9193 65.9077 56.0536 65.8857C56.1879 65.8638 56.3121 65.8006 56.4095 65.7048L59.85 62.2371V77.2848L46.8499 70.7331V61.3881ZM74.15 70.7331L61.15 77.2848V62.2371L64.5904 65.7048C64.6893 65.7981 64.8134 65.8596 64.947 65.8814C65.0806 65.9033 65.2177 65.8846 65.3407 65.8277L74.15 61.3881V70.7331ZM65.1782 64.4444L61.5975 60.8349L74.6718 54.2459L78.2525 57.8554L65.1782 64.4444Z" fill="#3287F2"/>
<defs>
<filter id="filter0_d_128_16" x="0" y="0.000244141" width="120" height="120" filterUnits="userSpaceOnUse" color-interpolation-filters="sRGB">
<feFlood flood-opacity="0" result="BackgroundImageFix"/>
<feColorMatrix in="SourceAlpha" type="matrix" values="0 0 0 0 0 0 0 0 0 0 0 0 0 0 0 0 0 0 127 0" result="hardAlpha"/>
<feOffset/>
<feGaussianBlur stdDeviation="10"/>
<feComposite in2="hardAlpha" operator="out"/>
<feColorMatrix type="matrix" values="0 0 0 0 0.0941176 0 0 0 0 0.337255 0 0 0 0 0.643137 0 0 0 0.1 0"/>
<feBlend mode="normal" in2="BackgroundImageFix" result="effect1_dropShadow_128_16"/>
<feBlend mode="normal" in="SourceGraphic" in2="effect1_dropShadow_128_16" result="shape"/>
</filter>
</defs>
</svg>
