<svg width="120" height="120" viewBox="0 0 120 120" fill="none" xmlns="http://www.w3.org/2000/svg">
<g filter="url(#filter0_d_128_17)">
<circle cx="60" cy="60.0002" r="40" fill="white"/>
</g>
<path d="M74.1497 49.3477H71.0143C71.5846 48.3476 71.1986 45.59 70.6793 44.0563C68.9778 39.1223 62.2721 44.4873 61.1104 45.503C60.6089 45.1062 59.3707 45.2944 58.7757 45.2524C58.4628 45.2538 58.1564 45.3403 57.8903 45.5025C56.7389 44.4941 50.0242 39.1238 48.3234 44.0504C47.804 45.585 47.4142 48.3461 47.987 49.3477H44.8502C44.3597 49.3483 43.8894 49.5406 43.5425 49.8825C43.1956 50.2245 43.0005 50.6881 43 51.1717V57.6004C43 57.7617 43.065 57.9163 43.1807 58.0303C43.2963 58.1444 43.4532 58.2084 43.6167 58.2084H44.8256V74.1762C44.8261 74.6598 45.0212 75.1234 45.3681 75.4653C45.7149 75.8073 46.1852 75.9996 46.6758 76.0001C49.9612 76.0004 72.3242 76.0001 72.3242 76.0001C72.8148 75.9996 73.2851 75.8073 73.6319 75.4653C73.9788 75.1234 74.1739 74.6598 74.1744 74.1762V58.2084H75.3833C75.5468 58.2084 75.7037 58.1444 75.8194 58.0303C75.935 57.9163 76 57.7617 76 57.6004V51.1717C75.9995 50.6881 75.8044 50.2245 75.4575 49.8825C75.1106 49.5406 74.6403 49.3483 74.1497 49.3477ZM62.7349 49.3477C64.3244 47.9068 68.1613 47.0701 70.0198 46.8104C70.1462 47.8487 70.1293 49.1363 69.3365 49.3477H62.7349ZM62.1181 56.9924C62.0724 56.9877 56.9269 56.9959 56.8818 56.9924V50.5637C56.8818 50.5637 61.6184 50.5646 62.1181 50.5637L62.1181 56.9924ZM67.3951 43.2376C69.0466 42.8304 69.5965 44.3047 69.8049 45.6147C68.2109 45.8434 64.2028 46.5763 61.9402 48.381C61.9758 47.7434 61.9501 47.1039 61.8634 46.4711C63.4722 45.0431 65.3524 43.944 67.3951 43.2376ZM58.7757 46.4684H60.2242C60.3522 46.4686 60.4748 46.5188 60.5653 46.608C60.6557 46.6972 60.7066 46.8182 60.7067 46.9443V49.3478H58.2933V46.9443C58.2934 46.8182 58.3443 46.6972 58.4347 46.608C58.5252 46.5188 58.6478 46.4686 58.7757 46.4684ZM49.508 44.3882C49.6323 43.9618 49.9229 43.6013 50.3162 43.3857C50.7095 43.17 51.1734 43.1168 51.6064 43.2376C53.6486 43.944 55.5284 45.0428 57.1369 46.4703C57.0549 47.1034 57.0291 47.7424 57.0598 48.38C54.7968 46.5761 50.7899 45.8434 49.1962 45.6147C49.2845 45.2116 49.3848 44.8006 49.508 44.3882ZM48.9813 46.8101C50.911 47.0795 54.4815 47.8616 56.3116 49.3477H49.6644C48.8716 49.1363 48.855 47.8484 48.9813 46.8101ZM44.2335 51.1717C44.2337 51.0105 44.2988 50.856 44.4144 50.742C44.53 50.6281 44.6867 50.5639 44.8502 50.5637H55.6484V56.9924C54.9086 56.991 44.6766 56.9935 44.2334 56.9924L44.2335 51.1717ZM46.059 74.1762V58.2084H56.4717V74.7842H46.6758C46.5123 74.784 46.3555 74.7198 46.2399 74.6059C46.1243 74.4919 46.0592 74.3374 46.059 74.1762ZM57.7052 74.7842V58.2084H61.2948V74.7842H57.7052ZM72.941 74.1762C72.9407 74.3374 72.8757 74.4919 72.7601 74.6059C72.6445 74.7198 72.4877 74.784 72.3242 74.7842H62.5283V58.2084H72.941V74.1762ZM74.7665 56.9924C74.3734 56.9948 64.0414 56.9908 63.3517 56.9924L63.3517 50.5637H74.1498C74.3133 50.5639 74.47 50.6281 74.5856 50.742C74.7013 50.856 74.7663 51.0105 74.7665 51.1717V56.9924Z" fill="#3287F2"/>
<defs>
<filter id="filter0_d_128_17" x="0" y="0.000244141" width="120" height="120" filterUnits="userSpaceOnUse" color-interpolation-filters="sRGB">
<feFlood flood-opacity="0" result="BackgroundImageFix"/>
<feColorMatrix in="SourceAlpha" type="matrix" values="0 0 0 0 0 0 0 0 0 0 0 0 0 0 0 0 0 0 127 0" result="hardAlpha"/>
<feOffset/>
<feGaussianBlur stdDeviation="10"/>
<feComposite in2="hardAlpha" operator="out"/>
<feColorMatrix type="matrix" values="0 0 0 0 0.0941176 0 0 0 0 0.337255 0 0 0 0 0.643137 0 0 0 0.1 0"/>
<feBlend mode="normal" in2="BackgroundImageFix" result="effect1_dropShadow_128_17"/>
<feBlend mode="normal" in="SourceGraphic" in2="effect1_dropShadow_128_17" result="shape"/>
</filter>
</defs>
</svg>
