<svg width="120" height="120" viewBox="0 0 120 120" fill="none" xmlns="http://www.w3.org/2000/svg">
<g filter="url(#filter0_d_128_18)">
<circle cx="60" cy="60.0002" r="40" fill="white"/>
</g>
<path d="M77.5777 62.4919C77.5829 61.851 77.3382 61.2462 76.8894 60.7903L62.3833 46.0046C61.9335 45.5482 61.3338 45.2937 60.6932 45.2884C60.0543 45.2832 59.4487 45.528 58.9921 45.9776L46.5496 58.2305C45.6077 59.1586 45.5949 60.6806 46.5221 61.6235L61.0282 76.4091C61.478 76.8655 62.0778 77.12 62.7183 77.1253C62.7252 77.1253 62.731 77.1253 62.7379 77.1253C63.3709 77.1253 63.9676 76.8809 64.4195 76.4362L68.206 72.7076L68.3194 72.8231C68.5848 73.0929 68.9393 73.2429 69.3176 73.2461C69.3213 73.2461 69.3255 73.2461 69.3286 73.2461C69.7027 73.2461 70.055 73.1019 70.3215 72.8391L73.4728 69.7354C73.7425 69.4703 73.8924 69.1157 73.8956 68.7372C73.8988 68.3587 73.7542 68.0014 73.4887 67.7321L73.3748 67.6166L76.8615 64.1827C77.318 63.7333 77.5724 63.1327 77.5777 62.4919ZM72.7305 68.9795L69.5792 72.0832C69.5119 72.1494 69.4229 72.1855 69.3285 72.1855H69.3258C69.2304 72.1849 69.1415 72.1473 69.0747 72.0789L62.0103 64.8978C61.9436 64.83 61.907 64.7404 61.9081 64.645C61.9086 64.5496 61.9462 64.4605 62.014 64.3937L65.1658 61.2901C65.2326 61.2238 65.3216 61.1878 65.416 61.1878H65.4186C65.514 61.1883 65.6036 61.2265 65.6703 61.2943L72.2484 67.9808L72.2494 67.9824L72.2509 67.9834L72.7352 68.4758C72.802 68.5436 72.838 68.6333 72.8369 68.7286C72.8359 68.8237 72.7982 68.9127 72.7305 68.9795ZM76.119 63.4258L72.6324 66.8597L66.4252 60.5501C66.1597 60.2803 65.8048 60.1303 65.4265 60.1271C65.4228 60.1271 65.4191 60.1271 65.4154 60.1271C65.0414 60.1271 64.689 60.2713 64.4226 60.5342L61.2713 63.6378C61.0016 63.9029 60.8517 64.2575 60.8485 64.636C60.8452 65.0145 60.9899 65.3718 61.2553 65.6411L67.4636 71.9512L63.6775 75.6798C63.4227 75.9305 63.065 76.0641 62.7276 76.0646C62.37 76.0619 62.0351 75.9199 61.7851 75.6655L47.2791 60.8799C46.7599 60.354 46.7668 59.5043 47.2924 58.9864L59.7355 46.7319C59.9903 46.4811 60.3055 46.3497 60.6854 46.3471C61.043 46.3498 61.3778 46.4918 61.6278 46.7462L76.1339 61.5318C76.3851 61.7868 76.5213 62.1239 76.5186 62.4817C76.5159 62.8395 76.3744 63.1745 76.119 63.4258Z" fill="#3287F2"/>
<path d="M62.7049 49.6081L61.8063 48.6942C61.6002 48.4854 61.2654 48.4827 61.0572 48.6884C60.8485 48.8942 60.8458 49.2296 61.0509 49.4385L61.9495 50.3524C62.0533 50.4579 62.1899 50.5104 62.3273 50.5104C62.4613 50.5104 62.5959 50.4595 62.6986 50.3583C62.9073 50.1525 62.91 49.8169 62.7049 49.6081Z" fill="#3287F2"/>
<path d="M65.0828 52.0248L64.1843 51.1109C63.9781 50.9021 63.6433 50.8994 63.4351 51.1051C63.2264 51.3108 63.2237 51.6464 63.4288 51.8552L64.3274 52.7691C64.4312 52.8746 64.5678 52.927 64.7052 52.927C64.8392 52.927 64.9738 52.8761 65.0765 52.775C65.2852 52.5691 65.2877 52.2336 65.0828 52.0248Z" fill="#3287F2"/>
<path d="M67.4599 54.4414L66.5614 53.528C66.3553 53.3197 66.0205 53.3165 65.8123 53.5222C65.6036 53.7273 65.6014 54.0634 65.806 54.2718L66.7045 55.1857C66.8083 55.2912 66.945 55.3437 67.0822 55.3437C67.2163 55.3437 67.3509 55.2928 67.4536 55.191C67.6623 54.9858 67.6644 54.6497 67.4599 54.4414Z" fill="#3287F2"/>
<path d="M69.8372 56.8575L68.9387 55.9442C68.7326 55.7359 68.3978 55.7327 68.1896 55.9384C67.9808 56.1435 67.9787 56.4796 68.1832 56.688L69.0818 57.6018C69.1857 57.7073 69.3224 57.7598 69.4596 57.7598C69.5936 57.7598 69.7283 57.7089 69.831 57.6071C70.0395 57.4019 70.0417 57.0658 69.8372 56.8575Z" fill="#3287F2"/>
<path d="M72.2149 59.2742L71.3163 58.3603C71.1102 58.152 70.7754 58.1488 70.5672 58.3545C70.3584 58.5602 70.3558 58.8958 70.5609 59.1046L71.4594 60.0185C71.5633 60.124 71.6999 60.1765 71.8372 60.1765C71.9712 60.1765 72.1059 60.1255 72.2086 60.0244C72.4173 59.8187 72.42 59.4831 72.2149 59.2742Z" fill="#3287F2"/>
<path d="M74.5916 61.6908L73.693 60.7769C73.4869 60.5681 73.152 60.5654 72.9438 60.7711C72.7351 60.9769 72.7324 61.3123 72.9375 61.5212L73.8361 62.4351C73.9399 62.5406 74.0766 62.5931 74.2139 62.5931C74.3479 62.5931 74.4825 62.5422 74.5853 62.441C74.794 62.2353 74.7967 61.8998 74.5916 61.6908Z" fill="#3287F2"/>
<path d="M50.9491 61.1862L50.0506 60.2723C49.8445 60.0635 49.5096 60.0608 49.3014 60.2665C49.0927 60.4723 49.09 60.8078 49.2951 61.0166L50.1937 61.9305C50.2975 62.036 50.4342 62.0885 50.5715 62.0885C50.7055 62.0885 50.8401 62.0376 50.9429 61.9364C51.1515 61.7306 51.1542 61.395 50.9491 61.1862Z" fill="#3287F2"/>
<path d="M53.3264 63.6023L52.4279 62.689C52.2217 62.4802 51.8869 62.4775 51.6787 62.6832C51.47 62.8883 51.4678 63.2244 51.6724 63.4328L52.571 64.3466C52.6748 64.4521 52.8115 64.5046 52.9488 64.5046C53.0828 64.5046 53.2174 64.4537 53.3202 64.3519C53.5288 64.1467 53.5308 63.8106 53.3264 63.6023Z" fill="#3287F2"/>
<path d="M55.7041 66.019L54.805 65.1056C54.5988 64.8968 54.264 64.8941 54.0553 65.0998C53.8471 65.3055 53.8449 65.6411 54.0495 65.8494L54.9486 66.7633C55.0525 66.8688 55.1892 66.9213 55.3264 66.9213C55.4604 66.9213 55.595 66.8703 55.6983 66.7686C55.9065 66.5628 55.9086 66.2273 55.7041 66.019Z" fill="#3287F2"/>
<path d="M58.0808 68.4356L57.1822 67.5217C56.9761 67.3129 56.6414 67.3102 56.4331 67.516C56.2244 67.7217 56.2217 68.0572 56.4268 68.266L57.3253 69.1799C57.4291 69.2854 57.5657 69.3379 57.703 69.3379C57.8371 69.3379 57.9717 69.287 58.0744 69.1858C58.2832 68.98 58.2858 68.6444 58.0808 68.4356Z" fill="#3287F2"/>
<path d="M60.458 70.8523L59.5594 69.9384C59.3533 69.7301 59.0185 69.7269 58.8103 69.9326C58.6015 70.1383 58.5989 70.4739 58.8039 70.6827L59.7025 71.5966C59.8064 71.7021 59.943 71.7546 60.0803 71.7546C60.2143 71.7546 60.349 71.7036 60.4517 71.6025C60.6604 71.3967 60.6631 71.0612 60.458 70.8523Z" fill="#3287F2"/>
<path d="M62.8353 73.2684L61.9367 72.355C61.7306 72.1467 61.3957 72.1435 61.1875 72.3492C60.9788 72.5543 60.9767 72.8905 61.1812 73.0988L62.0798 74.0127C62.1836 74.1182 62.3203 74.1707 62.4576 74.1707C62.5916 74.1707 62.7263 74.1197 62.829 74.018C63.0376 73.8128 63.0398 73.4767 62.8353 73.2684Z" fill="#3287F2"/>
<path d="M75.1516 46.2178C75.0541 46.212 74.9577 46.213 74.8613 46.2135C74.9116 44.0221 73.2252 42.1536 71.0191 42.0089C68.7585 41.8631 66.7907 43.5837 66.6413 45.8504C66.5693 46.9483 66.9295 48.0084 67.6549 48.8359C68.3796 49.6617 69.3837 50.1568 70.4803 50.2289C70.5715 50.2352 70.6626 50.2384 70.7542 50.2384C70.76 50.2384 70.7659 50.2374 70.7712 50.2374C70.7474 51.271 71.1013 52.2617 71.7874 53.0441C72.5121 53.8716 73.5162 54.3667 74.6133 54.4388C74.7045 54.4446 74.795 54.4478 74.8852 54.4478C77.0336 54.4478 78.8482 52.7728 78.9912 50.5978C79.1389 48.3312 77.4165 46.3666 75.1516 46.2178ZM70.9334 49.1698C70.8057 49.1772 70.678 49.1793 70.5503 49.1708C69.7354 49.1173 68.9901 48.7499 68.4513 48.1356C67.9124 47.5212 67.6454 46.7341 67.699 45.9188C67.8097 44.2357 69.2651 42.9566 70.9498 43.0658C72.6325 43.1761 73.9114 44.6349 73.8012 46.3184C73.8002 46.3311 73.806 46.3422 73.806 46.3544C73.2068 46.5161 72.6484 46.8087 72.1679 47.2306C71.5707 47.7544 71.15 48.425 70.9334 49.1698ZM77.9331 50.5273C77.8224 52.2103 76.3697 53.4942 74.6823 53.3797C73.8674 53.3262 73.122 52.9588 72.5832 52.3445C72.0449 51.7301 71.7773 50.9424 71.8314 50.1271C71.8849 49.3118 72.2521 48.5661 72.8661 48.0275C73.4287 47.534 74.1361 47.2679 74.8778 47.2679C74.9461 47.2684 75.014 47.2706 75.0818 47.2748C76.7644 47.385 78.0433 48.8437 77.9331 50.5273Z" fill="#3287F2"/>
<path d="M47.578 42.8448C46.5089 42.576 45.4037 42.7398 44.4601 43.3038C43.5165 43.8684 42.8484 44.7669 42.5803 45.834C42.3117 46.9011 42.4749 48.0089 43.0392 48.953C43.6034 49.8976 44.5019 50.5655 45.5679 50.8342C45.9038 50.919 46.2407 50.9593 46.5725 50.9593C48.4146 50.9593 50.0957 49.7115 50.5656 47.8451C51.1197 45.6425 49.7799 43.3998 47.578 42.8448ZM49.5383 47.5858C49.1271 49.2211 47.4657 50.2187 45.8269 49.8059C45.0349 49.6066 44.3679 49.1104 43.9488 48.4091C43.5297 47.7078 43.409 46.8851 43.6082 46.0927C43.8074 45.3003 44.3032 44.6328 45.0042 44.2136C45.4847 43.9263 46.022 43.779 46.5676 43.779C46.8183 43.779 47.0699 43.8102 47.3194 43.8728C48.9544 44.2845 49.9494 45.95 49.5383 47.5858Z" fill="#3287F2"/>
<path d="M55.1674 72.7659C54.6037 71.8212 53.7052 71.1533 52.6392 70.8851C51.6028 70.6248 50.5232 70.7764 49.6071 71.2959C49.0413 70.3885 48.1639 69.7449 47.1239 69.4831C46.0548 69.2143 44.9496 69.3781 44.006 69.9421C43.0624 70.5067 42.3944 71.4051 42.1263 72.4722C41.8576 73.5393 42.0208 74.6471 42.5851 75.5912C43.1483 76.5359 44.0463 77.2043 45.1127 77.4725C45.4486 77.5573 45.7855 77.5976 46.1173 77.5976C46.8388 77.5976 47.5318 77.4009 48.1411 77.0558C48.7022 77.9575 49.5886 78.6121 50.6285 78.874C50.9644 78.9583 51.3035 79.0002 51.6404 79.0002C52.3758 79.0002 53.0994 78.8015 53.7464 78.4151C54.69 77.8505 55.358 76.9521 55.6262 75.885C55.8949 74.8179 55.7317 73.71 55.1674 72.7659ZM45.3718 76.4447C44.5798 76.2454 43.9127 75.7492 43.4937 75.0479C43.0741 74.3466 42.9539 73.5234 43.1531 72.7315C43.3523 71.939 43.8481 71.2717 44.5491 70.8524C45.0296 70.5651 45.5669 70.4177 46.1125 70.4177C46.3632 70.4177 46.6153 70.449 46.8643 70.5115C47.6563 70.7108 48.3233 71.207 48.7424 71.9083C49.1615 72.6096 49.2823 73.4323 49.0831 74.2247C48.6721 75.86 47.0105 76.8582 45.3718 76.4447ZM54.5984 75.6262C54.3992 76.4187 53.9034 77.086 53.2024 77.5053C52.5014 77.9246 51.6802 78.0455 50.8872 77.8462C50.0835 77.6437 49.4048 77.1236 48.9921 76.4107C49.5172 75.8976 49.9187 75.2461 50.1105 74.4833C50.2975 73.7412 50.2705 72.9801 50.0495 72.2665C50.7473 71.843 51.5823 71.7126 52.3797 71.913C53.1717 72.1123 53.8387 72.6084 54.2578 73.3097C54.6769 74.011 54.7976 74.8338 54.5984 75.6262Z" fill="#3287F2"/>
<defs>
<filter id="filter0_d_128_18" x="0" y="0.000244141" width="120" height="120" filterUnits="userSpaceOnUse" color-interpolation-filters="sRGB">
<feFlood flood-opacity="0" result="BackgroundImageFix"/>
<feColorMatrix in="SourceAlpha" type="matrix" values="0 0 0 0 0 0 0 0 0 0 0 0 0 0 0 0 0 0 127 0" result="hardAlpha"/>
<feOffset/>
<feGaussianBlur stdDeviation="10"/>
<feComposite in2="hardAlpha" operator="out"/>
<feColorMatrix type="matrix" values="0 0 0 0 0.0941176 0 0 0 0 0.337255 0 0 0 0 0.643137 0 0 0 0.1 0"/>
<feBlend mode="normal" in2="BackgroundImageFix" result="effect1_dropShadow_128_18"/>
<feBlend mode="normal" in="SourceGraphic" in2="effect1_dropShadow_128_18" result="shape"/>
</filter>
</defs>
</svg>
