<svg width="120" height="120" viewBox="0 0 120 120" fill="none" xmlns="http://www.w3.org/2000/svg">
<g filter="url(#filter0_d_128_19)">
<circle cx="60" cy="60.0002" r="40" fill="white"/>
</g>
<path d="M45.141 63.7911L41.0221 52.5089C40.9513 52.3123 41.0564 52.0946 41.2559 52.0228C43.4354 51.2513 45.7094 50.4967 48.0049 49.7359M69.8498 71.7867L50.9159 78.493C50.7165 78.5649 50.4955 78.4613 50.4226 78.2648L46.0076 66.1646M72.452 71.3471L52.7372 74.6781C52.5292 74.7119 52.3275 74.5724 52.291 74.3673L47.5972 47.3919C47.5608 47.1849 47.7024 46.9883 47.9104 46.9523L54.8053 45.7878M54.8052 57.3595V42.3955C54.8052 42.1778 54.9855 42.0002 55.2064 42.0002H73.1428M73.1428 42.0002H73.4431C73.5653 42.0002 73.5997 42.0489 73.8078 42.2433L78.2077 46.3774C78.3857 46.5487 78.4351 46.5677 78.4351 46.6818V70.9497C78.4351 71.1674 78.2549 71.3471 78.034 71.3471H55.2064C54.9855 71.3471 54.8052 71.1674 54.8052 70.9497V59.9423M73.1428 42.0002L73.1514 45.9209C73.1514 46.7981 73.9666 46.7431 74.3591 46.7431H78.4351M74.8096 50.0868H58.6581M74.8096 54.0412H58.6581M74.8096 57.9957H58.6581M74.8096 61.9502H58.6581M74.8096 65.9047H58.6581" stroke="#3287F2" stroke-miterlimit="10" stroke-linecap="round" stroke-linejoin="round"/>
<defs>
<filter id="filter0_d_128_19" x="0" y="0.000244141" width="120" height="120" filterUnits="userSpaceOnUse" color-interpolation-filters="sRGB">
<feFlood flood-opacity="0" result="BackgroundImageFix"/>
<feColorMatrix in="SourceAlpha" type="matrix" values="0 0 0 0 0 0 0 0 0 0 0 0 0 0 0 0 0 0 127 0" result="hardAlpha"/>
<feOffset/>
<feGaussianBlur stdDeviation="10"/>
<feComposite in2="hardAlpha" operator="out"/>
<feColorMatrix type="matrix" values="0 0 0 0 0.0941176 0 0 0 0 0.337255 0 0 0 0 0.643137 0 0 0 0.1 0"/>
<feBlend mode="normal" in2="BackgroundImageFix" result="effect1_dropShadow_128_19"/>
<feBlend mode="normal" in="SourceGraphic" in2="effect1_dropShadow_128_19" result="shape"/>
</filter>
</defs>
</svg>
