<svg width="89" height="89" viewBox="0 0 89 89" fill="none" xmlns="http://www.w3.org/2000/svg">
<rect width="89" height="89" rx="10" fill="#0F80CC"/>
<path d="M55.1751 62.1234H67.2889C68.3372 62.1234 69.3066 61.559 69.8312 60.6424L71 58.597L68.1847 57.1376C66.2225 54.8671 63.3827 53.5638 60.3979 53.5638H28.4966C26.2987 53.5638 24.1414 54.1616 22.2496 55.2947L18 57.8431L22.2496 60.3925C24.1414 61.5256 26.2987 62.1234 28.4966 62.1234H36.006M35.2119 57.1374H47.7478M19.361 52.0542H18V57.8436L22.2498 55.2952L19.361 52.0542ZM19.361 52.0542V46.1851H21.8758L28.497 53.5635M44.5 32.299H37.1827C36.4002 32.299 35.7659 32.9397 35.7659 33.73V38.36C35.7659 39.1504 36.4002 39.791 37.1827 39.791H43.0832C43.8657 39.791 44.5 39.1504 44.5 38.36M44.5 32.299V38.36M44.5 32.299H51.8173C52.5998 32.299 53.2341 32.9397 53.2341 33.73V38.36C53.2341 39.1504 52.5998 39.791 51.8173 39.791H45.9168C45.1343 39.791 44.5 39.1504 44.5 38.36M40.1329 34.1045V32.299M48.8671 34.1045V32.299M44.5 26.6125V24.8071M59.7126 24.8C59.7126 22.7013 58.0282 21 55.9503 21H33.0497C30.9718 21 29.2874 22.7013 29.2874 24.8V39.7863C29.2874 41.885 30.9718 43.5863 33.0497 43.5863H42.0918L43.5817 48.1254C43.8748 49.0182 45.1252 49.0182 45.4183 48.1254L46.9082 43.5863H55.9503C58.0282 43.5863 59.7126 41.885 59.7126 39.7863V28.602M68.1852 57.1374H60.4829C59.7684 57.1374 59.1222 56.7082 58.8392 56.0456L57.7789 53.5636H60.3982C63.383 53.5635 66.2221 54.8667 68.1852 57.1374ZM55.1751 61.4321C55.1751 60.7135 54.5983 60.1309 53.8868 60.1309H43.1947C42.3431 60.1309 41.5351 60.512 40.9884 61.1716L33.9592 69H39.1785C39.7642 69 40.3404 68.8493 40.8526 68.5621L49.0264 63.9784H53.8868C54.5983 63.9784 55.1751 63.3958 55.1751 62.6772V61.4321ZM47.4503 32.299H41.5498C40.7673 32.299 40.133 31.6583 40.133 30.868V26.2381C40.133 25.4477 40.7673 24.8071 41.5498 24.8071H47.4503C48.2328 24.8071 48.8671 25.4477 48.8671 26.2381V30.8681C48.8671 31.6583 48.2327 32.299 47.4503 32.299Z" stroke="white" stroke-width="2" stroke-miterlimit="10" stroke-linecap="round" stroke-linejoin="round"/>
</svg>
