<svg width="89" height="89" viewBox="0 0 89 89" fill="none" xmlns="http://www.w3.org/2000/svg">
<rect width="89" height="89" rx="10" fill="#0F80CC"/>
<path d="M45 26.6C42.5547 26.6 40.1643 27.3194 38.1311 28.6673C36.0979 30.0152 34.5133 31.931 33.5775 34.1724C32.6417 36.4139 32.3969 38.8803 32.8739 41.2598C33.351 43.6393 34.5285 45.825 36.2576 47.5405C37.9867 49.256 40.1897 50.4243 42.588 50.8976C44.9863 51.3709 47.4722 51.128 49.7314 50.1996C51.9905 49.2712 53.9215 47.6989 55.28 45.6817C56.6385 43.6644 57.3636 41.2928 57.3636 38.8667C57.3593 35.6147 56.0554 32.4971 53.7377 30.1975C51.42 27.898 48.2777 26.6043 45 26.6ZM45 49.6C42.8604 49.6 40.7688 48.9705 38.9897 47.7911C37.2107 46.6117 35.8241 44.9354 35.0053 42.9741C34.1865 41.0129 33.9723 38.8548 34.3897 36.7727C34.8071 34.6906 35.8374 32.7781 37.3504 31.2771C38.8633 29.776 40.791 28.7537 42.8895 28.3396C44.988 27.9254 47.1632 28.138 49.1399 28.9504C51.1167 29.7627 52.8063 31.1385 53.995 32.9035C55.1837 34.6686 55.8182 36.7438 55.8182 38.8667C55.8151 41.7124 54.6744 44.4407 52.6462 46.4529C50.6181 48.4651 47.8682 49.597 45 49.6Z" fill="white"/>
<path d="M50.2391 59.03C55.115 53.6097 62 44.885 62 38.8667C62 34.3933 60.2089 30.1032 57.0208 26.9401C53.8327 23.777 49.5087 22 45 22C40.4913 22 36.1673 23.777 32.9792 26.9401C29.7911 30.1032 28 34.3933 28 38.8667C28 44.885 34.885 53.6097 39.7609 59.03C36.1368 59.3597 28.7727 60.4023 28.7727 63.4C28.7727 66.5587 37.1877 68 45 68C52.8123 68 61.2273 66.5587 61.2273 63.4C61.2273 60.4023 53.8632 59.3597 50.2391 59.03ZM29.5455 38.8667C29.5455 34.8 31.1737 30.8999 34.072 28.0244C36.9703 25.1488 40.9012 23.5333 45 23.5333C49.0988 23.5333 53.0297 25.1488 55.928 28.0244C58.8263 30.8999 60.4545 34.8 60.4545 38.8667C60.4545 46.4413 47.7895 59.5283 45 62.319C42.2105 59.5283 29.5455 46.4413 29.5455 38.8667ZM45 66.4667C35.5032 66.4667 30.3182 64.4427 30.3182 63.4C30.3182 62.6333 33.5791 60.9543 41.0668 60.4637C42.9214 62.457 44.2736 63.768 44.4591 63.952C44.6049 64.0898 44.7986 64.1667 45 64.1667C45.2014 64.1667 45.3951 64.0898 45.5409 63.952C45.7264 63.768 47.0786 62.457 48.9332 60.4637C56.4209 60.9543 59.6818 62.6333 59.6818 63.4C59.6818 64.4427 54.4968 66.4667 45 66.4667Z" fill="white"/>
<path d="M51.9314 35.616L51.1586 32.5493C51.1172 32.3831 51.0209 32.2354 50.8851 32.1298C50.7492 32.0242 50.5817 31.9668 50.4091 31.9667H39.5909C39.4183 31.9668 39.2508 32.0242 39.1149 32.1298C38.9791 32.2354 38.8828 32.3831 38.8414 32.5493L38.0686 35.616C38.0561 35.6767 38.0484 35.7382 38.0455 35.8V45C38.0455 45.2033 38.1269 45.3983 38.2718 45.5421C38.4167 45.6859 38.6132 45.7667 38.8182 45.7667H51.1818C51.3868 45.7667 51.5833 45.6859 51.7282 45.5421C51.8731 45.3983 51.9545 45.2033 51.9545 45V35.8C51.9516 35.7382 51.9439 35.6767 51.9314 35.616ZM47.3182 33.5H49.8064L50.1927 35.0333H47.3182V33.5ZM44.2273 33.5H45.7727V35.0333H44.2273V33.5ZM44.2273 36.5667H45.7727V38.1H44.2273V36.5667ZM40.1936 33.5H42.6818V35.0333H39.8073L40.1936 33.5ZM50.4091 44.2333H39.5909V36.5667H42.6818V38.8667C42.6818 39.07 42.7632 39.265 42.9081 39.4088C43.0531 39.5526 43.2496 39.6333 43.4545 39.6333H46.5455C46.7504 39.6333 46.9469 39.5526 47.0919 39.4088C47.2368 39.265 47.3182 39.07 47.3182 38.8667V36.5667H50.4091V44.2333Z" fill="white"/>
<path d="M46.5455 41.9333C46.3405 41.9333 46.144 42.0141 45.9991 42.1579C45.8541 42.3017 45.7727 42.4967 45.7727 42.7C45.7727 42.9033 45.8541 43.0983 45.9991 43.2421C46.144 43.3859 46.3405 43.4667 46.5455 43.4667H48.8636C49.0686 43.4667 49.2651 43.3859 49.41 43.2421C49.555 43.0983 49.6364 42.9033 49.6364 42.7C49.6364 42.4967 49.555 42.3017 49.41 42.1579C49.2651 42.0141 49.0686 41.9333 48.8636 41.9333H46.5455Z" fill="white"/>
</svg>
