<svg width="89" height="89" viewBox="0 0 89 89" fill="none" xmlns="http://www.w3.org/2000/svg">
<rect width="89" height="89" rx="10" fill="#0F80CC"/>
<path d="M63.7394 24H40.6998C40.1005 24.0009 39.526 24.2393 39.1023 24.6631C38.6785 25.0869 38.44 25.6615 38.4392 26.2608V33.5517C38.44 34.151 38.6785 34.7256 39.1023 35.1494C39.526 35.5732 40.1005 35.8116 40.6998 35.8125H63.7394C64.3386 35.8116 64.9131 35.5732 65.3369 35.1494C65.7607 34.7256 65.9991 34.151 66 33.5517V26.2608C65.9991 25.6615 65.7607 25.0869 65.3369 24.6631C64.9131 24.2393 64.3386 24.0009 63.7394 24ZM64.6876 33.5517C64.6867 33.803 64.5865 34.0436 64.4089 34.2213C64.2313 34.3989 63.9906 34.4991 63.7394 34.5H40.6998C40.4486 34.4991 40.2079 34.3989 40.0303 34.2213C39.8526 34.0436 39.7525 33.803 39.7516 33.5517V26.2608C39.7525 26.0095 39.8526 25.7689 40.0303 25.5912C40.2079 25.4136 40.4486 25.3134 40.6998 25.3125H63.7394C63.9906 25.3134 64.2313 25.4136 64.4089 25.5912C64.5865 25.7689 64.6867 26.0095 64.6876 26.2608V33.5517Z" fill="white"/>
<path d="M47.9837 57.0061L44.5091 60.4777L42.0188 57.9905C41.8933 57.883 41.7318 57.8268 41.5666 57.8332C41.4015 57.8395 41.2448 57.908 41.128 58.0249C41.0111 58.1418 40.9426 58.2984 40.9362 58.4636C40.9299 58.6287 40.986 58.7902 41.0935 58.9158L44.0465 61.8689C44.1694 61.9911 44.3358 62.0597 44.5091 62.0597C44.6825 62.0597 44.8488 61.9911 44.9717 61.8689L48.909 57.9314C49.0165 57.8059 49.0727 57.6444 49.0663 57.4792C49.0599 57.3141 48.9915 57.1574 48.8746 57.0405C48.7577 56.9236 48.6011 56.8552 48.4359 56.8488C48.2708 56.8424 48.1093 56.8986 47.9837 57.0061Z" fill="white"/>
<path d="M59.4379 52.875H30.5647C28.8243 52.875 27.1552 53.5664 25.9245 54.7971C24.6939 56.0278 24.0026 57.697 24.0026 59.4375C24.0026 61.178 24.6939 62.8472 25.9245 64.0779C27.1552 65.3086 28.8243 66 30.5647 66H59.4379C61.1783 66 62.8474 65.3086 64.078 64.0779C65.3086 62.8472 66 61.178 66 59.4375C66 57.697 65.3086 56.0278 64.078 54.7971C62.8474 53.5664 61.1783 52.875 59.4379 52.875ZM59.4379 64.6875H30.5647C29.1724 64.6875 27.8371 64.1344 26.8526 63.1498C25.8681 62.1652 25.315 60.8299 25.315 59.4375C25.315 58.0451 25.8681 56.7098 26.8526 55.7252C27.8371 54.7406 29.1724 54.1875 30.5647 54.1875H59.4379C60.8302 54.1875 62.1655 54.7406 63.15 55.7252C64.1345 56.7098 64.6876 58.0451 64.6876 59.4375C64.6876 60.8299 64.1345 62.1652 63.15 63.1498C62.1655 64.1344 60.8302 64.6875 59.4379 64.6875Z" fill="white"/>
<path d="M27.1294 47.5102C27.8441 47.509 28.5369 47.2632 29.0926 46.8137C29.6483 46.3642 30.0335 45.7381 30.1841 45.0394H31.8246V46.0238C31.8246 46.1978 31.8937 46.3647 32.0168 46.4878C32.1398 46.6109 32.3067 46.68 32.4808 46.68C32.6548 46.68 32.8217 46.6109 32.9448 46.4878C33.0679 46.3647 33.137 46.1978 33.137 46.0238V45.0394H33.4651V46.8539C33.4651 47.028 33.5342 47.1949 33.6573 47.3179C33.7804 47.441 33.9473 47.5102 34.1213 47.5102C34.2954 47.5102 34.4623 47.441 34.5853 47.3179C34.7084 47.1949 34.7775 47.028 34.7775 46.8539V45.0394H35.1581C35.3322 45.0394 35.4991 44.9702 35.6221 44.8472C35.7452 44.7241 35.8143 44.5572 35.8143 44.3831C35.8143 44.2091 35.7452 44.0422 35.6221 43.9191C35.4991 43.796 35.3322 43.7269 35.1581 43.7269H30.1841C30.0601 43.1496 29.7753 42.6192 29.3626 42.197C28.9498 41.7748 28.426 41.4781 27.8516 41.3413C27.2773 41.2044 26.6759 41.2329 26.1172 41.4236C25.5584 41.6143 25.065 41.9593 24.6941 42.4186C24.3232 42.878 24.0899 43.433 24.0212 44.0195C23.9526 44.6059 24.0513 45.1998 24.3061 45.7325C24.5609 46.2651 24.9612 46.7148 25.4609 47.0294C25.9605 47.3439 26.539 47.5106 27.1294 47.5102ZM27.1294 42.5686C27.4883 42.5686 27.8391 42.675 28.1374 42.8744C28.4358 43.0738 28.6684 43.3572 28.8057 43.6887C28.943 44.0203 28.979 44.3851 28.909 44.7371C28.8389 45.0891 28.6661 45.4124 28.4124 45.6662C28.1586 45.92 27.8353 46.0928 27.4834 46.1628C27.1314 46.2328 26.7666 46.1969 26.435 46.0595C26.1035 45.9222 25.8201 45.6896 25.6208 45.3912C25.4214 45.0928 25.315 44.742 25.315 44.3831C25.3158 43.9021 25.5073 43.4411 25.8474 43.101C26.1874 42.7609 26.6484 42.5695 27.1294 42.5686Z" fill="white"/>
<path d="M29.9084 35.8125C31.0765 35.8125 32.2184 35.4661 33.1896 34.8171C34.1608 34.1681 34.9178 33.2457 35.3648 32.1665C35.8118 31.0873 35.9287 29.8997 35.7009 28.754C35.473 27.6083 34.9105 26.5559 34.0845 25.7299C33.2586 24.9039 32.2063 24.3414 31.0606 24.1135C29.915 23.8856 28.7275 24.0026 27.6484 24.4496C26.5692 24.8966 25.6468 25.6536 24.9979 26.6249C24.3489 27.5962 24.0026 28.7381 24.0026 29.9063C24.0026 31.4727 24.6248 32.975 25.7323 34.0826C26.8399 35.1902 28.3421 35.8125 29.9084 35.8125ZM27.2574 33.6502C27.3229 32.9925 27.6305 32.3827 28.1204 31.9391C28.6103 31.4956 29.2476 31.2499 29.9084 31.2499C30.5693 31.2499 31.2066 31.4956 31.6965 31.9391C32.1864 32.3827 32.494 32.9925 32.5595 33.6502C31.786 34.2028 30.8591 34.4999 29.9084 34.4999C28.9578 34.4999 28.0309 34.2028 27.2574 33.6502ZM28.724 28.7578C28.724 28.5235 28.7935 28.2945 28.9236 28.0997C29.0538 27.9049 29.2387 27.7531 29.4552 27.6635C29.6716 27.5738 29.9098 27.5503 30.1395 27.596C30.3693 27.6417 30.5803 27.7546 30.746 27.9202C30.9116 28.0859 31.0244 28.2969 31.0701 28.5267C31.1158 28.7565 31.0924 28.9947 31.0027 29.2111C30.9131 29.4276 30.7613 29.6126 30.5665 29.7427C30.3717 29.8729 30.1427 29.9423 29.9084 29.9423C29.5943 29.9423 29.293 29.8175 29.0709 29.5954C28.8488 29.3733 28.724 29.072 28.724 28.7578ZM29.9084 25.3125C30.7509 25.3138 31.5768 25.5468 32.2957 25.986C33.0147 26.4251 33.599 27.0535 33.9848 27.8025C34.3706 28.5515 34.543 29.3921 34.4832 30.2325C34.4234 31.0729 34.1336 31.8806 33.6456 32.5673C33.3086 31.6423 32.6428 30.8737 31.7754 30.4083C32.0949 30.0484 32.3037 29.6039 32.3766 29.1281C32.4494 28.6524 32.3832 28.1657 32.186 27.7267C31.9887 27.2877 31.6688 26.9151 31.2648 26.6537C30.8607 26.3922 30.3897 26.2531 29.9084 26.2531C29.4272 26.2531 28.9562 26.3922 28.5521 26.6537C28.1481 26.9151 27.8282 27.2877 27.6309 27.7267C27.4337 28.1657 27.3675 28.6524 27.4403 29.1281C27.5132 29.6039 27.722 30.0484 28.0415 30.4083C27.174 30.8737 26.5083 31.6423 26.1713 32.5673C25.6833 31.8806 25.3935 31.0729 25.3337 30.2325C25.2739 29.3921 25.4463 28.5515 25.8321 27.8025C26.2179 27.0535 26.8022 26.4251 27.5212 25.986C28.2401 25.5468 29.066 25.3138 29.9084 25.3125Z" fill="white"/>
<path d="M46.9699 43.6875H45.4803L46.2251 42.398C46.3036 42.248 46.321 42.0735 46.2739 41.9109C46.2267 41.7484 46.1186 41.6103 45.972 41.5256C45.8255 41.4409 45.6519 41.4161 45.4875 41.4564C45.3231 41.4966 45.1807 41.5989 45.0899 41.7417L44.3451 43.0312L43.6003 41.7417C43.5592 41.6633 43.5028 41.594 43.4343 41.5379C43.3658 41.4819 43.2866 41.4403 43.2016 41.4156C43.1166 41.391 43.0275 41.3838 42.9397 41.3944C42.8518 41.4051 42.767 41.4335 42.6904 41.4777C42.6138 41.522 42.5469 41.5814 42.4938 41.6522C42.4407 41.723 42.4025 41.8038 42.3814 41.8898C42.3604 41.9757 42.3569 42.0651 42.3713 42.1524C42.3857 42.2397 42.4175 42.3233 42.465 42.398L43.2098 43.6875H41.7202C41.5462 43.6875 41.3793 43.7566 41.2562 43.8797C41.1332 44.0028 41.064 44.1697 41.064 44.3438C41.064 44.5178 41.1332 44.6847 41.2562 44.8078C41.3793 44.9309 41.5462 45 41.7202 45H43.2098L42.465 46.2895C42.4175 46.3642 42.3857 46.4478 42.3713 46.5351C42.3569 46.6224 42.3604 46.7118 42.3814 46.7977C42.4025 46.8837 42.4407 46.9645 42.4938 47.0353C42.5469 47.1061 42.6138 47.1655 42.6904 47.2098C42.767 47.254 42.8518 47.2824 42.9397 47.2931C43.0275 47.3037 43.1166 47.2965 43.2016 47.2719C43.2866 47.2472 43.3658 47.2056 43.4343 47.1496C43.5028 47.0935 43.5592 47.0242 43.6003 46.9458L44.3451 45.6562L45.0899 46.9458C45.1309 47.0242 45.1873 47.0935 45.2559 47.1496C45.3244 47.2056 45.4035 47.2472 45.4885 47.2719C45.5735 47.2965 45.6626 47.3037 45.7504 47.2931C45.8383 47.2824 45.9231 47.254 45.9997 47.2098C46.0763 47.1655 46.1432 47.1061 46.1963 47.0353C46.2494 46.9645 46.2876 46.8837 46.3087 46.7977C46.3297 46.7118 46.3332 46.6224 46.3188 46.5351C46.3045 46.4478 46.2726 46.3642 46.2251 46.2895L45.4803 45H46.9699C47.1439 45 47.3109 44.9309 47.4339 44.8078C47.557 44.6847 47.6261 44.5178 47.6261 44.3438C47.6261 44.1697 47.557 44.0028 47.4339 43.8797C47.3109 43.7566 47.1439 43.6875 46.9699 43.6875Z" fill="white"/>
<path d="M54.8444 43.6875H53.3548L54.0996 42.398C54.1781 42.248 54.1956 42.0735 54.1484 41.9109C54.1012 41.7484 53.9931 41.6103 53.8466 41.5256C53.7 41.4409 53.5264 41.4161 53.3621 41.4564C53.1977 41.4966 53.0552 41.5989 52.9644 41.7417L52.2196 43.0312L51.4748 41.7417C51.4338 41.6633 51.3773 41.594 51.3088 41.5379C51.2403 41.4819 51.1612 41.4403 51.0762 41.4156C50.9912 41.391 50.9021 41.3838 50.8142 41.3944C50.7263 41.4051 50.6416 41.4335 50.5649 41.4777C50.4883 41.522 50.4214 41.5814 50.3683 41.6522C50.3152 41.723 50.277 41.8038 50.256 41.8898C50.2349 41.9757 50.2315 42.0651 50.2458 42.1524C50.2602 42.2397 50.2921 42.3233 50.3395 42.398L51.0843 43.6875H49.5947C49.4207 43.6875 49.2538 43.7566 49.1307 43.8797C49.0077 44.0028 48.9385 44.1697 48.9385 44.3438C48.9385 44.5178 49.0077 44.6847 49.1307 44.8078C49.2538 44.9309 49.4207 45 49.5947 45H51.0843L50.3395 46.2895C50.2921 46.3642 50.2602 46.4478 50.2458 46.5351C50.2315 46.6224 50.2349 46.7118 50.256 46.7977C50.277 46.8837 50.3152 46.9645 50.3683 47.0353C50.4214 47.1061 50.4883 47.1655 50.5649 47.2098C50.6416 47.254 50.7263 47.2824 50.8142 47.2931C50.9021 47.3037 50.9912 47.2965 51.0762 47.2719C51.1612 47.2472 51.2403 47.2056 51.3088 47.1496C51.3773 47.0935 51.4338 47.0242 51.4748 46.9458L52.2196 45.6562L52.9644 46.9458C53.0054 47.0242 53.0619 47.0935 53.1304 47.1496C53.1989 47.2056 53.278 47.2472 53.363 47.2719C53.448 47.2965 53.5371 47.3037 53.625 47.2931C53.7128 47.2824 53.7976 47.254 53.8742 47.2098C53.9509 47.1655 54.0177 47.1061 54.0708 47.0353C54.1239 46.9645 54.1622 46.8837 54.1832 46.7977C54.2043 46.7118 54.2077 46.6224 54.1933 46.5351C54.179 46.4478 54.1471 46.3642 54.0996 46.2895L53.3548 45H54.8444C55.0185 45 55.1854 44.9309 55.3084 44.8078C55.4315 44.6847 55.5006 44.5178 55.5006 44.3438C55.5006 44.1697 55.4315 44.0028 55.3084 43.8797C55.1854 43.7566 55.0185 43.6875 54.8444 43.6875Z" fill="white"/>
<path d="M62.7189 43.6875H61.2294L61.9742 42.398C62.0526 42.248 62.0701 42.0735 62.0229 41.9109C61.9758 41.7484 61.8676 41.6103 61.7211 41.5256C61.5746 41.4409 61.401 41.4161 61.2366 41.4564C61.0722 41.4966 60.9297 41.5989 60.8389 41.7417L60.0941 43.0312L59.3493 41.7417C59.3083 41.6633 59.2518 41.594 59.1833 41.5379C59.1148 41.4819 59.0357 41.4403 58.9507 41.4156C58.8657 41.391 58.7766 41.3838 58.6887 41.3944C58.6009 41.4051 58.5161 41.4335 58.4395 41.4777C58.3628 41.522 58.296 41.5814 58.2429 41.6522C58.1898 41.723 58.1515 41.8038 58.1305 41.8898C58.1094 41.9757 58.106 42.0651 58.1203 42.1524C58.1347 42.2397 58.1666 42.3233 58.2141 42.398L58.9589 43.6875H57.4693C57.2952 43.6875 57.1283 43.7566 57.0053 43.8797C56.8822 44.0028 56.8131 44.1697 56.8131 44.3438C56.8131 44.5178 56.8822 44.6847 57.0053 44.8078C57.1283 44.9309 57.2952 45 57.4693 45H58.9589L58.2141 46.2895C58.1666 46.3642 58.1347 46.4478 58.1203 46.5351C58.106 46.6224 58.1094 46.7118 58.1305 46.7977C58.1515 46.8837 58.1898 46.9645 58.2429 47.0353C58.296 47.1061 58.3628 47.1655 58.4395 47.2098C58.5161 47.254 58.6009 47.2824 58.6887 47.2931C58.7766 47.3037 58.8657 47.2965 58.9507 47.2719C59.0357 47.2472 59.1148 47.2056 59.1833 47.1496C59.2518 47.0935 59.3083 47.0242 59.3493 46.9458L60.0941 45.6562L60.8389 46.9458C60.8799 47.0242 60.9364 47.0935 61.0049 47.1496C61.0734 47.2056 61.1525 47.2472 61.2375 47.2719C61.3225 47.2965 61.4116 47.3037 61.4995 47.2931C61.5873 47.2824 61.6721 47.254 61.7488 47.2098C61.8254 47.1655 61.8923 47.1061 61.9454 47.0353C61.9984 46.9645 62.0367 46.8837 62.0577 46.7977C62.0788 46.7118 62.0822 46.6224 62.0679 46.5351C62.0535 46.4478 62.0216 46.3642 61.9742 46.2895L61.2294 45H62.7189C62.893 45 63.0599 44.9309 63.183 44.8078C63.306 44.6847 63.3752 44.5178 63.3752 44.3438C63.3752 44.1697 63.306 44.0028 63.183 43.8797C63.0599 43.7566 62.893 43.6875 62.7189 43.6875Z" fill="white"/>
<path d="M61.4065 29.25H43.0326C42.8586 29.25 42.6917 29.3191 42.5686 29.4422C42.4456 29.5653 42.3764 29.7322 42.3764 29.9062C42.3764 30.0803 42.4456 30.2472 42.5686 30.3703C42.6917 30.4934 42.8586 30.5625 43.0326 30.5625H61.4065C61.5806 30.5625 61.7475 30.4934 61.8705 30.3703C61.9936 30.2472 62.0627 30.0803 62.0627 29.9062C62.0627 29.7322 61.9936 29.5653 61.8705 29.4422C61.7475 29.3191 61.5806 29.25 61.4065 29.25Z" fill="white"/>
<path d="M63.7394 38.4375H40.6998C40.1005 38.4384 39.526 38.6768 39.1023 39.1006C38.6785 39.5244 38.44 40.099 38.4392 40.6983V47.9892C38.44 48.5885 38.6785 49.1631 39.1023 49.5869C39.526 50.0107 40.1005 50.2491 40.6998 50.25H63.7394C64.3386 50.2491 64.9131 50.0107 65.3369 49.5869C65.7607 49.1631 65.9991 48.5885 66 47.9892V40.6983C65.9991 40.099 65.7607 39.5244 65.3369 39.1006C64.9131 38.6768 64.3386 38.4384 63.7394 38.4375ZM64.6876 47.9892C64.6867 48.2405 64.5865 48.4811 64.4089 48.6588C64.2313 48.8365 63.9906 48.9366 63.7394 48.9375H40.6998C40.4486 48.9366 40.2079 48.8365 40.0303 48.6588C39.8526 48.4811 39.7525 48.2405 39.7516 47.9892V40.6983C39.7525 40.447 39.8526 40.2064 40.0303 40.0287C40.2079 39.8511 40.4486 39.7509 40.6998 39.75H63.7394C63.9906 39.7509 64.2313 39.8511 64.4089 40.0287C64.5865 40.2064 64.6867 40.447 64.6876 40.6983V47.9892Z" fill="white"/>
</svg>
