<svg width="89" height="89" viewBox="0 0 89 89" fill="none" xmlns="http://www.w3.org/2000/svg">
<rect width="89" height="89" rx="10" fill="#0F80CC"/>
<path d="M67.5937 30.8117L45.3126 20.0713C45.115 19.9762 44.885 19.9762 44.6875 20.0713L22.4063 30.8117C22.1579 30.9314 22 31.1827 22 31.4581V57.5419C22 57.8173 22.1579 58.0685 22.4063 58.1882L44.6874 68.9286C44.7862 68.9762 44.8931 69 45 69C45.1069 69 45.2137 68.9762 45.3126 68.9286L67.5937 58.1882C67.8421 58.0685 68 57.8173 68 57.5419V31.4582C68 31.1826 67.842 30.9315 67.5937 30.8117ZM45 21.5148L65.6277 31.4581L59.6482 34.3405C59.6103 34.3117 59.5703 34.2851 59.5264 34.2639L39.0389 24.3883L45 21.5148ZM37.4154 25.1999L58.0131 35.1287L53.7945 37.1623L33.2053 27.2375L37.4154 25.1999ZM58.495 36.4904V44.0074L54.5545 45.907V38.3899L58.495 36.4904ZM66.5623 57.0915L45.7188 67.1386V42.6489L50.6907 40.2523C51.0482 40.08 51.1981 39.6509 51.0255 39.2939C50.8528 38.937 50.4232 38.7871 50.0656 38.9596L45 41.4014L43.0068 40.4406C42.6492 40.268 42.2195 40.4179 42.0469 40.7749C41.8743 41.1319 42.0242 41.561 42.3817 41.7333L44.2812 42.6489V67.1386L23.4377 57.0913V32.6016L39.3098 40.2526C39.4105 40.3012 39.517 40.3242 39.6218 40.3242C39.889 40.3242 40.1457 40.1747 40.2696 39.9183C40.4422 39.5614 40.2923 39.1322 39.9348 38.9599L24.3723 31.4581L31.5133 28.0158L53.1069 38.4248C53.11 38.4292 53.1136 38.4331 53.1168 38.4374V47.0506C53.1168 47.2976 53.244 47.5272 53.4535 47.6586C53.5699 47.7315 53.7026 47.7684 53.8358 47.7684C53.9423 47.7684 54.0492 47.7447 54.1482 47.697L59.5264 45.1045C59.7749 44.9848 59.9327 44.7336 59.9327 44.4581V35.7975L66.5623 32.6017V57.0915Z" fill="white"/>
<path d="M29.37 54.3076L26.1002 52.7314C25.7425 52.5589 25.3129 52.7088 25.1403 53.0657C24.9677 53.4227 25.1176 53.8518 25.4751 54.0242L28.7449 55.6003C28.8456 55.6489 28.9521 55.6719 29.0569 55.6719C29.3241 55.6719 29.5808 55.5224 29.7047 55.266C29.8774 54.909 29.7275 54.48 29.37 54.3076Z" fill="white"/>
<path d="M32.3793 52.3517L26.1047 49.3271C25.7471 49.1547 25.3174 49.3044 25.1448 49.6615C24.9723 50.0185 25.1222 50.4476 25.4797 50.6199L31.7543 53.6445C31.855 53.6931 31.9615 53.7161 32.0662 53.7161C32.3335 53.7161 32.5901 53.5666 32.7141 53.3103C32.8867 52.9531 32.7368 52.524 32.3793 52.3517Z" fill="white"/>
</svg>
