<svg width="313" height="123" viewBox="0 0 313 123" fill="none" xmlns="http://www.w3.org/2000/svg">
<path d="M282.134 105.985C282.745 108.442 283.662 110.53 283.723 112.68C283.906 119.866 277.978 124.473 271.01 122.569C266.487 121.341 262.942 118.761 260.314 114.891C257.136 110.161 258.175 106.353 263.186 103.835C263.675 103.589 264.164 103.343 265.448 102.668C258.541 101.316 252.429 100.149 246.073 98.9207C246.073 99.6578 246.012 100.149 246.073 100.579C247.601 109.24 241.794 115.874 233.115 115.26C227.614 114.891 223.519 112.066 220.646 107.459C217.713 102.668 218.507 99.2278 223.825 94.4367C216.185 93.8225 209.461 90.567 201.943 91.7955C197.971 92.4711 193.753 92.7783 189.78 92.2254C171.627 89.8913 153.597 90.7513 135.627 93.8225C124.687 95.6652 115.58 92.1026 107.573 84.3631C104.945 81.8447 100.483 81.2305 96.8155 79.8791C96.4487 79.7563 95.6542 80.5548 95.1652 80.9848C86.0582 88.9085 72.1838 84.486 69.8612 72.631C69.1888 69.3755 68.0887 67.5328 65.0326 66.6114C64.4825 66.4272 63.9936 66.0586 63.6268 65.3215C65.4605 65.9972 67.3552 66.6114 69.1277 67.2871C73.6507 58.8105 76.6456 56.6607 85.447 55.9236C84.3468 55.3707 83.7356 54.9408 83.0633 54.6951C72.0004 50.0882 60.8764 45.5428 49.8135 40.8131C47.552 39.8303 46.2074 40.076 45.4739 42.0416C47.1242 45.3585 48.7133 48.4298 50.4858 51.9924C47.7965 49.1054 45.9018 46.2799 43.3958 44.2529C40.6454 42.0416 37.1004 41.9802 33.7387 42.963C27.9934 44.56 24.4484 49.9654 25.0596 56.1078C25.6708 62.3117 30.316 66.3657 37.7116 66.98C32.3941 68.147 27.1377 65.9972 23.9594 61.3289C20.7811 56.5992 20.6589 50.3339 23.8983 45.7271C28.3601 39.2775 34.5944 38.049 41.7456 40.506C42.968 38.5404 42.0512 37.8033 40.3398 37.0662C30.9883 33.2579 21.6979 29.3882 12.4075 25.457C11.0018 24.8428 9.6571 23.6757 8.80141 22.4472C5.62312 17.5947 2.6282 12.6193 0 7.27534C2.13923 9.48662 4.52294 11.6365 6.35657 14.0935C10.3294 19.3145 15.4636 21.833 21.8202 23.43C46.513 29.6339 71.0836 36.2677 95.6542 42.7787C96.3876 42.963 97.1822 43.0858 98.099 43.2701C98.099 33.6265 98.099 24.2285 98.099 14.7691C98.4046 14.7691 98.7713 14.7077 99.077 14.7077C99.6882 17.1033 100.177 19.5602 100.849 21.9558C102.989 29.2039 105.189 36.452 107.328 43.7001C107.817 45.42 108.734 46.3413 110.568 46.8327C121.814 49.7197 132.999 52.7909 144.245 55.6164C145.59 55.9236 147.301 55.6779 148.524 55.0636C166.554 46.1571 183.79 36.2063 199.865 24.1671C212.151 14.9534 225.353 7.21391 240.144 2.72992C247.601 0.457217 255.241 -0.648424 263.064 0.395792C271.316 1.50143 279.628 5.6783 284.579 11.3294C277.244 12.6193 269.91 13.8478 262.575 15.1377C266.548 6.47682 264.47 7.76674 275.044 6.29255C273.088 5.73973 271.193 5.12548 269.237 4.69551C257.013 2.23853 245.461 4.32696 234.765 10.5308C225.23 16.059 216.246 22.4472 206.65 27.8526C190.086 37.1891 173.217 46.0342 156.469 55.125C155.186 55.8621 153.841 56.4764 151.947 57.3977C158.67 59.3633 164.293 61.5746 170.955 58.5648C180.857 54.1423 191.308 50.8253 201.516 47.017C202.432 46.6485 203.41 46.3413 204.327 46.0342C205.244 50.7639 205.244 50.7639 201.271 52.1152C192.286 55.1865 183.363 58.1963 174.378 61.2061C173.461 61.5132 172.605 61.8817 171.016 62.5574C174.194 63.4174 176.639 63.9702 178.962 64.8301C180.001 65.1987 181.346 66.2429 181.468 67.0414C181.529 67.8399 180.307 69.1913 179.39 69.6212C175.845 71.2797 172.239 72.1396 168.205 70.9726C143.206 63.663 118.147 56.415 93.1482 49.1669C91.9869 48.8597 90.8256 48.614 89.5421 48.7983C112.707 57.0292 135.872 65.2601 159.892 73.8595C152.374 75.2109 145.712 76.4393 139.111 77.6678C138.928 77.7293 138.683 77.7293 138.5 77.6678C134.283 75.1494 129.943 76.0094 125.481 76.8693C127.07 76.1936 128.659 75.518 130.799 74.658C127.865 73.4296 125.42 72.3853 123.036 71.4025C122.67 71.2797 122.181 71.0954 121.875 71.2183C117.046 73.2453 112.218 75.2723 107.451 77.3607C107.451 77.7293 107.451 78.1592 107.512 78.5278C110.568 79.3263 113.563 80.0634 117.352 81.0462C115.457 82.0904 114.174 82.8889 112.829 83.626C115.641 86.5744 121.875 88.2329 128.048 87.4958C133.916 86.8201 139.783 85.9601 145.651 85.3459C159.098 83.9331 172.239 86.1444 185.441 88.11C193.386 89.3385 201.271 89.7685 208.972 87.0658C210.745 86.4515 212.456 85.5302 214.29 84.4245C204.51 82.2132 196.565 77.7293 192.042 69.2527C196.443 71.7711 201.21 74.5966 206.038 77.2993C207.016 77.8521 208.422 78.0978 209.522 77.8521C233.298 72.3239 256.524 65.1987 277.917 53.098C279.506 52.1767 281.034 51.1939 282.623 50.2111C282.867 50.0268 283.051 49.7811 283.54 49.3511C282.501 48.9826 281.523 48.7983 280.728 48.3683C277.978 46.7099 274.494 45.5428 272.66 43.1473C270.521 40.3832 268.81 40.5674 266.059 41.3045C244.239 47.1399 222.419 52.8523 200.599 58.5648C200.049 58.6877 199.437 58.7491 198.765 58.442C204.021 56.7835 209.339 55.1865 214.595 53.528C232.259 47.9384 249.862 42.2873 267.526 36.6977C269.115 36.2063 269.726 35.4078 269.726 33.6879C269.665 28.9582 271.682 25.027 274.799 21.5258C272.844 25.7641 270.888 30.0024 271.927 34.9778C276.755 33.8722 281.278 32.6437 285.862 31.968C290.446 31.2923 295.153 31.2923 300.104 30.9238C299.492 26.0098 296.314 22.1401 293.319 18.0246C298.087 21.7101 302.976 25.3956 304.81 31.4766C305.421 33.3808 304.749 36.452 303.465 37.9876C299.798 42.5944 295.947 47.2013 291.424 50.8867C276.022 63.4174 257.93 70.4812 238.983 75.4566C234.46 76.6236 229.876 77.4836 225.292 78.5892C224.191 78.8349 223.152 79.572 222.113 80.1248C222.174 80.4319 222.236 80.6776 222.358 80.9848C229.814 83.2575 237.332 85.5916 244.789 87.8643C262.698 93.3311 280.545 98.9821 298.576 104.142C302.121 105.125 306.155 104.265 309.944 104.203C310.922 104.203 311.961 103.896 313 104.019C307.194 106.415 302.121 111.267 294.786 108.749C290.752 107.152 286.29 106.783 282.134 105.985ZM77.0734 70.5426C77.0123 76.9307 80.9852 82.029 85.9971 82.5818C90.9479 83.1346 95.7153 78.8963 96.9377 72.9996C98.2213 66.6729 94.6151 60.2233 89.2976 59.1791C84.1023 58.1963 78.6014 62.496 77.3179 68.577C77.1346 69.437 77.1346 70.2355 77.0734 70.5426ZM244.484 103.098C244.422 98.3679 241.061 94.4982 237.088 94.5596C232.137 94.621 227.798 99.4121 227.859 104.879C227.859 109.731 231.281 113.54 235.438 113.54C240.266 113.54 244.545 108.564 244.484 103.098ZM282.378 112.864C282.317 109.117 280.545 106.353 277.856 105.616C275.227 104.879 271.805 106.476 270.338 109.486C269.726 110.714 269.91 112.311 269.482 113.663C268.687 116.365 269.665 118.454 271.621 120.174C273.638 121.955 275.961 121.893 278.1 120.542C281.034 118.761 282.195 115.935 282.378 112.864ZM297.292 38.6018C288.98 35.9606 281.767 37.8033 273.822 39.2775C277.917 43.0244 282.012 45.2971 286.84 46.0342C287.574 46.1571 288.491 45.9114 289.041 45.4814C291.608 43.4544 294.053 41.3045 297.292 38.6018ZM95.8987 60.5304C99.8715 65.5058 100.36 70.7883 98.6491 76.0708C102.561 79.0192 103.844 74.5352 106.534 74.1052C105.678 71.8325 104.639 69.8669 104.272 67.7785C103.478 63.2945 100.666 61.2675 95.8987 60.5304ZM246.684 92.594C246.745 92.4097 246.867 92.164 246.928 91.9798C237.944 89.4613 229.02 86.9429 220.035 84.486C219.241 84.3017 218.263 84.9773 217.346 85.2845C217.407 85.5302 217.468 85.8373 217.468 86.083C227.247 88.2943 236.966 90.4441 246.684 92.594Z" fill="#0F80CC"/>
<path d="M237.882 61.4518C231.404 70.0512 217.896 73.491 207.261 69.1913C217.713 66.55 227.614 64.0316 237.882 61.4518Z" fill="#0F80CC"/>
<path d="M236.232 34.2407C237.027 39.9532 236.966 39.8918 231.831 41.6731C227.247 43.2701 222.663 44.8671 218.018 46.4642C217.407 41.1203 217.407 41.1203 221.991 39.4004C226.697 37.6805 231.465 35.9606 236.232 34.2407Z" fill="#0F80CC"/>
<path d="M29.0935 59.9162C30.4993 60.7761 31.1105 61.1446 31.844 61.5746C32.5774 60.5918 33.1886 59.7319 34.1054 58.5034C34.2277 60.039 34.2888 61.0832 34.3499 62.3731C35.389 62.3731 36.3058 62.3731 37.4671 62.3731C37.4671 61.0218 37.4671 59.7933 37.4671 58.5648C37.6505 58.442 37.8338 58.3191 38.0172 58.1963C38.5673 59.1791 39.1174 60.1004 39.9119 61.4518C41.1344 59.8547 41.8678 58.9334 42.7235 57.7663C41.6233 56.9063 40.7065 56.2307 39.423 55.3093C40.7065 55.3093 41.7456 55.3093 43.1513 55.3093C43.0902 54.0194 42.968 52.8523 42.9069 51.501C41.6233 51.6238 40.5843 51.6853 39.1785 51.8695C40.0342 50.8867 40.7065 50.2111 41.5011 49.2897C40.2175 48.1226 39.5452 45.6657 37.8338 47.6927C36.4892 46.9556 35.389 46.3413 34.5944 45.9114C37.6505 44.4986 41.8678 46.0342 44.0682 49.7811C46.6352 54.0808 45.4739 59.9161 41.5622 62.6803C37.7116 65.3829 33.1275 64.5844 29.0935 59.9162Z" fill="#0F80CC"/>
<path d="M259.58 71.8939C255.608 77.2993 246.989 79.8791 240.45 77.6064C246.806 75.7023 253.224 73.7981 259.58 71.8939Z" fill="#0F80CC"/>
<path d="M256.158 33.3808C255.669 33.565 255.18 33.8722 254.63 34.0564C253.468 34.425 252.307 34.7935 251.146 35.1006C250.046 28.7125 250.29 28.2825 256.341 26.8698C256.28 27.9754 256.219 29.081 256.158 30.1867C256.158 31.2309 256.158 32.2137 256.158 33.3808Z" fill="#0F80CC"/>
<path d="M248.701 29.7567C249.251 36.3906 249.251 36.3906 244.056 37.3734C243.139 31.8451 243.567 31.1081 248.701 29.7567Z" fill="#0F80CC"/>
<path d="M237.638 39.5232C237.088 33.5036 237.21 33.2579 241.611 32.5208C243.139 37.6805 242.711 38.4176 237.638 39.5232Z" fill="#0F80CC"/>
<path d="M38.6895 54.4494C37.0393 55.7393 36.0613 57.0292 35.0834 57.0292C34.2277 57.0292 32.6997 55.3707 32.8219 54.6336C32.9442 53.6509 34.2277 52.2995 35.2056 51.9924C35.878 51.8695 36.9781 53.2209 38.6895 54.4494Z" fill="#0F80CC"/>
<path d="M80.374 76.0708C81.4741 75.518 82.5743 74.9652 83.7356 74.4123C83.6745 75.2109 83.6745 76.1322 83.6134 77.4221C84.4691 77.545 85.2636 77.6678 86.3027 77.7907C86.4249 76.3779 86.486 75.2109 86.6083 73.6138C87.464 74.7809 88.0141 75.5794 88.8086 76.6851C89.6643 75.7023 90.4589 74.9037 91.2535 73.9824C90.3367 73.1224 89.6643 72.4468 88.6253 71.464C89.7866 71.5868 90.6423 71.6482 91.8036 71.7711C91.8647 70.6654 91.9869 69.6212 92.1092 68.3927C90.8867 68.3927 89.9699 68.3927 88.6864 68.3927C89.6643 67.5328 90.3367 66.9186 91.498 65.9358C89.5421 64.6458 87.8307 63.4788 86.0582 62.3117C89.6643 61.8203 92.537 63.8473 93.6372 67.7785C94.8596 72.2011 92.9037 76.9307 89.1142 78.7121C85.6304 80.3091 82.3298 79.142 80.374 76.0708Z" fill="#0F80CC"/>
<path d="M85.447 66.55C86.3638 68.3927 87.3417 69.4984 87.2195 70.2969C87.0361 71.2183 85.7526 71.8939 85.0191 72.631C84.3468 71.7711 83.1244 70.9111 83.1244 69.9898C83.0022 69.1913 84.1635 68.2699 85.447 66.55Z" fill="#0F80CC"/>
<path d="M230.12 108.319C231.098 107.827 231.831 107.459 232.198 107.274C232.687 108.196 233.115 109.117 233.604 110.039C234.215 109.301 234.826 108.564 235.499 107.704C235.743 108.073 236.232 108.749 236.66 109.486C239.105 108.749 239.044 107.397 237.882 106.23C238.677 105.862 239.472 105.432 240.266 105.063C239.838 104.265 239.472 103.466 239.044 102.606C241.978 99.4121 236.354 99.7807 236.782 97.7536C239.899 98.3065 241.672 100.149 241.978 103.528C242.283 106.783 240.144 110.161 237.088 111.267C234.276 112.127 232.137 111.267 230.12 108.319Z" fill="#0F80CC"/>
<path d="M237.088 103.773C236.049 104.695 235.438 105.677 234.704 105.739C234.154 105.8 232.993 104.51 233.054 103.958C233.115 103.22 234.093 102.299 234.888 102.053C235.254 101.931 236.049 102.975 237.088 103.773Z" fill="#0F80CC"/>
<path d="M276.45 107.09C280.361 110.1 280.423 115.567 276.511 117.655C275.166 118.392 273.027 118.208 271.499 117.717C269.971 117.225 269.726 115.812 271.621 115.075C271.927 115.751 272.294 116.55 272.599 117.287C273.271 116.795 273.944 116.304 274.555 115.874C274.616 115.935 275.044 116.427 275.594 116.734C275.716 116.795 276.511 116.12 276.511 116.058C275.411 114.031 278.833 113.908 278.161 112.127C277.55 110.53 277.061 108.933 276.45 107.09Z" fill="#0F80CC"/>
</svg>
