<svg width="63" height="63" viewBox="0 0 63 63" fill="none" xmlns="http://www.w3.org/2000/svg">
<rect width="63" height="63" rx="10" fill="#0F80CC"/>
<path d="M47.9977 45.4126L46.3977 28.2317C46.3807 28.0505 46.274 27.89 46.1138 27.8058L39.9805 24.578C39.9691 24.572 39.9559 24.5733 39.9442 24.5682C39.9093 24.553 39.8721 24.5458 39.8337 24.5383C39.7967 24.531 39.7617 24.5225 39.7242 24.5231C39.7158 24.5232 39.7085 24.5193 39.7 24.5198C39.6697 24.5217 39.6443 24.5358 39.6158 24.5425C39.5868 24.5492 39.5565 24.5463 39.5286 24.5581L37.63 25.3529C37.3578 25.4667 37.2292 25.7812 37.3422 26.055C37.4555 26.3293 37.7672 26.4589 38.0393 26.3447L39.2476 25.839L40.2432 41.8676L32.5333 44.6954V33.5441C32.5333 33.2475 32.2945 33.0071 32 33.0071C31.7054 33.0071 31.4667 33.2476 31.4667 33.5441V44.6954L23.7568 41.8676L24.7524 25.839L25.9607 26.3447C26.2331 26.4588 26.5451 26.3293 26.6578 26.055C26.7708 25.7812 26.6422 25.4667 26.3701 25.3529L24.4714 24.5581C24.4436 24.5465 24.4135 24.5493 24.3846 24.5426C24.3559 24.5359 24.3304 24.5217 24.3 24.5198C24.2915 24.5193 24.2842 24.5233 24.2758 24.5232C24.2371 24.5226 24.2009 24.5316 24.1627 24.5394C24.127 24.5467 24.0923 24.5531 24.0596 24.5672C24.0466 24.5728 24.0321 24.5715 24.0196 24.578L17.8862 27.8058C17.7261 27.89 17.6193 28.0505 17.6024 28.2317L16.0023 45.4126C15.9843 45.6054 16.0708 45.7929 16.2287 45.9036C16.386 46.014 16.5917 46.0308 16.7643 45.9469L23.2287 42.8172L31.8175 45.9673C31.9352 46.0109 32.0649 46.0109 32.1826 45.9673L40.7715 42.8172L47.2358 45.9469C47.309 45.9823 47.3882 45.9999 47.4668 45.9999C47.5738 45.9999 47.6806 45.9673 47.7715 45.9036C47.9292 45.7929 48.0156 45.6054 47.9977 45.4126ZM22.6867 41.8874L17.1522 44.5671L18.6371 28.6227L23.6753 25.9711L22.6867 41.8874ZM41.3131 41.8874L40.3245 25.9711L45.3627 28.6227L46.8476 44.5671L41.3131 41.8874Z" fill="white"/>
<path d="M27.3007 24.6168L31.5418 31.7748C31.6382 31.9373 31.8121 32.0367 31.9999 32.0367C32.1876 32.0367 32.3616 31.9373 32.4579 31.7748L36.7106 24.5964C36.9153 24.2135 37.0523 23.8891 37.1413 23.5749C37.2686 23.1262 37.3333 22.6602 37.3333 22.1902C37.3333 21.4871 37.1913 20.805 36.9111 20.1622C36.6413 19.5436 36.2551 18.9881 35.764 18.5119C35.2745 18.0369 34.7041 17.664 34.0694 17.4036C32.7569 16.8655 31.2429 16.8655 29.9304 17.4036C29.2957 17.664 28.7254 18.037 28.2361 18.5119C27.7447 18.9881 27.3585 19.5436 27.0887 20.1625C26.8086 20.805 26.6666 21.4871 26.6666 22.1902C26.6666 22.6602 26.7312 23.1262 26.8586 23.5752C26.9476 23.8891 27.0846 24.2135 27.3007 24.6168ZM28.0653 20.5944C28.2789 20.1045 28.5854 19.6642 28.976 19.2855C29.3677 18.9055 29.8242 18.607 30.3325 18.3985C30.8606 18.1819 31.4216 18.0723 31.9999 18.0723C32.5783 18.0723 33.1393 18.1819 33.6674 18.3985C34.1757 18.607 34.6323 18.9054 35.0241 19.2855C35.4145 19.6642 35.721 20.1044 35.9346 20.5941C36.1549 21.0997 36.2666 21.6366 36.2666 22.1902C36.2666 22.5604 36.2159 22.9271 36.1159 23.2799C36.0485 23.5175 35.9391 23.7739 35.7831 24.0666L31.9999 30.4514L28.2283 24.0871C28.0609 23.7739 27.9515 23.5175 27.8841 23.2801C27.7841 22.9271 27.7333 22.5605 27.7333 22.1902C27.7332 21.6366 27.845 21.0997 28.0653 20.5944Z" fill="white"/>
<path d="M31.9999 25.0561C33.4703 25.0561 34.6666 23.8513 34.6666 22.3706C34.6666 20.8899 33.4703 19.6851 31.9999 19.6851C30.5296 19.6851 29.3333 20.8899 29.3333 22.3706C29.3333 23.8513 30.5296 25.0561 31.9999 25.0561ZM31.9999 20.7593C32.8823 20.7593 33.5999 21.4821 33.5999 22.3706C33.5999 23.2592 32.8823 23.9819 31.9999 23.9819C31.1176 23.9819 30.3999 23.2592 30.3999 22.3706C30.3999 21.4821 31.1176 20.7593 31.9999 20.7593Z" fill="white"/>
</svg>
