<svg width="63" height="63" viewBox="0 0 63 63" fill="none" xmlns="http://www.w3.org/2000/svg">
<rect width="63" height="63" rx="10" fill="#0F80CC"/>
<path d="M31.743 33.8286C30.398 33.8225 29.0619 33.6177 27.7803 33.2211C25.7326 32.5551 24.2116 30.8698 23.7988 28.8094C23.3471 26.6941 24.1703 24.4575 26.057 22.6732C26.2595 22.4815 26.4698 22.2979 26.6881 22.1224C28.6199 20.5501 31.2243 20.0037 33.6511 20.6616C36.0006 21.3906 37.624 23.4779 37.7052 25.8742C37.7931 27.2535 37.3307 28.6127 36.414 29.669C35.7071 30.5348 34.5616 30.9437 33.4463 30.7285C32.9901 30.6365 32.5922 30.3679 32.344 29.9847C32.1213 29.6124 32.0642 29.168 32.1858 28.7539C32.7105 26.8258 33.244 23.8956 33.2493 23.8659C33.2865 23.6607 33.4336 23.4903 33.6351 23.4191C33.8366 23.3478 34.0619 23.3865 34.2261 23.5205C34.3903 23.6545 34.4685 23.8635 34.4313 24.0687C34.409 24.1907 33.8837 27.0769 33.3461 29.0521C33.3077 29.1616 33.3174 29.2815 33.3728 29.3839C33.4557 29.4955 33.5809 29.5705 33.7208 29.5924C34.4035 29.7031 35.0932 29.4369 35.5117 28.9009C36.2235 28.073 36.5802 27.0104 36.5077 25.9337C36.449 24.0263 35.1624 22.3611 33.2945 21.7748C31.2555 21.2296 29.0711 21.6954 27.454 23.0202C27.2612 23.1757 27.0737 23.3386 26.8938 23.5089C25.9611 24.391 24.4716 26.2212 24.9735 28.5719C25.3107 30.2141 26.5172 31.56 28.1445 32.1093C30.9585 32.9819 35.0021 33.087 37.1325 30.5117C37.3419 30.2667 37.7147 30.2302 37.9701 30.4297C38.2254 30.6293 38.2689 30.9911 38.0677 31.2425C36.4923 33.1472 34.0949 33.8286 31.743 33.8286Z" fill="white"/>
<path d="M29.6889 30.8043C29.0547 30.8149 28.4361 30.6127 27.9373 30.2318C26.7857 29.3358 26.754 27.7793 27.0768 26.7193C27.1856 26.3663 27.3316 26.0251 27.5125 25.7013C27.9627 24.8183 28.6825 24.092 29.5736 23.6219C30.6832 23.0622 32.0389 23.2745 32.9116 24.1446C33.3446 24.6059 33.6707 25.1521 33.868 25.7464C33.9725 26.0479 33.8091 26.3753 33.5007 26.482C33.1923 26.5888 32.8528 26.4356 32.7377 26.1377C32.5955 25.6986 32.359 25.2939 32.044 24.9503C31.5352 24.4444 30.7424 24.3293 30.1037 24.6686C29.4355 25.035 28.8985 25.5912 28.5647 26.2627C28.4245 26.5143 28.3112 26.7792 28.2266 27.0533C27.9935 27.8201 28.0447 28.8207 28.6881 29.3216C29.3915 29.8707 30.5781 29.6385 31.2457 29.0786C31.7432 28.6432 32.1707 28.1376 32.5139 27.5788C32.6251 27.3978 32.828 27.2892 33.0448 27.2947C33.2616 27.3002 33.4584 27.4189 33.5597 27.6054C33.661 27.7918 33.6509 28.0168 33.5333 28.194C33.1268 28.8524 32.6208 29.4477 32.0321 29.9598C31.376 30.4979 30.5473 30.7966 29.6889 30.8043Z" fill="white"/>
<path d="M47.2 49H14.8C13.8063 48.9989 13.0011 48.2161 13 47.2501V25.6683C13 25.4421 13.1345 25.2363 13.3452 25.1403C13.5558 25.0442 13.8046 25.0752 13.9835 25.2198L28.7058 37.1145C30.0379 38.184 31.9634 38.1837 33.2951 37.1137L48.016 25.2198C48.1949 25.0749 48.4439 25.0437 48.6547 25.1398C48.8656 25.2359 49.0001 25.4419 49 25.6683V47.2501C48.9989 48.2161 48.1937 48.9989 47.2 49ZM14.2 26.9115V47.2501C14.2004 47.5721 14.4688 47.833 14.8 47.8334H47.2C47.5312 47.8331 47.7997 47.5721 47.8 47.2501V26.9115L34.0613 38.0115C32.2849 39.4387 29.7165 39.4391 27.9396 38.0124L14.2 26.9115Z" fill="white"/>
<path d="M13.6006 26.2516C13.3393 26.2518 13.1078 26.0876 13.0284 25.8455C12.949 25.6035 13.0399 25.3393 13.2531 25.1924L18.6531 21.471C18.9235 21.2888 19.2943 21.3523 19.4845 21.6132C19.6747 21.8741 19.6133 22.2352 19.3469 22.4228L13.9469 26.1442C13.8457 26.2142 13.7247 26.2517 13.6006 26.2516Z" fill="white"/>
<path d="M48.3994 26.2516C48.2753 26.2517 48.1543 26.2142 48.0531 26.1442L42.6531 22.4228C42.3867 22.2352 42.3253 21.8741 42.5155 21.6132C42.7057 21.3523 43.0765 21.2888 43.3469 21.471L48.7469 25.1924C48.9601 25.3393 49.051 25.6035 48.9716 25.8455C48.8922 26.0876 48.6607 26.2518 48.3994 26.2516Z" fill="white"/>
<path d="M36.5436 18.0855C36.4194 18.0856 36.2982 18.048 36.197 17.9781L33.329 16.0008C31.9976 14.9071 30.0522 14.8957 28.7074 15.9737L25.8034 17.9782C25.6285 18.0988 25.4007 18.1195 25.2059 18.0325C25.011 17.9456 24.8787 17.7641 24.8587 17.5566C24.8387 17.3491 24.9342 17.1469 25.1091 17.0264L27.9771 15.049C29.7492 13.6403 32.3002 13.6515 34.0592 15.0757L36.8912 17.0261C37.1046 17.173 37.1956 17.4373 37.1161 17.6795C37.0367 17.9216 36.805 18.0859 36.5436 18.0855Z" fill="white"/>
<path d="M13.99 48.685C13.7371 48.6852 13.5113 48.5313 13.4253 48.3002C13.3392 48.069 13.4115 47.8102 13.606 47.6531L27.298 36.5939C27.4625 36.4579 27.6895 36.4183 27.8924 36.4903C28.0953 36.5623 28.2427 36.7348 28.2784 36.9418C28.3141 37.1489 28.2326 37.3586 28.065 37.491L14.373 48.5502C14.2655 48.6373 14.13 48.685 13.99 48.685Z" fill="white"/>
<path d="M48.0092 48.685C47.8693 48.6851 47.7339 48.6374 47.6265 48.5503L33.9345 37.4911C33.7669 37.3587 33.6854 37.1489 33.7211 36.9419C33.7568 36.7348 33.9042 36.5624 34.1071 36.4904C34.31 36.4184 34.537 36.458 34.7015 36.594L48.3932 47.6532C48.5876 47.8103 48.6599 48.0691 48.5739 48.3002C48.4879 48.5314 48.262 48.6852 48.0092 48.685Z" fill="white"/>
<path d="M43 30.6146C42.6686 30.6146 42.4 30.3535 42.4 30.0313V18.0901C42.3983 18.1023 42.3742 18.0858 42.334 18.0855H19.666C19.6395 18.0839 19.6135 18.093 19.594 18.1106L19.6 30.0313C19.6 30.3535 19.3314 30.6146 19 30.6146C18.6686 30.6146 18.4 30.3535 18.4 30.0313V18.0855C18.4194 17.424 18.9855 16.9023 19.666 16.9189H42.334C43.0145 16.9024 43.5806 17.424 43.6 18.0855V30.0313C43.6 30.3535 43.3314 30.6146 43 30.6146Z" fill="white"/>
</svg>
