<svg width="36" height="36" viewBox="0 0 36 36" fill="none" xmlns="http://www.w3.org/2000/svg">
<g id="mail (6) 1">
<g id="Group">
<g id="Group_2">
<path id="Vector" d="M32.8359 5.34375H3.16406C1.41588 5.34375 0 6.76842 0 8.50781V27.4922C0 29.2419 1.42629 30.6562 3.16406 30.6562H32.8359C34.5695 30.6562 36 29.2479 36 27.4922V8.50781C36 6.77152 34.5897 5.34375 32.8359 5.34375ZM32.3928 7.45312C31.7464 8.09613 20.6215 19.1625 20.2373 19.5446C19.6397 20.1422 18.8452 20.4713 18 20.4713C17.1548 20.4713 16.3603 20.1421 15.7607 19.5426C15.5024 19.2856 4.50021 8.34145 3.60717 7.45312H32.3928ZM2.10938 27.0629V8.93848L11.2245 18.0056L2.10938 27.0629ZM3.60851 28.5469L12.7201 19.4932L14.2711 21.0361C15.2672 22.0321 16.5914 22.5806 18 22.5806C19.4086 22.5806 20.7328 22.0321 21.7269 21.0381L23.2799 19.4932L32.3915 28.5469H3.60851ZM33.8906 27.0629L24.7755 18.0056L33.8906 8.93848V27.0629Z" fill="#0014B8"/>
</g>
</g>
</g>
</svg>
