<svg width="63" height="63" viewBox="0 0 63 63" fill="none" xmlns="http://www.w3.org/2000/svg">
<rect width="63" height="63" rx="10" fill="#0F80CC"/>
<path d="M33.7323 15C33.18 15 32.7323 15.4477 32.7323 16C32.7323 16.5523 33.18 17 33.7323 17V15ZM46 29.6987C46 30.251 46.4477 30.6987 47 30.6987C47.5523 30.6987 48 30.251 48 29.6987H46ZM33.7323 18.9137C33.18 18.9137 32.7323 19.3614 32.7323 19.9137C32.7323 20.466 33.18 20.9137 33.7323 20.9137V18.9137ZM42.2094 29.6987C42.2094 30.251 42.6571 30.6987 43.2094 30.6987C43.7617 30.6987 44.2094 30.251 44.2094 29.6987H42.2094ZM33.7323 22.8281C33.18 22.8281 32.7323 23.2758 32.7323 23.8281C32.7323 24.3804 33.18 24.8281 33.7323 24.8281V22.8281ZM38.4182 29.6987C38.4182 30.251 38.8659 30.6987 39.4182 30.6987C39.9705 30.6987 40.4182 30.251 40.4182 29.6987H38.4182ZM33.7323 26.7418C33.18 26.7418 32.7323 27.1895 32.7323 27.7418C32.7323 28.2941 33.18 28.7418 33.7323 28.7418V26.7418ZM34.6276 29.6987C34.6276 30.251 35.0753 30.6987 35.6276 30.6987C36.1799 30.6987 36.6276 30.251 36.6276 29.6987H34.6276ZM23.9026 34.8413C24.2304 35.2858 24.8564 35.3805 25.3009 35.0527C25.7454 34.725 25.8401 34.0989 25.5123 33.6544L23.9026 34.8413ZM23.5722 32.5696L22.7217 33.0956L22.7219 33.0959L23.5722 32.5696ZM23.8607 30.1723L23.1424 29.4766L23.1424 29.4767L23.8607 30.1723ZM25.9999 27.9636L25.2821 27.2674L25.2816 27.2679L25.9999 27.9636ZM25.9999 26.2429L25.2816 26.9386L25.282 26.939L25.9999 26.2429ZM20.9655 21.0451L20.2467 21.7402L20.2472 21.7408L20.9655 21.0451ZM19.299 21.0451L20.0173 21.7408L20.0178 21.7402L19.299 21.0451ZM18.0249 22.3604L18.7431 23.0562L18.7432 23.0562L18.0249 22.3604ZM16.6961 30.4579L17.5977 30.0253L17.5977 30.0252L16.6961 30.4579ZM32.9126 47.2851L32.4609 48.1773L32.4611 48.1774L32.9126 47.2851ZM40.7798 45.9145L41.4982 46.6102L41.4982 46.6102L40.7798 45.9145ZM42.0829 44.5691L41.365 43.8728L41.3645 43.8734L42.0829 44.5691ZM42.0829 42.8477L42.8013 42.1521L42.8011 42.1519L42.0829 42.8477ZM37.0484 37.6505L36.3296 38.3456L36.3302 38.3462L37.0484 37.6505ZM35.3819 37.6505L36.1002 38.3462L36.1007 38.3456L35.3819 37.6505ZM33.2428 39.8591L33.961 40.5549L33.9611 40.5548L33.2428 39.8591ZM30.9208 40.1571L30.3701 40.9917L30.3704 40.992L30.9208 40.1571ZM29.2833 37.6852C28.8613 37.329 28.2303 37.3822 27.8741 37.8042C27.5178 38.2262 27.5711 38.8572 27.9931 39.2134L29.2833 37.6852ZM33.7323 17C40.466 17 46 22.6671 46 29.6987H48C48 21.6232 41.6304 15 33.7323 15V17ZM33.7323 20.9137C38.3755 20.9137 42.2094 24.8255 42.2094 29.6987H44.2094C44.2094 23.7817 39.5398 18.9137 33.7323 18.9137V20.9137ZM33.7323 24.8281C36.2855 24.8281 38.4182 26.9834 38.4182 29.6987H40.4182C40.4182 25.9396 37.4498 22.8281 33.7323 22.8281V24.8281ZM33.7323 28.7418C34.1967 28.7418 34.6276 29.1401 34.6276 29.6987H36.6276C36.6276 28.0963 35.3611 26.7418 33.7323 26.7418V28.7418ZM26.1787 36.4725C26.1787 36.3099 26.3144 36.1231 26.5486 36.1231V38.1231C27.4788 38.1231 28.1787 37.3537 28.1787 36.4725H26.1787ZM26.5486 36.1231C26.7828 36.1231 26.9185 36.3099 26.9185 36.4725H24.9185C24.9185 37.3538 25.6186 38.1231 26.5486 38.1231V36.1231ZM26.9185 36.4725C26.9185 36.6352 26.7829 36.822 26.5486 36.822V34.822C25.6185 34.822 24.9185 35.5914 24.9185 36.4725H26.9185ZM26.5486 36.822C26.3144 36.822 26.1787 36.6351 26.1787 36.4725H28.1787C28.1787 35.5914 27.4788 34.822 26.5486 34.822V36.822ZM25.5123 33.6544C25.1286 33.1341 24.765 32.5967 24.4225 32.0433L22.7219 33.0959C23.0928 33.6952 23.4868 34.2774 23.9026 34.8413L25.5123 33.6544ZM24.4226 32.0435C24.2107 31.7009 24.2606 31.1969 24.5791 30.868L23.1424 29.4767C22.2299 30.4189 21.9962 31.9225 22.7217 33.0956L24.4226 32.0435ZM24.5791 30.8681L26.7183 28.6594L25.2816 27.2679L23.1424 29.4766L24.5791 30.8681ZM26.7178 28.6598C27.5546 27.797 27.5544 26.4096 26.7179 25.5468L25.282 26.939C25.321 26.9792 25.3453 27.0364 25.3453 27.1033C25.3453 27.1703 25.321 27.2274 25.2821 27.2674L26.7178 28.6598ZM26.7183 25.5472L21.6838 20.3493L20.2472 21.7408L25.2816 26.9386L26.7183 25.5472ZM21.6843 20.3499C20.8313 19.4678 19.4332 19.4678 18.5802 20.3499L20.0178 21.7402C20.0552 21.7016 20.0955 21.6883 20.1322 21.6883C20.169 21.6883 20.2093 21.7016 20.2467 21.7402L21.6843 20.3499ZM18.5807 20.3493L17.3066 21.6647L18.7432 23.0562L20.0173 21.7408L18.5807 20.3493ZM17.3067 21.6646C14.9516 24.0955 14.3129 27.8027 15.7945 30.8905L17.5977 30.0252C16.4834 27.703 16.9624 24.8943 18.7431 23.0562L17.3067 21.6646ZM15.7945 30.8904C18.1587 35.8183 23.0397 43.4074 32.4609 48.1773L33.3643 46.3929C24.4752 41.8924 19.8521 34.7243 17.5977 30.0253L15.7945 30.8904ZM32.4611 48.1774C35.4905 49.7102 39.1323 49.0529 41.4982 46.6102L40.0615 45.2187C38.2889 47.0489 35.5909 47.5196 33.3641 46.3928L32.4611 48.1774ZM41.4982 46.6102L42.8012 45.2647L41.3645 43.8734L40.0615 45.2188L41.4982 46.6102ZM42.8007 45.2653C43.6377 44.4022 43.6369 43.0151 42.8013 42.1521L41.3644 43.5433C41.4038 43.584 41.4283 43.6416 41.4283 43.7087C41.4283 43.7757 41.4039 43.8328 41.365 43.8728L42.8007 45.2653ZM42.8011 42.1519L37.7667 36.9547L36.3302 38.3462L41.3646 43.5435L42.8011 42.1519ZM37.7673 36.9553C36.9142 36.0732 35.5161 36.0732 34.6631 36.9553L36.1007 38.3456C36.1381 38.307 36.1784 38.2937 36.2152 38.2937C36.2519 38.2937 36.2922 38.307 36.3296 38.3456L37.7673 36.9553ZM34.6636 36.9547L32.5244 39.1634L33.9611 40.5548L36.1002 38.3462L34.6636 36.9547ZM32.5245 39.1633C32.2129 39.4849 31.7686 39.5182 31.4712 39.3221L30.3704 40.992C31.5413 41.7638 33.0413 41.5043 33.961 40.5549L32.5245 39.1633ZM31.4716 39.3224C30.7105 38.8201 29.9798 38.2733 29.2833 37.6852L27.9931 39.2134C28.7495 39.852 29.543 40.446 30.3701 40.9917L31.4716 39.3224Z" fill="white"/>
</svg>
