<svg width="35" height="35" viewBox="0 0 35 35" fill="none" xmlns="http://www.w3.org/2000/svg">
<g id="phone-call (7) 1">
<g id="Layer 3">
<path id="Vector" d="M32.8508 24.7122C32.7928 24.6641 26.2423 19.9762 24.465 20.2836C23.6108 20.4345 23.1219 21.0164 22.143 22.1834C21.9855 22.3716 21.6059 22.8211 21.3128 23.1416C20.6941 22.94 20.0906 22.6944 19.507 22.4066C16.4943 20.9399 14.0601 18.5057 12.5934 15.493C12.3056 14.9094 12.06 14.3059 11.8584 13.6872C12.18 13.393 12.6306 13.0134 12.8231 12.8516C13.9836 11.8781 14.5655 11.3892 14.7164 10.5339C15.0259 8.76312 10.3359 2.20719 10.2878 2.14812C10.0742 1.84522 9.79606 1.59351 9.47337 1.41117C9.15069 1.22884 8.79155 1.12042 8.42188 1.09375C6.52094 1.09375 1.09375 8.13312 1.09375 9.31984C1.09375 9.38875 1.19328 16.3931 9.83062 25.1792C18.6069 33.8067 25.6112 33.9062 25.6802 33.9062C26.8669 33.9062 33.9062 28.4791 33.9062 26.5781C33.8796 26.2083 33.7711 25.8491 33.5885 25.5264C33.406 25.2036 33.154 24.9255 32.8508 24.7122ZM25.5598 31.7122C24.6039 31.6334 18.7261 30.858 11.3772 23.6381C4.12016 16.2498 3.36437 10.3556 3.28891 9.44234C4.72257 7.19211 6.45399 5.14612 8.43609 3.36C8.47984 3.40375 8.53781 3.46937 8.61219 3.55469C10.1323 5.62978 11.4418 7.85123 12.5212 10.1861C12.1702 10.5392 11.7992 10.8719 11.41 11.1825C10.8065 11.6424 10.2522 12.1636 9.75625 12.7378L9.49047 13.1097L9.56922 13.5592C9.80069 14.5619 10.1552 15.5321 10.6247 16.4478C12.3068 19.9019 15.0979 22.6926 18.5522 24.3742C19.4677 24.8444 20.438 25.1993 21.4408 25.4308L21.8903 25.5095L22.2622 25.2437C22.8386 24.7456 23.362 24.1892 23.8241 23.5834C24.1664 23.1744 24.6247 22.6286 24.7975 22.4744C27.139 23.5528 29.3661 24.8638 31.4453 26.3878C31.5361 26.4644 31.5995 26.5234 31.6422 26.5617C29.8564 28.5444 27.8103 30.2763 25.5598 31.71V31.7122Z" fill="#0014B8"/>
</g>
</g>
</svg>
