<svg width="43" height="43" viewBox="0 0 43 43" fill="none" xmlns="http://www.w3.org/2000/svg">
<g id="pin (8) 1">
<g id="Layer_1">
<g id="Group">
<path id="Vector" d="M21.5012 41.4002C21.1357 41.4002 20.7849 41.251 20.531 40.9863L9.56463 29.5564C8.46678 28.4128 7.67666 27.3902 7.08003 26.3381C3.41966 19.8827 4.53228 11.7073 9.78366 6.45595C16.2444 -0.00614858 26.7566 -0.00614858 33.2173 6.45595C38.47 11.7073 39.5813 19.8827 35.9223 26.3367C35.3243 27.3902 34.5342 28.4128 33.4363 29.5564L22.47 40.9863C22.2174 41.2497 21.8667 41.4002 21.5012 41.4002ZM21.5012 4.29654C17.9456 4.29654 14.39 5.6497 11.6837 8.35601C7.28294 12.7554 6.35172 19.6059 9.41681 25.0118C9.90056 25.8637 10.5644 26.717 11.5023 27.6966L21.5012 38.1147L31.4973 27.6953C31.9851 27.2263 32.8411 26.3273 33.5842 25.0104C36.4934 19.8518 35.3606 12.3994 31.3173 8.35466C28.6123 5.6497 25.0567 4.29654 21.5012 4.29654Z" fill="#0014B8"/>
</g>
<g id="Group_2">
<path id="Vector_2" d="M21.5 26.875C17.0535 26.875 13.4375 23.259 13.4375 18.8125C13.4375 18.0707 14.0395 17.4688 14.7812 17.4688C15.523 17.4688 16.125 18.0707 16.125 18.8125C16.125 21.7768 18.5357 24.1875 21.5 24.1875C24.4643 24.1875 26.875 21.7768 26.875 18.8125C26.875 18.0707 27.477 17.4688 28.2188 17.4688C28.9605 17.4688 29.5625 18.0707 29.5625 18.8125C29.5625 23.259 25.9465 26.875 21.5 26.875Z" fill="#0014B8"/>
</g>
</g>
</g>
</svg>
