<svg width="22" height="22" viewBox="0 0 22 22" fill="none" xmlns="http://www.w3.org/2000/svg">
<path d="M17.9037 13.0703H4.09639L1.33496 18.5932H20.6651L17.9037 13.0703Z" stroke="#0014B8" stroke-miterlimit="10" stroke-linecap="round" stroke-linejoin="round"/>
<path d="M17.904 4.09766H4.09668V13.0724H17.904V4.09766Z" stroke="#0014B8" stroke-miterlimit="10" stroke-linecap="round" stroke-linejoin="round"/>
<path d="M19.2846 0.644531H2.71582V4.09634H19.2846V0.644531Z" stroke="#0014B8" stroke-miterlimit="10" stroke-linecap="round" stroke-linejoin="round"/>
<path d="M20.6652 18.5938H1.33496V21.3552H20.6652V18.5938Z" stroke="#0014B8" stroke-miterlimit="10" stroke-linecap="round" stroke-linejoin="round"/>
<path d="M14.452 13.07C15.2146 13.07 15.8327 12.4519 15.8327 11.6893C15.8327 10.9268 15.2146 10.3086 14.452 10.3086C13.6895 10.3086 13.0713 10.9268 13.0713 11.6893C13.0713 12.4519 13.6895 13.07 14.452 13.07Z" stroke="#0014B8" stroke-miterlimit="10" stroke-linecap="round" stroke-linejoin="round"/>
<path d="M5.47754 15.832H6.16788" stroke="#0014B8" stroke-miterlimit="10" stroke-linecap="round" stroke-linejoin="round"/>
<path d="M8.92871 15.832H9.61909" stroke="#0014B8" stroke-miterlimit="10" stroke-linecap="round" stroke-linejoin="round"/>
<path d="M13.0713 15.832H15.8328" stroke="#0014B8" stroke-miterlimit="10" stroke-linecap="round" stroke-linejoin="round"/>
<path d="M14.4521 13.0703V15.8318" stroke="#0014B8" stroke-miterlimit="10" stroke-linecap="round" stroke-linejoin="round"/>
</svg>
