<svg width="50" height="50" viewBox="0 0 50 50" fill="none" xmlns="http://www.w3.org/2000/svg">
<path d="M9.36816 0C8.26359 0 7.36816 0.89543 7.36816 2V9.47373V11.0526V48C7.36816 49.1046 8.26359 50 9.36816 50H40.6313C41.7359 50 42.6313 49.1046 42.6313 48V11.0526V9.47373V2C42.6313 0.895432 41.7359 0 40.6313 0H9.36816ZM41.0523 46.4211C41.0523 47.5257 40.1569 48.4211 39.0523 48.4211H10.9471C9.8425 48.4211 8.94707 47.5257 8.94707 46.4211V13.0526C8.94707 11.9481 9.8425 11.0526 10.9471 11.0526H39.0523C40.1569 11.0526 41.0523 11.9481 41.0523 13.0526V46.4211ZM41.0523 7.47373C41.0523 8.5783 40.1569 9.47373 39.0523 9.47373H10.9471C9.8425 9.47373 8.94707 8.5783 8.94707 7.47373V3.57891C8.94707 2.47434 9.8425 1.57891 10.9471 1.57891H39.0523C40.1569 1.57891 41.0523 2.47434 41.0523 3.57891V7.47373Z" fill="#0014B8"/>
<path d="M14.6846 13.6836C14.1323 13.6836 13.6846 14.1313 13.6846 14.6836V16.8415V18.4204V32.631V41.631C13.6846 42.1832 14.1323 42.631 14.6846 42.631H35.3161C35.8684 42.631 36.3161 42.1832 36.3161 41.631V32.631V18.4205V16.8416V14.6837C36.3161 14.1314 35.8684 13.6837 35.3161 13.6837L14.6846 13.6836ZM34.7372 40.052C34.7372 40.6043 34.2895 41.052 33.7372 41.052H16.2636C15.7113 41.052 15.2636 40.6043 15.2636 40.052V35.21C15.2636 34.6577 15.7113 34.21 16.2636 34.21H16.8425H33.1583H33.7372C34.2895 34.21 34.7372 34.6577 34.7372 35.21V40.052ZM19.4215 32.631C18.8692 32.631 18.4215 32.1832 18.4215 31.631V22.5783C18.4215 22.026 18.8692 21.5783 19.4215 21.5783H30.5794C31.1317 21.5783 31.5794 22.026 31.5794 22.5783V31.631C31.5794 32.1832 31.1317 32.631 30.5794 32.631H19.4215ZM34.7372 32.631H34.1583C33.606 32.631 33.1583 32.1832 33.1583 31.631V20.9994C33.1583 20.4471 32.7106 19.9994 32.1583 19.9994H17.8425C17.2902 19.9994 16.8425 20.4471 16.8425 20.9994V31.8415C16.8425 32.2775 16.489 32.631 16.053 32.631V32.631C15.617 32.631 15.2636 32.2775 15.2636 31.8415V19.4205C15.2636 18.8682 15.7113 18.4205 16.2636 18.4205H33.7373C34.2896 18.4205 34.7373 18.8682 34.7373 19.4205V32.6309C34.7373 32.6309 34.7373 32.631 34.7372 32.631V32.631ZM34.7372 16.8415H16.053C15.617 16.8415 15.2636 16.4881 15.2636 16.052V16.052C15.2636 15.616 15.617 15.2626 16.053 15.2626H33.9479C34.3839 15.2626 34.7373 15.616 34.7373 16.052V16.8414C34.7373 16.8415 34.7373 16.8415 34.7372 16.8415V16.8415Z" fill="#0014B8"/>
<path d="M12.3689 20H10.2637V21.5789H12.3689V20Z" fill="#0014B8"/>
<path d="M12.3689 23.1562H10.2637V24.7352H12.3689V23.1562Z" fill="#0014B8"/>
<path d="M12.3689 26.3164H10.2637V27.8953H12.3689V26.3164Z" fill="#0014B8"/>
<path d="M12.3689 29.4727H10.2637V31.0516H12.3689V29.4727Z" fill="#0014B8"/>
<path d="M39.7371 20H37.6318V21.5789H39.7371V20Z" fill="#0014B8"/>
<path d="M39.7371 23.1562H37.6318V24.7352H39.7371V23.1562Z" fill="#0014B8"/>
<path d="M39.7371 26.3164H37.6318V27.8953H39.7371V26.3164Z" fill="#0014B8"/>
<path d="M39.7371 29.4727H37.6318V31.0516H39.7371V29.4727Z" fill="#0014B8"/>
<path d="M21.5262 35.7891H19.9473V37.368H21.5262V35.7891Z" fill="#0014B8"/>
<path d="M18.368 35.7891H16.7891V37.368H18.368V35.7891Z" fill="#0014B8"/>
<path d="M24.6844 35.7891H23.1055V37.368H24.6844V35.7891Z" fill="#0014B8"/>
<path d="M18.368 37.8945H16.7891V39.4734H18.368V37.8945Z" fill="#0014B8"/>
<path d="M24.6844 37.8945H23.1055V39.4734H24.6844V37.8945Z" fill="#0014B8"/>
<path d="M21.5262 37.8945H19.9473V39.4734H21.5262V37.8945Z" fill="#0014B8"/>
<path d="M33.4214 35.7891H28.1582V37.368H33.4214V35.7891Z" fill="#0014B8"/>
<path d="M33.4214 37.8945H28.1582V39.4734H33.4214V37.8945Z" fill="#0014B8"/>
<path d="M27.1051 24.2109H22.8945V25.7898H27.1051V24.2109Z" fill="#0014B8"/>
<path d="M29.2102 27.3672H20.7891V28.9461H29.2102V27.3672Z" fill="#0014B8"/>
</svg>
