<svg width="26" height="26" viewBox="0 0 26 26" fill="none" xmlns="http://www.w3.org/2000/svg">
<g clip-path="url(#clip0_668_1745)">
<path d="M11.3057 14.6602L12.0518 14.3375L12.3743 15.0832L11.6282 15.4059L11.3057 14.6602Z" fill="#0014B8"/>
<path d="M11.9629 16.1484L12.7091 15.8249L13.0016 16.4995L12.2554 16.8231L11.9629 16.1484Z" fill="#0014B8"/>
<path d="M10.6592 13.168L11.4053 12.8453L11.7278 13.591L10.9817 13.9137L10.6592 13.168Z" fill="#0014B8"/>
<path d="M16.6562 6.90625V7.71875H18.5908L19.942 10.7327L20.683 10.4004L19.1169 6.90625H16.6562Z" fill="#0014B8"/>
<path d="M3.25 6.09375C4.81772 6.09375 6.09375 4.81772 6.09375 3.25C6.09375 1.68228 4.81772 0.40625 3.25 0.40625H2.84375V1.11963L2.94572 1.23459C3.14194 1.45681 3.25 1.73956 3.25 2.03125C3.25 2.70319 2.70319 3.25 2.03125 3.25C1.73956 3.25 1.45681 3.14194 1.23459 2.94572L1.11963 2.84375H0.40625V3.25C0.40625 4.81772 1.68228 6.09375 3.25 6.09375ZM2.03125 4.0625C3.15128 4.0625 4.0625 3.15128 4.0625 2.03125C4.0625 1.79319 4.02025 1.55919 3.93859 1.339C4.72062 1.62175 5.28125 2.37169 5.28125 3.25C5.28125 4.37003 4.37003 5.28125 3.25 5.28125C2.37169 5.28125 1.62175 4.72062 1.339 3.93859C1.55919 4.02025 1.79319 4.0625 2.03125 4.0625Z" fill="#0014B8"/>
<path d="M24.3754 8.57472L24.3762 8.53125C24.3762 8.20747 24.2982 7.89669 24.1585 7.61922C24.9864 7.36288 25.5938 6.59872 25.5938 5.6875C25.5938 5.18334 25.4044 4.70356 25.0664 4.33225C25.1469 4.11288 25.1875 3.88619 25.1875 3.65625C25.1875 2.53622 24.2763 1.625 23.1562 1.625C22.9251 1.625 22.6996 1.66847 22.4847 1.74363C22.0817 0.951437 21.2607 0.40625 20.3125 0.40625C19.771 0.40625 19.2465 0.5915 18.8207 0.925031C18.4519 0.59475 17.9709 0.40625 17.4688 0.40625C16.6103 0.40625 15.8746 0.9425 15.5797 1.70991C15.4042 1.65994 15.2226 1.625 15.0312 1.625C13.9112 1.625 13 2.53622 13 3.65625C13 3.88863 13.0427 4.11856 13.1198 4.33591C12.8826 4.59956 12.7083 4.92091 12.6348 5.28125H5.83091L0.40625 17.3818V18.2813H14.5043C14.3353 18.6444 14.2188 19.0491 14.2188 19.5199C14.2188 20.1476 14.4247 20.7204 14.7822 21.2058L11.0878 24.9003L11.6622 25.4747L15.3416 21.7953C15.5452 21.9623 15.7727 22.1106 16.0205 22.2377L14.2825 24.9693L14.9683 25.4057L16.7907 22.5416C17.1255 22.6399 17.4818 22.7078 17.8579 22.735L17.875 25.5962L18.6875 25.5913L18.67 22.7378C19.1242 22.7134 19.5414 22.648 19.9193 22.544L22.0151 25.4264L22.672 24.9486L20.7057 22.2446C20.9211 22.1353 21.1165 22.0086 21.2916 21.866L24.9003 25.4747L25.4747 24.9003L21.8408 21.2664C22.1674 20.7854 22.3438 20.2 22.3438 19.5199C22.3438 19.0982 22.2491 18.6851 22.1041 18.2813H25.5938V17.3818L22.5262 10.5385C23.5523 10.4203 24.3632 9.58425 24.3754 8.57472ZM14.625 4.46875V3.65625C14.3439 3.65625 14.0762 3.71394 13.8324 3.81753C13.8251 3.76391 13.8125 3.7115 13.8125 3.65625C13.8125 2.98431 14.3593 2.4375 15.0312 2.4375C15.7032 2.4375 16.25 2.98431 16.25 3.65625H17.0625C17.0625 3.01966 16.7623 2.45781 16.3024 2.08488C16.4539 1.57869 16.9219 1.21875 17.4688 1.21875C17.8628 1.21875 18.2349 1.41334 18.4641 1.73834L18.7602 2.158L19.1002 1.77328C19.4167 1.41578 19.8469 1.21875 20.3125 1.21875C21.2087 1.21875 21.9375 1.94756 21.9375 2.84375C21.9375 3.73994 21.2087 4.46875 20.3125 4.46875V5.28125C21.6568 5.28125 22.75 4.18803 22.75 2.84375C22.75 2.73325 22.7402 2.62559 22.7256 2.51916C22.8625 2.46716 23.0072 2.4375 23.1562 2.4375C23.8282 2.4375 24.375 2.98431 24.375 3.65625C24.375 3.85206 24.323 4.04666 24.221 4.23394L24.0589 4.53131L24.3226 4.74419C24.6143 4.97981 24.7812 5.3235 24.7812 5.6875C24.7812 6.35944 24.2344 6.90625 23.5625 6.90625V6.90747C23.4028 6.78722 23.2245 6.6885 23.0299 6.61863L22.7561 7.38359C23.2387 7.55666 23.5633 8.01816 23.5629 8.54953C23.5548 9.21172 22.9803 9.75 22.2824 9.75H22.1727L20.1695 5.28125H13.481C13.6492 4.80959 14.0961 4.46875 14.625 4.46875ZM9.52697 16.4848C7.57494 14.1424 6.5 11.1735 6.5 8.125V7.64725L10.7559 17.4688H10.3464L9.52697 16.4848ZM9.28891 17.4688H2.89859L3.28494 17.0052C4.63938 15.3798 5.59284 13.4696 6.09375 11.438C6.59466 13.4692 7.54812 15.3794 8.90256 17.0048L9.28891 17.4688ZM5.6875 7.58672V8.125C5.6875 11.1735 4.61256 14.1424 2.66053 16.4852L1.84113 17.4688H1.25775L5.6875 7.58672ZM15.0312 19.5199C15.0312 18.7822 15.4302 18.237 15.8523 17.6597C16.131 17.2798 16.4158 16.8907 16.5596 16.4499C16.8123 16.5982 17.0625 16.8127 17.0625 17.0625V17.4688H17.875V17.0625C17.875 16.7696 17.7722 16.5214 17.6207 16.3146C17.9441 15.5383 18.7139 15.0418 19.2022 14.7936C19.3773 15.2957 19.7442 15.8413 20.1508 16.4462C20.7976 17.4086 21.5312 18.499 21.5312 19.5199C21.5312 20.6785 20.9089 21.2924 20.1463 21.6121C20.2516 21.3753 20.3125 21.1153 20.3125 20.8402C20.3125 20.4084 20.1638 19.9843 19.8941 19.6467L18.2812 17.6308L16.6688 19.6467C16.3987 19.9838 16.25 20.408 16.25 20.8402C16.25 21.0754 16.2983 21.2981 16.3768 21.5065C15.5521 21.0771 15.0312 20.3625 15.0312 19.5199ZM18.2613 21.9375C18.2085 21.9375 18.1573 21.9338 18.1053 21.9318C17.526 21.903 17.0625 21.4264 17.0625 20.8402C17.0625 20.592 17.1478 20.3483 17.3034 20.1545L18.2812 18.9317L19.2595 20.1549C19.4147 20.3483 19.5 20.592 19.5 20.8402C19.5 21.4354 19.0227 21.9192 18.4312 21.9347C18.3735 21.9359 18.3158 21.9375 18.2613 21.9375ZM21.7401 17.4688C21.4667 16.954 21.1384 16.4592 20.8248 15.9928C20.373 15.3213 19.9062 14.627 19.9062 14.2188V13.6508L19.3688 13.8344C19.2928 13.86 17.6918 14.4211 16.9849 15.7601C16.6757 15.5748 16.3991 15.4846 16.3727 15.4765L15.8438 15.3087V15.8637C15.8438 16.2963 15.5443 16.7058 15.197 17.1799C15.1283 17.2738 15.0585 17.3704 14.989 17.4688H11.6419L6.71288 6.09375H19.6434L24.7427 17.4688H21.7401Z" fill="#0014B8"/>
<path d="M15.0312 6.90625H15.8438V7.71875H15.0312V6.90625Z" fill="#0014B8"/>
<path d="M13.4062 6.90625H14.2188V7.71875H13.4062V6.90625Z" fill="#0014B8"/>
</g>
<defs>
<clipPath id="clip0_668_1745">
<rect width="26" height="26" fill="white"/>
</clipPath>
</defs>
</svg>
