<svg width="25" height="25" viewBox="0 0 25 25" fill="none" xmlns="http://www.w3.org/2000/svg">
<path d="M13.3875 3.85938H4.11655C3.82847 3.85938 3.59277 4.09508 3.59277 4.38315V10.5114C3.59277 10.7995 3.82847 11.0352 4.11655 11.0352H13.3875C13.6755 11.0352 13.9112 10.7995 13.9112 10.5114V4.38315C13.9112 4.09508 13.6755 3.85938 13.3875 3.85938ZM12.8637 9.9876H4.64033V4.90693H12.8637V9.9876Z" fill="#0014B8"/>
<path d="M24.471 22.6632H15.6924V14.2827H16.5462C17.3214 14.2827 17.9499 14.9165 17.9447 15.6917C17.9447 15.6969 17.9447 15.6969 17.9447 15.7021V17.153C17.9447 18.6877 19.186 19.929 20.7207 19.929C22.2554 19.929 23.4968 18.6877 23.4968 17.153V8.86682C23.4968 8.00782 23.1772 7.18025 22.5906 6.54648L18.4947 1.8796L17.709 2.57099L20.8831 6.19031C19.736 6.38411 18.9608 7.46833 19.1546 8.61541C19.3222 9.63154 20.2022 10.3753 21.234 10.3753C21.6688 10.3701 22.093 10.2391 22.4492 9.98771V17.153C22.4492 18.1063 21.674 18.8815 20.7207 18.8815C19.7674 18.8815 18.9922 18.1063 18.9922 17.153V15.7021C18.9975 14.3456 17.9028 13.2404 16.5514 13.2351H16.5462H15.6924V3.47713C15.6924 2.28291 14.7287 1.29297 13.5345 1.29297H3.80264C2.60842 1.29297 1.65514 2.28815 1.65514 3.47713V22.6632H0.52378C0.235701 22.6632 0 22.8989 0 23.187C0 23.475 0.235701 23.7107 0.52378 23.7107H24.4762C24.7643 23.7107 25 23.475 25 23.187C25 22.8989 24.7643 22.6632 24.471 22.6632ZM21.234 9.32251C20.6474 9.32251 20.176 8.84587 20.176 8.26448C20.176 7.68308 20.6526 7.20644 21.234 7.20644C21.8207 7.20644 22.2921 7.68308 22.2921 8.26448C22.2921 8.84587 21.8154 9.32251 21.234 9.32251ZM14.6449 22.6632H2.7027V3.47713C2.7027 2.85907 3.18458 2.34053 3.80264 2.34053H13.5345C14.1525 2.34053 14.6449 2.86431 14.6449 3.47713V22.6632Z" fill="#0014B8"/>
</svg>
