<svg width="24" height="24" viewBox="0 0 24 24" fill="none" xmlns="http://www.w3.org/2000/svg">
<path d="M6.50002 16H3.50002C3.22402 16 3 16.224 3 16.5V19.5C3 19.776 3.22402 20 3.50002 20H6.50002C6.77602 20 7.00003 19.776 7.00003 19.5V16.5C6.99998 16.224 6.77602 16 6.50002 16ZM6 19H3.99998V17H6V19Z" fill="#0014B8"/>
<path d="M17.5 15H20.5C20.776 15 21 14.776 21 14.5V11.5C21 11.224 20.776 11 20.5 11H17.5C17.224 11 17 11.224 17 11.5V14.5C17 14.776 17.224 15 17.5 15ZM18 12H20V14H18V12Z" fill="#0014B8"/>
<path d="M17.5 10H20.5C20.776 10 21 9.77602 21 9.50002V6.50002C21 6.22402 20.776 6 20.5 6H17.5C17.224 6 17 6.22402 17 6.50002V9.50002C17 9.77606 17.224 10 17.5 10ZM18 7.00003H20V9.00005H18V7.00003Z" fill="#0014B8"/>
<path d="M17.5 20H20.5C20.776 20 21 19.776 21 19.5V16.5C21 16.224 20.776 16 20.5 16H17.5C17.224 16 17 16.224 17 16.5V19.5C17 19.776 17.224 20 17.5 20ZM18 17H20V19H18V17Z" fill="#0014B8"/>
<path d="M23.5 5.00002C23.776 5.00002 24 4.776 24 4.5V2.49998C24 2.22398 23.776 1.99997 23.5 1.99997H21V0.499969C21 0.224016 20.776 0 20.5 0H3.50002C3.22402 0 3 0.224016 3 0.500016V2.00002H0.500016C0.224016 2.00002 0 2.22398 0 2.49998V4.5C0 4.776 0.224016 5.00002 0.500016 5.00002H1.00003V21H0.500016C0.224016 21 0 21.224 0 21.5V23.5C0 23.776 0.224016 24 0.500016 24H23.5C23.776 24 24 23.776 24 23.5V21.5C24 21.224 23.776 21 23.5 21H23V5.00002H23.5ZM3.99998 0.999984H20V1.99997H3.99998V0.999984ZM23 23H0.999984V22H23V23H23ZM13.5 16H10.5C10.224 16 9.99998 16.224 9.99998 16.5V21H2.00002V5.00002H22V21H14V16.5C14 16.224 13.776 16 13.5 16ZM13 17V21H11V17H13ZM0.999984 3.99998V3H23V3.99998H0.999984Z" fill="#0014B8"/>
<path d="M14 11.5C14 11.224 13.776 11 13.5 11H10.5C10.224 11 10 11.224 10 11.5V14.5C10 14.776 10.224 15 10.5 15H13.5C13.776 15 14 14.776 14 14.5V11.5ZM13 14H11V12H13V14Z" fill="#0014B8"/>
<path d="M10.5 10H13.5C13.776 10 14 9.77602 14 9.50002V6.50002C14 6.22402 13.776 6 13.5 6H10.5C10.224 6 10 6.22402 10 6.50002V9.50002C10 9.77606 10.224 10 10.5 10ZM11 7.00003H13V9.00005H11V7.00003Z" fill="#0014B8"/>
<path d="M6.50002 6H3.50002C3.22402 6 3 6.22402 3 6.50002V9.50002C3 9.77602 3.22402 10 3.50002 10H6.50002C6.77602 10 7.00003 9.77602 7.00003 9.50002V6.50002C6.99998 6.22402 6.77602 6 6.50002 6ZM6 9H3.99998V6.99998H6V9Z" fill="#0014B8"/>
<path d="M6.50002 11H3.50002C3.22402 11 3 11.224 3 11.5V14.5C3 14.776 3.22402 15 3.50002 15H6.50002C6.77602 15 7.00003 14.776 7.00003 14.5V11.5C6.99998 11.224 6.77602 11 6.50002 11ZM6 14H3.99998V12H6V14Z" fill="#0014B8"/>
</svg>
