<svg width="27" height="27" viewBox="0 0 27 27" fill="none" xmlns="http://www.w3.org/2000/svg">
<mask id="mask0_668_1834" style="mask-type:luminance" maskUnits="userSpaceOnUse" x="0" y="0" width="27" height="27">
<path d="M0 1.90735e-06H27V27H0V1.90735e-06Z" fill="white"/>
</mask>
<g mask="url(#mask0_668_1834)">
<path d="M1.05469 21.8848L4.79129 25.4381C5.57123 26.1805 6.81929 26.0974 7.49382 25.258L13.2891 17.1914" stroke="#0014B8" stroke-width="2" stroke-miterlimit="10" stroke-linecap="round" stroke-linejoin="round"/>
<path d="M12.1816 25.9453H21.8735C23.0412 25.9453 23.8359 25.1084 23.8359 23.9113C23.8359 23.1863 23.4041 22.5813 22.8105 22.2539C22.7262 22.2074 22.6758 22.1681 22.6758 22.1317C22.6758 22.043 22.8249 21.9902 22.9395 21.9902H23.1773C24.2627 21.9902 25.1508 21.1122 25.1508 20.0391C25.1508 19.321 24.7532 18.6903 24.1649 18.3516C24.0272 18.2723 23.9414 18.2461 23.9414 18.163C23.9414 18.1101 24.094 18.0825 24.2051 18.0765C25.1843 18.0235 25.9453 17.1386 25.9453 16.1367C25.9453 15.2271 25.3145 14.4577 24.4687 14.2443C24.3659 14.2183 24.2051 14.1328 24.2051 14.0273C24.2051 13.9725 24.2613 13.9092 24.3633 13.8385C24.8722 13.4854 25.207 12.8971 25.207 12.2344C25.207 11.1612 24.329 10.2832 23.2559 10.2832H16.3174C15.2414 10.2832 13.9634 9.54861 13.9162 8.31247C13.9162 7.75195 15.1202 5.49708 15.9295 3.84961C16.0102 3.61494 16.0505 3.36155 16.0424 3.09772C16.008 1.97511 15.0783 1.06582 13.9552 1.05479C13.3568 1.04894 12.8151 1.29231 12.4277 1.6875L11.8247 2.53257L6.68777 10.5315C6.36504 11.0341 5.80885 11.3379 5.21163 11.3379H1.05469" stroke="#0014B8" stroke-width="2" stroke-miterlimit="10" stroke-linecap="round"/>
</g>
</svg>
