<svg width="34" height="34" viewBox="0 0 34 34" fill="none" xmlns="http://www.w3.org/2000/svg">
<g clip-path="url(#clip0_668_1826)">
<path d="M3.86976 24.1512H1.0625C0.805773 24.1512 0.597656 24.3593 0.597656 24.616V32.9375C0.597656 33.1652 0.762543 33.3594 0.987195 33.3962C1.01256 33.4004 1.0378 33.4024 1.06283 33.4024C1.25926 33.4024 1.43836 33.2774 1.50297 33.0861L4.31023 24.7645C4.35811 24.6227 4.33467 24.4665 4.24741 24.3449C4.16009 24.2232 4.0195 24.1512 3.86976 24.1512ZM1.52734 30.1054V25.0808H3.22236L1.52734 30.1054ZM32.9375 24.1512H30.1302C29.9805 24.1512 29.84 24.2233 29.7526 24.3449C29.6653 24.4665 29.6419 24.6228 29.6898 24.7645L32.497 33.0861C32.5616 33.2775 32.7407 33.4024 32.9372 33.4024C32.9621 33.4024 32.9874 33.4004 33.0128 33.3962C33.2375 33.3593 33.4023 33.1651 33.4023 32.9375V24.616C33.4023 24.3592 33.1942 24.1512 32.9375 24.1512ZM32.4727 30.1054L30.7776 25.0808H32.4727V30.1054ZM26.8233 24.482C26.7642 24.2856 26.5834 24.1512 26.3782 24.1512H25.0855L23.2311 19.2394C23.1302 18.9714 22.9763 18.7343 22.7734 18.5344L19.4575 14.8635V13.0311L21.746 15.3321C22.0821 15.67 22.5296 15.8568 23.0063 15.8582H23.0114C23.486 15.8582 23.9327 15.674 24.2694 15.3391C24.6074 15.003 24.7942 14.5555 24.7955 14.0789C24.7969 13.6022 24.6125 13.1536 24.2797 12.8191L18.8242 7.21962C18.4138 6.79422 17.8385 6.52886 17.2021 6.52886C16.6372 6.52886 16.3075 6.70557 16.1668 6.78107L16.1477 6.7913C16.1444 6.79303 16.141 6.79482 16.1378 6.79661L11.7655 9.23618C11.238 9.48394 10.8643 9.97249 10.764 10.5466L9.95011 15.1977C9.78058 16.1684 10.4325 17.0961 11.4032 17.2656C11.8736 17.348 12.3476 17.2419 12.7382 16.9674C13.1288 16.6929 13.3891 16.2827 13.4712 15.8127L14.1339 12.0252L14.9467 11.5983V14.9004L9.32118 24.1512H7.62178C7.41665 24.1512 7.23582 24.2856 7.17666 24.482L4.67148 32.8035C4.62911 32.9442 4.65587 33.0968 4.74353 33.2147C4.83119 33.3327 4.96958 33.4023 5.1166 33.4023H9.84811C10.0735 33.4023 10.2663 33.2406 10.3058 33.0188L11.2091 27.9372C11.5556 27.7805 11.8604 27.5223 12.0729 27.174L17.3719 18.4713L19.6908 20.9654L21.7659 26.4618C21.9457 26.9394 22.2936 27.3049 22.7166 27.5187L23.6942 33.0189C23.7337 33.2408 23.9265 33.4024 24.1519 33.4024H28.8835C29.0305 33.4024 29.1689 33.3329 29.2565 33.2149C29.3442 33.0969 29.371 32.9443 29.3286 32.8036L26.8233 24.482ZM23.8659 14.0762C23.8653 14.3045 23.7758 14.5188 23.6139 14.6798C23.452 14.8408 23.2352 14.9269 23.0089 14.9285C22.7806 14.9278 22.5662 14.8383 22.4053 14.6764L19.4576 11.7127V9.20178L23.6173 13.4712C23.7782 13.6331 23.8665 13.8479 23.8659 14.0762ZM9.45864 32.4727H5.74202L7.96736 25.0808H8.75593L8.72492 25.1319C8.45219 25.579 8.36978 26.1056 8.49309 26.6146C8.61634 27.1238 8.93051 27.5543 9.37763 27.8271C9.64684 27.9913 9.94022 28.0819 10.2349 28.1062L9.45864 32.4727ZM11.279 26.6901C11.1356 26.9253 10.9092 27.0904 10.6415 27.1553C10.3738 27.2203 10.0969 27.1768 9.86173 27.0334C9.62658 26.8899 9.46143 26.6635 9.39655 26.3958C9.33174 26.1281 9.37503 25.8512 9.5188 25.6154L15.2651 16.1661C15.3074 16.2205 15.3542 16.2767 15.407 16.338C15.4565 16.3954 15.513 16.461 15.5772 16.5395C15.5835 16.5471 16.7143 17.7639 16.7143 17.7639L11.279 26.6901ZM20.5282 20.5515C20.5069 20.4951 20.4748 20.4434 20.4338 20.3992L16.2875 15.9396C16.2214 15.859 16.1629 15.7911 16.1114 15.7312C15.8765 15.4585 15.8765 15.4585 15.8765 14.9803V10.8289C15.8765 10.6662 15.7913 10.5152 15.652 10.4311C15.5127 10.347 15.3395 10.3417 15.1955 10.4174L13.4993 11.3083C13.3717 11.3754 13.2824 11.4978 13.2575 11.6397L12.5554 15.6526C12.5159 15.8781 12.391 16.0749 12.2036 16.2066C12.0163 16.3383 11.7888 16.3892 11.5631 16.3497C11.0973 16.2684 10.7846 15.8233 10.8659 15.3578L11.6798 10.7067C11.7285 10.4279 11.9116 10.1912 12.1697 10.0736C12.1811 10.0683 12.1923 10.0627 12.2033 10.0566L16.5873 7.61042L16.6062 7.60039C16.7051 7.54727 16.8707 7.45848 17.2021 7.45848C17.5654 7.45848 17.895 7.60557 18.1346 7.84311L18.1342 7.84351L18.1572 7.86708C18.3862 8.10548 18.5279 8.42828 18.5279 8.78415V15.0423C18.5279 15.1574 18.5706 15.2684 18.6478 15.3539L22.0933 19.1682C22.1002 19.1757 22.1073 19.1832 22.1146 19.1903C22.224 19.2964 22.3069 19.423 22.3612 19.5673L24.5662 25.4076C24.6631 25.6653 24.654 25.9453 24.5404 26.1961C24.4267 26.447 24.2222 26.6387 23.9644 26.7358C23.4322 26.9362 22.8364 26.6663 22.6358 26.1337L20.5282 20.5515ZM24.5413 32.4727L23.6981 27.7293C23.8964 27.7196 24.0965 27.6795 24.292 27.6059C24.7822 27.4213 25.1711 27.0568 25.3872 26.5797C25.6031 26.1029 25.6206 25.5707 25.4364 25.0808H26.0326L28.258 32.4727H24.5413ZM19.3166 24.5874C19.3015 24.3423 19.0983 24.1512 18.8527 24.1512H15.1473C14.9017 24.1512 14.6984 24.3423 14.6834 24.5874L14.1703 32.9089C14.1624 33.0369 14.2077 33.1624 14.2956 33.2559C14.3835 33.3494 14.506 33.4023 14.6343 33.4023H19.3659C19.4942 33.4023 19.6166 33.3494 19.7045 33.2559C19.7924 33.1625 19.8377 33.0369 19.8298 32.9089L19.3166 24.5874ZM15.1286 32.4727L15.5843 25.0808H18.4156L18.8714 32.4727H15.1286ZM17.8953 5.89887C19.3568 5.89887 20.5459 4.7098 20.5459 3.24826C20.5459 1.78673 19.3568 0.597656 17.8953 0.597656C16.4338 0.597656 15.2447 1.78673 15.2447 3.24826C15.2447 4.7098 16.4338 5.89887 17.8953 5.89887ZM17.8953 1.52734C18.8442 1.52734 19.6162 2.29932 19.6162 3.24826C19.6162 4.19721 18.8442 4.96918 17.8953 4.96918C16.9464 4.96918 16.1744 4.19721 16.1744 3.24826C16.1744 2.29932 16.9464 1.52734 17.8953 1.52734Z" fill="#0014B8"/>
</g>
<defs>
<clipPath id="clip0_668_1826">
<rect width="34" height="34" fill="white"/>
</clipPath>
</defs>
</svg>
