<svg width="32" height="32" viewBox="0 0 32 32" fill="none" xmlns="http://www.w3.org/2000/svg">
<g clip-path="url(#clip0_668_1849)">
<path d="M13.5625 22.8125C13.9075 22.8125 14.1875 22.5325 14.1875 22.1875C14.1875 21.8425 13.9075 21.5625 13.5625 21.5625C13.2175 21.5625 12.9375 21.8425 12.9375 22.1875C12.9375 22.5325 13.2175 22.8125 13.5625 22.8125Z" fill="#0014B8"/>
<path d="M0.245606 24.2544L7.74562 31.7544C7.98976 31.9986 8.38526 31.9986 8.62941 31.7544L12.7544 27.6294C12.9986 27.3853 12.9986 26.9898 12.7544 26.7456L12.5713 26.5625H21.5806C22.3719 26.5625 23.127 26.2659 23.7093 25.7254L31.2915 18.6192C32.0174 17.9451 32.2579 16.8743 31.8897 15.9549C31.6236 15.2893 31.0801 14.78 30.399 14.5576C29.7176 14.3347 28.9786 14.4251 28.3706 14.805C28.3667 14.8074 26.6873 15.9094 26.6873 15.9094C26.6758 12.5215 24.6282 8.9087 21.8096 7.28224C21.9705 7.09742 22.097 6.87867 22.1775 6.6338C22.5 5.6526 21.9639 4.59058 20.9812 4.26612C20.9505 4.25587 20.9197 4.24683 20.8889 4.23731L22.4978 1.34717C22.5904 1.18091 22.6023 0.981447 22.5298 0.805665C22.4575 0.62964 22.3091 0.496094 22.1262 0.443116C20.9727 0.107666 19.7737 -0.0625 18.5625 -0.0625C17.3516 -0.0625 16.1524 0.107666 14.9988 0.442872C14.8159 0.496095 14.6675 0.629395 14.595 0.805421C14.5227 0.981447 14.5344 1.18091 14.6272 1.34717L16.2361 4.23731C16.2049 4.24708 16.1736 4.25635 16.1424 4.26661C15.1612 4.59058 14.6253 5.65235 14.9478 6.63429C15.0283 6.87867 15.1558 7.09669 15.3172 7.28175C12.4566 8.93238 10.4375 12.5823 10.4375 15.9375C10.4375 16.0291 10.4397 16.1194 10.4426 16.209C9.32325 16.5144 8.28248 17.0708 7.40724 17.8372L5.50782 19.499L5.2544 19.2456C5.01026 19.0015 4.61475 19.0015 4.37061 19.2456L0.245606 23.3706C0.00146476 23.6148 0.00146476 24.0103 0.245606 24.2544ZM16.1145 1.44898C16.9153 1.27515 17.7356 1.1875 18.5625 1.1875C19.3894 1.1875 20.2097 1.27515 21.0108 1.44898L19.6179 3.95069C18.9158 3.85279 18.2088 3.85279 17.5073 3.95069L16.1145 1.44898ZM16.5325 5.45411C17.815 5.03443 19.2132 5.00269 20.5908 5.45362C20.9187 5.56177 21.0977 5.91627 20.99 6.24342C20.909 6.48975 20.6892 6.65699 20.4346 6.67188C19.2022 6.28004 17.9221 6.27931 16.6902 6.67066C16.6902 6.67066 16.6902 6.67066 16.69 6.67066C16.4331 6.65455 16.2151 6.48658 16.135 6.24366C16.0274 5.91602 16.2063 5.56153 16.5325 5.45411ZM16.8782 7.92604C17.9619 7.53565 19.0847 7.52638 20.1712 7.89967C23.075 8.89821 25.4375 12.5039 25.4375 15.9375C25.4375 16.2285 25.4192 16.5059 25.3831 16.7652L22.3789 18.7361C21.9138 18.1599 21.209 17.8125 20.4375 17.8125H19.1875V17.0801C19.9151 16.822 20.4375 16.1272 20.4375 15.3125C20.4375 14.2786 19.5965 13.4375 18.5625 13.4375C18.218 13.4375 17.9375 13.1572 17.9375 12.8125C17.9375 12.4678 18.218 12.1875 18.5625 12.1875C18.784 12.1875 19.0176 12.3006 19.2386 12.5142C19.4866 12.7542 19.8824 12.7476 20.1223 12.4998C20.3623 12.2517 20.3557 11.856 20.1077 11.616C19.7906 11.3089 19.4732 11.1353 19.1875 11.0405V10.3125C19.1875 9.9673 18.9077 9.68751 18.5625 9.68751C18.2173 9.68751 17.9375 9.9673 17.9375 10.3125V11.0449C17.2102 11.303 16.6875 11.9978 16.6875 12.8125C16.6875 13.8465 17.5286 14.6875 18.5625 14.6875C18.9073 14.6875 19.1875 14.9678 19.1875 15.3125C19.1875 15.6572 18.9073 15.9375 18.5625 15.9375C18.2954 15.9375 18.0073 15.7696 17.751 15.4646C17.5288 15.2005 17.1345 15.1663 16.8704 15.3884C16.6062 15.6106 16.572 16.0049 16.7942 16.2691C17.1282 16.6665 17.5213 16.9434 17.9375 17.083V17.8125H17.7295C17.4224 17.8125 17.2844 17.6123 17.0681 17.4724C15.7476 16.4827 14.1118 15.9375 12.4619 15.9375C12.2039 15.9375 11.9453 15.9509 11.688 15.9771C11.688 15.9639 11.6875 15.9509 11.6875 15.9375C11.6875 12.552 14.0161 8.95826 16.8782 7.92604ZM8.23048 18.7776C9.4048 17.7493 10.9138 17.1875 12.4619 17.1875C13.8433 17.1875 15.2127 17.6438 16.3176 18.4722C16.4771 18.5655 16.9209 19.0625 17.7293 19.0625H20.4375C21.149 19.0625 21.6875 19.6409 21.6875 20.3125C21.6875 21.0017 21.1267 21.5625 20.4375 21.5625H16.0625C15.7173 21.5625 15.4375 21.8423 15.4375 22.1875C15.4375 22.5327 15.7173 22.8125 16.0625 22.8125H20.4375C21.8159 22.8125 22.9375 21.6909 22.9375 20.3125C22.9375 20.1692 22.9248 20.0279 22.9009 19.8887L29.0384 15.8618C29.3304 15.6814 29.6846 15.6392 30.0108 15.7456C30.3389 15.853 30.6009 16.0984 30.729 16.4192C30.9095 16.8694 30.7962 17.3736 30.4388 17.7053L22.8567 24.8113C22.5086 25.1346 22.0554 25.3125 21.5806 25.3125H11.3213L6.39381 20.3848L8.23048 18.7776ZM4.81251 20.5713L11.4287 27.1875L8.18751 30.4288L1.57129 23.8125L4.81251 20.5713Z" fill="#0014B8"/>
</g>
<defs>
<clipPath id="clip0_668_1849">
<rect width="32" height="32" fill="white"/>
</clipPath>
</defs>
</svg>
