<svg width="44" height="36" viewBox="0 0 44 36" fill="none" xmlns="http://www.w3.org/2000/svg">
<path d="M3.25415 0.617188C1.54092 0.617188 0.123047 2.0475 0.123047 3.77578V27.9383C0.123047 29.6666 1.54092 31.0949 3.25415 31.0949H22.6552V32.6711C22.6552 34.3994 24.0629 35.8194 25.7761 35.8194H34.8968C36.61 35.8194 38.0177 34.3994 38.0177 32.6711V31.0949H40.7562C42.4694 31.0949 43.8771 29.6666 43.8771 27.9383V3.77578C43.8771 2.0475 42.4694 0.617188 40.7562 0.617188H3.25415ZM3.25415 2.72086H40.7562C41.3513 2.72086 41.7938 3.17546 41.7938 3.77578V8.49828H2.20841V3.77578C2.20841 3.17546 2.65905 2.72086 3.25415 2.72086ZM2.20841 10.602H41.7938V27.9383C41.7938 28.5387 41.3513 28.9932 40.7562 28.9932H38.0177V25.7279C38.0177 24.3192 37.0761 23.1287 35.8022 22.7315V20.8412C35.8022 17.8066 33.3467 15.3327 30.3355 15.3327C27.3242 15.3327 24.8687 17.8066 24.8687 20.8412V22.7315C23.5953 23.129 22.6552 24.3195 22.6552 25.7279V28.9932H3.25415C2.65905 28.9932 2.20841 28.5387 2.20841 27.9383V10.602ZM30.3355 17.4363C32.2312 17.4363 33.7188 18.9372 33.7188 20.8412V22.5775H26.9439V20.8412C26.9439 18.9372 28.4397 17.4363 30.3355 17.4363ZM7.42082 19.0105C6.84532 19.0082 6.37706 19.4767 6.37508 20.0572C6.3728 20.6408 6.84231 21.1144 7.42082 21.1121H17.8334C18.4119 21.1145 18.8814 20.6408 18.8792 20.0572C18.8772 19.4767 18.4089 19.0082 17.8334 19.0105H7.42082ZM7.42082 24.2605C6.84231 24.2582 6.3728 24.7339 6.37508 25.3174C6.37706 25.898 6.84532 26.3664 7.42082 26.3642H14.7105C15.2829 26.3622 15.7461 25.895 15.748 25.3174C15.7503 24.7369 15.2859 24.2625 14.7105 24.2605H7.42082ZM25.7761 24.6812H34.8968C35.4919 24.6812 35.9344 25.1276 35.9344 25.7279V32.6711C35.9344 33.2714 35.4919 33.7178 34.8968 33.7178H25.7761C25.181 33.7178 24.7304 33.2714 24.7304 32.6711C24.7333 30.3538 24.7323 28.0465 24.7385 25.7279C24.7407 24.9113 25.2781 24.6812 25.7761 24.6812ZM30.3355 26.5735C29.7569 26.5712 29.2874 27.0448 29.2897 27.6284V30.7706C29.2874 31.3542 29.7569 31.8278 30.3355 31.8255C30.911 31.8235 31.3753 31.3511 31.3731 30.7706V27.6284C31.3753 27.0479 30.911 26.5755 30.3355 26.5735Z" fill="#0014B8"/>
</svg>
