<svg width="49" height="49" viewBox="0 0 49 49" fill="none" xmlns="http://www.w3.org/2000/svg">
<path d="M10.6678 19.6484C10.6447 20.1491 10.2198 20.5363 9.71901 20.5131C9.21829 20.4898 8.83108 20.0651 8.85433 19.5643C8.87759 19.0634 9.30232 18.6763 9.80313 18.6996C10.3039 18.7228 10.691 19.1477 10.6678 19.6484ZM46.8941 34.7512L44.1702 35.8072C43.9216 35.9036 43.6656 35.9492 43.4137 35.9492C42.5717 35.9492 41.7756 35.4392 41.4535 34.6083L41.2159 33.9954L38.999 34.9204C39.1059 35.5484 39.0031 36.2012 38.6913 36.7682C38.3214 37.4408 37.7087 37.9283 36.9663 38.1408C36.9357 38.1496 36.905 38.1578 36.8743 38.1656C37.1168 38.8963 37.0683 39.7191 36.6724 40.4389C36.0881 41.5014 34.9228 42.0462 33.787 41.8955C33.821 42.4184 33.7125 42.9551 33.4434 43.4441C33.0746 44.1148 32.4642 44.6013 31.7249 44.8141C31.2627 44.9471 30.7867 44.9623 30.3322 44.8636C30.347 45.3564 30.2351 45.8582 29.9819 46.3185C29.613 46.9893 28.9765 47.4931 28.2359 47.7007C27.9801 47.7725 27.7208 47.8079 27.4639 47.8079C26.9829 47.8079 26.5102 47.6835 26.0851 47.4392L25.3342 47.008C24.9618 47.5322 24.4289 47.9175 23.8006 48.1078C23.5188 48.1932 23.231 48.2355 22.9452 48.2355C22.4716 48.2355 22.0032 48.1193 21.5752 47.8904C20.9401 47.5507 20.4714 47.0026 20.2259 46.3629C19.4328 46.7002 18.5025 46.6847 17.6991 46.2551C17.1302 45.9508 16.6925 45.4733 16.4311 44.9119C15.5953 45.3645 14.5567 45.4034 13.6601 44.9239C12.5388 44.3241 11.9675 43.0929 12.1497 41.902C11.6565 41.9133 11.1609 41.8012 10.709 41.5594C10.0227 41.1924 9.51976 40.5779 9.29284 39.8291C9.06593 39.0803 9.14316 38.29 9.51019 37.6037L10.2433 36.2331C10.0794 35.8435 9.99865 35.4177 9.92123 35.0015C9.78083 34.2465 9.67154 33.7788 9.33773 33.6492C9.20633 33.5983 8.89472 33.4686 7.75231 32.9593L7.45783 33.6256C7.23169 34.1373 6.81854 34.5308 6.29456 34.7336C6.04755 34.8292 5.79011 34.8768 5.53353 34.8768C5.24575 34.8768 4.95893 34.8169 4.68847 34.6974L2.01644 33.5164C0.95758 33.0483 0.476767 31.8059 0.944756 30.7471L7.07923 16.8667C7.30538 16.355 7.71862 15.9616 8.2426 15.7588C8.76686 15.556 9.33725 15.5689 9.84869 15.7951L12.5206 16.9761C13.0323 17.2022 13.4258 17.6154 13.6285 18.1393C13.8313 18.6634 13.8184 19.2338 13.5923 19.7454L13.1322 20.7865L14.8714 21.5889C14.8899 21.5975 14.9082 21.6067 14.926 21.6168C15.4391 21.9055 15.9648 21.9707 16.5369 21.9245C14.6805 19.7247 13.672 16.9539 13.672 13.98V5.84359C13.672 5.53734 13.8545 5.26056 14.1361 5.13988L24.1984 0.827497C24.391 0.745001 24.6091 0.745001 24.8016 0.827497L34.864 5.13988C35.1455 5.26047 35.3281 5.53734 35.3281 5.84359V13.98C35.3281 17.0329 34.2639 19.8751 32.31 22.1025C33.4031 22.5208 34.1623 22.715 34.869 22.3473L36.3855 21.5355L35.9682 20.4588C35.5497 19.3794 36.0874 18.1606 37.167 17.7421L39.8908 16.6861C40.9698 16.2677 42.1891 16.8053 42.6076 17.8849L48.0929 32.0344C48.5114 33.1139 47.9736 34.3326 46.8941 34.7512ZM15.2034 13.9799C15.2034 16.8891 16.3016 19.5743 18.3034 21.5871C18.741 21.4851 19.2046 21.3816 19.6934 21.3109C17.5983 19.5114 16.3518 16.9086 16.3518 13.9799V7.61055C16.3518 7.3043 16.5343 7.02743 16.8159 6.90685L24.1985 3.7429C24.3911 3.66041 24.6092 3.66041 24.8017 3.7429L32.1845 6.90685C32.4659 7.02753 32.6485 7.3043 32.6485 7.61055V13.9799C32.6485 16.7749 31.4991 19.3294 29.4953 21.1434C29.9431 21.2393 30.3685 21.3689 30.7723 21.5108C32.7259 19.5067 33.797 16.8509 33.797 13.98V6.34842L24.5001 2.3642L15.2034 6.34842V13.9799ZM27.0346 21.0518C29.6303 19.5477 31.1171 16.9772 31.1171 13.9799V8.11548L24.5001 5.27961L17.8831 8.11539V13.9799C17.8831 17.8525 20.4865 21.0528 24.3904 22.0268C25.3334 21.4747 26.2134 21.177 27.0346 21.0518ZM12.1918 19.1263C12.2527 18.9887 12.2557 18.8344 12.2006 18.6918C12.1454 18.5492 12.0392 18.4373 11.9017 18.3765L9.22968 17.1955C8.94343 17.0692 8.60656 17.1989 8.47985 17.4857L2.34499 31.3659C2.21828 31.6526 2.34843 31.989 2.63516 32.1157L5.30719 33.2966C5.44481 33.3575 5.59909 33.3605 5.74159 33.3053C5.88409 33.2501 5.99616 33.144 6.05693 33.0064L12.1918 19.1263ZM12.9423 40.0785L14.6922 37.0498C14.98 36.3876 14.7123 35.6094 14.074 35.2687C13.3966 34.9072 12.5517 35.163 12.1901 35.8391L10.8602 38.3258C10.686 38.6514 10.6497 39.0276 10.758 39.3849C10.8663 39.7421 11.1053 40.0349 11.4309 40.2089C11.916 40.4685 12.51 40.4136 12.9423 40.0785ZM16.2697 42.9946L18.2028 39.2509C18.3195 38.6573 18.0317 38.0354 17.4973 37.7502C17.0078 37.4889 16.4095 37.5463 15.9768 37.8873L13.8113 41.6903C13.4495 42.3669 13.7055 43.2116 14.3821 43.5736C15.0579 43.9349 15.9045 43.6752 16.2697 42.9946ZM20.1826 44.5208L21.897 41.2256C22.0132 40.6323 21.7254 40.011 21.1914 39.726C20.659 39.4418 19.9864 39.5442 19.5582 39.9636L17.6906 43.5803C17.654 44.1241 17.9378 44.6462 18.4211 44.9047C19.0221 45.2262 19.7713 45.0597 20.1826 44.5208ZM24.1804 45.9694L25.4558 43.5847C25.7068 43.1153 25.6632 42.532 25.3447 42.0988C25.223 41.9331 25.0684 41.7995 24.8851 41.7015C24.3528 41.4171 23.6796 41.52 23.2512 41.9403L21.5704 45.171C21.5138 45.7317 21.7967 46.2725 22.2973 46.5401C22.6228 46.7142 22.9989 46.7504 23.3563 46.6422C23.7136 46.534 24.0063 46.2951 24.1804 45.9694ZM28.1136 43.7682C28.0724 43.7451 27.1342 43.1995 27.1342 43.1995C27.0997 43.5817 26.9921 43.959 26.8061 44.3068L26.0775 45.6692L26.8476 46.1114C27.1404 46.2797 27.4868 46.3204 27.8226 46.2263C28.17 46.1289 28.468 45.8935 28.6402 45.5806C28.9918 44.9411 28.7556 44.1282 28.1136 43.7682ZM37.3741 34.8153C37.2525 34.5646 37.0593 34.3586 36.8154 34.2196L29.5709 30.0904C28.3407 29.389 26.8038 30.0113 25.0245 30.7317C23.6943 31.2702 22.1989 31.8753 20.6837 31.8755C19.2033 31.8756 17.7041 31.2981 16.3195 29.5166C16.1397 29.2859 16.0681 28.9882 16.1236 28.7008C16.179 28.4133 16.3561 28.1636 16.6095 28.0156C18.6525 26.8233 20.3779 25.5218 21.738 24.1474C22.1008 23.7807 22.4558 23.4534 22.8031 23.1608C21.2368 22.4736 19.8971 22.7865 18.4924 23.1155C17.104 23.4408 15.6688 23.7771 14.2034 22.9669L12.513 22.1871L8.37094 31.5586C9.39639 32.0156 9.76811 32.1737 9.89156 32.2216C10.9122 32.6178 11.2022 33.5927 11.3671 34.412C12.2544 33.5405 13.6408 33.3017 14.7949 33.9177C15.6498 34.3739 16.1894 35.2033 16.3123 36.1046C16.9492 35.9876 17.6219 36.081 18.2182 36.3994C18.9348 36.7818 19.4367 37.4274 19.6493 38.1668C20.3812 37.934 21.1958 37.9928 21.9123 38.3751C22.6289 38.7575 23.1307 39.403 23.3433 40.1423C24.0755 39.9093 24.8905 39.9682 25.6068 40.351C25.9488 40.5339 26.2438 40.7765 26.4861 41.0731L30.2996 43.2317C30.6046 43.4012 30.9601 43.4406 31.301 43.3425C31.646 43.2431 31.9303 43.0172 32.1014 42.706C32.4511 42.0702 32.2132 41.2589 31.5709 40.8974C31.529 40.8739 26.2191 37.8706 26.2191 37.8706C25.8505 37.6632 25.7199 37.1964 25.9273 36.8279C26.1347 36.4594 26.6014 36.3288 26.97 36.5361L33.5258 40.225C34.1676 40.5777 34.9774 40.3426 35.3303 39.7009C35.6801 39.065 35.4421 38.2536 34.7998 37.8922C34.7996 37.8921 34.7994 37.8919 34.7992 37.8918C33.2608 37.0302 31.5175 36.0537 29.8089 35.0756C29.442 34.8656 29.3148 34.3978 29.5248 34.0308C29.7347 33.6639 30.2023 33.5365 30.5697 33.7468C32.2729 34.7218 34.0136 35.6968 35.5495 36.5571C35.8515 36.7262 36.2048 36.7659 36.5446 36.6687C36.8917 36.5694 37.1774 36.3426 37.3492 36.0304C37.557 35.653 37.5659 35.2102 37.3741 34.8153ZM40.6621 32.5672L36.9431 22.9739L35.5835 23.7016C34.1081 24.4692 32.6639 23.8943 31.2673 23.3386C28.9484 22.4155 26.5504 21.4613 22.8264 25.2246C21.4918 26.5734 19.839 27.8499 17.9078 29.0247C19.8907 31.1584 22.014 30.2986 24.4498 29.3125C26.4182 28.5155 28.454 27.6915 30.3291 28.7602L37.5737 32.8894C37.871 33.0589 38.1329 33.2761 38.3504 33.5318L40.6621 32.5672ZM46.6652 32.5878L41.1799 18.4383C41.0927 18.2133 40.8771 18.0753 40.6491 18.0753C40.5809 18.0753 40.5115 18.0877 40.4441 18.1138L37.7204 19.1697C37.4281 19.283 37.2826 19.613 37.3958 19.9052L42.8811 34.0549C42.9944 34.3471 43.3246 34.4928 43.6168 34.3795L46.3407 33.3235C46.6329 33.2101 46.7784 32.8801 46.6652 32.5878ZM39.8017 19.5898C39.3017 19.5898 38.8939 19.9975 38.8939 20.4976C38.8939 20.9975 39.3017 21.4053 39.8017 21.4053C40.3016 21.4053 40.7094 20.9975 40.7094 20.4976C40.7094 19.9975 40.3016 19.5898 39.8017 19.5898ZM24.8251 17.4326C24.4484 17.8093 23.9476 18.0166 23.4148 18.0166C22.8821 18.0166 22.3812 17.8093 22.0046 17.4326L19.2819 14.7098C18.5044 13.9322 18.5043 12.6669 19.2819 11.8893C19.6585 11.5127 20.1594 11.3053 20.6921 11.3053C21.2249 11.3053 21.7258 11.5127 22.1024 11.8893L23.4093 13.1964L26.8965 9.67458C27.2708 9.29655 27.7701 9.08735 28.3024 9.08534H28.3102C28.8405 9.08534 29.3392 9.291 29.7154 9.66511C30.4928 10.4382 30.497 11.7013 29.7247 12.4808C29.1179 13.0931 28.5127 13.707 27.9075 14.321C26.8999 15.3428 25.858 16.3995 24.8251 17.4326ZM23.7423 16.3498C24.7715 15.3206 25.8114 14.2658 26.817 13.2458C27.4232 12.631 28.0293 12.0162 28.637 11.403C28.8161 11.2222 28.8155 10.9297 28.6357 10.7509C28.548 10.6638 28.4316 10.6197 28.3083 10.6166C28.1856 10.6171 28.0707 10.6652 27.9845 10.7521L23.9561 14.8206C23.8128 14.9653 23.6177 15.0471 23.4139 15.0475C23.4134 15.0475 23.4127 15.0475 23.412 15.0475C23.2089 15.0475 23.0143 14.9669 22.8706 14.8233L21.0195 12.9722C20.9322 12.8848 20.8158 12.8366 20.692 12.8366C20.5683 12.8366 20.4519 12.8848 20.3645 12.9722C20.184 13.1528 20.1839 13.4467 20.3645 13.6272L23.0872 16.3499C23.1746 16.4373 23.291 16.4855 23.4147 16.4855C23.5386 16.4854 23.6549 16.4372 23.7423 16.3498Z" fill="#0014B8"/>
</svg>
