<svg width="24" height="24" viewBox="0 0 24 24" fill="none" xmlns="http://www.w3.org/2000/svg">
<path d="M24 9.99937V9.24375C24 9.18375 23.9855 9.12516 23.9583 9.07172L21.9905 5.25797C21.7425 4.7775 21.1777 4.47891 20.5172 4.47891H19.6008C19.6589 4.33781 19.6912 4.18312 19.6912 4.02094V1.19719C19.6912 0.530625 19.1498 -0.0117188 18.4847 -0.0117188H5.51578C4.85016 -0.0117188 4.30922 0.530625 4.30922 1.19719V4.02141C4.30922 4.18359 4.34156 4.33781 4.39969 4.47937H3.48281C2.82047 4.47937 2.25562 4.77844 2.00953 5.25844L0.0417187 9.07172C0.0145313 9.12516 0 9.18422 0 9.24375V9.99937C0 11.3409 0.982031 12.457 2.26406 12.6666V21.2039H1.40344C0.629531 21.2039 0 21.8348 0 22.6102V23.6395C0 23.8467 0.167812 24.0145 0.375 24.0145H23.625C23.8322 24.0145 24 23.8467 24 23.6395V22.6102C24 21.8348 23.37 21.2044 22.5952 21.2044H21.7359V12.6666C23.018 12.457 24 11.3409 24 9.99937ZM21.3239 5.60203L22.8942 8.64516H19.2286L17.8678 5.22891H20.5172C20.8903 5.22891 21.2067 5.37563 21.3239 5.60203ZM9.87281 5.22891L9.3525 8.64516H5.57859L6.93937 5.22891H9.87281ZM10.6313 5.22891H13.3688L13.8891 8.64516H10.1109L10.6313 5.22891ZM14.6475 8.64516L14.1272 5.22891H17.0606L18.4214 8.64516H14.6475ZM5.05922 4.02141V1.19719C5.05922 0.944063 5.26406 0.738281 5.51578 0.738281H18.4842C18.7359 0.738281 18.9408 0.944063 18.9408 1.19719V4.02141C18.9408 4.27359 18.7359 4.47937 18.4842 4.47937H5.51578C5.26406 4.47891 5.05922 4.27359 5.05922 4.02141ZM2.67656 5.60109C2.79047 5.37844 3.11484 5.22891 3.48281 5.22891H6.13219L4.77141 8.64516H1.10578L2.67656 5.60109ZM0.75 9.99937V9.39516H23.25V9.99937C23.25 11.0761 22.3753 11.9522 21.2995 11.9522C20.2238 11.9522 19.3491 11.0761 19.3491 9.99937C19.3491 9.79219 19.1812 9.62437 18.9741 9.62437C18.7669 9.62437 18.5991 9.79219 18.5991 9.99937C18.5991 11.0761 17.7248 11.9522 16.65 11.9522C15.5747 11.9522 14.6995 11.0761 14.6995 9.99937C14.6995 9.79219 14.5317 9.62437 14.3245 9.62437C14.1173 9.62437 13.9495 9.79219 13.9495 9.99937C13.9495 11.0761 13.0748 11.9522 11.9991 11.9522C10.9233 11.9522 10.0486 11.0761 10.0486 9.99937C10.0486 9.79219 9.88078 9.62437 9.67359 9.62437C9.46641 9.62437 9.29859 9.79219 9.29859 9.99937C9.29859 11.0761 8.42391 11.9522 7.34812 11.9522C6.27328 11.9522 5.39906 11.0761 5.39906 9.99937C5.39906 9.79219 5.23125 9.62437 5.02406 9.62437C4.81688 9.62437 4.64906 9.79219 4.64906 9.99937C4.64906 11.0761 3.77438 11.9522 2.69859 11.9522C1.62281 11.9522 0.75 11.0761 0.75 9.99937ZM23.25 22.6102V23.2645H0.75V22.6102C0.75 22.2483 1.04297 21.9544 1.40344 21.9544H22.5952C22.9561 21.9539 23.25 22.2483 23.25 22.6102ZM9.04875 21.2039H5.22937V14.3067H9.04875V21.2039ZM9.79875 21.2039V13.9317C9.79875 13.7245 9.63094 13.5567 9.42375 13.5567H4.85437C4.64719 13.5567 4.47937 13.7245 4.47937 13.9317V21.2044H3.01406V12.6839C3.87 12.5841 4.60547 12.0825 5.02547 11.3728C5.49562 12.1683 6.36141 12.7027 7.34953 12.7027C8.33812 12.7027 9.20437 12.1683 9.675 11.3728C10.1456 12.1683 11.0119 12.7027 12.0005 12.7027C12.9891 12.7027 13.8553 12.1683 14.3259 11.3728C14.7966 12.1683 15.6628 12.7027 16.6514 12.7027C17.6395 12.7027 18.5053 12.1683 18.9755 11.3728C19.3955 12.0825 20.1309 12.5845 20.9869 12.6839V21.2044H9.79875V21.2039ZM19.1592 13.5567H11.6255C11.4183 13.5567 11.2505 13.7245 11.2505 13.9317V19.5159C11.2505 19.7231 11.4183 19.8909 11.6255 19.8909H19.1592C19.3664 19.8909 19.5342 19.7231 19.5342 19.5159V13.9317C19.5342 13.7245 19.3664 13.5567 19.1592 13.5567ZM18.7842 19.1409H12.0005V14.3067H18.7842V19.1409ZM7.79437 18.5287V18.0342C7.79437 17.827 7.96219 17.6592 8.16937 17.6592C8.37656 17.6592 8.54437 17.827 8.54437 18.0342V18.5292C8.54437 18.7364 8.37656 18.9042 8.16937 18.9042C7.96219 18.9042 7.79437 18.7359 7.79437 18.5287ZM16.5881 1.00313H15.7139C15.5067 1.00313 15.3389 1.17094 15.3389 1.37813V3.84047C15.3389 4.04766 15.5067 4.21547 15.7139 4.21547C15.9211 4.21547 16.0889 4.04766 16.0889 3.84047V3.22594H16.5881C17.2008 3.22594 17.6991 2.72719 17.6991 2.11406C17.6991 1.50141 17.2008 1.00313 16.5881 1.00313ZM16.5881 2.47594H16.0889V1.75312H16.5881C16.7873 1.75312 16.9491 1.91484 16.9491 2.11359C16.9491 2.31328 16.7873 2.47594 16.5881 2.47594ZM8.53453 3.08344C8.58422 3.33797 8.51906 3.59109 8.35031 3.79594C8.14031 4.05094 7.7775 4.21547 7.42641 4.21547C7.0125 4.21547 6.62813 4.00922 6.39797 3.66375C6.28313 3.49125 6.33 3.25875 6.50203 3.14391C6.67453 3.02906 6.90703 3.07594 7.02188 3.24797C7.11234 3.38391 7.26375 3.46547 7.42594 3.46547C7.55156 3.46547 7.70344 3.40125 7.77094 3.31922C7.80469 3.27844 7.80281 3.25172 7.79813 3.22734C7.77984 3.13406 7.49063 3.03094 7.29938 2.9625C6.90609 2.82187 6.41672 2.64703 6.31687 2.13516C6.26719 1.88062 6.33234 1.6275 6.50109 1.42313C6.71109 1.16813 7.07437 1.00313 7.42641 1.00313C7.83937 1.00313 8.22328 1.20937 8.45344 1.55484C8.56828 1.72734 8.52141 1.95984 8.34937 2.07469C8.17687 2.18953 7.94437 2.14266 7.82953 1.97062C7.73906 1.83469 7.58859 1.75312 7.42688 1.75312C7.30031 1.75312 7.14797 1.81734 7.08047 1.89984C7.04719 1.94062 7.04859 1.96734 7.05328 1.99125C7.07156 2.08453 7.36078 2.18766 7.55203 2.25609C7.94531 2.39672 8.43469 2.57156 8.53453 3.08344ZM11.6602 1.37813V3.84047C11.6602 4.04766 11.4923 4.21547 11.2852 4.21547C11.078 4.21547 10.9102 4.04766 10.9102 3.84047V2.98359H9.83859V3.84047C9.83859 4.04766 9.67078 4.21547 9.46359 4.21547C9.25641 4.21547 9.08859 4.04766 9.08859 3.84047V1.37813C9.08859 1.17094 9.25641 1.00313 9.46359 1.00313C9.67078 1.00313 9.83859 1.17094 9.83859 1.37813V2.23359H10.9102V1.37813C10.9102 1.17094 11.078 1.00313 11.2852 1.00313C11.4923 1.00313 11.6602 1.17094 11.6602 1.37813ZM13.4789 1.00313C12.7702 1.00313 12.1936 1.58016 12.1936 2.28938V2.92922C12.1936 3.63844 12.7702 4.21547 13.4789 4.21547C14.1877 4.21547 14.7642 3.63844 14.7642 2.92922V2.28938C14.7642 1.58016 14.1877 1.00313 13.4789 1.00313ZM14.0142 2.92922C14.0142 3.225 13.7742 3.46547 13.4789 3.46547C13.1836 3.46547 12.9436 3.225 12.9436 2.92922V2.28938C12.9436 1.99359 13.1836 1.75312 13.4789 1.75312C13.7742 1.75312 14.0142 1.99359 14.0142 2.28938V2.92922Z" fill="#0014B8"/>
</svg>
