<svg width="24" height="24" viewBox="0 0 24 24" fill="none" xmlns="http://www.w3.org/2000/svg">
<path d="M13.2888 14.3122L10.4388 17.1622C10.3896 17.2097 10.3504 17.2664 10.3234 17.3292C10.2964 17.392 10.2822 17.4595 10.2816 17.5278C10.281 17.5962 10.294 17.6639 10.3199 17.7272C10.3458 17.7904 10.384 17.8479 10.4323 17.8962C10.4806 17.9445 10.5381 17.9827 10.6013 18.0086C10.6646 18.0344 10.7323 18.0475 10.8006 18.0469C10.869 18.0463 10.9365 18.032 10.9993 18.0051C11.062 17.9781 11.1188 17.9389 11.1663 17.8897L14.0163 15.0397C14.1127 14.9433 14.167 14.8125 14.167 14.6761C14.167 14.5397 14.1129 14.4089 14.0165 14.3124C13.92 14.2159 13.7892 14.1617 13.6528 14.1617C13.5164 14.1616 13.3852 14.2158 13.2888 14.3122Z" fill="#0014B8"/>
<path d="M8.63607 14.7374C8.51192 14.7373 8.39052 14.774 8.28724 14.8429C8.18395 14.9117 8.10342 15.0097 8.05585 15.1244C8.00827 15.239 7.99578 15.3653 8.01996 15.487C8.04415 15.6088 8.10391 15.7206 8.1917 15.8084C8.27948 15.8962 8.39134 15.956 8.51311 15.9802C8.63488 16.0044 8.76108 15.9919 8.87575 15.9443C8.99042 15.8967 9.08839 15.8162 9.15727 15.7129C9.22615 15.6096 9.26284 15.4882 9.26269 15.3641C9.2625 15.1979 9.19641 15.0387 9.07894 14.9212C8.96147 14.8037 8.8022 14.7376 8.63607 14.7374Z" fill="#0014B8"/>
<path d="M0.514501 13.2795H0.722624C0.772263 13.2796 0.820751 13.2944 0.861986 13.3221C0.903221 13.3497 0.935362 13.3889 0.954363 13.4348C0.973364 13.4806 0.978376 13.5311 0.96877 13.5798C0.959163 13.6285 0.935367 13.6732 0.900375 13.7085L0.150375 14.4585C0.102583 14.5062 0.0646674 14.5628 0.0387983 14.6252C0.0129293 14.6876 -0.000386238 14.7545 -0.000386238 14.822C-0.000386238 14.8896 0.0129293 14.9564 0.0387983 15.0188C0.0646674 15.0812 0.102583 15.1379 0.150375 15.1856L1.26038 16.2948C1.34424 16.3788 1.45457 16.4313 1.57267 16.4432C1.69077 16.4552 1.80937 16.426 1.90838 16.3605C2.13653 16.2098 2.40406 16.1297 2.6775 16.1302C3.01883 16.1338 3.34798 16.2575 3.60709 16.4798C3.86621 16.702 4.0387 17.0084 4.09425 17.3452C4.11995 17.5123 4.11154 17.6828 4.06952 17.8465C4.02749 18.0102 3.95273 18.1637 3.84975 18.2977C3.78361 18.3969 3.75378 18.5159 3.76533 18.6345C3.77688 18.7532 3.8291 18.8642 3.91313 18.9487L5.0505 20.0857C5.13427 20.1698 5.24458 20.2222 5.36265 20.2341C5.48072 20.246 5.59927 20.2166 5.69812 20.151C5.92656 19.9999 6.19449 19.9195 6.46838 19.92C6.80914 19.9231 7.13784 20.0465 7.3964 20.2685C7.65495 20.4905 7.82673 20.7967 7.88137 21.1331C7.90634 21.301 7.89764 21.4723 7.85579 21.6368C7.81395 21.8014 7.73978 21.956 7.63763 22.0916C7.57271 22.1905 7.54383 22.3088 7.55585 22.4265C7.56787 22.5443 7.62005 22.6543 7.70362 22.7381L8.8125 23.8492C8.86025 23.897 8.91695 23.9349 8.97937 23.9608C9.04178 23.9867 9.10868 24 9.17625 24C9.24382 24 9.31072 23.9867 9.37313 23.9608C9.43555 23.9349 9.49225 23.897 9.54 23.8492L20.037 13.353C20.0602 13.3293 20.0879 13.3106 20.1184 13.2977C20.1489 13.2848 20.1816 13.2781 20.2148 13.278H23.4855C23.6217 13.278 23.7523 13.224 23.8488 13.1278C23.9452 13.0316 23.9996 12.9012 24 12.765V11.1952C23.9993 11.0759 23.9575 10.9605 23.8815 10.8685C23.8055 10.7765 23.7 10.7136 23.583 10.6905C23.3426 10.6377 23.1199 10.5236 22.9367 10.3593C22.7535 10.1949 22.616 9.98593 22.5375 9.75263C22.4591 9.51934 22.4424 9.2697 22.4892 9.02805C22.5359 8.78639 22.6444 8.56096 22.8041 8.37371C23.0064 8.14104 23.2862 7.98956 23.5916 7.94733C23.707 7.92266 23.8104 7.85923 23.8847 7.76761C23.959 7.67598 23.9997 7.56167 24 7.44371V5.83533C23.9993 5.71602 23.9575 5.60061 23.8815 5.50863C23.8055 5.41665 23.7 5.35375 23.583 5.33058C23.3425 5.27784 23.1199 5.16371 22.9366 4.99932C22.7534 4.83492 22.6159 4.62586 22.5375 4.39251C22.4591 4.15916 22.4425 3.90948 22.4893 3.6678C22.5361 3.42612 22.6447 3.20068 22.8045 3.01346C23.0066 2.78081 23.286 2.62921 23.5912 2.58671C23.7066 2.56214 23.81 2.49885 23.8843 2.40737C23.9587 2.31589 23.9995 2.20172 24 2.08383V0.513708C24 0.377254 23.9458 0.246388 23.8493 0.1499C23.7528 0.053413 23.622 -0.000792503 23.4855 -0.000792503H0.514501C0.378047 -0.000792503 0.24718 0.053413 0.150693 0.1499C0.0542055 0.246388 0 0.377254 0 0.513708V2.08383C0.000690998 2.20349 0.0427364 2.31923 0.11901 2.41142C0.195284 2.50362 0.301093 2.56661 0.4185 2.58971C0.658625 2.64275 0.880937 2.75703 1.06382 2.92143C1.24669 3.08584 1.38392 3.29477 1.46213 3.52792C1.54035 3.76106 1.5569 4.01047 1.51018 4.25191C1.46346 4.49334 1.35505 4.71858 1.1955 4.90571C0.993248 5.13851 0.713472 5.29013 0.408 5.33246C0.292838 5.35718 0.189587 5.42053 0.115376 5.51199C0.041166 5.60346 0.000456218 5.71755 0 5.83533V7.44371C0.000777207 7.5633 0.0428624 7.67895 0.119129 7.77107C0.195395 7.86319 0.301155 7.92612 0.4185 7.94921C0.658625 8.00225 0.880937 8.11653 1.06382 8.28093C1.24669 8.44534 1.38392 8.65427 1.46213 8.88742C1.54035 9.12056 1.5569 9.36997 1.51018 9.61141C1.46346 9.85284 1.35505 10.0781 1.1955 10.2652C0.993179 10.498 0.71346 10.6497 0.408 10.6923C0.292742 10.7169 0.189372 10.7802 0.115128 10.8717C0.0408829 10.9632 0.00024918 11.0774 0 11.1952V12.765C0.000395742 12.9013 0.0547289 13.0319 0.151131 13.1283C0.247532 13.2247 0.378168 13.2791 0.514501 13.2795ZM18.225 13.7085L9.35475 22.5798C9.33142 22.6032 9.30371 22.6217 9.27321 22.6344C9.24271 22.647 9.21002 22.6535 9.177 22.6535C9.14398 22.6535 9.11129 22.647 9.08079 22.6344C9.05029 22.6217 9.02258 22.6032 8.99925 22.5798C8.91075 22.4673 8.68088 22.3526 8.75775 22.1355C8.88818 21.7687 8.92855 21.376 8.87544 20.9904C8.82233 20.6047 8.6773 20.2375 8.45258 19.9197C8.22786 19.6019 7.93003 19.3427 7.58419 19.1641C7.23835 18.9854 6.85463 18.8925 6.46538 18.8932C5.73263 18.8932 5.59425 19.1748 5.39213 18.9731C5.15063 18.69 4.88438 18.5805 4.96763 18.3457C5.09794 17.979 5.13827 17.5863 5.08523 17.2007C5.03218 16.8152 4.88731 16.448 4.66281 16.13C4.4383 15.8121 4.14072 15.5527 3.79511 15.3738C3.4495 15.1948 3.06595 15.1015 2.67675 15.1016C1.9515 15.1016 1.80488 15.384 1.60313 15.183C1.53413 15.1042 1.19062 14.874 1.41937 14.6448L2.17762 13.8855L2.55 13.5131C2.62411 13.439 2.7121 13.3802 2.80894 13.3401C2.90578 13.3 3.00957 13.2794 3.11438 13.2795H18.0491C18.0986 13.28 18.1468 13.2951 18.1878 13.3228C18.2287 13.3506 18.2606 13.3898 18.2794 13.4356C18.2981 13.4814 18.303 13.5317 18.2933 13.5802C18.2836 13.6288 18.2599 13.6734 18.225 13.7085ZM1.029 11.7405C1.02896 11.6961 1.04067 11.6526 1.06293 11.6142C1.0852 11.5759 1.11722 11.5441 1.15575 11.5222C1.4435 11.3873 1.70495 11.2023 1.92787 10.9758C2.18326 10.6938 2.36938 10.3561 2.47148 9.98959C2.57357 9.62306 2.58883 9.23778 2.51603 8.86433C2.44323 8.49088 2.28439 8.13954 2.0521 7.8382C1.81982 7.53685 1.52049 7.2938 1.17787 7.12833C1.13361 7.10813 1.096 7.07576 1.06944 7.03499C1.04288 6.99422 1.02846 6.94674 1.02788 6.89808V6.43233C1.02141 6.37562 1.03228 6.31828 1.05906 6.26787C1.08584 6.21746 1.12726 6.17635 1.17787 6.14996C1.52048 5.98453 1.81981 5.74152 2.0521 5.44021C2.28438 5.1389 2.44323 4.78759 2.51603 4.41416C2.58883 4.04074 2.57357 3.65549 2.47148 3.28899C2.36938 2.92249 2.18326 2.58484 1.92787 2.30283C1.70484 2.07631 1.44326 1.89129 1.15538 1.75646C1.11684 1.73443 1.08482 1.70261 1.06256 1.66421C1.0403 1.62582 1.02859 1.58221 1.02863 1.53783C1.04438 1.46658 0.942749 1.02783 1.27987 1.02783H22.7201C23.0666 1.02783 22.9523 1.45271 22.971 1.53783C22.971 1.58221 22.9593 1.62579 22.937 1.66418C22.9148 1.70257 22.8828 1.7344 22.8442 1.75646C22.5563 1.89143 22.2948 2.07656 22.0717 2.30321C21.8165 2.58524 21.6305 2.92287 21.5285 3.28931C21.4265 3.65575 21.4113 4.04093 21.4841 4.41427C21.5569 4.78762 21.7157 5.13886 21.9479 5.44015C22.1801 5.74143 22.4793 5.98446 22.8218 6.14996C22.866 6.17019 22.9036 6.20258 22.9301 6.24334C22.9567 6.2841 22.9711 6.33156 22.9717 6.38021V6.84633C22.9783 6.903 22.9675 6.96033 22.9407 7.01069C22.9139 7.06106 22.8724 7.10209 22.8218 7.12833C22.4793 7.29387 22.18 7.53694 21.9479 7.83826C21.7157 8.13958 21.5569 8.49085 21.4841 8.86422C21.4113 9.2376 21.4265 9.62279 21.5285 9.98926C21.6305 10.3557 21.8165 10.6934 22.0717 10.9755C22.2948 11.2021 22.5563 11.3872 22.8442 11.5222C22.8828 11.5441 22.9148 11.5759 22.9371 11.6142C22.9593 11.6526 22.971 11.6961 22.971 11.7405C22.9553 11.8125 23.0569 12.2505 22.7201 12.2505H1.28025C0.933376 12.2505 1.04775 11.8256 1.029 11.7405Z" fill="#0014B8"/>
<path d="M18.1732 9.18603H5.82784C5.75913 9.18418 5.69075 9.19611 5.62673 9.22112C5.56271 9.24613 5.50434 9.28372 5.45509 9.33166C5.40584 9.3796 5.36669 9.43693 5.33996 9.50025C5.31322 9.56357 5.29945 9.63161 5.29945 9.70034C5.29945 9.76908 5.31322 9.83712 5.33996 9.90044C5.36669 9.96376 5.40584 10.0211 5.45509 10.069C5.50434 10.117 5.56271 10.1546 5.62673 10.1796C5.69075 10.2046 5.75913 10.2165 5.82784 10.2147H18.1732C18.3072 10.211 18.4345 10.1553 18.528 10.0592C18.6215 9.96315 18.6738 9.83439 18.6738 9.70034C18.6738 9.56629 18.6215 9.43754 18.528 9.34148C18.4345 9.24542 18.3072 9.18965 18.1732 9.18603Z" fill="#0014B8"/>
<path d="M5.82763 4.08984H18.173C18.3095 4.08984 18.4403 4.03564 18.5368 3.93915C18.6333 3.84266 18.6875 3.7118 18.6875 3.57534C18.6875 3.43889 18.6333 3.30802 18.5368 3.21154C18.4403 3.11505 18.3095 3.06084 18.173 3.06084H5.82763C5.69117 3.06084 5.56031 3.11505 5.46382 3.21154C5.36733 3.30802 5.31312 3.43889 5.31312 3.57534C5.31312 3.7118 5.36733 3.84266 5.46382 3.93915C5.56031 4.03564 5.69117 4.08984 5.82763 4.08984Z" fill="#0014B8"/>
<path d="M18.1724 6.01087C18.0483 6.01087 17.927 6.04767 17.8239 6.11661C17.7207 6.18554 17.6403 6.28353 17.5928 6.39816C17.5453 6.5128 17.5329 6.63895 17.5571 6.76064C17.5813 6.88234 17.6411 6.99413 17.7288 7.08187C17.8165 7.16961 17.9283 7.22936 18.05 7.25357C18.1717 7.27778 18.2979 7.26535 18.4125 7.21787C18.5272 7.17038 18.6251 7.08997 18.6941 6.9868C18.763 6.88363 18.7998 6.76233 18.7998 6.63825C18.7998 6.47186 18.7337 6.31228 18.6161 6.19463C18.4984 6.07697 18.3388 6.01087 18.1724 6.01087Z" fill="#0014B8"/>
<path d="M16.7422 6.63862C16.7423 6.51451 16.7055 6.39316 16.6366 6.28993C16.5677 6.1867 16.4697 6.10623 16.3551 6.0587C16.2404 6.01117 16.1142 5.99872 15.9925 6.02291C15.8708 6.04711 15.759 6.10687 15.6712 6.19463C15.5834 6.28239 15.5237 6.39421 15.4995 6.51595C15.4753 6.63768 15.4877 6.76386 15.5353 6.87851C15.5828 6.99316 15.6633 7.09114 15.7665 7.16005C15.8697 7.22896 15.9911 7.2657 16.1152 7.26562C16.2814 7.26553 16.4409 7.19943 16.5584 7.08187C16.676 6.96431 16.7421 6.80488 16.7422 6.63862Z" fill="#0014B8"/>
<path d="M14.6846 6.63862C14.6846 6.51451 14.6479 6.39316 14.579 6.28993C14.5101 6.1867 14.4121 6.10623 14.2975 6.0587C14.1828 6.01117 14.0566 5.99872 13.9349 6.02291C13.8132 6.04711 13.7013 6.10687 13.6136 6.19463C13.5258 6.28239 13.4661 6.39421 13.4419 6.51595C13.4177 6.63768 13.4301 6.76386 13.4776 6.87851C13.5252 6.99316 13.6056 7.09114 13.7089 7.16005C13.8121 7.22896 13.9335 7.2657 14.0576 7.26562C14.2239 7.26562 14.3833 7.19957 14.5009 7.08198C14.6185 6.96439 14.6846 6.80492 14.6846 6.63862Z" fill="#0014B8"/>
<path d="M12.627 6.63862C12.627 6.51453 12.5903 6.39319 12.5214 6.28997C12.4525 6.18675 12.3546 6.10628 12.2399 6.05874C12.1253 6.0112 11.9991 5.99872 11.8774 6.02288C11.7557 6.04705 11.6439 6.10677 11.5561 6.1945C11.4683 6.28222 11.4085 6.39401 11.3843 6.51572C11.36 6.63743 11.3724 6.76359 11.4199 6.87825C11.4674 6.99291 11.5478 7.09091 11.651 7.15987C11.7542 7.22882 11.8755 7.26562 11.9996 7.26562C12.1659 7.26563 12.3254 7.19958 12.4431 7.082C12.5607 6.96443 12.6269 6.80495 12.627 6.63862Z" fill="#0014B8"/>
<path d="M10.5693 6.63862C10.5694 6.51453 10.5327 6.39319 10.4638 6.28997C10.3949 6.18675 10.2969 6.10628 10.1823 6.05874C10.0677 6.0112 9.94152 5.99872 9.8198 6.02288C9.69807 6.04705 9.58625 6.10677 9.49847 6.1945C9.41069 6.28222 9.35091 6.39401 9.32667 6.51572C9.30243 6.63743 9.31483 6.76359 9.36231 6.87825C9.40978 6.99291 9.49019 7.09091 9.59337 7.15987C9.69655 7.22882 9.81786 7.26562 9.94196 7.26562C10.1083 7.26563 10.2678 7.19958 10.3854 7.082C10.5031 6.96443 10.5692 6.80495 10.5693 6.63862Z" fill="#0014B8"/>
<path d="M8.5127 6.63862C8.51277 6.51453 8.47604 6.39319 8.40714 6.28997C8.33825 6.18675 8.2403 6.10628 8.12567 6.05874C8.01103 6.0112 7.88488 5.99872 7.76316 6.02288C7.64143 6.04705 7.52961 6.10677 7.44183 6.1945C7.35405 6.28222 7.29426 6.39401 7.27003 6.51572C7.24579 6.63743 7.25819 6.76359 7.30567 6.87825C7.35314 6.99291 7.43355 7.09091 7.53673 7.15987C7.63991 7.22882 7.76122 7.26562 7.88532 7.26562C8.05165 7.26563 8.21116 7.19958 8.32881 7.082C8.44645 6.96443 8.5126 6.80495 8.5127 6.63862Z" fill="#0014B8"/>
<path d="M5.82733 7.26562C5.95144 7.2657 6.07279 7.22896 6.17602 7.16005C6.27925 7.09114 6.35972 6.99316 6.40725 6.87851C6.45478 6.76386 6.46724 6.63768 6.44304 6.51595C6.41885 6.39421 6.35909 6.28239 6.27132 6.19463C6.18356 6.10687 6.07174 6.04711 5.95001 6.02291C5.82827 5.99872 5.7021 6.01117 5.58744 6.0587C5.47279 6.10623 5.37481 6.1867 5.3059 6.28993C5.23699 6.39316 5.20025 6.51451 5.20033 6.63862C5.20033 6.80492 5.26639 6.96439 5.38397 7.08198C5.50156 7.19957 5.66104 7.26562 5.82733 7.26562Z" fill="#0014B8"/>
</svg>
