<svg width="28" height="28" viewBox="0 0 28 28" fill="none" xmlns="http://www.w3.org/2000/svg">
<g clip-path="url(#clip0_893_3514)">
<path d="M12.781 19.5506C12.9361 19.7055 13.1463 19.7926 13.3657 19.7926C13.5849 19.7926 13.7951 19.7057 13.9502 19.5506L16.9018 16.599C17.2248 16.276 17.2248 15.7526 16.9018 15.4296C16.579 15.1068 16.0554 15.1068 15.7326 15.4296L13.3657 17.7965L12.2865 16.7173C11.9635 16.3945 11.4401 16.3945 11.1171 16.7173C10.7943 17.0401 10.7943 17.5637 11.1171 17.8867L12.781 19.5506Z" fill="#0014B8"/>
<path d="M14.0087 24.0523C17.6277 24.0523 20.5718 21.1079 20.5718 17.4889C20.5718 13.8699 17.6277 10.9258 14.0087 10.9258C10.3895 10.9258 7.44531 13.8699 7.44531 17.4889C7.44531 21.1079 10.3897 24.0523 14.0087 24.0523ZM14.0087 12.5792C16.7159 12.5792 18.9184 14.7817 18.9184 17.4889C18.9184 20.1962 16.7159 22.3988 14.0087 22.3988C11.3014 22.3988 9.09875 20.1962 9.09875 17.4889C9.09875 14.7817 11.3014 12.5792 14.0087 12.5792Z" fill="#0014B8"/>
<path d="M25.011 1.76047H23.503V0.826721C23.503 0.370209 23.1328 0 22.6763 0C22.2198 0 21.8496 0.370209 21.8496 0.826721V1.76047H20.225V0.826721C20.225 0.370209 19.8548 0 19.398 0C18.9415 0 18.5713 0.370209 18.5713 0.826721V1.76047H9.44193V0.826721C9.44193 0.370209 9.07172 0 8.61499 0C8.15848 0 7.78827 0.370209 7.78827 0.826721V1.76047H6.16367V0.826721C6.16367 0.370209 5.79346 0 5.33673 0C4.88022 0 4.51001 0.370209 4.51001 0.826721V1.76047H3.00183C1.52762 1.76047 0.328125 2.95996 0.328125 4.43439V25.3263C0.328125 26.8005 1.52762 28 3.00183 28H25.011C26.4854 28 27.6847 26.8005 27.6847 25.3263V4.43439C27.6847 2.95996 26.4852 1.76047 25.011 1.76047ZM26.031 25.3263C26.031 25.8888 25.5735 26.3466 25.011 26.3466H3.00183C2.43936 26.3466 1.98157 25.8888 1.98157 25.3263V8.63507H26.031V25.3263ZM1.98157 4.43439C1.98157 3.8717 2.43936 3.41412 3.00183 3.41412H4.51001V4.34787C4.51001 4.80438 4.88022 5.17459 5.33694 5.17459C5.79346 5.17459 6.16367 4.80438 6.16367 4.34787V3.41412H7.78827V4.34787C7.78827 4.80438 8.15848 5.17459 8.6152 5.17459C9.07172 5.17459 9.44193 4.80438 9.44193 4.34787V3.41412H18.5713V4.34787C18.5713 4.80438 18.9415 5.17459 19.3983 5.17459C19.8548 5.17459 20.225 4.80438 20.225 4.34787V3.41412H21.8496V4.34787C21.8496 4.80438 22.2198 5.17459 22.6763 5.17459C23.133 5.17459 23.5032 4.80438 23.5032 4.34787V3.41412H25.011C25.5735 3.41412 26.0312 3.8717 26.0312 4.43439V6.98141H1.98157V4.43439Z" fill="#0014B8"/>
</g>
<defs>
<clipPath id="clip0_893_3514">
<rect width="28" height="28" fill="white"/>
</clipPath>
</defs>
</svg>
