<svg width="37" height="37" viewBox="0 0 37 37" fill="none" xmlns="http://www.w3.org/2000/svg">
<g clip-path="url(#clip0_893_3576)">
<path d="M36.6842 21.7055C36.5151 21.5364 36.2857 21.4414 36.0466 21.4414C35.8075 21.4414 35.5781 21.5364 35.409 21.7055L27.3857 29.7288C27.3518 29.7627 27.3115 29.7896 27.2672 29.808C27.2229 29.8263 27.1755 29.8358 27.1275 29.8358C27.0796 29.8358 27.0321 29.8263 26.9878 29.808C26.9435 29.7896 26.9032 29.7627 26.8693 29.7288L24.2686 27.1281C24.0991 26.9612 23.8704 26.8681 23.6325 26.8691C23.3946 26.87 23.1667 26.9649 22.9985 27.1332C22.8303 27.3014 22.7353 27.5293 22.7344 27.7672C22.7334 28.0051 22.8266 28.2338 22.9934 28.4033L26.8693 32.2792C26.9032 32.3131 26.9435 32.34 26.9878 32.3584C27.0321 32.3767 27.0796 32.3862 27.1275 32.3862C27.1755 32.3862 27.2229 32.3767 27.2672 32.3584C27.3115 32.34 27.3518 32.3131 27.3857 32.2792L36.6842 22.9807C36.7679 22.8969 36.8343 22.7975 36.8796 22.6881C36.925 22.5787 36.9483 22.4615 36.9483 22.3431C36.9483 22.2246 36.925 22.1074 36.8796 21.998C36.8343 21.8886 36.7679 21.7892 36.6842 21.7055Z" fill="#0014B8"/>
<path d="M35.1597 27.598C34.9206 27.598 34.6913 27.693 34.5222 27.8621C34.3531 28.0312 34.2581 28.2606 34.2581 28.4997C34.2581 29.8241 33.8654 31.1187 33.1296 32.2198C32.3938 33.321 31.348 34.1792 30.1245 34.6861C28.901 35.1929 27.5546 35.3255 26.2557 35.0671C24.9568 34.8087 23.7637 34.171 22.8272 33.2345C21.8907 32.2981 21.253 31.1049 20.9946 29.806C20.7363 28.5071 20.8689 27.1608 21.3757 25.9372C21.8825 24.7137 22.7407 23.6679 23.8419 22.9321C24.9431 22.1964 26.2377 21.8036 27.562 21.8036C28.6042 21.8004 29.6325 22.043 30.5634 22.5118C30.7771 22.6192 31.0246 22.6372 31.2517 22.562C31.4787 22.4868 31.6665 22.3245 31.7738 22.1108C31.8811 21.8971 31.8992 21.6495 31.824 21.4225C31.7488 21.1955 31.5864 21.0076 31.3727 20.9003C30.191 20.3047 28.8853 19.9962 27.562 20C25.8809 20 24.2377 20.4985 22.8399 21.4324C21.4422 22.3664 20.3528 23.6938 19.7095 25.2468C19.0662 26.7999 18.8979 28.5088 19.2258 30.1576C19.5537 31.8063 20.3632 33.3207 21.5519 34.5094C22.7405 35.6981 24.2549 36.5076 25.9037 36.8356C27.5524 37.1636 29.2613 36.9953 30.8144 36.352C32.3675 35.7087 33.6949 34.6194 34.6289 33.2217C35.5628 31.824 36.0614 30.1807 36.0614 28.4997C36.0614 28.2606 35.9664 28.0312 35.7973 27.8621C35.6282 27.693 35.3989 27.598 35.1597 27.598Z" fill="#0014B8"/>
<path d="M29.431 14.5873H27.9134C27.6629 14.5873 27.4227 14.6868 27.2456 14.8639C27.0684 15.0411 26.9689 15.2813 26.9689 15.5318C26.9689 15.7822 27.0684 16.0225 27.2456 16.1996C27.4227 16.3767 27.6629 16.4762 27.9134 16.4762H30.3799C30.6404 16.4664 30.8871 16.3572 31.0695 16.1711C31.252 15.985 31.3562 15.7362 31.3609 15.4756C31.314 11.3552 29.6443 7.41937 26.714 4.52218C23.7837 1.62498 19.8292 7.56003e-05 15.7084 0C7.07695 0 0.0546875 7.0222 0.0546875 15.6537C0.0546875 24.2852 7.07695 31.3073 15.7084 31.3073C15.9109 31.3072 16.108 31.242 16.2706 31.1215C16.4332 31.0009 16.5528 30.8312 16.6118 30.6375C16.64 30.5568 16.6538 30.4717 16.6527 30.3862V27.7368C16.6505 27.4878 16.55 27.2497 16.3731 27.0743C16.1962 26.899 15.9572 26.8006 15.7082 26.8006C15.4591 26.8006 15.2201 26.899 15.0432 27.0743C14.8664 27.2497 14.7659 27.4878 14.7637 27.7368V29.3854C7.88452 28.9169 2.37738 23.3716 1.96871 16.4766H3.5032C3.75368 16.4766 3.99391 16.3771 4.17102 16.1999C4.34814 16.0228 4.44764 15.7826 4.44764 15.5321C4.44764 15.2816 4.34814 15.0414 4.17102 14.8643C3.99391 14.6872 3.75368 14.5877 3.5032 14.5877H1.98461C2.50673 7.80519 7.96568 2.38477 14.7639 1.92227V3.3266C14.7661 3.57566 14.8666 3.81378 15.0435 3.98913C15.2203 4.16447 15.4593 4.26285 15.7084 4.26285C15.9575 4.26285 16.1965 4.16447 16.3733 3.98913C16.5502 3.81378 16.6507 3.57566 16.6529 3.3266V1.92227C23.4244 2.38787 28.9064 7.81856 29.431 14.5873Z" fill="#0014B8"/>
<path d="M15.7081 9.24609C15.4576 9.24609 15.2173 9.3456 15.0402 9.52274C14.8631 9.69987 14.7635 9.94011 14.7635 10.1906V15.1086L8.37692 18.7898C8.26856 18.8513 8.17343 18.9335 8.09701 19.0319C8.02059 19.1303 7.96439 19.2429 7.93165 19.3631C7.8989 19.4833 7.89026 19.6088 7.90622 19.7323C7.92218 19.8559 7.96242 19.975 8.02463 20.083C8.08684 20.1909 8.16979 20.2855 8.2687 20.3612C8.36761 20.437 8.48053 20.4924 8.60095 20.5243C8.72137 20.5562 8.84692 20.564 8.97036 20.5472C9.0938 20.5304 9.2127 20.4893 9.32021 20.4264L16.1797 16.473C16.197 16.463 16.2122 16.4534 16.2263 16.4441C16.3573 16.3583 16.4649 16.2413 16.5393 16.1035C16.6138 15.9657 16.6527 15.8116 16.6527 15.655V10.1906C16.6527 10.0666 16.6283 9.94373 16.5808 9.82912C16.5333 9.71452 16.4637 9.61039 16.376 9.52268C16.2883 9.43498 16.1842 9.36541 16.0695 9.31795C15.9549 9.27049 15.8321 9.24607 15.7081 9.24609Z" fill="#0014B8"/>
</g>
<defs>
<clipPath id="clip0_893_3576">
<rect width="37" height="37" fill="white"/>
</clipPath>
</defs>
</svg>
