<svg width="36" height="36" viewBox="0 0 36 36" fill="none" xmlns="http://www.w3.org/2000/svg">
<path d="M21 22.125C20.8522 22.1257 20.7057 22.0969 20.5692 22.0402C20.4327 21.9835 20.3089 21.9002 20.205 21.795L17.205 18.795C16.994 18.5842 16.8753 18.2983 16.875 18V13.5C16.875 13.2016 16.9935 12.9155 17.2045 12.7045C17.4155 12.4935 17.7016 12.375 18 12.375C18.2984 12.375 18.5845 12.4935 18.7955 12.7045C19.0065 12.9155 19.125 13.2016 19.125 13.5V17.535L21.795 20.205C22.0057 20.4159 22.124 20.7019 22.124 21C22.124 21.2981 22.0057 21.5841 21.795 21.795C21.6911 21.9002 21.5673 21.9835 21.4308 22.0402C21.2943 22.0969 21.1478 22.1257 21 22.125Z" fill="#0014B8"/>
<path d="M29.9964 32.6248C29.8492 32.6191 29.7047 32.5841 29.5712 32.522C29.4377 32.4598 29.3179 32.3717 29.2188 32.2629C29.1197 32.154 29.0433 32.0264 28.9939 31.8877C28.9445 31.749 28.9233 31.6018 28.9314 31.4548L29.1264 26.7598C29.1456 26.4641 29.2777 26.187 29.4955 25.986C29.7133 25.785 30 25.6753 30.2964 25.6798C30.5961 25.6954 30.8777 25.8285 31.0799 26.0504C31.2821 26.2722 31.3886 26.5649 31.3764 26.8648L31.0614 31.4998C31.0655 31.7892 30.9565 32.0687 30.7576 32.2788C30.5586 32.489 30.2855 32.6131 29.9964 32.6248Z" fill="#0014B8"/>
<path d="M25.5 28.0963C25.2016 28.0963 24.9155 27.9778 24.7045 27.7668C24.4935 27.5558 24.375 27.2697 24.375 26.9713C24.375 26.673 24.4935 26.3868 24.7045 26.1758C24.9155 25.9649 25.2016 25.8463 25.5 25.8463L30.15 25.6813C30.2982 25.6733 30.4466 25.695 30.5863 25.7453C30.726 25.7956 30.8542 25.8734 30.9633 25.9741C31.0723 26.0748 31.1601 26.1963 31.2214 26.3315C31.2827 26.4668 31.3162 26.6129 31.32 26.7613C31.3282 27.0587 31.2199 27.3475 31.0181 27.5661C30.8163 27.7847 30.5371 27.9158 30.24 27.9313L25.59 28.0963H25.5Z" fill="#0014B8"/>
<path d="M18 34.125C14.8108 34.125 11.6932 33.1793 9.04144 31.4075C6.38969 29.6356 4.32291 27.1172 3.10245 24.1708C1.88199 21.2243 1.56266 17.9821 2.18484 14.8542C2.80703 11.7262 4.34279 8.85303 6.59791 6.59791C8.85303 4.34279 11.7262 2.80703 14.8542 2.18484C17.9821 1.56266 21.2243 1.88199 24.1708 3.10245C27.1172 4.32291 29.6356 6.38969 31.4075 9.04144C33.1793 11.6932 34.125 14.8108 34.125 18C34.1284 18.7078 34.0782 19.4148 33.975 20.115C33.9134 20.3929 33.7487 20.6371 33.5142 20.7984C33.2797 20.9597 32.9928 21.0261 32.7113 20.9843C32.4297 20.9424 32.1745 20.7954 31.9971 20.5729C31.8196 20.3503 31.7331 20.0688 31.755 19.785C31.8338 19.1933 31.8739 18.597 31.875 18C31.879 14.6911 30.7016 11.4895 28.5548 8.9715C26.408 6.45354 23.4329 4.78468 20.1649 4.26537C16.897 3.74606 13.5511 4.41042 10.7295 6.13884C7.90791 7.86727 5.79603 10.5462 4.77408 13.6933C3.75213 16.8405 3.88725 20.2491 5.15512 23.3054C6.42298 26.3618 8.7403 28.8652 11.6899 30.3648C14.6394 31.8645 18.0275 32.2619 21.244 31.4855C24.4605 30.7091 27.2943 28.81 29.235 26.13C29.3217 26.0099 29.4312 25.9079 29.5572 25.8301C29.6833 25.7522 29.8234 25.7 29.9697 25.6763C30.1159 25.6526 30.2654 25.658 30.4096 25.6921C30.5538 25.7262 30.6898 25.7883 30.81 25.875C30.9302 25.9617 31.0321 26.0712 31.1099 26.1972C31.1878 26.3233 31.24 26.4634 31.2637 26.6097C31.2874 26.756 31.282 26.9054 31.2479 27.0496C31.2138 27.1938 31.1517 27.3298 31.065 27.45C29.5669 29.513 27.6027 31.193 25.3323 32.3529C23.0619 33.5129 20.5496 34.1201 18 34.125Z" fill="#0014B8"/>
<path d="M18 9.375C17.7028 9.37112 17.4189 9.25134 17.2088 9.0412C16.9987 8.83106 16.8789 8.54716 16.875 8.25V6.75C16.875 6.45163 16.9935 6.16548 17.2045 5.9545C17.4155 5.74353 17.7016 5.625 18 5.625C18.2984 5.625 18.5845 5.74353 18.7955 5.9545C19.0065 6.16548 19.125 6.45163 19.125 6.75V8.25C19.1211 8.54716 19.0013 8.83106 18.7912 9.0412C18.5811 9.25134 18.2972 9.37112 18 9.375Z" fill="#0014B8"/>
<path d="M24.9038 12.2251C24.7556 12.2284 24.6084 12.2008 24.4715 12.144C24.3346 12.0871 24.211 12.0024 24.1088 11.8951C24.0027 11.7916 23.9183 11.668 23.8607 11.5315C23.8031 11.3949 23.7734 11.2483 23.7734 11.1001C23.7734 10.9519 23.8031 10.8052 23.8607 10.6686C23.9183 10.5321 24.0027 10.4085 24.1088 10.3051L25.1588 9.25506C25.3721 9.05634 25.6541 8.94816 25.9456 8.9533C26.237 8.95844 26.5151 9.07651 26.7212 9.28263C26.9273 9.48875 27.0454 9.76683 27.0506 10.0583C27.0557 10.3497 26.9475 10.6318 26.7488 10.8451L25.6988 11.8951C25.5949 12.0002 25.4711 12.0836 25.3346 12.1403C25.1981 12.1969 25.0516 12.2258 24.9038 12.2251Z" fill="#0014B8"/>
<path d="M29.25 19.125H27.75C27.4516 19.125 27.1655 19.0065 26.9545 18.7955C26.7435 18.5845 26.625 18.2984 26.625 18C26.625 17.7016 26.7435 17.4155 26.9545 17.2045C27.1655 16.9935 27.4516 16.875 27.75 16.875H29.25C29.5484 16.875 29.8345 16.9935 30.0455 17.2045C30.2565 17.4155 30.375 17.7016 30.375 18C30.375 18.2984 30.2565 18.5845 30.0455 18.7955C29.8345 19.0065 29.5484 19.125 29.25 19.125Z" fill="#0014B8"/>
<path d="M18 30.375C17.7028 30.3711 17.4189 30.2513 17.2088 30.0412C16.9987 29.8311 16.8789 29.5472 16.875 29.25V27.75C16.875 27.4516 16.9935 27.1655 17.2045 26.9545C17.4155 26.7435 17.7016 26.625 18 26.625C18.2984 26.625 18.5845 26.7435 18.7955 26.9545C19.0065 27.1655 19.125 27.4516 19.125 27.75V29.25C19.1211 29.5472 19.0013 29.8311 18.7912 30.0412C18.5811 30.2513 18.2972 30.3711 18 30.375Z" fill="#0014B8"/>
<path d="M10.0522 27.0766C9.90405 27.08 9.7568 27.0523 9.6199 26.9955C9.48301 26.9387 9.35948 26.8539 9.25723 26.7466C9.15109 26.6432 9.06674 26.5196 9.00914 26.383C8.95155 26.2465 8.92188 26.0998 8.92188 25.9516C8.92188 25.8034 8.95155 25.6567 9.00914 25.5202C9.06674 25.3837 9.15109 25.26 9.25723 25.1566L10.3072 24.1066C10.5205 23.9079 10.8026 23.7997 11.094 23.8049C11.3855 23.81 11.6635 23.9281 11.8697 24.1342C12.0758 24.3403 12.1939 24.6184 12.199 24.9098C12.2041 25.2013 12.0959 25.4834 11.8972 25.6966L10.8472 26.7466C10.7434 26.8518 10.6195 26.9352 10.483 26.9918C10.3465 27.0485 10.2 27.0773 10.0522 27.0766Z" fill="#0014B8"/>
<path d="M8.25 19.125H6.75C6.45163 19.125 6.16548 19.0065 5.9545 18.7955C5.74353 18.5845 5.625 18.2984 5.625 18C5.625 17.7016 5.74353 17.4155 5.9545 17.2045C6.16548 16.9935 6.45163 16.875 6.75 16.875H8.25C8.54837 16.875 8.83452 16.9935 9.0455 17.2045C9.25647 17.4155 9.375 17.7016 9.375 18C9.375 18.2984 9.25647 18.5845 9.0455 18.7955C8.83452 19.0065 8.54837 19.125 8.25 19.125Z" fill="#0014B8"/>
<path d="M11.1001 12.2251C10.9523 12.2258 10.8058 12.1969 10.6693 12.1403C10.5328 12.0836 10.4089 12.0002 10.3051 11.8951L9.25506 10.8451C9.05634 10.6318 8.94816 10.3497 8.9533 10.0583C8.95844 9.76683 9.07651 9.48875 9.28263 9.28263C9.48875 9.07651 9.76683 8.95844 10.0583 8.9533C10.3497 8.94816 10.6318 9.05634 10.8451 9.25506L11.8951 10.3051C12.0012 10.4085 12.0856 10.5321 12.1431 10.6686C12.2007 10.8052 12.2304 10.9519 12.2304 11.1001C12.2304 11.2483 12.2007 11.3949 12.1431 11.5315C12.0856 11.668 12.0012 11.7916 11.8951 11.8951C11.7928 12.0024 11.6693 12.0871 11.5324 12.144C11.3955 12.2008 11.2482 12.2284 11.1001 12.2251Z" fill="#0014B8"/>
</svg>
