<svg width="34" height="34" viewBox="0 0 34 34" fill="none" xmlns="http://www.w3.org/2000/svg">
<path d="M31.0117 5.04688H2.98828C1.34393 5.04688 0 6.38489 0 8.03516V25.9648C0 27.6157 1.34479 28.9531 2.98828 28.9531H31.0117C32.6561 28.9531 34 27.6151 34 25.9648V8.03516C34 6.3845 32.6554 5.04688 31.0117 5.04688ZM30.5529 7.03906C29.5867 8.00839 18.2381 19.3939 17.7719 19.8617C17.3825 20.2523 16.6177 20.2526 16.2281 19.8617L3.44715 7.03906H30.5529ZM1.99219 25.5986V8.40139L10.5629 17L1.99219 25.5986ZM3.44715 26.9609L11.9693 18.411L14.8172 21.2681C15.9842 22.4389 18.0163 22.4385 19.1829 21.2681L22.0307 18.4111L30.5529 26.9609H3.44715ZM32.0078 25.5986L23.4371 17L32.0078 8.40139V25.5986Z" fill="#0014B8"/>
</svg>
