<svg width="34" height="34" viewBox="0 0 34 34" fill="none" xmlns="http://www.w3.org/2000/svg">
<path d="M16.9978 21.2478C16.9117 21.2478 16.8257 21.2468 16.7396 21.2441C14.0313 21.1676 11.4622 19.9085 9.6899 17.7888C7.92084 15.6734 7.13778 12.9279 7.54153 10.2557C7.62865 9.67506 8.17106 9.27609 8.75065 9.36375C9.33025 9.45141 9.73028 9.99328 9.64262 10.5729C9.32971 12.6432 9.94171 14.7761 11.3198 16.4257C12.7021 18.0784 14.6985 19.0607 16.7986 19.1196C18.8651 19.1664 20.9211 18.3132 22.3889 16.7465C23.8626 15.174 24.5968 13.0751 24.4029 10.9878C24.1851 8.64444 22.7847 6.44931 20.7484 5.25931C18.294 3.826 15.0784 3.95456 12.7457 5.58019C12.2633 5.91647 11.6019 5.79694 11.2667 5.31616C10.9309 4.83484 11.0494 4.17237 11.5307 3.83716C14.5785 1.71375 18.617 1.55278 21.8205 3.42491C24.4783 4.97775 26.2346 7.73122 26.5188 10.7907C26.7696 13.4831 25.8293 16.1834 23.9402 18.1995C22.1169 20.146 19.5993 21.2478 16.9978 21.2478Z" fill="#0014B8"/>
<path d="M9.64008 8.48736C9.44883 8.48736 9.25492 8.43583 9.08067 8.32745C8.58236 8.01827 8.4283 7.36324 8.73802 6.86439L9.01798 6.41283C9.32717 5.91399 9.98273 5.76045 10.481 6.07017C10.9794 6.37936 11.1334 7.03439 10.8237 7.53324L10.5437 7.9848C10.3429 8.30939 9.99548 8.48736 9.64008 8.48736Z" fill="#0014B8"/>
<path d="M12.8607 11.766C12.7794 11.766 12.6965 11.7565 12.6142 11.7373C12.0436 11.6019 11.6903 11.0292 11.8258 10.4581C12.3241 8.357 14.0246 6.77972 16.1566 6.43972C16.7356 6.34516 17.2812 6.742 17.3731 7.32106C17.4661 7.90066 17.0714 8.44519 16.4918 8.53762C15.2125 8.74215 14.1925 9.68831 13.8934 10.949C13.7771 11.4372 13.3415 11.766 12.8607 11.766Z" fill="#0014B8"/>
<path d="M17 31.8711C16.4135 31.8711 15.9375 31.3951 15.9375 30.8086V20.1836C15.9375 19.5971 16.4135 19.1211 17 19.1211C17.5865 19.1211 18.0625 19.5971 18.0625 20.1836V30.8086C18.0625 31.3956 17.587 31.8711 17 31.8711Z" fill="#0014B8"/>
</svg>
