<svg width="33" height="33" viewBox="0 0 33 33" fill="none" xmlns="http://www.w3.org/2000/svg">
<path d="M30.9736 23.3001C30.9189 23.2547 24.7428 18.8347 23.067 19.1245C22.2616 19.2668 21.8006 19.8155 20.8777 20.9158C20.7292 21.0932 20.3713 21.517 20.0949 21.8192C19.5116 21.6291 18.9426 21.3975 18.3923 21.1262C15.5518 19.7433 13.2567 17.4482 11.8738 14.6077C11.6025 14.0574 11.3709 13.4884 11.1808 12.9051C11.484 12.6277 11.9089 12.2698 12.0904 12.1172C13.1845 11.1994 13.7332 10.7384 13.8755 9.93197C14.1673 8.26237 9.74531 2.08106 9.69994 2.02538C9.49856 1.73978 9.23628 1.50245 8.93204 1.33054C8.62779 1.15862 8.28918 1.0564 7.94062 1.03125C6.14831 1.03125 1.03125 7.66838 1.03125 8.78728C1.03125 8.85225 1.12509 15.4564 9.26888 23.7404C17.5436 31.8749 24.1478 31.9688 24.2127 31.9688C25.3316 31.9688 31.9688 26.8517 31.9688 25.0594C31.9436 24.7107 31.8413 24.372 31.6692 24.0677C31.4971 23.7634 31.2595 23.5012 30.9736 23.3001ZM24.0993 29.9001C23.198 29.8258 17.656 29.0947 10.7271 22.2874C3.88472 15.3213 3.17212 9.76388 3.10097 8.90278C4.45271 6.78113 6.08519 4.85205 7.95403 3.168C7.99528 3.20925 8.04994 3.27113 8.12006 3.35156C9.55332 5.30808 10.788 7.40259 11.8057 9.60403C11.4748 9.93699 11.125 10.2507 10.758 10.5435C10.1889 10.9771 9.6664 11.4685 9.19875 12.0099L8.94816 12.3606L9.02241 12.7844C9.24065 13.7298 9.5749 14.6446 10.0176 15.5079C11.6035 18.7646 14.2351 21.3959 17.4921 22.9814C18.3553 23.4247 19.2701 23.7593 20.2156 23.9776L20.6394 24.0518L20.9901 23.8013C21.5335 23.3315 22.027 22.8069 22.4627 22.2358C22.7855 21.8501 23.2176 21.3355 23.3805 21.1901C25.5882 22.2069 27.6881 23.443 29.6484 24.8799C29.734 24.9521 29.7938 25.0078 29.8341 25.0439C28.1503 26.9133 26.2212 28.5462 24.0993 29.898V29.9001Z" fill="#0014B8"/>
</svg>
