<svg width="36" height="36" viewBox="0 0 36 36" fill="none" xmlns="http://www.w3.org/2000/svg">
<g id="cells 1" clip-path="url(#clip0_464_14233)">
<path id="Vector" d="M32.25 34.5H3.75C1.683 34.5 0 32.817 0 30.75V5.25C0 3.183 1.683 1.5 3.75 1.5H32.25C34.317 1.5 36 3.183 36 5.25V30.75C36 32.817 34.317 34.5 32.25 34.5ZM3.75 3C2.5095 3 1.5 4.0095 1.5 5.25V30.75C1.5 31.9905 2.5095 33 3.75 33H32.25C33.4905 33 34.5 31.9905 34.5 30.75V5.25C34.5 4.0095 33.4905 3 32.25 3H3.75Z" fill="#0014B8"/>
<path id="Vector_2" d="M35.25 12H0.75C0.336 12 0 11.664 0 11.25C0 10.836 0.336 10.5 0.75 10.5H35.25C35.664 10.5 36 10.836 36 11.25C36 11.664 35.664 12 35.25 12Z" fill="#0014B8"/>
<path id="Vector_3" d="M35.25 19.5H0.75C0.336 19.5 0 19.164 0 18.75C0 18.336 0.336 18 0.75 18H35.25C35.664 18 36 18.336 36 18.75C36 19.164 35.664 19.5 35.25 19.5Z" fill="#0014B8"/>
<path id="Vector_4" d="M35.25 27H0.75C0.336 27 0 26.664 0 26.25C0 25.836 0.336 25.5 0.75 25.5H35.25C35.664 25.5 36 25.836 36 26.25C36 26.664 35.664 27 35.25 27Z" fill="#0014B8"/>
<path id="Vector_5" d="M9.75 34.5C9.336 34.5 9 34.164 9 33.75V11.25C9 10.836 9.336 10.5 9.75 10.5C10.164 10.5 10.5 10.836 10.5 11.25V33.75C10.5 34.164 10.164 34.5 9.75 34.5Z" fill="#0014B8"/>
<path id="Vector_6" d="M18 34.5C17.586 34.5 17.25 34.164 17.25 33.75V11.25C17.25 10.836 17.586 10.5 18 10.5C18.414 10.5 18.75 10.836 18.75 11.25V33.75C18.75 34.164 18.414 34.5 18 34.5Z" fill="#0014B8"/>
<path id="Vector_7" d="M26.25 34.5C25.836 34.5 25.5 34.164 25.5 33.75V11.25C25.5 10.836 25.836 10.5 26.25 10.5C26.664 10.5 27 10.836 27 11.25V33.75C27 34.164 26.664 34.5 26.25 34.5Z" fill="#0014B8"/>
</g>
<defs>
<clipPath id="clip0_464_14233">
<rect width="36" height="36" fill="white"/>
</clipPath>
</defs>
</svg>
