<svg width="28" height="29" viewBox="0 0 28 29" fill="none" xmlns="http://www.w3.org/2000/svg">
<g id="calendar (25) 1" clip-path="url(#clip0_464_14378)">
<g id="Group">
<path id="Vector" d="M24.3906 2.72266H21.875V1.41016C21.875 0.926937 21.4833 0.535156 21 0.535156C20.5167 0.535156 20.125 0.926937 20.125 1.41016V2.72266H7.875V1.41016C7.875 0.926937 7.48327 0.535156 7 0.535156C6.51673 0.535156 6.125 0.926937 6.125 1.41016V2.72266H3.60938C1.61913 2.72266 0 4.34179 0 6.33203V24.9258C0 26.916 1.61913 28.5352 3.60938 28.5352H24.3906C26.3809 28.5352 28 26.916 28 24.9258V6.33203C28 4.34179 26.3809 2.72266 24.3906 2.72266ZM3.60938 4.47266H6.125V5.34766C6.125 5.83088 6.51673 6.22266 7 6.22266C7.48327 6.22266 7.875 5.83088 7.875 5.34766V4.47266H20.125V5.34766C20.125 5.83088 20.5167 6.22266 21 6.22266C21.4833 6.22266 21.875 5.83088 21.875 5.34766V4.47266H24.3906C25.4159 4.47266 26.25 5.30675 26.25 6.33203V8.41016H1.75V6.33203C1.75 5.30675 2.58409 4.47266 3.60938 4.47266ZM24.3906 26.7852H3.60938C2.58409 26.7852 1.75 25.9511 1.75 24.9258V10.1602H26.25V24.9258C26.25 25.9511 25.4159 26.7852 24.3906 26.7852Z" fill="#0014B8"/>
</g>
</g>
<defs>
<clipPath id="clip0_464_14378">
<rect width="28" height="27.7045" fill="white" transform="translate(0 0.714844)"/>
</clipPath>
</defs>
</svg>
