<svg width="24" height="24" viewBox="0 0 24 24" fill="none" xmlns="http://www.w3.org/2000/svg">
<g id="table 1" clip-path="url(#clip0_464_14411)">
<path id="Vector" d="M21.2499 22.9843H2.75006C1.23303 22.9843 0 21.7515 0 20.2344V3.73444C0 2.21741 1.23303 0.984375 2.75006 0.984375H21.2499C22.767 0.984375 24 2.21741 24 3.73444V20.2344C24 21.7515 22.767 22.9843 21.2499 22.9843ZM2.75006 2.48438C2.06104 2.48438 1.5 3.04541 1.5 3.73444V20.2344C1.5 20.9235 2.06104 21.4843 2.75006 21.4843H21.2499C21.939 21.4843 22.5 20.9235 22.5 20.2344V3.73444C22.5 3.04541 21.939 2.48438 21.2499 2.48438H2.75006Z" fill="white"/>
<path id="Vector_2" d="M23.25 8.48438H0.75C0.335999 8.48438 0 8.14838 0 7.73438C0 7.32037 0.335999 6.98438 0.75 6.98438H23.25C23.664 6.98438 24 7.32037 24 7.73438C24 8.14838 23.664 8.48438 23.25 8.48438Z" fill="white"/>
<path id="Vector_3" d="M23.25 13.4844H0.75C0.335999 13.4844 0 13.1484 0 12.7344C0 12.3204 0.335999 11.9844 0.75 11.9844H23.25C23.664 11.9844 24 12.3204 24 12.7344C24 13.1484 23.664 13.4844 23.25 13.4844Z" fill="white"/>
<path id="Vector_4" d="M23.25 18.4844H0.75C0.335999 18.4844 0 18.1484 0 17.7344C0 17.3204 0.335999 16.9844 0.75 16.9844H23.25C23.664 16.9844 24 17.3204 24 17.7344C24 18.1484 23.664 18.4844 23.25 18.4844Z" fill="white"/>
<path id="Vector_5" d="M6.25 22.9843C5.836 22.9843 5.5 22.6483 5.5 22.2343V7.73438C5.5 7.32037 5.836 6.98438 6.25 6.98438C6.664 6.98438 7 7.32037 7 7.73438V22.2343C7 22.6483 6.664 22.9843 6.25 22.9843Z" fill="white"/>
<path id="Vector_6" d="M12 22.9843C11.586 22.9843 11.25 22.6483 11.25 22.2343V7.73438C11.25 7.32037 11.586 6.98438 12 6.98438C12.414 6.98438 12.75 7.32037 12.75 7.73438V22.2343C12.75 22.6483 12.414 22.9843 12 22.9843Z" fill="white"/>
<path id="Vector_7" d="M17.75 22.9843C17.336 22.9843 17 22.6483 17 22.2343V7.73438C17 7.32037 17.336 6.98438 17.75 6.98438C18.164 6.98438 18.5 7.32037 18.5 7.73438V22.2343C18.5 22.6483 18.164 22.9843 17.75 22.9843Z" fill="white"/>
</g>
<defs>
<clipPath id="clip0_464_14411">
<rect width="24" height="24" fill="white"/>
</clipPath>
</defs>
</svg>
