<svg width="23" height="26" viewBox="0 0 23 26" fill="none" xmlns="http://www.w3.org/2000/svg">
<g id="calendar (26) 1">
<g id="Group">
<g id="Group_2">
<path id="Vector" d="M3.47151 24H19.5204C21.2028 24 22.57 22.6328 22.57 20.9504V5.75331C22.57 4.07091 21.2028 2.70367 19.5204 2.70367H18.3108V1.85184C18.3108 1.38331 17.9274 1 17.4589 1C16.9904 1 16.607 1.38331 16.607 1.85184V2.70367H6.38487V1.85184C6.38487 1.38331 6.00149 1 5.53296 1C5.06444 1 4.68113 1.38331 4.68113 1.85184V2.70367H3.47151C1.78911 2.70367 0.421875 4.07091 0.421875 5.75331V20.9504C0.421875 22.6328 1.78911 24 3.47151 24ZM2.12562 5.75331C2.12562 5.01222 2.73042 4.40742 3.47151 4.40742H4.68113V5.25925C4.68113 5.72778 5.06444 6.11109 5.53296 6.11109C6.00149 6.11109 6.3848 5.72778 6.3848 5.25925V4.40742H16.607V5.25925C16.607 5.72778 16.9904 6.11109 17.4589 6.11109C17.9274 6.11109 18.3107 5.72778 18.3107 5.25925V4.40742H19.5203C20.2614 4.40742 20.8662 5.01222 20.8662 5.75331V8.24075H2.12562V5.75331ZM2.12562 9.94442H20.8664V20.9504C20.8664 21.6914 20.2616 22.2963 19.5205 22.2963H3.47151C2.73042 22.2963 2.12562 21.6914 2.12562 20.9504V9.94442Z" fill="white"/>
</g>
</g>
</g>
</svg>
