<svg width="25" height="25" viewBox="0 0 25 25" fill="none" xmlns="http://www.w3.org/2000/svg">
<g id="log-in 2" clip-path="url(#clip0_464_14396)">
<g id="Group">
<path id="Vector" d="M12.4979 7.90988C13.7934 7.90988 14.8474 6.8555 14.8474 5.56003C14.8474 4.26456 13.7934 3.21094 12.4979 3.21094C11.2024 3.21094 10.1484 4.26455 10.1484 5.56003C10.1484 6.85551 11.2024 7.90988 12.4979 7.90988ZM12.4979 4.77344C12.932 4.77344 13.2849 5.12668 13.2849 5.56003C13.2849 5.99414 12.932 6.34738 12.4979 6.34738C12.0638 6.34738 11.7109 5.99414 11.7109 5.56003C11.7109 5.12668 12.0638 4.77344 12.4979 4.77344Z" fill="white"/>
<path id="Vector_2" d="M21.875 7.81641H19.0307C19.0421 7.65858 19.0548 7.50103 19.0548 7.34034C19.0548 3.72553 16.1144 0.785156 12.5 0.785156C8.88556 0.785156 5.9452 3.72553 5.9452 7.34034C5.9452 7.50104 5.95789 7.65859 5.96933 7.81642H3.125C1.83258 7.81642 0.78125 8.86775 0.78125 10.1602V21.8713C0.78125 23.1637 1.83258 24.215 3.125 24.215H21.875C23.1674 24.215 24.2188 23.1637 24.2188 21.8713V10.1602C24.2188 8.86775 23.1674 7.81641 21.875 7.81641ZM12.5 2.34766C15.2527 2.34766 17.4923 4.58766 17.4923 7.34034C17.4923 8.35605 17.1857 9.30077 16.6626 10.09C15.5426 9.0427 14.0742 8.44966 12.5 8.44966C10.9258 8.44966 9.45745 9.04275 8.33745 10.09C7.81431 9.30077 7.50771 8.35605 7.50771 7.34034C7.5077 4.58766 9.74731 2.34766 12.5 2.34766ZM15.6081 11.24C14.7543 11.9217 13.6749 12.3323 12.5 12.3323C11.3251 12.3323 10.2457 11.9218 9.39193 11.24C10.2259 10.4562 11.3227 10.0122 12.5 10.0122C13.6773 10.0122 14.7741 10.4562 15.6081 11.24ZM22.6562 21.8713C22.6562 22.3024 22.3057 22.6525 21.875 22.6525H3.125C2.69432 22.6525 2.34375 22.3024 2.34375 21.8713V10.1602C2.34375 9.7291 2.69432 9.37891 3.125 9.37891H6.27398C7.13367 11.9971 9.59768 13.8948 12.5 13.8948C15.4023 13.8948 17.8663 11.9971 18.726 9.37892H21.875C22.3057 9.37892 22.6562 9.72911 22.6562 10.1602V21.8713Z" fill="white"/>
<path id="Vector_3" d="M17.762 14.582H7.23494C6.05429 14.582 5.09375 15.5426 5.09375 16.7236C5.09375 17.9039 6.05429 18.8644 7.23494 18.8644H17.762C18.9426 18.8644 19.9032 17.9039 19.9032 16.7236C19.9032 15.5426 18.9426 14.582 17.762 14.582ZM17.762 17.3019H7.23494C6.91603 17.3019 6.65625 17.0425 6.65625 16.7236C6.65625 16.4039 6.91603 16.1445 7.23494 16.1445H17.762C18.0809 16.1445 18.3407 16.4039 18.3407 16.7236C18.3407 17.0425 18.0809 17.3019 17.762 17.3019Z" fill="white"/>
<path id="Vector_4" d="M15.1328 19.7734H9.85938C9.42793 19.7734 9.07812 20.1229 9.07812 20.5547C9.07812 20.9865 9.42793 21.3359 9.85938 21.3359H15.1328C15.5643 21.3359 15.9141 20.9865 15.9141 20.5547C15.9141 20.1229 15.5643 19.7734 15.1328 19.7734Z" fill="white"/>
</g>
</g>
<defs>
<clipPath id="clip0_464_14396">
<rect width="25" height="25" fill="white"/>
</clipPath>
</defs>
</svg>
