<svg width="38" height="39" viewBox="0 0 38 39" fill="none" xmlns="http://www.w3.org/2000/svg">
<g id="pin (8) 1">
<g id="Layer_1">
<g id="Group">
<path id="Vector" d="M18.997 36.6952C18.674 36.6952 18.3641 36.5634 18.1397 36.3295L8.44846 26.2286C7.47828 25.218 6.78003 24.3143 6.25278 23.3845C3.01803 17.6798 4.00128 10.455 8.64203 5.81427C14.3515 0.103578 23.6413 0.103578 29.3508 5.81427C33.9928 10.455 34.9748 17.6798 31.7413 23.3833C31.2128 24.3143 30.5146 25.218 29.5444 26.2286L19.8532 36.3295C19.63 36.5622 19.32 36.6952 18.997 36.6952ZM18.997 3.90595C15.8549 3.90595 12.7128 5.10177 10.3212 7.49339C6.43209 11.3813 5.60915 17.4351 8.31784 22.2125C8.74534 22.9653 9.33196 23.7194 10.1608 24.5851L18.997 33.7918L27.8308 24.5839C28.2619 24.1695 29.0183 23.375 29.675 22.2113C32.246 17.6525 31.2449 11.0666 27.6717 7.4922C25.2813 5.10177 22.1392 3.90595 18.997 3.90595Z" fill="#0014B8"/>
</g>
<g id="Group_2">
<path id="Vector_2" d="M19 23.8594C15.0706 23.8594 11.875 20.6638 11.875 16.7344C11.875 16.0789 12.407 15.5469 13.0625 15.5469C13.718 15.5469 14.25 16.0789 14.25 16.7344C14.25 19.354 16.3804 21.4844 19 21.4844C21.6196 21.4844 23.75 19.354 23.75 16.7344C23.75 16.0789 24.282 15.5469 24.9375 15.5469C25.593 15.5469 26.125 16.0789 26.125 16.7344C26.125 20.6638 22.9294 23.8594 19 23.8594Z" fill="#0014B8"/>
</g>
</g>
</g>
</svg>
