<svg width="38" height="38" viewBox="0 0 38 38" fill="none" xmlns="http://www.w3.org/2000/svg">
<g id="user (15) 1">
<path id="Vector" d="M18.7308 18.3047C21.2455 18.3047 23.4228 17.4028 25.2023 15.6233C26.9813 13.8441 27.8835 11.6671 27.8835 9.15208C27.8835 6.63793 26.9816 4.46065 25.202 2.68086C23.4225 0.90193 21.2453 0 18.7308 0C16.2158 0 14.0388 0.90193 12.2596 2.68115C10.4803 4.46036 9.57812 6.63764 9.57812 9.15208C9.57812 11.6671 10.4803 13.8444 12.2596 15.6236C14.0394 17.4025 16.2166 18.3047 18.7308 18.3047ZM13.8344 4.25568C15.1996 2.89047 16.8011 2.22685 18.7308 2.22685C20.6602 2.22685 22.262 2.89047 23.6275 4.25568C24.9927 5.62119 25.6566 7.22298 25.6566 9.15208C25.6566 11.0818 24.9927 12.6833 23.6275 14.0488C22.262 15.4143 20.6602 16.0779 18.7308 16.0779C16.8017 16.0779 15.2002 15.414 13.8344 14.0488C12.4689 12.6836 11.805 11.0818 11.805 9.15208C11.805 7.22298 12.4689 5.62119 13.8344 4.25568Z" fill="#0014B8"/>
<path id="Vector_2" d="M34.7439 29.2201C34.6926 28.4796 34.5888 27.6719 34.4361 26.819C34.2818 25.9597 34.0832 25.1473 33.8455 24.4049C33.5996 23.6375 33.2659 22.8796 32.8528 22.1534C32.4246 21.3996 31.9213 20.7432 31.3566 20.2031C30.766 19.6381 30.0429 19.1838 29.2068 18.8524C28.3736 18.5228 27.4502 18.3558 26.4625 18.3558C26.0746 18.3558 25.6994 18.5149 24.9749 18.9866C24.529 19.2774 24.0074 19.6137 23.4253 19.9857C22.9275 20.3028 22.2532 20.6 21.4202 20.869C20.6076 21.132 19.7825 21.2654 18.9678 21.2654C18.1537 21.2654 17.3286 21.132 16.5154 20.869C15.6833 20.6003 15.0087 20.3031 14.5118 19.986C13.9352 19.6175 13.4133 19.2812 12.9607 18.9863C12.2368 18.5146 11.8617 18.3555 11.4738 18.3555C10.4857 18.3555 9.56262 18.5228 8.72969 18.8527C7.89415 19.1835 7.17081 19.6378 6.57967 20.2034C6.01491 20.7438 5.51161 21.3999 5.08369 22.1534C4.67114 22.8796 4.33716 23.6372 4.09131 24.4052C3.85387 25.1476 3.65527 25.9597 3.50104 26.819C3.34796 27.6708 3.24446 28.4788 3.19315 29.221C3.1427 29.9466 3.11719 30.7019 3.11719 31.4649C3.11719 33.4485 3.74776 35.0544 4.99121 36.2387C6.2193 37.4073 7.84399 37.9999 9.82036 37.9999H28.1176C30.0934 37.9999 31.7181 37.4073 32.9465 36.2387C34.1902 35.0552 34.8208 33.4488 34.8208 31.4646C34.8205 30.699 34.7947 29.9437 34.7439 29.2201ZM31.4111 34.6253C30.5996 35.3976 29.5222 35.7731 28.1173 35.7731H9.82036C8.41513 35.7731 7.3378 35.3976 6.52661 34.6256C5.73079 33.868 5.34404 32.8339 5.34404 31.4649C5.34404 30.7529 5.36752 30.0498 5.41449 29.3749C5.4603 28.7127 5.55394 27.9853 5.69281 27.2124C5.82994 26.4491 6.00447 25.7327 6.21205 25.0841C6.41122 24.4623 6.68288 23.8465 7.01976 23.2533C7.34128 22.688 7.71121 22.2029 8.11942 21.8121C8.50124 21.4466 8.9825 21.1474 9.54958 20.923C10.074 20.7154 10.6634 20.6017 11.3033 20.5846C11.3813 20.6261 11.5201 20.7052 11.7451 20.8519C12.2029 21.1503 12.7305 21.4906 13.3139 21.8632C13.9714 22.2824 14.8185 22.661 15.8306 22.9878C16.8653 23.3223 17.9206 23.4922 18.9681 23.4922C20.0156 23.4922 21.0712 23.3223 22.1053 22.988C23.1183 22.6607 23.9651 22.2824 24.6235 21.8626C25.2205 21.4811 25.7333 21.1506 26.1911 20.8519C26.4161 20.7055 26.5549 20.6261 26.6329 20.5846C27.2731 20.6017 27.8625 20.7154 28.3872 20.923C28.954 21.1474 29.4353 21.4468 29.8171 21.8121C30.2253 22.2027 30.5952 22.6877 30.9167 23.2536C31.2539 23.8465 31.5259 24.4626 31.7247 25.0838C31.9326 25.7333 32.1074 26.4494 32.2443 27.2121C32.3829 27.9865 32.4768 28.7142 32.5226 29.3752V29.3758C32.5699 30.0481 32.5936 30.7508 32.5939 31.4649C32.5936 32.8342 32.2069 33.868 31.4111 34.6253Z" fill="#0014B8"/>
</g>
</svg>
