<svg width="37" height="37" viewBox="0 0 37 37" fill="none" xmlns="http://www.w3.org/2000/svg">
<g id="winning 1" clip-path="url(#clip0_464_14223)">
<path id="Vector" d="M36.3359 29.372C36.3359 28.3816 35.5609 27.6066 34.57 27.6066H25.3562C25.3457 27.6066 25.3406 27.6066 25.3406 27.6011C25.3406 27.6011 25.3355 27.596 25.3355 27.5858V25.4299C25.3355 24.4391 24.5605 23.6641 23.5696 23.6641H13.4062C12.4153 23.6641 11.6403 24.4391 11.6403 25.4299V30.635C11.6352 30.6401 11.62 30.6554 11.589 30.6554H2.37522C1.3844 30.6554 0.609375 31.4304 0.609375 32.4212V36.117C0.609375 36.5995 0.999435 36.9899 1.48192 36.9899C1.9644 36.9899 2.35446 36.5995 2.35446 36.117V32.4212C2.35446 32.411 2.35446 32.4059 2.35955 32.4059C2.35955 32.4059 2.36504 32.4009 2.37522 32.4009H11.589C12.5798 32.4009 13.3858 31.6102 13.3858 30.635V25.4299C13.3858 25.4197 13.3858 25.4146 13.3909 25.4146C13.3909 25.4146 13.396 25.4095 13.4062 25.4095H23.5696C23.5802 25.4095 23.5853 25.4095 23.5853 25.4146C23.5853 25.4146 23.5904 25.4197 23.5904 25.435V27.5909C23.5904 28.5817 24.3654 29.3567 25.3562 29.3567H34.57C34.5802 29.3567 34.5853 29.3567 34.5853 29.3618C34.5853 29.3618 34.5908 29.3669 34.5908 29.3826V36.1276C34.5908 36.6101 34.9809 37.0001 35.4633 37.0001C35.9458 37.0001 36.3359 36.6101 36.3359 36.1276V29.372Z" fill="#0014B8"/>
<path id="Vector_2" d="M18.5284 8.42444C20.7869 8.42444 22.6198 6.58693 22.6198 4.33351C22.6198 2.0797 20.7818 0.242188 18.5284 0.242188C16.275 0.242188 14.4375 2.0797 14.4375 4.33351C14.4375 6.58693 16.2699 8.42444 18.5284 8.42444ZM18.5284 1.98767C19.822 1.98767 20.8743 3.03997 20.8743 4.33351C20.8743 5.62705 19.822 6.67935 18.5284 6.67935C17.2349 6.67935 16.1826 5.62705 16.1826 4.33351C16.1826 3.03997 17.2349 1.98767 18.5284 1.98767Z" fill="#0014B8"/>
<path id="Vector_3" d="M4.32216 3.05477V3.07005C5.31767 8.06446 8.70563 12.2533 13.377 14.2757C13.377 14.2757 13.3871 14.2913 13.3871 14.3117V22.2218C13.3871 22.7042 13.7772 23.0943 14.2597 23.0943C14.7422 23.0943 15.1322 22.7042 15.1322 22.2218V14.3066C15.1322 13.5931 14.7167 12.9516 14.0748 12.6692C9.9326 10.8775 6.9347 7.17155 6.0414 2.74656C5.96973 2.29502 6.28812 1.85366 6.74476 1.76123C7.1967 1.66881 7.63806 1.95626 7.74576 2.4129C8.45421 5.92931 10.6716 8.91664 13.8285 10.621C14.506 10.9852 15.2145 11.1701 15.928 11.1701H20.7634C21.4871 11.1701 22.2261 10.9801 22.8935 10.621C26.0504 8.91664 28.2627 5.92931 28.9762 2.4129C29.0843 1.96135 29.546 1.66881 30.0082 1.76123C30.4597 1.85366 30.7522 2.28484 30.6806 2.74656C29.8131 7.0431 26.9233 10.7032 22.9346 12.5408C22.3033 12.8333 21.8925 13.4646 21.8925 14.1527V22.2218C21.8925 22.7042 22.2829 23.0943 22.7654 23.0943C23.2479 23.0943 23.638 22.7042 23.638 22.2218V14.1527C23.638 14.1476 23.6481 14.1319 23.6634 14.1268C25.8761 13.1055 27.8472 11.5601 29.3561 9.64585C30.8654 7.73119 31.9177 5.45701 32.3951 3.07005C32.3951 3.06496 32.3951 3.05987 32.3951 3.05477C32.3951 3.04968 32.3951 3.04459 32.4002 3.0395C32.6313 1.64296 31.7278 0.329054 30.3469 0.0517829C29.6796 -0.0817617 28.997 0.0466917 28.417 0.411296C27.837 0.7806 27.4313 1.35042 27.2723 2.01266C27.2723 2.01775 27.2723 2.02284 27.2672 2.02793C27.2672 2.03341 27.2621 2.0385 27.2621 2.0436C26.6613 5.05677 24.7619 7.6231 22.057 9.08621C21.6411 9.31218 21.1946 9.43006 20.7583 9.43006H15.9229C15.5019 9.43006 15.0707 9.31727 14.6548 9.08621C11.9499 7.6231 10.0505 5.05677 9.45012 2.0436C9.45012 2.0385 9.44463 2.03341 9.44463 2.02793C9.44463 2.02284 9.44463 2.01775 9.43954 2.01266C9.11645 0.636873 7.7767 -0.225489 6.40091 0.0517829C5.73358 0.185327 5.15358 0.565205 4.75843 1.12484C4.36289 1.68917 4.20389 2.36708 4.31668 3.0395C4.32216 3.04459 4.32216 3.04968 4.32216 3.05477Z" fill="#0014B8"/>
</g>
<defs>
<clipPath id="clip0_464_14223">
<rect width="37" height="37" fill="white"/>
</clipPath>
</defs>
</svg>
