<svg width="513" height="201" viewBox="0 0 513 201" fill="none" xmlns="http://www.w3.org/2000/svg">
<g opacity="0.1">
<path d="M461.6 172.544C462.6 176.544 464.1 179.944 464.2 183.444C464.5 195.144 454.8 202.644 443.4 199.544C436 197.544 430.2 193.344 425.9 187.044C420.7 179.344 422.4 173.144 430.6 169.044C431.4 168.644 432.2 168.244 434.3 167.144C423 164.944 413 163.044 402.6 161.044C402.6 162.244 402.5 163.044 402.6 163.744C405.1 177.844 395.6 188.644 381.4 187.644C372.4 187.044 365.7 182.444 361 174.944C356.2 167.144 357.5 161.544 366.2 153.744C353.7 152.744 342.7 147.444 330.4 149.444C323.9 150.544 317 151.044 310.5 150.144C280.8 146.344 251.3 147.744 221.9 152.744C204 155.744 189.1 149.944 176 137.344C171.7 133.244 164.4 132.244 158.4 130.044C157.8 129.844 156.5 131.144 155.7 131.844C140.8 144.744 118.1 137.544 114.3 118.244C113.2 112.944 111.4 109.944 106.4 108.444C105.5 108.144 104.7 107.544 104.1 106.344C107.1 107.444 110.2 108.444 113.1 109.544C120.5 95.7444 125.4 92.2444 139.8 91.0444C138 90.1444 137 89.4444 135.9 89.0444C117.8 81.5444 99.6 74.1444 81.5 66.4444C77.8 64.8444 75.6 65.2444 74.4 68.4444C77.1 73.8444 79.7 78.8444 82.6 84.6444C78.2 79.9444 75.1 75.3444 71 72.0444C66.5 68.4444 60.7 68.3444 55.2 69.9444C45.8 72.5444 40 81.3444 41 91.3444C42 101.444 49.6 108.044 61.7 109.044C53 110.944 44.4 107.444 39.2 99.8444C34 92.1444 33.8 81.9444 39.1 74.4444C46.4 63.9444 56.6 61.9444 68.3 65.9444C70.3 62.7444 68.8 61.5444 66 60.3444C50.7 54.1444 35.5 47.8444 20.3 41.4444C18 40.4444 15.8 38.5444 14.4 36.5444C9.2 28.6444 4.3 20.5444 0 11.8444C3.5 15.4444 7.4 18.9444 10.4 22.9444C16.9 31.4444 25.3 35.5444 35.7 38.1444C76.1 48.2444 116.3 59.0444 156.5 69.6444C157.7 69.9444 159 70.1444 160.5 70.4444C160.5 54.7444 160.5 39.4444 160.5 24.0444C161 24.0444 161.6 23.9444 162.1 23.9444C163.1 27.8444 163.9 31.8444 165 35.7444C168.5 47.5444 172.1 59.3444 175.6 71.1444C176.4 73.9444 177.9 75.4444 180.9 76.2444C199.3 80.9444 217.6 85.9444 236 90.5444C238.2 91.0444 241 90.6444 243 89.6444C272.5 75.1444 300.7 58.9444 327 39.3444C347.1 24.3444 368.7 11.7444 392.9 4.44436C405.1 0.744355 417.6 -1.05564 430.4 0.644356C443.9 2.44436 457.5 9.24436 465.6 18.4444C453.6 20.5444 441.6 22.5444 429.6 24.6444C436.1 10.5444 432.7 12.6444 450 10.2444C446.8 9.34436 443.7 8.34436 440.5 7.64436C420.5 3.64436 401.6 7.04436 384.1 17.1444C368.5 26.1444 353.8 36.5444 338.1 45.3444C311 60.5444 283.4 74.9444 256 89.7444C253.9 90.9444 251.7 91.9444 248.6 93.4444C259.6 96.6444 268.8 100.244 279.7 95.3444C295.9 88.1444 313 82.7444 329.7 76.5444C331.2 75.9444 332.8 75.4444 334.3 74.9444C335.8 82.6444 335.8 82.6444 329.3 84.8444C314.6 89.8444 300 94.7444 285.3 99.6444C283.8 100.144 282.4 100.744 279.8 101.844C285 103.244 289 104.144 292.8 105.544C294.5 106.144 296.7 107.844 296.9 109.144C297 110.444 295 112.644 293.5 113.344C287.7 116.044 281.8 117.444 275.2 115.544C234.3 103.644 193.3 91.8444 152.4 80.0444C150.5 79.5444 148.6 79.1444 146.5 79.4444C184.4 92.8444 222.3 106.244 261.6 120.244C249.3 122.444 238.4 124.444 227.6 126.444C227.3 126.544 226.9 126.544 226.6 126.444C219.7 122.344 212.6 123.744 205.3 125.144C207.9 124.044 210.5 122.944 214 121.544C209.2 119.544 205.2 117.844 201.3 116.244C200.7 116.044 199.9 115.744 199.4 115.944C191.5 119.244 183.6 122.544 175.8 125.944C175.8 126.544 175.8 127.244 175.9 127.844C180.9 129.144 185.8 130.344 192 131.944C188.9 133.644 186.8 134.944 184.6 136.144C189.2 140.944 199.4 143.644 209.5 142.444C219.1 141.344 228.7 139.944 238.3 138.944C260.3 136.644 281.8 140.244 303.4 143.444C316.4 145.444 329.3 146.144 341.9 141.744C344.8 140.744 347.6 139.244 350.6 137.444C334.6 133.844 321.6 126.544 314.2 112.744C321.4 116.844 329.2 121.444 337.1 125.844C338.7 126.744 341 127.144 342.8 126.744C381.7 117.744 419.7 106.144 454.7 86.4444C457.3 84.9444 459.8 83.3444 462.4 81.7444C462.8 81.4444 463.1 81.0444 463.9 80.3444C462.2 79.7444 460.6 79.4444 459.3 78.7444C454.8 76.0444 449.1 74.1444 446.1 70.2444C442.6 65.7444 439.8 66.0444 435.3 67.2444C399.6 76.7444 363.9 86.0444 328.2 95.3444C327.3 95.5444 326.3 95.6444 325.2 95.1444C333.8 92.4444 342.5 89.8444 351.1 87.1444C380 78.0444 408.8 68.8444 437.7 59.7444C440.3 58.9444 441.3 57.6444 441.3 54.8444C441.2 47.1444 444.5 40.7444 449.6 35.0444C446.4 41.9444 443.2 48.8444 444.9 56.9444C452.8 55.1444 460.2 53.1444 467.7 52.0444C475.2 50.9444 482.9 50.9444 491 50.3444C490 42.3444 484.8 36.0444 479.9 29.3444C487.7 35.3444 495.7 41.3444 498.7 51.2444C499.7 54.3444 498.6 59.3444 496.5 61.8444C490.5 69.3444 484.2 76.8444 476.8 82.8444C451.6 103.244 422 114.744 391 122.844C383.6 124.744 376.1 126.144 368.6 127.944C366.8 128.344 365.1 129.544 363.4 130.444C363.5 130.944 363.6 131.344 363.8 131.844C376 135.544 388.3 139.344 400.5 143.044C429.8 151.944 459 161.144 488.5 169.544C494.3 171.144 500.9 169.744 507.1 169.644C508.7 169.644 510.4 169.144 512.1 169.344C502.6 173.244 494.3 181.144 482.3 177.044C475.7 174.444 468.4 173.844 461.6 172.544ZM126.1 114.844C126 125.244 132.5 133.544 140.7 134.444C148.8 135.344 156.6 128.444 158.6 118.844C160.7 108.544 154.8 98.0444 146.1 96.3444C137.6 94.7444 128.6 101.744 126.5 111.644C126.2 113.044 126.2 114.344 126.1 114.844ZM400 167.844C399.9 160.144 394.4 153.844 387.9 153.944C379.8 154.044 372.7 161.844 372.8 170.744C372.8 178.644 378.4 184.844 385.2 184.844C393.1 184.844 400.1 176.744 400 167.844ZM462 183.744C461.9 177.644 459 173.144 454.6 171.944C450.3 170.744 444.7 173.344 442.3 178.244C441.3 180.244 441.6 182.844 440.9 185.044C439.6 189.444 441.2 192.844 444.4 195.644C447.7 198.544 451.5 198.444 455 196.244C459.8 193.344 461.7 188.744 462 183.744ZM486.4 62.8444C472.8 58.5444 461 61.5444 448 63.9444C454.7 70.0444 461.4 73.7444 469.3 74.9444C470.5 75.1444 472 74.7444 472.9 74.0444C477.1 70.7444 481.1 67.2444 486.4 62.8444ZM156.9 98.5444C163.4 106.644 164.2 115.244 161.4 123.844C167.8 128.644 169.9 121.344 174.3 120.644C172.9 116.944 171.2 113.744 170.6 110.344C169.3 103.044 164.7 99.7444 156.9 98.5444ZM403.6 150.744C403.7 150.444 403.9 150.044 404 149.744C389.3 145.644 374.7 141.544 360 137.544C358.7 137.244 357.1 138.344 355.6 138.844C355.7 139.244 355.8 139.744 355.8 140.144C371.8 143.744 387.7 147.244 403.6 150.744Z" fill="#0F80CC"/>
<path d="M389.2 100.044C378.6 114.044 356.5 119.644 339.1 112.644C356.2 108.344 372.4 104.244 389.2 100.044Z" fill="#0F80CC"/>
<path d="M386.5 55.7444C387.8 65.0444 387.7 64.9444 379.3 67.8444C371.8 70.4444 364.3 73.0444 356.7 75.6444C355.7 66.9444 355.7 66.9444 363.2 64.1444C370.9 61.3444 378.7 58.5444 386.5 55.7444Z" fill="#0F80CC"/>
<path d="M47.6 97.5444C49.9 98.9444 50.9 99.5444 52.1 100.244C53.3 98.6444 54.3 97.2444 55.8 95.2444C56 97.7444 56.1 99.4444 56.2 101.544C57.9 101.544 59.4 101.544 61.3 101.544C61.3 99.3444 61.3 97.3444 61.3 95.3444C61.6 95.1444 61.9 94.9444 62.2 94.7444C63.1 96.3444 64 97.8444 65.3 100.044C67.3 97.4444 68.5 95.9444 69.9 94.0444C68.1 92.6444 66.6 91.5444 64.5 90.0444C66.6 90.0444 68.3 90.0444 70.6 90.0444C70.5 87.9444 70.3 86.0444 70.2 83.8444C68.1 84.0444 66.4 84.1444 64.1 84.4444C65.5 82.8444 66.6 81.7444 67.9 80.2444C65.8 78.3444 64.7 74.3444 61.9 77.6444C59.7 76.4444 57.9 75.4444 56.6 74.7444C61.6 72.4444 68.5 74.9444 72.1 81.0444C76.3 88.0444 74.4 97.5444 68 102.044C61.7 106.444 54.2 105.144 47.6 97.5444Z" fill="#0F80CC"/>
<path d="M424.7 117.044C418.2 125.844 404.1 130.044 393.4 126.344C403.8 123.244 414.3 120.144 424.7 117.044Z" fill="#0F80CC"/>
<path d="M419.1 54.3444C418.3 54.6444 417.5 55.1444 416.6 55.4444C414.7 56.0444 412.8 56.6444 410.9 57.1444C409.1 46.7444 409.5 46.0444 419.4 43.7444C419.3 45.5444 419.2 47.3444 419.1 49.1444C419.1 50.8444 419.1 52.4444 419.1 54.3444Z" fill="#0F80CC"/>
<path d="M406.9 48.4444C407.8 59.2444 407.8 59.2444 399.3 60.8444C397.8 51.8444 398.5 50.6444 406.9 48.4444Z" fill="#0F80CC"/>
<path d="M388.8 64.3444C387.9 54.5444 388.1 54.1444 395.3 52.9444C397.8 61.3444 397.1 62.5444 388.8 64.3444Z" fill="#0F80CC"/>
<path d="M63.3 88.6444C60.6 90.7444 59 92.8444 57.4 92.8444C56 92.8444 53.5 90.1444 53.7 88.9444C53.9 87.3444 56 85.1444 57.6 84.6444C58.7 84.4444 60.5 86.6444 63.3 88.6444Z" fill="#0F80CC"/>
<path d="M131.5 123.844C133.3 122.944 135.1 122.044 137 121.144C136.9 122.444 136.9 123.944 136.8 126.044C138.2 126.244 139.5 126.444 141.2 126.644C141.4 124.344 141.5 122.444 141.7 119.844C143.1 121.744 144 123.044 145.3 124.844C146.7 123.244 148 121.944 149.3 120.444C147.8 119.044 146.7 117.944 145 116.344C146.9 116.544 148.3 116.644 150.2 116.844C150.3 115.044 150.5 113.344 150.7 111.344C148.7 111.344 147.2 111.344 145.1 111.344C146.7 109.944 147.8 108.944 149.7 107.344C146.5 105.244 143.7 103.344 140.8 101.444C146.7 100.644 151.4 103.944 153.2 110.344C155.2 117.544 152 125.244 145.8 128.144C140.1 130.744 134.7 128.844 131.5 123.844Z" fill="#0F80CC"/>
<path d="M139.8 108.344C141.3 111.344 142.9 113.144 142.7 114.444C142.4 115.944 140.3 117.044 139.1 118.244C138 116.844 136 115.444 136 113.944C135.8 112.644 137.7 111.144 139.8 108.344Z" fill="#0F80CC"/>
<path d="M376.5 176.344C378.1 175.544 379.3 174.944 379.9 174.644C380.7 176.144 381.4 177.644 382.2 179.144C383.2 177.944 384.2 176.744 385.3 175.344C385.7 175.944 386.5 177.044 387.2 178.244C391.2 177.044 391.1 174.844 389.2 172.944C390.5 172.344 391.8 171.644 393.1 171.044C392.4 169.744 391.8 168.444 391.1 167.044C395.9 161.844 386.7 162.444 387.4 159.144C392.5 160.044 395.4 163.044 395.9 168.544C396.4 173.844 392.9 179.344 387.9 181.144C383.3 182.544 379.8 181.144 376.5 176.344Z" fill="#0F80CC"/>
<path d="M387.9 168.944C386.2 170.444 385.2 172.044 384 172.144C383.1 172.244 381.2 170.144 381.3 169.244C381.4 168.044 383 166.544 384.3 166.144C384.9 165.944 386.2 167.644 387.9 168.944Z" fill="#0F80CC"/>
<path d="M452.3 174.344C458.7 179.244 458.8 188.144 452.4 191.544C450.2 192.744 446.7 192.444 444.2 191.644C441.7 190.844 441.3 188.544 444.4 187.344C444.9 188.444 445.5 189.744 446 190.944C447.1 190.144 448.2 189.344 449.2 188.644C449.3 188.744 450 189.544 450.9 190.044C451.1 190.144 452.4 189.044 452.4 188.944C450.6 185.644 456.2 185.444 455.1 182.544C454.1 179.944 453.3 177.344 452.3 174.344Z" fill="#0F80CC"/>
</g>
</svg>
