<svg width="1180" height="1229" viewBox="0 0 1180 1229" fill="none" xmlns="http://www.w3.org/2000/svg">
<g opacity="0.2" filter="url(#filter0_f_104_17)">
<circle cx="1051" cy="285" r="444" fill="#3287F2"/>
</g>
<path d="M946.173 407.986L827.089 439.162H790.865C790.865 439.162 837.47 484.031 927.178 492.646C1016.89 501.26 1037.62 484.031 1037.62 484.031L946.173 407.986Z" fill="#E7EEF9"/>
<path d="M428.501 250.974L349.112 268.234L338.762 295.844L388.807 285.494L376.722 347.592L435.412 340.714L445.761 269.938L428.501 250.974Z" fill="#E7EEF9"/>
<path d="M378.458 357.942L373.283 389.023L407.803 382.112V356.238L378.458 357.942Z" fill="#E7EEF9"/>
<path d="M357.758 357.942L350.848 392.462L283.543 401.108L285.279 376.937L357.758 357.942Z" fill="#E7EEF9"/>
<path d="M755.43 511.546C722.551 511.546 695.888 528.522 695.888 549.411C695.888 570.3 722.551 587.276 755.43 587.276C788.31 587.276 814.973 570.268 814.973 549.411C814.973 528.554 788.373 511.546 755.43 511.546ZM755.43 566.734C740.474 566.734 728.357 559.035 728.357 549.506C728.357 539.976 740.474 532.246 755.43 532.246C770.387 532.246 782.567 540.134 782.567 549.6C782.567 559.066 770.45 566.734 755.43 566.734Z" fill="#E7EEF9"/>
<path d="M283.543 647.859L330.148 533.95L226.62 539.156L211.064 578.819H259.373L223.149 661.648L283.543 647.859Z" fill="#E7EEF9"/>
<path d="M483.721 399.372L552.73 383.848L642.469 411.457L573.429 423.511L554.465 407.986L483.721 421.807V399.372Z" fill="#E7EEF9"/>
<path d="M487.16 333.803L488.896 378.673L519.945 371.763L514.77 332.068L487.16 333.803Z" fill="#E7EEF9"/>
<path d="M57.4913 357.942L29.8816 437.332L142.056 466.677L159.316 404.547L111.007 359.677L57.4913 357.942Z" fill="#E7EEF9"/>
<path d="M1168.79 569.574L1124.14 525.398C1131.84 524.42 1139.29 523.347 1146.42 522.243L1140.83 510.379C1131.9 511.704 1122.53 512.966 1112.75 514.102L979.654 382.365C1015.03 377.095 1048.63 372.551 1074.32 369.901L1068.6 357.847C1040.84 360.813 1005.5 365.704 969.083 371.195L969.462 368.891L965.202 368.229L918.281 321.781L1023.64 262.239L1018.24 250.816L909.068 312.536L862.368 266.341L847.79 269.496L944.124 364.789L637.736 316.859C636.253 313.483 634.77 310.106 633.413 306.635C624.653 284.395 617.853 261.431 613.092 238.006L599.524 234.85C604.509 260.829 611.904 286.288 621.612 310.895L623.126 314.587L551.341 303.322L477.253 309.791L474.602 232.799L461.981 234.408L468.891 445.031C464.6 445.031 460.308 445.031 456.269 444.841C339.678 441.465 213.746 407.45 195.098 397.29C182.476 390.316 154.078 357.469 138.963 338.82C169.855 337.211 199.736 333.046 217.406 323.864C241.64 311.242 298.973 277.953 348.229 248.923L316.422 252.994C274.361 277.637 231.606 302.312 211.632 312.662C175.881 331.216 80.1469 327.366 43.3866 325.094L39.4424 337.527C53.1368 338.442 77.0546 339.704 103.56 339.704C109.871 339.704 116.655 339.704 123.313 339.451C128.046 345.447 169.539 397.7 189.071 408.365C208.603 419.03 335.386 453.96 455.922 457.431C460.361 457.558 464.873 457.621 469.459 457.621L470.406 486.429L373.945 489.238L372.494 488.733L372.304 489.269L180.709 494.854L3.81804 450.048L0 462.101L108.956 489.648L7.98316 630.473L19.7843 635.679L122.208 492.993L179.447 507.476L367.918 501.986L313.046 656.884L248.582 685.282L285.752 682.726L551.815 565.598L741.674 463.9C763.283 478.307 786.602 489.966 811.093 498.609C833.313 506.399 856.003 512.775 879.029 517.699L851.198 573.392L736.5 682.127L753.16 683.704L860.696 581.785L861.484 581.028L891.839 520.318C923.794 526.377 956.15 530.089 988.647 531.425L963.088 676.573L976.498 673.26L1001.55 531.772C1008.15 531.93 1014.68 532.056 1021.15 532.056C1050.21 532.025 1079.25 530.435 1108.14 527.292L1184.6 603.021L1168.79 569.574ZM328.886 649.973L381.329 501.67L470.816 499.114L473.687 586.298L328.886 649.973ZM935.857 376.464C862.652 388.013 792.76 400.508 777.551 403.537L764.93 406.093C751.425 408.902 730.378 413.288 704.819 418.084C679.63 392.635 658.999 363.05 643.826 330.616L935.857 376.464ZM477.758 322.412L550.805 316.101L628.869 328.344C644.114 362.385 664.919 393.651 690.431 420.86C647.518 428.654 594.507 437.048 542.853 441.623L542.317 440.834L540.865 441.812C520.671 443.548 500.729 444.715 481.67 444.968L477.758 322.412ZM482.175 457.463C494.418 457.274 507.04 456.706 519.819 455.885L482.964 480.75L482.175 457.463ZM546.608 554.081L486.214 580.649L483.437 495.675L545.283 453.929C600.565 448.943 657.141 439.73 701.38 431.526C710.46 440.195 720.083 448.279 730.189 455.727L546.608 554.081ZM815.384 486.493C778.884 473.913 745.217 454.271 716.305 428.686C737.919 424.552 755.684 420.86 767.612 418.368L780.012 415.812C802.542 411.3 885.402 396.879 964.066 384.731L1096.59 515.775C1016.92 523.442 914.684 521.58 815.384 486.493Z" fill="#E7EEF9"/>
<path d="M765.452 288.453L768.462 287.265C770.357 286.516 771.29 284.365 770.542 282.47C770.18 281.552 769.481 280.83 768.576 280.437C767.896 280.142 767.16 280.059 766.447 280.19L766.649 278.513L769.908 277.225C771.804 276.477 772.737 274.326 771.988 272.431C771.299 270.686 769.421 269.76 767.648 270.208L768.878 259.997C770.403 259.428 771.87 258.867 773.262 258.317C777.274 256.732 780.834 254.757 783.287 252.755C787.431 249.371 787.499 246.631 786.827 244.928C786.155 243.225 784.233 241.271 778.894 241.632C775.737 241.846 771.788 242.836 767.775 244.421C766.383 244.971 764.928 245.564 763.426 246.19L755.552 239.574C757.152 238.69 757.891 236.731 757.202 234.986C756.454 233.091 754.303 232.157 752.408 232.906L749.149 234.194L747.855 233.107C748.465 232.715 748.945 232.151 749.24 231.472C749.633 230.566 749.65 229.561 749.287 228.644C748.54 226.748 746.388 225.815 744.493 226.564L741.483 227.753L732.166 219.924C731.834 219.646 731.377 219.571 730.974 219.73L727.025 221.29C726.362 221.551 726.08 222.368 726.44 222.983L744.865 254.456C735.8 258.679 726.956 263.007 720.686 266.121L714.07 259.622C713.738 259.295 713.244 259.195 712.811 259.366L708.13 261.215C707.525 261.455 707.227 262.139 707.466 262.745L716.708 286.148C716.943 286.745 717.64 287.048 718.238 286.811L722.918 284.963C723.351 284.792 723.644 284.381 723.663 283.915L724.054 274.649C730.759 272.639 740.174 269.756 749.679 266.645L750.552 270.506C750.707 271.192 751.45 271.594 752.109 271.353C752.659 271.152 752.981 270.555 752.853 269.986L751.929 265.905C756.908 264.258 761.855 262.563 766.391 260.912L761.74 299.557L759.724 300.353L754.017 275.133C753.874 274.498 753.242 274.1 752.607 274.243C751.971 274.387 751.573 275.019 751.717 275.654L757.728 302.216C757.885 302.911 758.648 303.315 759.311 303.053L763.26 301.493C763.663 301.334 763.946 300.967 763.998 300.537L765.452 288.453ZM753.275 235.101C753.952 234.833 754.741 235.175 755.009 235.853C755.28 236.538 754.942 237.316 754.257 237.587L753.529 237.874L751.202 235.919L753.275 235.101ZM745.36 228.758C746.045 228.487 746.823 228.825 747.094 229.511C747.365 230.196 747.027 230.974 746.342 231.245L745.863 231.433L743.536 229.478L745.36 228.758ZM729.171 222.978L731.187 222.182L760.985 247.221C756.545 249.116 751.775 251.259 747.014 253.458L729.171 222.978ZM712.964 261.842L718.453 267.234C715.947 268.485 714.019 269.458 712.881 270.034L710.093 262.975L712.964 261.842ZM713.751 272.238C719.497 269.323 749.809 254.053 768.642 246.615C772.379 245.139 776.174 244.181 779.053 243.986C781.215 243.84 783.938 244.035 784.633 245.795C785.328 247.554 783.473 249.557 781.795 250.928C779.559 252.753 776.133 254.646 772.396 256.122C753.564 263.56 720.998 273.124 714.811 274.922L713.751 272.238ZM721.339 283.051L718.469 284.184L715.681 277.125C716.906 276.769 718.979 276.162 721.663 275.363L721.339 283.051ZM766.614 282.584C767.3 282.313 768.078 282.651 768.348 283.336C768.619 284.022 768.282 284.8 767.596 285.071L765.773 285.791L766.136 282.773L766.614 282.584ZM768.06 272.545C768.745 272.274 769.524 272.612 769.795 273.297C770.062 273.975 769.72 274.764 769.042 275.031L766.969 275.85L767.332 272.832L768.06 272.545Z" fill="#CCDBF6"/>
<path d="M753.137 302.875L739.899 308.103C739.335 308.327 739.026 308.966 739.205 309.547C739.404 310.195 740.135 310.547 740.766 310.298L754.004 305.069C754.61 304.83 754.907 304.145 754.668 303.539C754.429 302.933 753.743 302.636 753.137 302.875Z" fill="#CCDBF6"/>
<path d="M751.39 298.45C751.996 298.211 752.293 297.525 752.053 296.92C751.815 296.314 751.129 296.017 750.524 296.256L742.25 299.523C741.685 299.747 741.377 300.386 741.555 300.967C741.755 301.615 742.485 301.967 743.116 301.718L751.39 298.45Z" fill="#CCDBF6"/>
<path d="M750.431 291.177C751.037 290.938 751.334 290.252 751.095 289.647C750.855 289.041 750.171 288.744 749.564 288.983L743.773 291.27C743.208 291.493 742.899 292.133 743.079 292.714C743.278 293.362 744.008 293.714 744.639 293.465L750.431 291.177Z" fill="#CCDBF6"/>
<path d="M723.052 224.685C722.813 224.079 722.127 223.782 721.522 224.021L708.284 229.25C707.678 229.489 707.38 230.174 707.62 230.78C707.856 231.377 708.552 231.679 709.15 231.443L722.388 226.215C722.994 225.975 723.291 225.291 723.052 224.685Z" fill="#CCDBF6"/>
<path d="M725.666 231.304C725.426 230.698 724.741 230.401 724.136 230.64L715.862 233.908C715.297 234.131 714.989 234.77 715.167 235.351C715.367 235.999 716.097 236.351 716.728 236.102L725.002 232.834C725.608 232.595 725.905 231.91 725.666 231.304Z" fill="#CCDBF6"/>
<path d="M721.949 240.424C722.185 241.021 722.881 241.323 723.479 241.087L729.271 238.8C729.876 238.56 730.173 237.876 729.934 237.27C729.695 236.664 729.01 236.367 728.404 236.606L722.612 238.893C722.007 239.133 721.71 239.818 721.949 240.424Z" fill="#CCDBF6"/>
<path d="M142.353 384.796L144.642 382.508C146.082 381.066 146.082 378.722 144.642 377.281C143.943 376.583 143.016 376.199 142.028 376.199C141.287 376.199 140.579 376.415 139.977 376.819L139.495 375.2L141.973 372.722C143.414 371.281 143.414 368.936 141.973 367.496C140.646 366.169 138.555 366.067 137.107 367.183L134.171 357.326C135.344 356.197 136.467 355.099 137.525 354.04C140.575 350.989 143.055 347.761 144.508 344.948C146.963 340.195 145.936 337.654 144.641 336.359C143.347 335.064 140.806 334.037 136.052 336.493C133.24 337.945 130.012 340.425 126.962 343.476C125.903 344.534 124.804 345.657 123.675 346.83L113.819 343.894C114.935 342.446 114.833 340.355 113.507 339.028C112.066 337.587 109.722 337.586 108.281 339.028L105.803 341.506L104.184 341.024C104.587 340.421 104.804 339.713 104.804 338.972C104.804 337.985 104.419 337.057 103.722 336.359C102.281 334.918 99.9364 334.918 98.496 336.359L96.2078 338.647L84.5446 335.173C84.1289 335.05 83.6797 335.163 83.3739 335.47L80.3716 338.472C79.8675 338.976 79.934 339.837 80.5089 340.257L109.936 361.799C103.301 369.28 96.9097 376.771 92.3974 382.123L83.7414 378.793C83.3062 378.626 82.8136 378.73 82.484 379.06L78.9257 382.619C78.4655 383.079 78.4655 383.826 78.9257 384.286L96.7168 402.079C97.1709 402.533 97.9302 402.533 98.3849 402.079L101.943 398.521C102.272 398.191 102.377 397.698 102.209 397.263L98.8805 388.607C104.232 384.094 111.722 377.702 119.203 371.066L121.541 374.261C121.956 374.828 122.798 374.901 123.307 374.417C123.731 374.015 123.79 373.339 123.445 372.868L120.973 369.491C124.886 365.999 128.749 362.476 132.255 359.156L143.366 396.46L141.833 397.992L126.562 377.126C126.177 376.601 125.439 376.487 124.914 376.871C124.388 377.256 124.274 377.994 124.659 378.52L140.743 400.496C141.164 401.071 142.025 401.137 142.529 400.633L145.531 397.631C145.837 397.325 145.951 396.875 145.828 396.46L142.353 384.796ZM109.949 340.696C110.464 340.181 111.324 340.181 111.84 340.696C112.361 341.217 112.361 342.065 111.84 342.586L111.287 343.139L108.373 342.271L109.949 340.696ZM100.164 338.027C100.685 337.506 101.533 337.506 102.054 338.027C102.576 338.548 102.576 339.396 102.054 339.917L101.691 340.281L98.778 339.413L100.164 338.027ZM83.012 339.167L84.5446 337.635L121.846 348.746C118.527 352.252 115.004 356.116 111.511 360.029L83.012 339.167ZM83.6101 381.27L90.7909 384.032C88.9898 386.177 87.6085 387.837 86.7937 388.819L81.4275 383.452L83.6101 381.27ZM88.4691 390.495C92.5805 385.534 114.312 359.462 128.63 345.144C131.47 342.302 134.571 339.913 137.135 338.589C139.06 337.594 141.636 336.689 142.974 338.027C144.311 339.365 143.406 341.941 142.412 343.866C141.088 346.43 138.698 349.531 135.857 352.372C121.54 366.689 95.4699 388.423 90.5096 392.535L88.4691 390.495ZM99.7332 397.394L97.5512 399.577L92.185 394.21C93.1664 393.396 94.8266 392.014 96.9713 390.213L99.7332 397.394ZM141.083 378.949C141.605 378.428 142.452 378.428 142.974 378.949C143.495 379.47 143.495 380.318 142.974 380.839L141.587 382.226L140.72 379.313L141.083 378.949ZM138.415 369.163C138.935 368.642 139.784 368.642 140.305 369.163C140.82 369.678 140.82 370.538 140.305 371.054L138.729 372.63L137.861 369.716L138.415 369.163Z" fill="#CCDBF6"/>
<path d="M136.794 402.927L126.73 412.992C126.301 413.421 126.272 414.131 126.667 414.592C127.109 415.107 127.919 415.14 128.398 414.66L138.462 404.595C138.923 404.134 138.923 403.388 138.462 402.927C138.002 402.467 137.255 402.467 136.794 402.927Z" fill="#CCDBF6"/>
<path d="M133.43 399.562C133.891 399.102 133.891 398.355 133.43 397.895C132.97 397.434 132.223 397.434 131.763 397.895L125.472 404.185C125.043 404.615 125.015 405.324 125.409 405.785C125.851 406.301 126.661 406.333 127.14 405.853L133.43 399.562Z" fill="#CCDBF6"/>
<path d="M129.656 393.272C130.117 392.812 130.117 392.064 129.656 391.604C129.195 391.143 128.449 391.143 127.988 391.604L123.585 396.008C123.156 396.437 123.127 397.147 123.523 397.608C123.964 398.123 124.773 398.156 125.253 397.676L129.656 393.272Z" fill="#CCDBF6"/>
<path d="M78.0779 343.167C77.6171 342.707 76.87 342.707 76.4098 343.167L66.3457 353.233C65.8849 353.693 65.8849 354.44 66.3457 354.9C66.7998 355.354 67.5591 355.354 68.0138 354.9L78.0779 344.835C78.5381 344.375 78.5381 343.628 78.0779 343.167Z" fill="#CCDBF6"/>
<path d="M83.1096 348.2C82.6488 347.739 81.9024 347.739 81.4422 348.2L75.1519 354.491C74.7222 354.92 74.6941 355.629 75.089 356.09C75.5303 356.606 76.3396 356.638 76.8194 356.158L83.1096 349.868C83.5705 349.407 83.5705 348.66 83.1096 348.2Z" fill="#CCDBF6"/>
<path d="M83.3288 358.045C83.7835 358.5 84.5421 358.5 84.9969 358.045L89.3999 353.642C89.8601 353.181 89.8601 352.435 89.3999 351.974C88.9391 351.514 88.1927 351.514 87.7318 351.974L83.3288 356.377C82.8686 356.838 82.8686 357.585 83.3288 358.045Z" fill="#CCDBF6"/>
<path d="M396.854 427.763L397.288 424.556C397.56 422.537 396.14 420.672 394.121 420.398C393.142 420.266 392.171 420.523 391.386 421.121C390.796 421.57 390.364 422.171 390.13 422.857L388.766 421.862L389.235 418.389C389.508 416.369 388.087 414.504 386.068 414.232C384.209 413.98 382.483 415.166 382.008 416.932L373.699 410.87C373.948 409.261 374.175 407.707 374.376 406.223C374.953 401.948 374.97 397.877 374.421 394.759C373.494 389.49 371.136 388.091 369.322 387.846C367.508 387.6 364.865 388.323 362.571 393.157C361.214 396.017 360.149 399.946 359.571 404.221C359.371 405.704 359.177 407.263 358.99 408.88L349.37 412.517C349.38 410.689 348.032 409.088 346.173 408.836C344.154 408.563 342.288 409.983 342.016 412.002L341.546 415.475L339.966 416.073C339.922 415.349 339.665 414.655 339.216 414.065C338.618 413.28 337.75 412.775 336.772 412.642C334.753 412.369 332.887 413.79 332.615 415.809L332.181 419.016L320.798 423.32C320.393 423.474 320.104 423.836 320.047 424.266L319.478 428.473C319.382 429.179 319.957 429.824 320.669 429.81L357.132 429.113C356.387 439.086 355.842 448.917 355.496 455.909L346.592 458.506C346.145 458.637 345.816 459.018 345.754 459.48L345.08 464.467C344.993 465.113 345.445 465.706 346.09 465.794L371.025 469.166C371.661 469.252 372.265 468.792 372.351 468.155L373.025 463.169C373.088 462.707 372.873 462.251 372.475 462.006L364.582 457.138C366.104 450.305 368.189 440.682 370.119 430.869L373.914 431.994C374.588 432.194 375.302 431.742 375.414 431.049C375.507 430.471 375.145 429.898 374.585 429.733L370.573 428.544C371.569 423.395 372.507 418.252 373.284 413.487L404.728 436.428L404.437 438.575L379.645 431.231C379.021 431.046 378.364 431.403 378.179 432.027C377.994 432.652 378.351 433.308 378.975 433.493L405.087 441.227C405.77 441.43 406.496 440.961 406.591 440.255L407.16 436.047C407.218 435.618 407.036 435.191 406.686 434.936L396.854 427.763ZM344.354 412.319C344.451 411.597 345.135 411.075 345.857 411.173C346.588 411.272 347.102 411.946 347.003 412.677L346.898 413.452L344.055 414.527L344.354 412.319ZM334.953 416.125C335.051 415.395 335.726 414.881 336.456 414.98C337.187 415.079 337.701 415.753 337.602 416.484L337.533 416.993L334.69 418.068L334.953 416.125ZM321.999 427.426L322.29 425.278L358.696 411.513C358.18 416.314 357.719 421.522 357.312 426.751L321.999 427.426ZM347.989 460.556L355.375 458.401C355.242 461.199 355.149 463.356 355.096 464.631L347.575 463.614L347.989 460.556ZM357.444 464.949C357.708 458.511 359.196 424.603 361.909 404.537C362.447 400.555 363.465 396.776 364.702 394.168C365.631 392.21 367.132 389.93 369.007 390.184C370.882 390.437 371.723 393.035 372.098 395.169C372.599 398.011 372.576 401.925 372.038 405.907C369.326 425.972 361.757 459.059 360.304 465.336L357.444 464.949ZM370.585 463.612L370.172 466.67L362.651 465.653C362.939 464.41 363.422 462.306 364.037 459.573L370.585 463.612ZM392.301 423.881C392.4 423.151 393.074 422.637 393.805 422.736C394.535 422.835 395.049 423.509 394.95 424.24L394.687 426.182L392.232 424.391L392.301 423.881ZM384.248 417.714C384.346 416.984 385.022 416.47 385.752 416.569C386.474 416.666 386.995 417.35 386.897 418.072L386.599 420.281L384.143 418.489L384.248 417.714Z" fill="#CCDBF6"/>
<path d="M403.419 445.554L401.513 459.659C401.432 460.261 401.839 460.843 402.433 460.971C403.096 461.113 403.76 460.648 403.851 459.976L405.757 445.871C405.845 445.225 405.392 444.631 404.746 444.544C404.101 444.456 403.507 444.909 403.419 445.554Z" fill="#CCDBF6"/>
<path d="M398.704 444.917C398.792 444.271 398.339 443.677 397.694 443.59C397.049 443.503 396.454 443.955 396.367 444.601L395.175 453.416C395.094 454.018 395.501 454.6 396.095 454.727C396.758 454.87 397.422 454.405 397.513 453.732L398.704 444.917Z" fill="#CCDBF6"/>
<path d="M391.891 442.2C391.978 441.554 391.525 440.96 390.88 440.873C390.234 440.786 389.64 441.238 389.553 441.884L388.719 448.055C388.637 448.656 389.045 449.238 389.639 449.366C390.302 449.508 390.966 449.043 391.057 448.371L391.891 442.2Z" fill="#CCDBF6"/>
<path d="M320.498 433.598C319.853 433.511 319.259 433.964 319.171 434.609L317.265 448.714C317.177 449.36 317.63 449.954 318.276 450.041C318.912 450.127 319.516 449.667 319.603 449.03L321.509 434.925C321.596 434.28 321.144 433.686 320.498 433.598Z" fill="#CCDBF6"/>
<path d="M327.551 434.552C326.905 434.465 326.311 434.917 326.224 435.563L325.033 444.379C324.951 444.98 325.358 445.562 325.952 445.689C326.615 445.832 327.279 445.367 327.37 444.695L328.562 435.879C328.649 435.234 328.196 434.639 327.551 434.552Z" fill="#CCDBF6"/>
<path d="M333.691 442.252C334.328 442.337 334.932 441.877 335.018 441.241L335.852 435.07C335.939 434.424 335.487 433.83 334.842 433.743C334.196 433.656 333.602 434.108 333.515 434.754L332.68 440.925C332.594 441.57 333.046 442.164 333.691 442.252Z" fill="#CCDBF6"/>
<path d="M415.327 202.374L412.581 200.661C410.851 199.584 408.568 200.114 407.489 201.843C406.967 202.68 406.803 203.671 407.026 204.633C407.193 205.355 407.564 205.996 408.093 206.491L406.625 207.326L403.651 205.473C401.922 204.395 399.638 204.925 398.56 206.654C397.568 208.246 397.941 210.306 399.356 211.464L390.417 216.552C389.052 215.665 387.728 214.819 386.458 214.027C382.797 211.746 379.092 210.06 376.024 209.28C370.838 207.962 368.595 209.537 367.626 211.091C366.658 212.644 366.231 215.351 369.697 219.428C371.748 221.838 374.894 224.423 378.555 226.705C379.825 227.497 381.167 228.314 382.564 229.148L381.931 239.413C380.269 238.653 378.255 239.225 377.262 240.817C376.184 242.546 376.713 244.83 378.443 245.907L381.417 247.761L381.313 249.447C380.635 249.191 379.896 249.14 379.174 249.307C378.213 249.53 377.395 250.114 376.873 250.952C375.795 252.681 376.325 254.965 378.054 256.042L380.801 257.754L380.052 269.901C380.026 270.334 380.238 270.746 380.606 270.974L384.209 273.22C384.813 273.598 385.637 273.338 385.917 272.683L400.251 239.149C409.038 243.922 417.78 248.455 424.013 251.641L422.725 260.826C422.661 261.287 422.874 261.744 423.269 261.99L427.54 264.652C428.093 264.996 428.82 264.828 429.165 264.275L442.476 242.924C442.816 242.379 442.645 241.639 442.099 241.299L437.829 238.637C437.434 238.39 436.929 238.4 436.543 238.662L428.864 243.86C423.258 239.667 415.339 233.816 407.184 228.027L409.768 225.028C410.226 224.496 410.107 223.659 409.521 223.273C409.033 222.95 408.362 223.046 407.981 223.488L405.25 226.659C400.964 223.637 396.659 220.67 392.633 218.005L426.461 198.751L428.299 199.898L411.425 219.49C411 219.983 411.055 220.728 411.549 221.153C412.043 221.578 412.787 221.523 413.212 221.029L430.985 200.394C431.45 199.854 431.32 199 430.715 198.624L427.112 196.378C426.745 196.148 426.281 196.139 425.904 196.353L415.327 202.374ZM379.691 243.905C379.073 243.52 378.878 242.682 379.264 242.064C379.654 241.438 380.48 241.247 381.105 241.637L381.769 242.05L381.582 245.084L379.691 243.905ZM379.303 254.04C378.677 253.651 378.485 252.825 378.875 252.199C379.265 251.573 380.091 251.382 380.717 251.772L381.153 252.044L380.966 255.077L379.303 254.04ZM384.289 270.491L382.45 269.345L384.844 230.497C389.01 232.938 393.57 235.497 398.171 238.015L384.289 270.491ZM425.168 260.394L426.236 252.774C428.732 254.044 430.661 255.015 431.802 255.587L427.787 262.027L425.168 260.394ZM433.056 253.576C427.294 250.692 396.986 235.414 379.802 224.703C376.392 222.578 373.364 220.098 371.495 217.899C370.09 216.249 368.627 213.944 369.628 212.338C370.629 210.733 373.343 211.032 375.443 211.566C378.24 212.277 381.8 213.904 385.21 216.029C402.392 226.74 429.455 247.224 434.582 251.127L433.056 253.576ZM437.231 241.044L439.85 242.676L435.835 249.116C434.82 248.344 433.099 247.039 430.86 245.357L437.231 241.044ZM409.918 204.932C409.293 204.542 409.101 203.716 409.491 203.091C409.881 202.465 410.707 202.273 411.333 202.663L412.996 203.7L410.355 205.204L409.918 204.932ZM400.989 209.743C400.363 209.353 400.172 208.527 400.562 207.901C400.947 207.283 401.785 207.089 402.403 207.474L404.295 208.653L401.653 210.157L400.989 209.743Z" fill="#CCDBF6"/>
<path d="M434.245 203.691L446.324 211.22C446.84 211.541 447.537 211.409 447.897 210.92C448.3 210.374 448.148 209.577 447.572 209.218L435.494 201.689C434.94 201.345 434.213 201.513 433.868 202.066C433.524 202.619 433.693 203.346 434.245 203.691Z" fill="#CCDBF6"/>
<path d="M431.728 207.729C431.176 207.384 430.448 207.553 430.104 208.106C429.759 208.658 429.928 209.386 430.481 209.73L438.03 214.436C438.545 214.757 439.243 214.625 439.603 214.136C440.005 213.589 439.853 212.793 439.278 212.434L431.728 207.729Z" fill="#CCDBF6"/>
<path d="M426.454 212.826C425.901 212.482 425.173 212.651 424.829 213.203C424.484 213.756 424.653 214.484 425.206 214.828L430.49 218.122C431.005 218.443 431.703 218.311 432.063 217.821C432.466 217.276 432.314 216.479 431.738 216.12L426.454 212.826Z" fill="#CCDBF6"/>
<path d="M389.301 274.394C388.957 274.947 389.126 275.674 389.678 276.019L401.757 283.548C402.31 283.893 403.037 283.724 403.382 283.171C403.721 282.626 403.55 281.886 403.005 281.546L390.926 274.017C390.373 273.672 389.646 273.841 389.301 274.394Z" fill="#CCDBF6"/>
<path d="M393.066 268.355C392.721 268.908 392.89 269.635 393.443 269.979L400.993 274.685C401.508 275.007 402.205 274.874 402.565 274.385C402.967 273.838 402.816 273.043 402.24 272.684L394.691 267.978C394.138 267.633 393.41 267.802 393.066 268.355Z" fill="#CCDBF6"/>
<path d="M402.608 265.916C402.947 265.371 402.776 264.632 402.231 264.291L396.946 260.997C396.393 260.653 395.666 260.822 395.321 261.374C394.977 261.927 395.146 262.654 395.698 262.999L400.983 266.293C401.536 266.637 402.263 266.469 402.608 265.916Z" fill="#CCDBF6"/>
<path d="M962.378 425.443L960.259 422.996C958.925 421.456 956.587 421.288 955.046 422.621C954.3 423.268 953.85 424.166 953.779 425.151C953.726 425.89 953.891 426.611 954.251 427.241L952.601 427.605L950.307 424.957C948.973 423.416 946.635 423.248 945.094 424.582C943.676 425.81 943.424 427.888 944.434 429.413L934.392 431.634C933.35 430.384 932.335 429.185 931.355 428.053C928.531 424.792 925.488 422.087 922.787 420.436C918.222 417.646 915.613 418.489 914.229 419.688C912.845 420.885 911.638 423.346 913.747 428.264C914.994 431.173 917.236 434.571 920.06 437.832C921.04 438.963 922.081 440.14 923.17 441.35L919.534 450.971C918.17 449.753 916.077 449.705 914.658 450.933C913.118 452.267 912.95 454.605 914.284 456.145L916.578 458.795L915.981 460.375C915.409 459.929 914.718 459.663 913.979 459.609C912.994 459.539 912.041 459.856 911.295 460.501C909.754 461.835 909.586 464.174 910.92 465.714L913.039 468.16L908.737 479.544C908.584 479.95 908.665 480.406 908.949 480.733L911.728 483.943C912.194 484.482 913.058 484.477 913.519 483.934L937.115 456.127C944.102 463.282 951.115 470.194 956.129 475.078L952.187 483.473C951.989 483.895 952.058 484.394 952.363 484.747L955.657 488.551C956.084 489.043 956.829 489.097 957.321 488.671L976.343 472.201C976.829 471.781 976.884 471.024 976.463 470.537L973.169 466.734C972.864 466.381 972.379 466.241 971.933 466.377L963.061 469.077C958.944 463.416 953.105 455.487 947.023 447.549L950.377 445.446C950.972 445.073 951.106 444.238 950.66 443.696C950.289 443.244 949.619 443.137 949.124 443.447L945.579 445.67C942.376 441.517 939.139 437.411 936.079 433.677L974.084 425.269L975.502 426.908L953.595 440.644C953.044 440.99 952.877 441.717 953.223 442.269C953.569 442.821 954.297 442.988 954.849 442.642L977.922 428.175C978.525 427.796 978.653 426.942 978.187 426.404L975.407 423.194C975.124 422.866 974.683 422.721 974.261 422.814L962.378 425.443ZM916.067 454.601C915.59 454.05 915.652 453.192 916.203 452.716C916.76 452.233 917.606 452.294 918.088 452.851L918.6 453.442L917.526 456.286L916.067 454.601ZM912.704 464.17C912.221 463.613 912.282 462.767 912.839 462.284C913.397 461.802 914.242 461.863 914.725 462.42L915.061 462.809L913.987 465.652L912.704 464.17ZM912.61 481.359L911.192 479.721L924.95 443.312C928.209 446.875 931.81 450.666 935.462 454.43L912.61 481.359ZM954.649 483.782L957.918 476.818C959.929 478.768 961.485 480.265 962.406 481.148L956.669 486.115L954.649 483.782ZM964.197 479.597C959.544 475.14 935.098 451.595 921.843 436.288C919.213 433.251 917.052 429.987 915.915 427.334C915.061 425.343 914.343 422.709 915.774 421.47C917.204 420.232 919.708 421.319 921.557 422.449C924.02 423.954 926.941 426.56 929.571 429.597C942.825 444.904 962.633 472.466 966.379 477.708L964.197 479.597ZM971.887 468.857L973.907 471.19L968.17 476.157C967.428 475.12 966.169 473.365 964.526 471.096L971.887 468.857ZM956.455 426.29C955.972 425.733 956.033 424.887 956.59 424.405C957.147 423.922 957.993 423.983 958.476 424.54L959.759 426.022L956.791 426.679L956.455 426.29ZM946.503 428.25C946.02 427.693 946.081 426.847 946.638 426.365C947.189 425.888 948.047 425.95 948.524 426.5L949.983 428.185L947.015 428.842L946.503 428.25Z" fill="#CCDBF6"/>
<path d="M980.063 432.288L989.38 443.048C989.778 443.506 990.484 443.586 990.972 443.225C991.518 442.822 991.608 442.016 991.164 441.503L981.847 430.743C981.42 430.251 980.676 430.197 980.183 430.624C979.691 431.05 979.637 431.795 980.063 432.288Z" fill="#CCDBF6"/>
<path d="M976.466 435.402C976.04 434.909 975.295 434.856 974.803 435.282C974.31 435.708 974.257 436.454 974.683 436.946L980.506 443.671C980.904 444.13 981.609 444.209 982.098 443.848C982.643 443.445 982.734 442.639 982.29 442.127L976.466 435.402Z" fill="#CCDBF6"/>
<path d="M969.922 438.715C969.495 438.222 968.75 438.169 968.258 438.595C967.765 439.022 967.712 439.767 968.138 440.259L972.214 444.967C972.612 445.425 973.318 445.505 973.806 445.144C974.352 444.741 974.442 443.935 973.998 443.423L969.922 438.715Z" fill="#CCDBF6"/>
<path d="M916.247 486.568C915.755 486.994 915.701 487.739 916.127 488.231L925.445 498.991C925.871 499.484 926.616 499.538 927.108 499.111C927.594 498.691 927.648 497.933 927.228 497.447L917.911 486.687C917.484 486.195 916.739 486.142 916.247 486.568Z" fill="#CCDBF6"/>
<path d="M921.627 481.91C921.135 482.336 921.081 483.081 921.508 483.573L927.331 490.298C927.728 490.757 928.434 490.836 928.922 490.475C929.468 490.072 929.558 489.267 929.114 488.754L923.291 482.029C922.865 481.537 922.119 481.483 921.627 481.91Z" fill="#CCDBF6"/>
<path d="M931.463 482.397C931.949 481.976 932.003 481.219 931.583 480.733L927.507 476.026C927.08 475.534 926.335 475.48 925.843 475.906C925.351 476.333 925.297 477.077 925.723 477.57L929.799 482.277C930.226 482.77 930.971 482.823 931.463 482.397Z" fill="#CCDBF6"/>
<defs>
<filter id="filter0_f_104_17" x="107" y="-659" width="1888" height="1888" filterUnits="userSpaceOnUse" color-interpolation-filters="sRGB">
<feFlood flood-opacity="0" result="BackgroundImageFix"/>
<feBlend mode="normal" in="SourceGraphic" in2="BackgroundImageFix" result="shape"/>
<feGaussianBlur stdDeviation="250" result="effect1_foregroundBlur_104_17"/>
</filter>
</defs>
</svg>
