<svg width="64" height="50" viewBox="0 0 64 50" fill="none" xmlns="http://www.w3.org/2000/svg">
<path d="M26.6812 37.5002H49.5482C50.119 37.5002 50.5804 37.0335 50.5804 36.4585V19.7921C50.5804 19.2171 50.119 18.7505 49.5482 18.7505H14.4508C13.88 18.7505 13.4185 19.2171 13.4185 19.7921V25.1275C12.8776 25.0493 12.3316 25.0004 11.7814 25.0004C9.99242 25.0004 8.20039 25.4275 6.59933 26.2347L5.40396 26.8379C3.73477 27.6806 1.86635 28.1253 0 28.1253V30.2086C2.18429 30.2086 4.37272 29.6878 6.32784 28.7014L7.52322 28.0983C10.7687 26.4629 14.8999 26.9056 17.7293 29.1889L23.6783 33.9909C24.3751 34.5544 24.7746 35.3929 24.7746 36.2919C24.7746 36.8762 24.6053 37.4419 24.2832 37.9273L23.4553 39.1804L15.0237 33.5086L13.8789 35.2419L23.1694 41.4918C23.2912 41.5741 23.4316 41.6303 23.5803 41.6543L40.844 44.4053C41.7008 44.5407 42.3222 45.2751 42.3222 46.1511C42.3222 47.124 41.5367 47.9167 40.5715 47.9167H24.7736C22.2321 47.9167 19.6875 47.3105 17.4145 46.1636L11.4892 43.1741C9.53409 42.1876 7.34567 41.6668 5.16137 41.6668H0V43.7501H5.16137C7.02773 43.7501 8.89614 44.1949 10.5653 45.0376L16.4906 48.0271C19.0496 49.3177 21.9131 50 24.7736 50H40.5715C42.6753 50 44.3868 48.2729 44.3868 46.1511C44.3868 44.2438 43.0324 42.6449 41.1671 42.347L25.4951 39.8502L26.0009 39.0835C26.323 38.5971 26.5439 38.0596 26.6812 37.5002ZM44.491 35.4169C44.9029 33.3794 46.4967 31.7711 48.5159 31.3555V35.4169H44.491ZM48.5159 24.8952C46.4967 24.4796 44.9029 22.8713 44.491 20.8338H48.5159V24.8952ZM19.5079 20.8338C19.0961 22.8713 17.5022 24.4796 15.4831 24.8952V20.8338H19.5079ZM24.9676 32.3638L21.0078 29.167H24.7736V27.0837H20.6445V28.8743L19.0197 27.5628C18.5025 27.1451 17.9502 26.7754 17.3732 26.4556C19.6019 25.4556 21.2349 23.3515 21.5942 20.8348H42.4048C42.8601 24.0212 45.3582 26.542 48.5159 27.0014V29.2514C45.3582 29.7107 42.8601 32.2315 42.4048 35.4179H26.7566C26.548 34.2221 25.9266 33.1388 24.9676 32.3638Z" fill="#0F80CC"/>
<path d="M31.9995 33.3336C34.8455 33.3336 37.1609 30.9972 37.1609 28.1253C37.1609 25.2535 34.8455 22.9171 31.9995 22.9171C29.1535 22.9171 26.8381 25.2535 26.8381 28.1253C26.8381 30.9972 29.1535 33.3336 31.9995 33.3336ZM31.9995 25.0004C33.7069 25.0004 35.0963 26.4025 35.0963 28.1253C35.0963 29.8482 33.7069 31.2503 31.9995 31.2503C30.2921 31.2503 28.9027 29.8482 28.9027 28.1253C28.9027 26.4025 30.2921 25.0004 31.9995 25.0004Z" fill="#0F80CC"/>
<path d="M39.2254 27.0837H43.3545V29.167H39.2254V27.0837Z" fill="#0F80CC"/>
<path d="M39.2254 3.12573H35.0963V1.04243C35.0963 0.680977 34.9105 0.346608 34.606 0.155986C34.3015 -0.0346364 33.9216 -0.0513035 33.6016 0.110152L21.2143 6.36005C20.8654 6.53714 20.6445 6.89755 20.6445 7.29233C20.6445 7.68712 20.8654 8.04753 21.2153 8.22461L33.6026 14.4745C33.9236 14.6349 34.3035 14.6183 34.607 14.4287C34.9105 14.2381 35.0963 13.9037 35.0963 13.5422V11.4589H39.2254C48.3321 11.4589 55.7418 18.9359 55.7418 28.1253C55.7418 28.7003 56.2032 29.167 56.7741 29.167H62.9677C63.5386 29.167 64 28.7003 64 28.1253C64 14.3412 52.8855 3.12573 39.2254 3.12573ZM57.7785 27.0837C57.2407 17.2276 49.1249 9.37563 39.2254 9.37563H34.064C33.4932 9.37563 33.0318 9.84229 33.0318 10.4173V11.8568L23.9849 7.29233L33.0318 2.72782V4.16738C33.0318 4.74237 33.4932 5.20903 34.064 5.20903H39.2254C51.4021 5.20903 61.3698 14.9297 61.9127 27.0837H57.7785Z" fill="#0F80CC"/>
</svg>
