<svg width="54" height="54" viewBox="0 0 54 54" fill="none" xmlns="http://www.w3.org/2000/svg">
<path d="M12.1935 3.48387H17.4194V5.22581H12.1935V3.48387Z" fill="#0F80CC"/>
<path d="M14.8065 45.2903C13.3659 45.2903 12.1935 46.4626 12.1935 47.9032C12.1935 49.3438 13.3659 50.5161 14.8065 50.5161C16.247 50.5161 17.4194 49.3438 17.4194 47.9032C17.4194 46.4626 16.247 45.2903 14.8065 45.2903ZM14.8065 48.7742C14.3265 48.7742 13.9355 48.384 13.9355 47.9032C13.9355 47.4225 14.3265 47.0323 14.8065 47.0323C15.2864 47.0323 15.6774 47.4225 15.6774 47.9032C15.6774 48.384 15.2864 48.7742 14.8065 48.7742Z" fill="#0F80CC"/>
<path d="M12.2989 15.4222C11.3409 14.4633 10.0658 13.9355 8.70968 13.9355C7.35358 13.9355 6.07848 14.4633 5.12042 15.4222L4.97061 15.572C4.02561 16.517 3.48387 17.8252 3.48387 19.1613C3.48387 20.4843 3.88974 21.7524 4.65881 22.8272L8.00071 27.506C8.16445 27.7351 8.42836 27.871 8.70968 27.871C8.991 27.871 9.2549 27.7351 9.41777 27.506L12.7597 22.8272C13.5296 21.7524 13.9355 20.4843 13.9355 19.1613C13.9355 17.8252 13.3937 16.517 12.4487 15.572L12.2989 15.4222ZM11.3426 21.8151L8.70968 25.5011L6.07587 21.8151C5.51932 21.0356 5.22581 20.1194 5.22581 19.1613C5.22581 18.2834 5.58203 17.4246 6.20216 16.8036L6.35197 16.6538C6.98168 16.0241 7.81955 15.6774 8.70968 15.6774C9.59981 15.6774 10.4377 16.0241 11.0674 16.6538L11.2172 16.8036C11.8373 17.4246 12.1935 18.2834 12.1935 19.1613C12.1935 20.1194 11.9 21.0356 11.3426 21.8151Z" fill="#0F80CC"/>
<path d="M52.5133 39.9591L52.3634 39.8093C51.4054 38.8504 50.1303 38.3226 48.7742 38.3226C47.4181 38.3226 46.143 38.8504 45.1849 39.8093L45.0351 39.9591C44.0901 40.9041 43.5484 42.2123 43.5484 43.5484C43.5484 44.8714 43.9543 46.1395 44.7233 47.2143L48.0652 51.8931C48.229 52.1222 48.4929 52.2581 48.7742 52.2581C49.0555 52.2581 49.3194 52.1222 49.4823 51.8931L52.8242 47.2143C53.5941 46.1395 54 44.8714 54 43.5484C54 42.2123 53.4583 40.9041 52.5133 39.9591ZM51.4071 46.2022L48.7742 49.8882L46.1404 46.2022C45.5838 45.4227 45.2903 44.5065 45.2903 43.5484C45.2903 42.6705 45.6465 41.8117 46.2667 41.1907L46.4165 41.0409C47.0462 40.4112 47.8841 40.0645 48.7742 40.0645C49.6643 40.0645 50.5022 40.4112 51.1319 41.0409L51.2817 41.1907C51.9018 41.8117 52.2581 42.6705 52.2581 43.5484C52.2581 44.5065 51.9645 45.4227 51.4071 46.2022Z" fill="#0F80CC"/>
<path d="M7.83871 29.6129H9.58065V31.3548H7.83871V29.6129Z" fill="#0F80CC"/>
<path d="M7.83871 33.0968H9.58065V34.8387H7.83871V33.0968Z" fill="#0F80CC"/>
<path d="M7.83871 36.5806H9.58065V38.3226H7.83871V36.5806Z" fill="#0F80CC"/>
<path d="M11.3226 36.5806H13.0645V38.3226H11.3226V36.5806Z" fill="#0F80CC"/>
<path d="M14.8065 36.5806H16.5484V38.3226H14.8065V36.5806Z" fill="#0F80CC"/>
<path d="M18.2903 36.5806H20.0323V38.3226H18.2903V36.5806Z" fill="#0F80CC"/>
<path d="M21.7742 36.5806H23.5161V38.3226H21.7742V36.5806Z" fill="#0F80CC"/>
<path d="M25.2581 36.5806H27V38.3226H25.2581V36.5806Z" fill="#0F80CC"/>
<path d="M30.4839 36.5806H32.2258V38.3226H30.4839V36.5806Z" fill="#0F80CC"/>
<path d="M33.9677 36.5806H35.7097V38.3226H33.9677V36.5806Z" fill="#0F80CC"/>
<path d="M33.9677 40.0645H35.7097V41.8064H33.9677V40.0645Z" fill="#0F80CC"/>
<path d="M33.9677 43.5484H35.7097V45.2903H33.9677V43.5484Z" fill="#0F80CC"/>
<path d="M33.9677 47.0323H35.7097V48.7742H33.9677V47.0323Z" fill="#0F80CC"/>
<path d="M33.9677 50.5161H35.7097V52.2581H33.9677V50.5161Z" fill="#0F80CC"/>
<path d="M37.4516 50.5161H39.1936V52.2581H37.4516V50.5161Z" fill="#0F80CC"/>
<path d="M40.9355 50.5161H42.6774V52.2581H40.9355V50.5161Z" fill="#0F80CC"/>
<path d="M44.4194 50.5161H46.1613V52.2581H44.4194V50.5161Z" fill="#0F80CC"/>
<path d="M51.3871 13.9355C51.3871 9.13297 47.4799 5.22581 42.6774 5.22581C38.4715 5.22581 34.9528 8.22281 34.1437 12.1935H29.6129V5.22581C29.6129 2.34377 27.2691 0 24.3871 0H5.22581C2.34377 0 0 2.34377 0 5.22581V48.7742C0 51.6562 2.34377 54 5.22581 54H24.3871C27.2691 54 29.6129 51.6562 29.6129 48.7742V33.0968H39.1936C39.6743 33.0968 40.0645 32.7075 40.0645 32.2258V22.2436C40.8902 22.5032 41.7673 22.6452 42.6774 22.6452C47.4799 22.6452 51.3871 18.738 51.3871 13.9355ZM27 13.9355H30.4839V19.6717L29.3577 18.5455C29.0172 18.205 28.4667 18.205 28.1262 18.5455L27 19.6717V13.9355ZM5.22581 1.74194H24.3871C26.3085 1.74194 27.871 3.30445 27.871 5.22581V6.96774H1.74194V5.22581C1.74194 3.30445 3.30445 1.74194 5.22581 1.74194ZM24.3871 52.2581H5.22581C3.30445 52.2581 1.74194 50.6955 1.74194 48.7742V43.5484H27.871V48.7742C27.871 50.6955 26.3085 52.2581 24.3871 52.2581ZM27.871 41.8064H1.74194V8.70968H27.871V12.1935H18.2903C17.8095 12.1935 17.4194 12.5829 17.4194 13.0645V32.2258C17.4194 32.7075 17.8095 33.0968 18.2903 33.0968H27.871V41.8064ZM19.1613 31.3548V29.6129H38.3226V31.3548H19.1613ZM38.3226 27.871H19.1613V13.9355H25.2581V21.7742C25.2581 22.1261 25.4706 22.4448 25.7955 22.579C26.1212 22.7148 26.4948 22.6391 26.7448 22.39L28.7419 20.3928L30.7391 22.39C30.9054 22.5563 31.1284 22.6452 31.3548 22.6452C31.4672 22.6452 31.5804 22.6243 31.6884 22.579C32.0133 22.4448 32.2258 22.1261 32.2258 21.7742V13.9355H33.9677C33.9677 17.1502 35.7236 19.9582 38.3226 21.4667V27.871ZM42.6774 20.9032C38.8356 20.9032 35.7097 17.7773 35.7097 13.9355C35.7097 10.0936 38.8356 6.96774 42.6774 6.96774C46.5193 6.96774 49.6452 10.0936 49.6452 13.9355C49.6452 17.7773 46.5193 20.9032 42.6774 20.9032Z" fill="#0F80CC"/>
<path d="M40.9355 15.3168L39.8093 14.1907L38.5778 15.4222L40.3197 17.1642C40.4895 17.334 40.7125 17.4194 40.9355 17.4194C41.1585 17.4194 41.3814 17.334 41.5513 17.1642L46.7771 11.9384L45.5455 10.7068L40.9355 15.3168Z" fill="#0F80CC"/>
</svg>
