<svg width="68" height="50" viewBox="0 0 68 50" fill="none" xmlns="http://www.w3.org/2000/svg">
<path d="M5.16269 11.1291H15.6679C16.218 11.1291 16.664 10.693 16.664 10.1549C16.664 9.61677 16.218 9.18073 15.6679 9.18073H5.16269C4.61258 9.18073 4.16659 9.61677 4.16659 10.1549C4.16659 10.693 4.61245 11.1291 5.16269 11.1291Z" fill="#0F80CC"/>
<path d="M15.3077 15.819H11.1578C10.6077 15.819 10.1617 16.255 10.1617 16.7932C10.1617 17.3313 10.6077 17.7674 11.1578 17.7674H15.3077C15.8578 17.7674 16.3038 17.3313 16.3038 16.7932C16.3038 16.255 15.8578 15.819 15.3077 15.819Z" fill="#0F80CC"/>
<path d="M0.996094 22.5746H11.1578C11.708 22.5746 12.1539 22.1385 12.1539 21.6004C12.1539 21.0623 11.708 20.6262 11.1578 20.6262H0.996094C0.445984 20.6262 0 21.0623 0 21.6004C0 22.1385 0.445984 22.5746 0.996094 22.5746Z" fill="#0F80CC"/>
<path d="M16.664 39.845C16.664 39.3068 16.218 38.8708 15.6679 38.8708H5.16269C4.61258 38.8708 4.16659 39.3068 4.16659 39.845C4.16659 40.3831 4.61258 40.8191 5.16269 40.8191H15.6679C16.218 40.8191 16.664 40.3831 16.664 39.845Z" fill="#0F80CC"/>
<path d="M15.3077 32.2327H11.1578C10.6077 32.2327 10.1617 32.6687 10.1617 33.2068C10.1617 33.745 10.6077 34.181 11.1578 34.181H15.3077C15.8578 34.181 16.3038 33.745 16.3038 33.2068C16.3038 32.6687 15.8578 32.2327 15.3077 32.2327Z" fill="#0F80CC"/>
<path d="M12.1539 28.3996C12.1539 27.8615 11.708 27.4254 11.1578 27.4254H0.996094C0.445984 27.4254 0 27.8615 0 28.3996C0 28.9377 0.445984 29.3738 0.996094 29.3738H11.1578C11.708 29.3738 12.1539 28.9377 12.1539 28.3996Z" fill="#0F80CC"/>
<path d="M42.4374 13.2878C42.9877 13.2878 43.4335 12.8518 43.4335 12.3137V10.8267C43.4335 10.2886 42.9877 9.85252 42.4374 9.85252C41.8872 9.85252 41.4413 10.2886 41.4413 10.8267V12.3137C41.4413 12.8518 41.8872 13.2878 42.4374 13.2878Z" fill="#0F80CC"/>
<path d="M53.3893 14.289C53.0002 13.9087 52.3696 13.9087 51.9806 14.289L50.9054 15.3405C50.5164 15.7211 50.5164 16.3378 50.9054 16.7182C51.2947 17.0987 51.9252 17.0985 52.3142 16.7182L53.3893 15.6668C53.7782 15.2863 53.7782 14.6696 53.3893 14.289Z" fill="#0F80CC"/>
<path d="M55.4092 24.0258C54.859 24.0258 54.4132 24.4619 54.4132 25C54.4132 25.5381 54.859 25.9742 55.4092 25.9742H56.9295C57.4798 25.9742 57.9256 25.5381 57.9256 25C57.9256 24.4619 57.4798 24.0258 56.9295 24.0258H55.4092Z" fill="#0F80CC"/>
<path d="M52.3142 33.2816C51.925 32.9013 51.2944 32.9013 50.9054 33.2816C50.5164 33.6622 50.5164 34.2789 50.9054 34.6594L51.9806 35.7108C52.3698 36.0913 53.0003 36.0912 53.3893 35.7108C53.7783 35.3303 53.7783 34.7135 53.3893 34.3331L52.3142 33.2816Z" fill="#0F80CC"/>
<path d="M41.4413 37.6863V39.1732C41.4413 39.7113 41.8872 40.1473 42.4374 40.1473C42.9877 40.1473 43.4335 39.7113 43.4335 39.1732V37.6863C43.4335 37.1482 42.9877 36.7122 42.4374 36.7122C41.8872 36.7122 41.4413 37.1483 41.4413 37.6863Z" fill="#0F80CC"/>
<path d="M32.5606 33.2816L31.4855 34.3331C31.0965 34.7137 31.0965 35.3304 31.4855 35.7108C31.8746 36.0913 32.5052 36.0912 32.8941 35.7108L33.9692 34.6594C34.3582 34.2788 34.3582 33.6621 33.9692 33.2816C33.5803 32.9013 32.9496 32.9013 32.5606 33.2816Z" fill="#0F80CC"/>
<path d="M27.9452 24.0258C27.3951 24.0258 26.9491 24.4619 26.9491 25C26.9491 25.5381 27.3951 25.9742 27.9452 25.9742H29.4656C30.0158 25.9742 30.4617 25.5381 30.4617 25C30.4617 24.4619 30.0158 24.0258 29.4656 24.0258H27.9452Z" fill="#0F80CC"/>
<path d="M33.9693 15.3405L32.8942 14.289C32.5052 13.9087 31.8745 13.9087 31.4856 14.289C31.0966 14.6696 31.0966 15.2863 31.4856 15.6668L32.5607 16.7182C32.9499 17.0987 33.5804 17.0985 33.9693 16.7182C34.3583 16.3378 34.3583 15.7211 33.9693 15.3405Z" fill="#0F80CC"/>
<path d="M47.7938 25C47.7938 24.4619 47.3479 24.0258 46.7977 24.0258H43.4335V16.793C43.4335 16.2549 42.9877 15.8189 42.4374 15.8189C41.8872 15.8189 41.4413 16.2549 41.4413 16.793V25C41.4413 25.5381 41.8872 25.9742 42.4374 25.9742H46.7977C47.3478 25.9742 47.7938 25.5381 47.7938 25Z" fill="#0F80CC"/>
<path d="M61.325 24.8392C61.8742 24.8066 62.2923 24.3448 62.2589 23.8079C61.6253 13.5852 52.9186 5.57733 42.4373 5.57733C31.4867 5.57733 22.5776 14.2903 22.5776 25.0001C22.5776 35.7098 31.4867 44.4228 42.4373 44.4228C52.248 44.4228 60.6193 37.3929 62.0756 27.9064C62.1573 27.3744 61.7825 26.8783 61.2384 26.7985C60.6957 26.7188 60.1872 27.085 60.1055 27.6173C58.7973 36.1399 51.2727 42.4746 42.4373 42.4746C32.5852 42.4746 24.5698 34.6356 24.5698 25.0003C24.5698 15.3649 32.5852 7.52581 42.4373 7.52581C51.8671 7.52581 59.7003 14.7296 60.2703 23.9261C60.3035 24.4628 60.7753 24.8704 61.325 24.8392Z" fill="#0F80CC"/>
<path d="M42.4373 0C38.9336 0 35.5008 0.710886 32.3412 2.04031H14.7662C14.2161 2.04031 13.7701 2.47635 13.7701 3.01448C13.7701 3.55261 14.2161 3.98865 14.7662 3.98865H28.5937C26.7241 5.16545 25.003 6.58489 23.4855 8.22358C23.1163 8.62221 23.1474 9.23828 23.5551 9.5995C23.963 9.96072 24.5926 9.9302 24.9621 9.53144C29.4249 4.71227 35.7944 1.94835 42.4373 1.94835C55.4341 1.94835 66.0078 12.2893 66.0078 25C66.0078 37.7106 55.4342 48.0517 42.4373 48.0517C29.4405 48.0517 18.8669 37.7107 18.8669 25C18.8669 20.5489 20.167 16.2288 22.6265 12.5064C22.925 12.0545 22.7925 11.4516 22.3304 11.1596C21.8684 10.8677 21.2519 10.9971 20.9532 11.4491C18.285 15.4871 16.8748 20.1729 16.8748 25C16.8748 33.8021 21.5506 41.5555 28.6001 46.0113H14.7664C14.2162 46.0113 13.7703 46.4474 13.7703 46.9855C13.7703 47.5237 14.2162 47.9597 14.7664 47.9597H32.3275C35.43 49.2715 38.8482 50 42.4374 50C56.5326 50 68 38.7851 68 25C68 11.2149 56.5326 0 42.4373 0Z" fill="#0F80CC"/>
</svg>
