<svg width="38" height="26" viewBox="0 0 38 26" fill="none" xmlns="http://www.w3.org/2000/svg">
<path d="M37.3447 25.5H0.655202C0.293386 25.5 0 25.2054 0 24.8421V1.15792C0 0.794605 0.293386 0.5 0.655202 0.5H37.3448C37.7066 0.5 38 0.794605 38 1.15792V24.8421C37.9999 25.2055 37.7065 25.5 37.3447 25.5Z" fill="#F5F5F5"/>
<path d="M37.9999 2.42317H0V1.15792C0 0.794605 0.293386 0.5 0.655202 0.5H37.3448C37.7066 0.5 38 0.794605 38 1.15792L37.9999 2.42317Z" fill="#FF4B55"/>
<path d="M37.9999 8.1923H0V10.1154H37.9999V8.1923Z" fill="#FF4B55"/>
<path d="M37.9999 4.34596H0V6.26906H37.9999V4.34596Z" fill="#FF4B55"/>
<path d="M37.9999 13.9616H0.655202C0.293386 13.9616 0 13.667 0 13.3037V12.0384H37.9999V13.9616Z" fill="#FF4B55"/>
<path d="M37.9999 19.7313H0V21.6544H37.9999V19.7313Z" fill="#FF4B55"/>
<path d="M37.3447 25.5H0.655202C0.293386 25.5 0 25.2054 0 24.8421V23.5769H37.9999V24.8421C37.9999 25.2055 37.7065 25.5 37.3447 25.5Z" fill="#FF4B55"/>
<path d="M37.9999 15.885H0V17.8081H37.9999V15.885Z" fill="#FF4B55"/>
<path d="M17.0344 0.500074L0.655202 0.5C0.293386 0.5 0 0.794605 0 1.15792V13.3036C0 13.6669 0.293386 13.9615 0.655202 13.9615H17.0345C17.3963 13.9615 17.6897 13.6669 17.6897 13.3036V1.15792C17.6896 0.794605 17.3962 0.500074 17.0344 0.500074Z" fill="#41479B"/>
<path d="M1.83981 2.01007L1.98483 2.44679L2.44328 2.4503C2.50265 2.45082 2.52722 2.52684 2.4795 2.56224L2.1107 2.83575L2.24905 3.27464C2.26701 3.33143 2.20251 3.37853 2.1542 3.3438L1.78125 3.07617L1.4083 3.34387C1.35998 3.37853 1.29563 3.3315 1.31345 3.27471L1.45179 2.83582L1.083 2.56231C1.03528 2.52684 1.05984 2.45089 1.11922 2.45037L1.57766 2.44687L1.72269 2.01014C1.74139 1.9535 1.82095 1.9535 1.83981 2.01007Z" fill="#F5F5F5"/>
<path d="M1.83981 4.29462L1.98483 4.73134L2.44328 4.73485C2.50265 4.73537 2.52722 4.81139 2.4795 4.84679L2.1107 5.1203L2.24905 5.55919C2.26701 5.61598 2.20251 5.66308 2.1542 5.62835L1.78125 5.36072L1.4083 5.62842C1.35998 5.66308 1.29563 5.61605 1.31345 5.55926L1.45179 5.12037L1.083 4.84686C1.03528 4.81139 1.05984 4.73544 1.11922 4.73492L1.57766 4.73142L1.72269 4.29469C1.74139 4.23812 1.82095 4.23812 1.83981 4.29462Z" fill="#F5F5F5"/>
<path d="M1.83981 6.57916L1.98483 7.01589L2.44328 7.0194C2.50265 7.01992 2.52722 7.09594 2.4795 7.13134L2.1107 7.40485L2.24905 7.84374C2.26701 7.90053 2.20251 7.94763 2.1542 7.9129L1.78125 7.64527L1.4083 7.91297C1.35998 7.94763 1.29563 7.9006 1.31345 7.84381L1.45179 7.40492L1.083 7.13141C1.03528 7.09593 1.05984 7.01999 1.11922 7.01947L1.57766 7.01597L1.72269 6.57924C1.74139 6.52267 1.82095 6.52267 1.83981 6.57916Z" fill="#F5F5F5"/>
<path d="M1.83981 8.86379L1.98483 9.30052L2.44328 9.30402C2.50265 9.30454 2.52722 9.38056 2.4795 9.41596L2.1107 9.68947L2.24905 10.1284C2.26701 10.1852 2.20251 10.2323 2.1542 10.1975L1.78125 9.9299L1.4083 10.1976C1.35998 10.2323 1.29563 10.1852 1.31345 10.1284L1.45179 9.68955L1.083 9.41603C1.03528 9.38056 1.05984 9.30462 1.11922 9.3041L1.57766 9.30059L1.72269 8.86386C1.74139 8.80722 1.82095 8.80722 1.83981 8.86379Z" fill="#F5F5F5"/>
<path d="M1.83981 11.1483L1.98483 11.5851L2.44328 11.5886C2.50265 11.5891 2.52722 11.6651 2.4795 11.7005L2.1107 11.974L2.24905 12.4129C2.26701 12.4697 2.20251 12.5168 2.1542 12.4821L1.78125 12.2144L1.4083 12.4821C1.35998 12.5168 1.29563 12.4698 1.31345 12.413L1.45179 11.9741L1.083 11.7006C1.03528 11.6651 1.05984 11.5892 1.11922 11.5886L1.57766 11.5851L1.72269 11.1484C1.74139 11.0917 1.82095 11.0917 1.83981 11.1483Z" fill="#F5F5F5"/>
<path d="M3.60569 3.13013L3.75071 3.56686L4.20916 3.57036C4.26853 3.57088 4.2931 3.6469 4.24538 3.6823L3.87659 3.95582L4.01493 4.39471C4.03289 4.4515 3.96839 4.4986 3.92008 4.46387L3.54713 4.19617L3.17418 4.46387C3.12587 4.49852 3.06152 4.4515 3.07933 4.39471L3.21767 3.95582L2.84888 3.6823C2.80116 3.64683 2.82573 3.57088 2.8851 3.57036L3.34355 3.56686L3.48857 3.13013C3.5072 3.07364 3.58691 3.07364 3.60569 3.13013Z" fill="#F5F5F5"/>
<path d="M3.60569 5.41476L3.75071 5.85148L4.20916 5.85499C4.26853 5.85551 4.2931 5.93153 4.24538 5.96693L3.87659 6.24044L4.01493 6.67933C4.03289 6.73612 3.96839 6.78322 3.92008 6.74849L3.54713 6.48079L3.17418 6.74849C3.12587 6.78315 3.06152 6.73619 3.07933 6.67933L3.21767 6.24044L2.84888 5.96693C2.80116 5.93145 2.82573 5.85551 2.8851 5.85499L3.34355 5.85148L3.48857 5.41476C3.5072 5.35819 3.58691 5.35819 3.60569 5.41476Z" fill="#F5F5F5"/>
<path d="M3.60569 7.69931L3.75071 8.13603L4.20916 8.13954C4.26853 8.14006 4.2931 8.21608 4.24538 8.25148L3.87659 8.52499L4.01493 8.96388C4.03289 9.02067 3.96839 9.06777 3.92008 9.03304L3.54713 8.76534L3.17418 9.03304C3.12587 9.0677 3.06152 9.02067 3.07933 8.96388L3.21767 8.52499L2.84888 8.25148C2.80116 8.216 2.82573 8.14006 2.8851 8.13954L3.34355 8.13603L3.48857 7.69931C3.5072 7.64274 3.58691 7.64274 3.60569 7.69931Z" fill="#F5F5F5"/>
<path d="M3.60569 9.98386L3.75071 10.4206L4.20916 10.4241C4.26853 10.4246 4.2931 10.5006 4.24538 10.536L3.87659 10.8095L4.01493 11.2484C4.03289 11.3052 3.96839 11.3523 3.92008 11.3176L3.54713 11.0499L3.17418 11.3176C3.12587 11.3522 3.06152 11.3052 3.07933 11.2484L3.21767 10.8095L2.84888 10.536C2.80116 10.5006 2.82573 10.4246 2.8851 10.4241L3.34355 10.4206L3.48857 9.98386C3.5072 9.92736 3.58691 9.92736 3.60569 9.98386Z" fill="#F5F5F5"/>
<path d="M5.37157 2.01007L5.51659 2.44679L5.97504 2.4503C6.03442 2.45082 6.05898 2.52684 6.01126 2.56224L5.64247 2.83575L5.78081 3.27464C5.79877 3.33143 5.73428 3.37853 5.68596 3.3438L5.31301 3.0761L4.94006 3.3438C4.89175 3.37846 4.8274 3.33143 4.84521 3.27464L4.98356 2.83575L4.61476 2.56224C4.56704 2.52676 4.59161 2.45082 4.65098 2.4503L5.10943 2.44679L5.25445 2.01007C5.27316 1.9535 5.35279 1.9535 5.37157 2.01007Z" fill="#F5F5F5"/>
<path d="M5.37157 4.29462L5.51659 4.73134L5.97504 4.73485C6.03442 4.73537 6.05898 4.81139 6.01126 4.84679L5.64247 5.1203L5.78081 5.55919C5.79877 5.61598 5.73428 5.66308 5.68596 5.62835L5.31301 5.36065L4.94006 5.62835C4.89175 5.663 4.8274 5.61598 4.84521 5.55919L4.98356 5.1203L4.61476 4.84679C4.56704 4.81131 4.59161 4.73537 4.65098 4.73485L5.10943 4.73134L5.25445 4.29462C5.27316 4.23812 5.35279 4.23812 5.37157 4.29462Z" fill="#F5F5F5"/>
<path d="M5.37157 6.57916L5.51659 7.01589L5.97504 7.0194C6.03442 7.01992 6.05898 7.09594 6.01126 7.13134L5.64247 7.40485L5.78081 7.84374C5.79877 7.90053 5.73428 7.94763 5.68596 7.9129L5.31301 7.6452L4.94006 7.9129C4.89175 7.94756 4.8274 7.90053 4.84521 7.84374L4.98356 7.40485L4.61476 7.13134C4.56704 7.09586 4.59161 7.01992 4.65098 7.0194L5.10943 7.01589L5.25445 6.57916C5.27316 6.52267 5.35279 6.52267 5.37157 6.57916Z" fill="#F5F5F5"/>
<path d="M5.37157 8.86379L5.51659 9.30052L5.97504 9.30402C6.03442 9.30454 6.05898 9.38056 6.01126 9.41596L5.64247 9.68947L5.78081 10.1284C5.79877 10.1852 5.73428 10.2323 5.68596 10.1975L5.31301 9.92982L4.94006 10.1975C4.89175 10.2322 4.8274 10.1852 4.84521 10.1284L4.98356 9.68947L4.61476 9.41596C4.56704 9.38049 4.59161 9.30454 4.65098 9.30402L5.10943 9.30052L5.25445 8.86379C5.27316 8.80722 5.35279 8.80722 5.37157 8.86379Z" fill="#F5F5F5"/>
<path d="M5.37157 11.1483L5.51659 11.5851L5.97504 11.5886C6.03442 11.5891 6.05898 11.6651 6.01126 11.7005L5.64247 11.974L5.78081 12.4129C5.79877 12.4697 5.73428 12.5168 5.68596 12.4821L5.31301 12.2144L4.94006 12.4821C4.89175 12.5167 4.8274 12.4697 4.84521 12.4129L4.98356 11.974L4.61476 11.7005C4.56704 11.665 4.59161 11.5891 4.65098 11.5886L5.10943 11.5851L5.25445 11.1483C5.27316 11.0917 5.35279 11.0917 5.37157 11.1483Z" fill="#F5F5F5"/>
<path d="M7.13753 3.13013L7.28255 3.56686L7.741 3.57036C7.80038 3.57088 7.82494 3.6469 7.77722 3.6823L7.40843 3.95582L7.54677 4.39471C7.56473 4.4515 7.50024 4.4986 7.45192 4.46387L7.07897 4.19617L6.70602 4.46387C6.65771 4.49852 6.59336 4.4515 6.61117 4.39471L6.74952 3.95582L6.38072 3.6823C6.333 3.64683 6.35757 3.57088 6.41694 3.57036L6.87539 3.56686L7.02041 3.13013C7.03904 3.07364 7.11875 3.07364 7.13753 3.13013Z" fill="#F5F5F5"/>
<path d="M7.13753 5.41476L7.28255 5.85148L7.741 5.85499C7.80038 5.85551 7.82494 5.93153 7.77722 5.96693L7.40843 6.24044L7.54677 6.67933C7.56473 6.73612 7.50024 6.78322 7.45192 6.74849L7.07897 6.48079L6.70602 6.74849C6.65771 6.78315 6.59336 6.73619 6.61117 6.67933L6.74952 6.24044L6.38072 5.96693C6.333 5.93145 6.35757 5.85551 6.41694 5.85499L6.87539 5.85148L7.02041 5.41476C7.03904 5.35819 7.11875 5.35819 7.13753 5.41476Z" fill="#F5F5F5"/>
<path d="M7.13753 7.69931L7.28255 8.13603L7.741 8.13954C7.80038 8.14006 7.82494 8.21608 7.77722 8.25148L7.40843 8.52499L7.54677 8.96388C7.56473 9.02067 7.50024 9.06777 7.45192 9.03304L7.07897 8.76534L6.70602 9.03304C6.65771 9.0677 6.59336 9.02067 6.61117 8.96388L6.74952 8.52499L6.38072 8.25148C6.333 8.216 6.35757 8.14006 6.41694 8.13954L6.87539 8.13603L7.02041 7.69931C7.03904 7.64274 7.11875 7.64274 7.13753 7.69931Z" fill="#F5F5F5"/>
<path d="M7.13753 9.98386L7.28255 10.4206L7.741 10.4241C7.80038 10.4246 7.82494 10.5006 7.77722 10.536L7.40843 10.8095L7.54677 11.2484C7.56473 11.3052 7.50024 11.3523 7.45192 11.3176L7.07897 11.0499L6.70602 11.3176C6.65771 11.3522 6.59336 11.3052 6.61117 11.2484L6.74952 10.8095L6.38072 10.536C6.333 10.5006 6.35757 10.4246 6.41694 10.4241L6.87539 10.4206L7.02041 9.98386C7.03904 9.92736 7.11875 9.92736 7.13753 9.98386Z" fill="#F5F5F5"/>
<path d="M8.90341 2.01007L9.04844 2.44679L9.50688 2.4503C9.56626 2.45082 9.59083 2.52684 9.5431 2.56224L9.17431 2.83575L9.31265 3.27464C9.33062 3.33143 9.26612 3.37853 9.2178 3.3438L8.84478 3.0761L8.47183 3.3438C8.42352 3.37846 8.35917 3.33143 8.37698 3.27464L8.51532 2.83575L8.14653 2.56224C8.09881 2.52676 8.12338 2.45082 8.18275 2.4503L8.6412 2.44679L8.78622 2.01007C8.805 1.9535 8.88464 1.9535 8.90341 2.01007Z" fill="#F5F5F5"/>
<path d="M8.90341 4.29462L9.04844 4.73134L9.50688 4.73485C9.56626 4.73537 9.59083 4.81139 9.5431 4.84679L9.17431 5.1203L9.31265 5.55919C9.33062 5.61598 9.26612 5.66308 9.2178 5.62835L8.84478 5.36065L8.47183 5.62835C8.42352 5.663 8.35917 5.61598 8.37698 5.55919L8.51532 5.1203L8.14653 4.84679C8.09881 4.81131 8.12338 4.73537 8.18275 4.73485L8.6412 4.73134L8.78622 4.29462C8.805 4.23812 8.88464 4.23812 8.90341 4.29462Z" fill="#F5F5F5"/>
<path d="M8.90341 6.57916L9.04844 7.01589L9.50688 7.0194C9.56626 7.01992 9.59083 7.09594 9.5431 7.13134L9.17431 7.40485L9.31265 7.84374C9.33062 7.90053 9.26612 7.94763 9.2178 7.9129L8.84478 7.6452L8.47183 7.9129C8.42352 7.94756 8.35917 7.90053 8.37698 7.84374L8.51532 7.40485L8.14653 7.13134C8.09881 7.09586 8.12338 7.01992 8.18275 7.0194L8.6412 7.01589L8.78622 6.57916C8.805 6.52267 8.88464 6.52267 8.90341 6.57916Z" fill="#F5F5F5"/>
<path d="M8.90341 8.86379L9.04844 9.30052L9.50688 9.30402C9.56626 9.30454 9.59083 9.38056 9.5431 9.41596L9.17431 9.68947L9.31265 10.1284C9.33062 10.1852 9.26612 10.2323 9.2178 10.1975L8.84478 9.92982L8.47183 10.1975C8.42352 10.2322 8.35917 10.1852 8.37698 10.1284L8.51532 9.68947L8.14653 9.41596C8.09881 9.38049 8.12338 9.30454 8.18275 9.30402L8.6412 9.30052L8.78622 8.86379C8.805 8.80722 8.88464 8.80722 8.90341 8.86379Z" fill="#F5F5F5"/>
<path d="M8.90341 11.1483L9.04844 11.5851L9.50688 11.5886C9.56626 11.5891 9.59083 11.6651 9.5431 11.7005L9.17431 11.974L9.31265 12.4129C9.33062 12.4697 9.26612 12.5168 9.2178 12.4821L8.84478 12.2144L8.47183 12.4821C8.42352 12.5167 8.35917 12.4697 8.37698 12.4129L8.51532 11.974L8.14653 11.7005C8.09881 11.665 8.12338 11.5891 8.18275 11.5886L8.6412 11.5851L8.78622 11.1483C8.805 11.0917 8.88464 11.0917 8.90341 11.1483Z" fill="#F5F5F5"/>
<path d="M10.6693 3.13013L10.8143 3.56686L11.2728 3.57036C11.3321 3.57088 11.3567 3.6469 11.309 3.6823L10.9402 3.95582L11.0785 4.39471C11.0965 4.4515 11.032 4.4986 10.9837 4.46387L10.6107 4.19617L10.2378 4.46387C10.1895 4.49852 10.1251 4.4515 10.1429 4.39471L10.2813 3.95582L9.91249 3.6823C9.86477 3.64683 9.88933 3.57088 9.94871 3.57036L10.4072 3.56686L10.5522 3.13013C10.571 3.07364 10.6505 3.07364 10.6693 3.13013Z" fill="#F5F5F5"/>
<path d="M10.6693 5.41476L10.8143 5.85148L11.2728 5.85499C11.3321 5.85551 11.3567 5.93153 11.309 5.96693L10.9402 6.24044L11.0785 6.67933C11.0965 6.73612 11.032 6.78322 10.9837 6.74849L10.6107 6.48079L10.2378 6.74849C10.1895 6.78315 10.1251 6.73619 10.1429 6.67933L10.2813 6.24044L9.91249 5.96693C9.86477 5.93145 9.88933 5.85551 9.94871 5.85499L10.4072 5.85148L10.5522 5.41476C10.571 5.35819 10.6505 5.35819 10.6693 5.41476Z" fill="#F5F5F5"/>
<path d="M10.6693 7.69931L10.8143 8.13603L11.2728 8.13954C11.3321 8.14006 11.3567 8.21608 11.309 8.25148L10.9402 8.52499L11.0785 8.96388C11.0965 9.02067 11.032 9.06777 10.9837 9.03304L10.6107 8.76534L10.2378 9.03304C10.1895 9.0677 10.1251 9.02067 10.1429 8.96388L10.2813 8.52499L9.91249 8.25148C9.86477 8.216 9.88933 8.14006 9.94871 8.13954L10.4072 8.13603L10.5522 7.69931C10.571 7.64274 10.6505 7.64274 10.6693 7.69931Z" fill="#F5F5F5"/>
<path d="M10.6693 9.98386L10.8143 10.4206L11.2728 10.4241C11.3321 10.4246 11.3567 10.5006 11.309 10.536L10.9402 10.8095L11.0785 11.2484C11.0965 11.3052 11.032 11.3523 10.9837 11.3176L10.6107 11.0499L10.2378 11.3176C10.1895 11.3522 10.1251 11.3052 10.1429 11.2484L10.2813 10.8095L9.91249 10.536C9.86477 10.5006 9.88933 10.4246 9.94871 10.4241L10.4072 10.4206L10.5522 9.98386C10.571 9.92736 10.6505 9.92736 10.6693 9.98386Z" fill="#F5F5F5"/>
<path d="M12.4353 2.01007L12.5803 2.44679L13.0387 2.4503C13.0981 2.45082 13.1227 2.52684 13.0749 2.56224L12.7062 2.83575L12.8445 3.27464C12.8625 3.33143 12.798 3.37853 12.7496 3.3438L12.3767 3.0761L12.0037 3.3438C11.9554 3.37846 11.8911 3.33143 11.9089 3.27464L12.0472 2.83575L11.6784 2.56224C11.6307 2.52676 11.6553 2.45082 11.7147 2.4503L12.1731 2.44679L12.3181 2.01007C12.3368 1.9535 12.4165 1.9535 12.4353 2.01007Z" fill="#F5F5F5"/>
<path d="M12.4353 4.29462L12.5803 4.73134L13.0387 4.73485C13.0981 4.73537 13.1227 4.81139 13.0749 4.84679L12.7062 5.1203L12.8445 5.55919C12.8625 5.61598 12.798 5.66308 12.7496 5.62835L12.3767 5.36065L12.0037 5.62835C11.9554 5.663 11.8911 5.61598 11.9089 5.55919L12.0472 5.1203L11.6784 4.84679C11.6307 4.81131 11.6553 4.73537 11.7147 4.73485L12.1731 4.73134L12.3181 4.29462C12.3368 4.23812 12.4165 4.23812 12.4353 4.29462Z" fill="#F5F5F5"/>
<path d="M12.4353 6.57916L12.5803 7.01589L13.0387 7.0194C13.0981 7.01992 13.1227 7.09594 13.0749 7.13134L12.7062 7.40485L12.8445 7.84374C12.8625 7.90053 12.798 7.94763 12.7496 7.9129L12.3767 7.6452L12.0037 7.9129C11.9554 7.94756 11.8911 7.90053 11.9089 7.84374L12.0472 7.40485L11.6784 7.13134C11.6307 7.09586 11.6553 7.01992 11.7147 7.0194L12.1731 7.01589L12.3181 6.57916C12.3368 6.52267 12.4165 6.52267 12.4353 6.57916Z" fill="#F5F5F5"/>
<path d="M12.4353 8.86379L12.5803 9.30052L13.0387 9.30402C13.0981 9.30454 13.1227 9.38056 13.0749 9.41596L12.7062 9.68947L12.8445 10.1284C12.8625 10.1852 12.798 10.2323 12.7496 10.1975L12.3767 9.92982L12.0037 10.1975C11.9554 10.2322 11.8911 10.1852 11.9089 10.1284L12.0472 9.68947L11.6784 9.41596C11.6307 9.38049 11.6553 9.30454 11.7147 9.30402L12.1731 9.30052L12.3181 8.86379C12.3368 8.80722 12.4165 8.80722 12.4353 8.86379Z" fill="#F5F5F5"/>
<path d="M12.4353 11.1483L12.5803 11.5851L13.0387 11.5886C13.0981 11.5891 13.1227 11.6651 13.0749 11.7005L12.7062 11.974L12.8445 12.4129C12.8625 12.4697 12.798 12.5168 12.7496 12.4821L12.3767 12.2144L12.0037 12.4821C11.9554 12.5167 11.8911 12.4697 11.9089 12.4129L12.0472 11.974L11.6784 11.7005C11.6307 11.665 11.6553 11.5891 11.7147 11.5886L12.1731 11.5851L12.3181 11.1483C12.3368 11.0917 12.4165 11.0917 12.4353 11.1483Z" fill="#F5F5F5"/>
<path d="M14.2011 3.13013L14.3462 3.56686L14.8046 3.57036C14.864 3.57088 14.8885 3.6469 14.8408 3.6823L14.472 3.95582L14.6104 4.39471C14.6283 4.4515 14.5638 4.4986 14.5155 4.46387L14.1426 4.19617L13.7696 4.46387C13.7213 4.49852 13.657 4.4515 13.6748 4.39471L13.8131 3.95582L13.4443 3.6823C13.3966 3.64683 13.4212 3.57088 13.4805 3.57036L13.939 3.56686L14.084 3.13013C14.1027 3.07364 14.1824 3.07364 14.2011 3.13013Z" fill="#F5F5F5"/>
<path d="M14.2011 5.41476L14.3462 5.85148L14.8046 5.85499C14.864 5.85551 14.8885 5.93153 14.8408 5.96693L14.472 6.24044L14.6104 6.67933C14.6283 6.73612 14.5638 6.78322 14.5155 6.74849L14.1426 6.48079L13.7696 6.74849C13.7213 6.78315 13.657 6.73619 13.6748 6.67933L13.8131 6.24044L13.4443 5.96693C13.3966 5.93145 13.4212 5.85551 13.4805 5.85499L13.939 5.85148L14.084 5.41476C14.1027 5.35819 14.1824 5.35819 14.2011 5.41476Z" fill="#F5F5F5"/>
<path d="M14.2011 7.69931L14.3462 8.13603L14.8046 8.13954C14.864 8.14006 14.8885 8.21608 14.8408 8.25148L14.472 8.52499L14.6104 8.96388C14.6283 9.02067 14.5638 9.06777 14.5155 9.03304L14.1426 8.76534L13.7696 9.03304C13.7213 9.0677 13.657 9.02067 13.6748 8.96388L13.8131 8.52499L13.4443 8.25148C13.3966 8.216 13.4212 8.14006 13.4805 8.13954L13.939 8.13603L14.084 7.69931C14.1027 7.64274 14.1824 7.64274 14.2011 7.69931Z" fill="#F5F5F5"/>
<path d="M14.2011 9.98386L14.3462 10.4206L14.8046 10.4241C14.864 10.4246 14.8885 10.5006 14.8408 10.536L14.472 10.8095L14.6104 11.2484C14.6283 11.3052 14.5638 11.3523 14.5155 11.3176L14.1426 11.0499L13.7696 11.3176C13.7213 11.3522 13.657 11.3052 13.6748 11.2484L13.8131 10.8095L13.4443 10.536C13.3966 10.5006 13.4212 10.4246 13.4805 10.4241L13.939 10.4206L14.084 9.98386C14.1027 9.92736 14.1824 9.92736 14.2011 9.98386Z" fill="#F5F5F5"/>
<path d="M15.9671 2.01007L16.1121 2.44679L16.5706 2.4503C16.6299 2.45082 16.6545 2.52684 16.6068 2.56224L16.238 2.83575L16.3763 3.27464C16.3943 3.33143 16.3298 3.37853 16.2815 3.3438L15.9085 3.0761L15.5356 3.3438C15.4873 3.37846 15.4229 3.33143 15.4407 3.27464L15.5791 2.83575L15.2103 2.56224C15.1626 2.52676 15.1871 2.45082 15.2465 2.4503L15.705 2.44679L15.85 2.01007C15.8687 1.9535 15.9482 1.9535 15.9671 2.01007Z" fill="#F5F5F5"/>
<path d="M15.9671 4.29462L16.1121 4.73134L16.5706 4.73485C16.6299 4.73537 16.6545 4.81139 16.6068 4.84679L16.238 5.1203L16.3763 5.55919C16.3943 5.61598 16.3298 5.66308 16.2815 5.62835L15.9085 5.36065L15.5356 5.62835C15.4873 5.663 15.4229 5.61598 15.4407 5.55919L15.5791 5.1203L15.2103 4.84679C15.1626 4.81131 15.1871 4.73537 15.2465 4.73485L15.705 4.73134L15.85 4.29462C15.8687 4.23812 15.9482 4.23812 15.9671 4.29462Z" fill="#F5F5F5"/>
<path d="M15.9671 6.57916L16.1121 7.01589L16.5706 7.0194C16.6299 7.01992 16.6545 7.09594 16.6068 7.13134L16.238 7.40485L16.3763 7.84374C16.3943 7.90053 16.3298 7.94763 16.2815 7.9129L15.9085 7.6452L15.5356 7.9129C15.4873 7.94756 15.4229 7.90053 15.4407 7.84374L15.5791 7.40485L15.2103 7.13134C15.1626 7.09586 15.1871 7.01992 15.2465 7.0194L15.705 7.01589L15.85 6.57916C15.8687 6.52267 15.9482 6.52267 15.9671 6.57916Z" fill="#F5F5F5"/>
<path d="M15.9671 8.86379L16.1121 9.30052L16.5706 9.30402C16.6299 9.30454 16.6545 9.38056 16.6068 9.41596L16.238 9.68947L16.3763 10.1284C16.3943 10.1852 16.3298 10.2323 16.2815 10.1975L15.9085 9.92982L15.5356 10.1975C15.4873 10.2322 15.4229 10.1852 15.4407 10.1284L15.5791 9.68947L15.2103 9.41596C15.1626 9.38049 15.1871 9.30454 15.2465 9.30402L15.705 9.30052L15.85 8.86379C15.8687 8.80722 15.9482 8.80722 15.9671 8.86379Z" fill="#F5F5F5"/>
<path d="M15.9671 11.1483L16.1121 11.5851L16.5706 11.5886C16.6299 11.5891 16.6545 11.6651 16.6068 11.7005L16.238 11.974L16.3763 12.4129C16.3943 12.4697 16.3298 12.5168 16.2815 12.4821L15.9085 12.2144L15.5356 12.4821C15.4873 12.5167 15.4229 12.4697 15.4407 12.4129L15.5791 11.974L15.2103 11.7005C15.1626 11.665 15.1871 11.5891 15.2465 11.5886L15.705 11.5851L15.85 11.1483C15.8687 11.0917 15.9482 11.0917 15.9671 11.1483Z" fill="#F5F5F5"/>
</svg>
