<svg width="38" height="26" viewBox="0 0 38 26" fill="none" xmlns="http://www.w3.org/2000/svg">
<rect y="0.5" width="38" height="25" rx="2" fill="white"/>
<mask id="mask0_199_3121" style="mask-type:luminance" maskUnits="userSpaceOnUse" x="0" y="0" width="38" height="26">
<rect y="0.5" width="38" height="25" rx="2" fill="white"/>
</mask>
<g mask="url(#mask0_199_3121)">
<rect y="0.5" width="38" height="25" fill="#043CAE"/>
<path fill-rule="evenodd" clip-rule="evenodd" d="M17.7205 5.84518L19 5.5L20.2795 5.84518L19.9048 4.66667L20.2795 3.48816L19 3.83334L17.7205 3.48816L18.0952 4.66667L17.7205 5.84518ZM17.7205 22.5118L19 22.1667L20.2795 22.5118L19.9048 21.3333L20.2795 20.1548L19 20.5L17.7205 20.1548L18.0952 21.3333L17.7205 22.5118ZM28.0476 13.8333L26.7681 14.1785L27.1429 13L26.7681 11.8215L28.0476 12.1667L29.3271 11.8215L28.9524 13L29.3271 14.1785L28.0476 13.8333ZM8.67285 14.1785L9.95238 13.8333L11.2319 14.1785L10.8571 13L11.2319 11.8215L9.95238 12.1667L8.67285 11.8215L9.04762 13L8.67285 14.1785ZM26.8355 9.66667L25.5559 10.0118L25.9307 8.83334L25.5559 7.65483L26.8355 8L28.115 7.65483L27.7402 8.83334L28.115 10.0118L26.8355 9.66667ZM9.885 18.3452L11.1645 18L12.4441 18.3452L12.0693 17.1667L12.4441 15.9882L11.1645 16.3333L9.885 15.9882L10.2598 17.1667L9.885 18.3452ZM23.5238 6.61646L22.2443 6.96164L22.619 5.78313L22.2443 4.60461L23.5238 4.94979L24.8033 4.60461L24.4286 5.78313L24.8033 6.96164L23.5238 6.61646ZM13.1967 21.3954L14.4762 21.0502L15.7557 21.3954L15.3809 20.2169L15.7557 19.0384L14.4762 19.3835L13.1967 19.0384L13.5714 20.2169L13.1967 21.3954ZM26.8355 18L25.5559 18.3452L25.9307 17.1667L25.5559 15.9882L26.8355 16.3333L28.115 15.9882L27.7402 17.1667L28.115 18.3452L26.8355 18ZM9.885 10.0118L11.1645 9.66667L12.4441 10.0118L12.0693 8.83334L12.4441 7.65483L11.1645 8L9.885 7.65483L10.2598 8.83334L9.885 10.0118ZM23.5238 21.0502L22.2443 21.3954L22.619 20.2169L22.2443 19.0384L23.5238 19.3835L24.8033 19.0384L24.4286 20.2169L24.8033 21.3954L23.5238 21.0502ZM13.1967 6.96164L14.4762 6.61646L15.7557 6.96164L15.3809 5.78313L15.7557 4.60461L14.4762 4.94979L13.1967 4.60461L13.5714 5.78313L13.1967 6.96164Z" fill="#FFD429"/>
</g>
</svg>
